<?xml version="1.0" encoding="utf-8"?>
<!-- Generator: Adobe Illustrator 24.0.0, SVG Export Plug-In . SVG Version: 6.00 Build 0)  -->
<svg version="1.1" id="Layer_1" xmlns="http://www.w3.org/2000/svg" xmlns:xlink="http://www.w3.org/1999/xlink" x="0px" y="0px"
	 viewBox="0 0 459.6 233.2" style="enable-background:new 0 0 459.6 233.2;" xml:space="preserve">
<style type="text/css">
	.st0{opacity:0.6;}
	.st1{filter:url(#Adobe_OpacityMaskFilter);}
	.st2{fill-rule:evenodd;clip-rule:evenodd;fill:#FFFFFF;}
	.st3{mask:url(#mask-2_1_);fill:#EE3D8B;}
	.st4{fill:#FFFFFF;}
</style>
<title>Group 2</title>
<desc>Created with Sketch.</desc>
<g id="others">
	<g id="nuc" transform="translate(-728.000000, -869.000000)">
		<g id="brand-mentra" transform="translate(249.000000, 819.000000)">
			<g id="Image_x2F_Placeholder" transform="translate(478.000000, 50.000000)">
				<g id="Group-2" transform="translate(1.000000, 0.000000)">
					<g id="Group" transform="translate(2.000000, 0.000000)" class="st0">
						<g id="Clipped">
							<g>
								<g id="SVGID_1_">
								</g>
								<defs>
									<filter id="Adobe_OpacityMaskFilter" filterUnits="userSpaceOnUse" x="-2" y="-0.1" width="459.6" height="233.3">
										<feColorMatrix  type="matrix" values="1 0 0 0 0  0 1 0 0 0  0 0 1 0 0  0 0 0 1 0"/>
									</filter>
								</defs>
								<mask maskUnits="userSpaceOnUse" x="-2" y="-0.1" width="459.6" height="233.3" id="mask-2_1_">
									<g class="st1">
										<rect id="path-1_1_" x="-3" y="-1.2" class="st2" width="461.5" height="235.6"/>
									</g>
								</mask>
								<rect id="Rectangle" x="-2" y="-0.1" class="st3" width="459.6" height="233.3"/>
							</g>
						</g>
					</g>
					<g id="Group_1_">
						<polygon id="Path" class="st4" points="9.5,25.1 -2.8,-0.3 5.9,-0.3 13.4,17.7 21,-0.3 29.7,-0.3 17.5,25.1 17.5,39.2 
							9.5,39.2 						"/>
						<path id="Shape" class="st4" d="M30.3,19.8C30.3,7.1,40.1-1,51.2-1c12.1,0,21,9.3,21,20.5c0,11.2-8.8,20.5-21,20.5
							C38.9,40,30.3,30.4,30.3,19.8L30.3,19.8L30.3,19.8z M38.3,19.5c0,7.2,5.2,13.5,13,13.5c8.1,0,12.8-6.9,12.8-13.4
							C64.2,12.9,59.4,6,51.3,6C43.3,6,38.3,12.5,38.3,19.5L38.3,19.5L38.3,19.5z"/>
						<path id="Path_1_" class="st4" d="M87-0.3V24c0,2,0.1,4,1.1,6c1,1.7,2.7,3,5.4,3c2.7,0,4.5-1.2,5.3-2.8c1.1-1.9,1.1-4,1.1-6.1
							V-0.3h8V24c0,5.9-1.1,9.4-4.2,12.2C101.4,38.5,98,40,93.5,40c-2.9,0-7.4-0.7-10.4-3.8c-3.7-3.5-4.2-6.9-4.2-12.2V-0.3H87z"/>
						<polygon id="Path_2_" class="st4" points="142,27.1 141.8,-0.3 149.5,-0.3 149.5,39.2 142.4,39.2 124.1,11.9 124.2,39.2 
							116.5,39.2 116.5,-0.3 123.7,-0.3 						"/>
						<path id="Path_3_" class="st4" d="M188,11.8c-0.8-1.2-1.8-2.3-3-3.3C183,7,180.5,6,177.4,6c-6.4,0-12.9,4.8-12.9,13.4
							c0,8.9,6.6,13.6,12.9,13.6c3.2,0,5.9-0.9,7.9-2.4c2.1-1.5,3.5-3.6,4.1-6h-14.9v-6.4h24.1c0.1,2.6-0.3,6.6-1.8,9.9
							c-3.7,8.2-12.3,11.8-19.5,11.8c-11.9,0-21-9.1-21-20.6c0-11.8,9.5-20.4,21.1-20.4c9,0,16.9,5.7,19.5,12.9L188,11.8L188,11.8z"
							/>
					</g>
					<g id="Group_2_" transform="translate(1.000000, 65.000000)">
						<path id="Path_4_" class="st4" d="M5.1,26.9c0.3,5.3,3.9,6.3,5.6,6.3c3.1,0,5.5-2.5,5.5-5.2c0-3.4-2.9-4.2-8.4-6.4
							c-3-1.1-10-3.5-10-11C-2.3,3.1,4.5-1,11-1c5.3,0,12.3,2.8,12.6,11.5h-7.9c-0.3-1.8-1-4.9-5-4.9c-2.6,0-4.9,1.8-4.9,4.5
							c-0.1,2.9,2.1,3.7,8.9,6.5c6.1,2.6,9.5,5.5,9.5,11.1C24.1,34,20.2,40,10.8,40C1.7,40-3,34.6-2.9,26.9H5.1L5.1,26.9z"/>
						<path id="Shape_1_" class="st4" d="M42.5-0.3c6.7,0,9.4,1,11.8,2.7c2.9,2.3,4.5,6.2,4.5,10.1s-1.7,7.9-4.2,10
							c-2.7,2.2-5.4,3.1-11.2,3.1h-4.9v13.6h-8V-0.3H42.5z M38.4,18.7h4.8c1.8,0,3.6-0.2,5.2-1c1.5-0.7,2.6-2.5,2.6-5
							c0-2.5-1.2-4.2-2.8-4.9c-1.6-0.9-3.5-1-5.5-1h-4.4L38.4,18.7L38.4,18.7z"/>
						<path id="Shape_2_" class="st4" d="M62.5,19.8C62.5,7.1,72.3-1,83.4-1c12.1,0,21,9.3,21,20.5c0,11.2-8.9,20.5-21.1,20.5
							C71.1,40,62.5,30.4,62.5,19.8L62.5,19.8L62.5,19.8z M70.5,19.5c0,7.2,5.2,13.5,13,13.5c8.1,0,12.9-6.9,12.9-13.4
							C96.4,12.9,91.6,6,83.5,6C75.5,6,70.5,12.5,70.5,19.5L70.5,19.5L70.5,19.5z"/>
						<path id="Path_5_" class="st4" d="M111.1-0.3h12.1c6.2,0,9.8,1,11.9,2.5c3.3,2.3,5.1,6.3,5.1,10.7c0,2.9-0.8,5.4-2.2,7.4
							c-1.7,2.5-4,3.6-6.6,4.3l8.9,14.6h-8.4l-10.7-18.4h1.6c2.6,0,5.5-0.2,7.2-1.4c1.6-1.3,2.5-3.4,2.5-5.8c0-2.4-1.2-4.6-3-5.7
							c-1.5-0.9-3.4-1.2-5.7-1.2h-4.7v32.5h-8L111.1-0.3L111.1-0.3z"/>
						<polygon id="Path_6_" class="st4" points="151.6,6.7 142.9,6.7 142.9,-0.3 168.2,-0.3 168.2,6.7 159.6,6.7 159.6,39.2 
							151.6,39.2 151.6,6.7 						"/>
						<polygon id="Path_7_" class="st4" points="182.6,25.1 170.3,-0.3 179,-0.3 186.6,17.7 194.2,-0.3 202.8,-0.3 190.6,25.1 
							190.6,39.2 182.6,39.2 						"/>
						<polygon id="Path_8_" class="st4" points="225.6,-0.3 246.8,-0.3 246.8,6.7 233.6,6.7 233.6,16.2 246.5,16.2 246.5,23.1 
							233.6,23.1 233.6,39.2 225.6,39.2 						"/>
						<path id="Shape_3_" class="st4" d="M255.5,39.2h-8.7L263-0.3h7.1l15.8,39.5h-8.8l-2.9-7.7h-15.8L255.5,39.2z M266.2,9.1
							l-5.7,16H272L266.2,9.1z"/>
						<path id="Path_9_" class="st4" d="M297,26.9c0.3,5.3,3.9,6.3,5.6,6.3c3.1,0,5.5-2.5,5.5-5.2c0-3.4-2.9-4.2-8.4-6.4
							c-3-1.1-10-3.5-10-11c0-7.6,6.7-11.7,13.2-11.7c5.3,0,12.3,2.8,12.6,11.5h-7.9c-0.3-1.8-1-4.9-5-4.9c-2.6,0-4.9,1.8-4.9,4.5
							c-0.1,2.9,2.1,3.7,8.9,6.5c6.1,2.6,9.5,5.5,9.5,11.1c0,6.3-3.9,12.3-13.3,12.3c-9.1,0-13.8-5.4-13.7-13H297L297,26.9z"/>
						<polygon id="Path_10_" class="st4" points="322.4,39.2 322.4,-0.3 330.5,-0.3 330.5,15.6 345.9,15.6 345.9,-0.3 353.9,-0.3 
							353.9,39.2 345.9,39.2 345.9,22.6 330.5,22.6 330.5,39.2 						"/>
						<polygon id="Path_11_" class="st4" points="362.5,-0.3 370.5,-0.3 370.5,39.2 362.5,39.2 						"/>
						<path id="Shape_4_" class="st4" d="M377.3,19.8c0-12.6,9.8-20.8,20.9-20.8c12.1,0,21,9.3,21,20.5c0,11.2-8.9,20.5-21.1,20.5
							C386,40,377.3,30.4,377.3,19.8L377.3,19.8L377.3,19.8z M385.4,19.5c0,7.2,5.2,13.5,13,13.5c8.1,0,12.9-6.9,12.9-13.4
							c0-6.6-4.8-13.6-12.9-13.6C390.4,6,385.4,12.5,385.4,19.5L385.4,19.5L385.4,19.5z"/>
						<polygon id="Path_12_" class="st4" points="451.7,27.1 451.5,-0.3 459.3,-0.3 459.3,39.2 452.1,39.2 433.7,11.9 433.9,39.2 
							426.2,39.2 426.2,-0.3 433.3,-0.3 						"/>
					</g>
					<g id="Group_3_" transform="translate(3.000000, 130.000000)">
						<path id="Shape_5_" class="st4" d="M8.9-1.2c6.8,0,9.5,1,11.8,2.7c2.9,2.3,4.5,6.2,4.5,10.1s-1.7,7.9-4.2,10
							c-2.7,2.2-5.4,3.1-11.3,3.1H4.9v13.5h-8.1V-1.2H8.9L8.9-1.2z M4.9,17.7h4.8c1.8,0,3.6-0.2,5.3-1c1.5-0.7,2.7-2.5,2.7-5
							c0-2.5-1.2-4.2-2.8-4.9c-1.6-0.9-3.5-1-5.5-1H4.9L4.9,17.7L4.9,17.7z"/>
						<polygon id="Path_13_" class="st4" points="30.9,-1.2 39,-1.2 39,31.2 52.2,31.2 52.2,38.2 30.9,38.2 						"/>
						<path id="Shape_6_" class="st4" d="M62.8,38.2H54L70.3-1.2h7.1l15.9,39.4h-8.8l-2.9-7.7H65.6L62.8,38.2z M73.4,8.2l-5.7,16
							h11.5L73.4,8.2z"/>
						<polygon id="Path_14_" class="st4" points="102.4,24.1 90.1,-1.2 98.8,-1.2 106.4,16.7 114,-1.2 122.7,-1.2 110.4,24.1 
							110.4,38.2 102.4,38.2 						"/>
						<polygon id="Path_15_" class="st4" points="128.2,-1.2 149.5,-1.2 149.5,5.8 136.2,5.8 136.2,15.2 149.1,15.2 149.1,22.2 
							136.2,22.2 136.2,38.2 128.2,38.2 						"/>
						<path id="Path_16_" class="st4" d="M164.2-1.2V23c0,2,0.1,4,1.1,6c1,1.7,2.8,3,5.4,3c2.7,0,4.5-1.2,5.4-2.8
							c1.1-1.9,1.1-4,1.1-6.1V-1.2h8.1V23c0,5.9-1.1,9.4-4.2,12.2c-2.4,2.3-5.8,3.8-10.3,3.8c-2.9,0-7.5-0.7-10.5-3.8
							c-3.7-3.5-4.2-6.9-4.2-12.2V-1.2L164.2-1.2L164.2-1.2z"/>
						<polygon id="Path_17_" class="st4" points="194,-1.2 202.1,-1.2 202.1,31.2 215.3,31.2 215.3,38.2 194,38.2 						"/>
					</g>
					<g id="Group_4_" transform="translate(1.000000, 194.000000)">
						<path id="Path_18_" class="st4" d="M38,26c-2.4,8.2-10.2,14-19.5,14C6.3,40-2.5,30.4-2.5,19.4C-2.5,8.9,5.8-1,18.4-1
							C29.9-1,36.4,7.4,38,13.2h-8.5C28.3,10.5,24.7,6,18.3,6C10.6,6,5.6,12.4,5.6,19.4c0,7.2,5.2,13.6,12.8,13.6
							c7.1,0,10.4-5.5,11.1-7H38z"/>
						<path id="Shape_7_" class="st4" d="M42.8,19.8C42.8,7.1,52.6-1,63.7-1c12.1,0,21,9.3,21,20.5c0,11.2-8.8,20.5-21,20.5
							C51.4,40,42.8,30.4,42.8,19.8L42.8,19.8L42.8,19.8z M50.8,19.5c0,7.2,5.2,13.5,13,13.5c8.1,0,12.8-6.9,12.8-13.4
							C76.6,12.9,71.9,6,63.7,6C55.8,6,50.8,12.5,50.8,19.5L50.8,19.5L50.8,19.5z"/>
						<polygon id="Path_19_" class="st4" points="91.6,-0.3 99.7,-0.3 99.7,32.2 112.8,32.2 112.8,39.2 91.6,39.2 						"/>
						<path id="Shape_8_" class="st4" d="M113.7,19.8c0-12.6,9.8-20.8,20.9-20.8c12.1,0,21,9.3,21,20.5c0,11.2-8.8,20.5-21,20.5
							C122.4,40,113.7,30.4,113.7,19.8L113.7,19.8L113.7,19.8z M121.8,19.5c0,7.2,5.2,13.5,13,13.5c8.1,0,12.8-6.9,12.8-13.4
							c0-6.6-4.7-13.6-12.9-13.6C126.7,6,121.8,12.5,121.8,19.5L121.8,19.5L121.8,19.5z"/>
						<path id="Path_20_" class="st4" d="M162.3-0.3h12.1c6.2,0,9.8,1,11.9,2.5c3.3,2.3,5.1,6.3,5.1,10.7c0,2.9-0.8,5.4-2.2,7.4
							c-1.7,2.5-4,3.6-6.6,4.3l8.9,14.6h-8.4l-10.7-18.4h1.6c2.6,0,5.5-0.2,7.2-1.4c1.6-1.3,2.5-3.4,2.5-5.8c0-2.4-1.2-4.6-3-5.7
							c-1.5-0.9-3.4-1.2-5.7-1.2h-4.7v32.5h-8L162.3-0.3L162.3-0.3z"/>
						<polygon id="Path_21_" class="st4" points="197.4,-0.3 218.6,-0.3 218.6,6.7 205.5,6.7 205.5,16.2 218.3,16.2 218.3,23.1 
							205.5,23.1 205.5,39.2 197.4,39.2 						"/>
						<path id="Path_22_" class="st4" d="M233.3-0.3V24c0,2,0.1,4,1.1,6c1,1.7,2.7,3,5.4,3c2.7,0,4.5-1.2,5.3-2.8
							c1.1-1.9,1.1-4,1.1-6.1V-0.3h8V24c0,5.9-1.1,9.4-4.2,12.2c-2.4,2.3-5.8,3.8-10.2,3.8c-2.9,0-7.4-0.7-10.4-3.8
							c-3.7-3.5-4.2-6.9-4.2-12.2V-0.3L233.3-0.3L233.3-0.3z"/>
						<polygon id="Path_23_" class="st4" points="263,-0.3 271,-0.3 271,32.2 284.1,32.2 284.1,39.2 263,39.2 						"/>
					</g>
				</g>
			</g>
		</g>
	</g>
</g>
</svg>
