<?xml version="1.0" encoding="utf-8"?>
<!-- Generator: Adobe Illustrator 24.0.0, SVG Export Plug-In . SVG Version: 6.00 Build 0)  -->
<svg version="1.1" id="Layer_1" xmlns="http://www.w3.org/2000/svg" xmlns:xlink="http://www.w3.org/1999/xlink" x="0px" y="0px"
	 viewBox="0 0 519.2 497.4" style="enable-background:new 0 0 519.2 497.4;" xml:space="preserve">
<style type="text/css">
	.st0{fill:none;stroke:#000000;stroke-width:0.125;}
	.st1{fill:#FFFFFF;}
	.st2{font-family:'UniversLTStd';}
	.st3{font-size:1.0012px;}
	.st4{clip-path:url(#SVGID_2_);}
	.st5{clip-path:url(#SVGID_4_);}
	.st6{clip-path:url(#SVGID_6_);}
	.st7{clip-path:url(#SVGID_8_);}
	.st8{clip-path:url(#SVGID_10_);}
	.st9{clip-path:url(#SVGID_12_);}
	.st10{clip-path:url(#SVGID_14_);}
	.st11{clip-path:url(#SVGID_16_);}
	.st12{clip-path:url(#SVGID_18_);}
	.st13{clip-path:url(#SVGID_20_);}
	.st14{fill:none;stroke:#231F20;stroke-width:0.75;}
	.st15{fill:none;stroke:#000000;stroke-width:3.100000e-02;}
	.st16{clip-path:url(#SVGID_22_);fill:none;stroke:#000000;stroke-width:0.188;}
	.st17{fill:none;stroke:#000000;stroke-width:0.188;}
	.st18{clip-path:url(#SVGID_24_);fill:#BCBEC0;}
	.st19{font-size:1.1264px;}
	.st20{clip-path:url(#SVGID_26_);}
	.st21{clip-path:url(#SVGID_28_);}
	.st22{clip-path:url(#SVGID_30_);}
	.st23{clip-path:url(#SVGID_32_);}
	.st24{clip-path:url(#SVGID_34_);}
	.st25{clip-path:url(#SVGID_36_);}
	.st26{clip-path:url(#SVGID_38_);}
	.st27{clip-path:url(#SVGID_40_);}
	.st28{clip-path:url(#SVGID_42_);}
	.st29{clip-path:url(#SVGID_44_);}
	.st30{font-family:'UniversLTStd-Bold';}
	.st31{font-size:2.1902px;}
	.st32{clip-path:url(#SVGID_46_);fill:none;stroke:#000000;stroke-width:0.188;}
	.st33{clip-path:url(#SVGID_48_);fill:none;stroke:#000000;stroke-width:0.188;}
	.st34{clip-path:url(#SVGID_50_);fill:none;stroke:#000000;stroke-width:0.188;}
	.st35{clip-path:url(#SVGID_52_);fill:none;stroke:#000000;stroke-width:0.188;}
	.st36{clip-path:url(#SVGID_54_);fill:#BCBEC0;}
	.st37{clip-path:url(#SVGID_56_);}
	.st38{clip-path:url(#SVGID_58_);}
	.st39{clip-path:url(#SVGID_60_);}
	.st40{clip-path:url(#SVGID_62_);}
	.st41{clip-path:url(#SVGID_64_);}
	.st42{clip-path:url(#SVGID_66_);}
	.st43{clip-path:url(#SVGID_68_);}
	.st44{clip-path:url(#SVGID_70_);}
	.st45{clip-path:url(#SVGID_72_);}
	.st46{clip-path:url(#SVGID_74_);}
	.st47{clip-path:url(#SVGID_76_);fill:none;stroke:#000000;stroke-width:0.188;}
	.st48{clip-path:url(#SVGID_78_);fill:none;stroke:#000000;stroke-width:0.188;}
	.st49{clip-path:url(#SVGID_80_);fill:none;stroke:#000000;stroke-width:0.188;}
	.st50{clip-path:url(#SVGID_82_);fill:none;stroke:#000000;stroke-width:0.188;}
	.st51{clip-path:url(#SVGID_84_);fill:#BCBEC0;}
	.st52{clip-path:url(#SVGID_86_);}
	.st53{clip-path:url(#SVGID_88_);}
	.st54{clip-path:url(#SVGID_90_);}
	.st55{clip-path:url(#SVGID_92_);}
	.st56{clip-path:url(#SVGID_94_);}
	.st57{clip-path:url(#SVGID_96_);}
	.st58{clip-path:url(#SVGID_98_);}
	.st59{clip-path:url(#SVGID_100_);}
	.st60{clip-path:url(#SVGID_102_);}
	.st61{clip-path:url(#SVGID_104_);}
	.st62{fill:none;stroke:#000000;stroke-width:6.300000e-02;}
	.st63{fill:none;stroke:#939598;stroke-width:6.300000e-02;}
	.st64{clip-path:url(#SVGID_106_);}
	.st65{clip-path:url(#SVGID_108_);}
	.st66{clip-path:url(#SVGID_110_);}
	.st67{clip-path:url(#SVGID_112_);}
	.st68{clip-path:url(#SVGID_114_);}
	.st69{clip-path:url(#SVGID_116_);}
	.st70{clip-path:url(#SVGID_118_);}
	.st71{clip-path:url(#SVGID_120_);}
	.st72{clip-path:url(#SVGID_122_);}
	.st73{clip-path:url(#SVGID_124_);}
	.st74{font-size:4.5056px;}
	.st75{font-size:1.3141px;}
	.st76{font-size:2.0025px;}
	.st77{font-size:2.2528px;}
	.st78{font-size:1.2515px;}
	.st79{fill:#BCBEC0;}
	.st80{font-size:1.5019px;}
	.st81{fill:none;stroke:#EE3D8B;stroke-width:0.75;}
	.st82{fill:none;stroke:#EE3F8B;stroke-width:0.75;}
	.st83{enable-background:new    ;}
	.st84{fill:#231F20;}
</style>
<rect x="185.1" y="22.7" class="st0" width="120.1" height="60.8"/>
<line class="st0" x1="185.1" y1="22.6" x2="305.1" y2="83.5"/>
<line class="st0" x1="185.1" y1="83.5" x2="305.1" y2="22.6"/>
<rect x="206.6" y="96.7" class="st0" width="25.3" height="26"/>
<line class="st0" x1="206.6" y1="96.6" x2="231.9" y2="122.7"/>
<line class="st0" x1="206.6" y1="122.7" x2="231.9" y2="96.6"/>
<rect x="231.9" y="96.7" class="st0" width="25.3" height="26"/>
<line class="st0" x1="231.9" y1="96.6" x2="257.2" y2="122.7"/>
<line class="st0" x1="231.9" y1="122.7" x2="257.2" y2="96.6"/>
<rect x="257.3" y="96.7" class="st0" width="25.3" height="26"/>
<line class="st0" x1="257.3" y1="96.6" x2="282.6" y2="122.7"/>
<line class="st0" x1="257.3" y1="122.7" x2="282.6" y2="96.6"/>
<rect x="185" y="136.1" width="120.1" height="13.8"/>
<text transform="matrix(1 0 0 1 278.899 139.3381)" class="st1 st2 st3">640 Clay St. Suite. 222</text>
<text transform="matrix(1 0 0 1 278.899 141.0901)" class="st1 st2 st3">S</text>
<text transform="matrix(1 0 0 1 279.547 141.0901)" class="st1 st2 st3">an </text>
<text transform="matrix(1 0 0 1 280.995 141.0901)" class="st1 st2 st3">F</text>
<text transform="matrix(1 0 0 1 281.532 141.0901)" class="st1 st2 st3">rancisco, CA 94</text>
<text transform="matrix(1 0 0 1 288.821 141.0901)" class="st1 st2 st3">11</text>
<text transform="matrix(1 0 0 1 289.6659 141.0901)" class="st1 st2 st3">1</text>
<text transform="matrix(1 0 0 1 262.0034 139.3381)" class="st1 st2 st3">T</text>
<text transform="matrix(1 0 0 1 262.4805 139.3381)" class="st1 st2 st3">: +1 (4</text>
<text transform="matrix(1 0 0 1 265.3465 139.3381)" class="st1 st2 st3">1</text>
<text transform="matrix(1 0 0 1 265.8894 139.3381)" class="st1 st2 st3">5)3</text>
<text transform="matrix(1 0 0 1 267.3355 139.3381)" class="st1 st2 st3">1</text>
<text transform="matrix(1 0 0 1 267.8784 139.3381)" class="st1 st2 st3">7</text>
<text transform="matrix(1 0 0 1 268.3595 139.3381)" class="st1 st2 st3">-9475</text>
<text transform="matrix(1 0 0 1 262.0034 141.0901)" class="st1 st2 st3">F: +1 (4</text>
<text transform="matrix(1 0 0 1 265.4265 141.0901)" class="st1 st2 st3">1</text>
<text transform="matrix(1 0 0 1 265.9695 141.0901)" class="st1 st2 st3">5)3</text>
<text transform="matrix(1 0 0 1 267.4154 141.0901)" class="st1 st2 st3">1</text>
<text transform="matrix(1 0 0 1 267.9585 141.0901)" class="st1 st2 st3">7</text>
<text transform="matrix(1 0 0 1 268.4405 141.0901)" class="st1 st2 st3">-9232</text>
<text transform="matrix(1 0 0 1 262.0034 142.842)" class="st1 st2 st3">e: hello@nuc.com</text>
<text transform="matrix(1 0 0 1 202.8707 139.3381)" class="st1 st2 st3">nuc</text>
<text transform="matrix(1 0 0 1 202.8707 141.0901)" class="st1 st2 st3">Compa</text>
<text transform="matrix(1 0 0 1 206.2637 141.0901)" class="st1 st2 st3">n</text>
<text transform="matrix(1 0 0 1 206.8566 141.0901)" class="st1 st2 st3">y Number: 3</text>
<text transform="matrix(1 0 0 1 212.6987 141.0901)" class="st1 st2 st3">1</text>
<text transform="matrix(1 0 0 1 213.2197 141.0901)" class="st1 st2 st3">435</text>
<text transform="matrix(1 0 0 1 202.8707 142.842)" class="st1 st2 st3">© 2</text>
<text transform="matrix(1 0 0 1 204.5066 142.842)" class="st1 st2 st3">0</text>
<text transform="matrix(1 0 0 1 205.0097 142.842)" class="st1 st2 st3">1</text>
<text transform="matrix(1 0 0 1 205.5307 142.842)" class="st1 st2 st3">4-2</text>
<text transform="matrix(1 0 0 1 206.9776 142.842)" class="st1 st2 st3">01</text>
<text transform="matrix(1 0 0 1 207.9806 142.842)" class="st1 st2 st3">9 </text>
<text transform="matrix(1 0 0 1 202.8707 144.5945)" class="st1 st2 st3">All rights reserved</text>
<g>
	<g>
		<defs>
			<rect id="SVGID_1_" x="230.6" y="139.1" width="2.4" height="2.4"/>
		</defs>
		<clipPath id="SVGID_2_">
			<use xlink:href="#SVGID_1_"  style="overflow:visible;"/>
		</clipPath>
		<g class="st4">
			<g>
				<defs>
					<rect id="SVGID_3_" x="230.6" y="139.1" width="2.4" height="2.4"/>
				</defs>
				<clipPath id="SVGID_4_">
					<use xlink:href="#SVGID_3_"  style="overflow:visible;"/>
				</clipPath>
				<g transform="matrix(1 0 0 1 0 0)" class="st5">
				</g>
			</g>
		</g>
	</g>
</g>
<g>
	<g>
		<defs>
			<rect id="SVGID_5_" x="236.7" y="139.1" width="2.4" height="2.4"/>
		</defs>
		<clipPath id="SVGID_6_">
			<use xlink:href="#SVGID_5_"  style="overflow:visible;"/>
		</clipPath>
		<g class="st6">
			<g>
				<defs>
					<rect id="SVGID_7_" x="236.7" y="139.1" width="2.4" height="2.4"/>
				</defs>
				<clipPath id="SVGID_8_">
					<use xlink:href="#SVGID_7_"  style="overflow:visible;"/>
				</clipPath>
				<g transform="matrix(1 0 0 1 0 0)" class="st7">
				</g>
			</g>
		</g>
	</g>
</g>
<g>
	<g>
		<defs>
			<rect id="SVGID_9_" x="242.7" y="139.1" width="2.4" height="2.4"/>
		</defs>
		<clipPath id="SVGID_10_">
			<use xlink:href="#SVGID_9_"  style="overflow:visible;"/>
		</clipPath>
		<g class="st8">
			<g>
				<defs>
					<rect id="SVGID_11_" x="242.7" y="139.1" width="2.4" height="2.4"/>
				</defs>
				<clipPath id="SVGID_12_">
					<use xlink:href="#SVGID_11_"  style="overflow:visible;"/>
				</clipPath>
				<g transform="matrix(1 0 0 1 0 0)" class="st9">
				</g>
			</g>
		</g>
	</g>
</g>
<g>
	<g>
		<defs>
			<rect id="SVGID_13_" x="248.7" y="139.1" width="2.4" height="2.4"/>
		</defs>
		<clipPath id="SVGID_14_">
			<use xlink:href="#SVGID_13_"  style="overflow:visible;"/>
		</clipPath>
		<g class="st10">
			<g>
				<defs>
					<rect id="SVGID_15_" x="248.7" y="139.1" width="2.4" height="2.4"/>
				</defs>
				<clipPath id="SVGID_16_">
					<use xlink:href="#SVGID_15_"  style="overflow:visible;"/>
				</clipPath>
				<g class="st11">
				</g>
			</g>
		</g>
	</g>
</g>
<rect x="185" y="14.5" class="st1" width="120.1" height="8.1"/>
<text transform="matrix(1 0 0 1 278.899 18.3489)" class="st2 st3">ABOUT US</text>
<text transform="matrix(1 0 0 1 262.0034 18.3489)" class="st2 st3">DONUT</text>
<text transform="matrix(1 0 0 1 253.5562 18.3489)" class="st2 st3">BR</text>
<text transform="matrix(1 0 0 1 254.8921 18.3489)" class="st2 st3">A</text>
<text transform="matrix(1 0 0 1 255.5951 18.3489)" class="st2 st3">CELET</text>
<text transform="matrix(1 0 0 1 270.4517 18.3489)" class="st2 st3">T</text>
<text transform="matrix(1 0 0 1 271.0237 18.3489)" class="st2 st3">ORUS</text>
<g>
	<g>
		<defs>
			<rect id="SVGID_17_" x="185" y="14.5" width="120.1" height="135.5"/>
		</defs>
		<clipPath id="SVGID_18_">
			<use xlink:href="#SVGID_17_"  style="overflow:visible;"/>
		</clipPath>
		<path class="st12" d="M207.3,19.5L207.3,19.5C207.4,19.5,207.4,19.5,207.3,19.5c0.1,0,0.2,0,0.2,0c0,0,0-0.1,0-0.1
			c0,0,0-0.1,0-0.1c0,0,0,0,0,0l0,0l-0.6-0.5l0.6-0.5c0,0,0,0,0,0c0,0,0-0.1,0-0.1c0,0,0-0.1,0-0.1c0,0-0.1,0-0.1,0c0,0-0.1,0-0.1,0
			l-0.6,0.5v-0.8c0,0,0-0.1,0-0.1c0,0-0.1,0-0.1,0s-0.1,0-0.1,0c0,0,0,0.1,0,0.1v1.6c0,0,0,0.1,0,0.1c0,0,0.1,0,0.1,0
			c0,0,0.1,0,0.1,0c0,0,0-0.1,0-0.1v-0.4L207.3,19.5z M205.4,19.5c0.2,0,0.4-0.1,0.5-0.2c0.1-0.1,0.2-0.3,0.2-0.5v-0.6
			c0-0.1,0-0.1,0-0.1c0,0-0.1,0-0.1,0c0,0-0.1,0-0.1,0c0,0,0,0.1,0,0.1v0.6c0,0,0,0,0,0c0,0.1,0,0.2-0.1,0.3
			c-0.1,0.1-0.2,0.1-0.3,0.1h0c-0.1,0-0.2,0-0.3-0.1c-0.1-0.1-0.1-0.2-0.1-0.3c0,0,0,0,0,0v-0.6c0-0.1,0-0.1,0-0.1s-0.1,0-0.1,0
			c0,0-0.1,0-0.1,0c0,0,0,0.1,0,0.1v0.6c0,0.2,0.1,0.4,0.2,0.5C205,19.4,205.1,19.5,205.4,19.5L205.4,19.5z M203.6,18
			c-0.2,0-0.4,0.1-0.5,0.2c-0.1,0.1-0.2,0.3-0.2,0.5v0.6c0,0.1,0,0.1,0,0.1c0,0,0.1,0,0.1,0c0,0,0.1,0,0.1,0c0,0,0-0.1,0-0.1v-0.6
			c0,0,0,0,0,0c0-0.1,0-0.2,0.1-0.3c0.1-0.1,0.2-0.1,0.3-0.1h0c0.1,0,0.2,0,0.3,0.1c0.1,0.1,0.1,0.2,0.1,0.3c0,0,0,0,0,0v0.6
			c0,0.1,0,0.1,0,0.1c0,0,0.1,0,0.1,0s0.1,0,0.1,0c0,0,0-0.1,0-0.1v-0.6c0-0.2-0.1-0.4-0.2-0.5C204,18.1,203.8,18,203.6,18L203.6,18
			z"/>
	</g>
</g>
<g>
	<g>
		<defs>
			<rect id="SVGID_19_" x="293.3" y="17.6" width="2.5" height="2"/>
		</defs>
		<clipPath id="SVGID_20_">
			<use xlink:href="#SVGID_19_"  style="overflow:visible;"/>
		</clipPath>
		<path class="st13" d="M294.2,19.5c0,0.1-0.1,0.2-0.2,0.2s-0.2-0.1-0.2-0.2s0.1-0.2,0.2-0.2C294.2,19.3,294.2,19.4,294.2,19.5
			 M295.4,19.3c-0.1,0-0.2,0.1-0.2,0.2s0.1,0.2,0.2,0.2c0.1,0,0.2-0.1,0.2-0.2S295.5,19.3,295.4,19.3 M295.8,18
			c-0.1,0.3-0.2,0.6-0.3,0.9c0,0,0,0.1-0.1,0.1H294c0,0.1,0,0.1,0,0.2h1.4c0.1,0,0.1,0.2,0,0.2H294c0,0-0.1,0-0.1-0.1
			c-0.1-0.5-0.2-0.9-0.3-1.4h-0.3c-0.1,0-0.1-0.2,0-0.2h0.3c0,0,0.1,0,0.1,0.1c0,0.1,0,0.1,0,0.2h1.9
			C295.8,17.9,295.8,17.9,295.8,18 M294.5,18.8h0.4 M295.4,18.8c0-0.1,0.2-0.6,0.2-0.7h-1.8c0,0.1,0.1,0.6,0.2,0.7"/>
	</g>
</g>
<rect x="185" y="14.5" class="st14" width="120.1" height="135.5"/>
<rect x="207.1" y="312.8" width="4.4" height="4.4"/>
<rect x="212.7" y="312.8" class="st1" width="4.4" height="4.4"/>
<rect x="212.7" y="312.8" class="st15" width="4.4" height="4.4"/>
<g>
	<g>
		<defs>
			<rect id="SVGID_21_" x="185" y="193.6" width="120.1" height="148.6"/>
		</defs>
		<clipPath id="SVGID_22_">
			<use xlink:href="#SVGID_21_"  style="overflow:visible;"/>
		</clipPath>
		<path class="st16" d="M249,273.4c0,0-1.3,0-1.3,1.3v30.5c0,0,0,1.3,1.3,1.3h37c0,0,1.3,0,1.3-1.3v-30.5c0,0,0-1.3-1.3-1.3H249z"/>
	</g>
</g>
<rect x="185.1" y="201.8" class="st17" width="120.1" height="60.6"/>
<line class="st17" x1="185.1" y1="201.7" x2="305.1" y2="262.3"/>
<line class="st17" x1="185.1" y1="262.4" x2="305.1" y2="201.7"/>
<rect x="207.1" y="273.4" class="st17" width="38" height="37.8"/>
<line class="st17" x1="207.1" y1="273.4" x2="245.1" y2="311.3"/>
<line class="st17" x1="207.1" y1="311.3" x2="245.1" y2="273.4"/>
<g>
	<g>
		<defs>
			<rect id="SVGID_23_" x="185" y="193.6" width="120.1" height="148.6"/>
		</defs>
		<clipPath id="SVGID_24_">
			<use xlink:href="#SVGID_23_"  style="overflow:visible;"/>
		</clipPath>
		<path class="st18" d="M249,307.8c0,0-1.3,0-1.3,1.3v1.1c0,0,0,1.3,1.3,1.3h37.1c0,0,1.3,0,1.3-1.3V309c0,0,0-1.3-1.3-1.3H249z"/>
	</g>
</g>
<text transform="matrix(1 0 0 1 264.4956 309.9773)" class="st1 st2 st19">Add to Ca</text>
<text transform="matrix(1 0 0 1 269.7527 309.9773)" class="st1 st2 st19">r</text>
<text transform="matrix(1 0 0 1 270.1626 309.9773)" class="st1 st2 st19">t</text>
<rect x="185" y="193.6" class="st1" width="120.1" height="8.1"/>
<text transform="matrix(1 0 0 1 278.899 197.4558)" class="st2 st3">ABOUT US</text>
<text transform="matrix(1 0 0 1 262.0034 197.4558)" class="st2 st3">DONUT</text>
<text transform="matrix(1 0 0 1 253.5562 197.4558)" class="st2 st3">BR</text>
<text transform="matrix(1 0 0 1 254.8921 197.4558)" class="st2 st3">A</text>
<text transform="matrix(1 0 0 1 255.5951 197.4558)" class="st2 st3">CELET</text>
<text transform="matrix(1 0 0 1 270.4517 197.4558)" class="st2 st3">T</text>
<text transform="matrix(1 0 0 1 271.0237 197.4558)" class="st2 st3">ORUS</text>
<g>
	<g>
		<defs>
			<rect id="SVGID_25_" x="185" y="193.6" width="120.1" height="148.6"/>
		</defs>
		<clipPath id="SVGID_26_">
			<use xlink:href="#SVGID_25_"  style="overflow:visible;"/>
		</clipPath>
		<path class="st20" d="M207.3,198.6L207.3,198.6C207.4,198.6,207.4,198.6,207.3,198.6c0.1,0,0.2,0,0.2,0c0,0,0-0.1,0-0.1
			c0,0,0-0.1,0-0.1c0,0,0,0,0,0l0,0l-0.6-0.5l0.6-0.5c0,0,0,0,0,0c0,0,0-0.1,0-0.1c0,0,0-0.1,0-0.1c0,0-0.1,0-0.1,0c0,0-0.1,0-0.1,0
			l-0.6,0.5v-0.8c0,0,0-0.1,0-0.1c0,0-0.1,0-0.1,0s-0.1,0-0.1,0c0,0,0,0.1,0,0.1v1.6c0,0,0,0.1,0,0.1c0,0,0.1,0,0.1,0
			c0,0,0.1,0,0.1,0c0,0,0-0.1,0-0.1V198L207.3,198.6z M205.4,198.6c0.2,0,0.4-0.1,0.5-0.2c0.1-0.1,0.2-0.3,0.2-0.5v-0.6
			c0-0.1,0-0.1,0-0.1c0,0-0.1,0-0.1,0c0,0-0.1,0-0.1,0c0,0,0,0.1,0,0.1v0.6c0,0,0,0,0,0c0,0.1,0,0.2-0.1,0.3
			c-0.1,0.1-0.2,0.1-0.3,0.1h0c-0.1,0-0.2,0-0.3-0.1c-0.1-0.1-0.1-0.2-0.1-0.3c0,0,0,0,0,0v-0.6c0-0.1,0-0.1,0-0.1c0,0-0.1,0-0.1,0
			c0,0-0.1,0-0.1,0c0,0,0,0.1,0,0.1v0.6c0,0.2,0.1,0.4,0.2,0.5C205,198.5,205.1,198.6,205.4,198.6L205.4,198.6z M203.6,197.1
			c-0.2,0-0.4,0.1-0.5,0.2c-0.1,0.1-0.2,0.3-0.2,0.5v0.6c0,0.1,0,0.1,0,0.1c0,0,0.1,0,0.1,0c0,0,0.1,0,0.1,0c0,0,0-0.1,0-0.1v-0.6
			c0,0,0,0,0,0c0-0.1,0-0.2,0.1-0.3c0.1-0.1,0.2-0.1,0.3-0.1h0c0.1,0,0.2,0,0.3,0.1c0.1,0.1,0.1,0.2,0.1,0.3c0,0,0,0,0,0v0.6
			c0,0.1,0,0.1,0,0.1c0,0,0.1,0,0.1,0s0.1,0,0.1,0c0,0,0-0.1,0-0.1v-0.6c0-0.2-0.1-0.4-0.2-0.5C204,197.2,203.8,197.1,203.6,197.1
			L203.6,197.1z"/>
	</g>
</g>
<g>
	<g>
		<defs>
			<rect id="SVGID_27_" x="293.3" y="196.7" width="2.5" height="2"/>
		</defs>
		<clipPath id="SVGID_28_">
			<use xlink:href="#SVGID_27_"  style="overflow:visible;"/>
		</clipPath>
		<path class="st21" d="M294.2,198.6c0,0.1-0.1,0.2-0.2,0.2s-0.2-0.1-0.2-0.2s0.1-0.2,0.2-0.2C294.2,198.4,294.2,198.5,294.2,198.6
			 M295.4,198.4c-0.1,0-0.2,0.1-0.2,0.2s0.1,0.2,0.2,0.2c0.1,0,0.2-0.1,0.2-0.2S295.5,198.4,295.4,198.4 M295.8,197.1
			c-0.1,0.3-0.2,0.6-0.3,0.9c0,0,0,0.1-0.1,0.1H294c0,0.1,0,0.1,0,0.2h1.4c0.1,0,0.1,0.2,0,0.2H294c0,0-0.1,0-0.1-0.1
			c-0.1-0.5-0.2-0.9-0.3-1.4h-0.3c-0.1,0-0.1-0.2,0-0.2h0.3c0,0,0.1,0,0.1,0.1c0,0.1,0,0.1,0,0.2h1.9
			C295.8,197,295.8,197,295.8,197.1 M294.5,197.9h0.4 M295.4,197.9c0-0.1,0.2-0.6,0.2-0.7h-1.8c0,0.1,0.1,0.6,0.2,0.7"/>
	</g>
</g>
<rect x="185" y="328.3" width="120.1" height="13.8"/>
<text transform="matrix(1 0 0 1 278.899 331.5232)" class="st1 st2 st3">640 Clay St. Suite. 222</text>
<text transform="matrix(1 0 0 1 278.899 333.2761)" class="st1 st2 st3">S</text>
<text transform="matrix(1 0 0 1 279.547 333.2761)" class="st1 st2 st3">an </text>
<text transform="matrix(1 0 0 1 280.995 333.2761)" class="st1 st2 st3">F</text>
<text transform="matrix(1 0 0 1 281.532 333.2761)" class="st1 st2 st3">rancisco, CA 94</text>
<text transform="matrix(1 0 0 1 288.821 333.2761)" class="st1 st2 st3">11</text>
<text transform="matrix(1 0 0 1 289.6659 333.2761)" class="st1 st2 st3">1</text>
<text transform="matrix(1 0 0 1 262.0034 331.5232)" class="st1 st2 st3">T</text>
<text transform="matrix(1 0 0 1 262.4805 331.5232)" class="st1 st2 st3">: +1 (4</text>
<text transform="matrix(1 0 0 1 265.3465 331.5232)" class="st1 st2 st3">1</text>
<text transform="matrix(1 0 0 1 265.8894 331.5232)" class="st1 st2 st3">5)3</text>
<text transform="matrix(1 0 0 1 267.3355 331.5232)" class="st1 st2 st3">1</text>
<text transform="matrix(1 0 0 1 267.8784 331.5232)" class="st1 st2 st3">7</text>
<text transform="matrix(1 0 0 1 268.3595 331.5232)" class="st1 st2 st3">-9475</text>
<text transform="matrix(1 0 0 1 262.0034 333.2761)" class="st1 st2 st3">F: +1 (4</text>
<text transform="matrix(1 0 0 1 265.4265 333.2761)" class="st1 st2 st3">1</text>
<text transform="matrix(1 0 0 1 265.9695 333.2761)" class="st1 st2 st3">5)3</text>
<text transform="matrix(1 0 0 1 267.4154 333.2761)" class="st1 st2 st3">1</text>
<text transform="matrix(1 0 0 1 267.9585 333.2761)" class="st1 st2 st3">7</text>
<text transform="matrix(1 0 0 1 268.4405 333.2761)" class="st1 st2 st3">-9232</text>
<text transform="matrix(1 0 0 1 262.0034 335.0281)" class="st1 st2 st3">e: hello@nuc.com</text>
<text transform="matrix(1 0 0 1 202.8707 331.5232)" class="st1 st2 st3">nuc</text>
<text transform="matrix(1 0 0 1 202.8707 333.2761)" class="st1 st2 st3">Compa</text>
<text transform="matrix(1 0 0 1 206.2637 333.2761)" class="st1 st2 st3">n</text>
<text transform="matrix(1 0 0 1 206.8566 333.2761)" class="st1 st2 st3">y Number: 3</text>
<text transform="matrix(1 0 0 1 212.6987 333.2761)" class="st1 st2 st3">1</text>
<text transform="matrix(1 0 0 1 213.2197 333.2761)" class="st1 st2 st3">435</text>
<text transform="matrix(1 0 0 1 202.8707 335.0281)" class="st1 st2 st3">© 2</text>
<text transform="matrix(1 0 0 1 204.5066 335.0281)" class="st1 st2 st3">0</text>
<text transform="matrix(1 0 0 1 205.0097 335.0281)" class="st1 st2 st3">1</text>
<text transform="matrix(1 0 0 1 205.5307 335.0281)" class="st1 st2 st3">4-2</text>
<text transform="matrix(1 0 0 1 206.9776 335.0281)" class="st1 st2 st3">01</text>
<text transform="matrix(1 0 0 1 207.9806 335.0281)" class="st1 st2 st3">9 </text>
<text transform="matrix(1 0 0 1 202.8707 336.78)" class="st1 st2 st3">All rights reserved</text>
<g>
	<g>
		<defs>
			<rect id="SVGID_29_" x="230.6" y="331.3" width="2.4" height="2.4"/>
		</defs>
		<clipPath id="SVGID_30_">
			<use xlink:href="#SVGID_29_"  style="overflow:visible;"/>
		</clipPath>
		<g class="st22">
			<g>
				<defs>
					<rect id="SVGID_31_" x="230.6" y="331.3" width="2.4" height="2.4"/>
				</defs>
				<clipPath id="SVGID_32_">
					<use xlink:href="#SVGID_31_"  style="overflow:visible;"/>
				</clipPath>
				<g transform="matrix(1 0 0 1 0 0)" class="st23">
				</g>
			</g>
		</g>
	</g>
</g>
<g>
	<g>
		<defs>
			<rect id="SVGID_33_" x="236.7" y="331.3" width="2.4" height="2.4"/>
		</defs>
		<clipPath id="SVGID_34_">
			<use xlink:href="#SVGID_33_"  style="overflow:visible;"/>
		</clipPath>
		<g class="st24">
			<g>
				<defs>
					<rect id="SVGID_35_" x="236.7" y="331.3" width="2.4" height="2.4"/>
				</defs>
				<clipPath id="SVGID_36_">
					<use xlink:href="#SVGID_35_"  style="overflow:visible;"/>
				</clipPath>
				<g transform="matrix(1 0 0 1 0 0)" class="st25">
				</g>
			</g>
		</g>
	</g>
</g>
<g>
	<g>
		<defs>
			<rect id="SVGID_37_" x="242.7" y="331.3" width="2.4" height="2.4"/>
		</defs>
		<clipPath id="SVGID_38_">
			<use xlink:href="#SVGID_37_"  style="overflow:visible;"/>
		</clipPath>
		<g class="st26">
			<g>
				<defs>
					<rect id="SVGID_39_" x="242.7" y="331.3" width="2.4" height="2.4"/>
				</defs>
				<clipPath id="SVGID_40_">
					<use xlink:href="#SVGID_39_"  style="overflow:visible;"/>
				</clipPath>
				<g transform="matrix(1 0 0 1 0 0)" class="st27">
				</g>
			</g>
		</g>
	</g>
</g>
<g>
	<g>
		<defs>
			<rect id="SVGID_41_" x="248.7" y="331.3" width="2.4" height="2.4"/>
		</defs>
		<clipPath id="SVGID_42_">
			<use xlink:href="#SVGID_41_"  style="overflow:visible;"/>
		</clipPath>
		<g class="st28">
			<g>
				<defs>
					<rect id="SVGID_43_" x="248.7" y="331.3" width="2.4" height="2.4"/>
				</defs>
				<clipPath id="SVGID_44_">
					<use xlink:href="#SVGID_43_"  style="overflow:visible;"/>
				</clipPath>
				<g class="st29">
				</g>
			</g>
		</g>
	</g>
</g>
<text transform="matrix(1 0 0 1 252.2134 277.9148)" class="st30 st31">Donu</text>
<text transform="matrix(1 0 0 1 257.8974 277.9148)" class="st30 st31">t</text>
<text transform="matrix(1 0 0 1 251.022 281.5027)" class="st30 st19">P</text>
<text transform="matrix(1 0 0 1 251.7329 281.5027)" class="st30 st19">r</text>
<text transform="matrix(1 0 0 1 252.1669 281.5027)" class="st30 st19">odduct</text>
<text transform="matrix(1 0 0 1 256.022 281.5027)" class="st30 st19"> T</text>
<text transform="matrix(1 0 0 1 256.724 281.5027)" class="st30 st19">yp</text>
<text transform="matrix(1 0 0 1 258.0719 281.5027)" class="st30 st19">e</text>
<text transform="matrix(1 0 0 1 254.2144 284.6316)" class="st30 st19">Ma</text>
<text transform="matrix(1 0 0 1 255.9484 284.6316)" class="st30 st19">t</text>
<text transform="matrix(1 0 0 1 256.3874 284.6316)" class="st30 st19">e</text>
<text transform="matrix(1 0 0 1 257.0354 284.6316)" class="st30 st19">r</text>
<text transform="matrix(1 0 0 1 257.4524 284.6316)" class="st30 st19">ia</text>
<text transform="matrix(1 0 0 1 258.4373 284.6316)" class="st30 st19">l</text>
<text transform="matrix(1 0 0 1 254.5689 287.7605)" class="st30 st19">Modul</text>
<text transform="matrix(1 0 0 1 258.1228 287.7605)" class="st30 st19">e</text>
<text transform="matrix(1 0 0 1 254.8003 290.8894)" class="st30 st19">W</text>
<text transform="matrix(1 0 0 1 255.9053 290.8894)" class="st30 st19">eigh</text>
<text transform="matrix(1 0 0 1 258.3073 290.8894)" class="st30 st19">t</text>
<text transform="matrix(1 0 0 1 250.6831 294.0193)" class="st30 st19">Cellphone</text>
<text transform="matrix(1 0 0 1 256.2692 294.0193)" class="st30 st19"> </text>
<text transform="matrix(1 0 0 1 256.5152 294.0193)" class="st30 st19">Ap</text>
<text transform="matrix(1 0 0 1 258.0622 294.0193)" class="st30 st19">p</text>
<text transform="matrix(1 0 0 1 252.5708 297.1482)" class="st30 st19">W</text>
<text transform="matrix(1 0 0 1 253.6579 297.1482)" class="st30 st19">a</text>
<text transform="matrix(1 0 0 1 254.3048 297.1482)" class="st30 st19">t</text>
<text transform="matrix(1 0 0 1 254.7439 297.1482)" class="st30 st19">e</text>
<text transform="matrix(1 0 0 1 255.3909 297.1482)" class="st30 st19">r</text>
<text transform="matrix(1 0 0 1 255.8079 297.1482)" class="st30 st19">p</text>
<text transform="matrix(1 0 0 1 256.5179 297.1482)" class="st30 st19">r</text>
<text transform="matrix(1 0 0 1 256.9519 297.1482)" class="st30 st19">oo</text>
<text transform="matrix(1 0 0 1 258.3709 297.1482)" class="st30 st19">f</text>
<text transform="matrix(1 0 0 1 255.7799 300.2771)" class="st30 st19">Colo</text>
<text transform="matrix(1 0 0 1 258.3109 300.2771)" class="st30 st19">r</text>
<text transform="matrix(1 0 0 1 256.0747 303.406)" class="st30 st19">P</text>
<text transform="matrix(1 0 0 1 256.7858 303.406)" class="st30 st19">r</text>
<text transform="matrix(1 0 0 1 257.2028 303.406)" class="st30 st19">ic</text>
<text transform="matrix(1 0 0 1 258.1238 303.406)" class="st30 st19">e</text>
<text transform="matrix(1 0 0 1 259.7505 281.5046)" class="st2 st19">Analog</text>
<text transform="matrix(1 0 0 1 263.7025 281.5046)" class="st2 st19"> </text>
<text transform="matrix(1 0 0 1 263.9265 281.5046)" class="st2 st19">W</text>
<text transform="matrix(1 0 0 1 265.0136 281.5046)" class="st2 st19">at</text>
<text transform="matrix(1 0 0 1 266.0575 281.5046)" class="st2 st19">c</text>
<text transform="matrix(1 0 0 1 266.5876 281.5046)" class="st2 st19">h</text>
<text transform="matrix(1 0 0 1 259.7505 284.6335)" class="st2 st19">Silicon</text>
<text transform="matrix(1 0 0 1 263.5385 284.6335)" class="st2 st19">e</text>
<text transform="matrix(1 0 0 1 259.7505 287.7634)" class="st2 st19">S</text>
<text transform="matrix(1 0 0 1 260.5016 287.7634)" class="st2 st19">eiko</text>
<text transform="matrix(1 0 0 1 262.7776 287.7634)" class="st2 st19"> </text>
<text transform="matrix(1 0 0 1 262.9125 287.7634)" class="st2 st19">Y</text>
<text transform="matrix(1 0 0 1 263.6856 287.7634)" class="st2 st19">1</text>
<text transform="matrix(1 0 0 1 264.3156 287.7634)" class="st2 st19">21 qua</text>
<text transform="matrix(1 0 0 1 268.0465 287.7634)" class="st2 st19">r</text>
<text transform="matrix(1 0 0 1 268.4826 287.7634)" class="st2 st19">tz m</text>
<text transform="matrix(1 0 0 1 270.8435 287.7634)" class="st2 st19">o</text>
<text transform="matrix(1 0 0 1 271.5406 287.7634)" class="st2 st19">vemen</text>
<text transform="matrix(1 0 0 1 275.3065 287.7634)" class="st2 st19">t</text>
<text transform="matrix(1 0 0 1 259.7505 290.8923)" class="st2 st19">250</text>
<text transform="matrix(1 0 0 1 261.6935 290.8923)" class="st2 st19">g</text>
<text transform="matrix(1 0 0 1 259.7505 294.0212)" class="st2 st19">N/</text>
<text transform="matrix(1 0 0 1 260.9826 294.0212)" class="st2 st19">P</text>
<text transform="matrix(1 0 0 1 259.7505 297.1501)" class="st2 st19">1</text>
<text transform="matrix(1 0 0 1 260.3376 297.1501)" class="st2 st19">0</text>
<text transform="matrix(1 0 0 1 261.0305 297.1501)" class="st2 st19">0</text>
<text transform="matrix(1 0 0 1 261.6795 297.1501)" class="st2 st19">m</text>
<text transform="matrix(1 0 0 1 259.7505 300.2791)" class="st2 st19">Bla</text>
<text transform="matrix(1 0 0 1 261.5086 300.2791)" class="st2 st19">c</text>
<text transform="matrix(1 0 0 1 262.0385 300.2791)" class="st2 st19">k</text>
<text transform="matrix(1 0 0 1 259.7505 303.4089)" class="st2 st19">$5</text>
<text transform="matrix(1 0 0 1 261.0456 303.4089)" class="st2 st19">0</text>
<rect x="185" y="193.6" class="st14" width="120.1" height="148.6"/>
<rect x="22.5" y="312.8" width="4.4" height="4.4"/>
<rect x="28.1" y="312.8" class="st1" width="4.4" height="4.4"/>
<rect x="28.1" y="312.8" class="st15" width="4.4" height="4.4"/>
<g>
	<g>
		<defs>
			<rect id="SVGID_45_" x="0.4" y="193.6" width="120.1" height="148.6"/>
		</defs>
		<clipPath id="SVGID_46_">
			<use xlink:href="#SVGID_45_"  style="overflow:visible;"/>
		</clipPath>
		<path class="st32" d="M64.4,273.4c0,0-1.3,0-1.3,1.3v30.5c0,0,0,1.3,1.3,1.3h37c0,0,1.3,0,1.3-1.3v-30.5c0,0,0-1.3-1.3-1.3H64.4z"
			/>
	</g>
	<g>
		<defs>
			<rect id="SVGID_47_" x="0.4" y="193.6" width="120.1" height="148.6"/>
		</defs>
		<clipPath id="SVGID_48_">
			<use xlink:href="#SVGID_47_"  style="overflow:visible;"/>
		</clipPath>
		<rect x="0.4" y="201.8" class="st33" width="120.1" height="60.6"/>
	</g>
	<g>
		<defs>
			<rect id="SVGID_49_" x="0.4" y="193.6" width="120.1" height="148.6"/>
		</defs>
		<clipPath id="SVGID_50_">
			<use xlink:href="#SVGID_49_"  style="overflow:visible;"/>
		</clipPath>
		<line class="st34" x1="0.4" y1="201.7" x2="120.5" y2="262.3"/>
	</g>
	<g>
		<defs>
			<rect id="SVGID_51_" x="0.4" y="193.6" width="120.1" height="148.6"/>
		</defs>
		<clipPath id="SVGID_52_">
			<use xlink:href="#SVGID_51_"  style="overflow:visible;"/>
		</clipPath>
		<line class="st35" x1="0.4" y1="262.4" x2="120.5" y2="201.7"/>
	</g>
</g>
<rect x="22.5" y="273.4" class="st17" width="38" height="37.8"/>
<line class="st17" x1="22.5" y1="273.4" x2="60.4" y2="311.3"/>
<line class="st17" x1="22.5" y1="311.3" x2="60.4" y2="273.4"/>
<g>
	<g>
		<defs>
			<rect id="SVGID_53_" x="0.4" y="193.6" width="120.1" height="148.6"/>
		</defs>
		<clipPath id="SVGID_54_">
			<use xlink:href="#SVGID_53_"  style="overflow:visible;"/>
		</clipPath>
		<path class="st36" d="M64.4,307.8c0,0-1.3,0-1.3,1.3v1.1c0,0,0,1.3,1.3,1.3h37.1c0,0,1.3,0,1.3-1.3V309c0,0,0-1.3-1.3-1.3H64.4z"
			/>
	</g>
</g>
<text transform="matrix(1 0 0 1 79.8535 309.9773)" class="st1 st2 st19">Add to Ca</text>
<text transform="matrix(1 0 0 1 85.1106 309.9773)" class="st1 st2 st19">r</text>
<text transform="matrix(1 0 0 1 85.5206 309.9773)" class="st1 st2 st19">t</text>
<rect x="0.4" y="193.6" class="st1" width="120.1" height="8.1"/>
<text transform="matrix(1 0 0 1 94.2569 197.4558)" class="st2 st3">ABOUT US</text>
<text transform="matrix(1 0 0 1 77.3618 197.4558)" class="st2 st3">DONUT</text>
<text transform="matrix(1 0 0 1 68.9146 197.4558)" class="st2 st3">BR</text>
<text transform="matrix(1 0 0 1 70.2496 197.4558)" class="st2 st3">A</text>
<text transform="matrix(1 0 0 1 70.9546 197.4558)" class="st2 st3">CELET</text>
<text transform="matrix(1 0 0 1 85.8101 197.4558)" class="st2 st3">T</text>
<text transform="matrix(1 0 0 1 86.382 197.4558)" class="st2 st3">ORUS</text>
<g>
	<g>
		<defs>
			<rect id="SVGID_55_" x="0.4" y="193.6" width="120.1" height="148.6"/>
		</defs>
		<clipPath id="SVGID_56_">
			<use xlink:href="#SVGID_55_"  style="overflow:visible;"/>
		</clipPath>
		<path class="st37" d="M22.7,198.6L22.7,198.6C22.7,198.6,22.7,198.6,22.7,198.6c0.1,0,0.2,0,0.2,0c0,0,0-0.1,0-0.1
			c0,0,0-0.1,0-0.1c0,0,0,0,0,0l0,0l-0.6-0.5l0.6-0.5c0,0,0,0,0,0c0,0,0-0.1,0-0.1c0,0,0-0.1,0-0.1c0,0-0.1,0-0.1,0c0,0-0.1,0-0.1,0
			l-0.6,0.5v-0.8c0,0,0-0.1,0-0.1c0,0-0.1,0-0.1,0s-0.1,0-0.1,0c0,0,0,0.1,0,0.1v1.6c0,0,0,0.1,0,0.1c0,0,0.1,0,0.1,0s0.1,0,0.1,0
			c0,0,0-0.1,0-0.1V198L22.7,198.6z M20.7,198.6c0.2,0,0.4-0.1,0.5-0.2c0.1-0.1,0.2-0.3,0.2-0.5v-0.6c0-0.1,0-0.1,0-0.1
			c0,0-0.1,0-0.1,0s-0.1,0-0.1,0c0,0,0,0.1,0,0.1v0.6c0,0,0,0,0,0c0,0.1,0,0.2-0.1,0.3c-0.1,0.1-0.2,0.1-0.3,0.1h0
			c-0.1,0-0.2,0-0.3-0.1c-0.1-0.1-0.1-0.2-0.1-0.3c0,0,0,0,0,0v-0.6c0-0.1,0-0.1,0-0.1c0,0-0.1,0-0.1,0c0,0-0.1,0-0.1,0
			c0,0,0,0.1,0,0.1v0.6c0,0.2,0.1,0.4,0.2,0.5C20.3,198.5,20.5,198.6,20.7,198.6L20.7,198.6z M18.9,197.1c-0.2,0-0.4,0.1-0.5,0.2
			c-0.1,0.1-0.2,0.3-0.2,0.5v0.6c0,0.1,0,0.1,0,0.1c0,0,0.1,0,0.1,0c0,0,0.1,0,0.1,0c0,0,0-0.1,0-0.1v-0.6c0,0,0,0,0,0
			c0-0.1,0-0.2,0.1-0.3c0.1-0.1,0.2-0.1,0.3-0.1h0c0.1,0,0.2,0,0.3,0.1c0.1,0.1,0.1,0.2,0.1,0.3c0,0,0,0,0,0v0.6c0,0.1,0,0.1,0,0.1
			c0,0,0.1,0,0.1,0s0.1,0,0.1,0c0,0,0-0.1,0-0.1v-0.6c0-0.2-0.1-0.4-0.2-0.5C19.3,197.2,19.2,197.1,18.9,197.1L18.9,197.1z"/>
	</g>
</g>
<g>
	<g>
		<defs>
			<rect id="SVGID_57_" x="108.7" y="196.7" width="2.5" height="2"/>
		</defs>
		<clipPath id="SVGID_58_">
			<use xlink:href="#SVGID_57_"  style="overflow:visible;"/>
		</clipPath>
		<path class="st38" d="M109.6,198.6c0,0.1-0.1,0.2-0.2,0.2s-0.2-0.1-0.2-0.2s0.1-0.2,0.2-0.2S109.6,198.5,109.6,198.6 M110.7,198.4
			c-0.1,0-0.2,0.1-0.2,0.2s0.1,0.2,0.2,0.2c0.1,0,0.2-0.1,0.2-0.2S110.8,198.4,110.7,198.4 M111.1,197.1c-0.1,0.3-0.2,0.6-0.3,0.9
			c0,0,0,0.1-0.1,0.1h-1.4c0,0.1,0,0.1,0,0.2h1.4c0.1,0,0.1,0.2,0,0.2h-1.4c0,0-0.1,0-0.1-0.1c-0.1-0.5-0.2-0.9-0.3-1.4h-0.3
			c-0.1,0-0.1-0.2,0-0.2h0.3c0,0,0.1,0,0.1,0.1c0,0.1,0,0.1,0,0.2h1.9C111.1,197,111.2,197,111.1,197.1 M109.9,197.9h0.4
			 M110.8,197.9c0-0.1,0.2-0.6,0.2-0.7h-1.8c0,0.1,0.1,0.6,0.2,0.7"/>
	</g>
</g>
<rect x="0.4" y="328.3" width="120.1" height="13.8"/>
<text transform="matrix(1 0 0 1 94.2569 331.5232)" class="st1 st2 st3">640 Clay St. Suite. 222</text>
<text transform="matrix(1 0 0 1 94.2569 333.2761)" class="st1 st2 st3">S</text>
<text transform="matrix(1 0 0 1 94.9058 333.2761)" class="st1 st2 st3">an </text>
<text transform="matrix(1 0 0 1 96.3529 333.2761)" class="st1 st2 st3">F</text>
<text transform="matrix(1 0 0 1 96.8899 333.2761)" class="st1 st2 st3">rancisco, CA 94</text>
<text transform="matrix(1 0 0 1 104.1789 333.2761)" class="st1 st2 st3">11</text>
<text transform="matrix(1 0 0 1 105.0219 333.2761)" class="st1 st2 st3">1</text>
<text transform="matrix(1 0 0 1 77.3618 331.5232)" class="st1 st2 st3">T</text>
<text transform="matrix(1 0 0 1 77.8389 331.5232)" class="st1 st2 st3">: +1 (4</text>
<text transform="matrix(1 0 0 1 80.7049 331.5232)" class="st1 st2 st3">1</text>
<text transform="matrix(1 0 0 1 81.2479 331.5232)" class="st1 st2 st3">5)3</text>
<text transform="matrix(1 0 0 1 82.6939 331.5232)" class="st1 st2 st3">1</text>
<text transform="matrix(1 0 0 1 83.2368 331.5232)" class="st1 st2 st3">7</text>
<text transform="matrix(1 0 0 1 83.7188 331.5232)" class="st1 st2 st3">-9475</text>
<text transform="matrix(1 0 0 1 77.3618 333.2761)" class="st1 st2 st3">F: +1 (4</text>
<text transform="matrix(1 0 0 1 80.7849 333.2761)" class="st1 st2 st3">1</text>
<text transform="matrix(1 0 0 1 81.3269 333.2761)" class="st1 st2 st3">5)3</text>
<text transform="matrix(1 0 0 1 82.7729 333.2761)" class="st1 st2 st3">1</text>
<text transform="matrix(1 0 0 1 83.3148 333.2761)" class="st1 st2 st3">7</text>
<text transform="matrix(1 0 0 1 83.7968 333.2761)" class="st1 st2 st3">-9232</text>
<text transform="matrix(1 0 0 1 77.3618 335.0281)" class="st1 st2 st3">e: hello@nuc.com</text>
<text transform="matrix(1 0 0 1 18.228 331.5232)" class="st1 st2 st3">nuc</text>
<text transform="matrix(1 0 0 1 18.228 333.2761)" class="st1 st2 st3">Compa</text>
<text transform="matrix(1 0 0 1 21.6211 333.2761)" class="st1 st2 st3">n</text>
<text transform="matrix(1 0 0 1 22.213 333.2761)" class="st1 st2 st3">y Number: 3</text>
<text transform="matrix(1 0 0 1 28.055 333.2761)" class="st1 st2 st3">1</text>
<text transform="matrix(1 0 0 1 28.576 333.2761)" class="st1 st2 st3">435</text>
<text transform="matrix(1 0 0 1 18.228 335.0281)" class="st1 st2 st3">© 2</text>
<text transform="matrix(1 0 0 1 19.864 335.0281)" class="st1 st2 st3">0</text>
<text transform="matrix(1 0 0 1 20.3671 335.0281)" class="st1 st2 st3">1</text>
<text transform="matrix(1 0 0 1 20.8891 335.0281)" class="st1 st2 st3">4-2</text>
<text transform="matrix(1 0 0 1 22.3361 335.0281)" class="st1 st2 st3">01</text>
<text transform="matrix(1 0 0 1 23.3361 335.0281)" class="st1 st2 st3">9 </text>
<text transform="matrix(1 0 0 1 18.228 336.78)" class="st1 st2 st3">All rights reserved</text>
<g>
	<g>
		<defs>
			<rect id="SVGID_59_" x="46" y="331.3" width="2.4" height="2.4"/>
		</defs>
		<clipPath id="SVGID_60_">
			<use xlink:href="#SVGID_59_"  style="overflow:visible;"/>
		</clipPath>
		<g class="st39">
			<g>
				<defs>
					<rect id="SVGID_61_" x="46" y="331.3" width="2.4" height="2.4"/>
				</defs>
				<clipPath id="SVGID_62_">
					<use xlink:href="#SVGID_61_"  style="overflow:visible;"/>
				</clipPath>
				<g transform="matrix(1 0 0 1 0 0)" class="st40">
				</g>
			</g>
		</g>
	</g>
</g>
<g>
	<g>
		<defs>
			<rect id="SVGID_63_" x="52" y="331.3" width="2.4" height="2.4"/>
		</defs>
		<clipPath id="SVGID_64_">
			<use xlink:href="#SVGID_63_"  style="overflow:visible;"/>
		</clipPath>
		<g class="st41">
			<g>
				<defs>
					<rect id="SVGID_65_" x="52" y="331.3" width="2.4" height="2.4"/>
				</defs>
				<clipPath id="SVGID_66_">
					<use xlink:href="#SVGID_65_"  style="overflow:visible;"/>
				</clipPath>
				<g transform="matrix(1 0 0 1 0 0)" class="st42">
				</g>
			</g>
		</g>
	</g>
</g>
<g>
	<g>
		<defs>
			<rect id="SVGID_67_" x="58" y="331.3" width="2.4" height="2.4"/>
		</defs>
		<clipPath id="SVGID_68_">
			<use xlink:href="#SVGID_67_"  style="overflow:visible;"/>
		</clipPath>
		<g class="st43">
			<g>
				<defs>
					<rect id="SVGID_69_" x="58" y="331.3" width="2.4" height="2.4"/>
				</defs>
				<clipPath id="SVGID_70_">
					<use xlink:href="#SVGID_69_"  style="overflow:visible;"/>
				</clipPath>
				<g transform="matrix(1 0 0 1 0 0)" class="st44">
				</g>
			</g>
		</g>
	</g>
</g>
<g>
	<g>
		<defs>
			<rect id="SVGID_71_" x="64.1" y="331.3" width="2.4" height="2.4"/>
		</defs>
		<clipPath id="SVGID_72_">
			<use xlink:href="#SVGID_71_"  style="overflow:visible;"/>
		</clipPath>
		<g class="st45">
			<g>
				<defs>
					<rect id="SVGID_73_" x="64.1" y="331.3" width="2.4" height="2.4"/>
				</defs>
				<clipPath id="SVGID_74_">
					<use xlink:href="#SVGID_73_"  style="overflow:visible;"/>
				</clipPath>
				<g class="st46">
				</g>
			</g>
		</g>
	</g>
</g>
<text transform="matrix(1 0 0 1 67.5714 277.9148)" class="st30 st31">Donu</text>
<text transform="matrix(1 0 0 1 73.2554 277.9148)" class="st30 st31">t</text>
<text transform="matrix(1 0 0 1 66.3798 281.5027)" class="st30 st19">P</text>
<text transform="matrix(1 0 0 1 67.0908 281.5027)" class="st30 st19">r</text>
<text transform="matrix(1 0 0 1 67.5249 281.5027)" class="st30 st19">odduct</text>
<text transform="matrix(1 0 0 1 71.4138 281.5027)" class="st30 st19"> T</text>
<text transform="matrix(1 0 0 1 72.1129 281.5027)" class="st30 st19">yp</text>
<text transform="matrix(1 0 0 1 73.4619 281.5027)" class="st30 st19">e</text>
<text transform="matrix(1 0 0 1 69.5723 284.6316)" class="st30 st19">Ma</text>
<text transform="matrix(1 0 0 1 71.3062 284.6316)" class="st30 st19">t</text>
<text transform="matrix(1 0 0 1 71.7453 284.6316)" class="st30 st19">e</text>
<text transform="matrix(1 0 0 1 72.3942 284.6316)" class="st30 st19">r</text>
<text transform="matrix(1 0 0 1 72.8103 284.6316)" class="st30 st19">ia</text>
<text transform="matrix(1 0 0 1 73.7952 284.6316)" class="st30 st19">l</text>
<text transform="matrix(1 0 0 1 69.9273 287.7605)" class="st30 st19">Modul</text>
<text transform="matrix(1 0 0 1 73.4813 287.7605)" class="st30 st19">e</text>
<text transform="matrix(1 0 0 1 70.1591 290.8894)" class="st30 st19">W</text>
<text transform="matrix(1 0 0 1 71.2631 290.8894)" class="st30 st19">eigh</text>
<text transform="matrix(1 0 0 1 73.6692 290.8894)" class="st30 st19">t</text>
<text transform="matrix(1 0 0 1 66.041 294.0193)" class="st30 st19">Cellphone</text>
<text transform="matrix(1 0 0 1 71.627 294.0193)" class="st30 st19"> </text>
<text transform="matrix(1 0 0 1 71.874 294.0193)" class="st30 st19">Ap</text>
<text transform="matrix(1 0 0 1 73.4201 294.0193)" class="st30 st19">p</text>
<text transform="matrix(1 0 0 1 67.9287 297.1482)" class="st30 st19">W</text>
<text transform="matrix(1 0 0 1 69.0158 297.1482)" class="st30 st19">a</text>
<text transform="matrix(1 0 0 1 69.6637 297.1482)" class="st30 st19">t</text>
<text transform="matrix(1 0 0 1 70.1018 297.1482)" class="st30 st19">e</text>
<text transform="matrix(1 0 0 1 70.7487 297.1482)" class="st30 st19">r</text>
<text transform="matrix(1 0 0 1 71.1657 297.1482)" class="st30 st19">p</text>
<text transform="matrix(1 0 0 1 71.8758 297.1482)" class="st30 st19">r</text>
<text transform="matrix(1 0 0 1 72.3087 297.1482)" class="st30 st19">oo</text>
<text transform="matrix(1 0 0 1 73.7288 297.1482)" class="st30 st19">f</text>
<text transform="matrix(1 0 0 1 71.1381 300.2771)" class="st30 st19">Colo</text>
<text transform="matrix(1 0 0 1 73.6692 300.2771)" class="st30 st19">r</text>
<text transform="matrix(1 0 0 1 71.4332 303.406)" class="st30 st19">P</text>
<text transform="matrix(1 0 0 1 72.1442 303.406)" class="st30 st19">r</text>
<text transform="matrix(1 0 0 1 72.5601 303.406)" class="st30 st19">ic</text>
<text transform="matrix(1 0 0 1 73.4821 303.406)" class="st30 st19">e</text>
<text transform="matrix(1 0 0 1 75.1085 281.5046)" class="st2 st19">Analog</text>
<text transform="matrix(1 0 0 1 79.0615 281.5046)" class="st2 st19"> </text>
<text transform="matrix(1 0 0 1 79.2835 281.5046)" class="st2 st19">W</text>
<text transform="matrix(1 0 0 1 80.3704 281.5046)" class="st2 st19">at</text>
<text transform="matrix(1 0 0 1 81.4155 281.5046)" class="st2 st19">c</text>
<text transform="matrix(1 0 0 1 81.9445 281.5046)" class="st2 st19">h</text>
<text transform="matrix(1 0 0 1 75.1085 284.6335)" class="st2 st19">Silicon</text>
<text transform="matrix(1 0 0 1 78.8964 284.6335)" class="st2 st19">e</text>
<text transform="matrix(1 0 0 1 75.1085 287.7634)" class="st2 st19">S</text>
<text transform="matrix(1 0 0 1 75.8595 287.7634)" class="st2 st19">eiko</text>
<text transform="matrix(1 0 0 1 78.1364 287.7634)" class="st2 st19"> </text>
<text transform="matrix(1 0 0 1 78.2694 287.7634)" class="st2 st19">Y</text>
<text transform="matrix(1 0 0 1 79.0415 287.7634)" class="st2 st19">1</text>
<text transform="matrix(1 0 0 1 79.6735 287.7634)" class="st2 st19">21 qua</text>
<text transform="matrix(1 0 0 1 83.3704 287.7634)" class="st2 st19">r</text>
<text transform="matrix(1 0 0 1 83.8045 287.7634)" class="st2 st19">tz m</text>
<text transform="matrix(1 0 0 1 86.1414 287.7634)" class="st2 st19">o</text>
<text transform="matrix(1 0 0 1 86.8294 287.7634)" class="st2 st19">vemen</text>
<text transform="matrix(1 0 0 1 90.5665 287.7634)" class="st2 st19">t</text>
<text transform="matrix(1 0 0 1 75.1085 290.8923)" class="st2 st19">250</text>
<text transform="matrix(1 0 0 1 77.0514 290.8923)" class="st2 st19">g</text>
<text transform="matrix(1 0 0 1 75.1085 294.0212)" class="st2 st19">N/</text>
<text transform="matrix(1 0 0 1 76.3404 294.0212)" class="st2 st19">P</text>
<text transform="matrix(1 0 0 1 75.1085 297.1501)" class="st2 st19">1</text>
<text transform="matrix(1 0 0 1 75.6955 297.1501)" class="st2 st19">0</text>
<text transform="matrix(1 0 0 1 76.3895 297.1501)" class="st2 st19">0</text>
<text transform="matrix(1 0 0 1 77.0365 297.1501)" class="st2 st19">m</text>
<text transform="matrix(1 0 0 1 75.1085 300.2791)" class="st2 st19">Bla</text>
<text transform="matrix(1 0 0 1 76.8664 300.2791)" class="st2 st19">c</text>
<text transform="matrix(1 0 0 1 77.3964 300.2791)" class="st2 st19">k</text>
<text transform="matrix(1 0 0 1 75.1085 303.4089)" class="st2 st19">$5</text>
<text transform="matrix(1 0 0 1 76.4035 303.4089)" class="st2 st19">0</text>
<rect x="0.4" y="193.6" class="st14" width="120.1" height="148.6"/>
<rect x="391.8" y="312.8" width="4.4" height="4.4"/>
<rect x="397.4" y="312.8" class="st1" width="4.4" height="4.4"/>
<rect x="397.4" y="312.8" class="st15" width="4.4" height="4.4"/>
<g>
	<g>
		<defs>
			<rect id="SVGID_75_" x="369.7" y="193.6" width="120.1" height="148.6"/>
		</defs>
		<clipPath id="SVGID_76_">
			<use xlink:href="#SVGID_75_"  style="overflow:visible;"/>
		</clipPath>
		<path class="st47" d="M433.7,273.4c0,0-1.3,0-1.3,1.3v30.5c0,0,0,1.3,1.3,1.3h37c0,0,1.3,0,1.3-1.3v-30.5c0,0,0-1.3-1.3-1.3H433.7
			z"/>
	</g>
	<g>
		<defs>
			<rect id="SVGID_77_" x="369.7" y="193.6" width="120.1" height="148.6"/>
		</defs>
		<clipPath id="SVGID_78_">
			<use xlink:href="#SVGID_77_"  style="overflow:visible;"/>
		</clipPath>
		<rect x="369.7" y="201.8" class="st48" width="120.1" height="60.6"/>
	</g>
	<g>
		<defs>
			<rect id="SVGID_79_" x="369.7" y="193.6" width="120.1" height="148.6"/>
		</defs>
		<clipPath id="SVGID_80_">
			<use xlink:href="#SVGID_79_"  style="overflow:visible;"/>
		</clipPath>
		<line class="st49" x1="369.7" y1="201.7" x2="489.8" y2="262.3"/>
	</g>
	<g>
		<defs>
			<rect id="SVGID_81_" x="369.7" y="193.6" width="120.1" height="148.6"/>
		</defs>
		<clipPath id="SVGID_82_">
			<use xlink:href="#SVGID_81_"  style="overflow:visible;"/>
		</clipPath>
		<line class="st50" x1="369.7" y1="262.4" x2="489.8" y2="201.7"/>
	</g>
</g>
<rect x="391.8" y="273.4" class="st17" width="38" height="37.8"/>
<line class="st17" x1="391.8" y1="273.4" x2="429.7" y2="311.3"/>
<line class="st17" x1="391.8" y1="311.3" x2="429.7" y2="273.4"/>
<g>
	<g>
		<defs>
			<rect id="SVGID_83_" x="369.7" y="193.6" width="120.1" height="148.6"/>
		</defs>
		<clipPath id="SVGID_84_">
			<use xlink:href="#SVGID_83_"  style="overflow:visible;"/>
		</clipPath>
		<path class="st51" d="M433.6,307.8c0,0-1.3,0-1.3,1.3v1.1c0,0,0,1.3,1.3,1.3h37.1c0,0,1.3,0,1.3-1.3V309c0,0,0-1.3-1.3-1.3H433.6z
			"/>
	</g>
</g>
<text transform="matrix(1 0 0 1 449.1372 309.9773)" class="st1 st2 st19">Add to Ca</text>
<text transform="matrix(1 0 0 1 454.3943 309.9773)" class="st1 st2 st19">r</text>
<text transform="matrix(1 0 0 1 454.8042 309.9773)" class="st1 st2 st19">t</text>
<rect x="369.7" y="193.6" class="st1" width="120.1" height="8.1"/>
<text transform="matrix(1 0 0 1 463.5406 197.4558)" class="st2 st3">ABOUT US</text>
<text transform="matrix(1 0 0 1 446.6451 197.4558)" class="st2 st3">DONUT</text>
<text transform="matrix(1 0 0 1 438.1978 197.4558)" class="st2 st3">BR</text>
<text transform="matrix(1 0 0 1 439.5338 197.4558)" class="st2 st3">A</text>
<text transform="matrix(1 0 0 1 440.2358 197.4558)" class="st2 st3">CELET</text>
<text transform="matrix(1 0 0 1 455.0933 197.4558)" class="st2 st3">T</text>
<text transform="matrix(1 0 0 1 455.6643 197.4558)" class="st2 st3">ORUS</text>
<g>
	<g>
		<defs>
			<rect id="SVGID_85_" x="369.7" y="193.6" width="120.1" height="148.6"/>
		</defs>
		<clipPath id="SVGID_86_">
			<use xlink:href="#SVGID_85_"  style="overflow:visible;"/>
		</clipPath>
		<path class="st52" d="M392,198.6L392,198.6C392,198.6,392,198.6,392,198.6c0.1,0,0.2,0,0.2,0c0,0,0-0.1,0-0.1c0,0,0-0.1,0-0.1
			c0,0,0,0,0,0l0,0l-0.6-0.5l0.6-0.5c0,0,0,0,0,0c0,0,0-0.1,0-0.1c0,0,0-0.1,0-0.1c0,0-0.1,0-0.1,0c0,0-0.1,0-0.1,0l-0.6,0.5v-0.8
			c0,0,0-0.1,0-0.1c0,0-0.1,0-0.1,0s-0.1,0-0.1,0c0,0,0,0.1,0,0.1v1.6c0,0,0,0.1,0,0.1c0,0,0.1,0,0.1,0s0.1,0,0.1,0c0,0,0-0.1,0-0.1
			V198L392,198.6z M390,198.6c0.2,0,0.4-0.1,0.5-0.2c0.1-0.1,0.2-0.3,0.2-0.5v-0.6c0-0.1,0-0.1,0-0.1c0,0-0.1,0-0.1,0
			c0,0-0.1,0-0.1,0c0,0,0,0.1,0,0.1v0.6c0,0,0,0,0,0c0,0.1,0,0.2-0.1,0.3c-0.1,0.1-0.2,0.1-0.3,0.1h0c-0.1,0-0.2,0-0.3-0.1
			c-0.1-0.1-0.1-0.2-0.1-0.3c0,0,0,0,0,0v-0.6c0-0.1,0-0.1,0-0.1c0,0-0.1,0-0.1,0c0,0-0.1,0-0.1,0s0,0.1,0,0.1v0.6
			c0,0.2,0.1,0.4,0.2,0.5C389.6,198.5,389.8,198.6,390,198.6L390,198.6z M388.2,197.1c-0.2,0-0.4,0.1-0.5,0.2
			c-0.1,0.1-0.2,0.3-0.2,0.5v0.6c0,0.1,0,0.1,0,0.1c0,0,0.1,0,0.1,0c0,0,0.1,0,0.1,0c0,0,0-0.1,0-0.1v-0.6c0,0,0,0,0,0
			c0-0.1,0-0.2,0.1-0.3c0.1-0.1,0.2-0.1,0.3-0.1h0c0.1,0,0.2,0,0.3,0.1c0.1,0.1,0.1,0.2,0.1,0.3c0,0,0,0,0,0v0.6c0,0.1,0,0.1,0,0.1
			c0,0,0.1,0,0.1,0s0.1,0,0.1,0c0,0,0-0.1,0-0.1v-0.6c0-0.2-0.1-0.4-0.2-0.5C388.6,197.2,388.5,197.1,388.2,197.1L388.2,197.1z"/>
	</g>
</g>
<g>
	<g>
		<defs>
			<rect id="SVGID_87_" x="477.9" y="196.7" width="2.5" height="2"/>
		</defs>
		<clipPath id="SVGID_88_">
			<use xlink:href="#SVGID_87_"  style="overflow:visible;"/>
		</clipPath>
		<path class="st53" d="M478.9,198.6c0,0.1-0.1,0.2-0.2,0.2s-0.2-0.1-0.2-0.2s0.1-0.2,0.2-0.2S478.9,198.5,478.9,198.6 M480,198.4
			c-0.1,0-0.2,0.1-0.2,0.2s0.1,0.2,0.2,0.2c0.1,0,0.2-0.1,0.2-0.2S480.1,198.4,480,198.4 M480.4,197.1c-0.1,0.3-0.2,0.6-0.3,0.9
			c0,0,0,0.1-0.1,0.1h-1.4c0,0.1,0,0.1,0,0.2h1.4c0.1,0,0.1,0.2,0,0.2h-1.4c0,0-0.1,0-0.1-0.1c-0.1-0.5-0.2-0.9-0.3-1.4H478
			c-0.1,0-0.1-0.2,0-0.2h0.3c0,0,0.1,0,0.1,0.1c0,0.1,0,0.1,0,0.2h1.9C480.4,197,480.4,197,480.4,197.1 M479.2,197.9h0.4 M480,197.9
			c0-0.1,0.2-0.6,0.2-0.7h-1.8c0,0.1,0.1,0.6,0.2,0.7"/>
	</g>
</g>
<rect x="369.7" y="328.3" width="120.1" height="13.8"/>
<text transform="matrix(1 0 0 1 463.5406 331.5232)" class="st1 st2 st3">640 Clay St. Suite. 222</text>
<text transform="matrix(1 0 0 1 463.5406 333.2761)" class="st1 st2 st3">S</text>
<text transform="matrix(1 0 0 1 464.1875 333.2761)" class="st1 st2 st3">an </text>
<text transform="matrix(1 0 0 1 465.6355 333.2761)" class="st1 st2 st3">F</text>
<text transform="matrix(1 0 0 1 466.1715 333.2761)" class="st1 st2 st3">rancisco, CA 94</text>
<text transform="matrix(1 0 0 1 473.4605 333.2761)" class="st1 st2 st3">11</text>
<text transform="matrix(1 0 0 1 474.3056 333.2761)" class="st1 st2 st3">1</text>
<text transform="matrix(1 0 0 1 446.6451 331.5232)" class="st1 st2 st3">T</text>
<text transform="matrix(1 0 0 1 447.122 331.5232)" class="st1 st2 st3">: +1 (4</text>
<text transform="matrix(1 0 0 1 449.9881 331.5232)" class="st1 st2 st3">1</text>
<text transform="matrix(1 0 0 1 450.5301 331.5232)" class="st1 st2 st3">5)3</text>
<text transform="matrix(1 0 0 1 451.976 331.5232)" class="st1 st2 st3">1</text>
<text transform="matrix(1 0 0 1 452.518 331.5232)" class="st1 st2 st3">7</text>
<text transform="matrix(1 0 0 1 453 331.5232)" class="st1 st2 st3">-9475</text>
<text transform="matrix(1 0 0 1 446.6451 333.2761)" class="st1 st2 st3">F: +1 (4</text>
<text transform="matrix(1 0 0 1 450.068 333.2761)" class="st1 st2 st3">1</text>
<text transform="matrix(1 0 0 1 450.6101 333.2761)" class="st1 st2 st3">5)3</text>
<text transform="matrix(1 0 0 1 452.0561 333.2761)" class="st1 st2 st3">1</text>
<text transform="matrix(1 0 0 1 452.5981 333.2761)" class="st1 st2 st3">7</text>
<text transform="matrix(1 0 0 1 453.08 333.2761)" class="st1 st2 st3">-9232</text>
<text transform="matrix(1 0 0 1 446.6451 335.0281)" class="st1 st2 st3">e: hello@nuc.com</text>
<text transform="matrix(1 0 0 1 387.5122 331.5232)" class="st1 st2 st3">nuc</text>
<text transform="matrix(1 0 0 1 387.5122 333.2761)" class="st1 st2 st3">Compa</text>
<text transform="matrix(1 0 0 1 390.9052 333.2761)" class="st1 st2 st3">n</text>
<text transform="matrix(1 0 0 1 391.4962 333.2761)" class="st1 st2 st3">y Number: 3</text>
<text transform="matrix(1 0 0 1 397.3382 333.2761)" class="st1 st2 st3">1</text>
<text transform="matrix(1 0 0 1 397.8622 333.2761)" class="st1 st2 st3">435</text>
<text transform="matrix(1 0 0 1 387.5122 335.0281)" class="st1 st2 st3">© 2</text>
<text transform="matrix(1 0 0 1 389.1482 335.0281)" class="st1 st2 st3">0</text>
<text transform="matrix(1 0 0 1 389.6502 335.0281)" class="st1 st2 st3">1</text>
<text transform="matrix(1 0 0 1 390.1712 335.0281)" class="st1 st2 st3">4-2</text>
<text transform="matrix(1 0 0 1 391.6172 335.0281)" class="st1 st2 st3">0</text>
<text transform="matrix(1 0 0 1 392.1202 335.0281)" class="st1 st2 st3">1</text>
<text transform="matrix(1 0 0 1 392.6172 335.0281)" class="st1 st2 st3">9 </text>
<text transform="matrix(1 0 0 1 387.5122 336.78)" class="st1 st2 st3">All rights reserved</text>
<g>
	<g>
		<defs>
			<rect id="SVGID_89_" x="415.3" y="331.3" width="2.4" height="2.4"/>
		</defs>
		<clipPath id="SVGID_90_">
			<use xlink:href="#SVGID_89_"  style="overflow:visible;"/>
		</clipPath>
		<g class="st54">
			<g>
				<defs>
					<rect id="SVGID_91_" x="415.3" y="331.3" width="2.4" height="2.4"/>
				</defs>
				<clipPath id="SVGID_92_">
					<use xlink:href="#SVGID_91_"  style="overflow:visible;"/>
				</clipPath>
				<g transform="matrix(1 0 0 1 0 0)" class="st55">
				</g>
			</g>
		</g>
	</g>
</g>
<g>
	<g>
		<defs>
			<rect id="SVGID_93_" x="421.3" y="331.3" width="2.4" height="2.4"/>
		</defs>
		<clipPath id="SVGID_94_">
			<use xlink:href="#SVGID_93_"  style="overflow:visible;"/>
		</clipPath>
		<g class="st56">
			<g>
				<defs>
					<rect id="SVGID_95_" x="421.3" y="331.3" width="2.4" height="2.4"/>
				</defs>
				<clipPath id="SVGID_96_">
					<use xlink:href="#SVGID_95_"  style="overflow:visible;"/>
				</clipPath>
				<g transform="matrix(1 0 0 1 0 0)" class="st57">
				</g>
			</g>
		</g>
	</g>
</g>
<g>
	<g>
		<defs>
			<rect id="SVGID_97_" x="427.3" y="331.3" width="2.4" height="2.4"/>
		</defs>
		<clipPath id="SVGID_98_">
			<use xlink:href="#SVGID_97_"  style="overflow:visible;"/>
		</clipPath>
		<g class="st58">
			<g>
				<defs>
					<rect id="SVGID_99_" x="427.3" y="331.3" width="2.4" height="2.4"/>
				</defs>
				<clipPath id="SVGID_100_">
					<use xlink:href="#SVGID_99_"  style="overflow:visible;"/>
				</clipPath>
				<g transform="matrix(1 0 0 1 0 0)" class="st59">
				</g>
			</g>
		</g>
	</g>
</g>
<g>
	<g>
		<defs>
			<rect id="SVGID_101_" x="433.3" y="331.3" width="2.4" height="2.4"/>
		</defs>
		<clipPath id="SVGID_102_">
			<use xlink:href="#SVGID_101_"  style="overflow:visible;"/>
		</clipPath>
		<g class="st60">
			<g>
				<defs>
					<rect id="SVGID_103_" x="433.3" y="331.3" width="2.4" height="2.4"/>
				</defs>
				<clipPath id="SVGID_104_">
					<use xlink:href="#SVGID_103_"  style="overflow:visible;"/>
				</clipPath>
				<g class="st61">
				</g>
			</g>
		</g>
	</g>
</g>
<text transform="matrix(1 0 0 1 436.8549 277.9148)" class="st30 st31">Donu</text>
<text transform="matrix(1 0 0 1 442.539 277.9148)" class="st30 st31">t</text>
<text transform="matrix(1 0 0 1 435.6635 281.5027)" class="st30 st19">P</text>
<text transform="matrix(1 0 0 1 436.3745 281.5027)" class="st30 st19">r</text>
<text transform="matrix(1 0 0 1 436.8086 281.5027)" class="st30 st19">odduct</text>
<text transform="matrix(1 0 0 1 440.6975 281.5027)" class="st30 st19"> T</text>
<text transform="matrix(1 0 0 1 441.3985 281.5027)" class="st30 st19">yp</text>
<text transform="matrix(1 0 0 1 442.7475 281.5027)" class="st30 st19">e</text>
<text transform="matrix(1 0 0 1 438.856 284.6316)" class="st30 st19">Ma</text>
<text transform="matrix(1 0 0 1 440.59 284.6316)" class="st30 st19">t</text>
<text transform="matrix(1 0 0 1 441.029 284.6316)" class="st30 st19">e</text>
<text transform="matrix(1 0 0 1 441.677 284.6316)" class="st30 st19">r</text>
<text transform="matrix(1 0 0 1 442.094 284.6316)" class="st30 st19">ia</text>
<text transform="matrix(1 0 0 1 443.079 284.6316)" class="st30 st19">l</text>
<text transform="matrix(1 0 0 1 439.2105 287.7605)" class="st30 st19">Modul</text>
<text transform="matrix(1 0 0 1 442.7645 287.7605)" class="st30 st19">e</text>
<text transform="matrix(1 0 0 1 439.4428 290.8894)" class="st30 st19">W</text>
<text transform="matrix(1 0 0 1 440.5478 290.8894)" class="st30 st19">eigh</text>
<text transform="matrix(1 0 0 1 442.9499 290.8894)" class="st30 st19">t</text>
<text transform="matrix(1 0 0 1 435.3247 294.0193)" class="st30 st19">Cellphone</text>
<text transform="matrix(1 0 0 1 440.9107 294.0193)" class="st30 st19"> </text>
<text transform="matrix(1 0 0 1 441.1557 294.0193)" class="st30 st19">Ap</text>
<text transform="matrix(1 0 0 1 442.7027 294.0193)" class="st30 st19">p</text>
<text transform="matrix(1 0 0 1 437.2125 297.1482)" class="st30 st19">W</text>
<text transform="matrix(1 0 0 1 438.2995 297.1482)" class="st30 st19">a</text>
<text transform="matrix(1 0 0 1 438.9465 297.1482)" class="st30 st19">t</text>
<text transform="matrix(1 0 0 1 439.3855 297.1482)" class="st30 st19">e</text>
<text transform="matrix(1 0 0 1 440.0325 297.1482)" class="st30 st19">r</text>
<text transform="matrix(1 0 0 1 440.4495 297.1482)" class="st30 st19">p</text>
<text transform="matrix(1 0 0 1 441.1595 297.1482)" class="st30 st19">r</text>
<text transform="matrix(1 0 0 1 441.5935 297.1482)" class="st30 st19">oo</text>
<text transform="matrix(1 0 0 1 443.0125 297.1482)" class="st30 st19">f</text>
<text transform="matrix(1 0 0 1 440.4215 300.2771)" class="st30 st19">Colo</text>
<text transform="matrix(1 0 0 1 442.9525 300.2771)" class="st30 st19">r</text>
<text transform="matrix(1 0 0 1 440.7163 303.406)" class="st30 st19">P</text>
<text transform="matrix(1 0 0 1 441.4273 303.406)" class="st30 st19">r</text>
<text transform="matrix(1 0 0 1 441.8443 303.406)" class="st30 st19">ic</text>
<text transform="matrix(1 0 0 1 442.7654 303.406)" class="st30 st19">e</text>
<text transform="matrix(1 0 0 1 444.3922 281.5046)" class="st2 st19">Analog</text>
<text transform="matrix(1 0 0 1 448.3442 281.5046)" class="st2 st19"> </text>
<text transform="matrix(1 0 0 1 448.5682 281.5046)" class="st2 st19">W</text>
<text transform="matrix(1 0 0 1 449.6552 281.5046)" class="st2 st19">at</text>
<text transform="matrix(1 0 0 1 450.6992 281.5046)" class="st2 st19">c</text>
<text transform="matrix(1 0 0 1 451.2292 281.5046)" class="st2 st19">h</text>
<text transform="matrix(1 0 0 1 444.3922 284.6335)" class="st2 st19">Silicon</text>
<text transform="matrix(1 0 0 1 448.1802 284.6335)" class="st2 st19">e</text>
<text transform="matrix(1 0 0 1 444.3922 287.7634)" class="st2 st19">S</text>
<text transform="matrix(1 0 0 1 445.1432 287.7634)" class="st2 st19">eiko</text>
<text transform="matrix(1 0 0 1 447.4192 287.7634)" class="st2 st19"> </text>
<text transform="matrix(1 0 0 1 447.5522 287.7634)" class="st2 st19">Y</text>
<text transform="matrix(1 0 0 1 448.3262 287.7634)" class="st2 st19">1</text>
<text transform="matrix(1 0 0 1 448.9562 287.7634)" class="st2 st19">21 qua</text>
<text transform="matrix(1 0 0 1 452.6532 287.7634)" class="st2 st19">r</text>
<text transform="matrix(1 0 0 1 453.0912 287.7634)" class="st2 st19">tz m</text>
<text transform="matrix(1 0 0 1 455.4282 287.7634)" class="st2 st19">o</text>
<text transform="matrix(1 0 0 1 456.1212 287.7634)" class="st2 st19">vemen</text>
<text transform="matrix(1 0 0 1 459.8582 287.7634)" class="st2 st19">t</text>
<text transform="matrix(1 0 0 1 444.3922 290.8923)" class="st2 st19">250</text>
<text transform="matrix(1 0 0 1 446.3352 290.8923)" class="st2 st19">g</text>
<text transform="matrix(1 0 0 1 444.3922 294.0212)" class="st2 st19">N/</text>
<text transform="matrix(1 0 0 1 445.6242 294.0212)" class="st2 st19">P</text>
<text transform="matrix(1 0 0 1 444.3922 297.1501)" class="st2 st19">1</text>
<text transform="matrix(1 0 0 1 444.9792 297.1501)" class="st2 st19">0</text>
<text transform="matrix(1 0 0 1 445.6712 297.1501)" class="st2 st19">0</text>
<text transform="matrix(1 0 0 1 446.3192 297.1501)" class="st2 st19">m</text>
<text transform="matrix(1 0 0 1 444.3922 300.2791)" class="st2 st19">Bla</text>
<text transform="matrix(1 0 0 1 446.1502 300.2791)" class="st2 st19">c</text>
<text transform="matrix(1 0 0 1 446.6812 300.2791)" class="st2 st19">k</text>
<text transform="matrix(1 0 0 1 444.3922 303.4089)" class="st2 st19">$5</text>
<text transform="matrix(1 0 0 1 445.6872 303.4089)" class="st2 st19">0</text>
<rect x="369.7" y="193.6" class="st14" width="120.1" height="148.6"/>
<line class="st62" x1="185.1" y1="385.4" x2="305.2" y2="412.6"/>
<line class="st0" x1="185.1" y1="412.7" x2="305.2" y2="385.4"/>
<rect x="203" y="434.3" class="st0" width="11.7" height="11.7"/>
<line class="st0" x1="203" y1="434.3" x2="214.7" y2="446"/>
<line class="st0" x1="203" y1="446" x2="214.7" y2="434.3"/>
<rect x="203" y="448.3" class="st0" width="11.7" height="11.7"/>
<line class="st0" x1="203" y1="448.3" x2="214.7" y2="460"/>
<line class="st0" x1="203" y1="460" x2="214.7" y2="448.3"/>
<rect x="185.1" y="385.4" class="st0" width="120.1" height="27.2"/>
<line class="st63" x1="202" y1="429.9" x2="287.3" y2="429.9"/>
<line class="st63" x1="202" y1="464.5" x2="287.3" y2="464.5"/>
<rect x="185.1" y="482.9" width="120.1" height="13.8"/>
<text transform="matrix(1 0 0 1 278.9683 486.113)" class="st1 st2 st3">640 Clay St. Suite. 222</text>
<text transform="matrix(1 0 0 1 278.9683 487.865)" class="st1 st2 st3">S</text>
<text transform="matrix(1 0 0 1 279.6162 487.865)" class="st1 st2 st3">an </text>
<text transform="matrix(1 0 0 1 281.0642 487.865)" class="st1 st2 st3">F</text>
<text transform="matrix(1 0 0 1 281.6012 487.865)" class="st1 st2 st3">rancisco, CA 94</text>
<text transform="matrix(1 0 0 1 288.8903 487.865)" class="st1 st2 st3">11</text>
<text transform="matrix(1 0 0 1 289.7353 487.865)" class="st1 st2 st3">1</text>
<text transform="matrix(1 0 0 1 262.0728 486.113)" class="st1 st2 st3">T</text>
<text transform="matrix(1 0 0 1 262.5497 486.113)" class="st1 st2 st3">: +1 (4</text>
<text transform="matrix(1 0 0 1 265.4157 486.113)" class="st1 st2 st3">1</text>
<text transform="matrix(1 0 0 1 265.9588 486.113)" class="st1 st2 st3">5)3</text>
<text transform="matrix(1 0 0 1 267.4048 486.113)" class="st1 st2 st3">1</text>
<text transform="matrix(1 0 0 1 267.9478 486.113)" class="st1 st2 st3">7</text>
<text transform="matrix(1 0 0 1 268.4287 486.113)" class="st1 st2 st3">-9475</text>
<text transform="matrix(1 0 0 1 262.0728 487.865)" class="st1 st2 st3">F: +1 (4</text>
<text transform="matrix(1 0 0 1 265.4958 487.865)" class="st1 st2 st3">1</text>
<text transform="matrix(1 0 0 1 266.0387 487.865)" class="st1 st2 st3">5)3</text>
<text transform="matrix(1 0 0 1 267.4848 487.865)" class="st1 st2 st3">1</text>
<text transform="matrix(1 0 0 1 268.0277 487.865)" class="st1 st2 st3">7</text>
<text transform="matrix(1 0 0 1 268.5098 487.865)" class="st1 st2 st3">-9232</text>
<text transform="matrix(1 0 0 1 262.0728 489.6179)" class="st1 st2 st3">e: hello@nuc.com</text>
<text transform="matrix(1 0 0 1 202.94 486.113)" class="st1 st2 st3">nuc</text>
<text transform="matrix(1 0 0 1 202.94 487.865)" class="st1 st2 st3">Compa</text>
<text transform="matrix(1 0 0 1 206.333 487.865)" class="st1 st2 st3">n</text>
<text transform="matrix(1 0 0 1 206.9259 487.865)" class="st1 st2 st3">y Number: 3</text>
<text transform="matrix(1 0 0 1 212.768 487.865)" class="st1 st2 st3">1</text>
<text transform="matrix(1 0 0 1 213.289 487.865)" class="st1 st2 st3">435</text>
<text transform="matrix(1 0 0 1 202.94 489.6179)" class="st1 st2 st3">© 2</text>
<text transform="matrix(1 0 0 1 204.5759 489.6179)" class="st1 st2 st3">0</text>
<text transform="matrix(1 0 0 1 205.079 489.6179)" class="st1 st2 st3">1</text>
<text transform="matrix(1 0 0 1 205.6 489.6179)" class="st1 st2 st3">4-2</text>
<text transform="matrix(1 0 0 1 207.047 489.6179)" class="st1 st2 st3">01</text>
<text transform="matrix(1 0 0 1 208.0499 489.6179)" class="st1 st2 st3">9 </text>
<text transform="matrix(1 0 0 1 202.94 491.3689)" class="st1 st2 st3">All rights reserved</text>
<g>
	<g>
		<defs>
			<rect id="SVGID_105_" x="230.7" y="485.9" width="2.4" height="2.4"/>
		</defs>
		<clipPath id="SVGID_106_">
			<use xlink:href="#SVGID_105_"  style="overflow:visible;"/>
		</clipPath>
		<g class="st64">
			<g>
				<defs>
					<rect id="SVGID_107_" x="230.7" y="485.9" width="2.4" height="2.4"/>
				</defs>
				<clipPath id="SVGID_108_">
					<use xlink:href="#SVGID_107_"  style="overflow:visible;"/>
				</clipPath>
				<g transform="matrix(1 0 0 1 0 0)" class="st65">
				</g>
			</g>
		</g>
	</g>
</g>
<g>
	<g>
		<defs>
			<rect id="SVGID_109_" x="236.7" y="485.9" width="2.4" height="2.4"/>
		</defs>
		<clipPath id="SVGID_110_">
			<use xlink:href="#SVGID_109_"  style="overflow:visible;"/>
		</clipPath>
		<g class="st66">
			<g>
				<defs>
					<rect id="SVGID_111_" x="236.7" y="485.9" width="2.4" height="2.4"/>
				</defs>
				<clipPath id="SVGID_112_">
					<use xlink:href="#SVGID_111_"  style="overflow:visible;"/>
				</clipPath>
				<g transform="matrix(1 0 0 1 0 0)" class="st67">
				</g>
			</g>
		</g>
	</g>
</g>
<g>
	<g>
		<defs>
			<rect id="SVGID_113_" x="242.7" y="485.9" width="2.4" height="2.4"/>
		</defs>
		<clipPath id="SVGID_114_">
			<use xlink:href="#SVGID_113_"  style="overflow:visible;"/>
		</clipPath>
		<g class="st68">
			<g>
				<defs>
					<rect id="SVGID_115_" x="242.7" y="485.9" width="2.4" height="2.4"/>
				</defs>
				<clipPath id="SVGID_116_">
					<use xlink:href="#SVGID_115_"  style="overflow:visible;"/>
				</clipPath>
				<g transform="matrix(1 0 0 1 0 0)" class="st69">
				</g>
			</g>
		</g>
	</g>
</g>
<g>
	<g>
		<defs>
			<rect id="SVGID_117_" x="248.8" y="485.9" width="2.4" height="2.4"/>
		</defs>
		<clipPath id="SVGID_118_">
			<use xlink:href="#SVGID_117_"  style="overflow:visible;"/>
		</clipPath>
		<g class="st70">
			<g>
				<defs>
					<rect id="SVGID_119_" x="248.8" y="485.9" width="2.4" height="2.4"/>
				</defs>
				<clipPath id="SVGID_120_">
					<use xlink:href="#SVGID_119_"  style="overflow:visible;"/>
				</clipPath>
				<g class="st71">
				</g>
			</g>
		</g>
	</g>
</g>
<rect x="185.1" y="377.4" class="st1" width="120.1" height="8.1"/>
<text transform="matrix(1 0 0 1 278.9683 381.1912)" class="st2 st3">ABOUT US</text>
<text transform="matrix(1 0 0 1 262.0728 381.1912)" class="st2 st3">DONUT</text>
<text transform="matrix(1 0 0 1 253.6255 381.1912)" class="st2 st3">BR</text>
<text transform="matrix(1 0 0 1 254.9616 381.1912)" class="st2 st3">A</text>
<text transform="matrix(1 0 0 1 255.6646 381.1912)" class="st2 st3">CELET</text>
<text transform="matrix(1 0 0 1 270.521 381.1912)" class="st2 st3">T</text>
<text transform="matrix(1 0 0 1 271.093 381.1912)" class="st2 st3">ORUS</text>
<g>
	<g>
		<defs>
			<rect id="SVGID_121_" x="185" y="377.4" width="120.1" height="119.4"/>
		</defs>
		<clipPath id="SVGID_122_">
			<use xlink:href="#SVGID_121_"  style="overflow:visible;"/>
		</clipPath>
		<path class="st72" d="M207.4,382.3L207.4,382.3C207.4,382.3,207.5,382.3,207.4,382.3c0.1,0,0.2,0,0.2,0c0,0,0-0.1,0-0.1
			c0,0,0-0.1,0-0.1c0,0,0,0,0,0l0,0l-0.6-0.5l0.6-0.5c0,0,0,0,0,0c0,0,0-0.1,0-0.1c0,0,0-0.1,0-0.1c0,0-0.1,0-0.1,0c0,0-0.1,0-0.1,0
			l-0.6,0.5v-0.8c0,0,0-0.1,0-0.1c0,0-0.1,0-0.1,0s-0.1,0-0.1,0c0,0,0,0.1,0,0.1v1.6c0,0,0,0.1,0,0.1c0,0,0.1,0,0.1,0
			c0,0,0.1,0,0.1,0c0,0,0-0.1,0-0.1v-0.4L207.4,382.3z M205.4,382.3c0.2,0,0.4-0.1,0.5-0.2c0.1-0.1,0.2-0.3,0.2-0.5V381
			c0-0.1,0-0.1,0-0.1c0,0-0.1,0-0.1,0c0,0-0.1,0-0.1,0c0,0,0,0.1,0,0.1v0.6c0,0,0,0,0,0c0,0.1,0,0.2-0.1,0.3
			c-0.1,0.1-0.2,0.1-0.3,0.1h0c-0.1,0-0.2,0-0.3-0.1c-0.1-0.1-0.1-0.2-0.1-0.3c0,0,0,0,0,0V381c0-0.1,0-0.1,0-0.1s-0.1,0-0.1,0
			c0,0-0.1,0-0.1,0s0,0.1,0,0.1v0.6c0,0.2,0.1,0.4,0.2,0.5C205,382.2,205.2,382.3,205.4,382.3L205.4,382.3z M203.7,380.9
			c-0.2,0-0.4,0.1-0.5,0.2c-0.1,0.1-0.2,0.3-0.2,0.5v0.6c0,0.1,0,0.1,0,0.1c0,0,0.1,0,0.1,0c0,0,0.1,0,0.1,0c0,0,0-0.1,0-0.1v-0.6
			c0,0,0,0,0,0c0-0.1,0-0.2,0.1-0.3c0.1-0.1,0.2-0.1,0.3-0.1h0c0.1,0,0.2,0,0.3,0.1c0.1,0.1,0.1,0.2,0.1,0.3c0,0,0,0,0,0v0.6
			c0,0.1,0,0.1,0,0.1c0,0,0.1,0,0.1,0s0.1,0,0.1,0c0,0,0-0.1,0-0.1v-0.6c0-0.2-0.1-0.4-0.2-0.5C204.1,380.9,203.9,380.9,203.7,380.9
			L203.7,380.9z"/>
	</g>
</g>
<g>
	<g>
		<defs>
			<rect id="SVGID_123_" x="293.4" y="380.5" width="2.5" height="2"/>
		</defs>
		<clipPath id="SVGID_124_">
			<use xlink:href="#SVGID_123_"  style="overflow:visible;"/>
		</clipPath>
		<path class="st73" d="M294.3,382.3c0,0.1-0.1,0.2-0.2,0.2s-0.2-0.1-0.2-0.2s0.1-0.2,0.2-0.2C294.2,382.2,294.3,382.2,294.3,382.3
			 M295.4,382.2c-0.1,0-0.2,0.1-0.2,0.2s0.1,0.2,0.2,0.2c0.1,0,0.2-0.1,0.2-0.2S295.5,382.2,295.4,382.2 M295.9,380.8
			c-0.1,0.3-0.2,0.6-0.3,0.9c0,0,0,0.1-0.1,0.1h-1.4c0,0.1,0,0.1,0,0.2h1.4c0.1,0,0.1,0.2,0,0.2h-1.4c0,0-0.1,0-0.1-0.1
			c-0.1-0.5-0.2-0.9-0.3-1.4h-0.3c-0.1,0-0.1-0.2,0-0.2h0.3c0,0,0.1,0,0.1,0.1c0,0.1,0,0.1,0,0.2h1.9
			C295.8,380.7,295.9,380.8,295.9,380.8 M294.6,381.6h0.4 M295.5,381.6c0-0.1,0.2-0.6,0.2-0.7h-1.8c0,0.1,0.1,0.6,0.2,0.7"/>
	</g>
</g>
<text transform="matrix(1 0 0 1 208.6485 408.3367)" class="st30 st74">Thank </text>
<text transform="matrix(1 0 0 1 223.1694 408.3367)" class="st30 st74">y</text>
<text transform="matrix(1 0 0 1 225.5855 408.3367)" class="st30 st74">ou </text>
<text transform="matrix(1 0 0 1 232.3435 408.3367)" class="st30 st74">f</text>
<text transform="matrix(1 0 0 1 233.7534 408.3367)" class="st30 st74">or shopping with nuk!</text>
<text transform="matrix(1 0 0 1 237.3032 428.6472)" class="st2 st75">Description</text>
<text transform="matrix(1 0 0 1 231.5567 424.0457)" class="st30 st76">Y</text>
<text transform="matrix(1 0 0 1 232.5936 424.0457)" class="st30 st76">our Shopping Ca</text>
<text transform="matrix(1 0 0 1 248.6156 424.0457)" class="st30 st76">r</text>
<text transform="matrix(1 0 0 1 249.3546 424.0457)" class="st30 st76">t</text>
<text transform="matrix(1 0 0 1 206.7095 428.6472)" class="st2 st75">P</text>
<text transform="matrix(1 0 0 1 207.4865 428.6472)" class="st2 st75">roduct</text>
<text transform="matrix(1 0 0 1 263.7564 428.6472)" class="st2 st75">Quantity</text>
<text transform="matrix(1 0 0 1 281.979 428.6472)" class="st2 st75">T</text>
<text transform="matrix(1 0 0 1 282.6321 428.6472)" class="st2 st75">otal</text>
<text transform="matrix(1 0 0 1 219.9981 438.9011)" class="st30 st77">B</text>
<text transform="matrix(1 0 0 1 221.5001 438.9011)" class="st30 st77">r</text>
<text transform="matrix(1 0 0 1 222.3341 438.9011)" class="st30 st77">acelet</text>
<text transform="matrix(1 0 0 1 219.9981 440.7166)" class="st2 st78">Digital sma</text>
<text transform="matrix(1 0 0 1 226.673 440.7166)" class="st2 st78">r</text>
<text transform="matrix(1 0 0 1 227.129 440.7166)" class="st2 st78">t </text>
<text transform="matrix(1 0 0 1 227.8941 440.7166)" class="st2 st78">w</text>
<text transform="matrix(1 0 0 1 228.9121 440.7166)" class="st2 st78">at</text>
<text transform="matrix(1 0 0 1 230.025 440.7166)" class="st2 st78">c</text>
<text transform="matrix(1 0 0 1 230.588 440.7166)" class="st2 st78">h, white, </text>
<text transform="matrix(1 0 0 1 236.0121 440.7166)" class="st2 st78">1</text>
<text transform="matrix(1 0 0 1 236.64 440.7166)" class="st2 st78">0m </text>
<text transform="matrix(1 0 0 1 238.8651 440.7166)" class="st2 st78">w</text>
<text transform="matrix(1 0 0 1 239.8821 440.7166)" class="st2 st78">ater proof</text>
<text transform="matrix(1 0 0 1 219.9981 452.9187)" class="st30 st77">T</text>
<text transform="matrix(1 0 0 1 221.0371 452.9187)" class="st30 st77">o</text>
<text transform="matrix(1 0 0 1 222.4131 452.9187)" class="st30 st77">r</text>
<text transform="matrix(1 0 0 1 223.202 452.9187)" class="st30 st77">us</text>
<text transform="matrix(1 0 0 1 219.9981 454.7332)" class="st2 st78">Analog </text>
<text transform="matrix(1 0 0 1 224.5871 454.7332)" class="st2 st78">w</text>
<text transform="matrix(1 0 0 1 225.604 454.7332)" class="st2 st78">at</text>
<text transform="matrix(1 0 0 1 226.7171 454.7332)" class="st2 st78">c</text>
<text transform="matrix(1 0 0 1 227.28 454.7332)" class="st2 st78">h, lime green, </text>
<text transform="matrix(1 0 0 1 235.765 454.7332)" class="st2 st78">1</text>
<text transform="matrix(1 0 0 1 236.3921 454.7332)" class="st2 st78">0</text>
<text transform="matrix(1 0 0 1 237.1371 454.7332)" class="st2 st78">0m </text>
<text transform="matrix(1 0 0 1 239.3621 454.7332)" class="st2 st78">w</text>
<text transform="matrix(1 0 0 1 240.379 454.7332)" class="st2 st78">ater proof</text>
<text transform="matrix(1 0 0 1 265.1656 438.9011)" class="st2 st77">x1</text>
<text transform="matrix(1 0 0 1 265.1656 452.9187)" class="st2 st77">x1</text>
<text transform="matrix(1 0 0 1 281.6001 438.9011)" class="st2 st77">$75</text>
<text transform="matrix(1 0 0 1 281.6001 452.9187)" class="st2 st77">$40</text>
<text transform="matrix(1 0 0 1 281.1421 470.8142)" class="st2 st77">$</text>
<text transform="matrix(1 0 0 1 282.3952 470.8142)" class="st2 st77">1</text>
<text transform="matrix(1 0 0 1 283.3432 470.8142)" class="st2 st77">1</text>
<text transform="matrix(1 0 0 1 284.5622 470.8142)" class="st2 st77">5</text>
<rect x="254.1" y="468.1" class="st79" width="24.6" height="4.6"/>
<text transform="matrix(1 0 0 1 258.9761 470.946)" class="st1 st30 st80">P</text>
<text transform="matrix(1 0 0 1 259.8941 470.946)" class="st1 st30 st80">r</text>
<text transform="matrix(1 0 0 1 260.442 470.946)" class="st1 st30 st80">oceed </text>
<text transform="matrix(1 0 0 1 265.1161 470.946)" class="st1 st30 st80">t</text>
<text transform="matrix(1 0 0 1 265.6711 470.946)" class="st1 st30 st80">o </text>
<text transform="matrix(1 0 0 1 267.0061 470.946)" class="st1 st30 st80">c</text>
<text transform="matrix(1 0 0 1 267.729 470.946)" class="st1 st30 st80">he</text>
<text transform="matrix(1 0 0 1 269.4821 470.946)" class="st1 st30 st80">c</text>
<text transform="matrix(1 0 0 1 270.2051 470.946)" class="st1 st30 st80">k out</text>
<rect x="185" y="377.4" class="st14" width="120.1" height="119.7"/>
<polyline class="st81" points="217.9,111.1 217.9,162.8 86,162.8 86,206.7 "/>
<polyline class="st81" points="269,111.1 269,162.8 416.9,162.8 416.9,206.7 "/>
<polyline class="st81" points="255.7,19.8 255.7,37.6 53.1,37.6 53.1,206.7 "/>
<polyline class="st81" points="272.1,19.8 272.1,37.6 444.3,37.6 444.3,206.7 "/>
<polyline class="st81" points="244.1,389.6 244.1,357.6 86,357.6 86,311.2 "/>
<polyline class="st81" points="244.1,389.6 244.1,357.6 452.5,357.6 452.5,311.2 "/>
<polyline class="st81" points="244.1,389.6 244.1,357.6 265.5,357.6 265.5,311.2 "/>
<line class="st82" x1="243.1" y1="111.1" x2="243.1" y2="206.7"/>
<line class="st82" x1="264" y1="19.8" x2="264" y2="213.9"/>
<polyline class="st82" points="293.3,19.8 293.3,28.9 518.7,28.9 518.7,396.1 300.6,396.1 "/>
<g class="st83">
	<path class="st84" d="M185.7,7.4V0h0.8v3.3h3.6V0h0.8v7.4h-0.8V4h-3.6v3.4H185.7z"/>
	<path class="st84" d="M192.1,4.7c0-1.5,1.1-2.8,2.8-2.8c1.7,0,2.9,1.3,2.9,2.8s-1.1,2.8-2.9,2.8C193.2,7.6,192.1,6.2,192.1,4.7
		L192.1,4.7z M192.8,4.7c0,1.2,0.9,2.1,2.1,2.1c1.2,0,2.1-0.9,2.1-2.1s-0.9-2.1-2.1-2.1C193.7,2.6,192.8,3.5,192.8,4.7L192.8,4.7z"
		/>
	<path class="st84" d="M198.9,2.1h0.7v0.8c0.3-0.7,1.1-1,1.7-1c0.6,0,1.1,0.2,1.5,0.6c0.1,0.1,0.3,0.5,0.4,0.6
		c0.1-0.2,0.2-0.4,0.4-0.6c0.3-0.4,0.9-0.6,1.5-0.6c0.5,0,1.1,0.2,1.4,0.5c0.5,0.5,0.6,1,0.6,2v3h-0.7v-3c0-0.6-0.1-1.1-0.4-1.4
		c-0.2-0.3-0.6-0.4-1.1-0.4c-0.5,0-0.9,0.2-1.2,0.6c-0.3,0.4-0.3,0.7-0.3,1.3v3h-0.7v-3c0-0.6-0.1-0.9-0.3-1.3
		c-0.2-0.3-0.6-0.6-1.2-0.6c-0.5,0-0.9,0.2-1.1,0.5c-0.2,0.3-0.4,0.7-0.4,1.3v3h-0.7V2.1z"/>
	<path class="st84" d="M208.8,4.9c0,1.3,1.2,2,2.1,2c0.8,0,1.5-0.4,1.8-1.1h0.8c-0.2,0.6-0.6,1-1.1,1.3c-0.4,0.3-1,0.4-1.5,0.4
		c-1.9,0-2.8-1.5-2.8-2.8c0-1.6,1.2-2.8,2.8-2.8c0.8,0,1.5,0.3,2,0.8c0.6,0.6,0.9,1.4,0.8,2.3H208.8z M212.9,4.4
		c-0.1-0.9-1-1.9-2.1-1.8c-1.2,0-2,0.8-2.1,1.8H212.9z"/>
</g>
<g class="st83">
	<path class="st84" d="M220.5,0c1,0,1.5,0.1,2,0.5c0.5,0.4,0.8,1.1,0.8,1.8c0,0.7-0.3,1.4-0.8,1.8c-0.5,0.4-1,0.5-1.9,0.5h-1.2v2.9
		h-0.8V0H220.5z M219.4,3.8h1.2c0.6,0,1-0.1,1.4-0.3c0.3-0.2,0.5-0.7,0.5-1.2c0-0.5-0.2-1-0.6-1.2c-0.4-0.2-0.7-0.3-1.4-0.3h-1.2
		V3.8z"/>
</g>
<g class="st83">
	<path class="st84" d="M229.5,7.4h-0.7V6.3c-0.4,0.8-1.2,1.3-2.2,1.3c-1.7,0-2.8-1.4-2.8-2.8c0-1.6,1.1-2.8,2.8-2.8
		c1.1,0,1.9,0.7,2.2,1.3V2.1h0.7V7.4z M224.5,4.7c0,1,0.7,2.1,2.2,2.1c0.9,0,1.6-0.5,1.9-1.3c0.1-0.3,0.2-0.6,0.2-0.8
		c0-0.3,0-0.6-0.2-0.9c-0.3-0.7-1-1.3-2-1.3C225.4,2.6,224.5,3.5,224.5,4.7L224.5,4.7z"/>
</g>
<g class="st83">
	<path class="st84" d="M236.6,6.8c0,1-0.3,1.7-0.8,2.1c-0.5,0.5-1.3,0.8-2,0.8c-1.3,0-2.3-0.8-2.7-1.7h0.8c0.1,0.2,0.3,0.5,0.6,0.7
		c0.4,0.3,0.8,0.4,1.2,0.4c1,0,2.1-0.8,2.1-2.1V6.3c-0.4,0.8-1.1,1.3-2.2,1.3c-1.7,0-2.8-1.3-2.8-2.8c0-1.6,1.2-2.8,2.8-2.8
		c1.1,0,1.9,0.6,2.2,1.3V2.1h0.7V6.8z M231.6,4.7c0,1.1,0.8,2.1,2.2,2.1c0.6,0,1.1-0.2,1.5-0.6c0.4-0.4,0.6-0.9,0.6-1.5
		c0-0.4-0.1-1-0.5-1.4c-0.3-0.4-0.9-0.7-1.6-0.7C232.5,2.6,231.6,3.5,231.6,4.7L231.6,4.7z"/>
</g>
<g class="st83">
	<path class="st84" d="M238.5,4.9c0,1.3,1.2,2,2.1,2c0.8,0,1.5-0.4,1.8-1.1h0.8c-0.2,0.6-0.6,1-1.1,1.3c-0.4,0.3-1,0.4-1.5,0.4
		c-1.9,0-2.8-1.5-2.8-2.8c0-1.6,1.2-2.8,2.8-2.8c0.8,0,1.5,0.3,2,0.8c0.6,0.6,0.9,1.4,0.8,2.3H238.5z M242.7,4.4
		c-0.1-0.9-1-1.9-2.1-1.8c-1.2,0-2,0.8-2.1,1.8H242.7z"/>
</g>
<g class="st83">
	<path class="st84" d="M186.2,184.5c0.1,1.2,1,1.5,1.5,1.5c0.8,0,1.5-0.6,1.5-1.4c0-1-0.9-1.3-1.7-1.5c-0.6-0.2-1.9-0.6-1.9-2
		c0-1.3,1.1-2,2.2-2c0.9,0,2,0.5,2.1,1.9H189c-0.1-0.5-0.3-1.2-1.3-1.2c-0.7,0-1.3,0.5-1.3,1.3c0,0.9,0.7,1.1,1.8,1.5
		c0.7,0.3,1.8,0.7,1.8,2c0,1.2-0.9,2.2-2.3,2.2c-1.2,0-2.3-0.8-2.3-2.2H186.2z"/>
	<path class="st84" d="M191.2,179.1h0.8v3.6l3-3.6h0.9l-3.1,3.7l3.4,3.7h-1L192,183v3.5h-0.8V179.1z"/>
	<path class="st84" d="M197.8,179.1v4.7c0,0.6,0,1,0.3,1.5c0.3,0.4,0.7,0.6,1.3,0.6c0.5,0,1-0.2,1.3-0.6c0.3-0.5,0.3-0.9,0.3-1.5
		v-4.7h0.8v4.7c0,0.9-0.1,1.7-0.8,2.3c-0.4,0.3-1,0.6-1.6,0.6c-0.5,0-1.2-0.1-1.6-0.6c-0.8-0.6-0.8-1.5-0.8-2.3v-4.7H197.8z"/>
</g>
<g class="st83">
	<path class="st84" d="M206.8,185.9c0.8-0.8,1.6-1.6,2.4-2.4c0.7-0.6,1.4-1.3,1.4-2.2c0-1-0.7-1.6-1.5-1.6c-0.9,0-1.5,0.7-1.5,1.8
		h-0.8c0-0.7,0.2-1.3,0.6-1.8c0.5-0.6,1.2-0.7,1.7-0.7c1.4,0,2.3,1,2.3,2.3c0,0.8-0.4,1.4-1.1,2.1c-0.8,0.8-1.6,1.6-2.4,2.4h3.6v0.7
		h-4.7V185.9z"/>
</g>
<g class="st83">
	<path class="st84" d="M1.5,184.5c0.1,1.2,1,1.5,1.5,1.5c0.8,0,1.5-0.6,1.5-1.4c0-1-0.9-1.3-1.7-1.5c-0.6-0.2-1.9-0.6-1.9-2
		c0-1.3,1.1-2,2.2-2c0.9,0,2,0.5,2.1,1.9H4.3c-0.1-0.5-0.3-1.2-1.3-1.2c-0.7,0-1.3,0.5-1.3,1.3c0,0.9,0.7,1.1,1.8,1.5
		c0.7,0.3,1.8,0.7,1.8,2c0,1.2-0.9,2.2-2.3,2.2c-1.2,0-2.3-0.8-2.3-2.2H1.5z"/>
</g>
<g class="st83">
	<path class="st84" d="M6.8,179.1h0.8v3.6l3-3.6h0.9l-3.1,3.7l3.4,3.7h-1L7.6,183v3.5H6.8V179.1z"/>
	<path class="st84" d="M13.4,179.1v4.7c0,0.6,0,1,0.3,1.5c0.3,0.4,0.7,0.6,1.3,0.6c0.5,0,1-0.2,1.3-0.6c0.3-0.5,0.3-0.9,0.3-1.5
		v-4.7h0.8v4.7c0,0.9-0.1,1.7-0.8,2.3c-0.4,0.3-1,0.6-1.6,0.6c-0.5,0-1.2-0.1-1.6-0.6c-0.8-0.6-0.8-1.5-0.8-2.3v-4.7H13.4z"/>
</g>
<g class="st83">
	<path class="st84" d="M24.2,179.8h-1.5v-0.7h2.3v7.4h-0.8V179.8z"/>
</g>
<g class="st83">
	<path class="st84" d="M370.8,184.5c0.1,1.2,1,1.5,1.5,1.5c0.8,0,1.5-0.6,1.5-1.4c0-1-0.9-1.3-1.8-1.5c-0.6-0.2-1.9-0.6-1.9-2
		c0-1.3,1.1-2,2.2-2c0.9,0,2,0.5,2.1,1.9h-0.8c-0.1-0.5-0.3-1.2-1.3-1.2c-0.7,0-1.3,0.5-1.3,1.3c0,0.9,0.7,1.1,1.8,1.5
		c0.7,0.3,1.8,0.7,1.8,2c0,1.2-0.9,2.2-2.3,2.2c-1.2,0-2.3-0.8-2.3-2.2H370.8z"/>
</g>
<g class="st83">
	<path class="st84" d="M376.1,179.1h0.8v3.6l3-3.6h0.9l-3.1,3.7l3.4,3.7h-1l-3.2-3.5v3.5h-0.8V179.1z"/>
	<path class="st84" d="M382.6,179.1v4.7c0,0.6,0,1,0.3,1.5c0.3,0.4,0.7,0.6,1.3,0.6c0.5,0,1-0.2,1.3-0.6c0.3-0.5,0.3-0.9,0.3-1.5
		v-4.7h0.8v4.7c0,0.9-0.1,1.7-0.8,2.3c-0.4,0.3-1,0.6-1.6,0.6c-0.5,0-1.2-0.1-1.6-0.6c-0.8-0.6-0.8-1.5-0.8-2.3v-4.7H382.6z"/>
</g>
<g class="st83">
	<path class="st84" d="M391.7,180.9c0-1.3,1.1-1.9,2-1.9c1.1,0,1.9,0.7,1.9,1.8c0,0.7-0.4,1.3-1,1.6c1.3,0.4,1.5,1.5,1.5,2
		c0,1.3-1,2.3-2.4,2.3c-0.7,0-1.5-0.3-1.9-0.9c-0.3-0.4-0.4-0.9-0.5-1.4h0.8c0,1,0.8,1.6,1.6,1.6c1,0,1.6-0.7,1.6-1.6
		c0-0.8-0.6-1.6-1.7-1.6h-0.5v-0.6h0.4c1.1,0,1.4-0.8,1.4-1.2c0-0.7-0.4-1.2-1.1-1.2c-0.8,0-1.1,0.6-1.2,1.1H391.7z"/>
</g>
<g class="st83">
	<path class="st84" d="M192.6,368.3c-0.5,1.1-1.8,2.1-3.4,2.1c-2.2,0-3.9-1.7-3.9-3.8c0-2.1,1.6-3.8,3.8-3.8c1.8,0,3,1.2,3.4,2.2
		h-0.9c-0.2-0.4-1.1-1.4-2.5-1.4c-1.7,0-3,1.4-3,3.1c0,1.7,1.3,3.1,3,3.1c1.5,0,2.3-1.1,2.5-1.4H192.6z"/>
</g>
<g class="st83">
	<path class="st84" d="M193.9,362.9h0.7v2v0.9c0.3-0.7,1.2-1,1.9-1c0.8,0,1.4,0.3,1.8,0.7s0.5,1.1,0.5,1.9v2.9h-0.7v-2.9
		c0-0.6-0.1-1.1-0.4-1.4c-0.3-0.3-0.7-0.5-1.3-0.5c-0.6,0-1,0.2-1.3,0.5c-0.3,0.3-0.4,0.8-0.4,1.2v3.1h-0.7V362.9z"/>
</g>
<g class="st83">
	<path class="st84" d="M200.8,367.8c0,1.3,1.2,2,2.1,2c0.8,0,1.5-0.4,1.8-1.1h0.8c-0.2,0.6-0.6,1-1.1,1.3c-0.4,0.3-1,0.4-1.5,0.4
		c-1.9,0-2.8-1.5-2.8-2.8c0-1.6,1.2-2.8,2.8-2.8c0.8,0,1.5,0.3,2,0.8c0.6,0.6,0.9,1.4,0.8,2.3H200.8z M205,367.2
		c-0.1-0.9-1-1.9-2.1-1.8c-1.2,0-2,0.8-2.1,1.8H205z"/>
</g>
<g class="st83">
	<path class="st84" d="M212.2,368.5c-0.3,1.1-1.4,2-2.7,2c-1.8,0-2.9-1.4-2.9-2.8c0-1.6,1.2-2.8,2.8-2.8c1.2,0,2.4,0.7,2.7,2h-0.8
		c-0.3-0.9-1.2-1.3-1.9-1.3c-0.6,0-1.1,0.2-1.5,0.6c-0.4,0.3-0.6,0.9-0.6,1.5c0,1.3,1,2.1,2.1,2.1c1,0,1.7-0.6,1.9-1.3H212.2z"/>
</g>
<g class="st83">
	<path class="st84" d="M213.4,362.9h0.7v4.2l2.4-2.2h0.9l-2.6,2.4l2.7,3h-0.9l-2.6-2.9v2.9h-0.7V362.9z"/>
</g>
<g class="st83">
	<path class="st84" d="M221.4,367.6c0-1.5,1.1-2.8,2.8-2.8c1.7,0,2.9,1.3,2.9,2.8s-1.1,2.8-2.9,2.8
		C222.5,370.4,221.4,369.1,221.4,367.6L221.4,367.6z M222.1,367.6c0,1.2,0.9,2.1,2.1,2.1c1.2,0,2.1-0.9,2.1-2.1s-0.9-2.1-2.1-2.1
		C223.1,365.4,222.1,366.4,222.1,367.6L222.1,367.6z"/>
	<path class="st84" d="M233.2,370.3h-0.7v-1c-0.3,0.7-1,1.1-2,1.1c-1.7,0-2.3-1.2-2.3-2.5v-3h0.7v2.9c0,1.2,0.5,1.9,1.7,1.9
		c1.1,0,1.8-0.7,1.8-1.8v-3h0.7V370.3z"/>
</g>
<g class="st83">
	<path class="st84" d="M235.4,365.5h-1.1v-0.6h1.1v-2h0.7v2h1.2v0.6h-1.2v4.8h-0.7V365.5z"/>
</g>
</svg>
