<?xml version="1.0" encoding="utf-8"?>
<!-- Generator: Adobe Illustrator 23.1.1, SVG Export Plug-In . SVG Version: 6.00 Build 0)  -->
<svg version="1.1" id="Layer_1" xmlns="http://www.w3.org/2000/svg" xmlns:xlink="http://www.w3.org/1999/xlink" x="0px" y="0px"
	 viewBox="0 0 703 441" enable-background="new 0 0 703 441" xml:space="preserve">
<g>
	<path d="M109.057,84.714v-6.662h0.738v2.962h3.214v-2.962h0.748v6.662h-0.748v-3.043h-3.214v3.043H109.057z"/>
	<path d="M114.898,82.284c0-1.351,1.008-2.548,2.566-2.548c1.566,0,2.575,1.197,2.575,2.557s-1.008,2.548-2.575,2.548
		c-1.558,0-2.566-1.188-2.566-2.548V82.284z M115.555,82.302c0,1.098,0.837,1.926,1.909,1.926c1.08,0,1.908-0.828,1.908-1.936
		c0-1.107-0.828-1.936-1.908-1.936c-1.071,0-1.909,0.829-1.909,1.936V82.302z"/>
	<path d="M121.171,79.871h0.63v0.765c0.306-0.612,0.981-0.9,1.531-0.9c0.504,0,0.981,0.162,1.323,0.549
		c0.126,0.126,0.288,0.45,0.315,0.504c0.072-0.135,0.171-0.324,0.351-0.513c0.315-0.333,0.792-0.54,1.333-0.54
		c0.495,0,0.972,0.144,1.305,0.486c0.423,0.423,0.549,0.945,0.549,1.8v2.692h-0.666V82.05c0-0.513-0.081-0.973-0.36-1.288
		c-0.198-0.252-0.504-0.405-0.963-0.405c-0.423,0-0.837,0.171-1.062,0.504c-0.243,0.342-0.288,0.612-0.288,1.161v2.692h-0.667
		v-2.692c0.018-0.54-0.063-0.855-0.252-1.152c-0.225-0.315-0.567-0.504-1.062-0.513c-0.45-0.018-0.828,0.207-1.026,0.495
		c-0.207,0.279-0.324,0.648-0.324,1.162v2.701h-0.667V79.871z"/>
	<path d="M130.198,82.481c0.036,1.216,1.071,1.801,1.891,1.792c0.747,0,1.35-0.369,1.666-1h0.693
		c-0.225,0.522-0.567,0.918-0.981,1.179c-0.405,0.261-0.882,0.396-1.377,0.396c-1.684,0-2.557-1.342-2.557-2.548
		c0-1.422,1.098-2.566,2.547-2.566c0.685,0,1.314,0.243,1.774,0.684c0.558,0.541,0.828,1.288,0.756,2.062H130.198z M133.952,81.951
		c-0.045-0.846-0.864-1.675-1.863-1.647c-1.044,0-1.819,0.765-1.882,1.647H133.952z"/>
</g>
<path d="M177.114,93.173H66.2V69.596h110.914V93.173z M66.95,92.423h109.414V70.346H66.95V92.423z"/>
<g>
	<path d="M53.834,421.036h-1.639v-0.657h4.033v0.657h-1.647v6.005h-0.747V421.036z"/>
	<path d="M55.93,422.197h0.702l1.333,3.988l1.161-3.556h0.549l1.17,3.556l1.323-3.988h0.693l-1.675,4.844H60.53l-1.143-3.529
		l-1.125,3.529h-0.648L55.93,422.197z"/>
	<path d="M63.716,420.379h0.666v0.928h-0.666V420.379z M63.716,422.197h0.666v4.844h-0.666V422.197z"/>
	<path d="M66.19,422.729h-0.954v-0.531h0.954v-1.818h0.657v1.818h1.062v0.531h-1.062v4.312H66.19V422.729z"/>
	<path d="M69.151,422.729h-0.954v-0.531h0.954v-1.818h0.657v1.818h1.062v0.531h-1.062v4.312h-0.657V422.729z"/>
	<path d="M71.761,424.809c0.036,1.215,1.071,1.801,1.891,1.791c0.747,0,1.35-0.369,1.666-0.999h0.693
		c-0.225,0.522-0.567,0.918-0.981,1.18c-0.405,0.261-0.882,0.396-1.377,0.396c-1.684,0-2.557-1.341-2.557-2.548
		c0-1.422,1.098-2.565,2.547-2.565c0.685,0,1.314,0.243,1.774,0.685c0.558,0.54,0.828,1.287,0.756,2.062H71.761z M75.515,424.277
		c-0.045-0.847-0.864-1.675-1.863-1.647c-1.044,0-1.819,0.765-1.882,1.647H75.515z"/>
	<path d="M77.251,422.197h0.63v0.793c0.351-0.721,0.981-0.91,1.548-0.928v0.657h-0.063c-0.936,0-1.458,0.585-1.458,1.684v2.638
		h-0.657V422.197z"/>
</g>
<path d="M121.273,435.5H10.359v-23.577h110.914V435.5z M11.109,434.75h109.414v-22.077H11.109V434.75z"/>
<g>
	<path d="M590.427,129.754v-6.662h0.738v2.962h3.214v-2.962h0.747v6.662h-0.747v-3.043h-3.214v3.043H590.427z"/>
	<path d="M596.269,127.324c0-1.351,1.008-2.548,2.565-2.548c1.566,0,2.574,1.197,2.574,2.557s-1.008,2.548-2.574,2.548
		c-1.558,0-2.565-1.188-2.565-2.548V127.324z M596.926,127.342c0,1.098,0.837,1.926,1.908,1.926c1.08,0,1.908-0.828,1.908-1.936
		c0-1.107-0.828-1.936-1.908-1.936c-1.071,0-1.908,0.829-1.908,1.936V127.342z"/>
	<path d="M602.541,124.911h0.63v0.765c0.306-0.612,0.981-0.9,1.53-0.9c0.504,0,0.981,0.162,1.323,0.549
		c0.126,0.126,0.288,0.45,0.315,0.504c0.072-0.135,0.171-0.324,0.352-0.513c0.314-0.333,0.792-0.54,1.332-0.54
		c0.495,0,0.973,0.144,1.306,0.486c0.423,0.423,0.549,0.945,0.549,1.8v2.692h-0.666v-2.665c0-0.513-0.081-0.973-0.36-1.288
		c-0.198-0.252-0.504-0.405-0.963-0.405c-0.424,0-0.838,0.171-1.062,0.504c-0.243,0.342-0.288,0.612-0.288,1.161v2.692h-0.666
		v-2.692c0.018-0.54-0.063-0.855-0.252-1.152c-0.226-0.315-0.567-0.504-1.062-0.513c-0.45-0.018-0.828,0.207-1.026,0.495
		c-0.207,0.279-0.324,0.648-0.324,1.162v2.701h-0.666V124.911z"/>
	<path d="M611.577,127.521c0.036,1.216,1.071,1.801,1.891,1.792c0.747,0,1.351-0.369,1.665-1h0.693
		c-0.225,0.522-0.567,0.918-0.981,1.179c-0.404,0.261-0.882,0.396-1.377,0.396c-1.684,0-2.557-1.342-2.557-2.548
		c0-1.422,1.098-2.566,2.548-2.566c0.684,0,1.314,0.243,1.773,0.684c0.558,0.541,0.828,1.288,0.756,2.062H611.577z M615.331,126.991
		c-0.045-0.846-0.864-1.675-1.863-1.647c-1.044,0-1.818,0.765-1.882,1.647H615.331z"/>
</g>
<path d="M652.68,138.213h-99.307v-23.577h99.307V138.213z M554.123,137.463h97.807v-22.077h-97.807V137.463z"/>
<g>
	<path d="M577.629,221.104h1.737c1.044,0,1.53,0.126,1.872,0.342c0.541,0.324,0.909,1.036,0.909,1.792
		c0.01,0.45-0.116,0.927-0.396,1.306c-0.396,0.54-0.873,0.666-1.485,0.729l1.656,2.494h-0.811l-1.881-2.908h0.216
		c0.468,0,1.116-0.009,1.477-0.342c0.351-0.342,0.504-0.747,0.504-1.225c0-0.495-0.243-1.017-0.657-1.287
		c-0.333-0.216-0.747-0.243-1.351-0.243h-1.044v6.005h-0.747V221.104z"/>
	<path d="M583.389,225.533c0.036,1.215,1.071,1.801,1.891,1.791c0.747,0,1.351-0.369,1.665-0.999h0.693
		c-0.225,0.522-0.567,0.918-0.981,1.18c-0.404,0.261-0.882,0.396-1.377,0.396c-1.684,0-2.557-1.341-2.557-2.548
		c0-1.422,1.098-2.565,2.548-2.565c0.684,0,1.314,0.243,1.773,0.685c0.558,0.54,0.828,1.287,0.756,2.062H583.389z M587.143,225.002
		c-0.045-0.847-0.864-1.675-1.863-1.647c-1.044,0-1.818,0.765-1.882,1.647H587.143z"/>
	<path d="M591.058,224.138c0-0.514-0.343-0.802-0.828-0.802c-0.531,0-0.855,0.36-0.838,0.783c0.019,0.46,0.369,0.648,0.954,0.819
		c0.693,0.189,1.468,0.388,1.504,1.423c0.036,0.892-0.685,1.539-1.603,1.539c-0.783,0-1.647-0.495-1.656-1.512h0.657
		c0.026,0.666,0.521,0.963,1.008,0.963c0.559,0,0.945-0.414,0.937-0.909c-0.018-0.55-0.378-0.774-1.216-1.018
		c-0.692-0.207-1.233-0.486-1.251-1.251c0-0.873,0.693-1.387,1.513-1.387c0.675,0,1.432,0.369,1.477,1.351H591.058z"/>
	<path d="M593.36,225.533c0.036,1.215,1.071,1.801,1.891,1.791c0.747,0,1.351-0.369,1.665-0.999h0.693
		c-0.225,0.522-0.567,0.918-0.981,1.18c-0.404,0.261-0.882,0.396-1.377,0.396c-1.684,0-2.557-1.341-2.557-2.548
		c0-1.422,1.098-2.565,2.548-2.565c0.684,0,1.314,0.243,1.773,0.685c0.558,0.54,0.828,1.287,0.756,2.062H593.36z M597.114,225.002
		c-0.045-0.847-0.864-1.675-1.863-1.647c-1.044,0-1.818,0.765-1.882,1.647H597.114z"/>
	<path d="M598.851,222.922h0.63v0.793c0.352-0.721,0.981-0.91,1.549-0.928v0.657h-0.063c-0.937,0-1.458,0.585-1.458,1.684v2.638
		h-0.657V222.922z"/>
	<path d="M604.062,227.766h-0.693l-1.908-4.844h0.702l1.558,4.024l1.548-4.024h0.702L604.062,227.766z"/>
	<path d="M611.47,227.766h-0.666v-0.999c-0.378,0.729-1.116,1.134-1.98,1.134c-1.576,0-2.512-1.224-2.512-2.557
		c0-1.422,1.035-2.557,2.512-2.557c1.035,0,1.746,0.604,1.98,1.152v-1.018h0.666V227.766z M606.969,225.353
		c0.009,0.874,0.611,1.927,1.944,1.927c0.855,0,1.485-0.495,1.746-1.179c0.108-0.234,0.162-0.505,0.162-0.766
		c0.009-0.271-0.045-0.54-0.153-0.774c-0.27-0.666-0.918-1.161-1.773-1.161c-1.116,0-1.926,0.864-1.926,1.944V225.353z"/>
	<path d="M613.277,223.453h-0.954v-0.531h0.954v-1.818h0.657v1.818h1.062v0.531h-1.062v4.312h-0.657V223.453z"/>
	<path d="M615.852,221.104h0.666v0.928h-0.666V221.104z M615.852,222.922h0.666v4.844h-0.666V222.922z"/>
	<path d="M617.651,225.335c0-1.351,1.008-2.548,2.565-2.548c1.566,0,2.574,1.197,2.574,2.557s-1.008,2.548-2.574,2.548
		c-1.558,0-2.565-1.188-2.565-2.548V225.335z M618.309,225.353c0,1.099,0.837,1.927,1.908,1.927c1.08,0,1.908-0.828,1.908-1.936
		s-0.828-1.936-1.908-1.936c-1.071,0-1.908,0.828-1.908,1.936V225.353z"/>
	<path d="M623.924,222.922h0.63c0,0.271,0,0.54-0.009,0.864c0.279-0.63,0.937-1.017,1.801-0.999
		c1.503,0.018,2.034,1.044,2.034,2.224v2.755h-0.657v-2.62c0-1.044-0.468-1.755-1.558-1.737c-0.999,0.009-1.575,0.612-1.575,1.621
		v2.736h-0.666V222.922z"/>
</g>
<path d="M652.68,236.224h-99.307v-23.576h99.307V236.224z M554.123,235.474h97.807v-22.076h-97.807V235.474z"/>
<g>
	<path d="M590.822,194.595v-6.662h1.045l2.467,5.591l2.457-5.591h1.045v6.662h-0.702l0.018-5.924l-2.584,5.924h-0.477l-2.593-5.924
		l0.018,5.924H590.822z"/>
	<path d="M599.579,192.362c0.036,1.215,1.071,1.8,1.891,1.791c0.747,0,1.351-0.369,1.665-0.999h0.693
		c-0.225,0.522-0.567,0.918-0.981,1.18c-0.404,0.261-0.882,0.396-1.377,0.396c-1.684,0-2.557-1.341-2.557-2.548
		c0-1.422,1.098-2.565,2.548-2.565c0.684,0,1.314,0.243,1.773,0.685c0.558,0.54,0.828,1.287,0.756,2.062H599.579z M603.333,191.831
		c-0.045-0.847-0.864-1.675-1.863-1.647c-1.044,0-1.818,0.765-1.882,1.647H603.333z"/>
	<path d="M605.069,189.751h0.63c0,0.271,0,0.54-0.009,0.864c0.279-0.63,0.937-1.017,1.801-0.999
		c1.503,0.018,2.034,1.044,2.034,2.224v2.755h-0.657v-2.62c0-1.044-0.468-1.755-1.558-1.737c-0.999,0.009-1.575,0.612-1.575,1.62
		v2.737h-0.666V189.751z"/>
	<path d="M615.259,194.595h-0.63v-0.864c-0.271,0.63-0.928,1.008-1.792,0.999c-1.513-0.026-2.043-1.053-2.043-2.232v-2.746h0.657
		v2.62c0,1.044,0.468,1.746,1.557,1.737c1.009-0.009,1.585-0.612,1.585-1.62v-2.737h0.666V194.595z"/>
</g>
<path d="M652.68,203.054h-99.307v-23.577h99.307V203.054z M554.123,202.304h97.807v-22.077h-97.807V202.304z"/>
<g>
	<path d="M588.755,287.672c-0.207-0.288-0.459-0.531-0.747-0.72c-0.433-0.298-0.955-0.469-1.549-0.469
		c-1.458,0-2.728,1.116-2.728,2.782c0,1.692,1.278,2.809,2.736,2.809c0.702,0,1.323-0.243,1.782-0.604
		c0.469-0.369,0.793-0.873,0.9-1.395h-3.312v-0.612h4.177c-0.009,0.387-0.099,0.873-0.297,1.287c-0.576,1.251-1.908,1.98-3.25,1.98
		c-1.944,0-3.483-1.494-3.483-3.466c0-1.999,1.566-3.439,3.492-3.439c1.351,0,2.603,0.757,3.124,1.846H588.755z"/>
	<path d="M591.084,285.943h0.666v0.928h-0.666V285.943z M591.084,287.762h0.666v4.844h-0.666V287.762z"/>
	<path d="M593.298,288.293h-0.712v-0.531h0.712v-0.396c0-1.495,1.179-1.54,1.701-1.54v0.531c-0.333,0.019-1.044,0.019-1.044,1.071
		v0.333h1.044v0.531h-1.044v4.312h-0.657V288.293z"/>
	<path d="M596.205,288.293h-0.954v-0.531h0.954v-1.818h0.657v1.818h1.062v0.531h-1.062v4.312h-0.657V288.293z"/>
	<path d="M607.754,290.813c-0.433,1.026-1.594,1.909-3.062,1.909c-1.972,0-3.475-1.521-3.475-3.448c0-1.899,1.467-3.448,3.466-3.448
		c1.647,0,2.683,1.099,3.07,1.945h-0.802c-0.225-0.396-0.981-1.288-2.269-1.288c-1.558,0-2.728,1.233-2.728,2.782
		c0,1.575,1.179,2.8,2.728,2.8c1.396,0,2.106-0.999,2.269-1.252H607.754z"/>
	<path d="M613.702,292.605h-0.666v-0.999c-0.378,0.729-1.116,1.134-1.98,1.134c-1.576,0-2.512-1.224-2.512-2.557
		c0-1.422,1.035-2.557,2.512-2.557c1.035,0,1.746,0.604,1.98,1.152v-1.018h0.666V292.605z M609.201,290.192
		c0.009,0.874,0.611,1.927,1.944,1.927c0.855,0,1.485-0.495,1.746-1.179c0.108-0.234,0.162-0.505,0.162-0.766
		c0.009-0.271-0.045-0.54-0.153-0.774c-0.27-0.666-0.918-1.161-1.773-1.161c-1.116,0-1.926,0.864-1.926,1.944V290.192z"/>
	<path d="M615.132,287.762h0.63v0.793c0.352-0.721,0.981-0.91,1.549-0.928v0.657h-0.063c-0.937,0-1.458,0.585-1.458,1.684v2.638
		h-0.657V287.762z"/>
	<path d="M622.729,292.605h-0.639v-0.999c-0.342,0.639-0.99,1.134-1.999,1.134c-1.548,0-2.502-1.206-2.502-2.565
		c0-1.44,1.044-2.548,2.493-2.548c1.062,0,1.765,0.612,1.98,1.116v-1.026v-1.773h0.666V292.605z M618.246,290.184
		c0.009,0.973,0.684,1.936,1.944,1.936c0.54,0,1.035-0.216,1.377-0.567c0.352-0.359,0.559-0.854,0.54-1.396
		c0-0.549-0.207-1.017-0.558-1.359c-0.343-0.351-0.828-0.558-1.368-0.558c-1.117,0-1.936,0.846-1.936,1.936V290.184z"/>
</g>
<path d="M652.68,301.064h-99.307v-23.577h99.307V301.064z M554.123,300.314h97.807v-22.077h-97.807V300.314z"/>
<g>
	<path d="M583.775,162.175h-0.801l2.781-6.662h0.721l2.755,6.662h-0.811l-0.774-1.873h-3.105L583.775,162.175z M586.089,156.35
		l-1.323,3.34h2.656L586.089,156.35z"/>
	<path d="M590.085,155.513h0.666v1.819v0.972c0.405-0.684,1.134-1.099,1.972-1.107c1.377,0,2.493,1.035,2.493,2.548
		c0,1.458-1.044,2.566-2.512,2.566c-0.909,0-1.62-0.441-1.98-1.135v1h-0.639V155.513z M594.55,159.744
		c0-1.107-0.837-1.936-1.917-1.936c-1.116,0-1.918,0.864-1.918,1.936c0,1.053,0.766,1.944,1.891,1.944
		c1.287,0,1.944-0.999,1.944-1.936V159.744z"/>
	<path d="M596.043,159.744c0-1.351,1.008-2.548,2.565-2.548c1.566,0,2.574,1.197,2.574,2.557s-1.008,2.548-2.574,2.548
		c-1.558,0-2.565-1.188-2.565-2.548V159.744z M596.699,159.762c0,1.098,0.838,1.926,1.909,1.926c1.08,0,1.908-0.828,1.908-1.936
		s-0.828-1.936-1.908-1.936c-1.071,0-1.909,0.828-1.909,1.936V159.762z"/>
	<path d="M606.771,162.175h-0.63v-0.864c-0.271,0.63-0.928,1.008-1.792,1c-1.513-0.027-2.043-1.054-2.043-2.233v-2.746h0.656v2.62
		c0,1.044,0.469,1.747,1.558,1.737c1.009-0.009,1.585-0.612,1.585-1.62v-2.737h0.666V162.175z"/>
	<path d="M608.579,157.862h-0.954v-0.531h0.954v-1.819h0.657v1.819h1.062v0.531h-1.062v4.312h-0.657V157.862z"/>
	<path d="M614.628,155.513v4.222c0,0.504,0,0.892,0.315,1.342c0.233,0.333,0.675,0.558,1.161,0.558c0.477,0,0.918-0.216,1.144-0.549
		c0.314-0.441,0.314-0.828,0.314-1.351v-4.222h0.738v4.222c0.009,0.774-0.09,1.54-0.756,2.053c-0.369,0.315-0.864,0.504-1.44,0.504
		c-0.469,0-1.054-0.135-1.468-0.504c-0.702-0.567-0.756-1.323-0.756-2.053v-4.222H614.628z"/>
	<path d="M621.918,158.547c0-0.513-0.343-0.801-0.828-0.801c-0.531,0-0.855,0.36-0.838,0.783c0.019,0.459,0.369,0.648,0.954,0.819
		c0.693,0.189,1.468,0.387,1.504,1.422c0.036,0.891-0.685,1.54-1.603,1.54c-0.783,0-1.647-0.496-1.656-1.513h0.657
		c0.026,0.666,0.521,0.963,1.008,0.963c0.559,0,0.945-0.414,0.937-0.909c-0.018-0.549-0.378-0.774-1.216-1.018
		c-0.692-0.207-1.233-0.486-1.251-1.251c0-0.873,0.693-1.386,1.513-1.386c0.675,0,1.432,0.369,1.477,1.351H621.918z"/>
</g>
<path d="M652.68,170.633h-99.307v-23.577h99.307V170.633z M554.123,169.883h97.807v-22.077h-97.807V169.883z"/>
<g>
	<path d="M569.61,253.523c0.937,0,1.378,0.108,1.792,0.423c0.441,0.343,0.711,0.964,0.711,1.585c0,0.63-0.279,1.27-0.684,1.584
		c-0.441,0.343-0.892,0.45-1.756,0.45h-1.071v2.62h-0.747v-6.662H569.61z M568.603,256.908h1.062c0.558,0,0.899-0.062,1.233-0.278
		c0.288-0.189,0.495-0.612,0.495-1.081c0-0.477-0.207-0.9-0.505-1.089c-0.333-0.216-0.675-0.279-1.242-0.279h-1.044V256.908z"/>
	<path d="M573.003,255.342h0.63v0.793c0.352-0.721,0.981-0.91,1.549-0.928v0.657h-0.063c-0.937,0-1.458,0.585-1.458,1.684v2.638
		h-0.657V255.342z"/>
	<path d="M576.036,253.523h0.666v0.928h-0.666V253.523z M576.036,255.342h0.666v4.844h-0.666V255.342z"/>
	<path d="M580.158,260.186h-0.693l-1.908-4.844h0.702l1.558,4.024l1.548-4.024h0.702L580.158,260.186z"/>
	<path d="M587.575,260.186h-0.666v-0.999c-0.378,0.729-1.116,1.134-1.98,1.134c-1.576,0-2.512-1.224-2.512-2.557
		c0-1.422,1.035-2.557,2.512-2.557c1.035,0,1.746,0.604,1.98,1.152v-1.018h0.666V260.186z M583.074,257.772
		c0.009,0.874,0.611,1.927,1.944,1.927c0.855,0,1.485-0.495,1.746-1.179c0.108-0.234,0.162-0.505,0.162-0.766
		c0.009-0.271-0.045-0.54-0.153-0.774c-0.27-0.666-0.918-1.161-1.773-1.161c-1.116,0-1.926,0.864-1.926,1.944V257.772z"/>
	<path d="M589.383,255.873h-0.954v-0.531h0.954v-1.818h0.657v1.818h1.062v0.531h-1.062v4.312h-0.657V255.873z"/>
	<path d="M591.993,257.953c0.036,1.215,1.071,1.801,1.891,1.791c0.747,0,1.351-0.369,1.665-0.999h0.693
		c-0.225,0.522-0.567,0.918-0.981,1.18c-0.404,0.261-0.882,0.396-1.377,0.396c-1.684,0-2.557-1.341-2.557-2.548
		c0-1.422,1.098-2.565,2.548-2.565c0.684,0,1.314,0.243,1.773,0.685c0.558,0.54,0.828,1.287,0.756,2.062H591.993z M595.747,257.422
		c-0.045-0.847-0.864-1.675-1.863-1.647c-1.044,0-1.818,0.765-1.882,1.647H595.747z"/>
	<path d="M606.449,258.394c-0.433,1.026-1.594,1.909-3.062,1.909c-1.972,0-3.475-1.521-3.475-3.448c0-1.899,1.467-3.448,3.466-3.448
		c1.647,0,2.683,1.099,3.07,1.945h-0.802c-0.225-0.396-0.981-1.288-2.269-1.288c-1.558,0-2.728,1.233-2.728,2.782
		c0,1.575,1.179,2.8,2.728,2.8c1.396,0,2.106-0.999,2.269-1.252H606.449z"/>
	<path d="M612.406,260.186h-0.666v-0.999c-0.379,0.729-1.116,1.134-1.98,1.134c-1.576,0-2.512-1.224-2.512-2.557
		c0-1.422,1.035-2.557,2.512-2.557c1.035,0,1.746,0.604,1.98,1.152v-1.018h0.666V260.186z M607.904,257.772
		c0.01,0.874,0.612,1.927,1.945,1.927c0.855,0,1.485-0.495,1.746-1.179c0.108-0.234,0.162-0.505,0.162-0.766
		c0.009-0.271-0.045-0.54-0.153-0.774c-0.27-0.666-0.918-1.161-1.773-1.161c-1.116,0-1.927,0.864-1.927,1.944V257.772z"/>
	<path d="M614.214,255.873h-0.954v-0.531h0.954v-1.818h0.657v1.818h1.062v0.531h-1.062v4.312h-0.657V255.873z"/>
	<path d="M616.832,257.953c0.036,1.215,1.071,1.801,1.891,1.791c0.747,0,1.351-0.369,1.665-0.999h0.693
		c-0.225,0.522-0.567,0.918-0.981,1.18c-0.404,0.261-0.882,0.396-1.377,0.396c-1.684,0-2.557-1.341-2.557-2.548
		c0-1.422,1.098-2.565,2.548-2.565c0.684,0,1.314,0.243,1.773,0.685c0.558,0.54,0.828,1.287,0.756,2.062H616.832z M620.586,257.422
		c-0.045-0.847-0.864-1.675-1.863-1.647c-1.044,0-1.818,0.765-1.882,1.647H620.586z"/>
	<path d="M622.322,255.342h0.63v0.793c0.352-0.721,0.981-0.91,1.549-0.928v0.657h-0.063c-0.937,0-1.458,0.585-1.458,1.684v2.638
		h-0.657V255.342z"/>
	<path d="M625.355,253.523h0.666v0.928h-0.666V253.523z M625.355,255.342h0.666v4.844h-0.666V255.342z"/>
	<path d="M627.452,255.342h0.63c0,0.271,0,0.54-0.009,0.864c0.279-0.63,0.937-1.017,1.801-0.999
		c1.503,0.018,2.034,1.044,2.034,2.224v2.755h-0.657v-2.62c0-1.044-0.468-1.755-1.558-1.737c-0.999,0.009-1.575,0.612-1.575,1.621
		v2.736h-0.666V255.342z"/>
	<path d="M638.172,259.627c0,0.919-0.297,1.504-0.72,1.909c-0.478,0.468-1.18,0.747-1.837,0.747c-1.206,0-2.088-0.693-2.395-1.566
		h0.766c0.117,0.207,0.288,0.441,0.576,0.639c0.351,0.253,0.765,0.352,1.071,0.352c0.927,0,1.872-0.721,1.872-1.927v-0.621
		c-0.342,0.685-1.017,1.161-1.953,1.161c-1.513,0-2.53-1.152-2.53-2.548c0-1.449,1.054-2.565,2.53-2.565
		c0.954,0,1.692,0.54,1.962,1.135v-1h0.657V259.627z M633.689,257.764c0,0.981,0.692,1.936,1.944,1.936
		c0.549,0,1.017-0.207,1.359-0.558c0.333-0.352,0.531-0.838,0.54-1.369c0-0.404-0.135-0.882-0.441-1.269
		c-0.297-0.388-0.783-0.676-1.477-0.676c-1.062,0-1.926,0.792-1.926,1.927V257.764z"/>
</g>
<path d="M652.68,268.644h-99.307v-23.576h99.307V268.644z M554.123,267.894h97.807v-22.076h-97.807V267.894z"/>
<g>
	<path d="M329.975,78.052h1.738c1.044,0,1.53,0.126,1.873,0.342c0.54,0.324,0.909,1.035,0.909,1.792
		c0.009,0.45-0.117,0.927-0.396,1.305c-0.396,0.541-0.874,0.667-1.486,0.729l1.657,2.494h-0.81l-1.882-2.908h0.216
		c0.468,0,1.116-0.009,1.476-0.342c0.352-0.342,0.504-0.747,0.504-1.224c0-0.495-0.243-1.018-0.657-1.288
		c-0.333-0.216-0.747-0.243-1.351-0.243h-1.044v6.005h-0.748V78.052z"/>
	<path d="M335.735,82.481c0.036,1.216,1.071,1.801,1.891,1.792c0.747,0,1.35-0.369,1.666-1h0.693
		c-0.225,0.522-0.567,0.918-0.981,1.179c-0.405,0.261-0.882,0.396-1.377,0.396c-1.684,0-2.557-1.342-2.557-2.548
		c0-1.422,1.098-2.566,2.547-2.566c0.685,0,1.314,0.243,1.774,0.684c0.558,0.541,0.828,1.288,0.756,2.062H335.735z M339.489,81.951
		c-0.045-0.846-0.864-1.675-1.863-1.647c-1.044,0-1.819,0.765-1.882,1.647H339.489z"/>
	<path d="M343.403,81.086c0-0.513-0.342-0.801-0.828-0.801c-0.531,0-0.855,0.36-0.837,0.783c0.018,0.459,0.369,0.648,0.955,0.819
		c0.693,0.189,1.467,0.387,1.503,1.422c0.036,0.891-0.684,1.54-1.603,1.54c-0.783,0-1.647-0.495-1.656-1.513h0.657
		c0.027,0.666,0.522,0.963,1.008,0.963c0.559,0,0.945-0.414,0.937-0.909c-0.018-0.549-0.378-0.774-1.215-1.018
		c-0.693-0.207-1.233-0.486-1.251-1.251c0-0.873,0.693-1.386,1.513-1.386c0.675,0,1.431,0.369,1.476,1.351H343.403z"/>
	<path d="M345.698,82.481c0.036,1.216,1.071,1.801,1.89,1.792c0.748,0,1.351-0.369,1.666-1h0.693
		c-0.226,0.522-0.567,0.918-0.981,1.179c-0.405,0.261-0.883,0.396-1.378,0.396c-1.683,0-2.556-1.342-2.556-2.548
		c0-1.422,1.098-2.566,2.547-2.566c0.685,0,1.314,0.243,1.773,0.684c0.559,0.541,0.828,1.288,0.757,2.062H345.698z M349.452,81.951
		c-0.045-0.846-0.864-1.675-1.864-1.647c-1.044,0-1.818,0.765-1.881,1.647H349.452z"/>
	<path d="M351.188,79.871h0.63v0.792c0.352-0.72,0.981-0.909,1.549-0.927v0.657h-0.063c-0.937,0-1.458,0.585-1.458,1.684v2.638
		h-0.657V79.871z"/>
	<path d="M356.399,84.714h-0.693l-1.908-4.843h0.702l1.558,4.024l1.548-4.024h0.702L356.399,84.714z"/>
	<path d="M363.815,84.714h-0.666v-1c-0.378,0.729-1.116,1.135-1.98,1.135c-1.576,0-2.512-1.225-2.512-2.557
		c0-1.422,1.035-2.557,2.512-2.557c1.035,0,1.746,0.603,1.98,1.152v-1.017h0.666V84.714z M359.314,82.302
		c0.009,0.873,0.611,1.926,1.944,1.926c0.855,0,1.485-0.495,1.746-1.179c0.108-0.234,0.162-0.504,0.162-0.765
		c0.009-0.27-0.045-0.54-0.153-0.774c-0.27-0.666-0.918-1.161-1.773-1.161c-1.116,0-1.926,0.864-1.926,1.944V82.302z"/>
	<path d="M365.623,80.402h-0.954v-0.531h0.954v-1.819h0.657v1.819h1.062v0.531h-1.062v4.312h-0.657V80.402z"/>
	<path d="M368.206,78.052h0.666v0.927h-0.666V78.052z M368.206,79.871h0.666v4.843h-0.666V79.871z"/>
	<path d="M370.007,82.284c0-1.351,1.008-2.548,2.565-2.548c1.566,0,2.574,1.197,2.574,2.557s-1.008,2.548-2.574,2.548
		c-1.558,0-2.565-1.188-2.565-2.548V82.284z M370.664,82.302c0,1.098,0.837,1.926,1.908,1.926c1.08,0,1.908-0.828,1.908-1.936
		c0-1.107-0.828-1.936-1.908-1.936c-1.071,0-1.908,0.829-1.908,1.936V82.302z"/>
	<path d="M376.279,79.871h0.63c0,0.27,0,0.54-0.009,0.864c0.279-0.63,0.937-1.018,1.801-1c1.503,0.018,2.034,1.044,2.034,2.224
		v2.755h-0.657v-2.62c0-1.044-0.468-1.756-1.558-1.738c-0.999,0.009-1.575,0.612-1.575,1.621v2.737h-0.666V79.871z"/>
</g>
<path d="M410.829,93.173H299.915V69.596h110.914V93.173z M300.665,92.423h109.414V70.346H300.665V92.423z"/>
<g>
	<path d="M237.276,420.379h3.385v0.657h-2.647v2.341h2.629v0.666h-2.629v2.998h-0.738V420.379z"/>
	<path d="M246.458,427.041h-0.667v-0.999c-0.378,0.729-1.116,1.134-1.98,1.134c-1.575,0-2.512-1.224-2.512-2.557
		c0-1.422,1.035-2.557,2.512-2.557c1.035,0,1.747,0.604,1.98,1.152v-1.018h0.667V427.041z M241.956,424.628
		c0.009,0.874,0.612,1.927,1.944,1.927c0.855,0,1.486-0.495,1.747-1.179c0.108-0.234,0.162-0.505,0.162-0.766
		c0.009-0.271-0.045-0.54-0.153-0.774c-0.27-0.666-0.918-1.161-1.773-1.161c-1.117,0-1.927,0.864-1.927,1.944V424.628z"/>
	<path d="M252.604,425.402c-0.315,1.026-1.261,1.773-2.422,1.773c-1.639,0-2.602-1.26-2.602-2.557c0-1.432,1.089-2.557,2.557-2.557
		c1.089,0,2.134,0.648,2.467,1.81h-0.685c-0.306-0.819-1.071-1.197-1.755-1.197c-0.567,0-0.963,0.171-1.368,0.549
		c-0.324,0.315-0.549,0.838-0.549,1.396c0,1.144,0.864,1.936,1.909,1.936c0.927-0.009,1.548-0.567,1.755-1.152H252.604z"/>
	<path d="M253.989,424.809c0.036,1.215,1.071,1.801,1.891,1.791c0.747,0,1.35-0.369,1.666-0.999h0.693
		c-0.225,0.522-0.567,0.918-0.981,1.18c-0.405,0.261-0.882,0.396-1.377,0.396c-1.684,0-2.557-1.341-2.557-2.548
		c0-1.422,1.098-2.565,2.547-2.565c0.685,0,1.314,0.243,1.774,0.685c0.558,0.54,0.828,1.287,0.756,2.062H253.989z M257.743,424.277
		c-0.045-0.847-0.864-1.675-1.863-1.647c-1.044,0-1.819,0.765-1.882,1.647H257.743z"/>
	<path d="M259.479,420.379h0.667v1.818v0.973c0.405-0.685,1.134-1.099,1.972-1.107c1.377,0,2.494,1.035,2.494,2.548
		c0,1.458-1.044,2.565-2.512,2.565c-0.909,0-1.621-0.44-1.98-1.134v0.999h-0.64V420.379z M263.944,424.61
		c0-1.107-0.837-1.936-1.918-1.936c-1.116,0-1.917,0.864-1.917,1.936c0,1.054,0.765,1.944,1.891,1.944
		c1.288,0,1.945-0.999,1.945-1.936V424.61z"/>
	<path d="M265.428,424.61c0-1.351,1.008-2.548,2.566-2.548c1.566,0,2.575,1.197,2.575,2.557s-1.008,2.548-2.575,2.548
		c-1.558,0-2.566-1.188-2.566-2.548V424.61z M266.085,424.628c0,1.099,0.837,1.927,1.909,1.927c1.08,0,1.909-0.828,1.909-1.936
		s-0.829-1.936-1.909-1.936c-1.071,0-1.909,0.828-1.909,1.936V424.628z"/>
	<path d="M271.403,424.61c0-1.351,1.008-2.548,2.566-2.548c1.566,0,2.575,1.197,2.575,2.557s-1.008,2.548-2.575,2.548
		c-1.558,0-2.566-1.188-2.566-2.548V424.61z M272.061,424.628c0,1.099,0.837,1.927,1.909,1.927c1.08,0,1.909-0.828,1.909-1.936
		s-0.829-1.936-1.909-1.936c-1.071,0-1.909,0.828-1.909,1.936V424.628z"/>
	<path d="M277.694,420.379h0.667v3.809l2.179-1.99h0.819l-2.332,2.125l2.44,2.719h-0.783l-2.323-2.575v2.575h-0.667V420.379z"/>
</g>
<path d="M314.567,435.5H203.653v-23.577h110.914V435.5z M204.403,434.75h109.414v-22.077H204.403V434.75z"/>
<g>
	<path d="M428.844,419.835h0.738v6.662h-0.738V419.835z"/>
	<path d="M431.04,421.653h0.63c0,0.271,0,0.54-0.009,0.864c0.279-0.63,0.937-1.017,1.801-0.999c1.503,0.018,2.034,1.044,2.034,2.224
		v2.755h-0.657v-2.62c0-1.044-0.468-1.755-1.558-1.737c-0.999,0.009-1.575,0.612-1.575,1.62v2.737h-0.666V421.653z"/>
	<path d="M439.096,422.869c0-0.514-0.343-0.802-0.828-0.802c-0.531,0-0.855,0.36-0.838,0.783c0.019,0.46,0.369,0.648,0.954,0.819
		c0.693,0.189,1.468,0.388,1.504,1.423c0.036,0.892-0.685,1.539-1.603,1.539c-0.783,0-1.647-0.495-1.656-1.512h0.657
		c0.026,0.666,0.521,0.963,1.008,0.963c0.559,0,0.945-0.414,0.937-0.909c-0.018-0.549-0.378-0.774-1.216-1.018
		c-0.692-0.207-1.233-0.486-1.251-1.251c0-0.874,0.693-1.387,1.513-1.387c0.675,0,1.432,0.369,1.477,1.351H439.096z"/>
	<path d="M441.471,422.185h-0.954v-0.531h0.954v-1.818h0.657v1.818h1.062v0.531h-1.062v4.312h-0.657V422.185z"/>
	<path d="M448.646,426.497h-0.666v-0.999c-0.378,0.729-1.116,1.134-1.98,1.134c-1.576,0-2.512-1.224-2.512-2.557
		c0-1.422,1.035-2.557,2.512-2.557c1.035,0,1.746,0.604,1.98,1.152v-1.018h0.666V426.497z M444.145,424.084
		c0.009,0.874,0.611,1.927,1.944,1.927c0.855,0,1.485-0.495,1.746-1.179c0.108-0.234,0.162-0.505,0.162-0.766
		c0.009-0.271-0.045-0.54-0.153-0.774c-0.27-0.666-0.918-1.161-1.773-1.161c-1.116,0-1.926,0.864-1.926,1.944V424.084z"/>
	<path d="M454.918,425.938c0,0.919-0.297,1.504-0.72,1.909c-0.478,0.468-1.18,0.747-1.837,0.747c-1.206,0-2.088-0.693-2.395-1.566
		h0.766c0.117,0.207,0.288,0.441,0.576,0.639c0.351,0.253,0.765,0.352,1.071,0.352c0.927,0,1.872-0.721,1.872-1.927v-0.621
		c-0.342,0.685-1.017,1.161-1.953,1.161c-1.513,0-2.53-1.152-2.53-2.548c0-1.449,1.054-2.565,2.53-2.565
		c0.954,0,1.692,0.54,1.962,1.135v-1h0.657V425.938z M450.436,424.075c0,0.981,0.692,1.936,1.944,1.936
		c0.549,0,1.017-0.207,1.359-0.558c0.333-0.352,0.531-0.838,0.54-1.369c0-0.404-0.135-0.882-0.441-1.269
		c-0.297-0.388-0.783-0.676-1.477-0.676c-1.062,0-1.926,0.792-1.926,1.927V424.075z"/>
	<path d="M456.33,421.653h0.63v0.793c0.352-0.721,0.981-0.91,1.549-0.928v0.657h-0.063c-0.937,0-1.458,0.585-1.458,1.684v2.638
		h-0.657V421.653z"/>
	<path d="M463.855,426.497h-0.666v-0.999c-0.379,0.729-1.116,1.134-1.98,1.134c-1.576,0-2.512-1.224-2.512-2.557
		c0-1.422,1.035-2.557,2.512-2.557c1.035,0,1.746,0.604,1.98,1.152v-1.018h0.666V426.497z M459.354,424.084
		c0.01,0.874,0.612,1.927,1.945,1.927c0.855,0,1.485-0.495,1.746-1.179c0.108-0.234,0.162-0.505,0.162-0.766
		c0.009-0.271-0.045-0.54-0.153-0.774c-0.27-0.666-0.918-1.161-1.773-1.161c-1.116,0-1.927,0.864-1.927,1.944V424.084z"/>
	<path d="M465.284,421.653h0.63v0.766c0.307-0.612,0.981-0.9,1.53-0.9c0.505,0,0.981,0.162,1.323,0.549
		c0.126,0.126,0.288,0.45,0.315,0.505c0.072-0.136,0.171-0.324,0.352-0.514c0.314-0.333,0.792-0.54,1.332-0.54
		c0.495,0,0.973,0.145,1.306,0.486c0.423,0.423,0.549,0.945,0.549,1.801v2.691h-0.666v-2.665c0-0.513-0.081-0.972-0.36-1.287
		c-0.198-0.252-0.504-0.405-0.963-0.405c-0.424,0-0.838,0.171-1.062,0.504c-0.243,0.343-0.288,0.612-0.288,1.162v2.691h-0.666
		v-2.691c0.018-0.541-0.063-0.855-0.252-1.152c-0.226-0.315-0.567-0.505-1.062-0.514c-0.45-0.018-0.828,0.207-1.026,0.495
		c-0.207,0.279-0.324,0.648-0.324,1.161v2.701h-0.666V421.653z"/>
</g>
<path d="M506.171,434.956H395.257v-23.577h110.914V434.956z M396.007,434.206h109.414v-22.077H396.007V434.206z"/>
<g>
	<path d="M548.408,84.714v-6.662h0.738v2.962h3.214v-2.962h0.747v6.662h-0.747v-3.043h-3.214v3.043H548.408z"/>
	<path d="M559.408,84.714h-0.666v-1c-0.379,0.729-1.116,1.135-1.98,1.135c-1.576,0-2.512-1.225-2.512-2.557
		c0-1.422,1.035-2.557,2.512-2.557c1.035,0,1.746,0.603,1.98,1.152v-1.017h0.666V84.714z M554.906,82.302
		c0.01,0.873,0.612,1.926,1.945,1.926c0.855,0,1.485-0.495,1.746-1.179c0.108-0.234,0.162-0.504,0.162-0.765
		c0.009-0.27-0.045-0.54-0.153-0.774c-0.27-0.666-0.918-1.161-1.773-1.161c-1.116,0-1.927,0.864-1.927,1.944V82.302z"/>
	<path d="M560.838,79.871h0.63v0.765c0.306-0.612,0.981-0.9,1.53-0.9c0.504,0,0.981,0.162,1.323,0.549
		c0.126,0.126,0.288,0.45,0.315,0.504c0.072-0.135,0.171-0.324,0.352-0.513c0.314-0.333,0.792-0.54,1.332-0.54
		c0.495,0,0.973,0.144,1.306,0.486c0.423,0.423,0.549,0.945,0.549,1.8v2.692h-0.666V82.05c0-0.513-0.081-0.973-0.36-1.288
		c-0.198-0.252-0.504-0.405-0.963-0.405c-0.424,0-0.838,0.171-1.062,0.504c-0.243,0.342-0.288,0.612-0.288,1.161v2.692h-0.666
		v-2.692c0.018-0.54-0.063-0.855-0.252-1.152c-0.226-0.315-0.567-0.504-1.062-0.513c-0.45-0.018-0.828,0.207-1.026,0.495
		c-0.207,0.279-0.324,0.648-0.324,1.162v2.701h-0.666V79.871z"/>
	<path d="M574.419,84.156c0,0.918-0.297,1.503-0.72,1.909c-0.478,0.468-1.18,0.747-1.837,0.747c-1.206,0-2.088-0.693-2.395-1.566
		h0.766c0.117,0.207,0.288,0.441,0.576,0.639c0.351,0.252,0.765,0.351,1.071,0.351c0.927,0,1.872-0.72,1.872-1.927v-0.621
		c-0.342,0.684-1.017,1.162-1.953,1.162c-1.513,0-2.53-1.152-2.53-2.548c0-1.45,1.054-2.566,2.53-2.566
		c0.954,0,1.692,0.54,1.962,1.134v-0.999h0.657V84.156z M569.936,82.292c0,0.981,0.693,1.936,1.945,1.936
		c0.549,0,1.017-0.207,1.359-0.558c0.333-0.351,0.531-0.837,0.54-1.368c0-0.405-0.135-0.882-0.441-1.27
		c-0.297-0.387-0.783-0.675-1.477-0.675c-1.062,0-1.927,0.792-1.927,1.927V82.292z"/>
	<path d="M575.831,78.052h0.666v1.819v0.972c0.405-0.684,1.134-1.098,1.972-1.107c1.377,0,2.493,1.035,2.493,2.548
		c0,1.458-1.044,2.566-2.512,2.566c-0.909,0-1.62-0.441-1.98-1.135v1h-0.639V78.052z M580.296,82.284
		c0-1.107-0.837-1.936-1.917-1.936c-1.116,0-1.918,0.864-1.918,1.936c0,1.053,0.766,1.944,1.891,1.944
		c1.287,0,1.944-0.999,1.944-1.936V82.284z"/>
	<path d="M586.542,84.714h-0.63V83.85c-0.271,0.63-0.928,1.008-1.792,1c-1.513-0.027-2.043-1.054-2.043-2.233v-2.746h0.657v2.62
		c0,1.044,0.468,1.747,1.557,1.737c1.009-0.009,1.585-0.612,1.585-1.62v-2.737h0.666V84.714z"/>
	<path d="M587.973,79.871h0.63v0.792c0.352-0.72,0.981-0.909,1.549-0.927v0.657h-0.063c-0.937,0-1.458,0.585-1.458,1.684v2.638
		h-0.657V79.871z"/>
	<path d="M595.605,84.156c0,0.918-0.297,1.503-0.72,1.909c-0.478,0.468-1.18,0.747-1.837,0.747c-1.206,0-2.088-0.693-2.395-1.566
		h0.766c0.117,0.207,0.288,0.441,0.576,0.639c0.351,0.252,0.765,0.351,1.071,0.351c0.927,0,1.872-0.72,1.872-1.927v-0.621
		c-0.342,0.684-1.017,1.162-1.953,1.162c-1.513,0-2.53-1.152-2.53-2.548c0-1.45,1.054-2.566,2.53-2.566
		c0.954,0,1.692,0.54,1.962,1.134v-0.999h0.657V84.156z M591.123,82.292c0,0.981,0.692,1.936,1.944,1.936
		c0.549,0,1.017-0.207,1.359-0.558c0.333-0.351,0.531-0.837,0.54-1.368c0-0.405-0.135-0.882-0.441-1.27
		c-0.297-0.387-0.783-0.675-1.477-0.675c-1.062,0-1.926,0.792-1.926,1.927V82.292z"/>
	<path d="M597.314,82.481c0.036,1.216,1.071,1.801,1.891,1.792c0.747,0,1.351-0.369,1.665-1h0.693
		c-0.225,0.522-0.567,0.918-0.981,1.179c-0.404,0.261-0.882,0.396-1.377,0.396c-1.684,0-2.557-1.342-2.557-2.548
		c0-1.422,1.098-2.566,2.548-2.566c0.684,0,1.314,0.243,1.773,0.684c0.558,0.541,0.828,1.288,0.756,2.062H597.314z M601.068,81.951
		c-0.045-0.846-0.864-1.675-1.863-1.647c-1.044,0-1.818,0.765-1.882,1.647H601.068z"/>
	<path d="M602.804,79.871h0.63v0.792c0.352-0.72,0.981-0.909,1.549-0.927v0.657h-0.063c-0.937,0-1.458,0.585-1.458,1.684v2.638
		h-0.657V79.871z"/>
	<path d="M608.572,84.714v-6.662h1.045l2.467,5.591l2.457-5.591h1.045v6.662h-0.702l0.018-5.924l-2.584,5.924h-0.477l-2.593-5.924
		l0.018,5.924H608.572z"/>
	<path d="M617.33,82.481c0.036,1.216,1.071,1.801,1.891,1.792c0.747,0,1.351-0.369,1.665-1h0.693
		c-0.225,0.522-0.567,0.918-0.981,1.179c-0.404,0.261-0.882,0.396-1.377,0.396c-1.684,0-2.557-1.342-2.557-2.548
		c0-1.422,1.098-2.566,2.548-2.566c0.684,0,1.314,0.243,1.773,0.684c0.558,0.541,0.828,1.288,0.756,2.062H617.33z M621.084,81.951
		c-0.045-0.846-0.864-1.675-1.863-1.647c-1.044,0-1.818,0.765-1.882,1.647H621.084z"/>
	<path d="M622.82,79.871h0.63c0,0.27,0,0.54-0.009,0.864c0.279-0.63,0.937-1.018,1.801-1c1.503,0.018,2.034,1.044,2.034,2.224v2.755
		h-0.657v-2.62c0-1.044-0.468-1.756-1.558-1.738c-0.999,0.009-1.575,0.612-1.575,1.621v2.737h-0.666V79.871z"/>
	<path d="M633.009,84.714h-0.63V83.85c-0.271,0.63-0.928,1.008-1.792,1c-1.513-0.027-2.043-1.054-2.043-2.233v-2.746h0.657v2.62
		c0,1.044,0.468,1.747,1.557,1.737c1.009-0.009,1.585-0.612,1.585-1.62v-2.737h0.666V84.714z"/>
</g>
<path d="M646.165,93.173H535.251V69.596h110.914V93.173z M536.001,92.423h109.414V70.346H536.001V92.423z"/>
<g>
	<path d="M640.382,425.249c-0.433,1.026-1.594,1.909-3.062,1.909c-1.972,0-3.475-1.521-3.475-3.448c0-1.899,1.467-3.448,3.466-3.448
		c1.647,0,2.683,1.099,3.07,1.945h-0.802c-0.225-0.396-0.981-1.288-2.269-1.288c-1.558,0-2.728,1.233-2.728,2.782
		c0,1.575,1.179,2.8,2.728,2.8c1.396,0,2.106-0.999,2.269-1.252H640.382z"/>
	<path d="M646.33,427.041h-0.666v-0.999c-0.379,0.729-1.116,1.134-1.98,1.134c-1.576,0-2.512-1.224-2.512-2.557
		c0-1.422,1.035-2.557,2.512-2.557c1.035,0,1.746,0.604,1.98,1.152v-1.018h0.666V427.041z M641.828,424.628
		c0.01,0.874,0.612,1.927,1.945,1.927c0.855,0,1.485-0.495,1.746-1.179c0.108-0.234,0.162-0.505,0.162-0.766
		c0.009-0.271-0.045-0.54-0.153-0.774c-0.27-0.666-0.918-1.161-1.773-1.161c-1.116,0-1.927,0.864-1.927,1.944V424.628z"/>
	<path d="M647.76,420.379h0.666v6.662h-0.666V420.379z"/>
	<path d="M649.839,420.379h0.666v6.662h-0.666V420.379z"/>
</g>
<path d="M697.78,435.5H586.866v-23.577H697.78V435.5z M587.616,434.75H697.03v-22.077H587.616V434.75z"/>
<g>
	<path d="M339.214,18.976v-6.662h0.738v2.962h3.214v-2.962h0.748v6.662h-0.748v-3.043h-3.214v3.043H339.214z"/>
	<path d="M345.649,16.743c0.036,1.216,1.071,1.801,1.89,1.792c0.748,0,1.351-0.369,1.666-1h0.693
		c-0.226,0.522-0.567,0.918-0.981,1.179c-0.405,0.261-0.883,0.396-1.378,0.396c-1.683,0-2.556-1.342-2.556-2.548
		c0-1.422,1.098-2.566,2.547-2.566c0.685,0,1.314,0.243,1.773,0.684c0.559,0.541,0.828,1.288,0.757,2.062H345.649z M349.403,16.212
		c-0.045-0.846-0.864-1.675-1.864-1.647c-1.044,0-1.818,0.765-1.881,1.647H349.403z"/>
	<path d="M356.001,18.976h-0.666v-1c-0.378,0.729-1.116,1.135-1.98,1.135c-1.576,0-2.512-1.225-2.512-2.557
		c0-1.422,1.035-2.557,2.512-2.557c1.035,0,1.746,0.603,1.98,1.152v-1.017h0.666V18.976z M351.5,16.563
		c0.009,0.873,0.611,1.926,1.944,1.926c0.855,0,1.485-0.495,1.746-1.179c0.108-0.234,0.162-0.504,0.162-0.765
		c0.009-0.27-0.045-0.54-0.153-0.774c-0.27-0.666-0.918-1.161-1.773-1.161c-1.116,0-1.926,0.864-1.926,1.944V16.563z"/>
	<path d="M362.272,18.976h-0.639v-1c-0.342,0.64-0.99,1.135-1.999,1.135c-1.548,0-2.502-1.207-2.502-2.566
		c0-1.44,1.044-2.548,2.493-2.548c1.062,0,1.765,0.612,1.98,1.116v-1.026v-1.773h0.666V18.976z M357.789,16.554
		c0.01,0.973,0.685,1.936,1.945,1.936c0.54,0,1.035-0.216,1.377-0.567c0.352-0.36,0.559-0.855,0.54-1.396
		c0-0.549-0.207-1.017-0.558-1.359c-0.343-0.351-0.828-0.558-1.368-0.558c-1.117,0-1.937,0.846-1.937,1.936V16.554z"/>
	<path d="M364.018,16.743c0.036,1.216,1.071,1.801,1.891,1.792c0.747,0,1.351-0.369,1.665-1h0.693
		c-0.225,0.522-0.567,0.918-0.981,1.179c-0.404,0.261-0.882,0.396-1.377,0.396c-1.684,0-2.557-1.342-2.557-2.548
		c0-1.422,1.098-2.566,2.548-2.566c0.684,0,1.314,0.243,1.773,0.684c0.558,0.541,0.828,1.288,0.756,2.062H364.018z M367.771,16.212
		c-0.045-0.846-0.864-1.675-1.863-1.647c-1.044,0-1.818,0.765-1.882,1.647H367.771z"/>
	<path d="M369.508,14.133h0.63v0.792c0.352-0.72,0.981-0.909,1.549-0.927v0.657h-0.063c-0.937,0-1.458,0.585-1.458,1.684v2.638
		h-0.657V14.133z"/>
</g>
<path d="M410.614,27.435H299.7V3.858h110.914V27.435z M300.45,26.685h109.414V4.608H300.45V26.685z"/>
<g>
	<path d="M341.53,351.616h3.385v0.657h-2.647v2.341h2.629v0.666h-2.629v2.998h-0.738V351.616z"/>
	<path d="M345.553,355.848c0-1.351,1.008-2.548,2.565-2.548c1.566,0,2.575,1.197,2.575,2.557s-1.009,2.548-2.575,2.548
		c-1.557,0-2.565-1.188-2.565-2.548V355.848z M346.21,355.865c0,1.099,0.837,1.927,1.908,1.927c1.081,0,1.909-0.828,1.909-1.936
		s-0.828-1.936-1.909-1.936c-1.071,0-1.908,0.828-1.908,1.936V355.865z"/>
	<path d="M351.529,355.848c0-1.351,1.008-2.548,2.565-2.548c1.566,0,2.574,1.197,2.574,2.557s-1.008,2.548-2.574,2.548
		c-1.558,0-2.565-1.188-2.565-2.548V355.848z M352.186,355.865c0,1.099,0.838,1.927,1.909,1.927c1.08,0,1.908-0.828,1.908-1.936
		s-0.828-1.936-1.908-1.936c-1.071,0-1.909,0.828-1.909,1.936V355.865z"/>
	<path d="M358.18,353.966h-0.954v-0.531h0.954v-1.818h0.657v1.818h1.062v0.531h-1.062v4.312h-0.657V353.966z"/>
	<path d="M360.79,356.046c0.036,1.215,1.071,1.8,1.891,1.791c0.747,0,1.351-0.369,1.665-0.999h0.693
		c-0.225,0.522-0.567,0.918-0.981,1.18c-0.404,0.261-0.882,0.396-1.377,0.396c-1.684,0-2.557-1.341-2.557-2.548
		c0-1.422,1.098-2.565,2.548-2.565c0.684,0,1.314,0.243,1.773,0.685c0.558,0.54,0.828,1.287,0.756,2.062H360.79z M364.544,355.515
		c-0.045-0.847-0.864-1.675-1.863-1.647c-1.044,0-1.818,0.765-1.882,1.647H364.544z"/>
	<path d="M366.28,353.435h0.63v0.793c0.352-0.721,0.981-0.91,1.549-0.928v0.657h-0.063c-0.937,0-1.458,0.585-1.458,1.684v2.638
		h-0.657V353.435z"/>
</g>
<path d="M410.153,366.737H299.239V343.16h110.914V366.737z M299.989,365.987h109.414V343.91H299.989V365.987z"/>
<rect x="122.326" y="48.312" width="0.75" height="21.487"/>
<rect x="66.485" y="390.639" width="0.75" height="21.487"/>
<rect x="355.213" y="26.685" width="0.75" height="43.113"/>
<rect x="258.95" y="390.639" width="0.75" height="21.487"/>
<rect x="450.554" y="390.639" width="0.75" height="21.487"/>
<rect x="591.403" y="48.312" width="0.75" height="21.487"/>
<rect x="643.019" y="390.639" width="0.75" height="21.487"/>
<rect x="123.076" y="47.862" width="468.488" height="0.75"/>
<rect x="66.645" y="390.189" width="576.534" height="0.75"/>
<rect x="354.537" y="366.535" width="0.75" height="23.654"/>
<rect x="543.261" y="94.471" width="0.75" height="224.798"/>
<g>
	<defs>
		<rect id="SVGID_1_" x="-49" y="-127" width="792" height="612"/>
	</defs>
	<clipPath id="SVGID_2_">
		<use xlink:href="#SVGID_1_"  overflow="visible"/>
	</clipPath>
	<path clip-path="url(#SVGID_2_)" d="M543.635,95.971c0.828,0,1.5-0.672,1.5-1.5c0-0.828-0.672-1.5-1.5-1.5
		c-0.828,0-1.5,0.672-1.5,1.5C542.135,95.299,542.807,95.971,543.635,95.971"/>
</g>
<rect x="543.635" y="191.153" width="9.898" height="0.75"/>
<rect x="543.635" y="289.164" width="9.898" height="0.75"/>
<rect x="543.635" y="157.902" width="9.898" height="0.75"/>
<rect x="543.635" y="255.912" width="9.898" height="0.75"/>
<rect x="543.635" y="319.269" width="9.898" height="0.75"/>
<rect x="543.635" y="126.555" width="9.898" height="0.75"/>
<rect x="543.635" y="224.566" width="9.898" height="0.75"/>
<g>
	<path d="M594.524,321.749c-0.433,1.026-1.594,1.909-3.062,1.909c-1.972,0-3.475-1.521-3.475-3.448c0-1.899,1.467-3.448,3.466-3.448
		c1.647,0,2.683,1.099,3.07,1.945h-0.802c-0.225-0.396-0.981-1.288-2.269-1.288c-1.558,0-2.728,1.233-2.728,2.782
		c0,1.575,1.179,2.8,2.728,2.8c1.396,0,2.106-0.999,2.269-1.252H594.524z"/>
	<path d="M600.473,323.541h-0.666v-0.999c-0.379,0.729-1.116,1.134-1.98,1.134c-1.576,0-2.512-1.224-2.512-2.557
		c0-1.422,1.035-2.557,2.512-2.557c1.035,0,1.746,0.604,1.98,1.152v-1.018h0.666V323.541z M595.971,321.128
		c0.01,0.874,0.612,1.927,1.945,1.927c0.855,0,1.485-0.495,1.746-1.179c0.108-0.234,0.162-0.505,0.162-0.766
		c0.009-0.271-0.045-0.54-0.153-0.774c-0.27-0.666-0.918-1.161-1.773-1.161c-1.116,0-1.927,0.864-1.927,1.944V321.128z"/>
	<path d="M601.902,318.697h0.63v0.793c0.352-0.721,0.981-0.91,1.549-0.928v0.657h-0.063c-0.937,0-1.458,0.585-1.458,1.684v2.638
		h-0.657V318.697z"/>
	<path d="M604.899,321.309c0.036,1.215,1.071,1.801,1.891,1.791c0.747,0,1.351-0.369,1.665-0.999h0.693
		c-0.225,0.522-0.567,0.918-0.981,1.18c-0.404,0.261-0.882,0.396-1.377,0.396c-1.684,0-2.557-1.341-2.557-2.548
		c0-1.422,1.098-2.565,2.548-2.565c0.684,0,1.314,0.243,1.773,0.685c0.558,0.54,0.828,1.287,0.756,2.062H604.899z M608.653,320.777
		c-0.045-0.847-0.864-1.675-1.863-1.647c-1.044,0-1.818,0.765-1.882,1.647H608.653z"/>
	<path d="M610.686,321.309c0.036,1.215,1.071,1.801,1.891,1.791c0.747,0,1.351-0.369,1.665-0.999h0.693
		c-0.225,0.522-0.567,0.918-0.981,1.18c-0.404,0.261-0.882,0.396-1.377,0.396c-1.684,0-2.557-1.341-2.557-2.548
		c0-1.422,1.098-2.565,2.548-2.565c0.684,0,1.314,0.243,1.773,0.685c0.558,0.54,0.828,1.287,0.756,2.062H610.686z M614.439,320.777
		c-0.045-0.847-0.864-1.675-1.863-1.647c-1.044,0-1.818,0.765-1.882,1.647H614.439z"/>
	<path d="M616.176,318.697h0.63v0.793c0.352-0.721,0.981-0.91,1.549-0.928v0.657h-0.063c-0.937,0-1.458,0.585-1.458,1.684v2.638
		h-0.657V318.697z"/>
</g>
<path d="M652.68,332h-99.307v-23.577h99.307V332z M554.123,331.25h97.807v-22.077h-97.807V331.25z"/>
<g>
	<path d="M108.895,119.934h1.738c1.044,0,1.53,0.126,1.873,0.342c0.54,0.324,0.909,1.035,0.909,1.792
		c0.009,0.45-0.117,0.927-0.396,1.305c-0.396,0.541-0.874,0.667-1.485,0.729l1.656,2.494h-0.81l-1.882-2.908h0.216
		c0.468,0,1.116-0.009,1.476-0.342c0.351-0.342,0.504-0.747,0.504-1.224c0-0.496-0.243-1.018-0.657-1.288
		c-0.333-0.216-0.747-0.243-1.351-0.243h-1.044v6.005h-0.748V119.934z"/>
	<path d="M114.655,124.363c0.036,1.215,1.071,1.8,1.891,1.792c0.747,0,1.35-0.369,1.666-1h0.693
		c-0.225,0.522-0.567,0.918-0.981,1.179c-0.405,0.261-0.882,0.396-1.377,0.396c-1.684,0-2.557-1.342-2.557-2.548
		c0-1.422,1.098-2.566,2.547-2.566c0.685,0,1.314,0.243,1.774,0.684c0.558,0.541,0.828,1.288,0.756,2.062H114.655z M118.409,123.832
		c-0.045-0.846-0.864-1.675-1.863-1.647c-1.044,0-1.819,0.765-1.882,1.647H118.409z"/>
	<path d="M122.323,122.968c0-0.513-0.342-0.801-0.828-0.801c-0.531,0-0.855,0.36-0.837,0.783c0.018,0.459,0.369,0.648,0.955,0.819
		c0.693,0.189,1.467,0.387,1.503,1.422c0.036,0.891-0.684,1.54-1.603,1.54c-0.783,0-1.647-0.496-1.657-1.513h0.657
		c0.027,0.666,0.522,0.963,1.008,0.963c0.559,0,0.945-0.414,0.937-0.909c-0.018-0.549-0.378-0.774-1.215-1.018
		c-0.693-0.207-1.233-0.486-1.251-1.251c0-0.873,0.693-1.386,1.513-1.386c0.675,0,1.431,0.369,1.476,1.351H122.323z"/>
	<path d="M124.618,124.363c0.036,1.215,1.071,1.8,1.891,1.792c0.747,0,1.35-0.369,1.666-1h0.693
		c-0.225,0.522-0.567,0.918-0.981,1.179c-0.405,0.261-0.882,0.396-1.377,0.396c-1.684,0-2.557-1.342-2.557-2.548
		c0-1.422,1.098-2.566,2.547-2.566c0.685,0,1.314,0.243,1.774,0.684c0.558,0.541,0.828,1.288,0.756,2.062H124.618z M128.372,123.832
		c-0.045-0.846-0.864-1.675-1.863-1.647c-1.044,0-1.819,0.765-1.882,1.647H128.372z"/>
	<path d="M130.107,121.752h0.63v0.792c0.351-0.72,0.981-0.909,1.548-0.927v0.657h-0.063c-0.936,0-1.458,0.585-1.458,1.684v2.638
		h-0.657V121.752z"/>
	<path d="M135.319,126.596h-0.693l-1.908-4.843h0.702l1.557,4.024l1.549-4.024h0.702L135.319,126.596z"/>
	<path d="M142.728,126.596h-0.667v-1c-0.378,0.729-1.116,1.135-1.98,1.135c-1.575,0-2.512-1.225-2.512-2.557
		c0-1.422,1.035-2.557,2.512-2.557c1.035,0,1.747,0.603,1.98,1.152v-1.017h0.667V126.596z M138.226,124.183
		c0.009,0.873,0.612,1.926,1.945,1.926c0.855,0,1.485-0.495,1.746-1.179c0.108-0.234,0.162-0.504,0.162-0.765
		c0.009-0.27-0.045-0.54-0.153-0.774c-0.27-0.666-0.918-1.161-1.773-1.161c-1.117,0-1.927,0.864-1.927,1.944V124.183z"/>
	<path d="M144.535,122.283h-0.955v-0.531h0.955v-1.819h0.657v1.819h1.062v0.531h-1.062v4.312h-0.657V122.283z"/>
	<path d="M147.108,119.934h0.667v0.927h-0.667V119.934z M147.108,121.752h0.667v4.843h-0.667V121.752z"/>
	<path d="M148.908,124.165c0-1.351,1.008-2.548,2.566-2.548c1.566,0,2.575,1.197,2.575,2.557s-1.008,2.548-2.575,2.548
		c-1.558,0-2.566-1.188-2.566-2.548V124.165z M149.565,124.183c0,1.098,0.837,1.926,1.909,1.926c1.08,0,1.909-0.828,1.909-1.936
		s-0.829-1.936-1.909-1.936c-1.071,0-1.909,0.828-1.909,1.936V124.183z"/>
	<path d="M155.182,121.752h0.63c0,0.27,0,0.54-0.009,0.864c0.279-0.63,0.936-1.018,1.8-1c1.503,0.018,2.035,1.044,2.035,2.224v2.755
		h-0.657v-2.62c0-1.044-0.468-1.756-1.558-1.738c-0.999,0.009-1.575,0.612-1.575,1.621v2.737h-0.666V121.752z"/>
</g>
<path d="M183.948,135.054h-99.31v-23.577h99.31V135.054z M85.388,134.304h97.81v-22.077h-97.81V134.304z"/>
<g>
	<path d="M120.021,156.911c-0.208-0.288-0.459-0.531-0.748-0.72c-0.432-0.297-0.954-0.468-1.548-0.468
		c-1.458,0-2.728,1.116-2.728,2.782c0,1.692,1.279,2.809,2.737,2.809c0.702,0,1.324-0.243,1.783-0.603
		c0.468-0.369,0.792-0.874,0.9-1.396h-3.313v-0.612h4.177c-0.009,0.387-0.099,0.874-0.297,1.288c-0.576,1.251-1.908,1.98-3.25,1.98
		c-1.944,0-3.484-1.495-3.484-3.466c0-1.999,1.566-3.439,3.493-3.439c1.35,0,2.602,0.756,3.124,1.845H120.021z"/>
	<path d="M122.35,155.182h0.666v0.927h-0.666V155.182z M122.35,157.001h0.666v4.843h-0.666V157.001z"/>
	<path d="M124.563,157.532h-0.711v-0.531h0.711v-0.396c0-1.494,1.18-1.539,1.702-1.539v0.531c-0.333,0.018-1.044,0.018-1.044,1.071
		v0.333h1.044v0.531h-1.044v4.312h-0.657V157.532z"/>
	<path d="M127.471,157.532h-0.954v-0.531h0.954v-1.819h0.657v1.819h1.062v0.531h-1.062v4.312h-0.657V157.532z"/>
	<path d="M139.019,160.053c-0.432,1.026-1.593,1.909-3.061,1.909c-1.971,0-3.475-1.521-3.475-3.448c0-1.899,1.467-3.448,3.466-3.448
		c1.647,0,2.683,1.098,3.07,1.944h-0.801c-0.225-0.396-0.981-1.287-2.269-1.287c-1.558,0-2.728,1.233-2.728,2.782
		c0,1.575,1.18,2.8,2.728,2.8c1.396,0,2.106-1,2.269-1.251H139.019z"/>
	<path d="M144.968,161.844h-0.667v-1c-0.378,0.729-1.116,1.135-1.98,1.135c-1.575,0-2.512-1.225-2.512-2.557
		c0-1.422,1.035-2.557,2.512-2.557c1.035,0,1.747,0.603,1.98,1.152v-1.017h0.667V161.844z M140.466,159.432
		c0.009,0.873,0.612,1.926,1.945,1.926c0.855,0,1.485-0.495,1.746-1.179c0.108-0.234,0.162-0.504,0.162-0.765
		c0.009-0.27-0.045-0.54-0.153-0.774c-0.27-0.666-0.918-1.161-1.773-1.161c-1.117,0-1.927,0.864-1.927,1.944V159.432z"/>
	<path d="M146.397,157.001h0.63v0.792c0.351-0.72,0.981-0.909,1.548-0.927v0.657h-0.063c-0.936,0-1.458,0.585-1.458,1.684v2.638
		h-0.657V157.001z"/>
	<path d="M153.995,161.844h-0.639v-1c-0.342,0.64-0.99,1.135-1.999,1.135c-1.549,0-2.503-1.207-2.503-2.566
		c0-1.44,1.044-2.548,2.494-2.548c1.062,0,1.765,0.612,1.98,1.116v-1.026v-1.773h0.667V161.844z M149.511,159.422
		c0.009,0.973,0.684,1.936,1.945,1.936c0.54,0,1.035-0.216,1.377-0.567c0.352-0.36,0.559-0.855,0.541-1.396
		c0-0.549-0.207-1.017-0.558-1.359c-0.342-0.351-0.829-0.558-1.369-0.558c-1.116,0-1.936,0.846-1.936,1.936V159.422z"/>
</g>
<path d="M183.948,170.303h-99.31v-23.577h99.31V170.303z M85.388,169.553h97.81v-22.077h-97.81V169.553z"/>
<rect x="74.365" y="93.923" width="0.75" height="64.28"/>
<g>
	<defs>
		<rect id="SVGID_3_" x="-49" y="-127" width="792" height="612"/>
	</defs>
	<clipPath id="SVGID_4_">
		<use xlink:href="#SVGID_3_"  overflow="visible"/>
	</clipPath>
	<path clip-path="url(#SVGID_4_)" d="M74.74,95.423c0.828,0,1.5-0.672,1.5-1.5c0-0.828-0.672-1.5-1.5-1.5
		c-0.828,0-1.5,0.672-1.5,1.5C73.24,94.751,73.912,95.423,74.74,95.423"/>
</g>
<rect x="74.74" y="157.82" width="9.898" height="0.75"/>
<rect x="74.74" y="123.123" width="9.898" height="0.75"/>
</svg>
