<?xml version="1.0" encoding="UTF-8"?>
<svg width="60px" height="60px" viewBox="0 0 60 60" version="1.1" xmlns="http://www.w3.org/2000/svg" xmlns:xlink="http://www.w3.org/1999/xlink">
    <!-- Generator: Sketch 53.2 (72643) - https://sketchapp.com -->
    <title>Group</title>
    <desc>Created with Sketch.</desc>
    <g id="Page-1" stroke="none" stroke-width="1" fill="none" fill-rule="evenodd">
        <g id="Group" fill="#000000" fill-rule="nonzero">
            <path d="M29.125,18.6111111 C28.375,17.1527778 27.875,15.4166667 27.875,13.5416667 C27.875,11.8055556 28.3125,10.1388889 29,8.68055556 L14.625,8.68055556 C15.3125,10.1388889 15.75,11.7361111 15.75,13.5416667 C15.75,15.3472222 15.3125,17.1527778 14.5,18.6111111 L29.125,18.6111111 Z" id="Path"></path>
            <path d="M46.25,48.1944444 L20.4375,48.1944444 L12.875,20.9722222 C11.25,22.7083333 8.9375,23.8194444 6.5,23.8194444 C5.75,23.8194444 5,23.6805556 4.25,23.5416667 L11.1875,48.4027778 C6.875,48.75 3.4375,52.7083333 3.4375,57.5694444 C3.4375,58.6805556 4.25,59.5833333 5.25,59.5833333 L52.8125,59.5833333 C53.8125,59.5833333 54.625,58.6805556 54.625,57.5694444 C54.6875,52.4305556 50.875,48.1944444 46.25,48.1944444 Z" id="Path"></path>
            <ellipse id="Oval" cx="6.5" cy="13.5416667" rx="6.1875" ry="6.875"></ellipse>
            <path d="M55.375,17.9861111 L50.5,20.0694444 C49,20.6944444 47.25,20.4166667 46,19.3055556 L42.75,16.3888889 C43.125,15.4861111 43.3125,14.5833333 43.3125,13.5416667 C43.3125,12.7083333 43.125,11.875 42.875,11.1111111 L46,8.33333333 C47.25,7.22222222 49,6.875 50.5,7.56944444 L55.375,9.65277778 C57,10.3472222 58.875,9.44444444 59.5,7.63888889 C60.125,5.83333333 59.3125,3.75 57.6875,3.05555556 L52.8125,0.972222222 C49.125,-0.625 45,0.0694444444 42,2.77777778 L37.625,6.66666667 C37.4375,6.66666667 37.3125,6.59722222 37.125,6.59722222 C33.6875,6.59722222 30.9375,9.65277778 30.9375,13.4722222 C30.9375,17.2222222 33.6875,20.2777778 37.0625,20.3472222 L42,24.7916667 C44,26.5277778 46.4375,27.5 48.875,27.5 C50.1875,27.5 51.5,27.2222222 52.75,26.7361111 L57.625,24.6527778 C59.25,23.9583333 60.0625,21.9444444 59.4375,20.0694444 C58.875,18.1944444 57,17.2916667 55.375,17.9861111 Z" id="Path"></path>
        </g>
    </g>
</svg>