<?xml version="1.0" encoding="UTF-8"?>
<svg width="60px" height="60px" viewBox="0 0 60 60" version="1.1" xmlns="http://www.w3.org/2000/svg" xmlns:xlink="http://www.w3.org/1999/xlink">
    <!-- Generator: Sketch 53.2 (72643) - https://sketchapp.com -->
    <title>Group</title>
    <desc>Created with Sketch.</desc>
    <g id="Page-1" stroke="none" stroke-width="1" fill="none" fill-rule="evenodd">
        <g id="Group" fill="#000000" fill-rule="nonzero">
            <path d="M18.7103226,35.6109677 C19.1322581,36.2477419 19.3548387,36.9841935 19.3548387,37.7419355 C19.3548387,39.8767742 17.6187097,41.6129032 15.483871,41.6129032 C14.726129,41.6129032 13.9896774,41.3903226 13.3529032,40.9683871 L12.2845161,42.5825806 C13.2387097,43.2145161 14.3448387,43.5483871 15.483871,43.5483871 C18.686129,43.5483871 21.2903226,40.9441935 21.2903226,37.7419355 C21.2903226,36.6029032 20.9564516,35.4967742 20.3245161,34.5416129 L18.7103226,35.6109677 Z" id="Path"></path>
            <path d="M15.483871,33.8709677 C16.2416129,33.8709677 16.9790323,34.0935484 17.613871,34.5145161 L18.6832258,32.9012903 C17.73,32.2693548 16.623871,31.9354839 15.483871,31.9354839 C12.2816129,31.9354839 9.67741935,34.5396774 9.67741935,37.7419355 C9.67741935,38.8809677 10.0112903,39.9870968 10.6432258,40.9422581 L12.2574194,39.873871 C11.8354839,39.236129 11.6129032,38.4996774 11.6129032,37.7419355 C11.6129032,35.6070968 13.3490323,33.8709677 15.483871,33.8709677 Z" id="Path"></path>
            <polygon id="Path" points="34.8387097 40.6451613 34.8387097 46.4516129 38.7096774 46.4516129 38.7096774 44.516129 36.7741935 44.516129 36.7741935 40.6451613"></polygon>
            <path d="M35.8064516,34.8387097 C33.3570968,34.8387097 30.9648387,35.6922581 29.07,37.2425806 L30.2970968,38.7406452 C31.5948387,37.6780645 33.1809677,37.0219355 34.8387097,36.8351613 L34.8387097,38.7096774 L36.7741935,38.7096774 L36.7741935,36.8312903 C40.8048387,37.2793548 44.0109677,40.4864516 44.4590323,44.516129 L42.5806452,44.516129 L42.5806452,46.4516129 L44.4551613,46.4516129 C44.2683871,48.1103226 43.6122581,49.6954839 42.5496774,50.9941935 L44.0467742,52.2203226 C45.5970968,50.3254839 46.4516129,47.9332258 46.4516129,45.483871 C46.4516129,39.6145161 41.6758065,34.8387097 35.8064516,34.8387097 Z" id="Path"></path>
            <path d="M36.7741935,54.1325806 L36.7741935,52.2580645 L34.8387097,52.2580645 L34.8387097,54.1364516 C30.8080645,53.6883871 27.6019355,50.4812903 27.153871,46.4516129 L29.0322581,46.4516129 L29.0322581,44.516129 L27.1577419,44.516129 C27.3445161,42.8574194 28.0006452,41.2722581 29.0632258,39.9735484 L27.566129,38.7474194 C26.0158065,40.6422581 25.1612903,43.0345161 25.1612903,45.483871 C25.1612903,51.3532258 29.9370968,56.1290323 35.8064516,56.1290323 C38.2558065,56.1290323 40.6480645,55.2754839 42.5429032,53.7251613 L41.3158065,52.2270968 C40.0180645,53.2896774 38.4329032,53.9458065 36.7741935,54.1325806 Z" id="Path"></path>
            <path d="M54.1935484,44.516129 L52.2580645,44.516129 L52.2580645,17.4193548 L46.4516129,17.4193548 L46.4516129,35.6477419 C45.8603226,35.0080645 45.2129032,34.4235484 44.516129,33.8980645 L44.516129,22.2580645 L38.7096774,22.2580645 L38.7096774,31.26 C38.0796774,31.1312903 37.4303226,31.0596774 36.7741935,31.016129 L36.7741935,27.0967742 L30.9677419,27.0967742 L30.9677419,31.8145161 C29.9941935,32.16 29.0690323,32.606129 28.2029032,33.1412903 C28.0083871,32.6022581 27.7935484,32.0729032 27.5341935,31.5677419 L29.0641935,29.4251613 L23.8006452,24.1596774 L21.6570968,25.6906452 C21.0116129,25.3606452 20.3370968,25.0819355 19.6403226,24.8583871 L19.2077419,22.2580645 L11.7609677,22.2580645 L11.3283871,24.8583871 C10.6316129,25.0819355 9.95709677,25.3606452 9.3116129,25.6906452 L7.16806452,24.1596774 L1.90451613,29.4251613 L3.43451613,31.5677419 C3.10354839,32.2122581 2.82483871,32.8867742 2.60129032,33.5845161 L0,34.0190323 L0,41.4648387 L2.60032258,41.8983871 C2.82387097,42.596129 3.10354839,43.2706452 3.43354839,43.9151613 L1.90354839,46.0577419 L7.16709677,51.3232258 L9.31064516,49.7922581 C9.95612903,50.1222581 10.6306452,50.4009677 11.3274194,50.6245161 L11.76,53.2258065 L19.2067742,53.2258065 L19.6393548,50.6254839 C20.336129,50.4019355 21.0106452,50.1232258 21.656129,49.7932258 L22.0432258,50.07 C23.97,55.8309677 29.4058065,60 35.8064516,60 C43.4845161,60 49.7719355,54.0048387 50.2732258,46.4516129 L60,46.4516129 L60,9.67741935 L54.1935484,9.67741935 L54.1935484,44.516129 Z M48.3870968,19.3548387 L50.3225806,19.3548387 L50.3225806,44.516129 L50.2732258,44.516129 C50.1232258,42.2545161 49.4583871,40.1351613 48.3870968,38.2732258 L48.3870968,19.3548387 Z M40.6451613,24.1935484 L42.5806452,24.1935484 L42.5806452,32.6554839 C41.9622581,32.3274194 41.3129032,32.0525806 40.6451613,31.8154839 L40.6451613,24.1935484 Z M32.9032258,29.0322581 L34.8387097,29.0322581 L34.8387097,31.0170968 C34.1825806,31.0606452 33.5332258,31.1322581 32.9032258,31.2609677 L32.9032258,29.0322581 Z M21.2467742,47.8141935 C20.4009677,48.2990323 19.4883871,48.6764516 18.5312903,48.9358065 L17.9322581,49.0983871 L17.5664516,51.2903226 L13.4003226,51.2903226 L13.0345161,49.0983871 L12.4354839,48.9358065 C11.4793548,48.6764516 10.5658065,48.2990323 9.72,47.8141935 L9.18096774,47.5054839 L7.37612903,48.7954839 L4.42935484,45.8496774 L5.71935484,44.0429032 L5.41064516,43.503871 C4.92677419,42.66 4.5483871,41.7474194 4.28903226,40.7893548 L4.12741935,40.1903226 L1.93548387,39.8254839 L1.93548387,35.6583871 L4.12741935,35.2935484 L4.29,34.6945161 C4.55129032,33.7354839 4.92774194,32.8219355 5.4116129,31.98 L5.72032258,31.4409677 L4.43032258,29.6341935 L7.37709677,26.6883871 L9.18193548,27.9783871 L9.72096774,27.6696774 C10.5667742,27.1848387 11.4793548,26.8074194 12.4364516,26.5480645 L13.0354839,26.3854839 L13.4012903,24.1935484 L17.5674194,24.1935484 L17.9332258,26.3854839 L18.5322581,26.5480645 C19.4883871,26.8074194 20.4019355,27.1848387 21.2477419,27.6696774 L21.7867742,27.9783871 L23.5916129,26.6883871 L26.5383871,29.6341935 L25.2483871,31.4409677 L25.5570968,31.98 C25.9751613,32.7077419 26.2964516,33.4964516 26.5490323,34.3132258 C25.9829032,34.7835484 25.4632258,35.3051613 24.9745161,35.853871 C24.0929032,31.4187097 20.1735484,28.0645161 15.483871,28.0645161 C10.1477419,28.0645161 5.80645161,32.4058065 5.80645161,37.7419355 C5.80645161,43.0780645 10.1477419,47.4193548 15.483871,47.4193548 C17.5974194,47.4193548 19.6306452,46.7041935 21.2912903,45.4577419 C21.2912903,45.4664516 21.2903226,45.4751613 21.2903226,45.483871 C21.2903226,46.233871 21.3648387,46.9645161 21.4751613,47.6835484 L21.2467742,47.8141935 Z M23.2016129,38.3119355 C22.4729032,39.5883871 21.9270968,40.98 21.6116129,42.4596774 C20.1503226,44.3535484 17.8770968,45.483871 15.483871,45.483871 C11.2151613,45.483871 7.74193548,42.0106452 7.74193548,37.7419355 C7.74193548,33.4732258 11.2151613,30 15.483871,30 C19.7525806,30 23.2258065,33.4732258 23.2258065,37.7419355 C23.2258065,37.9345161 23.2151613,38.1232258 23.2016129,38.3119355 Z M35.8064516,58.0645161 C28.8696774,58.0645161 23.2258065,52.4206452 23.2258065,45.483871 C23.2258065,38.5470968 28.8696774,32.9032258 35.8064516,32.9032258 C42.7432258,32.9032258 48.3870968,38.5470968 48.3870968,45.483871 C48.3870968,52.4206452 42.7432258,58.0645161 35.8064516,58.0645161 Z M56.1290323,11.6129032 L58.0645161,11.6129032 L58.0645161,44.516129 L56.1290323,44.516129 L56.1290323,11.6129032 Z" id="Shape"></path>
            <path d="M54.1935484,0 L54.1935484,1.93548387 L56.2732258,1.93548387 L49.4264516,7.41290323 L46.4516129,4.43806452 L41.8887097,9.00096774 C41.5103226,8.81903226 41.0922581,8.70967742 40.6451613,8.70967742 C39.0445161,8.70967742 37.7419355,10.0122581 37.7419355,11.6129032 C37.7419355,12.1132258 37.8812903,12.5777419 38.1048387,12.9890323 L33.0464516,18.6096774 C32.703871,18.4674194 32.3293548,18.3870968 31.9354839,18.3870968 C31.9170968,18.3870968 31.9006452,18.3919355 31.8822581,18.3929032 L27.9909677,8.01483871 C28.6219355,7.48258065 29.0322581,6.69580645 29.0322581,5.80645161 C29.0322581,4.20580645 27.7296774,2.90322581 26.1290323,2.90322581 C24.5283871,2.90322581 23.2258065,4.20580645 23.2258065,5.80645161 C23.2258065,6.01548387 23.25,6.21870968 23.2925806,6.41612903 L15.3590323,11.2974194 C14.8616129,10.8958065 14.2364516,10.6451613 13.5483871,10.6451613 C12.2883871,10.6451613 11.223871,11.4570968 10.8232258,12.5806452 L5.6283871,12.5806452 C5.22774194,11.4570968 4.16322581,10.6451613 2.90322581,10.6451613 C1.30258065,10.6451613 0,11.9477419 0,13.5483871 C0,15.1490323 1.30258065,16.4516129 2.90322581,16.4516129 C4.16322581,16.4516129 5.22774194,15.6396774 5.6283871,14.516129 L10.8241935,14.516129 C11.2248387,15.6396774 12.2893548,16.4516129 13.5493548,16.4516129 C15.15,16.4516129 16.4525806,15.1490323 16.4525806,13.5483871 C16.4525806,13.3393548 16.4283871,13.136129 16.3858065,12.9387097 L24.3193548,8.05741935 C24.8158065,8.45903226 25.4409677,8.70967742 26.1290323,8.70967742 C26.1474194,8.70967742 26.163871,8.70483871 26.1822581,8.70387097 L30.0735484,19.0809677 C29.4425806,19.6141935 29.0322581,20.4009677 29.0322581,21.2903226 C29.0322581,22.8909677 30.3348387,24.1935484 31.9354839,24.1935484 C33.536129,24.1935484 34.8387097,22.8909677 34.8387097,21.2903226 C34.8387097,20.79 34.7003226,20.3254839 34.4758065,19.9141935 L39.5341935,14.2935484 C39.8767742,14.4358065 40.2512903,14.516129 40.6451613,14.516129 C42.2458065,14.516129 43.5483871,13.2135484 43.5483871,11.6129032 C43.5483871,11.1658065 43.4390323,10.7477419 43.2570968,10.3693548 L46.4516129,7.17483871 L49.2832258,10.0064516 L58.0645161,2.9816129 L58.0645161,5.80645161 L60,5.80645161 L60,0 L54.1935484,0 Z M2.90322581,14.516129 C2.36903226,14.516129 1.93548387,14.0816129 1.93548387,13.5483871 C1.93548387,13.0151613 2.36903226,12.5806452 2.90322581,12.5806452 C3.43741935,12.5806452 3.87096774,13.0151613 3.87096774,13.5483871 C3.87096774,14.0816129 3.43741935,14.516129 2.90322581,14.516129 Z M13.5483871,14.516129 C13.0141935,14.516129 12.5806452,14.0816129 12.5806452,13.5483871 C12.5806452,13.0151613 13.0141935,12.5806452 13.5483871,12.5806452 C14.0825806,12.5806452 14.516129,13.0151613 14.516129,13.5483871 C14.516129,14.0816129 14.0825806,14.516129 13.5483871,14.516129 Z M25.1612903,5.80645161 C25.1612903,5.27322581 25.5948387,4.83870968 26.1290323,4.83870968 C26.6632258,4.83870968 27.0967742,5.27322581 27.0967742,5.80645161 C27.0967742,6.33967742 26.6632258,6.77419355 26.1290323,6.77419355 C25.5948387,6.77419355 25.1612903,6.33967742 25.1612903,5.80645161 Z M31.9354839,22.2580645 C31.4012903,22.2580645 30.9677419,21.8235484 30.9677419,21.2903226 C30.9677419,20.7570968 31.4012903,20.3225806 31.9354839,20.3225806 C32.4696774,20.3225806 32.9032258,20.7570968 32.9032258,21.2903226 C32.9032258,21.8235484 32.4696774,22.2580645 31.9354839,22.2580645 Z M40.6451613,12.5806452 C40.1109677,12.5806452 39.6774194,12.146129 39.6774194,11.6129032 C39.6774194,11.0796774 40.1109677,10.6451613 40.6451613,10.6451613 C41.1793548,10.6451613 41.6129032,11.0796774 41.6129032,11.6129032 C41.6129032,12.146129 41.1793548,12.5806452 40.6451613,12.5806452 Z" id="Shape"></path>
        </g>
    </g>
</svg>