<?xml version="1.0" encoding="UTF-8"?>
<svg width="60px" height="60px" viewBox="0 0 60 60" version="1.1" xmlns="http://www.w3.org/2000/svg" xmlns:xlink="http://www.w3.org/1999/xlink">
    <!-- Generator: Sketch 53.2 (72643) - https://sketchapp.com -->
    <title>Group</title>
    <desc>Created with Sketch.</desc>
    <g id="Page-1" stroke="none" stroke-width="1" fill="none" fill-rule="evenodd">
        <g id="Group" fill="#000000" fill-rule="nonzero">
            <path d="M29.735104,45.2528688 C30.6662986,45.2528688 31.6275318,44.8749856 32.2883797,44.2091915 C32.9852737,43.5014104 33.3457362,42.6016886 33.3757747,41.6179928 C33.3877901,41.2760986 33.3217053,40.922208 33.225582,40.5863119 C33.0633739,40.0344825 32.7449654,39.476655 32.3364413,39.0687812 C31.9879943,38.7208888 31.603501,38.480963 31.1589307,38.2950205 C30.6963372,38.0970817 30.2637823,37.9831169 29.7411117,37.9831169 C29.4227032,37.9831169 29.0502253,38.0430984 28.7438323,38.1210743 C28.1971309,38.2650297 27.5963602,38.6189203 27.1938438,39.020796 C26.5269882,39.6865901 26.0704025,40.6582896 26.1064487,41.6119947 C26.1364872,42.5537035 26.4669112,43.4474271 27.127759,44.1312156 C27.8306607,44.8809838 28.7318169,45.1988855 29.735104,45.2528688 C30.4800597,45.2948558 31.3451696,44.8869819 31.8618324,44.3771396 C32.384503,43.855301 32.775004,43.0035644 32.7389577,42.2537962 C32.7029115,41.4800355 32.4505878,40.6762841 31.8618324,40.1304529 C31.255054,39.5786235 30.5641676,39.2967107 29.735104,39.2547237 C29.7110732,39.2547237 29.6870423,39.2547237 29.6630115,39.2487255 C29.9273506,39.2847144 30.1976975,39.3207033 30.4620366,39.3566921 C30.3899441,39.3446959 30.3358747,39.3326996 30.26979,39.3027088 C30.5100983,39.4046773 30.7504066,39.5066458 30.9847071,39.6026161 C30.9426532,39.5846217 30.9066069,39.5606291 30.8705607,39.5366365 C31.0748228,39.6925883 31.2730771,39.84854 31.4773392,40.0044918 C31.4232698,39.9625048 31.3812158,39.9205178 31.3391619,39.8665345 C31.4953623,40.0704714 31.6515627,40.2684102 31.8077631,40.4723471 C31.7837322,40.4363583 31.7597014,40.4003694 31.7416783,40.3583824 C31.8438093,40.5983082 31.9459403,40.838234 32.0420636,41.0721616 C32.0180328,41.006182 32.0000097,40.9462006 31.9879943,40.880221 C32.0240405,41.1441394 32.0600868,41.4140559 32.096133,41.6779743 C32.0901253,41.5880021 32.0901253,41.6299891 32.096133,41.540017 C32.0600868,41.8039353 32.0240405,42.0738519 31.9879943,42.3377703 C32.0000097,42.2657925 32.0120251,42.2118092 32.0420636,42.1458296 C31.9399326,42.3857554 31.8378016,42.6256812 31.7416783,42.8596089 C31.7597014,42.8176219 31.7837322,42.781633 31.8077631,42.7456441 C31.6515627,42.949581 31.4953623,43.1475198 31.3391619,43.3514568 C31.3812158,43.2974735 31.4232698,43.2554864 31.4773392,43.2134994 C31.2730771,43.3694512 31.0748228,43.525403 30.8705607,43.6813547 C30.9066069,43.6573622 30.9426532,43.6333696 30.9847071,43.6153752 C30.7443988,43.7173436 30.5040905,43.8193121 30.26979,43.9152824 C30.3358747,43.8912898 30.3959518,43.8732954 30.4620366,43.8612991 C30.1976975,43.897288 29.9273506,43.9332768 29.6630115,43.9692657 C29.7531271,43.9632676 29.7110732,43.9632676 29.8011888,43.9692657 C29.5368497,43.9332768 29.2665028,43.897288 29.0021637,43.8612991 C29.0742562,43.8732954 29.1283255,43.8852917 29.1944103,43.9152824 C28.954102,43.8133139 28.7137937,43.7113455 28.4794931,43.6153752 C28.5215471,43.6333696 28.5575933,43.6573622 28.5936396,43.6813547 C28.3893775,43.525403 28.1911232,43.3694512 27.9868611,43.2134994 C28.0409305,43.2554864 28.0829845,43.2974735 28.1250384,43.3514568 C27.968838,43.1475198 27.8126376,42.949581 27.6564372,42.7456441 C27.6804681,42.781633 27.7044989,42.8176219 27.722522,42.8596089 C27.620391,42.6196831 27.51826,42.3797573 27.4221366,42.1458296 C27.4461675,42.2118092 27.4641906,42.2717907 27.476206,42.3377703 C27.4401598,42.0738519 27.4041135,41.8039353 27.3680673,41.540017 C27.374075,41.6299891 27.374075,41.5880021 27.3680673,41.6779743 C27.4041135,41.4140559 27.4401598,41.1441394 27.476206,40.880221 C27.4641906,40.9521987 27.4521752,41.006182 27.4221366,41.0721616 C27.5242677,40.8322358 27.6263987,40.59231 27.722522,40.3583824 C27.7044989,40.4003694 27.6804681,40.4363583 27.6564372,40.4723471 C27.8126376,40.2684102 27.968838,40.0704714 28.1250384,39.8665345 C28.0829845,39.9205178 28.0409305,39.9625048 27.9868611,40.0044918 C28.1911232,39.84854 28.3893775,39.6925883 28.5936396,39.5366365 C28.5575933,39.5606291 28.5215471,39.5846217 28.4794931,39.6026161 C28.7198014,39.5006476 28.9601097,39.3986792 29.1944103,39.3027088 C29.1283255,39.3267014 29.0682485,39.3446959 29.0021637,39.3566921 C29.2665028,39.3207033 29.5368497,39.2847144 29.8011888,39.2487255 C29.7771579,39.2487255 29.7531271,39.2547237 29.7290963,39.2547237 C28.9601097,39.2547237 28.1490692,39.5906198 27.6023679,40.1304529 C27.0796973,40.6522915 26.6891963,41.5040281 26.7252426,42.2537962 C26.7612888,43.0275569 27.0136125,43.8313084 27.6023679,44.3771396 C28.1971309,44.9109745 28.9240635,45.2528688 29.735104,45.2528688 Z" id="Path"></path>
            <path d="M27.0135474,16.9634754 C27.0135474,18.7802702 27.0135474,20.5970651 27.0135474,22.4077221 C27.0135474,25.3047734 27.0135474,28.2018247 27.0135474,31.0927381 C27.0135474,31.7617605 27.0135474,32.430783 27.0135474,33.0936676 C27.0135474,33.8793086 27.3444565,34.7079144 27.8762747,35.266456 C28.3903656,35.8004464 29.2294565,36.1994047 29.9680929,36.1625778 C30.7303656,36.1257509 31.5221838,35.8679624 32.0599111,35.266456 C32.5917292,34.6649496 32.9226383,33.9284112 32.9226383,33.0936676 C32.9226383,31.2768727 32.9226383,29.4600779 32.9226383,27.6494208 C32.9226383,24.7523695 32.9226383,21.8553183 32.9226383,18.9644048 C32.9226383,18.2953824 32.9226383,17.62636 32.9226383,16.9634754 C32.9226383,16.1778343 32.5917292,15.3492286 32.0599111,14.7906869 C31.5458201,14.2566965 30.7067292,13.8577382 29.9680929,13.8945651 C29.2058201,13.9313921 28.414002,14.1891805 27.8762747,14.7906869 C27.3503656,15.3921933 27.0135474,16.1287318 27.0135474,16.9634754 L27.0135474,16.9634754 Z" id="Path"></path>
            <path d="M53.6580401,30.0358874 C53.6580401,31.2524847 53.5728823,32.462999 53.4147321,33.6674304 C53.4512283,33.399779 53.4877245,33.1260446 53.5242207,32.8583931 C53.2079202,35.1638451 52.5935674,37.4267161 51.6933276,39.5740104 C51.7967335,39.3306909 51.9001394,39.0873715 51.9974627,38.850135 C51.1033056,40.9730973 49.9354269,42.9743999 48.5303229,44.7992959 C48.6884732,44.5924744 48.8466234,44.3917358 49.0047736,44.1849143 C47.5875042,46.0158932 45.9451749,47.6643826 44.1142818,49.0756355 C44.3210936,48.9174779 44.5218228,48.7593202 44.7286346,48.6011625 C42.9038242,50.0063325 40.9026155,51.1681829 38.7797528,52.0684649 C39.0230608,51.9650542 39.2663689,51.8616434 39.5035942,51.7643156 C37.3564007,52.6645976 35.0936358,53.2789793 32.788292,53.5952946 C33.0559309,53.5587966 33.3296524,53.5222987 33.5972913,53.4858008 C31.1885416,53.8081991 28.7372129,53.8081991 26.3284632,53.4858008 C26.5961021,53.5222987 26.8698236,53.5587966 27.1374625,53.5952946 C24.8321187,53.2789793 22.5693538,52.6645976 20.4221603,51.7643156 C20.6654683,51.8677264 20.9087764,51.9711371 21.1460017,52.0684649 C19.023139,51.1742659 17.0219303,50.0063325 15.1971199,48.6011625 C15.4039317,48.7593202 15.6046609,48.9174779 15.8114727,49.0756355 C13.9805796,47.6582996 12.3321676,46.0158932 10.9209809,44.1849143 C11.0791311,44.3917358 11.2372813,44.5924744 11.3954316,44.7992959 C9.99032758,42.9743999 8.82853163,40.9730973 7.92829184,38.850135 C8.03169777,39.0934544 8.13510369,39.3367739 8.23242691,39.5740104 C7.33218712,37.4267161 6.71783429,35.1638451 6.40153382,32.8583931 C6.43803003,33.1260446 6.47452624,33.399779 6.51102245,33.6674304 C6.18863928,31.2585677 6.18863928,28.8071241 6.51102245,26.3982613 C6.47452624,26.6659128 6.43803003,26.9396472 6.40153382,27.2072986 C6.71783429,24.9018466 7.33218712,22.6389756 8.23242691,20.4916813 C8.12902099,20.7350008 8.02561507,20.9783203 7.92829184,21.2155567 C8.82244893,19.0925944 9.99032758,17.0912918 11.3954316,15.2663958 C11.2372813,15.4732174 11.0791311,15.6739559 10.9209809,15.8807775 C12.3382503,14.0497985 13.9805796,12.4013091 15.8114727,10.9900562 C15.6046609,11.1482139 15.4039317,11.3063715 15.1971199,11.4645292 C17.0219303,10.0593593 19.023139,8.89750881 21.1460017,7.99722679 C20.9026937,8.10063756 20.6593856,8.20404833 20.4221603,8.30137612 C22.5693538,7.4010941 24.8321187,6.78671245 27.1374625,6.47039714 C26.8698236,6.50689506 26.5961021,6.54339298 26.3284632,6.5798909 C28.7372129,6.25749261 31.1885416,6.25749261 33.5972913,6.5798909 C33.3296524,6.54339298 33.0559309,6.50689506 32.788292,6.47039714 C35.0936358,6.78671245 37.3564007,7.4010941 39.5035942,8.30137612 C39.2602862,8.19796535 39.0169781,8.09455457 38.7797528,7.99722679 C40.9026155,8.89142582 42.9038242,10.0593593 44.7286346,11.4645292 C44.5218228,11.3063715 44.3210936,11.1482139 44.1142818,10.9900562 C45.9451749,12.4073921 47.5935869,14.0497985 49.0047736,15.8807775 C48.8466234,15.6739559 48.6884732,15.4732174 48.5303229,15.2663958 C49.9354269,17.0912918 51.0972229,19.0925944 51.9974627,21.2155567 C51.8940567,20.9722373 51.7906508,20.7289178 51.6933276,20.4916813 C52.5935674,22.6389756 53.2079202,24.9018466 53.5242207,27.2072986 C53.4877245,26.9396472 53.4512283,26.6659128 53.4147321,26.3982613 C53.5728823,27.6087757 53.6519574,28.81929 53.6580401,30.0358874 C53.6580401,30.8145096 53.9986714,31.6357128 54.5461145,32.1892646 C55.0753095,32.7184845 55.9390531,33.1138786 56.6993908,33.0773807 C57.4840592,33.0408827 58.2991412,32.7853973 58.852667,32.1892646 C59.4001101,31.5931319 59.7468241,30.8631735 59.7407414,30.0358874 C59.7346587,26.9822281 59.2784561,23.8799049 58.3356374,20.9722373 C57.4171495,18.1497315 56.103286,15.4245535 54.3818816,13.0035248 C53.4633937,11.7139316 52.459748,10.4669194 51.358779,9.32331787 C50.2578101,8.18579937 49.0595179,7.18210658 47.8064815,6.22099469 C45.434228,4.40218169 42.7882529,3.02742671 39.9902103,1.99940197 C37.1313407,0.947045284 34.071742,0.399576487 31.036474,0.277916755 C27.9586272,0.156257022 24.8077879,0.53948518 21.8394297,1.37893733 C18.9988082,2.18797456 16.2250964,3.42890383 13.7555197,5.05306126 C11.2981084,6.6711357 9.04142618,8.62377441 7.16795418,10.8927284 C6.16430847,12.1093258 5.22148977,13.3867529 4.4124905,14.737176 C3.58524313,16.1180139 2.91006328,17.5718477 2.30179316,19.0560965 C1.13999721,21.8846853 0.507396276,24.8957636 0.276253627,27.9433399 C0.0390282773,31.0213312 0.330997939,34.1662353 1.05483939,37.1651477 C1.75435004,40.0545663 2.93439409,42.8831551 4.47940022,45.4258435 C5.99399284,47.919868 7.89179564,50.2374859 10.0754854,52.1779587 C12.283506,54.1366804 14.7591654,55.8216677 17.4538021,57.038265 C18.9197331,57.7013105 20.4160776,58.2852773 21.9610837,58.7171693 C23.5608341,59.1612273 25.1849154,59.4349617 26.8333274,59.6235343 C29.917257,59.9824305 33.0559309,59.781692 36.0911988,59.1673103 C39.0230608,58.5772606 41.8819304,57.482323 44.4914093,56.0224062 C47.0400611,54.5989874 49.4183973,52.7619254 51.4317714,50.651129 C53.4633937,48.5281667 55.227377,46.0828061 56.5351578,43.4488729 C57.8733521,40.7601928 58.8587497,37.8890231 59.3149523,34.9205256 C59.5643431,33.2963682 59.7346587,31.6661278 59.7346587,30.0237214 C59.7346587,29.2450991 59.3940274,28.4238959 58.8465843,27.8703441 C58.3173893,27.3411243 57.4536457,26.9457301 56.6933081,26.9822281 C55.9086396,27.018726 55.0935576,27.2742114 54.5400318,27.8703441 C53.9986714,28.4786428 53.6580401,29.2086012 53.6580401,30.0358874 Z" id="Path"></path>
        </g>
    </g>
</svg>