<?xml version="1.0" encoding="UTF-8"?>
<svg width="60px" height="60px" viewBox="0 0 60 60" version="1.1" xmlns="http://www.w3.org/2000/svg" xmlns:xlink="http://www.w3.org/1999/xlink">
    <!-- Generator: Sketch 53.2 (72643) - https://sketchapp.com -->
    <title>familiar</title>
    <desc>Created with Sketch.</desc>
    <g id="Page-1" stroke="none" stroke-width="1" fill="none" fill-rule="evenodd">
        <g id="familiar" fill="#000000" fill-rule="nonzero">
            <path d="M36.9623762,59.5670414 C36.9623762,58.6608491 36.9623762,57.7667394 36.9623762,56.8122168 C38.4594059,56.8122168 39.8732673,56.8122168 41.3940594,56.8122168 C41.3940594,56.196006 41.3940594,55.616043 41.3940594,55.0481624 C41.3940594,53.2478604 41.7623762,51.5200537 42.6891089,49.9734855 C44.590099,46.7957711 47.3940594,45.1887901 51.0534653,45.1283772 C52.8594059,45.0921296 54.6534653,45.1283772 56.4594059,45.1283772 C56.6732673,45.1283772 56.8871287,45.1283772 57.1366337,45.1283772 C57.1366337,44.4034234 57.1366337,43.7267998 57.1366337,42.9776808 C53.7742574,42.446048 51.1009901,40.754489 49.2475248,37.7942608 C48.0475248,35.8731331 47.5128713,33.7466018 47.5841584,31.4750797 C47.750495,26.7387145 51.1247525,21.7606981 57.1722772,20.794093 C57.1722772,20.5886894 57.1722772,20.3712032 57.1722772,20.1537171 C57.1722772,15.5381775 57.1722772,10.9347206 57.1722772,6.31918107 C57.1722772,4.20473234 55.8534653,2.86356771 53.7623762,2.86356771 C43.1405941,2.86356771 32.5306931,2.86356771 21.9089109,2.86356771 C19.8178218,2.86356771 18.5108911,4.19264977 18.4990099,6.33126363 C18.4990099,9.98019802 18.4990099,13.6170498 18.4990099,17.2659842 C18.4990099,17.5076355 18.4990099,17.7372042 18.4990099,17.9909381 C17.5722772,17.9909381 16.7287129,17.9909381 15.8019802,17.9909381 C15.790099,17.8096996 15.7782178,17.6163786 15.7782178,17.4230576 C15.7782178,13.6774627 15.7663366,9.93186776 15.7782178,6.18627286 C15.790099,3.09313643 17.7386139,0.712871287 20.6732673,0.169155899 C21.1009901,0.0845779493 21.5405941,0.0845779493 21.980198,0.0845779493 C32.5544554,0.0845779493 43.1287129,0.0845779493 53.7148515,0.0845779493 C57.3980198,0.0845779493 59.9049505,2.63399899 59.9049505,6.37959389 C59.9049505,21.9902668 59.9049505,37.5888572 59.9049505,53.1995301 C59.9049505,56.5101527 58.1227723,58.7575096 54.950495,59.4703809 C54.8910891,59.4824635 54.8435644,59.5307938 54.7960396,59.5549589 C48.8435644,59.5670414 42.9029703,59.5670414 36.9623762,59.5670414 Z" id="Path"></path>
            <path d="M0,59.5670414 C0,58.0567209 0,56.5464004 0,55.0360799 C0.0118811881,49.4539352 4.03960396,45.2008726 9.52871287,45.1283772 C14.6019802,45.0558819 19.6633663,45.0679644 24.7366337,45.1283772 C29.3465347,45.1767075 32.9940594,48.185266 34.0039604,52.7162276 C34.2178218,53.6828327 34.2178218,54.7098506 34.2415842,55.7127035 C34.2772277,56.9934553 34.229703,58.2862896 34.229703,59.579124 C22.8237624,59.5670414 11.4059406,59.5670414 0,59.5670414 Z" id="Path"></path>
            <path d="M28.0871287,31.9342172 C28.0514851,38.1325726 23.1445545,43.0501762 17.0376238,43.0260111 C11.0138614,43.0018459 6.14257426,37.9513341 6.17821782,31.7892264 C6.21386139,25.6633663 11.1683168,20.7215976 17.2277228,20.7578453 C23.2514851,20.8061755 28.1108911,25.8204397 28.0871287,31.9342172 Z" id="Path"></path>
        </g>
    </g>
</svg>