<?xml version="1.0" encoding="UTF-8"?>
<svg width="60px" height="60px" viewBox="0 0 60 60" version="1.1" xmlns="http://www.w3.org/2000/svg" xmlns:xlink="http://www.w3.org/1999/xlink">
    <!-- Generator: Sketch 53.2 (72643) - https://sketchapp.com -->
    <title>Group</title>
    <desc>Created with Sketch.</desc>
    <g id="Page-1" stroke="none" stroke-width="1" fill="none" fill-rule="evenodd">
        <g id="Group" fill="#000000" fill-rule="nonzero">
            <path d="M30,0.3125 C13.625,0.3125 0.3125,13.625 0.3125,30 C0.3125,46.375 13.625,59.6875 30,59.6875 C46.375,59.6875 59.6875,46.375 59.6875,30 C59.6875,13.625 46.375,0.3125 30,0.3125 Z M30,54.8125 C16.3125,54.8125 5.1875,43.6875 5.1875,30 C5.1875,16.3125 16.3125,5.1875 30,5.1875 C43.6875,5.1875 54.8125,16.3125 54.8125,30 C54.8125,43.6875 43.6875,54.8125 30,54.8125 Z" id="Shape"></path>
            <path d="M44.375,29.25 L15.625,29.25 C14.75,29.25 13.875,29.625 13.3125,30.3125 C12.75,31 12.5,31.875 12.625,32.8125 C14,41.375 21.3125,47.625 30,47.625 C38.6875,47.625 46,41.375 47.375,32.8125 C47.5,31.9375 47.25,31 46.6875,30.3125 C46.125,29.625 45.25,29.25 44.375,29.25 Z" id="Path"></path>
            <path d="M17.4375,22.5625 C17.8125,22.8125 18.25,22.9375 18.6875,22.9375 C19.5,22.9375 20.3125,22.5 20.75,21.8125 C21.25,21.0625 22,20.9375 22.3125,20.9375 C22.625,20.9375 23.375,21 23.875,21.8125 C24.5625,22.9375 26.0625,23.3125 27.25,22.625 C28.375,21.9375 28.75,20.4375 28.0625,19.25 C26.8125,17.25 24.6875,16.0625 22.375,16.0625 C20.0625,16.0625 17.9375,17.25 16.6875,19.25 C15.9375,20.3125 16.3125,21.8125 17.4375,22.5625 Z" id="Path"></path>
            <path d="M32.8125,22.5625 C33.9375,23.25 35.4375,22.9375 36.1875,21.75 C36.6875,21 37.4375,20.875 37.75,20.875 C38.0625,20.875 38.8125,20.9375 39.3125,21.75 C39.75,22.5 40.5625,22.875 41.375,22.875 C41.8125,22.875 42.25,22.75 42.625,22.5 C43.75,21.8125 44.125,20.3125 43.4375,19.125 C42.1875,17.125 40.0625,15.9375 37.75,15.9375 C35.4375,15.9375 33.3125,17.125 32.0625,19.125 C31.3125,20.3125 31.625,21.8125 32.8125,22.5625 Z" id="Path"></path>
        </g>
    </g>
</svg>