<?xml version="1.0" encoding="UTF-8"?>
<svg width="60px" height="60px" viewBox="0 0 60 60" version="1.1" xmlns="http://www.w3.org/2000/svg" xmlns:xlink="http://www.w3.org/1999/xlink">
    <!-- Generator: Sketch 53.2 (72643) - https://sketchapp.com -->
    <title>Group</title>
    <desc>Created with Sketch.</desc>
    <g id="Page-1" stroke="none" stroke-width="1" fill="none" fill-rule="evenodd">
        <g id="Group" transform="translate(0.000000, 0.000000)" fill="#000000" fill-rule="nonzero">
            <path d="M33.8130841,0.165854943 C23.2429907,0.0236935632 13.6261682,5.16519679 9.28037383,13.292089 C7.71028037,16.2063973 6.92523364,19.310254 6.92523364,22.5088851 C6.92523364,22.6273529 6.92523364,23.2907727 6.92523364,24.356983 C6.72897196,25.115177 5.97196262,25.8496775 5.13084112,26.5367908 C4.85046729,26.7737265 4.37383178,27.1528235 3.86915888,27.5556141 C2.43925234,28.7165987 1.57009346,29.4274056 1.28971963,29.7354219 C0.953271028,30.1145189 0.504672897,30.6120837 0.280373832,31.2518099 C-0.364485981,32.9577465 1.20560748,33.7870212 1.71028037,34.0476504 C2.3271028,34.3793603 2.94392523,34.6162959 3.39252336,34.8058444 C3.89719626,34.9953929 4.42990654,35.208635 4.90654206,35.3744899 C4.96261682,35.3981835 5.01869159,35.4218771 5.10280374,35.4455706 C5.57943925,38.1466368 7.03738318,46.2498355 7.03738318,46.2972226 C7.23364486,47.7188364 7.79439252,48.8087403 8.74766355,49.5432408 C10.4018692,50.8226932 12.6448598,50.775306 14.4392523,50.7279189 C14.7196262,50.7279189 15.0280374,50.7042254 15.3084112,50.7042254 L18.1962617,50.7042254 C18.2803738,51.699355 18.3925234,53.2868237 18.5046729,54.6373569 L18.7570093,57.7412136 C18.8130841,58.3098592 19.1495327,58.8311175 19.682243,59.1628274 C20.1028037,59.4234566 20.5794393,59.565618 21.0841121,59.565618 C21.2242991,59.565618 21.3925234,59.5419244 21.5327103,59.5182309 L50.8598131,54.5899697 C52.4579439,54.3293405 53.6074766,53.1446624 53.6074766,51.7704357 L53.6074766,47.2686587 C53.6074766,41.9613005 54.953271,36.6065552 57.6448598,31.3465842 C59.1588785,28.4085823 59.8598131,25.3047255 59.8037383,22.0824009 C59.5514019,9.97499013 48.1401869,0.355403449 33.8130841,0.165854943 Z M55.1214953,30.4225352 C52.2897196,35.966829 50.8598131,41.6295906 50.8598131,47.2686587 L50.8598131,51.7704357 C50.8598131,52.0073713 50.6635514,52.2206134 50.3831776,52.2680005 L21.588785,57.1014874 L21.3925234,54.4715019 C21.0280374,49.6617086 21,49.4247729 20.9439252,49.2352244 L20.6915888,48.334869 L19.317757,48.334869 L15.4205607,48.334869 C15.1121495,48.334869 14.8037383,48.334869 14.4953271,48.3585626 C13.0654206,48.3822562 11.5794393,48.4296433 10.7663551,47.7899171 C10.317757,47.4582072 10.0373832,46.8421745 9.92523364,45.9655127 C9.86915888,45.7285771 7.87850467,34.5452152 7.87850467,34.5452152 L7.82242991,34.2135053 L7.57009346,33.9528761 L7.26168224,33.6922469 C6.92523364,33.4553113 6.56074766,33.3368435 6.30841121,33.2657628 L6.11214953,33.1946821 C5.63551402,33.0288272 5.13084112,32.8392787 4.65420561,32.6497302 C4.26168224,32.5075688 3.75700935,32.2943267 3.28037383,32.0336975 C3.1682243,31.9863104 3.11214953,31.9389233 3.05607477,31.9152297 C3.1682243,31.6782941 3.39252336,31.4176649 3.56074766,31.2281164 C3.75700935,31.0148743 5.10280374,29.9249704 5.91588785,29.2615506 C6.42056075,28.8350665 6.89719626,28.4559695 7.17757009,28.2190338 C8.29906542,27.2949849 9.5046729,26.1340003 9.78504673,24.6413058 L9.81308411,24.5465315 L9.81308411,24.4517573 C9.81308411,23.3381598 9.81308411,22.6273529 9.81308411,22.5088851 C9.81308411,19.6419639 10.5140187,16.8461235 11.9158879,14.2635251 C15.8130841,7.01329472 24.3925234,2.39304989 33.8411215,2.53521127 C46.6261682,2.70106621 56.8598131,11.3255232 57.1121495,22.1297881 C57.1121495,24.9967092 56.4672897,27.7925497 55.1214953,30.4225352 Z" id="Shape"></path>
            <path d="M47.8037383,21.6559168 L47.271028,21.5611426 C46.9626168,21.5137554 46.6542056,21.4663683 46.317757,21.4189812 C46.2336449,20.5660129 46.0093458,19.7367382 45.7009346,18.931157 C46.1214953,18.6942214 46.5420561,18.4572858 46.9626168,18.2203501 C47.4672897,17.9360274 47.6635514,17.3673819 47.411215,16.8935106 C46.682243,15.5903646 45.728972,14.4056865 44.5514019,13.3868632 C44.1308411,13.0077662 43.4299065,12.9603791 42.9252336,13.2447019 C42.6728972,13.4105568 42.3925234,13.5527182 42.1401869,13.6948796 C41.9719626,13.7896538 41.8317757,13.8844281 41.6635514,13.9555088 C40.8785047,13.4105568 40.0373832,12.9366855 39.1401869,12.5575885 C39.1401869,12.5575885 39.1401869,12.533895 39.1401869,12.533895 L39.1962617,12.3206529 C39.1962617,12.2969593 39.2242991,12.2732658 39.2242991,12.2495722 L39.2803738,11.9652494 C39.3364486,11.7520074 39.364486,11.5624589 39.4205607,11.3255232 C39.5327103,10.8042648 39.1962617,10.3067 38.6074766,10.1171515 C37.8224299,9.88021587 37.0373832,9.69066737 36.2242991,9.57219955 C35.411215,9.45373174 34.5700935,9.35895748 33.7570093,9.35895748 C33.1682243,9.38265105 32.635514,9.69066737 32.4953271,10.1882322 C32.4953271,10.2119258 32.4672897,10.2593129 32.4672897,10.2830064 C32.4392523,10.4962485 32.3831776,10.685797 32.3271028,10.8990391 L32.271028,11.1833619 C32.271028,11.2070554 32.271028,11.230749 32.2429907,11.2544425 L32.1869159,11.4676846 C32.1869159,11.4676846 32.1869159,11.4913782 32.1869159,11.4913782 C31.1775701,11.5624589 30.1962617,11.7283138 29.2429907,12.0126366 C29.1308411,11.8941688 29.046729,11.7520074 28.9345794,11.6335396 C28.7383178,11.3966039 28.5700935,11.1833619 28.3738318,10.9464262 C28.0373832,10.5199421 27.364486,10.3540871 26.8037383,10.5673292 C25.2616822,11.1833619 23.8598131,11.988943 22.6261682,12.9603791 C22.1775701,13.3157825 22.1214953,13.9081216 22.4579439,14.3346058 C22.7383178,14.6900092 23.046729,15.0454127 23.3271028,15.4008161 C22.682243,16.0642359 22.1214953,16.7750428 21.6728972,17.5332368 C21.364486,17.4858497 21.0560748,17.4384626 20.7476636,17.3910754 L20.2429907,17.2963012 C20.2149533,17.2963012 20.1308411,17.2726076 20.1028037,17.2726076 C19.5420561,17.2015269 18.9813084,17.4858497 18.7850467,17.9597209 C18.5046729,18.6231407 18.2803738,19.3339476 18.1121495,20.0210609 C17.9439252,20.7081743 17.8598131,21.4426747 17.8598131,22.1297881 C17.8598131,22.6036593 18.2242991,23.053837 18.7850467,23.1723049 C18.8130841,23.1723049 18.953271,23.1959984 18.9813084,23.219692 C19.3738318,23.2907727 19.7663551,23.3381598 20.1869159,23.4092405 C20.271028,23.4092405 20.3271028,23.4329341 20.411215,23.4329341 C20.4953271,24.2859023 20.7196262,25.1388706 21.0560748,25.9681453 C20.8878505,26.0629196 20.6915888,26.1813874 20.5233645,26.2761616 L19.9906542,26.584178 C19.9065421,26.6315651 19.8224299,26.6789522 19.7663551,26.7263393 C19.2897196,27.0343557 19.1214953,27.5556141 19.3738318,28.0294853 C20.1028037,29.3089377 21.0560748,30.4936159 22.2056075,31.5124391 C22.5981308,31.8678426 23.2429907,31.9389233 23.7196262,31.7019876 C23.7476636,31.6782941 23.8317757,31.6309069 23.8598131,31.6309069 C24.1682243,31.4413584 24.5046729,31.2518099 24.8130841,31.0622614 C24.8971963,31.0148743 24.9813084,30.9674872 25.0373832,30.9201 C25.8224299,31.465052 26.6635514,31.9389233 27.588785,32.3180203 C27.5607477,32.4601817 27.5327103,32.602343 27.5046729,32.7445044 C27.4485981,33.0051336 27.3925234,33.2657628 27.3364486,33.5500856 C27.3364486,33.5737791 27.3084112,33.6211662 27.3084112,33.6448598 C27.2242991,34.1424246 27.5607477,34.6162959 28.1214953,34.7821508 C28.9065421,35.0190865 29.6915888,35.208635 30.5046729,35.3271028 C31.317757,35.4455706 32.1588785,35.5403449 32.9719626,35.5403449 C32.9719626,35.5403449 33,35.5403449 33,35.5403449 C33.588785,35.5403449 34.0934579,35.208635 34.2056075,34.7347637 C34.2056075,34.7110702 34.2336449,34.663683 34.2336449,34.6399895 C34.2897196,34.3793603 34.3457944,34.1187311 34.4018692,33.8581019 C34.4299065,33.7159405 34.4579439,33.5737791 34.4859813,33.4316177 C35.4953271,33.3605371 36.4766355,33.1946821 37.4579439,32.9103594 C37.5140187,32.98144 37.5700935,33.0525207 37.6261682,33.1236014 C37.8504673,33.3842306 38.0747664,33.6685534 38.271028,33.9291826 C38.271028,33.9291826 38.3271028,34.0002633 38.3271028,34.0002633 C38.6635514,34.4267474 39.3364486,34.5689088 39.8691589,34.3556667 C41.3831776,33.7633276 42.7850467,32.9577465 44.0186916,31.9863104 C44.4392523,31.6309069 44.5233645,31.085955 44.2149533,30.6594708 C44.1869159,30.6120837 44.1308411,30.541003 44.0747664,30.4699223 L43.7102804,30.0197446 C43.5981308,29.8538897 43.4579439,29.7117283 43.3457944,29.5695669 C44.0186916,28.9061472 44.5514019,28.1953403 45.0280374,27.4134527 C45.1121495,27.4134527 45.1682243,27.4371462 45.2523364,27.4371462 C45.6448598,27.5082269 46.0373832,27.5556141 46.4299065,27.6266947 C46.4859813,27.6266947 46.6261682,27.6503883 46.6542056,27.6503883 C47.2149533,27.6977754 47.7476636,27.4134527 47.9439252,26.963275 C48.2242991,26.2998552 48.4485981,25.6127419 48.6168224,24.901935 C48.7850467,24.1911281 48.8691589,23.4803212 48.8691589,22.7695143 C48.8691589,22.2008688 48.3925234,21.7506911 47.8037383,21.6559168 Z M46.1495327,24.4517573 C46.0934579,24.73608 46.0093458,25.0440964 45.8971963,25.3284191 C45.8130841,25.3284191 45.7570093,25.3047255 45.6728972,25.3047255 C45.3084112,25.2573384 44.9439252,25.1862577 44.5794393,25.1388706 C44.5514019,25.1388706 44.4392523,25.115177 44.4392523,25.115177 C43.8785047,25.0677899 43.3457944,25.3284191 43.1495327,25.7785968 C42.6448598,26.8685007 41.8878505,27.8399368 40.9065421,28.6929051 C40.5420561,29.0009214 40.4579439,29.4747927 40.6542056,29.8538897 C40.7102804,29.9486639 40.7663551,30.0434382 40.8504673,30.161906 C41.0747664,30.4462288 41.3271028,30.7305515 41.5514019,31.0148743 C41.0186916,31.3939713 40.4299065,31.7256812 39.8130841,32.0100039 C39.7850467,31.9863104 39.7570093,31.9389233 39.728972,31.9152297 C39.5327103,31.6546005 39.3084112,31.4176649 39.1121495,31.1570357 C39.0280374,31.0385679 38.9439252,30.9674872 38.8317757,30.8727129 C38.4672897,30.5883902 37.9345794,30.4936159 37.4859813,30.6594708 C36.2242991,31.1096485 34.8785047,31.3465842 33.5046729,31.3702777 C33.0280374,31.3702777 32.5794393,31.6072134 32.3831776,31.9863104 C32.2990654,32.1284718 32.271028,32.2706331 32.2429907,32.4127945 C32.1869159,32.7445044 32.1028037,33.0762143 32.046729,33.3842306 C31.7102804,33.3605371 31.3738318,33.3131499 31.0373832,33.2657628 C30.7009346,33.2183757 30.364486,33.147295 30.0560748,33.0762143 C30.1401869,32.7445044 30.1962617,32.4127945 30.2803738,32.1047782 C30.3084112,31.9389233 30.3364486,31.7967619 30.3364486,31.6546005 C30.3084112,31.2518099 30,30.8964065 29.5514019,30.7305515 C28.2616822,30.3040674 27.1121495,29.6643412 26.1308411,28.85876 C25.7663551,28.5744373 25.2336449,28.479663 24.7850467,28.645518 C24.6448598,28.6929051 24.5327103,28.7402922 24.4205607,28.8350665 C24.1401869,29.0009214 23.8317757,29.1904699 23.5233645,29.3563249 C23.4672897,29.3800184 23.4392523,29.403712 23.3831776,29.4274056 C22.9345794,28.9772279 22.5420561,28.479663 22.1775701,27.9584046 C22.5140187,27.7688561 22.8504673,27.5556141 23.1869159,27.3660656 C23.2990654,27.2949849 23.411215,27.2239042 23.5233645,27.1528235 C23.8878505,26.8448072 24,26.3946295 23.7757009,25.9918389 C23.2149533,24.901935 22.9345794,23.7646439 22.9065421,22.6036593 C22.9065421,22.1297881 22.5140187,21.7033039 21.953271,21.5848361 C21.9252336,21.5848361 21.8411215,21.5611426 21.8130841,21.5611426 C21.4485981,21.5137554 21.0841121,21.4426747 20.7196262,21.3952876 C20.635514,21.3715941 20.5794393,21.3715941 20.4953271,21.3479005 C20.5233645,21.0398842 20.5794393,20.7555614 20.635514,20.4475451 C20.6915888,20.1395288 20.7757009,19.855206 20.8878505,19.5471897 C21.2523364,19.5945768 21.6448598,19.6656575 22.0093458,19.7367382 C22.2336449,19.7841253 22.4018692,19.7841253 22.5981308,19.7841253 C23.0747664,19.7604317 23.4953271,19.4998026 23.6635514,19.1207055 C24.1682243,18.0544952 24.9252336,17.0830591 25.8785047,16.2537844 C26.2149533,15.9457681 26.3271028,15.5192839 26.1308411,15.1164934 C26.046729,14.9506384 25.9345794,14.808477 25.7943925,14.6426221 L25.5981308,14.4056865 C25.4579439,14.2398315 25.3457944,14.0739766 25.2056075,13.9081216 C25.7663551,13.5290246 26.3551402,13.1973147 26.9719626,12.8892984 C27.1962617,13.1499276 27.3925234,13.4342504 27.6168224,13.6948796 C27.7009346,13.8133474 27.8691589,14.0028959 28.1214953,14.1450573 C28.4579439,14.3346058 28.9065421,14.3819929 29.2990654,14.2398315 C30.5607477,13.7896538 31.9065421,13.5527182 33.2523364,13.5527182 C33.728972,13.5527182 34.1495327,13.3157825 34.3457944,12.9603791 C34.4299065,12.8182177 34.4859813,12.6760563 34.5140187,12.5102014 C34.5420561,12.2969593 34.5981308,12.0837173 34.6542056,11.8467816 L34.7383178,11.5387653 C34.7383178,11.5387653 34.7383178,11.5150717 34.7383178,11.5150717 C35.0747664,11.5387653 35.411215,11.5861524 35.7476636,11.6335396 C36.0841121,11.6809267 36.4205607,11.7520074 36.7570093,11.8230881 C36.7570093,11.8230881 36.7570093,11.8467816 36.7570093,11.8467816 L36.7009346,12.1547979 C36.6448598,12.36804 36.6168224,12.6049756 36.5607477,12.8182177 C36.5046729,12.9840727 36.5046729,13.126234 36.5046729,13.2683954 C36.5327103,13.671186 36.8411215,14.0265894 37.2897196,14.1687508 C38.5514019,14.595235 39.7009346,15.2112676 40.682243,16.0168488 C40.9906542,16.277478 41.4392523,16.3722522 41.8317757,16.277478 C42.0560748,16.2300908 42.2803738,16.1353166 42.4766355,16.0168488 C42.7850467,15.8273003 43.0934579,15.6377517 43.4299065,15.4718968 C43.8785047,15.9457681 44.2990654,16.4433329 44.635514,16.9645913 C44.4672897,17.0593655 44.2990654,17.1541398 44.1588785,17.248914 L43.7943925,17.4621561 C43.5981308,17.5806239 43.4299065,17.6753982 43.2897196,17.8175596 C42.953271,18.1255759 42.8691589,18.5757536 43.0654206,18.9548506 C43.5981308,20.0210609 43.8785047,21.1346584 43.9065421,22.295643 C43.9065421,22.6984336 44.1869159,23.053837 44.635514,23.2433855 C44.8037383,23.3144662 45,23.3618534 45.1962617,23.3855469 C45.5607477,23.4329341 45.953271,23.4803212 46.317757,23.5514019 C46.2616822,23.8594182 46.2056075,24.1674345 46.1495327,24.4517573 Z" id="Shape"></path>
            <path d="M38.1308411,18.5757536 C37.4299065,17.9597209 36.5607477,17.4858497 35.6074766,17.2015269 C35.271028,17.1067527 34.9345794,17.0119784 34.5981308,16.9645913 C34.2616822,16.9172042 33.8971963,16.869817 33.5607477,16.869817 C32.5514019,16.8461235 31.5420561,17.035672 30.6168224,17.3910754 C29.9719626,17.6517046 29.3551402,17.9834145 28.8504673,18.4098986 C28.1214953,19.0022377 27.5607477,19.7367382 27.1962617,20.5423193 C27.0841121,20.8266421 26.9719626,21.1109649 26.9158879,21.4189812 C26.8598131,21.7269975 26.8037383,22.0113203 26.8037383,22.3193366 C26.7757009,23.1723049 27,24.0489667 27.4485981,24.8308543 C27.7570093,25.3758062 28.1495327,25.8733711 28.6542056,26.3235488 C29.3551402,26.9395814 30.2242991,27.4134527 31.1775701,27.6977754 C31.5140187,27.7925497 31.8504673,27.8873239 32.1869159,27.9347111 C32.5233645,27.9820982 32.8878505,28.0294853 33.2242991,28.0294853 C33.2803738,28.0294853 33.3364486,28.0294853 33.3925234,28.0294853 C34.3457944,28.0294853 35.2990654,27.8399368 36.1682243,27.5082269 C36.8130841,27.2475977 37.4018692,26.9158879 37.9345794,26.4894037 C38.6635514,25.8970646 39.2523364,25.1625642 39.588785,24.3332895 C39.7009346,24.0489667 39.8130841,23.7646439 39.8691589,23.4566276 L39.8691589,23.4566276 C39.9252336,23.1486113 39.9813084,22.840595 39.9813084,22.5562722 C40.0093458,21.7033039 39.7850467,20.8503357 39.364486,20.0684481 C39.0280374,19.5234961 38.635514,19.0259313 38.1308411,18.5757536 Z M37.4018692,23.0775306 C37.3738318,23.2670791 37.2897196,23.4566276 37.2336449,23.6224826 C37.0093458,24.1200474 36.6728972,24.5939187 36.1962617,24.9493221 C35.8878505,25.2099513 35.4953271,25.4231934 35.1028037,25.5890483 C34.5140187,25.8259839 33.9252336,25.9207582 33.2803738,25.9207582 C33.0560748,25.9207582 32.8598131,25.8970646 32.635514,25.8496775 C32.411215,25.8259839 32.2149533,25.7785968 31.9906542,25.7075161 C31.4018692,25.5179676 30.8411215,25.2336449 30.4205607,24.8545478 C30.1121495,24.5702251 29.8598131,24.2622088 29.6635514,23.9304989 C29.3831776,23.4566276 29.2429907,22.9116757 29.271028,22.3667237 C29.271028,22.1771752 29.2990654,21.9876267 29.3551402,21.7980782 C29.3831776,21.6085297 29.4672897,21.4189812 29.5233645,21.2531262 C29.7476636,20.7555614 30.0841121,20.3053837 30.5327103,19.9262867 C30.8691589,19.6656575 31.2336449,19.4524154 31.6542056,19.2865605 C32.1869159,19.0733184 32.7757009,18.9548506 33.3925234,18.9548506 C33.4205607,18.9548506 33.4766355,18.9548506 33.5046729,18.9548506 C33.728972,18.9548506 33.953271,18.9785442 34.1495327,19.0022377 C34.3738318,19.0259313 34.5700935,19.097012 34.7943925,19.1443991 C35.3831776,19.3339476 35.9158879,19.6182704 36.364486,19.9973674 C36.6728972,20.2816901 36.9252336,20.5897065 37.1214953,20.9214163 C37.4018692,21.3952876 37.5140187,21.9402396 37.5140187,22.461498 C37.4579439,22.6984336 37.4579439,22.8879821 37.4018692,23.0775306 Z" id="Shape"></path>
        </g>
    </g>
</svg>