<?xml version="1.0" encoding="UTF-8"?>
<svg width="60px" height="40px" viewBox="0 0 60 40" version="1.1" xmlns="http://www.w3.org/2000/svg" xmlns:xlink="http://www.w3.org/1999/xlink">
    <!-- Generator: Sketch 53.2 (72643) - https://sketchapp.com -->
    <title>visibility copy 2</title>
    <desc>Created with Sketch.</desc>
    <g id="Page-1" stroke="none" stroke-width="1" fill="none" fill-rule="evenodd">
        <g id="visibility-copy-2" fill="#000000" fill-rule="nonzero">
            <path d="M30,0 C17.17275,0 6.00075,8.0565 0,20.00025 C6.00075,31.94625 17.17275,39.99975 30,39.99975 C42.82725,39.99975 53.99925,31.94625 60,20.00025 C53.99925,8.05725 42.82725,0 30,0 Z M30,35.00025 C20.34675,35.00025 11.2305,29.31375 5.69625,20.00025 C11.2305,10.68675 20.34675,5.00025 30,5.00025 C39.65325,5.00025 48.7695,10.68675 54.30375,20.00025 C48.7695,29.31375 39.65325,35.00025 30,35.00025 Z" id="Shape"></path>
            <path d="M30,8.75025 C23.784,8.75025 18.75,13.78425 18.75,20.00025 C18.75,26.214 23.784,31.25025 30,31.25025 C36.213,31.25025 41.25,26.214 41.25,20.00025 C41.25,13.78425 36.213,8.75025 30,8.75025 Z M30,26.25075 C26.54775,26.25075 23.75025,23.45325 23.75025,20.00025 C23.75025,16.548 26.54775,13.7505 30,13.7505 C33.45225,13.7505 36.24975,16.548 36.24975,20.00025 C36.24975,23.45325 33.45225,26.25075 30,26.25075 Z" id="Shape"></path>
        </g>
    </g>
</svg>