<svg xmlns="http://www.w3.org/2000/svg" data-name="Layer 1" viewBox="0 0 512 640" x="0px" y="0px"><title>Makeup</title><path d="M322.15,134a7,7,0,0,0,0-14H208V93.6a6.373,6.373,0,0,1,6.648-6.6H325V64H185V448H325V425H214.648A6.56,6.56,0,0,1,208,418.174V394H322.15a7,7,0,0,0,0-14H208V357H322.15a7,7,0,0,0,0-14H208V319H322.15a7,7,0,0,0,0-14H208V282H322.15a7,7,0,0,0,0-14H208V245H322.15a7,7,0,0,0,0-14H208V208H322.15a7,7,0,0,0,0-14H208V171H322.15a7,7,0,0,0,0-14H208V134Z"/><path d="M91.759,159.732c7.827-7.827,13.965-16.858,16.838-24.776,2.146-5.914,2.306-10.96.409-12.857a6.213,6.213,0,0,0-4.452-1.361c-7.127,0-20.331,5.758-33.181,18.608-16.5,16.5-21.305,33.575-17.247,37.633S75.263,176.228,91.759,159.732Z"/><path d="M58.554,192.243A24.556,24.556,0,0,1,55,191.99V231h55V160.433c-3,3.151-5.3,6.238-8.261,9.2C87.2,184.174,70.968,192.243,58.554,192.243Z"/><path d="M33,434.735A13.1,13.1,0,0,0,46.452,448H118.4A13.221,13.221,0,0,0,132,434.735V327H33Z"/><rect x="43" y="245" width="79" height="68"/><polygon points="465.945 319 391.004 319 380.797 346 476.152 346 465.945 319"/><polygon points="390.701 448 466.249 448 478.296 360 378.654 360 390.701 448"/><path d="M404,181h17v12H408a7,7,0,0,0,0,14h13V310h14V207h16a7,7,0,0,0,0-14H435V181h20a7,7,0,0,0,0-14H435V153h16a7,7,0,0,0,0-14H435V123.341a7,7,0,0,0-14,0V139H408a7,7,0,0,0,0,14h13v14H404a7,7,0,0,0,0,14Z"/><text x="0" y="527" fill="#000000" font-size="5px" font-weight="bold" font-family="'Helvetica Neue', Helvetica, Arial-Unicode, Arial, Sans-serif">Created by Shastry</text><text x="0" y="532" fill="#000000" font-size="5px" font-weight="bold" font-family="'Helvetica Neue', Helvetica, Arial-Unicode, Arial, Sans-serif">from the Noun Project</text></svg>