<?xml version="1.0" encoding="utf-8"?>
<!-- Generator: Adobe Illustrator 24.0.0, SVG Export Plug-In . SVG Version: 6.00 Build 0)  -->
<svg version="1.1" id="Layer_1" xmlns="http://www.w3.org/2000/svg" xmlns:xlink="http://www.w3.org/1999/xlink" x="0px" y="0px"
	 viewBox="0 0 100 100" style="enable-background:new 0 0 100 100;" xml:space="preserve">
<path d="M50,0c-9.4,0-18.1,3.6-24.7,10.2c-6.5,6.6-10.2,15.2-10.2,24.7S18.7,53,25.3,59.5c5.2,5.2,11.6,8.6,19,9.7v8.7H31.4v11.6
	h12.8V100h11.6V89.5h12.8V77.9H55.7v-8.7c7.3-1.3,13.8-4.7,19-9.7c6.6-6.6,10.2-15.6,10.2-24.7c0-9.4-3.6-18.1-10.2-24.7
	C68.1,3.6,59.3-0.1,50,0z M33.6,18.6c4.4-4.4,10.2-6.9,16.4-6.7c6.2-0.1,12,2.3,16.4,6.6c4.4,4.4,6.9,10.2,6.9,16.4
	c0,12.8-10.5,23.3-23.3,23.3c-6.3,0-12.1-2.4-16.4-6.7C29.2,47,26.7,41.2,26.9,35C26.9,28.7,29.2,22.9,33.6,18.6z"/>
</svg>
