<?xml version="1.0" encoding="utf-8"?>
<!-- Generator: Adobe Illustrator 24.0.0, SVG Export Plug-In . SVG Version: 6.00 Build 0)  -->
<svg version="1.1" xmlns="http://www.w3.org/2000/svg" xmlns:xlink="http://www.w3.org/1999/xlink" x="0px" y="0px"
	 viewBox="0 0 95 79.3" style="enable-background:new 0 0 95 79.3;" xml:space="preserve">
<g id="Layer_2">
</g>
<g id="Layer_1">
	<g>
		<ellipse cx="77.1" cy="22.2" rx="8" ry="8"/>
		<path d="M94.2,40.9c-1.2-3-9-8.6-12-8.6H72.1c-1.4-0.2-6.1-3.4-7.2-4.8c-0.2-1.5-0.1-6.3,0.1-10.3c0.1-1.8-1.3-3.3-3.1-3.4
			c-1.8-0.1-3.3,1.3-3.4,3.1c-0.2,3.8-0.5,10.4,0.1,12.5c0.9,2.9,6.8,7.3,10.9,8.8C66.7,44.5,59,47.7,54.7,49
			c-1.3,0.4-1.6,2-0.5,2.8c1.1,0.9,2.6,2,4.4,3.3c-1.4,1.2-4.2,4.8-8.7,19.2c-0.6,2,0.5,4.2,2.5,4.8c0.4,0.1,0.8,0.2,1.2,0.2
			c1.6,0,3.2-1.1,3.7-2.7c2-6.3,4.9-13.9,6.3-15.5c0.6-0.4,1.5-0.8,2.4-1.3c0.6,0.3,1.2,0.6,1.8,1c-1.5,1.9-2.5,3.9-2,6.1
			c0.8,3.6,5.9,8.7,8.9,11.5c0.7,0.7,1.7,1,2.6,1c1,0,2.1-0.4,2.8-1.3c1.4-1.6,1.3-4-0.2-5.5c-2.7-2.4-5.3-5.4-6.2-6.8
			c0.4-0.5,1-1.1,1.6-1.8c2.4,0.8,4.7,1.4,7,1.7c0.8,0.1,1.5-0.5,1.7-1.3c2.1-9.9,1.3-20.2,0.9-24c1.5,1,3,2.2,3.5,2.9
			c0.3,1,0.4,4.5,0.2,7.7c-0.1,1.8,1.3,3.3,3.1,3.4h0.1c1.7,0,3.2-1.4,3.2-3.1C95,49,95.2,43.3,94.2,40.9z"/>
		<ellipse cx="31.2" cy="16.4" rx="8" ry="8"/>
		<path d="M50.5,31.7c0.9-0.2,1.4-1.1,1.2-2l-0.6-2.4c1.3-1.2,1.6-3.2,0.5-4.7c-0.5-0.7-1.2-1.2-2-1.4l-4.9-20
			c-0.2-0.9-1.1-1.4-2-1.2s-1.4,1.1-1.2,2l4.9,19.9l-5.1,3.5c-1.8,1.2-3.9,1.9-6,1.8c-2.3-0.1-4.2-0.4-5.6-0.9
			c-0.4-0.1-1-0.4-1.7-0.7c-1.9-0.8-3.3-1.4-4.4-1.6c-1-0.2-1.9-0.5-11.5,2c-2.1,0.5-4,1.7-5.5,3.3L1,35.4c-1.3,1.5-1.3,3.7,0.2,5.1
			c0.7,0.6,1.6,1,2.4,1c1,0,1.9-0.4,2.6-1.2l5.6-6.1c0.6-0.6,1.3-1,2-1.2c0.6-0.2,1.2-0.3,1.7-0.4l-4.9,11.3c-1,2.3-0.6,5,1,7
			l1.4,1.7l-1.4,6c-0.4,1.6-1.1,3.1-2.2,4.4l-7.1,9c-1.3,1.7-1,4.3,0.7,5.7c0.8,0.6,1.7,0.9,2.6,0.9c1.2,0,2.4-0.5,3.2-1.6l7.1-9
			c1.8-2.2,3.1-4.9,3.7-7.6c1.1,1.5,1.8,3.3,2.1,5.1L23,75c0.3,2.1,2.1,3.6,4.1,3.6c0.2,0,0.4,0,0.6,0c2.3-0.3,3.8-2.4,3.5-4.6
			l-1.3-9.5c-0.5-3.7-2-7.1-4.4-10l-3-3.6l9-16.8c1.1,0.2,2.2,0.3,3.5,0.3c3.7,0.2,7.4-0.9,10.5-3l2.9-2l0.3,1.1
			c0.2,0.7,0.8,1.2,1.6,1.2C50.2,31.8,50.4,31.8,50.5,31.7z"/>
	</g>
</g>
</svg>
