<?xml version="1.0" encoding="utf-8"?>
<!-- Generator: Adobe Illustrator 24.0.0, SVG Export Plug-In . SVG Version: 6.00 Build 0)  -->
<svg version="1.1" id="Layer_1" xmlns="http://www.w3.org/2000/svg" xmlns:xlink="http://www.w3.org/1999/xlink" x="0px" y="0px"
	 viewBox="0 0 16 16" style="enable-background:new 0 0 16 16;" xml:space="preserve">
<title>Artboard 23</title>
<g>
	<path d="M13.7,2.3c-3.1-3.1-8.2-3.1-11.3,0s-3.1,8.2,0,11.3c3.1,3.1,8.2,3.1,11.3,0C16.8,10.5,16.8,5.5,13.7,2.3
		C13.7,2.3,13.7,2.3,13.7,2.3z M3.8,12.2c-2.1-2.1-2.3-5.3-0.6-7.7l8.4,8.4C9.1,14.6,5.8,14.3,3.8,12.2z M12.9,11.5L4.5,3.1
		c2.7-1.9,6.5-1.2,8.4,1.5C14.3,6.7,14.3,9.4,12.9,11.5z"/>
</g>
<g>
	<path d="M12.3,6.9c-0.5,0-0.9,0.4-1,0.9H9.9c0-0.4-0.2-0.7-0.4-1l0.9-0.9C10.6,6,10.8,6,11,6c0.3,0,0.6-0.1,0.8-0.3
		c0.4-0.4,0.4-1.1,0-1.5C11.6,4,11.3,3.9,11,3.9S10.5,4,10.3,4.2c-0.4,0.4-0.4,0.9-0.1,1.3L9.2,6.5c-0.3-0.2-0.6-0.4-1-0.4V4.8
		c0.5-0.1,0.9-0.5,0.9-1c0-0.6-0.5-1.1-1.1-1.1S6.9,3.1,6.9,3.7c0,0.5,0.4,0.9,0.9,1v1.3c-0.4,0-0.7,0.2-1,0.4L5.8,5.5
		c0.3-0.4,0.2-1-0.1-1.3C5.5,4,5.2,3.9,5,3.9C4.7,3.9,4.4,4,4.2,4.2c-0.4,0.4-0.4,1.1,0,1.5C4.4,5.9,4.7,6,5,6C5.2,6,5.4,6,5.5,5.9
		l0.9,0.9c-0.2,0.3-0.4,0.6-0.4,1H4.7c-0.1-0.5-0.5-0.9-1-0.9C3.1,6.9,2.6,7.4,2.6,8s0.5,1.1,1.1,1.1c0.5,0,0.9-0.4,1-0.9h1.3
		c0,0.4,0.2,0.7,0.4,1l-0.9,0.9C5.4,10,5.2,9.9,5,9.9c-0.3,0-0.6,0.1-0.8,0.3c-0.4,0.4-0.4,1.1,0,1.5C4.4,12,4.7,12.1,5,12.1
		s0.6-0.1,0.8-0.3c0.4-0.4,0.4-0.9,0.1-1.3l0.9-0.9c0.3,0.2,0.6,0.4,1,0.4v1.3c-0.5,0.1-0.9,0.5-0.9,1c0,0.6,0.5,1.1,1.1,1.1
		s1.1-0.5,1.1-1.1c0-0.5-0.4-0.9-0.9-1V9.9c0.4,0,0.7-0.2,1-0.4l0.9,0.9c-0.3,0.4-0.2,1,0.1,1.3c0.2,0.2,0.5,0.3,0.8,0.3
		c0.3,0,0.6-0.1,0.8-0.3c0.4-0.4,0.4-1.1,0-1.5c-0.2-0.2-0.5-0.3-0.8-0.3c-0.2,0-0.4,0.1-0.6,0.2L9.5,9.2c0.2-0.3,0.4-0.6,0.4-1h1.3
		c0.1,0.5,0.5,0.9,1,0.9c0.6,0,1.1-0.5,1.1-1.1S12.9,6.9,12.3,6.9z"/>
</g>
</svg>
