<svg xmlns="http://www.w3.org/2000/svg" data-name="Layer 1" viewBox="0 0 100 125" x="0px" y="0px"><title>TRAVEL (GLYPH)</title><path d="M84.47,33.26V76.37a.72.72,0,0,1-.73.72H47.28a.72.72,0,0,1-.72-.72V69.84H74.12a3.11,3.11,0,0,0,3.11-3.1V32.54h6.52A.71.71,0,0,1,84.47,33.26Z"/><polygon points="42.91 49.15 44.53 55.58 38.09 53.97 39.27 52.78 40.5 51.56 41.54 50.51 42.91 49.15"/><polygon points="21.65 26.59 23.14 28.09 20.09 31.15 17.03 34.2 15.53 32.7 21.65 26.59"/><polygon points="37.97 50.72 35.76 52.93 18.71 35.89 20.93 33.67 29.45 42.2 37.97 50.72"/><polygon points="41.87 46.82 41.75 46.94 39.66 49.03 31.13 40.51 22.61 31.99 24.83 29.77 34.89 39.84 34.9 39.84 41.87 46.82"/><path d="M44.59,46.24a1.19,1.19,0,0,0,.56.14H66.62a1.19,1.19,0,0,0,0-2.38H45.16A1.19,1.19,0,0,0,44,45.18a1.18,1.18,0,0,0,.09.45l-7.13-7.12V23.63a.71.71,0,0,1,.73-.72H74.12a.71.71,0,0,1,.73.72V66.74a.72.72,0,0,1-.73.72H37.65a.72.72,0,0,1-.73-.72V56.14l8.84,2.21a1.19,1.19,0,0,0,.4.07H66.62a1.19,1.19,0,0,0,0-2.38H47.09l-2.38-9.5v0l0-.12v0h0l-.06-.12ZM67.81,33.15A1.19,1.19,0,0,0,66.62,32H45.16a1.19,1.19,0,0,0,0,2.38H66.62A1.19,1.19,0,0,0,67.81,33.15Z"/><text x="0" y="115" fill="#000000" font-size="5px" font-weight="bold" font-family="'Helvetica Neue', Helvetica, Arial-Unicode, Arial, Sans-serif">Created by Mata Sapi</text><text x="0" y="120" fill="#000000" font-size="5px" font-weight="bold" font-family="'Helvetica Neue', Helvetica, Arial-Unicode, Arial, Sans-serif">from the Noun Project</text></svg>