<?xml version="1.0" encoding="utf-8"?>
<!-- Generator: Adobe Illustrator 24.0.0, SVG Export Plug-In . SVG Version: 6.00 Build 0)  -->
<svg version="1.1" id="Layer_1" xmlns="http://www.w3.org/2000/svg" xmlns:xlink="http://www.w3.org/1999/xlink" x="0px" y="0px"
	 viewBox="0 0 16 16" style="enable-background:new 0 0 16 16;" xml:space="preserve">
<title>Artboard 23</title>
<g>
	<path d="M9.3,5c0.1,0,0.1-0.1,0.1-0.1S9.4,4.7,9.3,4.7H7V4.2c0-0.1,0.1-0.1,0.1-0.1c0,0,0,0,0,0h2.2V3.6H6.6v7.8h2.8v-0.5H7.2
		c-0.1,0-0.1-0.1-0.1-0.1c0,0,0,0,0,0v-0.5h2.3c0.1,0,0.1-0.1,0.1-0.1S9.4,10,9.3,10H7V9.5h2.3c0.1,0,0.1-0.1,0.1-0.1
		S9.4,9.3,9.3,9.3H7V8.8h2.3c0.1,0,0.1-0.1,0.1-0.1S9.4,8.5,9.3,8.5H7V8h2.3C9.4,8,9.5,8,9.5,7.9S9.4,7.7,9.3,7.7H7V7.3h2.3
		c0.1,0,0.1-0.1,0.1-0.1C9.5,7,9.4,7,9.3,7H7V6.5h2.3c0.1,0,0.1-0.1,0.1-0.1S9.4,6.2,9.3,6.2H7V5.8h2.3c0.1,0,0.1-0.1,0.1-0.1
		S9.4,5.5,9.3,5.5H7V5H9.3z"/>
	<path d="M4.7,5.5C4.8,5.4,5,5.2,5,5c0-0.1,0-0.2,0-0.3c0,0-0.1,0-0.1,0c-0.1,0-0.4,0.1-0.7,0.4C3.9,5.5,3.8,5.8,3.9,5.9
		C4,6,4.3,5.9,4.7,5.5z"/>
	<path d="M4,6.2C4,6.2,4,6.2,4,6.2L3.9,7H5V5.5C5,5.6,4.9,5.7,4.9,5.7C4.6,6,4.3,6.2,4,6.2z"/>
	<path d="M3.5,11.1c0,0.1,0.1,0.3,0.3,0.3c0,0,0,0,0,0h1.5c0.1,0,0.3-0.1,0.3-0.3c0,0,0,0,0,0V8.9h-2V11.1z"/>
	<rect x="3.7" y="7.3" width="1.6" height="1.4"/>
	<polygon points="12.3,8.8 10.7,8.8 10.5,9.3 12.5,9.3 	"/>
	<polygon points="10.7,11.4 12.3,11.4 12.5,9.6 10.5,9.6 	"/>
	<path d="M11,6h0.3v0.2h-0.3c-0.1,0-0.1,0.1-0.1,0.1s0.1,0.1,0.1,0.1h0.3v2.1h0.3V6.5H12c0.1,0,0.1-0.1,0.1-0.1S12,6.2,12,6.2h-0.3
		V6H12c0.1,0,0.1-0.1,0.1-0.1S12.1,5.7,12,5.7h-0.4V5.4H12c0.1,0,0.1-0.1,0.1-0.1S12,5.1,12,5.1h-0.3V4.8c0-0.1-0.1-0.1-0.1-0.1
		s-0.1,0.1-0.1,0.1v0.3h-0.3c-0.1,0-0.1,0.1-0.1,0.1s0.1,0.1,0.1,0.1h0.3v0.3H11c-0.1,0-0.1,0.1-0.1,0.1S10.9,6,11,6z"/>
</g>
<g>
	<g>
		<path d="M8,0C3.6,0,0,3.6,0,8s3.6,8,8,8s8-3.6,8-8l0,0C16,3.6,12.4,0,8,0z M1.4,8c0-3.7,3-6.6,6.6-6.6c1.5,0,2.9,0.5,4.1,1.4
			l-9.3,9.3C1.9,10.9,1.4,9.5,1.4,8z M8,14.6c-1.5,0-3-0.5-4.1-1.4l9.3-9.3c2.3,2.9,1.8,7-1.1,9.3C11,14.1,9.5,14.6,8,14.6z"/>
	</g>
</g>
</svg>
