<?xml version="1.0" encoding="utf-8"?>
<!-- Generator: Adobe Illustrator 24.0.0, SVG Export Plug-In . SVG Version: 6.00 Build 0)  -->
<svg version="1.1" id="Layer_1" xmlns="http://www.w3.org/2000/svg" xmlns:xlink="http://www.w3.org/1999/xlink" x="0px" y="0px"
	 viewBox="0 0 100 100.4" style="enable-background:new 0 0 100 100.4;" xml:space="preserve">
<title>TRAVEL (GLYPH)</title>
<g>
	<path d="M76.8,37.5v38.9c0,0.4-0.3,0.7-0.7,0.7c0,0,0,0,0,0H43.2c-0.4,0-0.7-0.3-0.7-0.7l0,0v-5.9h24.9c1.5,0,2.8-1.3,2.8-2.8V36.9
		h5.9C76.5,36.9,76.8,37.1,76.8,37.5C76.8,37.5,76.8,37.5,76.8,37.5z"/>
	<polygon points="39.3,51.9 40.8,57.7 34.9,56.2 36,55.1 37.1,54 38.1,53.1 	"/>
	<polygon points="20.1,31.5 21.4,32.8 18.7,35.6 15.9,38.4 14.6,37 	"/>
	<polygon points="34.8,53.3 32.8,55.3 17.4,39.9 19.4,37.9 27.1,45.6 	"/>
	<polygon points="38.4,49.8 38.2,49.9 36.4,51.7 28.7,44.1 21,36.4 23,34.4 32.1,43.5 32.1,43.5 	"/>
	<path d="M40.8,49.2c0.2,0.1,0.3,0.1,0.5,0.1h19.4c0.6,0,1.1-0.5,1.1-1.1c0-0.6-0.5-1.1-1.1-1.1H41.3c-0.6,0-1,0.5-1,1.1
		c0,0.1,0,0.3,0.1,0.4l-6.4-6.4V28.8c0-0.4,0.3-0.6,0.6-0.7c0,0,0,0,0,0h32.9c0.4,0,0.6,0.3,0.7,0.6c0,0,0,0,0,0v38.9
		c0,0.4-0.3,0.7-0.7,0.7c0,0,0,0,0,0H34.5c-0.4,0-0.7-0.3-0.7-0.6c0,0,0,0,0,0v-9.6l8,2c0.1,0,0.2,0.1,0.4,0.1h18.5
		c0.6,0,1.1-0.5,1.1-1.1s-0.5-1.1-1.1-1.1H43.1l-2.1-8.6l0,0v-0.1l0,0l0,0L40.8,49.2L40.8,49.2z M61.8,37.4c0-0.6-0.5-1-1.1-1H41.3
		c-0.6,0-1.1,0.5-1.1,1.1c0,0.6,0.5,1.1,1.1,1.1h19.4C61.3,38.5,61.8,38,61.8,37.4C61.8,37.4,61.8,37.4,61.8,37.4z"/>
</g>
<g>
	<g>
		<path d="M49.8,0C22.1,0-0.4,22.5-0.4,50.2s22.5,50.2,50.2,50.2S100,77.9,100,50.2l0,0C100,22.5,77.5,0,49.8,0z M8.2,50.2
			c0-23,18.7-41.6,41.6-41.6c9.3,0,18.4,3.1,25.7,8.9L17.1,75.9C11.3,68.6,8.2,59.5,8.2,50.2z M49.8,91.8c-9.4,0-18.5-3.2-25.9-9
			l58.5-58.5c14.3,18,11.3,44.2-6.7,58.5C68.4,88.6,59.2,91.8,49.8,91.8z"/>
	</g>
</g>
</svg>
