<?xml version="1.0" encoding="utf-8"?>
<!-- Generator: Adobe Illustrator 24.0.0, SVG Export Plug-In . SVG Version: 6.00 Build 0)  -->
<svg version="1.1" id="Layer_1" xmlns="http://www.w3.org/2000/svg" xmlns:xlink="http://www.w3.org/1999/xlink" x="0px" y="0px"
	 viewBox="0 0 90 90" style="enable-background:new 0 0 90 90;" xml:space="preserve">
<title>27</title>
<path d="M47,20.4c0,4.6-3.7,8.3-8.3,8.3s-8.3-3.7-8.3-8.3s3.7-8.3,8.3-8.3l0,0C43.3,12.1,47,15.9,47,20.4L47,20.4z M31.6,54.7
	c4.6,0,8.2-3.7,8.2-8.3s-3.7-8.2-8.3-8.2s-8.2,3.7-8.2,8.3S27,54.7,31.6,54.7L31.6,54.7z M39.7,53.3c-3.9,4.5-10.5,5-15,1.2
	c-0.5-0.4-0.8-0.8-1.2-1.2c-4.6,2.9-6.7,8.4-6.7,14.8c0,3.5,29.4,3.5,29.4,0C46.3,61.8,44.2,56.3,39.7,53.3z M69,42.3
	c-3.9,4.4-10.5,5-15,1.2c-0.5-0.4-0.8-0.8-1.2-1.2c-4.6,2.9-6.7,8.5-6.7,14.9c0,3.5,29.4,3.5,29.4,0C75.6,50.8,73.5,45.2,69,42.3z
	 M51.5,40.3c-1.4-2.7-1.6-5.8-0.6-8.6c-1-1.8-2.4-3.3-4.2-4.4c-3.8,4.4-10.4,5-14.9,1.2c-0.5-0.4-0.8-0.8-1.2-1.2
	c-3.7,2.4-5.7,6.5-6.4,11.5c4.2-4,11-3.9,15,0.4c1.4,1.6,2.4,3.5,2.8,5.6c1.9-0.1,3.8-0.2,5.4-0.4C48.5,42.8,49.9,41.4,51.5,40.3z
	 M60.9,43.7c4.6,0,8.2-3.7,8.2-8.3s-3.7-8.3-8.2-8.2c-4.6,0-8.2,3.7-8.2,8.3C52.7,39.9,56.4,43.7,60.9,43.7L60.9,43.7z"/>
<g>
	<g>
		<path d="M45,0C20.1,0,0,20.1,0,45s20.1,45,45,45s45-20.1,45-45l0,0C90,20.2,69.8,0,45,0z M7.7,45C7.7,24.4,24.4,7.7,45,7.7
			c8.4,0,16.5,2.8,23.1,8L15.7,68.1C10.5,61.5,7.7,53.4,7.7,45z M45,82.3c-8.4,0-16.6-2.8-23.2-8.1l52.4-52.4
			c12.8,16.1,10.2,39.6-6,52.4C61.6,79.5,53.4,82.3,45,82.3z"/>
	</g>
</g>
</svg>
