<?xml version="1.0" encoding="utf-8"?>
<!-- Generator: Adobe Illustrator 24.0.0, SVG Export Plug-In . SVG Version: 6.00 Build 0)  -->
<svg version="1.1" id="Layer_1" xmlns="http://www.w3.org/2000/svg" xmlns:xlink="http://www.w3.org/1999/xlink" x="0px" y="0px"
	 viewBox="0 0 87 87" style="enable-background:new 0 0 87 87;" xml:space="preserve">
<style type="text/css">
	.st0{stroke:#010101;stroke-width:0.5;stroke-miterlimit:10;}
	.st1{fill-rule:evenodd;clip-rule:evenodd;}
</style>
<g>
	<g>
		<g>
			<path d="M43.5,87C19.5,87,0,67.5,0,43.5S19.5,0,43.5,0S87,19.5,87,43.5S67.5,87,43.5,87z M43.5,7C23.4,7,7,23.4,7,43.5
				S23.4,80,43.5,80S80,63.6,80,43.5S63.6,7,43.5,7z"/>
		</g>
	</g>
	<g>
		<g>
			<rect x="3.5" y="40" transform="matrix(0.822 -0.5695 0.5695 0.822 -17.0298 32.5171)" width="80" height="7"/>
		</g>
	</g>
	<g>
		<g>
			<path class="st0" d="M17.6,39.3"/>
		</g>
	</g>
	<g>
		<g>
			<g>
				<g>
					<ellipse cx="42.1" cy="26.4" rx="5" ry="5"/>
				</g>
				<g>
					<path d="M42.1,31.8c-3,0-5.5-2.5-5.5-5.5s2.5-5.5,5.5-5.5s5.5,2.5,5.5,5.5S45.2,31.8,42.1,31.8z M42.1,21.9
						c-2.5,0-4.5,2-4.5,4.5s2,4.5,4.5,4.5s4.5-2,4.5-4.5S44.6,21.9,42.1,21.9z"/>
				</g>
			</g>
		</g>
	</g>
	<g>
		<g>
			<g>
				<g>
					<path d="M49.4,36.2l1.9,13.5c0.3,2.1-0.9,4.1-2.6,4.4l-4,0.7c-1.8,0.3-3.4-1.2-3.7-3.3L39,37.9c-0.3-2.1,0.9-4.1,2.6-4.4l4-0.7
						C47.4,32.6,49.1,34.1,49.4,36.2z"/>
				</g>
				<g>
					<path d="M44.2,55.2c-1.9,0-3.5-1.6-3.8-3.8L38.5,38c-0.3-2.4,1-4.6,3.1-4.9l4-0.7c2.1-0.3,4,1.4,4.3,3.8l1.9,13.5
						c0.3,2.4-1,4.6-3.1,4.9l-4,0.7C44.5,55.2,44.4,55.2,44.2,55.2z M46.1,33.3c-0.1,0-0.2,0-0.4,0l-4,0.7c-1.5,0.2-2.5,2-2.2,3.8
						l1.9,13.5c0.3,1.8,1.7,3.1,3.2,2.9l4-0.7c1.5-0.2,2.5-2,2.2-3.8l-1.9-13.5C48.6,34.6,47.4,33.3,46.1,33.3z"/>
				</g>
			</g>
		</g>
		<g>
			<g>
				<g>
					<path d="M51.3,49.7c0.3,2.1-0.9,4.1-2.6,4.4l-4,0.7c-1.8,0.3-3.4-1.2-3.7-3.3L39,37.9c-0.3-2.1,0.9-4.1,2.6-4.4l4-0.7
						c1.8-0.3,3.4,1.2,3.7,3.3L51.3,49.7z"/>
				</g>
				<g>
					<path d="M44.2,55c-1.7,0-3.3-1.5-3.5-3.6l-1.9-13.5c-0.3-2.3,1-4.3,2.9-4.7l4-0.7c1.9-0.3,3.7,1.3,4,3.5l1.9,13.5
						c0.3,2.3-1,4.3-2.9,4.7l-4,0.7C44.5,55,44.4,55,44.2,55z M46.1,33.1c-0.1,0-0.3,0-0.4,0l-4,0.7c-1.6,0.3-2.7,2.1-2.4,4.1
						l1.9,13.5c0.3,2,1.8,3.4,3.5,3.1l4-0.7c1.6-0.3,2.7-2.1,2.4-4.1l-1.9-13.5C48.9,34.5,47.6,33.1,46.1,33.1z"/>
				</g>
			</g>
		</g>
	</g>
	<g>
		<g>
			<g>
				<g>
					<path d="M41.1,53.5c-1.3,3.1-2.6,6.2-3.9,9.3c-0.5,1.3,0.6,2.8,1.8,3.1c1.5,0.4,2.6-0.5,3.1-1.8c1.3-3.1,2.6-6.2,3.9-9.3
						c0.5-1.3-0.6-2.8-1.8-3.1C42.8,51.4,41.7,52.3,41.1,53.5L41.1,53.5z"/>
				</g>
				<g>
					<path d="M39.7,66.6L39.7,66.6c-0.3,0-0.5,0-0.8-0.1c-0.8-0.2-1.6-0.9-2-1.7c-0.3-0.7-0.4-1.4-0.1-2.1l3.9-9.3
						c0.7-1.7,2.2-2.5,3.7-2.1c0.8,0.2,1.6,0.9,2,1.7c0.3,0.7,0.4,1.4,0.1,2.1l-3.9,9.3C42,65.8,40.9,66.6,39.7,66.6z M43.5,52.2
						c-0.8,0-1.6,0.6-2,1.6l-3.9,9.3c-0.2,0.5-0.1,0.9,0.1,1.2c0.3,0.6,0.8,1,1.4,1.2c1.1,0.3,2-0.3,2.5-1.5l3.9-9.3
						c0.2-0.5,0.1-0.9-0.1-1.3c-0.3-0.6-0.8-1-1.4-1.2C43.9,52.2,43.7,52.2,43.5,52.2z"/>
				</g>
			</g>
		</g>
	</g>
	<g>
		<g>
			<g>
				<g>
					<path d="M59.6,74.4c-2.6-7.4-5.2-14.9-7.8-22.3c-1.1-3.1-5.9-1.5-4.8,1.6c2.6,7.4,5.2,14.9,7.8,22.3
						C55.9,79,60.7,77.4,59.6,74.4L59.6,74.4z"/>
				</g>
				<g>
					<path d="M57.2,78.1L57.2,78.1c-1.3,0-2.4-0.8-2.8-2l-7.8-22.3c-0.3-0.9-0.2-1.8,0.3-2.6c0.6-0.8,1.6-1.3,2.7-1.3
						c1.3,0,2.4,0.7,2.8,2l7.8,22.3c0.3,0.9,0.2,1.8-0.3,2.6C59.2,77.6,58.2,78.1,57.2,78.1z M49.5,50.9c-0.7,0-1.5,0.4-1.8,0.9
						c-0.3,0.5-0.4,1.1-0.2,1.7l7.8,22.3c0.4,1.2,1.4,1.3,1.8,1.3l0,0c0.7,0,1.5-0.4,1.8-0.9c0.3-0.5,0.4-1.1,0.2-1.7l-7.8-22.3
						C51,51,50,50.9,49.5,50.9z"/>
				</g>
			</g>
		</g>
	</g>
	<g>
		<g>
			<g>
				<g>
					<path d="M51.8,36.5c3.5-4.6,7-9.2,10.5-13.8c2-2.6-2.1-5.6-4.1-3c-3.5,4.6-7,9.2-10.5,13.8C45.7,36.2,49.8,39.1,51.8,36.5
						L51.8,36.5z"/>
				</g>
				<g>
					<path d="M49.8,38L49.8,38c-1.2,0-2.4-0.7-2.9-1.8c-0.5-1-0.4-2.1,0.3-3l10.5-13.8c0.6-0.8,1.4-1.2,2.3-1.2
						c1.2,0,2.4,0.7,2.9,1.8c0.5,1,0.4,2.1-0.3,3L52.2,36.8C51.6,37.6,50.8,38,49.8,38z M60.1,19.2c-0.6,0-1.1,0.3-1.5,0.8
						L48.1,33.9c-0.6,0.8-0.5,1.5-0.2,1.9c0.4,0.7,1.2,1.3,2,1.3c0.6,0,1.1-0.3,1.5-0.8l10.5-13.8c0.6-0.8,0.5-1.5,0.2-1.9
						C61.7,19.7,60.9,19.2,60.1,19.2z"/>
				</g>
			</g>
		</g>
	</g>
	<g>
		<g>
			<g>
				<g>
					<path d="M41.7,76.6c0.1-4.1,0.3-8.2,0.4-12.3c0.1-3.3-4.9-3.3-5.1,0c-0.1,4.1-0.3,8.2-0.4,12.3C36.5,79.9,41.6,79.9,41.7,76.6
						L41.7,76.6z"/>
				</g>
				<g>
					<path d="M39.1,79.5L39.1,79.5c-0.9,0-1.7-0.3-2.2-0.9c-0.5-0.5-0.8-1.3-0.7-2.1l0.4-12.3c0.1-1.9,1.6-2.9,3.1-2.9
						c0.9,0,1.7,0.3,2.2,0.9c0.5,0.5,0.8,1.3,0.7,2.1l-0.4,12.3C42.2,78.5,40.6,79.5,39.1,79.5z M39.7,62.3c-1,0-2.1,0.6-2.1,2
						l-0.4,12.3c0,0.6,0.1,1,0.5,1.4c0.4,0.4,0.9,0.6,1.5,0.6c1,0,2.1-0.6,2.1-2l0.4-12.3c0-0.6-0.1-1-0.5-1.4
						C40.9,62.6,40.3,62.3,39.7,62.3z"/>
				</g>
			</g>
		</g>
	</g>
	<g>
		<g>
			<g>
				<g>
					<path d="M38.9,35.5c-3,2.6-5.9,5.1-8.9,7.7c-2.5,2.1,1,5.8,3.4,3.7c3-2.6,5.9-5.1,8.9-7.7C44.8,37.1,41.3,33.4,38.9,35.5
						L38.9,35.5z"/>
				</g>
				<g>
					<path d="M31.8,48.1C31.8,48.1,31.8,48.1,31.8,48.1c-1.3,0-2.5-0.9-3-2.1c-0.4-1.1-0.1-2.3,0.8-3.1l8.9-7.7
						c0.6-0.5,1.2-0.8,1.9-0.8c1.3,0,2.5,0.9,3,2.1c0.4,1.1,0.1,2.3-0.8,3.1l-8.9,7.7C33.1,47.8,32.5,48.1,31.8,48.1z M40.5,35.4
						c-0.5,0-0.9,0.2-1.3,0.5l-8.9,7.7c-0.9,0.7-0.7,1.6-0.6,2c0.3,0.9,1.2,1.5,2,1.5h0c0.5,0,0.9-0.2,1.3-0.5l8.9-7.7
						c0.9-0.7,0.7-1.6,0.6-2C42.2,36,41.3,35.4,40.5,35.4z"/>
				</g>
			</g>
		</g>
	</g>
	<g>
		<g>
			<g>
				<g>
					<path d="M33,42.7c-1.3-1.2-2.7-2.5-4-3.7c-1-0.9-2.5-1.1-3.6-0.2c-1,0.9-1.2,2.6-0.1,3.6c1.3,1.2,2.7,2.5,4,3.7
						c1,0.9,2.5,1.1,3.6,0.2C33.8,45.4,34,43.6,33,42.7L33,42.7z"/>
				</g>
				<g>
					<path d="M31.2,47.4L31.2,47.4c-0.8,0-1.6-0.3-2.3-0.9l-4-3.7c-0.5-0.5-0.8-1.2-0.8-2c0-0.9,0.4-1.7,1-2.3c1.2-1.1,3-1,4.3,0.2
						l4,3.7c0.5,0.5,0.8,1.2,0.8,2c0,0.9-0.4,1.7-1,2.3C32.7,47.1,32,47.4,31.2,47.4z M27.1,38.6c-0.5,0-0.9,0.2-1.3,0.5
						c-0.4,0.4-0.7,1-0.7,1.6c0,0.5,0.2,1,0.5,1.3l4,3.7c0.5,0.4,1,0.7,1.6,0.7h0c0.5,0,0.9-0.2,1.3-0.5c0.4-0.4,0.7-1,0.7-1.6
						c0-0.5-0.2-1-0.5-1.3l-4-3.7C28.2,38.9,27.6,38.6,27.1,38.6z"/>
				</g>
			</g>
		</g>
	</g>
	<g>
		<g>
			<rect x="48.5" y="0.7" transform="matrix(0.5075 -0.8617 0.8617 0.5075 11.4727 50.3476)" width="2.5" height="29"/>
		</g>
		<g>
			<path d="M61.6,24.1c-0.1,0-0.2,0-0.3-0.1l-25-14.7c-0.1-0.1-0.2-0.2-0.2-0.3c0-0.1,0-0.3,0.1-0.4l1.3-2.1
				c0.1-0.2,0.4-0.3,0.7-0.2l25,14.7c0.1,0.1,0.2,0.2,0.2,0.3c0,0.1,0,0.3-0.1,0.4l-1.3,2.1C62,24,61.8,24.1,61.6,24.1z M37.4,8.7
				l24.1,14.2l0.8-1.3L38.1,7.4L37.4,8.7z"/>
		</g>
	</g>
	<g>
		<g>
			<path class="st1" d="M28.9,20.8c0.3-0.2-0.2-0.5-0.2-0.2C28.8,20.7,28.8,20.8,28.9,20.8z M27.3,22.5c0.1,0.1,0.2,0.3,0,0.4
				c0.2,0.1,0.3,0.3,0.3,0.5c0.3,0.1,0.4,0.3,0.5,0.5c0.3-0.2,0.6-0.1,0.9,0c0.1-0.2,0.2-0.3,0.4-0.2c0.3-0.3,0.2-0.6,0.5-0.8
				c-0.3-0.3-0.1-0.7-0.2-1c-0.1,0-0.2,0.1-0.3,0c-0.1-0.1,0-0.2-0.1-0.3c-0.2,0.1-0.4,0-0.5-0.2c-0.3,0.1-0.6,0.1-0.8,0.1
				c0,0.3-0.3,0.4-0.5,0.4C27.5,22.1,27.6,22.3,27.3,22.5z M33.3,25.9c0.2,0.3,0.6,0.3,0.9,0.1C34,25.7,33.6,25.6,33.3,25.9
				C33.3,25.8,33.3,25.9,33.3,25.9z M35.1,29.4c0.1-0.1,0.1-0.1,0.2-0.2c-0.2-0.1-0.1-0.4-0.3-0.6c-0.1-0.2-0.4-0.3-0.4-0.5
				c-0.2,0.1-0.3,0-0.4-0.2c-0.3,0.2-0.6-0.1-0.8,0.3c-0.1,0-0.1-0.1-0.1-0.1c-0.1,0.1,0,0.1-0.1,0.2c-0.1,0.1-0.2-0.1-0.3,0.1
				c0.1,0.2-0.1,0.5-0.2,0.7c0.1,0.2,0,0.5,0.2,0.7c-0.3-0.1-0.6-0.2-0.9,0.2c0.4,0.9,1.4-0.2,1.9,0.6c0.4-0.2,1-0.2,1.1-0.8
				c0.1,0,0.2,0.1,0.3-0.1C35.2,29.5,35,29.5,35.1,29.4z M20.9,23.3c-0.1-0.2-0.2-0.4-0.4-0.6C20.4,22.9,20.8,23.2,20.9,23.3z
				 M30.7,35.6c0,0.2,0.3,0.3,0.4,0.2C31.1,35.6,30.8,35.5,30.7,35.6z M15.8,32.1c-0.1-0.1-0.2,0-0.3-0.1c-0.1-0.2,0-0.4,0.1-0.5
				c-0.1-0.1-0.2,0-0.3-0.1c-0.1-0.1,0-0.2,0-0.4c-0.3-0.2-0.3-0.4-0.3-0.6c-0.1,0-0.2,0.1-0.3,0c-0.2-0.4-0.5,0-0.7-0.4
				c-0.4,0.3-0.8,0.2-1.2-0.1c-0.2,0.2,0.1,0.3,0,0.5c-0.2,0.3-0.4,0.3-0.6,0.4c0,0.3-0.2,0.6-0.4,0.9c0.2,0.1,0.1,0.3,0.1,0.4
				c0.2,0.1,0.3,0.2,0.2,0.4c-0.1,0.2-0.2,0.2-0.3,0.3c0.2,0.1,0.4,0,0.6,0.2c0.1,0.2,0,0.4,0.4,0.6c0.1-0.1,0.2-0.1,0.3-0.1
				c0.1,0.1-0.1,0.3,0.1,0.4c0.2,0,0.2-0.4,0.5-0.2c0.1,0.1,0,0.2,0.1,0.3c0.1-0.1,0.2-0.2,0.3-0.3c0.3,0,0.1,0.4,0.3,0.4
				c0.1-0.1-0.1-0.2,0-0.4c0.3-0.1,0.4-0.6,0.7-0.6c0.2,0,0.5,0.6,0.8,0.6C15.1,33.3,15.1,32.3,15.8,32.1z M22.9,37.8
				c0,0.3,0.3,0.4,0.6,0.7C23.6,38.3,23.1,38,22.9,37.8z M15.6,33.9c0.2,0.2,0.4,0.4,0.6,0.7C16.3,34.3,15.9,34,15.6,33.9z
				 M10.3,30.9c0.1-0.3-0.4-0.4-0.5-0.2c-0.2,0.2,0,0.4-0.2,0.6c0.3,0.5,0.7-0.1,1-0.1c0-0.1,0-0.1,0-0.2
				C10.5,30.9,10.4,30.9,10.3,30.9z M20.5,40.2c-0.1,0.2,0.2,0.4,0.2,0.5C20.9,40.5,20.7,40.3,20.5,40.2z M18.7,40.3
				c0.2-0.3,0.3-0.6,0.3-0.9C18.8,39.7,18.7,40,18.7,40.3z M31.9,30.6l0.1-0.1c-0.1-0.2-0.1-0.2-0.4-0.2c0-0.2-0.2-0.2-0.2-0.3
				c-0.2,0.1-0.3,0.1-0.5-0.1c-0.3,0.2-0.8,0.1-1,0.4c-0.1,0.2-0.1,0.5-0.3,0.5c-0.1-1-1.7-1.4-2.2-2.1c0.3-0.2,0.6-0.3,0.8-0.4
				c0.1,0.1,0.4,0,0.4-0.2c-0.5-0.2-1,0.4-1.5,0.1c0-0.3-0.2-0.5-0.2-0.9c0.4-0.5,0.3-0.9,0.4-1.3c0-0.2,0.2-0.3,0-0.5
				c-0.1,0-0.1,0-0.2,0c-0.2,0.2-0.1,0.3-0.3,0.5c-0.5-0.1-0.8-0.8-1-1.2c-0.2,0.2-0.1,0.3-0.3,0.5c-0.5-0.1-0.5-0.5-0.9-0.6
				c-0.1-0.2,0-0.5-0.2-0.8c-0.1-0.3,0.2-0.7,0-1.1c-0.2,0.2-0.1,0.3-0.1,0.5c0,0.2-0.1,0.6-0.2,0.8c0,0.3,0.1,0.5,0,0.7
				c-0.2,0.2-0.5,0-0.8,0c-0.9,0.7-1.6-0.4-2.1-1.2c0.2,0.5,0.7,1,0.8,1.6c-0.4,0-0.8,0-1.1,0.2c-0.2-0.2-0.1-0.4-0.4-0.5
				c-0.2,0.1,0.1,0.3,0,0.4c-0.6-0.3-0.4-0.9-1-1.2c0,0,0-0.1,0-0.1c0.1-0.1,0.2-0.1,0.2-0.2c-0.1-0.2,0-0.4,0.1-0.6
				c-0.1-0.3-0.2-0.6,0-0.9c-0.1-0.2-0.2,0.1-0.3-0.1c0.1-0.3-0.2-0.3-0.3-0.6c-0.1,0-0.1,0.1-0.2,0.1c-0.3-0.4-0.5-0.1-0.7-0.2
				c-0.1-0.3-0.1-0.5-0.4-0.6c-0.1,0.2,0.2,0.3,0.2,0.5c-0.4,0.2-0.7,0.4-1,0.6c0.1,0.2,0,0.4-0.3,0.6c0,0.3,0.1,0.7,0,1
				c0.1,0.1,0.2,0,0.3,0.1c0,0.1,0.1,0.3,0,0.5c0.4,0.1,0.8,0.4,1.1,0.6c0.1,0,0.2-0.2,0.2-0.2c0.1,0.1,0.2,0.1,0.3,0.1
				c0.1,0,0.1-0.2,0.2-0.1c0.4,0.4,1.1,0.9,1.2,1.4c-0.2,0.4-0.4,0.8-0.8,1c-0.1,0-0.2-0.2-0.3-0.3c-0.1-0.1,0.1-0.2,0-0.3
				c-0.6-0.3-1.2-0.4-1.8-0.1c-0.1,0.2-0.2,0.4-0.4,0.6c-0.1,0.4,0.1,0.8,0.1,1.2c0.2-0.1,0.4,0.1,0.4,0.3c0.5,0.1,1,0.2,1.4-0.1
				c0.5,0.4,0.1,0.8,0.3,1.2c-0.5,0.4-0.9,0.7-1.4,1c0.4,0,0.8-0.3,1.2-0.7c0.2,0.1,0.3,0.1,0.5,0.1c0,0.1,0.1,0.3,0,0.4
				c-0.1,0.1-0.2,0-0.3,0.1c0.4,0.3,1,0.7,0.5,1.2c0.1,0.2,0.2,0,0.3,0.1c0.1,0.5-0.5,1.4-1,1.5c0-0.4,0.3-0.7-0.1-1
				c-0.4-0.3-0.9,0.2-0.9,0.7c0.2,0.4,0.3,0.8,0.8,0.6c0.1,0.6-0.7,1.1-1.1,1c-0.1-0.1-0.3-0.1-0.4,0c0,0,0,0.1,0,0.1
				c0.1,0.2,0.3,0.3,0.5,0.4c0,0.2,0,0.4-0.2,0.7c-0.2,0-0.5-0.1-0.6,0.1c0.2-0.1,0.6,0.1,0.7,0.4c-0.1,0.1-0.1,0.2-0.2,0.4
				c0.2,0.3,0.2,0.6,0.5,0.8c0,0.2-0.2,0.3-0.2,0.5c0.2,0.2,0.3-0.1,0.5,0.1c0,0.2-0.3,0.3-0.1,0.5c0.2,0.1,0.3-0.2,0.4-0.2
				c0.3,0.1,0.4,0.3,0.6,0.5c0,0.1-0.1,0.2,0,0.2c0.1,0,0-0.2,0.1-0.2c0.1,0.1,0,0.2,0.2,0.3c0.1-0.1,0.1-0.3,0.3-0.3
				c0.6,0.5,1.1-0.1,1.7-0.1c0.4,0.2,0.5,0.7,0.8,0.8c-0.1-0.2-0.2-0.3-0.2-0.5c0.1,0,0.3,0.1,0.4-0.1c-0.2-0.2-0.3-0.1-0.5-0.1
				c0-0.1-0.3-0.3-0.2-0.4c0.2-0.3,0.3-0.2,0.5-0.2c0.1-0.2,0.1-0.3,0.2-0.5c0.1-0.1,0.3,0.1,0.4,0c0.1-0.1-0.1-0.2-0.2-0.4
				c0.1-0.3,0.2-0.2,0.4-0.4c-0.2-0.2-0.3-0.5,0-0.7c-0.2-0.2-0.4-0.5-0.1-0.8c0-0.1-0.1-0.2-0.1-0.4c0,0,0.2,0,0.2-0.1
				c-0.2,0.1-0.5-0.3-0.5-0.5c-0.1-0.1-0.3,0.1-0.4-0.1c0-0.1,0-0.1,0.1-0.2c0.3,0,0.7,0.4,1,0.5c0.3-0.3,0.4-0.8,0.8-1
				c0,0,0.1,0,0.1,0c0,0.1,0.1,0.2,0.2,0.3c0,0.6,0.4,1,0.6,1.6c0.1-0.5-0.8-1.2,0-1.9c-0.2-0.2-0.4,0.1-0.5-0.1
				c0.3-0.2,0.6,0,0.9-0.1c0.9,0.4,0.8,1.5,1.8,1.8c0.9-0.7-0.8-1.8-0.3-2.4c0.3-0.4,0.5,0,0.9,0.1c0.1-0.3-0.4-0.4-0.4-0.7
				c0.2-0.3,0.5-0.1,0.7,0c0.2-0.3,0.5-0.2,0.7-0.3c0.1-0.2-0.3-0.4-0.1-0.6c0.4-0.1,1-0.4,1.2,0.2c0.3,0,0.3,0.2,0.3,0.5
				c0.2,0,0.3,0.1,0.4,0.3c0.4-0.1,1.1,0.1,1.3-0.5c0.1-0.1,0.2,0,0.4-0.2C31.9,31.4,32.1,31,31.9,30.6z M21.2,33.6
				c0.1,0,0.3,0.2,0.1,0.4C21.2,34,21.1,33.8,21.2,33.6z M24.4,33.8c0.1,0.2-0.1,0.4-0.1,0.5C24.2,34.2,24.2,33.9,24.4,33.8z
				 M19,32.1c-0.4,0-0.9-0.1-1.1,0C18.3,32.1,18.7,32.2,19,32.1z M15.9,33.7c0.1,0,0.4,0.4,0.6,0.3C16.3,33.9,16,33.6,15.9,33.7z"/>
		</g>
	</g>
</g>
</svg>
