<?xml version="1.0" encoding="utf-8"?>
<!-- Generator: Adobe Illustrator 24.0.0, SVG Export Plug-In . SVG Version: 6.00 Build 0)  -->
<svg version="1.1" id="Layer_1" xmlns:sodipodi="http://sodipodi.sourceforge.net/DTD/sodipodi-0.dtd"
	 xmlns="http://www.w3.org/2000/svg" xmlns:xlink="http://www.w3.org/1999/xlink" x="0px" y="0px" viewBox="0 0 100 100"
	 style="enable-background:new 0 0 100 100;" xml:space="preserve">
<path d="M39.1,49.5c-0.9,0-1.7,0.8-1.7,1.7c0,0.9,0.8,1.7,1.7,1.7h29.3c0.9,0,1.7-0.8,1.7-1.7c0-0.9-0.8-1.7-1.7-1.7H39.1z"/>
<path d="M80.7,35.1c-2,0-3.8,1.8-3.8,3.8c0,2,1.8,3.8,3.8,3.8c2,0,3.8-1.8,3.8-3.8C84.4,36.9,82.6,35.1,80.7,35.1z"/>
<path d="M79.2,64.9c-1.6,0-3-1.1-3.3-2.6l-2.8-14.1c0-0.2-0.1-0.4-0.1-0.6c0-1.9,1.5-3.4,3.4-3.4h8.3c1.9,0,3.4,1.5,3.4,3.4
	c0,0.2,0,0.4-0.1,0.6l-2.8,14.1c-0.3,1.5-1.7,2.6-3.3,2.6L79.2,64.9z"/>
<path d="M26.8,35.1c-2,0-3.8,1.8-3.8,3.8c0,2,1.8,3.8,3.8,3.8c2,0,3.8-1.8,3.8-3.8C30.6,36.9,28.8,35.1,26.8,35.1z"/>
<path d="M25.4,64.9c-1.6,0-3-1.1-3.3-2.6l-2.8-14.1c0-0.2-0.1-0.4-0.1-0.6c0-1.9,1.5-3.4,3.4-3.4h8.3c1.9,0,3.4,1.5,3.4,3.4
	c0,0.2,0,0.4-0.1,0.6l-2.8,14.1c-0.3,1.5-1.7,2.6-3.3,2.6L25.4,64.9z"/>
<path d="M50.9,14.4c-0.9,0-1.7,0.8-1.7,1.7c0,0.9,0.8,1.7,1.7,1.7h29.3c0.9,0,1.7-0.8,1.7-1.7c0-0.9-0.8-1.7-1.7-1.7H50.9z"/>
<path d="M92.5,0c-2,0-3.8,1.8-3.8,3.8c0,2,1.8,3.8,3.8,3.8c2,0,3.8-1.8,3.8-3.8C96.3,1.8,94.5,0,92.5,0z"/>
<path d="M91.1,29.7c-1.6,0-3-1.1-3.3-2.6L85,13c0-0.2-0.1-0.4-0.1-0.6c0-1.9,1.5-3.4,3.4-3.4h8.3c1.9,0,3.4,1.5,3.4,3.4
	c0,0.2,0,0.4-0.1,0.6l-2.8,14.1c-0.3,1.5-1.7,2.6-3.3,2.6L91.1,29.7z"/>
<path d="M38.6,0c-2,0-3.8,1.8-3.8,3.8c0,2,1.8,3.8,3.8,3.8c2,0,3.8-1.8,3.8-3.8C42.4,1.8,40.6,0,38.6,0z"/>
<path d="M37.2,29.7c-1.6,0-3-1.1-3.3-2.6L31.2,13c0-0.2-0.1-0.4-0.1-0.6c0-1.9,1.5-3.4,3.4-3.4h8.3c1.9,0,3.4,1.5,3.4,3.4
	c0,0.2,0,0.4-0.1,0.6l-2.8,14.1c-0.3,1.5-1.7,2.6-3.3,2.6L37.2,29.7z"/>
<path d="M19.8,84.6c-0.9,0-1.7,0.8-1.7,1.7c0,0.9,0.8,1.7,1.7,1.7h29.3c0.9,0,1.7-0.8,1.7-1.7c0-0.9-0.8-1.7-1.7-1.7H19.8z"/>
<path d="M61.4,70.3c-2,0-3.8,1.8-3.8,3.8c0,2,1.8,3.8,3.8,3.8c2,0,3.8-1.8,3.8-3.8C65.2,72.1,63.4,70.3,61.4,70.3z"/>
<path d="M60,100c-1.6,0-3-1.1-3.3-2.6l-2.8-14.1c0-0.2-0.1-0.4-0.1-0.6c0-1.9,1.5-3.4,3.4-3.4h8.3c1.9,0,3.4,1.5,3.4,3.4
	c0,0.2,0,0.4-0.1,0.6l-2.8,14.1c-0.3,1.5-1.7,2.6-3.3,2.6L60,100z"/>
<path d="M7.5,70.3c-2,0-3.8,1.8-3.8,3.8c0,2,1.8,3.8,3.8,3.8c2,0,3.8-1.8,3.8-3.8C11.3,72.1,9.5,70.3,7.5,70.3z"/>
<path d="M6.1,100c-1.6,0-3-1.1-3.3-2.6L0.1,83.3C0,83.1,0,82.9,0,82.7c0-1.9,1.5-3.4,3.4-3.4h8.3c1.9,0,3.4,1.5,3.4,3.4
	c0,0.2,0,0.4-0.1,0.6l-2.8,14.1C12,98.9,10.5,100,9,100L6.1,100z"/>
</svg>
