<?xml version="1.0" encoding="utf-8"?>
<!-- Generator: Adobe Illustrator 24.0.0, SVG Export Plug-In . SVG Version: 6.00 Build 0)  -->
<svg version="1.1" id="Layer_1" xmlns="http://www.w3.org/2000/svg" xmlns:xlink="http://www.w3.org/1999/xlink" x="0px" y="0px"
	 viewBox="0 0 90 86.2" style="enable-background:new 0 0 90 86.2;" xml:space="preserve">
<style type="text/css">
	.st0{fill-rule:evenodd;clip-rule:evenodd;}
</style>
<path class="st0" d="M38.1,45.8c0,2.3,1.8,4.1,4.1,4.1s4.1-1.8,4.1-4.1c0-2.3-1.8-4.1-4.1-4.1S38.1,43.5,38.1,45.8z"/>
<path class="st0" d="M48,52.6c2.1,4.2,4.2,13.7,4.2,13.7c0.3,0.8-0.1,1.6-0.9,1.9c-0.8,0.3-1.6-0.1-1.9-0.9l-2.8-9.1l0,3.1l4.3,13.6
	h-4.7v9.5c0,1-0.8,1.8-1.8,1.8s-1.8-0.8-1.8-1.8v-9c0-0.3-0.2-0.5-0.4-0.5c-0.2,0-0.4,0.2-0.4,0.5v9c0,1-0.8,1.8-1.8,1.8
	c-1,0-1.8-0.8-1.8-1.8v-9.5h-4.7l4.3-13.6l0-3.1l-2.8,9.1c-0.3,0.8-1.1,1.2-1.9,0.9c-0.8-0.3-1.2-1.1-0.9-1.9c0,0,2-9.5,4.2-13.7
	c0.5-1,2-1.6,3.1-1.6h5.3C46,50.9,47.5,51.6,48,52.6z"/>
<circle class="st0" cx="71.2" cy="10.6" r="7.6"/>
<path class="st0" d="M82,23.3c4,7.9,7.8,25.7,7.8,25.7c0.5,1.4-0.2,3.1-1.7,3.6c-1.4,0.5-3.1-0.2-3.6-1.7l-5.2-17.1l0,5.8l8,25.5
	h-8.7v17.7c0,1.9-1.5,3.4-3.3,3.4S72,84.7,72,82.8V66c0-0.5-0.3-0.9-0.8-0.9s-0.8,0.4-0.8,0.9v16.8c0,1.9-1.5,3.4-3.3,3.4
	c-1.8,0-3.3-1.5-3.3-3.4V65.1h-8.7l8-25.5l0-5.8l-5.2,17.1c-0.5,1.4-2.1,2.2-3.6,1.7c-1.4-0.5-2.2-2.1-1.7-3.6
	c0,0,3.8-17.7,7.8-25.7c0.9-1.8,3.7-3.1,5.8-3.1h9.9C78.3,20.2,81.1,21.5,82,23.3z"/>
<circle class="st0" cx="16.1" cy="7.6" r="7.6"/>
<path class="st0" d="M0,30.7l0,18.9C0,51.5,1.5,53,3.4,53c1.9,0,3.2-1.6,3.2-3.5v-17c0-0.6,1.1-0.6,1.1,0v49.8
	c0,2.1,1.7,3.8,3.8,3.8h0c2.1,0,3.8-1.7,3.8-3.8V53.1c0-0.4,0.4-0.8,0.7-0.8c0.3,0,0.7,0.3,0.7,0.8v29.3c0,2.1,1.7,3.8,3.8,3.8h0
	c2.1,0,3.8-1.7,3.8-3.8V32.6c0-0.6,1.1-0.6,1.1,0v17c0,1.9,1.3,3.5,3.2,3.5c1.9,0,3.3-1.6,3.3-3.5l0-18.9c0-8.7-7.7-13.4-16.1-13.4
	C7.7,17.3,0,22,0,30.7z"/>
</svg>
