<?xml version="1.0" encoding="utf-8"?>
<!-- Generator: Adobe Illustrator 24.0.0, SVG Export Plug-In . SVG Version: 6.00 Build 0)  -->
<svg version="1.1" id="Layer_1" xmlns="http://www.w3.org/2000/svg" xmlns:xlink="http://www.w3.org/1999/xlink" x="0px" y="0px"
	 viewBox="0 0 90 90" style="enable-background:new 0 0 90 90;" xml:space="preserve">
<path d="M59,32.5H29.5v17.6H0v30.7h29.5H31H59h1.6H90v-69H59V32.5z M12.9,65.4c0-1.5,1.2-2.7,2.7-2.7s2.7,1.2,2.7,2.7
	c0,1.5-1.2,2.7-2.7,2.7S12.9,66.9,12.9,65.4z M45,53.2c-1.5,0-2.7-1.2-2.7-2.7s1.2-2.7,2.7-2.7s2.7,1.2,2.7,2.7S46.5,53.2,45,53.2z
	 M45,60.1c1.5,0,2.7,1.2,2.7,2.7c0,1.5-1.2,2.7-2.7,2.7s-2.7-1.2-2.7-2.7C42.3,61.3,43.5,60.1,45,60.1z M74.5,55.9
	c1.5,0,2.7,1.2,2.7,2.7s-1.2,2.7-2.7,2.7s-2.7-1.2-2.7-2.7S73,55.9,74.5,55.9z M74.5,49c-1.5,0-2.7-1.2-2.7-2.7s1.2-2.7,2.7-2.7
	s2.7,1.2,2.7,2.7S76,49,74.5,49z M74.5,36.7c-1.5,0-2.7-1.2-2.7-2.7s1.2-2.7,2.7-2.7s2.7,1.2,2.7,2.7S76,36.7,74.5,36.7z"/>
</svg>
