<?xml version="1.0" encoding="utf-8"?>
<!-- Generator: Adobe Illustrator 24.0.0, SVG Export Plug-In . SVG Version: 6.00 Build 0)  -->
<svg version="1.1" id="Layer_1" xmlns="http://www.w3.org/2000/svg" xmlns:xlink="http://www.w3.org/1999/xlink" x="0px" y="0px"
	 viewBox="0 0 100 60" style="enable-background:new 0 0 100 60;" xml:space="preserve">
<title>rating</title>
<path d="M91.7,31.9c-0.2,0-0.4-0.1-0.6-0.2l-7.9-4.2l-7.9,4.2c-0.6,0.3-1.4,0.1-1.7-0.5c-0.1-0.2-0.2-0.5-0.1-0.8l1.5-8.8l-6.4-6.3
	c-0.5-0.5-0.5-1.3,0-1.8c0.2-0.2,0.5-0.3,0.7-0.4l8.8-1.3l4-8c0.2-0.4,0.7-0.7,1.2-0.7l0,0c0.5,0,0.9,0.3,1.2,0.7l4,8l8.9,1.3
	c0.7,0.1,1.2,0.8,1.1,1.5c0,0.3-0.2,0.5-0.4,0.7l-6.4,6.3l1.5,8.8c0.1,0.7-0.4,1.4-1.1,1.5C91.9,31.9,91.8,31.9,91.7,31.9L91.7,31.9
	z M83.2,24.9c0.2,0,0.4,0.1,0.6,0.2l6.2,3.2l-1.2-7c-0.1-0.4,0.1-0.8,0.4-1.1l5-4.9l-7-1c-0.4,0-0.8-0.3-1-0.7l-3.1-6.3L80,13.6
	c-0.2,0.4-0.6,0.7-1,0.7l-7,1l5,4.9c0.3,0.3,0.4,0.7,0.4,1.1l-1.2,7l6.2-3.3C82.6,24.9,82.9,24.8,83.2,24.9L83.2,24.9z M65,14
	c-0.1-0.5-0.5-0.8-1-0.9l-8.9-1.3l-4-8C50.8,3.2,50,3,49.4,3.3c-0.2,0.1-0.4,0.3-0.6,0.6l-4,8L36,13.1c-0.7,0.1-1.2,0.8-1.1,1.5
	c0,0.3,0.2,0.5,0.4,0.7l6.4,6.3l-1.5,8.8c-0.1,0.7,0.4,1.4,1,1.5c0.3,0,0.6,0,0.8-0.1l8-4.2l7.9,4.2c0.6,0.3,1.4,0.1,1.7-0.5
	c0.1-0.2,0.2-0.5,0.1-0.8l-1.5-8.8l6.4-6.3C65,15,65.1,14.5,65,14z M31.8,14c-0.1-0.5-0.5-0.8-1-0.9L22,11.8l-4-8
	c-0.3-0.6-1.1-0.9-1.7-0.6c-0.2,0.1-0.4,0.3-0.6,0.6l-4,8l-8.9,1.3c-0.7,0.1-1.2,0.8-1.1,1.5c0,0.3,0.2,0.5,0.4,0.7l6.4,6.3
	l-1.5,8.8c-0.1,0.7,0.4,1.4,1,1.5c0.3,0,0.6,0,0.8-0.1l7.9-4.2l7.9,4.2c0.6,0.3,1.4,0.1,1.7-0.5c0.1-0.2,0.2-0.5,0.1-0.8l-1.5-8.8
	l6.4-6.3C31.9,15,32,14.5,31.8,14L31.8,14z"/>
</svg>
