<?xml version="1.0" encoding="utf-8"?>
<!-- Generator: Adobe Illustrator 24.0.0, SVG Export Plug-In . SVG Version: 6.00 Build 0)  -->
<svg version="1.1" id="Layer_1" xmlns="http://www.w3.org/2000/svg" xmlns:xlink="http://www.w3.org/1999/xlink" x="0px" y="0px"
	 viewBox="0 0 407.9 244.3" style="enable-background:new 0 0 407.9 244.3;" xml:space="preserve">
<path d="M284.2,20.9c0,1.2,0.9,2.4,2.6,3.4c3.6,2.2,10.7,3.7,18.9,3.7c10.8,0,19.7-2.7,21.2-6.1c0.3,3.9-8.6,8.4-20.1,10.2
	c-2.2,0.3-4.3,0.6-6.4,0.7c1.5,11,10.9,19.5,22.3,19.5c12.4,0,22.5-10.1,22.5-22.5c0-12.4-10.1-22.5-22.5-22.5
	c-6.2,0-11.8,2.5-15.8,6.5c-0.4,0-0.8,0-1.2,0C293.8,13.7,284.2,17,284.2,20.9z"/>
<path d="M136.1,52.3c12.4,0,22.5-10.1,22.5-22.5c0-12.4-10.1-22.5-22.5-22.5c-12.4,0-22.5,10.1-22.5,22.5
	C113.6,42.2,123.7,52.3,136.1,52.3z M139.9,35.6c4.8-1.9,9.7-0.9,10.9,2.1c1.2,3.1-1.7,7.1-6.5,9c-4.8,1.9-9.7,0.9-10.9-2.1
	C132.3,41.5,135.2,37.5,139.9,35.6z"/>
<path d="M104.3,88.4c0.9-2.6,1.9-4.8,2.9-6.5c0.6-1.1,1.3-2.1,1.9-2.9v47.3l0,0.2c0.1,3,0.1,6.2,0.1,9.4c0,1.9-0.5,3.7-1.3,5.3
	l-7.3,89.7c-0.6,6.8,4.5,12.8,11.3,13.3c6.8,0.6,12.8-4.5,13.3-11.3l7.4-91.1h7l7.4,91.1c0.6,6.8,6.5,11.9,13.3,11.3
	c6.8-0.6,11.9-6.5,11.3-13.3l-8.5-104.6v-58l65.1-20.4c4.2-1.3,6.6-5.8,5.2-10c-1.3-4.2-5.8-6.6-10-5.2L142.5,58h-25.8
	c-0.7,0-1.4,0.1-2,0.3c-3,0.4-6.3,1.3-9.6,3.1c-3.3,1.8-6.3,4.5-9,8.1c0.7,1,1.3,2.1,2,3.2C100.7,77.1,102.7,82.3,104.3,88.4z"/>
<path d="M16,135.9c-0.1-30,4.2-46.4,8.6-54.1c0.5-0.9,1-1.6,1.5-2.3v46.7l-8.5,104.6c-0.6,6.8,4.5,12.8,11.3,13.3
	c6.8,0.6,12.8-4.5,13.3-11.3l7.4-91.1h7l7.4,91.1c0.6,6.8,6.5,11.9,13.3,11.3c6.8-0.6,11.9-6.5,11.3-13.3l-8-98.3L27.8,59.2
	c-1.7,0.5-3.5,1.2-5.2,2.2c-6.8,3.9-12.6,11.3-16.4,23C2.3,96.1,0,112.4,0,135.9c0,4.4,3.6,8,8,8S16,140.4,16,135.9z"/>
<path d="M80.1,79.5c1.5,2.2,3.1,5.3,4.7,9.8c3.1,9.2,5.4,24.1,5.4,46.6c0,4.4,3.6,8,8,8c4.4,0,8-3.6,8-8c-0.1-31.4-4-50-10.6-61.9
	c-3.3-5.9-7.4-10.1-12-12.7c-3-1.7-6-2.6-8.8-3C74,58.1,73.2,58,72.4,58H34.3l45.8,63.6V79.5z"/>
<polygon points="31.3,5.2 31.3,12.6 75,12.6 82.6,0 "/>
<path d="M31.3,14.6V24c-0.5,1.8-0.7,3.7-0.7,5.7c0,12.4,10.1,22.5,22.5,22.5c12.4,0,22.5-10.1,22.5-22.5c0-1.9-0.2-3.8-0.7-5.5h10.4
	l-10-9.6L31.3,14.6L31.3,14.6z"/>
<path d="M246.3,115c1,3.5,4.2,5.8,7.7,5.8c0.7,0,1.5-0.1,2.2-0.3l31-9c3.6-1,6-4.4,5.8-8.2c-0.1-1.8-0.2-3.5-0.2-5.1
	c0-8.2,1.2-15.3,2.8-20.3v48.5l-8.5,104.6c-0.6,6.8,4.5,12.8,11.3,13.3c6.8,0.6,12.8-4.5,13.3-11.3l7.4-91.1h7l7.4,91.1
	c0.6,6.8,6.5,11.9,13.3,11.3c6.8-0.6,11.9-6.5,11.3-13.3l-8.5-104.6V77.8c0.1,0.3,0.2,0.7,0.3,1.1c1.5,5,2.5,11.6,2.5,19.3
	c0,1.7,0,3.4-0.1,5.1c-0.2,3.7,2.2,7.1,5.8,8.1l31,9c0.7,0.2,1.5,0.3,2.2,0.3c3.5,0,6.7-2.3,7.7-5.8c1.2-4.2-1.2-8.7-5.5-9.9
	l-25.1-7.3c0-11.3-1.9-20.9-4.8-28.3c-1.5-3.7-3.2-6.9-5.5-9.6c-1.2-1.3-2.5-2.6-4.2-3.6c-1.7-1-3.8-1.8-6.3-1.8
	c-2.7,0-5.4,1.1-7.2,2.6c-0.3,0.2-0.6,0.5-0.8,0.7h-34.1c-0.3-0.3-0.5-0.5-0.8-0.8c-1.9-1.5-4.6-2.6-7.2-2.6c-2.4,0-4.6,0.8-6.3,1.8
	c-2.9,1.8-4.8,4.1-6.5,6.8c-2.5,4-4.4,8.9-5.8,14.8c-1.4,5.8-2.2,12.5-2.2,19.8l-25.1,7.3C247.5,106.3,245.1,110.8,246.3,115z"/>
</svg>
