<?xml version="1.0" encoding="utf-8"?>
<!-- Generator: Adobe Illustrator 24.0.0, SVG Export Plug-In . SVG Version: 6.00 Build 0)  -->
<svg version="1.1" id="Layer_1" xmlns="http://www.w3.org/2000/svg" xmlns:xlink="http://www.w3.org/1999/xlink" x="0px" y="0px"
	 viewBox="0 0 90 90" style="enable-background:new 0 0 90 90;" xml:space="preserve">
<g>
	<g>
		<path d="M55.8,65.9c1.1,0.3,2.2,0.4,3.3,0.4c3.6,0,7-1.5,9.4-4.1l-22-5.9C47.6,60.9,51.1,64.7,55.8,65.9z"/>
		<path d="M14,33.5c1.2,0,2.3-0.3,3.3-0.9c1.9-1.1,3.1-3,3.3-5L11.3,33C12.2,33.4,13.1,33.5,14,33.5z"/>
		<path d="M36.4,25.8c0-0.1,0-0.2,0.1-0.3c0,0,0-0.1,0-0.1c0,0,0,0,0,0c0.1-0.2,0.2-0.4,0.4-0.5c0,0,0.1-0.1,0.1-0.1c0,0,0,0,0,0
			c0.1-0.1,0.2-0.1,0.3-0.1c0.1,0,0.1,0,0.2-0.1c0.3-0.1,0.6-0.2,1-0.3c0.1,0,0.2,0,0.2-0.1c0.2-0.1,0.4-0.1,0.6-0.2h-5.1
			C34.9,24.7,35.6,25.3,36.4,25.8z"/>
		<path d="M51.3,37.8c-1-0.6-2.2-0.9-3.3-0.9c-0.9,0-1.8,0.2-2.7,0.6l9.3,5.4C54.4,40.7,53.2,38.8,51.3,37.8z"/>
		<path d="M73.7,43.8c-2.1,0-4.1,1-5.4,2.7H79C77.8,44.8,75.8,43.8,73.7,43.8z"/>
		<path d="M33,53.8l-11.1,3c-0.1,0-0.2,0-0.4,0c-0.3,0-0.6-0.1-0.9-0.3c-0.3-0.3-0.5-0.7-0.5-1.1c0.5-6.6,5.1-12.2,11.5-13.9
			c0.6-0.2,1.2-0.3,1.8-0.4c0.4-3.8,1.1-7.9,2.2-12.3c0-0.1,0-0.2,0.1-0.3c-2.3-1.1-4-3-4.9-5.4c-0.1-0.4-0.1-0.9,0.2-1.2
			c0.3-0.4,0.7-0.6,1.1-0.6h15.2c0.4,0,0.9,0.2,1.1,0.6c0.1,0.1,0.1,0.1,0.1,0.2c1.6-0.2,3.1-0.4,4.7-0.5c-0.5-3.2-1.2-6.6-2.1-9.9
			c-5.7-2.1-11.2-3.1-16.5-3.1C22.2,8.5,10.6,14.2,0,25.4c8.3,30.2,23.5,41,34,41c0.4,0,0.8,0,1.1,0c-0.8-2.7-1.5-5.6-1.8-8.7
			C33.2,56.4,33.1,55.1,33,53.8z M14,36.3c-2.3,0-4.4-0.8-6.2-2.3c-0.3-0.3-0.5-0.7-0.5-1.2c0-0.4,0.3-0.8,0.7-1l13.1-7.6
			c0.4-0.2,0.8-0.2,1.2-0.1c0.4,0.2,0.7,0.5,0.8,1C24,29,22.1,33,18.7,35C17.2,35.8,15.6,36.3,14,36.3z"/>
		<path d="M56.3,24.2c-3,0-6.2,0.3-9.4,0.9c-0.1,0-0.2,0-0.3,0.1c-0.2,0-0.5,0.1-0.7,0.1c-0.1,0-0.3,0.1-0.4,0.1
			c-0.2,0-0.4,0.1-0.6,0.1c-0.1,0-0.3,0.1-0.4,0.1c-0.2,0-0.4,0.1-0.6,0.1c-0.1,0-0.3,0.1-0.4,0.1c-0.2,0-0.4,0.1-0.6,0.2
			c-0.1,0-0.3,0.1-0.4,0.1c-0.2,0.1-0.4,0.1-0.6,0.2c-0.2,0-0.3,0.1-0.5,0.1c-0.2,0.1-0.4,0.1-0.6,0.2c-0.2,0-0.3,0.1-0.5,0.1
			c-0.3,0.1-0.6,0.2-0.9,0.2c-0.1,0-0.2,0-0.2,0.1c-0.1,0.2-0.1,0.5-0.2,0.7L38.6,28c0,0,0,0.1,0,0.1c-1.2,5-2.1,9.8-2.6,14.3
			c0,0,0,0,0,0c-0.3,3.3-0.5,6.5-0.4,9.6c0,0.1,0,0.1,0,0.2c0,0.3,0,0.6,0,0.9c0.3,6,1.4,10.6,2.6,13.9c0,0.1,0.1,0.2,0.1,0.3
			c1,2.7,2.3,5.1,3.9,7.2c3.6,4.7,8.3,7.1,13.6,7.1c10.6,0,25.8-10.8,34-41C80.8,29.7,69.5,24.2,56.3,24.2z M42.1,38.6
			c-0.4-0.2-0.6-0.6-0.7-1s0.1-0.9,0.5-1.2c1.7-1.5,3.9-2.3,6.2-2.3c1.6,0,3.3,0.4,4.7,1.3c3.5,2,5.3,6,4.5,9.9
			c-0.1,0.4-0.4,0.8-0.8,1c-0.2,0.1-0.4,0.1-0.6,0.1c-0.2,0-0.5-0.1-0.7-0.2L42.1,38.6z M72,62.2c-2.9,4.3-7.7,6.9-12.9,6.9
			c-1.4,0-2.7-0.2-4-0.5c-6.4-1.7-11-7.3-11.5-13.9c0-0.4,0.2-0.9,0.5-1.1c0.3-0.3,0.8-0.4,1.2-0.3l25.9,7c0.4,0.1,0.8,0.4,0.9,0.8
			C72.3,61.4,72.2,61.8,72,62.2z M81.3,49.2C81.3,49.2,81.3,49.2,81.3,49.2H66.1c-0.4,0-0.8-0.2-1.1-0.6c-0.3-0.4-0.3-0.8-0.2-1.2
			c1.3-3.8,4.9-6.3,8.9-6.3c4,0,7.5,2.5,8.8,6.2c0.1,0.2,0.1,0.4,0.1,0.5C82.6,48.6,82,49.2,81.3,49.2z"/>
		<path d="M32.3,44c-4.7,1.2-8.2,5-9.2,9.6l9.7-2.6c0-2.2,0-4.6,0.2-7.1C32.9,43.9,32.6,44,32.3,44z"/>
	</g>
</g>
</svg>
