<?xml version="1.0" encoding="utf-8"?>
<!-- Generator: Adobe Illustrator 24.0.0, SVG Export Plug-In . SVG Version: 6.00 Build 0)  -->
<svg version="1.1" id="Layer_1" xmlns="http://www.w3.org/2000/svg" xmlns:xlink="http://www.w3.org/1999/xlink" x="0px" y="0px"
	 viewBox="0 0 90 90" style="enable-background:new 0 0 90 90;" xml:space="preserve">
<title>27</title>
<path d="M46.2,12.7c0,7-5.7,12.7-12.7,12.7s-12.7-5.7-12.7-12.7S26.5,0,33.5,0l0,0C40.5,0,46.2,5.7,46.2,12.7L46.2,12.7z M22.5,65.2
	c7,0,12.6-5.7,12.6-12.7s-5.7-12.6-12.7-12.6S9.8,45.6,9.8,52.6C9.8,59.6,15.5,65.2,22.5,65.2L22.5,65.2z M34.9,63.1
	C29,70,18.8,70.8,12,65c-0.7-0.6-1.3-1.2-1.8-1.8C3.2,67.6,0,76.1,0,85.9c0,5.4,45,5.4,45,0C45,76.1,41.8,67.6,34.9,63.1z
	 M79.9,46.2C74,53,63.8,53.8,57,48c-0.7-0.6-1.3-1.2-1.8-1.8C48.2,50.6,45,59.2,45,69c0,5.4,45,5.4,45,0
	C90,59.2,86.8,50.6,79.9,46.2z M53.1,43.2c-2.2-4.1-2.5-8.9-0.9-13.2c-1.5-2.8-3.7-5.1-6.4-6.8C40,30,29.8,30.8,23,25
	c-0.7-0.6-1.3-1.2-1.8-1.8c-5.7,3.7-8.8,10-9.8,17.6c6.5-6.2,16.8-5.9,23,0.6c2.2,2.4,3.7,5.4,4.3,8.6c2.9-0.1,5.8-0.3,8.3-0.6
	C48.5,46.9,50.6,44.8,53.1,43.2z M67.5,48.3c7,0,12.6-5.7,12.6-12.7S74.4,22.9,67.5,23c-7,0-12.6,5.7-12.6,12.7
	C54.8,42.6,60.5,48.3,67.5,48.3L67.5,48.3z"/>
</svg>
