<?xml version="1.0" encoding="utf-8"?>
<!-- Generator: Adobe Illustrator 24.0.0, SVG Export Plug-In . SVG Version: 6.00 Build 0)  -->
<svg version="1.1" id="Layer_1" xmlns="http://www.w3.org/2000/svg" xmlns:xlink="http://www.w3.org/1999/xlink" x="0px" y="0px"
	 viewBox="0 0 66 66" style="enable-background:new 0 0 66 66;" xml:space="preserve">
<g>
	<g>
		<path d="M33,66C14.8,66,0,51.2,0,33S14.8,0,33,0s33,14.8,33,33S51.2,66,33,66z M33,2C15.9,2,2,15.9,2,33s13.9,31,31,31
			s31-13.9,31-31S50.1,2,33,2z"/>
	</g>
	<g>
		<g>
			<g>
				<path d="M45.9,27.2c-0.8,0-1.5-0.2-2.2-0.6c-2.1-1.3-2.7-4.2-1.5-7c0.2-0.5,0.8-0.7,1.3-0.5c0.5,0.2,0.7,0.8,0.5,1.3
					c-0.7,1.5-0.8,3.6,0.7,4.5c1.4,0.9,3.2-0.2,4.3-1.5c0.3-0.4,1-0.5,1.4-0.2c0.4,0.3,0.5,1,0.2,1.4C49.3,26.3,47.5,27.2,45.9,27.2
					z"/>
			</g>
			<g>
				<path d="M51.5,25.9c-0.2,0-0.4,0-0.5-0.1L41,19.9c-0.5-0.3-0.6-0.9-0.3-1.4c0.3-0.5,0.9-0.6,1.4-0.3l9.9,5.9
					c0.5,0.3,0.6,0.9,0.3,1.4C52.1,25.8,51.8,25.9,51.5,25.9z"/>
			</g>
		</g>
		<g>
			<g>
				<path d="M20.1,27.2c-1.6,0-3.4-0.9-4.7-2.6c-0.3-0.4-0.3-1.1,0.2-1.4c0.4-0.3,1.1-0.3,1.4,0.2c1,1.3,2.8,2.4,4.3,1.5
					c1.4-0.9,1.3-2.9,0.7-4.5c-0.2-0.5,0-1.1,0.5-1.3c0.5-0.2,1.1,0,1.3,0.5c1.3,2.8,0.7,5.7-1.5,7C21.6,27,20.9,27.2,20.1,27.2z"/>
			</g>
			<g>
				<path d="M14.5,25.9c-0.3,0-0.7-0.2-0.9-0.5c-0.3-0.5-0.1-1.1,0.3-1.4l9.9-5.9c0.5-0.3,1.1-0.1,1.4,0.3c0.3,0.5,0.1,1.1-0.3,1.4
					l-9.9,5.9C14.9,25.9,14.7,25.9,14.5,25.9z"/>
			</g>
		</g>
	</g>
	<g>
		<path d="M45.9,50.8h-7.2c-0.6,0-1-0.4-1-1s0.4-1,1-1h6.1c-0.4-4-2.8-7.5-6.6-9.3c-3.3-1.6-7.3-1.6-10.6,0
			c-3.8,1.8-6.2,5.3-6.6,9.3h6.1c0.6,0,1,0.4,1,1s-0.4,1-1,1h-7.2c-0.6,0-1-0.4-1-1c0-5.2,3-9.8,7.7-12.1c3.9-1.9,8.5-1.9,12.3,0
			c4.8,2.3,7.7,6.9,7.7,12.1C46.9,50.3,46.5,50.8,45.9,50.8z"/>
	</g>
	<g>
		<path d="M37.1,60.1h-0.6c-1.4,0-2.6-1.2-2.6-2.6V56c0-0.3-0.3-0.6-0.6-0.6s-0.6,0.3-0.6,0.6c0,1.5-1.2,2.6-2.6,2.6h-1.1
			c-1.4,0-2.6-1.2-2.6-2.6V38.6c0-0.6,0.4-1,1-1s1,0.4,1,1V56c0,0.3,0.3,0.6,0.6,0.6H30c0.3,0,0.6-0.3,0.6-0.6
			c0-1.5,1.2-2.6,2.6-2.6s2.6,1.2,2.6,2.6v1.6c0,0.3,0.3,0.6,0.6,0.6h0.6c0.3,0,0.6-0.3,0.6-0.6v-19c0-0.6,0.4-1,1-1s1,0.4,1,1v19
			C39.7,59,38.6,60.1,37.1,60.1z"/>
	</g>
</g>
</svg>
