<svg height='100px' width='100px'  fill="#000000" xmlns="http://www.w3.org/2000/svg" xmlns:xlink="http://www.w3.org/1999/xlink" version="1.1" x="0px" y="0px" viewBox="0 0 100 100" enable-background="new 0 0 100 100" xml:space="preserve"><g><path d="M18.7,77.547v7.317h6.504v5.559l7.58,0.002v-5.561h5.994v-7.317h-5.995l-0.001-5.388   C46.987,70.295,57.988,58.122,57.99,43.42c0-15.989-13.009-28.996-28.995-28.996C13.006,14.424,0,27.431,0,43.42   c0,14.702,11.003,26.877,25.205,28.739v5.388H18.7L18.7,77.547z M7.58,43.421c-0.002-11.81,9.606-21.415,21.415-21.416   c11.806,0,21.415,9.607,21.416,21.416c-0.001,11.808-9.607,21.415-21.416,21.415C17.186,64.836,7.577,55.229,7.58,43.421z"></path><path d="M86.678,25.868l5.846-5.846l5.367,5.367L100,7.109l-18.278,2.11l5.365,5.365l-5.848,5.848   c-11.524-8.85-28.149-8.011-38.697,2.536c-11.468,11.471-11.468,30.131,0,41.598c11.47,11.467,30.131,11.467,41.602,0   C94.687,54.022,95.531,37.393,86.678,25.868z M47.978,59.13c-8.47-8.472-8.471-22.254,0-30.726c8.472-8.471,22.253-8.471,30.725,0   c8.474,8.473,8.474,22.255,0,30.726C70.231,67.598,56.45,67.598,47.978,59.13z"></path></g></svg>