<?xml version="1.0" encoding="utf-8"?>
<!-- Generator: Adobe Illustrator 24.0.0, SVG Export Plug-In . SVG Version: 6.00 Build 0)  -->
<svg version="1.1" id="Layer_1" xmlns="http://www.w3.org/2000/svg" xmlns:xlink="http://www.w3.org/1999/xlink" x="0px" y="0px"
	 viewBox="0 0 50 50" style="enable-background:new 0 0 50 50;" xml:space="preserve">
<g>
	<path d="M39.2,21.3c-1.8,0-3.3,1.3-3.6,2.9h-4.5c-0.1-1.3-0.6-2.4-1.4-3.4l3.2-3.2c0.6,0.4,1.3,0.6,2,0.6c1,0,1.9-0.4,2.6-1.1
		c1.4-1.4,1.4-3.8,0-5.2c-0.7-0.7-1.6-1.1-2.6-1.1c-1,0-1.9,0.4-2.6,1.1c-1.3,1.3-1.4,3.2-0.5,4.6l-3.2,3.2c-1-0.8-2.1-1.3-3.4-1.4
		v-4.5c1.7-0.3,2.9-1.8,2.9-3.6c0-2-1.6-3.7-3.7-3.7s-3.7,1.6-3.7,3.7c0,1.8,1.3,3.3,2.9,3.6v4.5c-1.3,0.1-2.4,0.6-3.4,1.4l-3.2-3.2
		c0.9-1.4,0.8-3.4-0.5-4.6c-0.7-0.7-1.6-1.1-2.6-1.1s-1.9,0.4-2.6,1.1c-1.4,1.4-1.4,3.8,0,5.2c0.7,0.7,1.6,1.1,2.6,1.1
		c0.7,0,1.4-0.2,2-0.6l3.2,3.2c-0.8,1-1.3,2.1-1.4,3.4h-4.5c-0.3-1.7-1.8-2.9-3.6-2.9c-2,0-3.7,1.6-3.7,3.7c0,2,1.6,3.7,3.7,3.7
		c1.8,0,3.3-1.3,3.6-2.9H18c0.1,1.3,0.6,2.4,1.4,3.4l-3.2,3.2c-0.6-0.4-1.3-0.6-2-0.6c-1,0-1.9,0.4-2.6,1.1c-1.4,1.4-1.4,3.8,0,5.2
		c0.7,0.7,1.6,1.1,2.6,1.1s1.9-0.4,2.6-1.1c1.3-1.3,1.4-3.2,0.5-4.6l3.2-3.2c1,0.8,2.1,1.3,3.4,1.4v4.5c-1.7,0.3-2.9,1.8-2.9,3.6
		c0,2,1.6,3.7,3.7,3.7s3.7-1.6,3.7-3.7c0-1.8-1.3-3.3-2.9-3.6v-4.5c1.3-0.1,2.4-0.6,3.4-1.4l3.2,3.2c-0.9,1.4-0.8,3.4,0.5,4.6
		c0.7,0.7,1.6,1.1,2.6,1.1c1,0,1.9-0.4,2.6-1.1c1.4-1.4,1.4-3.8,0-5.2c-0.7-0.7-1.6-1.1-2.6-1.1c-0.7,0-1.4,0.2-2,0.6l-3.2-3.2
		c0.8-1,1.3-2.1,1.4-3.4h4.5c0.3,1.7,1.8,2.9,3.6,2.9c2,0,3.7-1.6,3.7-3.7S41.3,21.3,39.2,21.3z"/>
</g>
<g>
	<g>
		<path d="M25,0C11.2,0,0,11.2,0,25s11.2,25,25,25s25-11.2,25-25l0,0C50,11.2,38.8,0,25,0z M4.3,25C4.3,13.5,13.6,4.3,25,4.3
			c4.7,0,9.2,1.6,12.8,4.4L8.7,37.8C5.8,34.2,4.3,29.7,4.3,25z M25,45.7c-4.7,0-9.2-1.6-12.9-4.5l29.1-29.1c7.1,9,5.6,22-3.3,29.1
			C34.2,44.2,29.7,45.7,25,45.7z"/>
	</g>
</g>
</svg>
