<?xml version="1.0" encoding="utf-8"?>
<!-- Generator: Adobe Illustrator 24.0.0, SVG Export Plug-In . SVG Version: 6.00 Build 0)  -->
<svg version="1.1" id="Layer_1" xmlns="http://www.w3.org/2000/svg" xmlns:xlink="http://www.w3.org/1999/xlink" x="0px" y="0px"
	 viewBox="0 0 692.7 512.6" style="enable-background:new 0 0 692.7 512.6;" xml:space="preserve">
<style type="text/css">
	.st0{enable-background:new    ;}
	.st1{fill:none;stroke:#000000;stroke-width:0.75;}
	.st2{clip-path:url(#SVGID_2_);}
	.st3{clip-path:url(#SVGID_4_);}
	.st4{clip-path:url(#SVGID_6_);}
	.st5{clip-path:url(#SVGID_8_);}
	.st6{clip-path:url(#SVGID_10_);}
	.st7{clip-path:url(#SVGID_12_);}
	.st8{clip-path:url(#SVGID_14_);}
	.st9{clip-path:url(#SVGID_16_);}
</style>
<g class="st0">
	<path d="M45.4,82.6v-6.7h1l2.5,5.6l2.5-5.6h1v6.7h-0.7l0-5.9l-2.6,5.9h-0.5l-2.6-5.9l0,5.9H45.4z"/>
	<path d="M58.6,82.6h-0.7v-1c-0.4,0.7-1.1,1.1-2,1.1c-1.6,0-2.5-1.2-2.5-2.6c0-1.4,1-2.6,2.5-2.6c1,0,1.7,0.6,2,1.2v-1h0.7V82.6z
		 M54.1,80.1c0,0.9,0.6,1.9,1.9,1.9c0.9,0,1.5-0.5,1.7-1.2c0.1-0.2,0.2-0.5,0.2-0.8c0-0.3,0-0.5-0.2-0.8c-0.3-0.7-0.9-1.2-1.8-1.2
		C54.9,78.2,54.1,79.1,54.1,80.1L54.1,80.1z"/>
	<path d="M59.9,77.7h0.6v1c0.4-0.7,1.1-1.1,2-1.1c1.6,0,2.5,1.3,2.5,2.6c0,1.3-1,2.5-2.5,2.5c-1.1,0-1.8-0.6-2-1.1v1v1.8h-0.7V77.7z
		 M64.4,80.1c0-0.9-0.6-1.9-1.9-1.9c-0.5,0-1,0.2-1.4,0.6c-0.3,0.4-0.5,0.8-0.5,1.4c0,0.5,0.2,1,0.6,1.4c0.3,0.3,0.8,0.5,1.4,0.5
		C63.5,82.1,64.4,81.2,64.4,80.1L64.4,80.1z"/>
</g>
<rect y="64.9" class="st1" width="110.2" height="28.6"/>
<g class="st0">
	<path d="M43.3,124.2c-0.4,1-1.6,1.9-3.1,1.9c-2,0-3.5-1.5-3.5-3.4c0-1.9,1.5-3.4,3.5-3.4c1.6,0,2.7,1.1,3.1,1.9h-0.8
		c-0.2-0.4-1-1.3-2.3-1.3c-1.6,0-2.7,1.2-2.7,2.8c0,1.6,1.2,2.8,2.7,2.8c1.4,0,2.1-1,2.3-1.3H43.3z"/>
	<path d="M44,123.5c0-1.4,1-2.5,2.6-2.5c1.6,0,2.6,1.2,2.6,2.6s-1,2.5-2.6,2.5C45,126.1,44,124.9,44,123.5L44,123.5z M44.7,123.6
		c0,1.1,0.8,1.9,1.9,1.9c1.1,0,1.9-0.8,1.9-1.9s-0.8-1.9-1.9-1.9C45.5,121.6,44.7,122.4,44.7,123.6L44.7,123.6z"/>
	<path d="M50.1,121.1h0.6v0.8c0.3-0.6,1-0.9,1.5-0.9c0.5,0,1,0.2,1.3,0.5c0.1,0.1,0.3,0.5,0.3,0.5c0.1-0.1,0.2-0.3,0.4-0.5
		c0.3-0.3,0.8-0.5,1.3-0.5c0.5,0,1,0.1,1.3,0.5c0.4,0.4,0.5,0.9,0.5,1.8v2.7h-0.7v-2.7c0-0.5-0.1-1-0.4-1.3c-0.2-0.3-0.5-0.4-1-0.4
		c-0.4,0-0.8,0.2-1.1,0.5c-0.2,0.3-0.3,0.6-0.3,1.2v2.7h-0.7v-2.7c0-0.5-0.1-0.9-0.3-1.2c-0.2-0.3-0.6-0.5-1.1-0.5
		c-0.5,0-0.8,0.2-1,0.5c-0.2,0.3-0.3,0.6-0.3,1.2v2.7h-0.7V121.1z"/>
	<path d="M58.7,121.1h0.6v1c0.4-0.7,1.1-1.1,2-1.1c1.6,0,2.5,1.3,2.5,2.6c0,1.3-1,2.5-2.5,2.5c-1.1,0-1.8-0.6-2-1.1v1v1.8h-0.7
		V121.1z M63.2,123.5c0-0.9-0.6-1.9-1.9-1.9c-0.5,0-1,0.2-1.4,0.6c-0.3,0.4-0.5,0.8-0.5,1.4c0,0.5,0.2,1,0.6,1.4
		c0.3,0.3,0.8,0.5,1.4,0.5C62.4,125.5,63.2,124.7,63.2,123.5L63.2,123.5z"/>
	<path d="M69.8,126h-0.7v-1c-0.4,0.7-1.1,1.1-2,1.1c-1.6,0-2.5-1.2-2.5-2.6c0-1.4,1-2.6,2.5-2.6c1,0,1.7,0.6,2,1.2v-1h0.7V126z
		 M65.3,123.6c0,0.9,0.6,1.9,1.9,1.9c0.9,0,1.5-0.5,1.7-1.2c0.1-0.2,0.2-0.5,0.2-0.8c0-0.3,0-0.5-0.2-0.8c-0.3-0.7-0.9-1.2-1.8-1.2
		C66.1,121.6,65.3,122.5,65.3,123.6L65.3,123.6z"/>
	<path d="M73.2,122.3c0-0.5-0.3-0.8-0.8-0.8c-0.5,0-0.9,0.4-0.8,0.8c0,0.5,0.4,0.6,1,0.8c0.7,0.2,1.5,0.4,1.5,1.4
		c0,0.9-0.7,1.5-1.6,1.5c-0.8,0-1.6-0.5-1.7-1.5h0.7c0,0.7,0.5,1,1,1c0.6,0,0.9-0.4,0.9-0.9c0-0.5-0.4-0.8-1.2-1
		c-0.7-0.2-1.2-0.5-1.3-1.3c0-0.9,0.7-1.4,1.5-1.4c0.7,0,1.4,0.4,1.5,1.4H73.2z"/>
	<path d="M77.3,122.3c0-0.5-0.3-0.8-0.8-0.8c-0.5,0-0.9,0.4-0.8,0.8c0,0.5,0.4,0.6,1,0.8c0.7,0.2,1.5,0.4,1.5,1.4
		c0,0.9-0.7,1.5-1.6,1.5c-0.8,0-1.6-0.5-1.7-1.5h0.7c0,0.7,0.5,1,1,1c0.6,0,0.9-0.4,0.9-0.9c0-0.5-0.4-0.8-1.2-1
		c-0.7-0.2-1.2-0.5-1.3-1.3c0-0.9,0.7-1.4,1.5-1.4c0.7,0,1.4,0.4,1.5,1.4H77.3z"/>
</g>
<rect x="15.8" y="108.3" class="st1" width="83.3" height="28.6"/>
<g class="st0">
	<path d="M239.8,134.9h2c0.9,0,2,0.2,2.6,1c0.5,0.6,0.8,1.4,0.8,2.3c0,2-1.1,3.3-3.4,3.3h-2V134.9z M240.5,140.9h1.3
		c1.7,0,2.6-1.1,2.6-2.7c0-0.8-0.2-1.5-0.6-1.9c-0.4-0.5-1-0.7-2-0.7h-1.3V140.9z"/>
	<path d="M246.2,134.9h0.7v0.9h-0.7V134.9z M246.2,136.7h0.7v4.8h-0.7V136.7z"/>
</g>
<g class="st0">
	<path d="M248.3,137.2h-0.7v-0.5h0.7v-0.4c0-1.5,1.2-1.5,1.7-1.5v0.5c-0.3,0-1,0-1,1.1v0.3h1v0.5h-1v4.3h-0.7V137.2z"/>
</g>
<g class="st0">
	<path d="M251.1,137.2v4.3h-0.7v-4.3h-0.7v-0.5h0.7v-0.4c0-1.5,1.2-1.5,1.7-1.5v0.5c-0.3,0-1,0-1,1.1v0.3h2.1v4.8h-0.7v-4.3H251.1z
		 M252.6,135.8v-0.9h0.7v0.9H252.6z"/>
	<path d="M259.2,139.9c-0.3,1-1.3,1.8-2.4,1.8c-1.6,0-2.6-1.3-2.6-2.6c0-1.4,1.1-2.6,2.6-2.6c1.1,0,2.1,0.6,2.5,1.8h-0.7
		c-0.3-0.8-1.1-1.2-1.8-1.2c-0.6,0-1,0.2-1.4,0.5c-0.3,0.3-0.5,0.8-0.5,1.4c0,1.1,0.9,1.9,1.9,1.9c0.9,0,1.5-0.6,1.8-1.2H259.2z"/>
	<path d="M264.6,141.6H264v-0.9c-0.3,0.6-0.9,1-1.8,1c-1.5,0-2-1.1-2-2.2v-2.7h0.7v2.6c0,1,0.5,1.7,1.6,1.7c1,0,1.6-0.6,1.6-1.6
		v-2.7h0.7V141.6z"/>
	<path d="M265.9,134.9h0.7v6.7h-0.7V134.9z"/>
	<path d="M268.3,137.2h-1v-0.5h1v-1.8h0.7v1.8h1.1v0.5h-1.1v4.3h-0.7V137.2z"/>
	<path d="M272,141.5l-1.9-4.8h0.7l1.5,3.9l1.6-3.9h0.7l-2.8,6.7h-0.7L272,141.5z"/>
</g>
<rect x="215.3" y="123.9" class="st1" width="83.3" height="28.6"/>
<g class="st0">
	<path d="M422.2,137.5c0.1,1.1,0.9,1.3,1.3,1.3c0.7,0,1.3-0.5,1.3-1.3c0-0.9-0.8-1.1-1.6-1.4c-0.5-0.2-1.7-0.5-1.7-1.8
		c0-1.2,1-1.8,2-1.8c0.8,0,1.8,0.5,1.9,1.7h-0.7c-0.1-0.4-0.3-1.1-1.2-1.1c-0.7,0-1.2,0.5-1.2,1.1c0,0.8,0.6,1,1.7,1.4
		c0.6,0.2,1.6,0.6,1.6,1.8c0,1.1-0.8,2-2.1,2c-1.1,0-2-0.7-2.1-2H422.2z"/>
	<path d="M426.8,137.2c0,1.2,1.1,1.8,1.9,1.8c0.7,0,1.4-0.4,1.7-1h0.7c-0.2,0.5-0.6,0.9-1,1.2c-0.4,0.3-0.9,0.4-1.4,0.4
		c-1.7,0-2.6-1.3-2.6-2.5c0-1.4,1.1-2.6,2.5-2.6c0.7,0,1.3,0.2,1.8,0.7c0.6,0.5,0.8,1.3,0.8,2.1H426.8z M430.6,136.6
		c0-0.8-0.9-1.7-1.9-1.6c-1,0-1.8,0.8-1.9,1.6H430.6z"/>
	<path d="M432.2,132.7h0.7v6.7h-0.7V132.7z"/>
	<path d="M434.4,137.2c0,1.2,1.1,1.8,1.9,1.8c0.7,0,1.3-0.4,1.7-1h0.7c-0.2,0.5-0.6,0.9-1,1.2c-0.4,0.3-0.9,0.4-1.4,0.4
		c-1.7,0-2.6-1.3-2.6-2.5c0-1.4,1.1-2.6,2.5-2.6c0.7,0,1.3,0.2,1.8,0.7c0.6,0.5,0.8,1.3,0.8,2.1H434.4z M438.2,136.6
		c0-0.8-0.9-1.7-1.9-1.6c-1,0-1.8,0.8-1.9,1.6H438.2z"/>
	<path d="M444.5,137.7c-0.3,1-1.3,1.8-2.4,1.8c-1.6,0-2.6-1.3-2.6-2.6c0-1.4,1.1-2.6,2.6-2.6c1.1,0,2.1,0.6,2.5,1.8h-0.7
		c-0.3-0.8-1.1-1.2-1.8-1.2c-0.6,0-1,0.2-1.4,0.5c-0.3,0.3-0.5,0.8-0.5,1.4c0,1.1,0.9,1.9,1.9,1.9c0.9,0,1.5-0.6,1.8-1.2H444.5z"/>
	<path d="M445.8,135.1h-1v-0.5h1v-1.8h0.7v1.8h1.1v0.5h-1.1v4.3h-0.7V135.1z"/>
	<path d="M456.4,134.5c-0.2-0.3-0.5-0.5-0.7-0.7c-0.4-0.3-1-0.5-1.5-0.5c-1.5,0-2.7,1.1-2.7,2.8c0,1.7,1.3,2.8,2.7,2.8
		c0.7,0,1.3-0.2,1.8-0.6c0.5-0.4,0.8-0.9,0.9-1.4h-3.3v-0.6h4.2c0,0.4-0.1,0.9-0.3,1.3c-0.6,1.3-1.9,2-3.2,2c-1.9,0-3.5-1.5-3.5-3.5
		c0-2,1.6-3.4,3.5-3.4c1.3,0,2.6,0.8,3.1,1.8H456.4z"/>
	<path d="M463.4,139.4h-0.7v-1c-0.4,0.7-1.1,1.1-2,1.1c-1.6,0-2.5-1.2-2.5-2.6c0-1.4,1-2.6,2.5-2.6c1,0,1.7,0.6,2,1.2v-1h0.7V139.4z
		 M458.9,137c0,0.9,0.6,1.9,1.9,1.9c0.9,0,1.5-0.5,1.7-1.2c0.1-0.2,0.2-0.5,0.2-0.8c0-0.3,0-0.5-0.2-0.8c-0.3-0.7-0.9-1.2-1.8-1.2
		C459.7,135,458.9,135.9,458.9,137L458.9,137z"/>
	<path d="M464.7,134.5h0.6v0.8c0.3-0.6,1-0.9,1.5-0.9c0.5,0,1,0.2,1.3,0.5c0.1,0.1,0.3,0.5,0.3,0.5c0.1-0.1,0.2-0.3,0.4-0.5
		c0.3-0.3,0.8-0.5,1.3-0.5c0.5,0,1,0.1,1.3,0.5c0.4,0.4,0.5,0.9,0.5,1.8v2.7h-0.7v-2.7c0-0.5-0.1-1-0.4-1.3c-0.2-0.3-0.5-0.4-1-0.4
		c-0.4,0-0.8,0.2-1.1,0.5c-0.2,0.3-0.3,0.6-0.3,1.2v2.7H468v-2.7c0-0.5-0.1-0.9-0.3-1.2c-0.2-0.3-0.6-0.5-1.1-0.5
		c-0.5,0-0.8,0.2-1,0.5c-0.2,0.3-0.3,0.6-0.3,1.2v2.7h-0.7V134.5z"/>
	<path d="M473.6,137.2c0,1.2,1.1,1.8,1.9,1.8c0.7,0,1.3-0.4,1.7-1h0.7c-0.2,0.5-0.6,0.9-1,1.2c-0.4,0.3-0.9,0.4-1.4,0.4
		c-1.7,0-2.6-1.3-2.6-2.5c0-1.4,1.1-2.6,2.5-2.6c0.7,0,1.3,0.2,1.8,0.7c0.6,0.5,0.8,1.3,0.8,2.1H473.6z M477.4,136.6
		c0-0.8-0.9-1.7-1.9-1.6c-1,0-1.8,0.8-1.9,1.6H477.4z"/>
</g>
<rect x="408.1" y="121.7" class="st1" width="83.3" height="28.6"/>
<g class="st0">
	<path d="M611.1,136.9c-0.4,1-1.6,1.9-3.1,1.9c-2,0-3.5-1.5-3.5-3.4c0-1.9,1.5-3.4,3.5-3.4c1.6,0,2.7,1.1,3.1,1.9h-0.8
		c-0.2-0.4-1-1.3-2.3-1.3c-1.6,0-2.7,1.2-2.7,2.8c0,1.6,1.2,2.8,2.7,2.8c1.4,0,2.1-1,2.3-1.3H611.1z"/>
	<path d="M612,132h0.7v1.8v0.8c0.3-0.6,1-0.9,1.7-0.9c0.8,0,1.3,0.2,1.6,0.7c0.3,0.4,0.5,1,0.5,1.7v2.6h-0.7v-2.6
		c0-0.5-0.1-1-0.4-1.3c-0.3-0.3-0.6-0.5-1.2-0.5c-0.5,0-0.9,0.2-1.2,0.5c-0.3,0.3-0.4,0.7-0.4,1.1v2.8H612V132z"/>
	<path d="M622.6,138.7H622v-1c-0.4,0.7-1.1,1.1-2,1.1c-1.6,0-2.5-1.2-2.5-2.6c0-1.4,1-2.6,2.5-2.6c1,0,1.7,0.6,2,1.2v-1h0.7V138.7z
		 M618.1,136.3c0,0.9,0.6,1.9,1.9,1.9c0.9,0,1.5-0.5,1.7-1.2c0.1-0.2,0.2-0.5,0.2-0.8c0-0.3,0-0.5-0.2-0.8c-0.3-0.7-0.9-1.2-1.8-1.2
		C618.9,134.3,618.1,135.2,618.1,136.3L618.1,136.3z"/>
	<path d="M623.9,133.9h0.6c0,0.3,0,0.5,0,0.9c0.3-0.6,0.9-1,1.8-1c1.5,0,2,1,2,2.2v2.8h-0.7v-2.6c0-1-0.5-1.8-1.6-1.7
		c-1,0-1.6,0.6-1.6,1.6v2.7h-0.7V133.9z"/>
	<path d="M634.5,138.2c0,0.9-0.3,1.5-0.7,1.9c-0.5,0.5-1.2,0.7-1.8,0.7c-1.2,0-2.1-0.7-2.4-1.6h0.8c0.1,0.2,0.3,0.4,0.6,0.6
		c0.4,0.3,0.8,0.4,1.1,0.4c0.9,0,1.9-0.7,1.9-1.9v-0.6c-0.3,0.7-1,1.2-2,1.2c-1.5,0-2.5-1.2-2.5-2.5c0-1.4,1.1-2.6,2.5-2.6
		c1,0,1.7,0.5,2,1.1v-1h0.7V138.2z M630,136.3c0,1,0.7,1.9,1.9,1.9c0.5,0,1-0.2,1.4-0.6c0.3-0.4,0.5-0.8,0.5-1.4
		c0-0.4-0.1-0.9-0.4-1.3c-0.3-0.4-0.8-0.7-1.5-0.7C630.9,134.4,630,135.1,630,136.3L630,136.3z"/>
	<path d="M636.1,136.5c0,1.2,1.1,1.8,1.9,1.8c0.7,0,1.3-0.4,1.7-1h0.7c-0.2,0.5-0.6,0.9-1,1.2c-0.4,0.3-0.9,0.4-1.4,0.4
		c-1.7,0-2.6-1.3-2.6-2.5c0-1.4,1.1-2.6,2.5-2.6c0.7,0,1.3,0.2,1.8,0.7c0.6,0.5,0.8,1.3,0.8,2.1H636.1z M639.9,135.9
		c0-0.8-0.9-1.7-1.9-1.6c-1,0-1.8,0.8-1.9,1.6H639.9z"/>
	<path d="M645.8,132c0.9,0,1.4,0.1,1.8,0.4c0.4,0.3,0.7,1,0.7,1.6c0,0.6-0.3,1.3-0.7,1.6c-0.4,0.3-0.9,0.5-1.8,0.5h-1.1v2.6H644V132
		H645.8z M644.7,135.4h1.1c0.6,0,0.9-0.1,1.2-0.3c0.3-0.2,0.5-0.6,0.5-1.1c0-0.5-0.2-0.9-0.5-1.1c-0.3-0.2-0.7-0.3-1.2-0.3h-1V135.4
		z"/>
	<path d="M649,132h0.7v1.8v0.8c0.3-0.6,1-0.9,1.7-0.9c0.8,0,1.3,0.2,1.6,0.7c0.3,0.4,0.5,1,0.5,1.7v2.6h-0.7v-2.6
		c0-0.5-0.1-1-0.4-1.3c-0.3-0.3-0.6-0.5-1.2-0.5c-0.5,0-0.9,0.2-1.2,0.5c-0.3,0.3-0.4,0.7-0.4,1.1v2.8H649V132z"/>
	<path d="M654.4,136.3c0-1.4,1-2.5,2.6-2.5c1.6,0,2.6,1.2,2.6,2.6s-1,2.5-2.6,2.5C655.5,138.8,654.4,137.6,654.4,136.3L654.4,136.3z
		 M655.1,136.3c0,1.1,0.8,1.9,1.9,1.9c1.1,0,1.9-0.8,1.9-1.9s-0.8-1.9-1.9-1.9C655.9,134.4,655.1,135.2,655.1,136.3L655.1,136.3z"/>
</g>
<g class="st0">
	<path d="M661,134.4h-1v-0.5h1V132h0.7v1.8h1.1v0.5h-1.1v4.3H661V134.4z"/>
</g>
<g class="st0">
	<path d="M662.8,136.3c0-1.4,1-2.5,2.6-2.5c1.6,0,2.6,1.2,2.6,2.6s-1,2.5-2.6,2.5C663.8,138.8,662.8,137.6,662.8,136.3L662.8,136.3z
		 M663.5,136.3c0,1.1,0.8,1.9,1.9,1.9c1.1,0,1.9-0.8,1.9-1.9s-0.8-1.9-1.9-1.9C664.3,134.4,663.5,135.2,663.5,136.3L663.5,136.3z"/>
</g>
<rect x="594.6" y="121.1" class="st1" width="83.3" height="28.6"/>
<g class="st0">
	<path d="M608.7,217.7c0.1,1.1,0.9,1.3,1.3,1.3c0.7,0,1.3-0.5,1.3-1.3c0-0.9-0.8-1.1-1.6-1.4c-0.5-0.2-1.7-0.5-1.7-1.8
		c0-1.2,1-1.8,2-1.8c0.8,0,1.8,0.5,1.9,1.7h-0.7c-0.1-0.4-0.3-1.1-1.2-1.1c-0.7,0-1.2,0.5-1.2,1.1c0,0.8,0.6,1,1.7,1.4
		c0.6,0.2,1.6,0.6,1.6,1.8c0,1.1-0.8,2-2.1,2c-1.1,0-2-0.7-2.1-2H608.7z"/>
	<path d="M612.8,217.1c0-1.4,1-2.5,2.6-2.5c1.6,0,2.6,1.2,2.6,2.6s-1,2.5-2.6,2.5C613.8,219.7,612.8,218.5,612.8,217.1L612.8,217.1z
		 M613.5,217.1c0,1.1,0.8,1.9,1.9,1.9c1.1,0,1.9-0.8,1.9-1.9s-0.8-1.9-1.9-1.9C614.3,215.2,613.5,216,613.5,217.1L613.5,217.1z"/>
	<path d="M623.7,217.9c-0.3,1-1.3,1.8-2.4,1.8c-1.6,0-2.6-1.3-2.6-2.6c0-1.4,1.1-2.6,2.6-2.6c1.1,0,2.1,0.6,2.5,1.8H623
		c-0.3-0.8-1.1-1.2-1.8-1.2c-0.6,0-1,0.2-1.4,0.5c-0.3,0.3-0.5,0.8-0.5,1.4c0,1.1,0.9,1.9,1.9,1.9c0.9,0,1.5-0.6,1.8-1.2H623.7z"/>
	<path d="M624.6,212.9h0.7v0.9h-0.7V212.9z M624.6,214.7h0.7v4.8h-0.7V214.7z"/>
	<path d="M631.4,219.5h-0.7v-1c-0.4,0.7-1.1,1.1-2,1.1c-1.6,0-2.5-1.2-2.5-2.6c0-1.4,1-2.6,2.5-2.6c1,0,1.7,0.6,2,1.2v-1h0.7V219.5z
		 M626.9,217.1c0,0.9,0.6,1.9,1.9,1.9c0.9,0,1.5-0.5,1.7-1.2c0.1-0.2,0.2-0.5,0.2-0.8c0-0.3,0-0.5-0.2-0.8c-0.3-0.7-0.9-1.2-1.8-1.2
		C627.7,215.2,626.9,216,626.9,217.1L626.9,217.1z"/>
	<path d="M632.7,212.9h0.7v6.7h-0.7V212.9z"/>
	<path d="M637.3,219.5v-6.7h1l2.5,5.6l2.5-5.6h1v6.7h-0.7l0-5.9l-2.6,5.9h-0.5l-2.6-5.9l0,5.9H637.3z"/>
	<path d="M645.9,217.3c0,1.2,1.1,1.8,1.9,1.8c0.7,0,1.4-0.4,1.7-1h0.7c-0.2,0.5-0.6,0.9-1,1.2c-0.4,0.3-0.9,0.4-1.4,0.4
		c-1.7,0-2.6-1.3-2.6-2.5c0-1.4,1.1-2.6,2.5-2.6c0.7,0,1.3,0.2,1.8,0.7c0.6,0.5,0.8,1.3,0.8,2.1H645.9z M649.7,216.8
		c0-0.8-0.9-1.7-1.9-1.6c-1,0-1.8,0.8-1.9,1.6H649.7z"/>
	<path d="M656.1,219.5h-0.6v-1c-0.3,0.6-1,1.1-2,1.1c-1.5,0-2.5-1.2-2.5-2.6c0-1.4,1-2.5,2.5-2.5c1.1,0,1.8,0.6,2,1.1v-1v-1.8h0.7
		V219.5z M651.6,217.1c0,1,0.7,1.9,1.9,1.9c0.5,0,1-0.2,1.4-0.6c0.4-0.4,0.6-0.9,0.5-1.4c0-0.5-0.2-1-0.6-1.4
		c-0.3-0.4-0.8-0.6-1.4-0.6C652.4,215.2,651.6,216,651.6,217.1L651.6,217.1z"/>
	<path d="M657.4,212.9h0.7v0.9h-0.7V212.9z M657.4,214.7h0.7v4.8h-0.7V214.7z"/>
	<path d="M664.2,219.5h-0.7v-1c-0.4,0.7-1.1,1.1-2,1.1c-1.6,0-2.5-1.2-2.5-2.6c0-1.4,1-2.6,2.5-2.6c1,0,1.7,0.6,2,1.2v-1h0.7V219.5z
		 M659.7,217.1c0,0.9,0.6,1.9,1.9,1.9c0.9,0,1.5-0.5,1.7-1.2c0.1-0.2,0.2-0.5,0.2-0.8c0-0.3,0-0.5-0.2-0.8c-0.3-0.7-0.9-1.2-1.8-1.2
		C660.6,215.2,659.7,216,659.7,217.1L659.7,217.1z"/>
</g>
<rect x="594.6" y="201.9" class="st1" width="83.3" height="28.6"/>
<g class="st0">
	<path d="M624.8,171.9c-0.4,1-1.6,1.9-3.1,1.9c-2,0-3.5-1.5-3.5-3.4c0-1.9,1.5-3.4,3.5-3.4c1.6,0,2.7,1.1,3.1,1.9H624
		c-0.2-0.4-1-1.3-2.3-1.3c-1.6,0-2.7,1.2-2.7,2.8c0,1.6,1.2,2.8,2.7,2.8c1.4,0,2.1-1,2.3-1.3H624.8z"/>
	<path d="M625.8,167.1h0.7v1.8v0.8c0.3-0.6,1-0.9,1.7-0.9c0.8,0,1.3,0.2,1.6,0.7c0.3,0.4,0.5,1,0.5,1.7v2.6h-0.7v-2.6
		c0-0.5-0.1-1-0.4-1.3c-0.3-0.3-0.6-0.5-1.2-0.5c-0.5,0-0.9,0.2-1.2,0.5c-0.3,0.3-0.4,0.7-0.4,1.1v2.8h-0.7V167.1z"/>
	<path d="M636.4,173.7h-0.7v-1c-0.4,0.7-1.1,1.1-2,1.1c-1.6,0-2.5-1.2-2.5-2.6c0-1.4,1-2.6,2.5-2.6c1,0,1.7,0.6,2,1.2v-1h0.7V173.7z
		 M631.9,171.3c0,0.9,0.6,1.9,1.9,1.9c0.9,0,1.5-0.5,1.7-1.2c0.1-0.2,0.2-0.5,0.2-0.8c0-0.3,0-0.5-0.2-0.8c-0.3-0.7-0.9-1.2-1.8-1.2
		C632.7,169.4,631.9,170.2,631.9,171.3L631.9,171.3z"/>
	<path d="M637.7,168.9h0.6c0,0.3,0,0.5,0,0.9c0.3-0.6,0.9-1,1.8-1c1.5,0,2,1,2,2.2v2.8h-0.7v-2.6c0-1-0.5-1.8-1.6-1.7
		c-1,0-1.6,0.6-1.6,1.6v2.7h-0.7V168.9z"/>
	<path d="M648.3,173.2c0,0.9-0.3,1.5-0.7,1.9c-0.5,0.5-1.2,0.7-1.8,0.7c-1.2,0-2.1-0.7-2.4-1.6h0.8c0.1,0.2,0.3,0.4,0.6,0.6
		c0.4,0.3,0.8,0.4,1.1,0.4c0.9,0,1.9-0.7,1.9-1.9v-0.6c-0.3,0.7-1,1.2-2,1.2c-1.5,0-2.5-1.2-2.5-2.5c0-1.4,1.1-2.6,2.5-2.6
		c1,0,1.7,0.5,2,1.1v-1h0.7V173.2z M643.8,171.3c0,1,0.7,1.9,1.9,1.9c0.5,0,1-0.2,1.4-0.6c0.3-0.4,0.5-0.8,0.5-1.4
		c0-0.4-0.1-0.9-0.4-1.3c-0.3-0.4-0.8-0.7-1.5-0.7C644.7,169.4,643.8,170.2,643.8,171.3L643.8,171.3z"/>
	<path d="M649.9,171.5c0,1.2,1.1,1.8,1.9,1.8c0.7,0,1.3-0.4,1.7-1h0.7c-0.2,0.5-0.6,0.9-1,1.2c-0.4,0.3-0.9,0.4-1.4,0.4
		c-1.7,0-2.6-1.3-2.6-2.5c0-1.4,1.1-2.6,2.5-2.6c0.7,0,1.3,0.2,1.8,0.7c0.6,0.5,0.8,1.3,0.8,2.1H649.9z M653.6,171
		c0-0.8-0.9-1.7-1.9-1.6c-1,0-1.8,0.8-1.9,1.6H653.6z"/>
</g>
<g class="st0">
	<path d="M620.9,182.7c-0.4,1-1.6,1.9-3.1,1.9c-2,0-3.5-1.5-3.5-3.4c0-1.9,1.5-3.4,3.5-3.4c1.6,0,2.7,1.1,3.1,1.9h-0.8
		c-0.2-0.4-1-1.3-2.3-1.3c-1.6,0-2.7,1.2-2.7,2.8c0,1.6,1.2,2.8,2.7,2.8c1.4,0,2.1-1,2.3-1.3H620.9z"/>
	<path d="M621.8,177.9h0.7v1.8v0.8c0.3-0.6,1-0.9,1.7-0.9c0.8,0,1.3,0.2,1.6,0.7c0.3,0.4,0.5,1,0.5,1.7v2.6h-0.7v-2.6
		c0-0.5-0.1-1-0.4-1.3c-0.3-0.3-0.6-0.5-1.2-0.5c-0.5,0-0.9,0.2-1.2,0.5c-0.3,0.3-0.4,0.7-0.4,1.1v2.8h-0.7V177.9z"/>
	<path d="M632.4,184.5h-0.7v-1c-0.4,0.7-1.1,1.1-2,1.1c-1.6,0-2.5-1.2-2.5-2.6c0-1.4,1-2.6,2.5-2.6c1,0,1.7,0.6,2,1.2v-1h0.7V184.5z
		 M627.9,182.1c0,0.9,0.6,1.9,1.9,1.9c0.9,0,1.5-0.5,1.7-1.2c0.1-0.2,0.2-0.5,0.2-0.8c0-0.3,0-0.5-0.2-0.8c-0.3-0.7-0.9-1.2-1.8-1.2
		C628.7,180.2,627.9,181,627.9,182.1L627.9,182.1z"/>
</g>
<g class="st0">
	<path d="M633.7,179.7h0.6v0.8c0.4-0.7,1-0.9,1.5-0.9v0.7h-0.1c-0.9,0-1.5,0.6-1.5,1.7v2.6h-0.7V179.7z"/>
</g>
<g class="st0">
	<path d="M641.1,184.5h-0.7v-1c-0.4,0.7-1.1,1.1-2,1.1c-1.6,0-2.5-1.2-2.5-2.6c0-1.4,1-2.6,2.5-2.6c1,0,1.7,0.6,2,1.2v-1h0.7V184.5z
		 M636.6,182.1c0,0.9,0.6,1.9,1.9,1.9c0.9,0,1.5-0.5,1.7-1.2c0.1-0.2,0.2-0.5,0.2-0.8c0-0.3,0-0.5-0.2-0.8c-0.3-0.7-0.9-1.2-1.8-1.2
		C637.4,180.2,636.6,181,636.6,182.1L636.6,182.1z"/>
	<path d="M647.1,182.9c-0.3,1-1.3,1.8-2.4,1.8c-1.6,0-2.6-1.3-2.6-2.6c0-1.4,1.1-2.6,2.6-2.6c1.1,0,2.1,0.6,2.5,1.8h-0.7
		c-0.3-0.8-1.1-1.2-1.8-1.2c-0.6,0-1,0.2-1.4,0.5c-0.3,0.3-0.5,0.8-0.5,1.4c0,1.1,0.9,1.9,1.9,1.9c0.9,0,1.5-0.6,1.8-1.2H647.1z"/>
</g>
<g class="st0">
	<path d="M648.5,180.2h-1v-0.5h1v-1.8h0.7v1.8h1.1v0.5h-1.1v4.3h-0.7V180.2z"/>
</g>
<g class="st0">
	<path d="M650.9,182.3c0,1.2,1.1,1.8,1.9,1.8c0.7,0,1.3-0.4,1.7-1h0.7c-0.2,0.5-0.6,0.9-1,1.2c-0.4,0.3-0.9,0.4-1.4,0.4
		c-1.7,0-2.6-1.3-2.6-2.5c0-1.4,1.1-2.6,2.5-2.6c0.7,0,1.3,0.2,1.8,0.7c0.6,0.5,0.8,1.3,0.8,2.1H650.9z M654.7,181.8
		c0-0.8-0.9-1.7-1.9-1.6c-1,0-1.8,0.8-1.9,1.6H654.7z"/>
	<path d="M656.3,179.7h0.6v0.8c0.4-0.7,1-0.9,1.5-0.9v0.7h-0.1c-0.9,0-1.5,0.6-1.5,1.7v2.6h-0.7V179.7z"/>
</g>
<rect x="594.6" y="161.5" class="st1" width="83.3" height="28.6"/>
<g class="st0">
	<path d="M629.7,252.5h3.4v0.7h-2.6v2.3h2.6v0.7h-2.6v3h-0.7V252.5z"/>
</g>
<g class="st0">
	<path d="M638.8,259.1h-0.7v-1c-0.4,0.7-1.1,1.1-2,1.1c-1.6,0-2.5-1.2-2.5-2.6c0-1.4,1-2.6,2.5-2.6c1,0,1.7,0.6,2,1.2v-1h0.7V259.1z
		 M634.3,256.7c0,0.9,0.6,1.9,1.9,1.9c0.9,0,1.5-0.5,1.7-1.2c0.1-0.2,0.2-0.5,0.2-0.8c0-0.3,0-0.5-0.2-0.8c-0.3-0.7-0.9-1.2-1.8-1.2
		C635.1,254.8,634.3,255.6,634.3,256.7L634.3,256.7z"/>
	<path d="M644.8,257.5c-0.3,1-1.3,1.8-2.4,1.8c-1.6,0-2.6-1.3-2.6-2.6c0-1.4,1.1-2.6,2.6-2.6c1.1,0,2.1,0.6,2.5,1.8h-0.7
		c-0.3-0.8-1.1-1.2-1.8-1.2c-0.6,0-1,0.2-1.4,0.5c-0.3,0.3-0.5,0.8-0.5,1.4c0,1.1,0.9,1.9,1.9,1.9c0.9,0,1.5-0.6,1.8-1.2H644.8z"/>
	<path d="M646,256.9c0,1.2,1.1,1.8,1.9,1.8c0.7,0,1.4-0.4,1.7-1h0.7c-0.2,0.5-0.6,0.9-1,1.2c-0.4,0.3-0.9,0.4-1.4,0.4
		c-1.7,0-2.6-1.3-2.6-2.5c0-1.4,1.1-2.6,2.5-2.6c0.7,0,1.3,0.2,1.8,0.7c0.6,0.5,0.8,1.3,0.8,2.1H646z M649.8,256.4
		c0-0.8-0.9-1.7-1.9-1.6c-1,0-1.8,0.8-1.9,1.6H649.8z"/>
	<path d="M651.4,252.5h0.7v1.8v1c0.4-0.7,1.1-1.1,2-1.1c1.4,0,2.5,1,2.5,2.5c0,1.5-1,2.6-2.5,2.6c-0.9,0-1.6-0.4-2-1.1v1h-0.6V252.5
		z M655.8,256.7c0-1.1-0.8-1.9-1.9-1.9c-1.1,0-1.9,0.9-1.9,1.9c0,1.1,0.8,1.9,1.9,1.9C655.2,258.7,655.8,257.7,655.8,256.7
		L655.8,256.7z"/>
	<path d="M657.2,256.7c0-1.4,1-2.5,2.6-2.5c1.6,0,2.6,1.2,2.6,2.6c0,1.4-1,2.5-2.6,2.5C658.2,259.3,657.2,258.1,657.2,256.7
		L657.2,256.7z M657.9,256.7c0,1.1,0.8,1.9,1.9,1.9c1.1,0,1.9-0.8,1.9-1.9c0-1.1-0.8-1.9-1.9-1.9
		C658.7,254.8,657.9,255.6,657.9,256.7L657.9,256.7z"/>
	<path d="M663,256.7c0-1.4,1-2.5,2.6-2.5c1.6,0,2.6,1.2,2.6,2.6c0,1.4-1,2.5-2.6,2.5C664,259.3,663,258.1,663,256.7L663,256.7z
		 M663.7,256.7c0,1.1,0.8,1.9,1.9,1.9c1.1,0,1.9-0.8,1.9-1.9c0-1.1-0.8-1.9-1.9-1.9C664.5,254.8,663.7,255.6,663.7,256.7
		L663.7,256.7z"/>
	<path d="M669.2,252.5h0.7v3.8l2.2-2h0.8l-2.3,2.1l2.4,2.7h-0.8l-2.3-2.6v2.6h-0.7V252.5z"/>
</g>
<rect x="609.4" y="241.5" class="st1" width="83.3" height="28.6"/>
<g class="st0">
	<path d="M630.6,296.9c0.1,1.1,0.9,1.3,1.3,1.3c0.7,0,1.3-0.5,1.3-1.3c0-0.9-0.8-1.1-1.6-1.4c-0.5-0.2-1.7-0.5-1.7-1.8
		c0-1.2,1-1.8,2-1.8c0.8,0,1.8,0.5,1.9,1.7h-0.7c-0.1-0.4-0.3-1.1-1.2-1.1c-0.7,0-1.2,0.4-1.2,1.1c0,0.8,0.6,1,1.7,1.3
		c0.6,0.2,1.6,0.6,1.6,1.8c0,1.1-0.8,2-2.1,2c-1.1,0-2-0.7-2.1-2H630.6z"/>
	<path d="M634.9,293.9h0.6c0,0.3,0,0.5,0,0.9c0.3-0.6,0.9-1,1.8-1c1.5,0,2,1,2,2.2v2.8h-0.7v-2.6c0-1-0.5-1.8-1.6-1.7
		c-1,0-1.6,0.6-1.6,1.6v2.7h-0.7V293.9z"/>
	<path d="M645.5,298.8h-0.7v-1c-0.4,0.7-1.1,1.1-2,1.1c-1.6,0-2.5-1.2-2.5-2.6c0-1.4,1-2.6,2.5-2.6c1,0,1.7,0.6,2,1.2v-1h0.7V298.8z
		 M641,296.3c0,0.9,0.6,1.9,1.9,1.9c0.9,0,1.5-0.5,1.7-1.2c0.1-0.2,0.2-0.5,0.2-0.8c0-0.3,0-0.5-0.2-0.8c-0.3-0.7-0.9-1.2-1.8-1.2
		C641.9,294.4,641,295.2,641,296.3L641,296.3z"/>
	<path d="M646.8,293.9h0.6v1c0.4-0.7,1.1-1.1,2-1.1c1.6,0,2.5,1.3,2.5,2.6c0,1.3-1,2.5-2.5,2.5c-1.1,0-1.8-0.6-2-1.1v1v1.8h-0.7
		V293.9z M651.3,296.3c0-0.9-0.6-1.9-1.9-1.9c-0.5,0-1,0.2-1.4,0.6c-0.3,0.3-0.5,0.8-0.5,1.4c0,0.5,0.2,1,0.6,1.4
		c0.3,0.3,0.8,0.5,1.4,0.5C650.5,298.3,651.3,297.4,651.3,296.3L651.3,296.3z"/>
</g>
<g class="st0">
	<path d="M657.7,297.1c-0.3,1-1.3,1.8-2.4,1.8c-1.6,0-2.6-1.3-2.6-2.6c0-1.4,1.1-2.6,2.6-2.6c1.1,0,2.1,0.6,2.5,1.8h-0.7
		c-0.3-0.8-1.1-1.2-1.8-1.2c-0.6,0-1,0.2-1.4,0.5c-0.3,0.3-0.5,0.8-0.5,1.4c0,1.1,0.9,1.9,1.9,1.9c0.9,0,1.5-0.6,1.8-1.2H657.7z"/>
</g>
<g class="st0">
	<path d="M658.6,292.1h0.7v1.8v0.8c0.3-0.6,1-0.9,1.7-0.9c0.8,0,1.3,0.2,1.6,0.7s0.5,1,0.5,1.7v2.6h-0.7v-2.6c0-0.5-0.1-1-0.4-1.3
		c-0.3-0.3-0.6-0.5-1.2-0.5c-0.5,0-0.9,0.2-1.2,0.5c-0.3,0.3-0.4,0.7-0.4,1.1v2.8h-0.7V292.1z"/>
	<path d="M669.2,298.8h-0.7v-1c-0.4,0.7-1.1,1.1-2,1.1c-1.6,0-2.5-1.2-2.5-2.6c0-1.4,1-2.6,2.5-2.6c1,0,1.7,0.6,2,1.2v-1h0.7V298.8z
		 M664.7,296.3c0,0.9,0.6,1.9,1.9,1.9c0.9,0,1.5-0.5,1.7-1.2c0.1-0.2,0.2-0.5,0.2-0.8c0-0.3,0-0.5-0.2-0.8c-0.3-0.7-0.9-1.2-1.8-1.2
		C665.5,294.4,664.7,295.2,664.7,296.3L664.7,296.3z"/>
	<path d="M670.9,294.4h-1v-0.5h1v-1.8h0.7v1.8h1.1v0.5h-1.1v4.3h-0.7V294.4z"/>
</g>
<rect x="609.4" y="281.1" class="st1" width="83.3" height="28.6"/>
<g class="st0">
	<path d="M629.7,334.9h0.7v6.7h-0.7V334.9z"/>
	<path d="M631.8,336.8h0.6c0,0.3,0,0.5,0,0.9c0.3-0.6,0.9-1,1.8-1c1.5,0,2,1,2,2.2v2.8h-0.7V339c0-1-0.5-1.8-1.6-1.7
		c-1,0-1.6,0.6-1.6,1.6v2.7h-0.7V336.8z"/>
	<path d="M639.7,338c0-0.5-0.3-0.8-0.8-0.8c-0.5,0-0.9,0.4-0.8,0.8c0,0.5,0.4,0.6,1,0.8c0.7,0.2,1.5,0.4,1.5,1.4
		c0,0.9-0.7,1.5-1.6,1.5c-0.8,0-1.6-0.5-1.7-1.5h0.7c0,0.7,0.5,1,1,1c0.6,0,0.9-0.4,0.9-0.9c0-0.5-0.4-0.8-1.2-1
		c-0.7-0.2-1.2-0.5-1.3-1.3c0-0.9,0.7-1.4,1.5-1.4c0.7,0,1.4,0.4,1.5,1.4H639.7z"/>
</g>
<g class="st0">
	<path d="M642,337.3h-1v-0.5h1v-1.8h0.7v1.8h1.1v0.5h-1.1v4.3H642V337.3z"/>
</g>
<g class="st0">
	<path d="M649,341.6h-0.7v-1c-0.4,0.7-1.1,1.1-2,1.1c-1.6,0-2.5-1.2-2.5-2.6c0-1.4,1-2.6,2.5-2.6c1,0,1.7,0.6,2,1.2v-1h0.7V341.6z
		 M644.5,339.2c0,0.9,0.6,1.9,1.9,1.9c0.9,0,1.5-0.5,1.7-1.2c0.1-0.2,0.2-0.5,0.2-0.8c0-0.3,0-0.5-0.2-0.8c-0.3-0.7-0.9-1.2-1.8-1.2
		C645.3,337.2,644.5,338.1,644.5,339.2L644.5,339.2z"/>
	<path d="M655.1,341.1c0,0.9-0.3,1.5-0.7,1.9c-0.5,0.5-1.2,0.7-1.8,0.7c-1.2,0-2.1-0.7-2.4-1.6h0.8c0.1,0.2,0.3,0.4,0.6,0.6
		c0.4,0.3,0.8,0.4,1.1,0.4c0.9,0,1.9-0.7,1.9-1.9v-0.6c-0.3,0.7-1,1.2-2,1.2c-1.5,0-2.5-1.2-2.5-2.5c0-1.4,1.1-2.6,2.5-2.6
		c1,0,1.7,0.5,2,1.1v-1h0.7V341.1z M650.6,339.2c0,1,0.7,1.9,1.9,1.9c0.5,0,1-0.2,1.4-0.6c0.3-0.4,0.5-0.8,0.5-1.4
		c0-0.4-0.1-0.9-0.4-1.3c-0.3-0.4-0.8-0.7-1.5-0.7C651.5,337.3,650.6,338,650.6,339.2L650.6,339.2z"/>
</g>
<g class="st0">
	<path d="M656.4,336.8h0.6v0.8c0.4-0.7,1-0.9,1.5-0.9v0.7h-0.1c-0.9,0-1.5,0.6-1.5,1.7v2.6h-0.7V336.8z"/>
</g>
<g class="st0">
	<path d="M663.8,341.6h-0.7v-1c-0.4,0.7-1.1,1.1-2,1.1c-1.6,0-2.5-1.2-2.5-2.6c0-1.4,1-2.6,2.5-2.6c1,0,1.7,0.6,2,1.2v-1h0.7V341.6z
		 M659.3,339.2c0,0.9,0.6,1.9,1.9,1.9c0.9,0,1.5-0.5,1.7-1.2c0.1-0.2,0.2-0.5,0.2-0.8c0-0.3,0-0.5-0.2-0.8c-0.3-0.7-0.9-1.2-1.8-1.2
		C660.1,337.2,659.3,338.1,659.3,339.2L659.3,339.2z"/>
	<path d="M665.1,336.8h0.6v0.8c0.3-0.6,1-0.9,1.5-0.9c0.5,0,1,0.2,1.3,0.5c0.1,0.1,0.3,0.5,0.3,0.5c0.1-0.1,0.2-0.3,0.4-0.5
		c0.3-0.3,0.8-0.5,1.3-0.5c0.5,0,1,0.1,1.3,0.5c0.4,0.4,0.5,0.9,0.5,1.8v2.7h-0.7v-2.7c0-0.5-0.1-1-0.4-1.3c-0.2-0.3-0.5-0.4-1-0.4
		c-0.4,0-0.8,0.2-1.1,0.5c-0.2,0.3-0.3,0.6-0.3,1.2v2.7h-0.7v-2.7c0-0.5-0.1-0.9-0.3-1.2c-0.2-0.3-0.6-0.5-1.1-0.5
		c-0.5,0-0.8,0.2-1,0.5c-0.2,0.3-0.3,0.6-0.3,1.2v2.7h-0.7V336.8z"/>
</g>
<rect x="609.4" y="324" class="st1" width="83.3" height="28.6"/>
<g class="st0">
	<path d="M639.5,375.8h-1.6v-0.7h4v0.7h-1.6v6h-0.7V375.8z"/>
</g>
<g class="st0">
	<path d="M641.5,376.9h0.7l1.3,4l1.2-3.6h0.5l1.2,3.6l1.3-4h0.7l-1.7,4.8h-0.7l-1.1-3.5l-1.1,3.5h-0.6L641.5,376.9z"/>
	<path d="M649.1,375.1h0.7v0.9h-0.7V375.1z M649.1,376.9h0.7v4.8h-0.7V376.9z"/>
	<path d="M651.5,377.4h-1v-0.5h1v-1.8h0.7v1.8h1.1v0.5h-1.1v4.3h-0.7V377.4z"/>
</g>
<g class="st0">
	<path d="M654.3,377.4h-1v-0.5h1v-1.8h0.7v1.8h1.1v0.5H655v4.3h-0.7V377.4z"/>
</g>
<g class="st0">
	<path d="M656.7,379.5c0,1.2,1.1,1.8,1.9,1.8c0.7,0,1.3-0.4,1.7-1h0.7c-0.2,0.5-0.6,0.9-1,1.2c-0.4,0.3-0.9,0.4-1.4,0.4
		c-1.7,0-2.6-1.3-2.6-2.5c0-1.4,1.1-2.6,2.5-2.6c0.7,0,1.3,0.2,1.8,0.7c0.6,0.5,0.8,1.3,0.8,2.1H656.7z M660.5,379
		c0-0.8-0.9-1.7-1.9-1.6c-1,0-1.8,0.8-1.9,1.6H660.5z"/>
	<path d="M662.1,376.9h0.6v0.8c0.4-0.7,1-0.9,1.5-0.9v0.7h-0.1c-0.9,0-1.5,0.6-1.5,1.7v2.6h-0.7V376.9z"/>
</g>
<rect x="609.4" y="364.1" class="st1" width="83.3" height="28.6"/>
<g class="st0">
	<path d="M634.3,415.2h0.8l1.5,5.6l1.5-5.6h0.6l1.5,5.6l1.5-5.6h0.8l-1.9,6.7h-0.7l-1.4-5.4l-1.4,5.4h-0.7L634.3,415.2z"/>
</g>
<g class="st0">
	<path d="M642.9,419.7c0,1.2,1.1,1.8,1.9,1.8c0.7,0,1.3-0.4,1.7-1h0.7c-0.2,0.5-0.6,0.9-1,1.2c-0.4,0.3-0.9,0.4-1.4,0.4
		c-1.7,0-2.6-1.3-2.6-2.5c0-1.4,1.1-2.6,2.5-2.6c0.7,0,1.3,0.2,1.8,0.7c0.6,0.5,0.8,1.3,0.8,2.1H642.9z M646.6,419.1
		c0-0.8-0.9-1.7-1.9-1.6c-1,0-1.8,0.8-1.9,1.6H646.6z"/>
</g>
<g class="st0">
	<path d="M653,420.3c-0.3,1-1.3,1.8-2.4,1.8c-1.6,0-2.6-1.3-2.6-2.6c0-1.4,1.1-2.6,2.6-2.6c1.1,0,2.1,0.6,2.5,1.8h-0.7
		c-0.3-0.8-1.1-1.2-1.8-1.2c-0.6,0-1,0.2-1.4,0.5c-0.3,0.3-0.5,0.8-0.5,1.4c0,1.1,0.9,1.9,1.9,1.9c0.9,0,1.5-0.6,1.8-1.2H653z"/>
</g>
<g class="st0">
	<path d="M653.9,415.2h0.7v1.8v0.8c0.3-0.6,1-0.9,1.7-0.9c0.8,0,1.3,0.2,1.6,0.7c0.3,0.4,0.5,1,0.5,1.7v2.6h-0.7v-2.6
		c0-0.5-0.1-1-0.4-1.3c-0.3-0.3-0.6-0.5-1.2-0.5c-0.5,0-0.9,0.2-1.2,0.5c-0.3,0.3-0.4,0.7-0.4,1.1v2.8h-0.7V415.2z"/>
	<path d="M664.5,421.9h-0.7v-1c-0.4,0.7-1.1,1.1-2,1.1c-1.6,0-2.5-1.2-2.5-2.6c0-1.4,1-2.6,2.5-2.6c1,0,1.7,0.6,2,1.2v-1h0.7V421.9z
		 M660,419.5c0,0.9,0.6,1.9,1.9,1.9c0.9,0,1.5-0.5,1.7-1.2c0.1-0.2,0.2-0.5,0.2-0.8c0-0.3,0-0.5-0.2-0.8c-0.3-0.7-0.9-1.2-1.8-1.2
		C660.8,417.5,660,418.4,660,419.5L660,419.5z"/>
	<path d="M666.1,417.6h-1v-0.5h1v-1.8h0.7v1.8h1.1v0.5h-1.1v4.3h-0.7V417.6z"/>
</g>
<rect x="609.4" y="404.3" class="st1" width="83.3" height="28.6"/>
<g class="st0">
	<path d="M635.4,455.4h2c0.9,0,2,0.2,2.6,1c0.5,0.6,0.8,1.4,0.8,2.3c0,2-1.1,3.3-3.4,3.3h-2V455.4z M636.1,461.4h1.3
		c1.7,0,2.6-1.1,2.6-2.7c0-0.8-0.2-1.5-0.6-1.9c-0.4-0.5-1-0.7-2-0.7h-1.3V461.4z"/>
	<path d="M641.8,455.4h0.7v0.9h-0.7V455.4z M641.8,457.2h0.7v4.8h-0.7V457.2z"/>
	<path d="M645.9,458.4c0-0.5-0.3-0.8-0.8-0.8c-0.5,0-0.9,0.4-0.8,0.8c0,0.5,0.4,0.6,1,0.8c0.7,0.2,1.5,0.4,1.5,1.4
		c0,0.9-0.7,1.5-1.6,1.5c-0.8,0-1.6-0.5-1.7-1.5h0.7c0,0.7,0.5,1,1,1c0.6,0,0.9-0.4,0.9-0.9c0-0.5-0.4-0.8-1.2-1
		c-0.7-0.2-1.2-0.5-1.3-1.3c0-0.9,0.7-1.4,1.5-1.4c0.7,0,1.4,0.4,1.5,1.4H645.9z"/>
	<path d="M652.5,460.4c-0.3,1-1.3,1.8-2.4,1.8c-1.6,0-2.6-1.3-2.6-2.6c0-1.4,1.1-2.6,2.6-2.6c1.1,0,2.1,0.6,2.5,1.8h-0.7
		c-0.3-0.8-1.1-1.2-1.8-1.2c-0.6,0-1,0.2-1.4,0.5c-0.3,0.3-0.5,0.8-0.5,1.4c0,1.1,0.9,1.9,1.9,1.9c0.9,0,1.5-0.6,1.8-1.2H652.5z"/>
	<path d="M653.2,459.6c0-1.4,1-2.5,2.6-2.5c1.6,0,2.6,1.2,2.6,2.6s-1,2.5-2.6,2.5C654.2,462.2,653.2,461,653.2,459.6L653.2,459.6z
		 M653.8,459.6c0,1.1,0.8,1.9,1.9,1.9c1.1,0,1.9-0.8,1.9-1.9s-0.8-1.9-1.9-1.9C654.7,457.7,653.8,458.5,653.8,459.6L653.8,459.6z"/>
</g>
<g class="st0">
	<path d="M659.4,457.2h0.6v0.8c0.4-0.7,1-0.9,1.5-0.9v0.7h-0.1c-0.9,0-1.5,0.6-1.5,1.7v2.6h-0.7V457.2z"/>
</g>
<g class="st0">
	<path d="M666.8,462h-0.6v-1c-0.3,0.6-1,1.1-2,1.1c-1.5,0-2.5-1.2-2.5-2.6c0-1.4,1-2.5,2.5-2.5c1.1,0,1.8,0.6,2,1.1v-1v-1.8h0.7V462
		z M662.3,459.6c0,1,0.7,1.9,1.9,1.9c0.5,0,1-0.2,1.4-0.6c0.4-0.4,0.6-0.9,0.5-1.4c0-0.5-0.2-1-0.6-1.4c-0.3-0.4-0.8-0.6-1.4-0.6
		C663.1,457.7,662.3,458.5,662.3,459.6L662.3,459.6z"/>
</g>
<rect x="609.4" y="444.4" class="st1" width="83.3" height="28.6"/>
<g class="st0">
	<path d="M614.1,495h0.7v6h2.5v0.7h-3.3V495z"/>
	<path d="M622.9,501.7h-0.7v-1c-0.4,0.7-1.1,1.1-2,1.1c-1.6,0-2.5-1.2-2.5-2.6c0-1.4,1-2.6,2.5-2.6c1,0,1.7,0.6,2,1.2v-1h0.7V501.7z
		 M618.4,499.2c0,0.9,0.6,1.9,1.9,1.9c0.9,0,1.5-0.5,1.7-1.2c0.1-0.2,0.2-0.5,0.2-0.8c0-0.3,0-0.5-0.2-0.8c-0.3-0.7-0.9-1.2-1.8-1.2
		C619.2,497.3,618.4,498.2,618.4,499.2L618.4,499.2z"/>
	<path d="M624.2,496.8h0.6c0,0.3,0,0.5,0,0.9c0.3-0.6,0.9-1,1.8-1c1.5,0,2,1,2,2.2v2.8H628V499c0-1-0.5-1.8-1.6-1.7
		c-1,0-1.6,0.6-1.6,1.6v2.7h-0.7V496.8z"/>
	<path d="M634.8,501.1c0,0.9-0.3,1.5-0.7,1.9c-0.5,0.5-1.2,0.7-1.8,0.7c-1.2,0-2.1-0.7-2.4-1.6h0.8c0.1,0.2,0.3,0.4,0.6,0.6
		c0.4,0.3,0.8,0.4,1.1,0.4c0.9,0,1.9-0.7,1.9-1.9v-0.6c-0.3,0.7-1,1.2-2,1.2c-1.5,0-2.5-1.2-2.5-2.5c0-1.4,1.1-2.6,2.5-2.6
		c1,0,1.7,0.5,2,1.1v-1h0.7V501.1z M630.3,499.2c0,1,0.7,1.9,1.9,1.9c0.5,0,1-0.2,1.4-0.6c0.3-0.4,0.5-0.8,0.5-1.4
		c0-0.4-0.1-0.9-0.4-1.3c-0.3-0.4-0.8-0.7-1.5-0.7C631.2,497.3,630.3,498.1,630.3,499.2L630.3,499.2z"/>
	<path d="M640.5,501.7h-0.6v-0.9c-0.3,0.6-0.9,1-1.8,1c-1.5,0-2-1.1-2-2.2v-2.7h0.7v2.6c0,1,0.5,1.7,1.6,1.7c1,0,1.6-0.6,1.6-1.6
		v-2.7h0.7V501.7z"/>
	<path d="M646.7,501.7H646v-1c-0.4,0.7-1.1,1.1-2,1.1c-1.6,0-2.5-1.2-2.5-2.6c0-1.4,1-2.6,2.5-2.6c1,0,1.7,0.6,2,1.2v-1h0.7V501.7z
		 M642.2,499.2c0,0.9,0.6,1.9,1.9,1.9c0.9,0,1.5-0.5,1.7-1.2c0.1-0.2,0.2-0.5,0.2-0.8c0-0.3,0-0.5-0.2-0.8c-0.3-0.7-0.9-1.2-1.8-1.2
		C643,497.3,642.2,498.2,642.2,499.2L642.2,499.2z"/>
	<path d="M652.8,501.1c0,0.9-0.3,1.5-0.7,1.9c-0.5,0.5-1.2,0.7-1.8,0.7c-1.2,0-2.1-0.7-2.4-1.6h0.8c0.1,0.2,0.3,0.4,0.6,0.6
		c0.4,0.3,0.8,0.4,1.1,0.4c0.9,0,1.9-0.7,1.9-1.9v-0.6c-0.3,0.7-1,1.2-2,1.2c-1.5,0-2.5-1.2-2.5-2.5c0-1.4,1.1-2.6,2.5-2.6
		c1,0,1.7,0.5,2,1.1v-1h0.7V501.1z M648.3,499.2c0,1,0.7,1.9,1.9,1.9c0.5,0,1-0.2,1.4-0.6c0.3-0.4,0.5-0.8,0.5-1.4
		c0-0.4-0.1-0.9-0.4-1.3c-0.3-0.4-0.8-0.7-1.5-0.7C649.2,497.3,648.3,498.1,648.3,499.2L648.3,499.2z"/>
	<path d="M654.4,499.4c0,1.2,1.1,1.8,1.9,1.8c0.7,0,1.3-0.4,1.7-1h0.7c-0.2,0.5-0.6,0.9-1,1.2c-0.4,0.3-0.9,0.4-1.4,0.4
		c-1.7,0-2.6-1.3-2.6-2.5c0-1.4,1.1-2.6,2.5-2.6c0.7,0,1.3,0.2,1.8,0.7c0.6,0.5,0.8,1.3,0.8,2.1H654.4z M658.2,498.9
		c0-0.8-0.9-1.7-1.9-1.6c-1,0-1.8,0.8-1.9,1.6H658.2z"/>
</g>
<g>
	<path d="M677.1,484.7v27.1h-81.8v-27.1H677.1 M677.9,484h-83.3v28.6h83.3V484L677.9,484z"/>
</g>
<g class="st0">
	<path d="M440.4,180.5c-0.4,1-1.6,1.9-3.1,1.9c-2,0-3.5-1.5-3.5-3.4c0-1.9,1.5-3.4,3.5-3.4c1.6,0,2.7,1.1,3.1,1.9h-0.8
		c-0.2-0.4-1-1.3-2.3-1.3c-1.6,0-2.7,1.2-2.7,2.8c0,1.6,1.2,2.8,2.7,2.8c1.4,0,2.1-1,2.3-1.3H440.4z"/>
	<path d="M446.2,182.2h-0.7v-1c-0.4,0.7-1.1,1.1-2,1.1c-1.6,0-2.5-1.2-2.5-2.6c0-1.4,1-2.6,2.5-2.6c1,0,1.7,0.6,2,1.2v-1h0.7V182.2z
		 M441.7,179.8c0,0.9,0.6,1.9,1.9,1.9c0.9,0,1.5-0.5,1.7-1.2c0.1-0.2,0.2-0.5,0.2-0.8c0-0.3,0-0.5-0.2-0.8c-0.3-0.7-0.9-1.2-1.8-1.2
		C442.5,177.9,441.7,178.7,441.7,179.8L441.7,179.8z"/>
	<path d="M447.5,177.4h0.6c0,0.3,0,0.5,0,0.9c0.3-0.6,0.9-1,1.8-1c1.5,0,2,1,2,2.2v2.8h-0.7v-2.6c0-1-0.5-1.8-1.6-1.7
		c-1,0-1.6,0.6-1.6,1.6v2.7h-0.7V177.4z"/>
	<path d="M458,180.6c-0.3,1-1.3,1.8-2.4,1.8c-1.6,0-2.6-1.3-2.6-2.6c0-1.4,1.1-2.6,2.6-2.6c1.1,0,2.1,0.6,2.5,1.8h-0.7
		c-0.3-0.8-1.1-1.2-1.8-1.2c-0.6,0-1,0.2-1.4,0.5c-0.3,0.3-0.5,0.8-0.5,1.4c0,1.1,0.9,1.9,1.9,1.9c0.9,0,1.5-0.6,1.8-1.2H458z"/>
	<path d="M459.2,180c0,1.2,1.1,1.8,1.9,1.8c0.7,0,1.4-0.4,1.7-1h0.7c-0.2,0.5-0.6,0.9-1,1.2c-0.4,0.3-0.9,0.4-1.4,0.4
		c-1.7,0-2.6-1.3-2.6-2.5c0-1.4,1.1-2.6,2.5-2.6c0.7,0,1.3,0.2,1.8,0.7c0.6,0.5,0.8,1.3,0.8,2.1H459.2z M463,179.5
		c0-0.8-0.9-1.7-1.9-1.6c-1,0-1.8,0.8-1.9,1.6H463z"/>
	<path d="M464.6,175.6h0.7v6.7h-0.7V175.6z"/>
</g>
<rect x="408.1" y="164.6" class="st1" width="83.3" height="28.6"/>
<g class="st0">
	<path d="M438.7,252.1c0.1,1.1,0.9,1.3,1.3,1.3c0.7,0,1.3-0.5,1.3-1.3c0-0.9-0.8-1.1-1.6-1.4c-0.5-0.2-1.7-0.5-1.7-1.8
		c0-1.2,1-1.8,2-1.8c0.8,0,1.8,0.5,1.9,1.7h-0.7c-0.1-0.4-0.3-1.1-1.2-1.1c-0.7,0-1.2,0.5-1.2,1.1c0,0.8,0.6,1,1.7,1.4
		c0.6,0.2,1.6,0.6,1.6,1.8c0,1.1-0.8,2-2.1,2c-1.1,0-2-0.7-2.1-2H438.7z"/>
	<path d="M443.4,251.7c0,1.2,1.1,1.8,1.9,1.8c0.7,0,1.4-0.4,1.7-1h0.7c-0.2,0.5-0.6,0.9-1,1.2c-0.4,0.3-0.9,0.4-1.4,0.4
		c-1.7,0-2.6-1.3-2.6-2.5c0-1.4,1.1-2.6,2.5-2.6c0.7,0,1.3,0.2,1.8,0.7c0.6,0.5,0.8,1.3,0.8,2.1H443.4z M447.1,251.2
		c0-0.8-0.9-1.7-1.9-1.6c-1,0-1.8,0.8-1.9,1.6H447.1z"/>
	<path d="M448.7,247.3h0.7v6.7h-0.7V247.3z"/>
	<path d="M451,251.7c0,1.2,1.1,1.8,1.9,1.8c0.7,0,1.3-0.4,1.7-1h0.7c-0.2,0.5-0.6,0.9-1,1.2c-0.4,0.3-0.9,0.4-1.4,0.4
		c-1.7,0-2.6-1.3-2.6-2.5c0-1.4,1.1-2.6,2.5-2.6c0.7,0,1.3,0.2,1.8,0.7c0.6,0.5,0.8,1.3,0.8,2.1H451z M454.7,251.2
		c0-0.8-0.9-1.7-1.9-1.6c-1,0-1.8,0.8-1.9,1.6H454.7z"/>
	<path d="M461.1,252.3c-0.3,1-1.3,1.8-2.4,1.8c-1.6,0-2.6-1.3-2.6-2.6c0-1.4,1.1-2.6,2.6-2.6c1.1,0,2.1,0.6,2.5,1.8h-0.7
		c-0.3-0.8-1.1-1.2-1.8-1.2c-0.6,0-1,0.2-1.4,0.5c-0.3,0.3-0.5,0.8-0.5,1.4c0,1.1,0.9,1.9,1.9,1.9c0.9,0,1.5-0.6,1.8-1.2H461.1z"/>
	<path d="M462.4,249.6h-1v-0.5h1v-1.8h0.7v1.8h1.1v0.5h-1.1v4.3h-0.7V249.6z"/>
	<path d="M469.1,247.3c0.9,0,1.4,0.1,1.8,0.4c0.4,0.3,0.7,1,0.7,1.6c0,0.6-0.3,1.3-0.7,1.6c-0.4,0.3-0.9,0.5-1.8,0.5h-1.1v2.6h-0.7
		v-6.7H469.1z M468.1,250.6h1.1c0.6,0,0.9-0.1,1.2-0.3c0.3-0.2,0.5-0.6,0.5-1.1c0-0.5-0.2-0.9-0.5-1.1c-0.3-0.2-0.7-0.3-1.2-0.3h-1
		V250.6z"/>
	<path d="M472.4,247.3h0.7v6.7h-0.7V247.3z"/>
</g>
<g class="st0">
	<path d="M479.2,253.9h-0.7v-1c-0.4,0.7-1.1,1.1-2,1.1c-1.6,0-2.5-1.2-2.5-2.6c0-1.4,1-2.6,2.5-2.6c1,0,1.7,0.6,2,1.2v-1h0.7V253.9z
		 M474.7,251.5c0,0.9,0.6,1.9,1.9,1.9c0.9,0,1.5-0.5,1.7-1.2c0.1-0.2,0.2-0.5,0.2-0.8c0-0.3,0-0.5-0.2-0.8c-0.3-0.7-0.9-1.2-1.8-1.2
		C475.5,249.6,474.7,250.4,474.7,251.5L474.7,251.5z"/>
</g>
<g class="st0">
	<path d="M481.8,253.8l-1.9-4.8h0.7l1.5,3.9l1.6-3.9h0.7l-2.8,6.7h-0.7L481.8,253.8z"/>
</g>
<g class="st0">
	<path d="M485.2,251.7c0,1.2,1.1,1.8,1.9,1.8c0.7,0,1.4-0.4,1.7-1h0.7c-0.2,0.5-0.6,0.9-1,1.2c-0.4,0.3-0.9,0.4-1.4,0.4
		c-1.7,0-2.6-1.3-2.6-2.5c0-1.4,1.1-2.6,2.5-2.6c0.7,0,1.3,0.2,1.8,0.7c0.6,0.5,0.8,1.3,0.8,2.1H485.2z M488.9,251.2
		c0-0.8-0.9-1.7-1.9-1.6c-1,0-1.8,0.8-1.9,1.6H488.9z"/>
	<path d="M490.5,249.1h0.6v0.8c0.4-0.7,1-0.9,1.5-0.9v0.7h-0.1c-0.9,0-1.5,0.6-1.5,1.7v2.6h-0.7V249.1z"/>
</g>
<rect x="423.6" y="236.3" class="st1" width="83.3" height="28.6"/>
<g class="st0">
	<path d="M446.3,360.5h0.8l1.5,5.6l1.5-5.6h0.6l1.5,5.6l1.5-5.6h0.8l-1.9,6.7h-0.7l-1.4-5.4l-1.4,5.4h-0.7L446.3,360.5z"/>
</g>
<g class="st0">
	<path d="M454.9,362.3h0.6v0.8c0.4-0.7,1-0.9,1.5-0.9v0.7H457c-0.9,0-1.5,0.6-1.5,1.7v2.6h-0.7V362.3z"/>
	<path d="M457.8,360.5h0.7v0.9h-0.7V360.5z M457.8,362.3h0.7v4.8h-0.7V362.3z"/>
</g>
<g class="st0">
	<path d="M460.1,362.9h-1v-0.5h1v-1.8h0.7v1.8h1.1v0.5h-1.1v4.3h-0.7V362.9z"/>
</g>
<g class="st0">
	<path d="M462.6,364.9c0,1.2,1.1,1.8,1.9,1.8c0.7,0,1.3-0.4,1.7-1h0.7c-0.2,0.5-0.6,0.9-1,1.2c-0.4,0.3-0.9,0.4-1.4,0.4
		c-1.7,0-2.6-1.3-2.6-2.5c0-1.4,1.1-2.6,2.5-2.6c0.7,0,1.3,0.2,1.8,0.7c0.6,0.5,0.8,1.3,0.8,2.1H462.6z M466.3,364.4
		c0-0.8-0.9-1.7-1.9-1.6c-1,0-1.8,0.8-1.9,1.6H466.3z"/>
	<path d="M470.5,360.5h2c0.9,0,2,0.2,2.6,1c0.5,0.6,0.8,1.4,0.8,2.3c0,2-1.1,3.3-3.4,3.3h-2V360.5z M471.3,366.5h1.3
		c1.7,0,2.6-1.1,2.6-2.7c0-0.8-0.2-1.5-0.6-1.9c-0.4-0.4-1-0.7-2-0.7h-1.3V366.5z"/>
	<path d="M477.3,364.9c0,1.2,1.1,1.8,1.9,1.8c0.7,0,1.3-0.4,1.7-1h0.7c-0.2,0.5-0.6,0.9-1,1.2c-0.4,0.3-0.9,0.4-1.4,0.4
		c-1.7,0-2.6-1.3-2.6-2.5c0-1.4,1.1-2.6,2.5-2.6c0.7,0,1.3,0.2,1.8,0.7c0.6,0.5,0.8,1.3,0.8,2.1H477.3z M481,364.4
		c0-0.8-0.9-1.7-1.9-1.6c-1,0-1.8,0.8-1.9,1.6H481z"/>
	<path d="M484.8,363.5c0-0.5-0.3-0.8-0.8-0.8c-0.5,0-0.9,0.4-0.8,0.8c0,0.5,0.4,0.6,1,0.8c0.7,0.2,1.5,0.4,1.5,1.4
		c0,0.9-0.7,1.5-1.6,1.5c-0.8,0-1.6-0.5-1.7-1.5h0.7c0,0.7,0.5,1,1,1c0.6,0,0.9-0.4,0.9-0.9c0-0.6-0.4-0.8-1.2-1
		c-0.7-0.2-1.2-0.5-1.3-1.3c0-0.9,0.7-1.4,1.5-1.4c0.7,0,1.4,0.4,1.5,1.4H484.8z"/>
	<path d="M491.4,365.5c-0.3,1-1.3,1.8-2.4,1.8c-1.6,0-2.6-1.3-2.6-2.6c0-1.4,1.1-2.6,2.6-2.6c1.1,0,2.1,0.6,2.5,1.8h-0.7
		c-0.3-0.8-1.1-1.2-1.8-1.2c-0.6,0-1,0.2-1.4,0.5c-0.3,0.3-0.5,0.8-0.5,1.4c0,1.1,0.9,1.9,1.9,1.9c0.9,0,1.5-0.6,1.8-1.2H491.4z"/>
	<path d="M492.3,362.3h0.6v0.8c0.4-0.7,1-0.9,1.5-0.9v0.7h-0.1c-0.9,0-1.5,0.6-1.5,1.7v2.6h-0.7V362.3z"/>
	<path d="M495.2,360.5h0.7v0.9h-0.7V360.5z M495.2,362.3h0.7v4.8h-0.7V362.3z"/>
	<path d="M497.2,362.3h0.6v1c0.4-0.7,1.1-1.1,2-1.1c1.6,0,2.5,1.3,2.5,2.6c0,1.3-1,2.5-2.5,2.5c-1.1,0-1.8-0.6-2-1.1v1v1.8h-0.7
		V362.3z M501.7,364.7c0-0.9-0.6-1.9-1.9-1.9c-0.5,0-1,0.2-1.4,0.6c-0.3,0.4-0.5,0.8-0.5,1.4c0,0.5,0.2,1,0.6,1.4
		c0.3,0.3,0.8,0.5,1.4,0.5C500.8,366.7,501.7,365.9,501.7,364.7L501.7,364.7z"/>
	<path d="M503.7,362.9h-1v-0.5h1v-1.8h0.7v1.8h1.1v0.5h-1.1v4.3h-0.7V362.9z"/>
	<path d="M506.2,360.5h0.7v0.9h-0.7V360.5z M506.2,362.3h0.7v4.8h-0.7V362.3z"/>
	<path d="M507.8,364.7c0-1.4,1-2.5,2.6-2.5c1.6,0,2.6,1.2,2.6,2.6s-1,2.5-2.6,2.5C508.9,367.3,507.8,366.1,507.8,364.7L507.8,364.7z
		 M508.5,364.8c0,1.1,0.8,1.9,1.9,1.9c1.1,0,1.9-0.8,1.9-1.9s-0.8-1.9-1.9-1.9C509.3,362.8,508.5,363.6,508.5,364.8L508.5,364.8z"/>
	<path d="M514,362.3h0.6c0,0.3,0,0.5,0,0.9c0.3-0.6,0.9-1,1.8-1c1.5,0,2,1,2,2.2v2.8h-0.7v-2.6c0-1-0.5-1.8-1.6-1.7
		c-1,0-1.6,0.6-1.6,1.6v2.7H514V362.3z"/>
</g>
<rect x="441" y="349.5" class="st1" width="83.3" height="28.6"/>
<g class="st0">
	<path d="M455.9,295c-0.4,1-1.6,1.9-3.1,1.9c-2,0-3.5-1.5-3.5-3.4c0-1.9,1.5-3.4,3.5-3.4c1.6,0,2.7,1.1,3.1,1.9h-0.8
		c-0.2-0.4-1-1.3-2.3-1.3c-1.6,0-2.7,1.2-2.7,2.8c0,1.6,1.2,2.8,2.7,2.8c1.4,0,2.1-1,2.3-1.3H455.9z"/>
	<path d="M461.7,296.8H461v-1c-0.4,0.7-1.1,1.1-2,1.1c-1.6,0-2.5-1.2-2.5-2.6c0-1.4,1-2.6,2.5-2.6c1,0,1.7,0.6,2,1.2v-1h0.7V296.8z
		 M457.2,294.4c0,0.9,0.6,1.9,1.9,1.9c0.9,0,1.5-0.5,1.7-1.2c0.1-0.2,0.2-0.5,0.2-0.8c0-0.3,0-0.5-0.2-0.8c-0.3-0.7-0.9-1.2-1.8-1.2
		C458,292.4,457.2,293.3,457.2,294.4L457.2,294.4z"/>
	<path d="M463,291.9h0.6c0,0.3,0,0.5,0,0.9c0.3-0.6,0.9-1,1.8-1c1.5,0,2,1,2,2.2v2.8h-0.7v-2.6c0-1-0.5-1.8-1.6-1.7
		c-1,0-1.6,0.6-1.6,1.6v2.7H463V291.9z"/>
	<path d="M473.5,295.1c-0.3,1-1.3,1.8-2.4,1.8c-1.6,0-2.6-1.3-2.6-2.6c0-1.4,1.1-2.6,2.6-2.6c1.1,0,2.1,0.6,2.5,1.8h-0.7
		c-0.3-0.8-1.1-1.2-1.8-1.2c-0.6,0-1,0.2-1.4,0.5c-0.3,0.3-0.5,0.8-0.5,1.4c0,1.1,0.9,1.9,1.9,1.9c0.9,0,1.5-0.6,1.8-1.2H473.5z"/>
	<path d="M474.7,294.6c0,1.2,1.1,1.8,1.9,1.8c0.7,0,1.4-0.4,1.7-1h0.7c-0.2,0.5-0.6,0.9-1,1.2c-0.4,0.3-0.9,0.4-1.4,0.4
		c-1.7,0-2.6-1.3-2.6-2.5c0-1.4,1.1-2.6,2.5-2.6c0.7,0,1.3,0.2,1.8,0.7c0.6,0.5,0.8,1.3,0.8,2.1H474.7z M478.5,294
		c0-0.8-0.9-1.7-1.9-1.6c-1,0-1.8,0.8-1.9,1.6H478.5z"/>
	<path d="M480.1,290.1h0.7v6.7h-0.7V290.1z"/>
</g>
<rect x="423.6" y="279.1" class="st1" width="83.3" height="28.6"/>
<g class="st0">
	<path d="M468.6,408.2c0.1,1.1,0.9,1.3,1.3,1.3c0.7,0,1.3-0.5,1.3-1.3c0-0.9-0.8-1.1-1.6-1.4c-0.5-0.2-1.7-0.5-1.7-1.8
		c0-1.2,1-1.8,2-1.8c0.8,0,1.8,0.5,1.9,1.7h-0.7c-0.1-0.4-0.3-1.1-1.2-1.1c-0.7,0-1.2,0.5-1.2,1.1c0,0.8,0.6,1,1.7,1.4
		c0.6,0.2,1.6,0.6,1.6,1.8c0,1.1-0.8,2-2.1,2c-1.1,0-2-0.7-2.1-2H468.6z"/>
	<path d="M477.5,410h-0.6v-0.9c-0.3,0.6-0.9,1-1.8,1c-1.5,0-2-1.1-2-2.2v-2.7h0.7v2.6c0,1,0.5,1.7,1.6,1.7c1,0,1.6-0.6,1.6-1.6v-2.7
		h0.7V410z"/>
	<path d="M478.8,403.4h0.7v1.8v1c0.4-0.7,1.1-1.1,2-1.1c1.4,0,2.5,1,2.5,2.5c0,1.5-1,2.6-2.5,2.6c-0.9,0-1.6-0.4-2-1.1v1h-0.6V403.4
		z M483.2,407.6c0-1.1-0.8-1.9-1.9-1.9c-1.1,0-1.9,0.9-1.9,1.9c0,1.1,0.8,1.9,1.9,1.9C482.6,409.5,483.2,408.6,483.2,407.6
		L483.2,407.6z"/>
	<path d="M484.9,405.2h0.6v0.8c0.3-0.6,1-0.9,1.5-0.9c0.5,0,1,0.2,1.3,0.5c0.1,0.1,0.3,0.5,0.3,0.5c0.1-0.1,0.2-0.3,0.4-0.5
		c0.3-0.3,0.8-0.5,1.3-0.5c0.5,0,1,0.1,1.3,0.5c0.4,0.4,0.5,0.9,0.5,1.8v2.7h-0.7v-2.7c0-0.5-0.1-1-0.4-1.3c-0.2-0.3-0.5-0.4-1-0.4
		c-0.4,0-0.8,0.2-1.1,0.5c-0.2,0.3-0.3,0.6-0.3,1.2v2.7h-0.7v-2.7c0-0.5-0.1-0.9-0.3-1.2c-0.2-0.3-0.6-0.5-1.1-0.5
		c-0.5,0-0.8,0.2-1,0.5c-0.2,0.3-0.3,0.6-0.3,1.2v2.7h-0.7V405.2z"/>
	<path d="M493.5,403.4h0.7v0.9h-0.7V403.4z M493.5,405.2h0.7v4.8h-0.7V405.2z"/>
	<path d="M495.8,405.7h-1v-0.5h1v-1.8h0.7v1.8h1.1v0.5h-1.1v4.3h-0.7V405.7z"/>
</g>
<rect x="441" y="392.4" class="st1" width="83.3" height="28.6"/>
<g class="st0">
	<path d="M473.3,451.1c-0.4,1-1.6,1.9-3.1,1.9c-2,0-3.5-1.5-3.5-3.4c0-1.9,1.5-3.4,3.5-3.4c1.6,0,2.7,1.1,3.1,1.9h-0.8
		c-0.2-0.4-1-1.3-2.3-1.3c-1.6,0-2.7,1.2-2.7,2.8c0,1.6,1.2,2.8,2.7,2.8c1.4,0,2.1-1,2.3-1.3H473.3z"/>
	<path d="M479.1,452.9h-0.7v-1c-0.4,0.7-1.1,1.1-2,1.1c-1.6,0-2.5-1.2-2.5-2.6c0-1.4,1-2.6,2.5-2.6c1,0,1.7,0.6,2,1.2v-1h0.7V452.9z
		 M474.6,450.5c0,0.9,0.6,1.9,1.9,1.9c0.9,0,1.5-0.5,1.7-1.2c0.1-0.2,0.2-0.5,0.2-0.8c0-0.3,0-0.5-0.2-0.8c-0.3-0.7-0.9-1.2-1.8-1.2
		C475.4,448.5,474.6,449.4,474.6,450.5L474.6,450.5z"/>
	<path d="M480.4,448.1h0.6c0,0.3,0,0.5,0,0.9c0.3-0.6,0.9-1,1.8-1c1.5,0,2,1,2,2.2v2.8h-0.7v-2.6c0-1-0.5-1.8-1.6-1.7
		c-1,0-1.6,0.6-1.6,1.6v2.7h-0.7V448.1z"/>
	<path d="M490.9,451.3c-0.3,1-1.3,1.8-2.4,1.8c-1.6,0-2.6-1.3-2.6-2.6c0-1.4,1.1-2.6,2.6-2.6c1.1,0,2.1,0.6,2.5,1.8h-0.7
		c-0.3-0.8-1.1-1.2-1.8-1.2c-0.6,0-1,0.2-1.4,0.5c-0.3,0.3-0.5,0.8-0.5,1.4c0,1.1,0.9,1.9,1.9,1.9c0.9,0,1.5-0.6,1.8-1.2H490.9z"/>
	<path d="M492.1,450.7c0,1.2,1.1,1.8,1.9,1.8c0.7,0,1.4-0.4,1.7-1h0.7c-0.2,0.5-0.6,0.9-1,1.2c-0.4,0.3-0.9,0.4-1.4,0.4
		c-1.7,0-2.6-1.3-2.6-2.5c0-1.4,1.1-2.6,2.5-2.6c0.7,0,1.3,0.2,1.8,0.7c0.6,0.5,0.8,1.3,0.8,2.1H492.1z M495.9,450.1
		c0-0.8-0.9-1.7-1.9-1.6c-1,0-1.8,0.8-1.9,1.6H495.9z"/>
	<path d="M497.5,446.2h0.7v6.7h-0.7V446.2z"/>
</g>
<rect x="441" y="435.2" class="st1" width="83.3" height="28.6"/>
<g class="st0">
	<path d="M237.3,179h-1.6v-0.7h4v0.7H238v6h-0.7V179z"/>
</g>
<g class="st0">
	<path d="M239.9,182.7c0,1.2,1.1,1.8,1.9,1.8c0.7,0,1.4-0.4,1.7-1h0.7c-0.2,0.5-0.6,0.9-1,1.2c-0.4,0.3-0.9,0.4-1.4,0.4
		c-1.7,0-2.6-1.3-2.6-2.5c0-1.4,1.1-2.6,2.5-2.6c0.7,0,1.3,0.2,1.8,0.7c0.6,0.5,0.8,1.3,0.8,2.1H239.9z M243.7,182.2
		c0-0.8-0.9-1.7-1.9-1.6c-1,0-1.8,0.8-1.9,1.6H243.7z"/>
	<path d="M250.2,185h-0.7v-1c-0.4,0.7-1.1,1.1-2,1.1c-1.6,0-2.5-1.2-2.5-2.6c0-1.4,1-2.6,2.5-2.6c1,0,1.7,0.6,2,1.2v-1h0.7V185z
		 M245.7,182.5c0,0.9,0.6,1.9,1.9,1.9c0.9,0,1.5-0.5,1.7-1.2c0.1-0.2,0.2-0.5,0.2-0.8c0-0.3,0-0.5-0.2-0.8c-0.3-0.7-0.9-1.2-1.8-1.2
		C246.5,180.6,245.7,181.5,245.7,182.5L245.7,182.5z"/>
	<path d="M251.5,180.1h0.6v0.8c0.3-0.6,1-0.9,1.5-0.9c0.5,0,1,0.2,1.3,0.5c0.1,0.1,0.3,0.5,0.3,0.5c0.1-0.1,0.2-0.3,0.4-0.5
		c0.3-0.3,0.8-0.5,1.3-0.5c0.5,0,1,0.1,1.3,0.5c0.4,0.4,0.5,0.9,0.5,1.8v2.7h-0.7v-2.7c0-0.5-0.1-1-0.4-1.3c-0.2-0.3-0.5-0.4-1-0.4
		c-0.4,0-0.8,0.2-1.1,0.5c-0.2,0.3-0.3,0.6-0.3,1.2v2.7h-0.7v-2.7c0-0.5-0.1-0.9-0.3-1.2c-0.2-0.3-0.6-0.5-1.1-0.5
		c-0.5,0-0.8,0.2-1,0.5c-0.2,0.3-0.3,0.6-0.3,1.2v2.7h-0.7V180.1z"/>
	<path d="M263.1,183.1c0.1,1.1,0.9,1.3,1.3,1.3c0.7,0,1.3-0.5,1.3-1.3c0-0.9-0.8-1.1-1.6-1.4c-0.5-0.2-1.7-0.5-1.7-1.8
		c0-1.2,1-1.8,2-1.8c0.8,0,1.8,0.5,1.9,1.7h-0.7c-0.1-0.4-0.3-1.1-1.2-1.1c-0.7,0-1.2,0.5-1.2,1.1c0,0.8,0.6,1,1.7,1.4
		c0.6,0.2,1.6,0.6,1.6,1.8c0,1.1-0.8,2-2.1,2c-1.1,0-2-0.7-2.1-2H263.1z"/>
	<path d="M267.5,178.3h0.7v0.9h-0.7V178.3z M267.5,180.1h0.7v4.8h-0.7V180.1z"/>
	<path d="M268.9,184.5l2.7-3.8H269v-0.5h3.3v0.5l-2.6,3.8h2.7v0.5h-3.5V184.5z"/>
	<path d="M273.5,182.7c0,1.2,1.1,1.8,1.9,1.8c0.7,0,1.4-0.4,1.7-1h0.7c-0.2,0.5-0.6,0.9-1,1.2c-0.4,0.3-0.9,0.4-1.4,0.4
		c-1.7,0-2.6-1.3-2.6-2.5c0-1.4,1.1-2.6,2.5-2.6c0.7,0,1.3,0.2,1.8,0.7c0.6,0.5,0.8,1.3,0.8,2.1H273.5z M277.3,182.2
		c0-0.8-0.9-1.7-1.9-1.6c-1,0-1.8,0.8-1.9,1.6H277.3z"/>
</g>
<rect x="215.3" y="167.3" class="st1" width="83.3" height="28.6"/>
<g class="st0">
	<path d="M239,221.7h2c0.9,0,2,0.2,2.6,1c0.5,0.6,0.8,1.4,0.8,2.3c0,2-1.1,3.3-3.4,3.3h-2V221.7z M239.7,227.7h1.3
		c1.7,0,2.6-1.1,2.6-2.7c0-0.8-0.2-1.5-0.6-1.9c-0.4-0.5-1-0.7-2-0.7h-1.3V227.7z"/>
	<path d="M249.8,228.4h-0.6v-0.9c-0.3,0.6-0.9,1-1.8,1c-1.5,0-2-1.1-2-2.2v-2.7h0.7v2.6c0,1,0.5,1.7,1.6,1.7c1,0,1.6-0.6,1.6-1.6
		v-2.7h0.7V228.4z"/>
</g>
<g class="st0">
	<path d="M251.1,223.5h0.6v0.8c0.4-0.7,1-0.9,1.5-0.9v0.7h-0.1c-0.9,0-1.5,0.6-1.5,1.7v2.6h-0.7V223.5z"/>
</g>
<g class="st0">
	<path d="M258.5,228.4h-0.7v-1c-0.4,0.7-1.1,1.1-2,1.1c-1.6,0-2.5-1.2-2.5-2.6c0-1.4,1-2.6,2.5-2.6c1,0,1.7,0.6,2,1.2v-1h0.7V228.4z
		 M254,225.9c0,0.9,0.6,1.9,1.9,1.9c0.9,0,1.5-0.5,1.7-1.2c0.1-0.2,0.2-0.5,0.2-0.8c0-0.3,0-0.5-0.2-0.8c-0.3-0.7-0.9-1.2-1.8-1.2
		C254.8,224,254,224.9,254,225.9L254,225.9z"/>
	<path d="M260.2,224h-1v-0.5h1v-1.8h0.7v1.8h1.1v0.5h-1.1v4.3h-0.7V224z"/>
	<path d="M262.6,221.7h0.7v0.9h-0.7V221.7z M262.6,223.5h0.7v4.8h-0.7V223.5z"/>
	<path d="M264.3,225.9c0-1.4,1-2.5,2.6-2.5c1.6,0,2.6,1.2,2.6,2.6s-1,2.5-2.6,2.5C265.3,228.5,264.3,227.3,264.3,225.9L264.3,225.9z
		 M264.9,225.9c0,1.1,0.8,1.9,1.9,1.9c1.1,0,1.9-0.8,1.9-1.9s-0.8-1.9-1.9-1.9C265.8,224,264.9,224.8,264.9,225.9L264.9,225.9z"/>
	<path d="M270.4,223.5h0.6c0,0.3,0,0.5,0,0.9c0.3-0.6,0.9-1,1.8-1c1.5,0,2,1,2,2.2v2.8h-0.7v-2.6c0-1-0.5-1.8-1.6-1.7
		c-1,0-1.6,0.6-1.6,1.6v2.7h-0.7V223.5z"/>
</g>
<rect x="215.3" y="210.7" class="st1" width="83.3" height="28.6"/>
<g class="st0">
	<path d="M248.2,269.9c0.1,1.1,0.9,1.3,1.3,1.3c0.7,0,1.3-0.5,1.3-1.3c0-0.9-0.8-1.1-1.6-1.4c-0.5-0.2-1.7-0.5-1.7-1.8
		c0-1.2,1-1.8,2-1.8c0.8,0,1.8,0.5,1.9,1.7h-0.7c-0.1-0.4-0.3-1.1-1.2-1.1c-0.7,0-1.2,0.5-1.2,1.1c0,0.8,0.6,1,1.7,1.4
		c0.6,0.2,1.6,0.6,1.6,1.8c0,1.1-0.8,2-2.1,2c-1.1,0-2-0.7-2.1-2H248.2z"/>
</g>
<g class="st0">
	<path d="M253,267.4h-1v-0.5h1v-1.8h0.7v1.8h1.1v0.5h-1.1v4.3H253V267.4z"/>
</g>
<g class="st0">
	<path d="M260.1,271.8h-0.7v-1c-0.4,0.7-1.1,1.1-2,1.1c-1.6,0-2.5-1.2-2.5-2.6c0-1.4,1-2.6,2.5-2.6c1,0,1.7,0.6,2,1.2v-1h0.7V271.8z
		 M255.6,269.3c0,0.9,0.6,1.9,1.9,1.9c0.9,0,1.5-0.5,1.7-1.2c0.1-0.2,0.2-0.5,0.2-0.8c0-0.3,0-0.5-0.2-0.8c-0.3-0.7-0.9-1.2-1.8-1.2
		C256.4,267.4,255.6,268.3,255.6,269.3L255.6,269.3z"/>
</g>
<g class="st0">
	<path d="M261.3,266.9h0.6v0.8c0.4-0.7,1-0.9,1.5-0.9v0.7h-0.1c-0.9,0-1.5,0.6-1.5,1.7v2.6h-0.7V266.9z"/>
</g>
<g class="st0">
	<path d="M264.9,267.4h-1v-0.5h1v-1.8h0.7v1.8h1.1v0.5h-1.1v4.3h-0.7V267.4z"/>
</g>
<rect x="215.3" y="254.1" class="st1" width="83.3" height="28.6"/>
<g class="st0">
	<path d="M247.6,313.4c-0.4,1-1.6,1.9-3.1,1.9c-2,0-3.5-1.5-3.5-3.4c0-1.9,1.5-3.4,3.5-3.4c1.6,0,2.7,1.1,3.1,1.9h-0.8
		c-0.2-0.4-1-1.3-2.3-1.3c-1.6,0-2.7,1.2-2.7,2.8c0,1.6,1.2,2.8,2.7,2.8c1.4,0,2.1-1,2.3-1.3H247.6z"/>
	<path d="M253.4,315.2h-0.7v-1c-0.4,0.7-1.1,1.1-2,1.1c-1.6,0-2.5-1.2-2.5-2.6c0-1.4,1-2.6,2.5-2.6c1,0,1.7,0.6,2,1.2v-1h0.7V315.2z
		 M248.9,312.7c0,0.9,0.6,1.9,1.9,1.9c0.9,0,1.5-0.5,1.7-1.2c0.1-0.2,0.2-0.5,0.2-0.8c0-0.3,0-0.5-0.2-0.8c-0.3-0.7-0.9-1.2-1.8-1.2
		C249.7,310.8,248.9,311.7,248.9,312.7L248.9,312.7z"/>
	<path d="M254.7,310.3h0.6c0,0.3,0,0.5,0,0.9c0.3-0.6,0.9-1,1.8-1c1.5,0,2,1,2,2.2v2.8h-0.7v-2.6c0-1-0.5-1.8-1.6-1.7
		c-1,0-1.6,0.6-1.6,1.6v2.7h-0.7V310.3z"/>
	<path d="M265.2,313.5c-0.3,1-1.3,1.8-2.4,1.8c-1.6,0-2.6-1.3-2.6-2.6c0-1.4,1.1-2.6,2.6-2.6c1.1,0,2.1,0.6,2.5,1.8h-0.7
		c-0.3-0.8-1.1-1.2-1.8-1.2c-0.6,0-1,0.2-1.4,0.5c-0.3,0.3-0.5,0.8-0.5,1.4c0,1.1,0.9,1.9,1.9,1.9c0.9,0,1.5-0.6,1.8-1.2H265.2z"/>
	<path d="M266.4,312.9c0,1.2,1.1,1.8,1.9,1.8c0.7,0,1.4-0.4,1.7-1h0.7c-0.2,0.5-0.6,0.9-1,1.2c-0.4,0.3-0.9,0.4-1.4,0.4
		c-1.7,0-2.6-1.3-2.6-2.5c0-1.4,1.1-2.6,2.5-2.6c0.7,0,1.3,0.2,1.8,0.7c0.6,0.5,0.8,1.3,0.8,2.1H266.4z M270.2,312.4
		c0-0.8-0.9-1.7-1.9-1.6c-1,0-1.8,0.8-1.9,1.6H270.2z"/>
	<path d="M271.8,308.5h0.7v6.7h-0.7V308.5z"/>
</g>
<rect x="215.3" y="297.5" class="st1" width="83.3" height="28.6"/>
<g class="st0">
	<path d="M25.9,169.3h3.3v0.7H25v-0.5l3.3-5.5h-3.4v-0.7h4.2v0.6L25.9,169.3z"/>
	<path d="M29.6,167.5c0-1.4,1-2.5,2.6-2.5c1.6,0,2.6,1.2,2.6,2.6s-1,2.5-2.6,2.5C30.6,170,29.6,168.9,29.6,167.5L29.6,167.5z
		 M30.3,167.5c0,1.1,0.8,1.9,1.9,1.9c1.1,0,1.9-0.8,1.9-1.9s-0.8-1.9-1.9-1.9C31.1,165.6,30.3,166.4,30.3,167.5L30.3,167.5z"/>
	<path d="M35.5,167.5c0-1.4,1-2.5,2.6-2.5c1.6,0,2.6,1.2,2.6,2.6s-1,2.5-2.6,2.5C36.5,170,35.5,168.9,35.5,167.5L35.5,167.5z
		 M36.1,167.5c0,1.1,0.8,1.9,1.9,1.9c1.1,0,1.9-0.8,1.9-1.9s-0.8-1.9-1.9-1.9C37,165.6,36.1,166.4,36.1,167.5L36.1,167.5z"/>
	<path d="M41.6,165.1h0.6v0.8c0.3-0.6,1-0.9,1.5-0.9c0.5,0,1,0.2,1.3,0.5c0.1,0.1,0.3,0.5,0.3,0.5c0.1-0.1,0.2-0.3,0.4-0.5
		c0.3-0.3,0.8-0.5,1.3-0.5c0.5,0,1,0.1,1.3,0.5c0.4,0.4,0.5,0.9,0.5,1.8v2.7h-0.7v-2.7c0-0.5-0.1-1-0.4-1.3c-0.2-0.3-0.5-0.4-1-0.4
		c-0.4,0-0.8,0.2-1.1,0.5c-0.2,0.3-0.3,0.6-0.3,1.2v2.7h-0.7v-2.7c0-0.5-0.1-0.9-0.3-1.2c-0.2-0.3-0.6-0.5-1.1-0.5
		c-0.5,0-0.8,0.2-1,0.5c-0.2,0.3-0.3,0.6-0.3,1.2v2.7h-0.7V165.1z"/>
	<path d="M52.8,163.3h0.7v6.7h-0.7V163.3z"/>
	<path d="M54.9,165.1h0.6c0,0.3,0,0.5,0,0.9c0.3-0.6,0.9-1,1.8-1c1.5,0,2,1,2,2.2v2.8h-0.7v-2.6c0-1-0.5-1.8-1.6-1.7
		c-1,0-1.6,0.6-1.6,1.6v2.7h-0.7V165.1z"/>
	<path d="M62.9,167.5c0-1.4,1-2.5,2.6-2.5c1.6,0,2.6,1.2,2.6,2.6s-1,2.5-2.6,2.5C63.9,170,62.9,168.9,62.9,167.5L62.9,167.5z
		 M63.6,167.5c0,1.1,0.8,1.9,1.9,1.9c1.1,0,1.9-0.8,1.9-1.9s-0.8-1.9-1.9-1.9C64.4,165.6,63.6,166.4,63.6,167.5L63.6,167.5z"/>
	<path d="M69.1,165.1h0.6v0.8c0.4-0.7,1-0.9,1.5-0.9v0.7h-0.1c-0.9,0-1.5,0.6-1.5,1.7v2.6h-0.7V165.1z"/>
	<path d="M74.3,166.6c0-2.1,1.6-3.5,3.5-3.5c2,0,3.5,1.5,3.5,3.4c0,2-1.5,3.4-3.5,3.4C75.8,170,74.3,168.5,74.3,166.6L74.3,166.6z
		 M75,166.6c0,1.6,1.2,2.8,2.7,2.8c1.6,0,2.7-1.3,2.7-2.8s-1.2-2.8-2.7-2.8C76.2,163.8,75,165,75,166.6L75,166.6z"/>
	<path d="M86.7,169.9H86v-0.9c-0.3,0.6-0.9,1-1.8,1c-1.5,0-2-1.1-2-2.2v-2.7h0.7v2.6c0,1,0.5,1.7,1.6,1.7c1,0,1.6-0.6,1.6-1.6v-2.7
		h0.7V169.9z"/>
	<path d="M88.3,165.6h-1v-0.5h1v-1.8H89v1.8h1.1v0.5H89v4.3h-0.7V165.6z"/>
</g>
<rect x="15.8" y="152.3" class="st1" width="83.3" height="28.6"/>
<g class="st0">
	<path d="M32.5,212c0.1,1.1,0.9,1.3,1.3,1.3c0.7,0,1.3-0.5,1.3-1.3c0-0.9-0.8-1.1-1.6-1.4c-0.5-0.2-1.7-0.5-1.7-1.8
		c0-1.2,1-1.8,2-1.8c0.8,0,1.8,0.5,1.9,1.7H35c-0.1-0.4-0.3-1.1-1.2-1.1c-0.7,0-1.2,0.5-1.2,1.1c0,0.8,0.6,1,1.7,1.4
		c0.6,0.2,1.6,0.6,1.6,1.8c0,1.1-0.8,2-2.1,2c-1.1,0-2-0.7-2.1-2H32.5z"/>
	<path d="M37.2,211.6c0,1.2,1.1,1.8,1.9,1.8c0.7,0,1.4-0.4,1.7-1h0.7c-0.2,0.5-0.6,0.9-1,1.2c-0.4,0.3-0.9,0.4-1.4,0.4
		c-1.7,0-2.6-1.3-2.6-2.5c0-1.4,1.1-2.6,2.5-2.6c0.7,0,1.3,0.2,1.8,0.7c0.6,0.5,0.8,1.3,0.8,2.1H37.2z M40.9,211.1
		c0-0.8-0.9-1.7-1.9-1.6c-1,0-1.8,0.8-1.9,1.6H40.9z"/>
	<path d="M42.5,207.2h0.7v6.7h-0.7V207.2z"/>
	<path d="M44.8,211.6c0,1.2,1.1,1.8,1.9,1.8c0.7,0,1.4-0.4,1.7-1H49c-0.2,0.5-0.6,0.9-1,1.2c-0.4,0.3-0.9,0.4-1.4,0.4
		c-1.7,0-2.6-1.3-2.6-2.5c0-1.4,1.1-2.6,2.5-2.6c0.7,0,1.3,0.2,1.8,0.7c0.6,0.5,0.8,1.3,0.8,2.1H44.8z M48.5,211.1
		c0-0.8-0.9-1.7-1.9-1.6c-1,0-1.8,0.8-1.9,1.6H48.5z"/>
	<path d="M54.8,212.2c-0.3,1-1.3,1.8-2.4,1.8c-1.6,0-2.6-1.3-2.6-2.6c0-1.4,1.1-2.6,2.6-2.6c1.1,0,2.1,0.6,2.5,1.8h-0.7
		c-0.3-0.8-1.1-1.2-1.8-1.2c-0.6,0-1,0.2-1.4,0.5c-0.3,0.3-0.5,0.8-0.5,1.4c0,1.1,0.9,1.9,1.9,1.9c0.9,0,1.5-0.6,1.8-1.2H54.8z"/>
	<path d="M56.2,209.5h-1V209h1v-1.8h0.7v1.8h1.1v0.5h-1.1v4.3h-0.7V209.5z"/>
</g>
<g class="st0">
	<path d="M61.4,207.9h-1.6v-0.7h4v0.7h-1.6v6h-0.7V207.9z"/>
</g>
<g class="st0">
	<path d="M64.1,211.6c0,1.2,1.1,1.8,1.9,1.8c0.7,0,1.4-0.4,1.7-1h0.7c-0.2,0.5-0.6,0.9-1,1.2c-0.4,0.3-0.9,0.4-1.4,0.4
		c-1.7,0-2.6-1.3-2.6-2.5c0-1.4,1.1-2.6,2.5-2.6c0.7,0,1.3,0.2,1.8,0.7c0.6,0.5,0.8,1.3,0.8,2.1H64.1z M67.9,211.1
		c0-0.8-0.9-1.7-1.9-1.6c-1,0-1.8,0.8-1.9,1.6H67.9z"/>
	<path d="M74.3,213.9h-0.7v-1c-0.4,0.7-1.1,1.1-2,1.1c-1.6,0-2.5-1.2-2.5-2.6c0-1.4,1-2.6,2.5-2.6c1,0,1.7,0.6,2,1.2v-1h0.7V213.9z
		 M69.8,211.4c0,0.9,0.6,1.9,1.9,1.9c0.9,0,1.5-0.5,1.7-1.2c0.1-0.2,0.2-0.5,0.2-0.8c0-0.3,0-0.5-0.2-0.8c-0.3-0.7-0.9-1.2-1.8-1.2
		C70.7,209.5,69.8,210.4,69.8,211.4L69.8,211.4z"/>
	<path d="M75.6,209h0.6v0.8c0.3-0.6,1-0.9,1.5-0.9c0.5,0,1,0.2,1.3,0.5c0.1,0.1,0.3,0.5,0.3,0.5c0.1-0.1,0.2-0.3,0.4-0.5
		c0.3-0.3,0.8-0.5,1.3-0.5c0.5,0,1,0.1,1.3,0.5c0.4,0.4,0.5,0.9,0.5,1.8v2.7h-0.7v-2.7c0-0.5-0.1-1-0.4-1.3c-0.2-0.3-0.5-0.4-1-0.4
		c-0.4,0-0.8,0.2-1.1,0.5c-0.2,0.3-0.3,0.6-0.3,1.2v2.7H79v-2.7c0-0.5-0.1-0.9-0.3-1.2c-0.2-0.3-0.6-0.5-1.1-0.5
		c-0.5,0-0.8,0.2-1,0.5c-0.2,0.3-0.3,0.6-0.3,1.2v2.7h-0.7V209z"/>
</g>
<rect x="15.8" y="196.2" class="st1" width="83.3" height="28.6"/>
<g class="st0">
	<path d="M74.4,275.8c0,0.5,0,0.9-0.2,1.3c-0.1,0.2-0.3,0.5-0.5,0.7c-0.4,0.2-0.8,0.4-1.2,0.4c-0.5,0-1.5-0.3-1.8-1.4
		c0-0.1,0-0.2-0.1-0.3h0.8c0,0,0,0.1,0,0.1c0.2,0.7,0.8,0.9,1.1,0.9c0.5,0,0.9-0.3,1-0.6c0.1-0.3,0.1-0.5,0.1-0.8v-4.7h0.7V275.8z"
		/>
</g>
<g class="st0">
	<path d="M75.3,275.5c0-1.4,1-2.5,2.6-2.5c1.6,0,2.6,1.2,2.6,2.6s-1,2.5-2.6,2.5C76.3,278.1,75.3,276.9,75.3,275.5L75.3,275.5z
		 M76,275.5c0,1.1,0.8,1.9,1.9,1.9c1.1,0,1.9-0.8,1.9-1.9s-0.8-1.9-1.9-1.9C76.8,273.6,76,274.4,76,275.5L76,275.5z"/>
	<path d="M81.5,271.3h0.7v0.9h-0.7V271.3z M81.5,273.1h0.7v4.8h-0.7V273.1z"/>
	<path d="M83.4,273.1h0.6c0,0.3,0,0.5,0,0.9c0.3-0.6,0.9-1,1.8-1c1.5,0,2,1,2,2.2v2.8h-0.7v-2.6c0-1-0.5-1.8-1.6-1.7
		c-1,0-1.6,0.6-1.6,1.6v2.7h-0.7V273.1z"/>
</g>
<rect x="37.9" y="260.3" class="st1" width="83.3" height="28.6"/>
<g class="st0">
	<path d="M67.3,315.2h0.7v6h2.5v0.7h-3.3V315.2z"/>
	<path d="M71.6,319.7c0,1.2,1.1,1.8,1.9,1.8c0.7,0,1.4-0.4,1.7-1h0.7c-0.2,0.5-0.6,0.9-1,1.2c-0.4,0.3-0.9,0.4-1.4,0.4
		c-1.7,0-2.6-1.3-2.6-2.5c0-1.4,1.1-2.6,2.5-2.6c0.7,0,1.3,0.2,1.8,0.7c0.6,0.5,0.8,1.3,0.8,2.1H71.6z M75.3,319.1
		c0-0.8-0.9-1.7-1.9-1.6c-1,0-1.8,0.8-1.9,1.6H75.3z"/>
</g>
<g class="st0">
	<path d="M81.7,321.9h-0.7v-1c-0.4,0.7-1.1,1.1-2,1.1c-1.6,0-2.5-1.2-2.5-2.6c0-1.4,1-2.6,2.5-2.6c1,0,1.7,0.6,2,1.2v-1h0.7V321.9z
		 M77.2,319.5c0,0.9,0.6,1.9,1.9,1.9c0.9,0,1.5-0.5,1.7-1.2c0.1-0.2,0.2-0.5,0.2-0.8c0-0.3,0-0.5-0.2-0.8c-0.3-0.7-0.9-1.2-1.8-1.2
		C78,317.5,77.2,318.4,77.2,319.5L77.2,319.5z"/>
</g>
<g class="st0">
	<path d="M85,321.9h-0.7l-1.9-4.8h0.7l1.6,4l1.5-4h0.7L85,321.9z"/>
</g>
<g class="st0">
	<path d="M87.8,319.7c0,1.2,1.1,1.8,1.9,1.8c0.7,0,1.4-0.4,1.7-1H92c-0.2,0.5-0.6,0.9-1,1.2c-0.4,0.3-0.9,0.4-1.4,0.4
		c-1.7,0-2.6-1.3-2.6-2.5c0-1.4,1.1-2.6,2.5-2.6c0.7,0,1.3,0.2,1.8,0.7c0.6,0.5,0.8,1.3,0.8,2.1H87.8z M91.5,319.1
		c0-0.8-0.9-1.7-1.9-1.6c-1,0-1.8,0.8-1.9,1.6H91.5z"/>
</g>
<rect x="37.9" y="304.3" class="st1" width="83.3" height="28.6"/>
<g class="st0">
	<path d="M225.5,75.9h3.4v0.7h-2.6v2.3h2.6v0.7h-2.6v3h-0.7V75.9z"/>
</g>
<g class="st0">
	<path d="M229.4,80.1c0-1.4,1-2.5,2.6-2.5c1.6,0,2.6,1.2,2.6,2.6s-1,2.5-2.6,2.5C230.4,82.7,229.4,81.5,229.4,80.1L229.4,80.1z
		 M230,80.1c0,1.1,0.8,1.9,1.9,1.9c1.1,0,1.9-0.8,1.9-1.9s-0.8-1.9-1.9-1.9C230.9,78.2,230,79,230,80.1L230,80.1z"/>
	<path d="M235.5,77.7h0.6v0.8c0.4-0.7,1-0.9,1.5-0.9v0.7h-0.1c-0.9,0-1.5,0.6-1.5,1.7v2.6h-0.7V77.7z"/>
	<path d="M238.4,77.7h0.6v0.8c0.3-0.6,1-0.9,1.5-0.9c0.5,0,1,0.2,1.3,0.5c0.1,0.1,0.3,0.5,0.3,0.5c0.1-0.1,0.2-0.3,0.4-0.5
		c0.3-0.3,0.8-0.5,1.3-0.5c0.5,0,1,0.1,1.3,0.5c0.4,0.4,0.5,0.9,0.5,1.8v2.7h-0.7v-2.7c0-0.5-0.1-1-0.4-1.3c-0.2-0.3-0.5-0.4-1-0.4
		c-0.4,0-0.8,0.2-1.1,0.5c-0.2,0.3-0.3,0.6-0.3,1.2v2.7h-0.7v-2.7c0-0.5-0.1-0.9-0.3-1.2c-0.2-0.3-0.6-0.5-1.1-0.5
		c-0.4,0-0.8,0.2-1,0.5c-0.2,0.3-0.3,0.6-0.3,1.2v2.7h-0.7V77.7z"/>
</g>
<g class="st0">
	<path d="M249.8,76.6h-1.6v-0.7h4v0.7h-1.6v6h-0.7V76.6z"/>
</g>
<g class="st0">
	<path d="M252.5,80.3c0,1.2,1.1,1.8,1.9,1.8c0.7,0,1.4-0.4,1.7-1h0.7c-0.2,0.5-0.6,0.9-1,1.2c-0.4,0.3-0.9,0.4-1.4,0.4
		c-1.7,0-2.6-1.3-2.6-2.5c0-1.4,1.1-2.6,2.5-2.6c0.7,0,1.3,0.2,1.8,0.7c0.6,0.5,0.8,1.3,0.8,2.1H252.5z M256.2,79.8
		c0-0.8-0.9-1.7-1.9-1.6c-1,0-1.8,0.8-1.9,1.6H256.2z"/>
	<path d="M262.7,82.6H262v-1c-0.4,0.7-1.1,1.1-2,1.1c-1.6,0-2.5-1.2-2.5-2.6c0-1.4,1-2.6,2.5-2.6c1,0,1.7,0.6,2,1.2v-1h0.7V82.6z
		 M258.2,80.1c0,0.9,0.6,1.9,1.9,1.9c0.9,0,1.5-0.5,1.7-1.2c0.1-0.2,0.2-0.5,0.2-0.8c0-0.3,0-0.5-0.2-0.8c-0.3-0.7-0.9-1.2-1.8-1.2
		C259,78.2,258.2,79.1,258.2,80.1L258.2,80.1z"/>
	<path d="M264,77.7h0.6v0.8c0.3-0.6,1-0.9,1.5-0.9c0.5,0,1,0.2,1.3,0.5c0.1,0.1,0.3,0.5,0.3,0.5c0.1-0.1,0.2-0.3,0.4-0.5
		c0.3-0.3,0.8-0.5,1.3-0.5c0.5,0,1,0.1,1.3,0.5c0.4,0.4,0.5,0.9,0.5,1.8v2.7h-0.7v-2.7c0-0.5-0.1-1-0.4-1.3c-0.2-0.3-0.5-0.4-1-0.4
		c-0.4,0-0.8,0.2-1.1,0.5c-0.2,0.3-0.3,0.6-0.3,1.2v2.7h-0.7v-2.7c0-0.5-0.1-0.9-0.3-1.2c-0.2-0.3-0.6-0.5-1.1-0.5
		c-0.5,0-0.8,0.2-1,0.5c-0.2,0.3-0.3,0.6-0.3,1.2v2.7H264V77.7z"/>
</g>
<rect x="193.3" y="64.9" class="st1" width="110.2" height="28.6"/>
<g class="st0">
	<path d="M426.1,75.2h1.7c1,0,1.5,0.1,1.9,0.3c0.5,0.3,0.9,1,0.9,1.8c0,0.5-0.1,0.9-0.4,1.3c-0.4,0.5-0.9,0.7-1.5,0.7l1.7,2.5h-0.8
		l-1.9-2.9h0.2c0.5,0,1.1,0,1.5-0.3c0.4-0.3,0.5-0.7,0.5-1.2c0-0.5-0.2-1-0.7-1.3c-0.3-0.2-0.7-0.2-1.4-0.2h-1v6h-0.7V75.2z"/>
	<path d="M431.8,79.6c0,1.2,1.1,1.8,1.9,1.8c0.7,0,1.4-0.4,1.7-1h0.7c-0.2,0.5-0.6,0.9-1,1.2c-0.4,0.3-0.9,0.4-1.4,0.4
		c-1.7,0-2.6-1.3-2.6-2.5c0-1.4,1.1-2.6,2.5-2.6c0.7,0,1.3,0.2,1.8,0.7c0.6,0.5,0.8,1.3,0.8,2.1H431.8z M435.5,79.1
		c0-0.8-0.9-1.7-1.9-1.6c-1,0-1.8,0.8-1.9,1.6H435.5z"/>
	<path d="M437.1,77h0.6v1c0.4-0.7,1.1-1.1,2-1.1c1.6,0,2.5,1.3,2.5,2.6c0,1.3-1,2.5-2.5,2.5c-1.1,0-1.8-0.6-2-1.1v1v1.8h-0.7V77z
		 M441.6,79.5c0-0.9-0.6-1.9-1.9-1.9c-0.5,0-1,0.2-1.4,0.6c-0.3,0.4-0.5,0.8-0.5,1.4c0,0.5,0.2,1,0.6,1.4c0.3,0.3,0.8,0.5,1.4,0.5
		C440.8,81.4,441.6,80.6,441.6,79.5L441.6,79.5z"/>
	<path d="M443,79.5c0-1.4,1-2.5,2.6-2.5c1.6,0,2.6,1.2,2.6,2.6s-1,2.5-2.6,2.5C444,82,443,80.8,443,79.5L443,79.5z M443.6,79.5
		c0,1.1,0.8,1.9,1.9,1.9c1.1,0,1.9-0.8,1.9-1.9s-0.8-1.9-1.9-1.9C444.5,77.5,443.6,78.4,443.6,79.5L443.6,79.5z"/>
</g>
<g class="st0">
	<path d="M449.1,77h0.6v0.8c0.4-0.7,1-0.9,1.5-0.9v0.7h-0.1c-0.9,0-1.5,0.6-1.5,1.7v2.6h-0.7V77z"/>
</g>
<g class="st0">
	<path d="M452.7,77.6h-1V77h1v-1.8h0.7V77h1.1v0.5h-1.1v4.3h-0.7V77.6z"/>
</g>
<rect x="384.9" y="64.2" class="st1" width="110.2" height="28.6"/>
<g class="st0">
	<path d="M617.7,80.7c0.1,1.1,0.9,1.3,1.3,1.3c0.7,0,1.3-0.5,1.3-1.3c0-0.9-0.8-1.1-1.6-1.4c-0.5-0.2-1.7-0.5-1.7-1.8
		c0-1.2,1-1.8,2-1.8c0.8,0,1.8,0.5,1.9,1.7h-0.7c-0.1-0.4-0.3-1.1-1.2-1.1c-0.7,0-1.2,0.5-1.2,1.1c0,0.8,0.6,1,1.7,1.4
		c0.6,0.2,1.6,0.6,1.6,1.8c0,1.1-0.8,2-2.1,2c-1.1,0-2-0.7-2.1-2H617.7z"/>
	<path d="M622.4,80.3c0,1.2,1.1,1.8,1.9,1.8c0.7,0,1.4-0.4,1.7-1h0.7c-0.2,0.5-0.6,0.9-1,1.2c-0.4,0.3-0.9,0.4-1.4,0.4
		c-1.7,0-2.6-1.3-2.6-2.5c0-1.4,1.1-2.6,2.5-2.6c0.7,0,1.3,0.2,1.8,0.7c0.6,0.5,0.8,1.3,0.8,2.1H622.4z M626.1,79.8
		c0-0.8-0.9-1.7-1.9-1.6c-1,0-1.8,0.8-1.9,1.6H626.1z"/>
	<path d="M628.1,78.2h-1v-0.5h1v-1.8h0.7v1.8h1.1v0.5h-1.1v4.3h-0.7V78.2z"/>
	<path d="M630.9,78.2h-1v-0.5h1v-1.8h0.7v1.8h1.1v0.5h-1.1v4.3h-0.7V78.2z"/>
	<path d="M633.4,75.9h0.7v0.9h-0.7V75.9z M633.4,77.7h0.7v4.8h-0.7V77.7z"/>
	<path d="M635.3,77.7h0.6c0,0.3,0,0.5,0,0.9c0.3-0.6,0.9-1,1.8-1c1.5,0,2,1,2,2.2v2.8h-0.7v-2.6c0-1-0.5-1.8-1.6-1.7
		c-1,0-1.6,0.6-1.6,1.6v2.7h-0.7V77.7z"/>
	<path d="M645.9,82c0,0.9-0.3,1.5-0.7,1.9c-0.5,0.5-1.2,0.7-1.8,0.7c-1.2,0-2.1-0.7-2.4-1.6h0.8c0.1,0.2,0.3,0.4,0.6,0.6
		c0.4,0.3,0.8,0.4,1.1,0.4c0.9,0,1.9-0.7,1.9-1.9v-0.6c-0.3,0.7-1,1.2-2,1.2c-1.5,0-2.5-1.2-2.5-2.5c0-1.4,1.1-2.6,2.5-2.6
		c1,0,1.7,0.5,2,1.1v-1h0.7V82z M641.4,80.1c0,1,0.7,1.9,1.9,1.9c0.5,0,1-0.2,1.4-0.6c0.3-0.4,0.5-0.8,0.5-1.4
		c0-0.4-0.1-0.9-0.4-1.3c-0.3-0.4-0.8-0.7-1.5-0.7C642.3,78.2,641.4,79,641.4,80.1L641.4,80.1z"/>
</g>
<rect x="576.5" y="64.9" class="st1" width="110.2" height="28.6"/>
<g class="st0">
	<path d="M315.2,18v-6.7h0.7v3h3.2v-3h0.7V18h-0.7v-3H316v3H315.2z"/>
	<path d="M320.9,15.6c0-1.4,1-2.5,2.6-2.5c1.6,0,2.6,1.2,2.6,2.6s-1,2.5-2.6,2.5C321.9,18.2,320.9,17,320.9,15.6L320.9,15.6z
		 M321.6,15.6c0,1.1,0.8,1.9,1.9,1.9c1.1,0,1.9-0.8,1.9-1.9s-0.8-1.9-1.9-1.9C322.4,13.7,321.6,14.5,321.6,15.6L321.6,15.6z"/>
	<path d="M327.1,13.2h0.6V14c0.3-0.6,1-0.9,1.5-0.9c0.5,0,1,0.2,1.3,0.5c0.1,0.1,0.3,0.5,0.3,0.5c0.1-0.1,0.2-0.3,0.4-0.5
		c0.3-0.3,0.8-0.5,1.3-0.5c0.5,0,1,0.1,1.3,0.5c0.4,0.4,0.5,0.9,0.5,1.8V18h-0.7v-2.7c0-0.5-0.1-1-0.4-1.3c-0.2-0.3-0.5-0.4-1-0.4
		c-0.4,0-0.8,0.2-1.1,0.5c-0.2,0.3-0.3,0.6-0.3,1.2V18h-0.7v-2.7c0-0.5-0.1-0.9-0.3-1.2c-0.2-0.3-0.6-0.5-1.1-0.5
		c-0.5,0-0.8,0.2-1,0.5c-0.2,0.3-0.3,0.6-0.3,1.2V18h-0.7V13.2z"/>
	<path d="M336,15.8c0,1.2,1.1,1.8,1.9,1.8c0.7,0,1.4-0.4,1.7-1h0.7c-0.2,0.5-0.6,0.9-1,1.2c-0.4,0.3-0.9,0.4-1.4,0.4
		c-1.7,0-2.6-1.3-2.6-2.5c0-1.4,1.1-2.6,2.5-2.6c0.7,0,1.3,0.2,1.8,0.7c0.6,0.5,0.8,1.3,0.8,2.1H336z M339.7,15.3
		c0-0.8-0.9-1.7-1.9-1.6c-1,0-1.8,0.8-1.9,1.6H339.7z"/>
	<path d="M344.4,16.2c0.1,1.1,0.9,1.3,1.3,1.3c0.7,0,1.3-0.5,1.3-1.3c0-0.9-0.8-1.1-1.6-1.4c-0.5-0.2-1.7-0.5-1.7-1.8
		c0-1.2,1-1.8,2-1.8c0.8,0,1.8,0.5,1.9,1.7h-0.7c-0.1-0.4-0.3-1.1-1.2-1.1c-0.7,0-1.2,0.5-1.2,1.1c0,0.8,0.6,1,1.7,1.4
		c0.6,0.2,1.6,0.6,1.6,1.8c0,1.1-0.8,2-2.1,2c-1.1,0-2-0.7-2.1-2H344.4z"/>
	<path d="M353.5,16.4c-0.3,1-1.3,1.8-2.4,1.8c-1.6,0-2.6-1.3-2.6-2.6c0-1.4,1.1-2.6,2.6-2.6c1.1,0,2.1,0.6,2.5,1.8h-0.7
		c-0.3-0.8-1.1-1.2-1.8-1.2c-0.6,0-1,0.2-1.4,0.5c-0.3,0.3-0.5,0.8-0.5,1.4c0,1.1,0.9,1.9,1.9,1.9c0.9,0,1.5-0.6,1.8-1.2H353.5z"/>
</g>
<g class="st0">
	<path d="M354.4,13.2h0.6V14c0.4-0.7,1-0.9,1.5-0.9v0.7h-0.1c-0.9,0-1.5,0.6-1.5,1.7V18h-0.7V13.2z"/>
</g>
<g class="st0">
	<path d="M357.3,15.8c0,1.2,1.1,1.8,1.9,1.8c0.7,0,1.3-0.4,1.7-1h0.7c-0.2,0.5-0.6,0.9-1,1.2c-0.4,0.3-0.9,0.4-1.4,0.4
		c-1.7,0-2.6-1.3-2.6-2.5c0-1.4,1.1-2.6,2.5-2.6c0.7,0,1.3,0.2,1.8,0.7c0.6,0.5,0.8,1.3,0.8,2.1H357.3z M361.1,15.3
		c0-0.8-0.9-1.7-1.9-1.6c-1,0-1.8,0.8-1.9,1.6H361.1z"/>
	<path d="M363,15.8c0,1.2,1.1,1.8,1.9,1.8c0.7,0,1.4-0.4,1.7-1h0.7c-0.2,0.5-0.6,0.9-1,1.2c-0.4,0.3-0.9,0.4-1.4,0.4
		c-1.7,0-2.6-1.3-2.6-2.5c0-1.4,1.1-2.6,2.5-2.6c0.7,0,1.3,0.2,1.8,0.7c0.6,0.5,0.8,1.3,0.8,2.1H363z M366.7,15.3
		c0-0.8-0.9-1.7-1.9-1.6c-1,0-1.8,0.8-1.9,1.6H366.7z"/>
	<path d="M368.3,13.2h0.6c0,0.3,0,0.5,0,0.9c0.3-0.6,0.9-1,1.8-1c1.5,0,2,1,2,2.2V18h-0.7v-2.6c0-1-0.5-1.8-1.6-1.7
		c-1,0-1.6,0.6-1.6,1.6V18h-0.7V13.2z"/>
</g>
<rect x="288.9" y="0.4" class="st1" width="110.2" height="28.6"/>
<rect x="209.1" y="112.8" class="st1" width="95.7" height="230.5"/>
<rect x="31.7" y="247.6" class="st1" width="95.7" height="99.2"/>
<rect x="401.8" y="110.6" class="st1" width="95.7" height="93.5"/>
<rect x="417.3" y="225.2" class="st1" width="95.7" height="93.5"/>
<rect x="434.7" y="337.6" class="st1" width="95.7" height="138.8"/>
<line class="st1" x1="56.1" y1="47.2" x2="56.1" y2="64.8"/>
<line class="st1" x1="248.6" y1="47.2" x2="248.6" y2="64.8"/>
<line class="st1" x1="440.2" y1="47.2" x2="440.2" y2="64.8"/>
<line class="st1" x1="632.7" y1="47.2" x2="632.7" y2="64.8"/>
<line class="st1" x1="55.9" y1="47.1" x2="632.4" y2="47.1"/>
<line class="st1" x1="344.2" y1="29.4" x2="344.2" y2="47"/>
<line class="st1" x1="6.2" y1="95.4" x2="6.2" y2="217.3"/>
<g>
	<g>
		<g>
			<defs>
				<rect id="SVGID_1_" x="-49.7" y="-49.5" width="792" height="612"/>
			</defs>
			<clipPath id="SVGID_2_">
				<use xlink:href="#SVGID_1_"  style="overflow:visible;"/>
			</clipPath>
			<path class="st2" d="M6.2,96.9c0.8,0,1.5-0.7,1.5-1.5S7,93.9,6.2,93.9s-1.5,0.7-1.5,1.5C4.7,96.3,5.3,96.9,6.2,96.9"/>
		</g>
	</g>
</g>
<line class="st1" x1="198.9" y1="93.7" x2="198.9" y2="224.4"/>
<g>
	<g>
		<g>
			<defs>
				<rect id="SVGID_3_" x="-49.7" y="-49.5" width="792" height="612"/>
			</defs>
			<clipPath id="SVGID_4_">
				<use xlink:href="#SVGID_3_"  style="overflow:visible;"/>
			</clipPath>
			<path class="st3" d="M198.9,95.2c0.8,0,1.5-0.7,1.5-1.5s-0.7-1.5-1.5-1.5s-1.5,0.7-1.5,1.5S198.1,95.2,198.9,95.2"/>
		</g>
	</g>
</g>
<line class="st1" x1="391.7" y1="93.7" x2="391.7" y2="164.3"/>
<g>
	<g>
		<g>
			<defs>
				<rect id="SVGID_5_" x="-49.7" y="-49.5" width="792" height="612"/>
			</defs>
			<clipPath id="SVGID_6_">
				<use xlink:href="#SVGID_5_"  style="overflow:visible;"/>
			</clipPath>
			<path class="st4" d="M391.7,95.2c0.8,0,1.5-0.7,1.5-1.5s-0.7-1.5-1.5-1.5s-1.5,0.7-1.5,1.5S390.9,95.2,391.7,95.2"/>
		</g>
	</g>
</g>
<line class="st1" x1="599.8" y1="231.4" x2="599.8" y2="457.8"/>
<g>
	<g>
		<g>
			<defs>
				<rect id="SVGID_7_" x="-49.7" y="-49.5" width="792" height="612"/>
			</defs>
			<clipPath id="SVGID_8_">
				<use xlink:href="#SVGID_7_"  style="overflow:visible;"/>
			</clipPath>
			<path class="st5" d="M599.8,232.9c0.8,0,1.5-0.7,1.5-1.5s-0.7-1.5-1.5-1.5s-1.5,0.7-1.5,1.5S598.9,232.9,599.8,232.9"/>
		</g>
	</g>
</g>
<line class="st1" x1="584.5" y1="95.2" x2="584.5" y2="498.7"/>
<g>
	<g>
		<g>
			<defs>
				<rect id="SVGID_9_" x="-49.7" y="-49.5" width="792" height="612"/>
			</defs>
			<clipPath id="SVGID_10_">
				<use xlink:href="#SVGID_9_"  style="overflow:visible;"/>
			</clipPath>
			<path class="st6" d="M584.5,96.7c0.8,0,1.5-0.7,1.5-1.5s-0.7-1.5-1.5-1.5s-1.5,0.7-1.5,1.5S583.7,96.7,584.5,96.7"/>
		</g>
	</g>
</g>
<line class="st1" x1="407.2" y1="205.7" x2="407.2" y2="276.3"/>
<g>
	<g>
		<g>
			<defs>
				<rect id="SVGID_11_" x="-49.7" y="-49.5" width="792" height="612"/>
			</defs>
			<clipPath id="SVGID_12_">
				<use xlink:href="#SVGID_11_"  style="overflow:visible;"/>
			</clipPath>
			<path class="st7" d="M407.2,207.2c0.8,0,1.5-0.7,1.5-1.5s-0.7-1.5-1.5-1.5s-1.5,0.7-1.5,1.5S406.4,207.2,407.2,207.2"/>
		</g>
	</g>
</g>
<line class="st1" x1="424.6" y1="319.6" x2="424.6" y2="406.5"/>
<g>
	<g>
		<g>
			<defs>
				<rect id="SVGID_13_" x="-49.7" y="-49.5" width="792" height="612"/>
			</defs>
			<clipPath id="SVGID_14_">
				<use xlink:href="#SVGID_13_"  style="overflow:visible;"/>
			</clipPath>
			<path class="st8" d="M424.6,321.1c0.8,0,1.5-0.7,1.5-1.5s-0.7-1.5-1.5-1.5s-1.5,0.7-1.5,1.5S423.8,321.1,424.6,321.1"/>
		</g>
	</g>
</g>
<line class="st1" x1="22.5" y1="226.7" x2="22.5" y2="297.5"/>
<g>
	<g>
		<g>
			<defs>
				<rect id="SVGID_15_" x="-49.7" y="-49.5" width="792" height="612"/>
			</defs>
			<clipPath id="SVGID_16_">
				<use xlink:href="#SVGID_15_"  style="overflow:visible;"/>
			</clipPath>
			<path class="st9" d="M22.5,228.2c0.8,0,1.5-0.7,1.5-1.5s-0.7-1.5-1.5-1.5s-1.5,0.7-1.5,1.5C21,227.6,21.7,228.2,22.5,228.2"/>
		</g>
	</g>
</g>
<line class="st1" x1="16.1" y1="217.3" x2="6.2" y2="217.3"/>
<line class="st1" x1="208.8" y1="224.4" x2="198.9" y2="224.4"/>
<line class="st1" x1="401.6" y1="164.1" x2="391.7" y2="164.1"/>
<line class="st1" x1="609.7" y1="458.3" x2="599.8" y2="458.3"/>
<line class="st1" x1="609.7" y1="419.1" x2="599.8" y2="419.1"/>
<line class="st1" x1="609.7" y1="378.2" x2="599.8" y2="378.2"/>
<line class="st1" x1="609.7" y1="338.7" x2="599.8" y2="338.7"/>
<line class="st1" x1="609.7" y1="297.1" x2="599.8" y2="297.1"/>
<line class="st1" x1="609.7" y1="256.2" x2="599.8" y2="256.2"/>
<line class="st1" x1="594.4" y1="216.5" x2="584.5" y2="216.5"/>
<line class="st1" x1="594.4" y1="175.1" x2="584.5" y2="175.1"/>
<line class="st1" x1="594.4" y1="498.2" x2="584.5" y2="498.2"/>
<line class="st1" x1="594.4" y1="136" x2="584.5" y2="136"/>
<line class="st1" x1="417.1" y1="276.2" x2="407.2" y2="276.2"/>
<line class="st1" x1="434.5" y1="406.6" x2="424.6" y2="406.6"/>
<line class="st1" x1="16.1" y1="174.4" x2="6.2" y2="174.4"/>
<line class="st1" x1="16.1" y1="131.7" x2="6.2" y2="131.7"/>
<line class="st1" x1="22.5" y1="297.2" x2="31.5" y2="297.2"/>
</svg>
