<?xml version="1.0" encoding="utf-8"?>
<!-- Generator: Adobe Illustrator 24.0.1, SVG Export Plug-In . SVG Version: 6.00 Build 0)  -->
<svg version="1.1" xmlns="http://www.w3.org/2000/svg" xmlns:xlink="http://www.w3.org/1999/xlink" x="0px" y="0px"
	 viewBox="0 0 477 398" style="enable-background:new 0 0 477 398;" xml:space="preserve">
<style type="text/css">
	.st0{fill:#AAC4D6;}
	.st1{fill:#ED3B8A;}
	.st2{display:none;}
	.st3{display:inline;}
</style>
<g id="Layer_1">
	<title>piechart1</title>
	<desc>Created with Sketch.</desc>
	<path id="Path" class="st0" d="M175.8,191.8L263,39.4C237.3,24.5,207.4,16,175.5,16C78.6,16,0,94.6,0,191.5S78.6,367,175.5,367
		S351,288.4,351,191.5c0-37.3-11.7-71.9-31.5-100.4L175.8,191.8z"/>
	<path id="Path_1_" class="st1" d="M292.5,7L205,159L349,58.6C334.2,37.6,314.9,19.9,292.5,7"/>
	<g id="Group" transform="translate(41.000000, 384.000000)">
		<path id="Shape" d="M7.6,10.6L6.5,7.7H2.9l-1.1,2.9H0.3l3.8-9.9h1.3l3.8,9.9H7.6z M6,6.4L4.8,2.6h0L3.5,6.4H6z"/>
		<polygon id="Path_2_" points="12.7,10.6 11.8,10.6 8.8,3.2 10.3,3.2 12.2,8.5 12.3,8.5 14.2,3.2 15.7,3.2 		"/>
		<path id="Shape_1_" d="M17.7,7.5c0.4,1.4,1.5,2,2.5,2c1,0,1.8-0.6,2.1-1.2h1.4c-0.7,1.9-2.4,2.5-3.6,2.5c-2.1,0-3.8-1.8-3.8-3.9
			c0-2.2,1.7-3.9,3.8-3.9c2,0,3.8,1.6,3.8,3.8c0,0.2,0,0.6,0,0.7H17.7z M22.6,6.4c-0.1-1.1-1.1-2.2-2.4-2.2c-1.3,0-2.3,1.1-2.4,2.2
			H22.6z"/>
		<path id="Path_3_" d="M25.6,10.6V3.2h1.3v0.7h0C27.5,3,28.5,3,28.8,3v1.4c-0.2,0-0.7,0.1-1,0.3C27.3,4.9,27,5.5,27,6.5v4H25.6
			L25.6,10.6z"/>
		<path id="Shape_2_" d="M36.2,10.6V9.4h0c-0.5,0.9-1.5,1.3-2.5,1.3c-2.5,0-4-1.9-4-3.9c0-1.8,1.3-3.9,4-3.9c1,0,2,0.4,2.5,1.2h0v-1
			h1.4v7.4H36.2L36.2,10.6z M33.7,4.3c-1.7,0-2.6,1.5-2.6,2.6c0,1.3,1.1,2.6,2.5,2.6c1.5,0,2.6-1.2,2.6-2.6
			C36.2,5.3,35.1,4.3,33.7,4.3z"/>
		<path id="Shape_3_" d="M47.2,9.6c0,2.4-1.5,3.9-4,3.9c-1.7,0-3.1-0.9-3.7-2.3h1.6c0.2,0.3,0.8,1.1,2.1,1.1c1.5,0,2.6-0.7,2.6-2.6
			h0c-0.3,0.3-1,1.2-2.6,1.2c-2.5,0-4-2.1-4-3.9c0-1.6,1.3-3.9,4-3.9c1.1,0,2.1,0.5,2.6,1.1V3.2h1.4V9.6L47.2,9.6z M43.2,4.3
			c-1.5,0-2.6,1.2-2.6,2.6c0,1.3,1.1,2.6,2.6,2.6c1.8,0,2.6-1.7,2.6-2.6C45.8,4.8,44.1,4.3,43.2,4.3z"/>
		<path id="Shape_4_" d="M50.3,7.5c0.4,1.4,1.5,2,2.5,2c1,0,1.8-0.6,2.1-1.2h1.4c-0.7,1.9-2.4,2.5-3.6,2.5c-2.1,0-3.8-1.8-3.8-3.9
			c0-2.2,1.7-3.9,3.8-3.9c2,0,3.8,1.6,3.8,3.8c0,0.2,0,0.6,0,0.7H50.3z M55.1,6.4C55,5.3,54,4.3,52.7,4.3s-2.3,1.1-2.4,2.2H55.1z"/>
		<polygon id="Path_4_" points="62,10.6 62,0.7 67,0.7 67,2 63.5,2 63.5,5 67,5 67,6.3 63.5,6.3 63.5,10.6 		"/>
		<path id="Shape_5_" d="M70.2,10.6h-1.5V0.7h2.9c2.4,0,3.5,1.2,3.5,3s-1.1,3-3.5,3h-1.4L70.2,10.6L70.2,10.6z M70.2,5.4h1.4
			c1.7,0,2.1-0.9,2.1-1.7S73.2,2,71.6,2h-1.4V5.4z"/>
		<path id="Path_5_" d="M77.3,7.7c0,0.3,0.1,1.8,1.6,1.8c0.9,0,1.6-0.6,1.6-1.7c0-1.1-0.9-1.3-1.6-1.6c-1.3-0.5-1.7-0.7-2.1-1.1
			c-0.5-0.4-0.7-1.2-0.7-1.9c0-1.1,0.9-2.7,2.8-2.7c1.7,0,2.9,1.1,2.9,2.8h-1.5c0-1.1-0.8-1.4-1.4-1.4c-0.9,0-1.3,0.8-1.3,1.3
			c0,0.9,0.9,1.2,1.3,1.4c1.3,0.5,3.1,0.9,3.1,3.2c0,1.7-1.2,3-3.1,3c-1.4,0-3.1-0.9-3.1-3.1L77.3,7.7L77.3,7.7z"/>
		<path id="Path_6_" d="M94.8,3.2c-0.4-0.5-1.3-1.3-2.7-1.3c-2.1,0-3.7,1.8-3.7,3.8c0,2.2,1.8,3.8,3.7,3.8c0.3,0,2.5,0,3.4-2.5h-4.7
			V5.7h6.3c-0.1,3.3-2.7,5.1-5.1,5.1c-2.9,0-5.1-2.3-5.1-5.1c0-2.8,2.2-5.2,5.1-5.2c1.7,0,3.5,0.9,4.5,2.7H94.8L94.8,3.2z"/>
		<path id="Shape_6_" d="M104.9,10.6V9.4h0c-0.5,0.9-1.5,1.3-2.5,1.3c-2.5,0-4-1.9-4-3.9c0-1.8,1.3-3.9,4-3.9c1,0,2,0.4,2.5,1.2h0
			v-1h1.4v7.4H104.9L104.9,10.6z M102.3,4.3c-1.7,0-2.6,1.5-2.6,2.6c0,1.3,1.1,2.6,2.5,2.6c1.5,0,2.6-1.2,2.6-2.6
			C104.9,5.3,103.7,4.3,102.3,4.3z"/>
		<path id="Path_7_" d="M118.2,10.6V6.5c0-0.6-0.1-2.2-1.8-2.2c-1.8,0-1.8,1.6-1.8,2.2v4.1h-1.4V6.5c0-0.6,0-1-0.3-1.5
			c-0.4-0.5-0.9-0.7-1.4-0.7c-1.8,0-1.8,1.7-1.8,2.2v4.1h-1.4V3.2h1.3V4h0c0.3-0.3,0.8-1,2.1-1c0.9,0,1.9,0.4,2.3,1.2
			c0.2-0.4,0.8-1.2,2.5-1.2c1.3,0,2.1,0.5,2.6,1.3c0.3,0.5,0.4,1.1,0.4,1.8v4.5H118.2L118.2,10.6z"/>
		<path id="Shape_7_" d="M122.6,7.5c0.4,1.4,1.5,2,2.5,2c1,0,1.8-0.6,2.1-1.2h1.4c-0.7,1.9-2.4,2.5-3.6,2.5c-2.1,0-3.8-1.8-3.8-3.9
			c0-2.2,1.7-3.9,3.8-3.9c2,0,3.8,1.6,3.8,3.8c0,0.2,0,0.6,0,0.7H122.6z M127.4,6.4c-0.1-1.1-1.1-2.2-2.4-2.2
			c-1.3,0-2.3,1.1-2.4,2.2H127.4z"/>
		<path id="Shape_8_" d="M135.8,10.6h-1.5V0.7h2.9c2.4,0,3.5,1.2,3.5,3s-1.1,3-3.5,3h-1.4L135.8,10.6L135.8,10.6z M135.8,5.4h1.4
			c1.7,0,2.1-0.9,2.1-1.7S138.9,2,137.2,2h-1.4V5.4z"/>
		<polygon id="Path_8_" points="143.5,10.6 142.1,10.6 142.1,0.7 143.5,0.7 		"/>
		<path id="Shape_9_" d="M151.6,10.6V9.4h0c-0.5,0.9-1.5,1.3-2.5,1.3c-2.5,0-4-1.9-4-3.9c0-1.8,1.3-3.9,4-3.9c1,0,2,0.4,2.5,1.2h0
			v-1h1.4v7.4H151.6L151.6,10.6z M149.1,4.3c-1.7,0-2.6,1.5-2.6,2.6c0,1.3,1.1,2.6,2.5,2.6c1.5,0,2.6-1.2,2.6-2.6
			C151.6,5.3,150.5,4.3,149.1,4.3z"/>
		<polygon id="Path_9_" points="157.6,13.1 156.2,13.1 157.2,10.4 154.3,3.2 155.8,3.2 158,8.9 160.2,3.2 161.7,3.2 		"/>
		<path id="Shape_10_" d="M163.7,7.5c0.4,1.4,1.5,2,2.5,2c1,0,1.8-0.6,2.1-1.2h1.4c-0.7,1.9-2.4,2.5-3.6,2.5c-2.1,0-3.8-1.8-3.8-3.9
			c0-2.2,1.7-3.9,3.8-3.9c2,0,3.8,1.6,3.8,3.8c0,0.2,0,0.6,0,0.7H163.7z M168.6,6.4c-0.1-1.1-1.1-2.2-2.4-2.2
			c-1.3,0-2.3,1.1-2.4,2.2H168.6z"/>
		<path id="Path_10_" d="M171.6,10.6V3.2h1.3v0.7h0c0.6-0.8,1.6-0.9,1.9-0.9v1.4c-0.2,0-0.7,0.1-1,0.3c-0.4,0.2-0.8,0.8-0.8,1.9v4
			H171.6L171.6,10.6z"/>
		<path id="Path_11_" d="M187.5,3.2c-0.4-0.5-1.3-1.3-2.7-1.3c-2.1,0-3.7,1.8-3.7,3.8c0,2.2,1.8,3.8,3.7,3.8c0.3,0,2.5,0,3.4-2.5
			h-4.7V5.7h6.3c-0.1,3.3-2.7,5.1-5.1,5.1c-2.9,0-5.1-2.3-5.1-5.1c0-2.8,2.2-5.2,5.1-5.2c1.7,0,3.5,0.9,4.5,2.7H187.5L187.5,3.2z"/>
		<path id="Shape_11_" d="M192.4,7.5c0.4,1.4,1.5,2,2.5,2c1,0,1.8-0.6,2.1-1.2h1.4c-0.7,1.9-2.4,2.5-3.6,2.5c-2.1,0-3.8-1.8-3.8-3.9
			c0-2.2,1.7-3.9,3.8-3.9c2,0,3.8,1.6,3.8,3.8c0,0.2,0,0.6,0,0.7H192.4z M197.3,6.4c-0.1-1.1-1.1-2.2-2.4-2.2s-2.3,1.1-2.4,2.2
			H197.3z"/>
		<path id="Path_12_" d="M205.5,10.6v-4c0-0.6,0-2.3-1.9-2.3c-1.2,0-2,0.8-2,2.3v4h-1.4V3.2h1.3V4h0c0.8-1,1.9-1,2.2-1
			c1.2,0,2.1,0.5,2.6,1.3c0.3,0.5,0.5,1.1,0.5,1.9v4.4L205.5,10.6L205.5,10.6z"/>
		<path id="Shape_12_" d="M215,10.6V9.5h0c-0.6,0.8-1.6,1.2-2.6,1.2c-2.5,0-3.9-1.9-3.9-3.9c0-1.8,1.2-3.9,3.9-3.9
			c1,0,2,0.4,2.5,1.1h0V0.7h1.4v9.9H215z M212.5,4.3c-1.7,0-2.6,1.5-2.6,2.6c0,1.3,1.1,2.6,2.5,2.6c1.5,0,2.6-1.2,2.6-2.6
			C215,5.3,213.9,4.3,212.5,4.3z"/>
		<path id="Shape_13_" d="M219.4,7.5c0.4,1.4,1.5,2,2.5,2c1,0,1.8-0.6,2.1-1.2h1.4c-0.7,1.9-2.4,2.5-3.6,2.5c-2.1,0-3.8-1.8-3.8-3.9
			c0-2.2,1.7-3.9,3.8-3.9c2,0,3.8,1.6,3.8,3.8c0,0.2,0,0.6,0,0.7H219.4z M224.2,6.4c-0.1-1.1-1.1-2.2-2.4-2.2s-2.3,1.1-2.4,2.2
			H224.2z"/>
		<path id="Path_13_" d="M227.2,10.6V3.2h1.3v0.7h0c0.6-0.8,1.6-0.9,1.9-0.9v1.4c-0.2,0-0.7,0.1-1,0.3c-0.4,0.2-0.8,0.8-0.8,1.9v4
			H227.2L227.2,10.6z"/>
		<path id="Shape_14_" d="M240.4,10.6L237.1,6h0v4.6h-1.5V0.7h3.1c1.4,0,2.1,0.3,2.7,0.8c0.6,0.6,0.9,1.5,0.9,2.3c0,2.6-2.2,3-2.9,3
			l2.8,3.7L240.4,10.6L240.4,10.6z M237,5.8h1c0.6,0,2.7,0,2.7-1.9c0-0.8-0.6-1.8-2.2-1.8H237V5.8z"/>
		<path id="Shape_15_" d="M249.9,10.6V9.4h0c-0.5,0.9-1.5,1.3-2.5,1.3c-2.5,0-4-1.9-4-3.9c0-1.8,1.3-3.9,4-3.9c1,0,2,0.4,2.5,1.2h0
			v-1h1.4v7.4H249.9L249.9,10.6z M247.4,4.3c-1.7,0-2.6,1.5-2.6,2.6c0,1.3,1.1,2.6,2.5,2.6c1.5,0,2.6-1.2,2.6-2.6
			C250,5.3,248.8,4.3,247.4,4.3z"/>
		<polygon id="Path_14_" points="255,10.6 253.6,10.6 253.6,4.5 252.6,4.5 252.6,3.2 253.6,3.2 253.6,0.7 255,0.7 255,3.2 
			256.2,3.2 256.2,4.5 255,4.5 		"/>
		<path id="Shape_16_" d="M258.7,2.3h-1.4V0.7h1.4V2.3z M258.7,10.6h-1.4V3.2h1.4V10.6z"/>
		<path id="Shape_17_" d="M264.4,10.8c-2.5,0-4-2.1-4-3.9c0-2,1.7-3.8,4-3.8c2.3,0,4,1.8,4,3.9C268.4,8.7,266.9,10.8,264.4,10.8z
			 M264.4,4.3c-1.6,0-2.6,1.3-2.6,2.6c0,1.3,1.1,2.6,2.6,2.6c1.5,0,2.6-1.2,2.6-2.6C267,5.6,266,4.3,264.4,4.3z"/>
	</g>
	<polygon id="Path_15_" points="312.5,34 312,33.6 329.9,6 363.5,6 363.5,6.7 330.3,6.7 	"/>
	<path id="Path_16_" d="M312.5,35c0.8,0,1.5-0.7,1.5-1.5s-0.7-1.5-1.5-1.5s-1.5,0.7-1.5,1.5S311.7,35,312.5,35"/>
	<g id="Group_1_" transform="translate(393.000000, 0.000000)">
		<polygon id="Path_17_" points="-22.6,0.9 -27.5,0.9 -27.5,0 -21.5,0 -21.5,0.9 -25.7,10 -26.8,10 		"/>
		<path id="Shape_18_" d="M-18,0c1.4,0,2.5,1,2.5,2.3c0,1.3-1.1,2.3-2.5,2.3c-1.4,0-2.5-1-2.5-2.3S-19.4,0-18,0z M-18,4
			c0.9,0,1.7-0.7,1.7-1.6s-0.7-1.6-1.7-1.6c-0.9,0-1.7,0.7-1.7,1.6S-19,4-18,4z M-18,9.8h-0.9l5.8-9.7h0.9L-18,9.8z M-13,5.3
			c1.4,0,2.5,1,2.5,2.3c0,1.3-1.1,2.3-2.5,2.3s-2.5-1-2.5-2.3C-15.4,6.4-14.3,5.3-13,5.3z M-13,9.3c0.9,0,1.7-0.7,1.7-1.6
			S-12,6-13,6c-0.9,0-1.7,0.7-1.7,1.6S-13.9,9.3-13,9.3z"/>
		<polygon id="Path_18_" points="-5.5,0 -0.5,0 -0.5,0.9 -4.5,0.9 -4.5,4.5 -0.6,4.5 -0.6,5.4 -4.5,5.4 -4.5,10 -5.5,10 -5.5,0 		
			"/>
		<path id="Shape_19_" d="M1.4,6.8C1.4,8.1,2.7,9.2,4,9.2c1.2,0,2.1-0.7,2.4-1.6h0.9C6.8,9,5.5,10,4,10c-1.9,0-3.5-1.5-3.5-3.5
			C0.5,4.6,2,3,4,3c1.5,0,2.5,0.9,3,1.7c0.5,0.7,0.6,1.5,0.5,2.1H1.4L1.4,6.8z M6.6,6C6.4,4.5,5.1,3.8,4,3.8C2.9,3.8,1.6,4.5,1.4,6
			H6.6z"/>
		<path id="Path_19_" d="M9.5,3.2h0.9V4l0,0v0h0c0.4-0.7,1.2-1,1.8-1c0.6,0,1.8,0.3,2.3,1.3C15,3.3,16.2,3,16.8,3
			c1,0,2.7,0.6,2.7,2.9V10h-0.9V6c0-0.7-0.1-1.1-0.3-1.4c-0.3-0.5-0.8-0.8-1.5-0.8s-1.3,0.3-1.5,0.8c-0.2,0.3-0.3,0.7-0.3,1.4v4
			h-0.9V6c0-0.7-0.1-1.1-0.3-1.4c-0.3-0.5-0.8-0.8-1.5-0.8c-0.7,0-1.3,0.3-1.5,0.8c-0.2,0.3-0.3,0.7-0.3,1.4v4H9.5L9.5,3.2L9.5,3.2z
			"/>
		<path id="Shape_20_" d="M28.5,9.8h-1V8.7h0c-0.8,1.1-2.2,1.3-2.9,1.3c-2.4,0-4.1-1.6-4.1-3.5c0-1.8,1.6-3.5,4.1-3.5
			c0.8,0,2.1,0.2,2.9,1.3h0V3.2h1V9.8z M24.6,9.2c1.6,0,3-1.2,3-2.7c0-1.5-1.3-2.7-3-2.7c-1.7,0-3.1,1.1-3.1,2.8
			C21.5,8,22.7,9.2,24.6,9.2z"/>
		<polygon id="Path_20_" points="29.5,0 30.5,0 30.5,10 29.5,10 		"/>
		<path id="Shape_21_" d="M33.4,6.8c0.1,1.3,1.3,2.4,2.6,2.4c1.2,0,2.1-0.7,2.4-1.6h0.9C38.8,9,37.5,10,36,10
			c-1.9,0-3.5-1.5-3.5-3.5C32.5,4.6,34,3,36,3c1.5,0,2.5,0.9,3,1.7c0.5,0.7,0.6,1.5,0.5,2.1H33.4L33.4,6.8z M38.6,6
			c-0.3-1.6-1.6-2.3-2.6-2.3c-1.1,0-2.4,0.7-2.6,2.3H38.6z"/>
		<path id="Shape_22_" d="M44.5,3.2h1v1.3h0C46.4,3.3,47.6,3,48.4,3c2.5,0,4.1,1.9,4.1,3.8c0,2.1-1.7,3.8-4.1,3.8
			c-0.8,0-2.1-0.3-2.9-1.4h0V13h-1V3.2z M48.4,3.8c-1.7,0-3,1.4-3,3c0,1.7,1.4,3,3,3c1.9,0,3.1-1.3,3.1-2.9
			C51.5,5,50.1,3.8,48.4,3.8z"/>
		<polygon id="Path_21_" points="53.5,0 54.5,0 54.5,10 53.5,10 		"/>
		<path id="Shape_23_" d="M63.5,9.8h-1V8.7h0c-0.8,1.1-2.2,1.3-2.9,1.3c-2.4,0-4.1-1.6-4.1-3.5c0-1.8,1.6-3.5,4.1-3.5
			c0.8,0,2.1,0.2,2.9,1.3h0V3.2h1V9.8z M59.6,9.2c1.6,0,3-1.2,3-2.7c0-1.5-1.3-2.7-3-2.7c-1.7,0-3.1,1.1-3.1,2.8
			C56.5,8,57.7,9.2,59.6,9.2z"/>
		<polygon id="Path_22_" points="67.4,10.2 64.5,3 65.5,3 67.9,8.9 70.5,3 71.5,3 67.1,13 66.1,13 		"/>
		<path id="Shape_24_" d="M73.4,6.8c0.1,1.3,1.3,2.4,2.6,2.4c1.2,0,2.1-0.7,2.4-1.6h0.9C78.8,9,77.5,10,76,10
			c-1.9,0-3.5-1.5-3.5-3.5C72.5,4.6,74,3,76,3c1.5,0,2.5,0.9,3,1.7c0.5,0.7,0.6,1.5,0.5,2.1H73.4L73.4,6.8z M78.6,6
			c-0.3-1.6-1.6-2.3-2.6-2.3c-1.1,0-2.4,0.7-2.6,2.3H78.6z"/>
		<path id="Path_23_" d="M80.5,3.2h0.9v1h0c0.4-1,1.3-1.1,2-1.2v0.9c-0.7,0-1.2,0.3-1.6,0.7C81.6,5,81.4,5.5,81.4,6v4h-0.9L80.5,3.2
			L80.5,3.2z"/>
	</g>
</g>
<g id="Layer_2" class="st2">
	<g id="Page-1_1_" class="st3">
		<g id="piechart2">
			<path id="Path_48_" class="st0" d="M176.5,191.4l56.1-166.5c-17.7-6-36.6-9.2-56.3-9.2C79.3,15.6,0.8,94.2,0.8,191.1
				s78.6,175.5,175.5,175.5s175.5-78.6,175.5-175.5c0-10.5-0.9-20.8-2.7-30.8L176.5,191.4z"/>
			<path id="Path_47_" class="st1" d="M257,2.6l-56.2,167l173-31.1C362.5,74.9,317,23,257,2.6"/>
			<g id="Group_3_" transform="translate(67.000000, 384.000000)">
				<path id="Shape_44_" d="M6.3,11.1c-3,0-5.2-2.4-5.2-5c0-2.6,2.1-5,5.2-5c3,0,5.2,2.3,5.2,5C11.5,8.8,9.2,11.1,6.3,11.1z
					 M6.3,2.4c-2.6,0-3.7,2.2-3.7,3.7c0,1.6,1.2,3.7,3.7,3.7c2.6,0,3.7-2.2,3.7-3.7C10,4.5,8.8,2.4,6.3,2.4z"/>
				<polygon id="Path_46_" points="16.3,10.9 15.3,10.9 12.3,3.7 13.8,3.7 15.8,8.9 15.8,8.9 17.8,3.7 19.3,3.7 				"/>
				<path id="Shape_43_" d="M21.3,7.9c0.4,1.4,1.5,2,2.5,2c1,0,1.8-0.6,2.1-1.2h1.4c-0.7,1.9-2.4,2.4-3.6,2.4
					c-2.1,0-3.8-1.8-3.8-3.8c0-2.2,1.7-3.8,3.8-3.8c2,0,3.8,1.6,3.8,3.7c0,0.2,0,0.6,0,0.7H21.3z M26.1,6.9
					c-0.1-1.1-1.1-2.1-2.4-2.1c-1.4,0-2.4,1.1-2.4,2.1H26.1z"/>
				<path id="Path_45_" d="M29.2,10.9V3.7h1.3v0.7h0c0.6-0.8,1.6-0.8,1.9-0.8v1.4c-0.2,0-0.7,0.1-1,0.3C30.9,5.4,30.6,6,30.6,7v3.9
					H29.2L29.2,10.9z"/>
				<polygon id="Path_44_" points="40.6,10.9 39.8,10.9 38.2,6.1 38.1,6.1 36.5,10.9 35.8,10.9 33,3.7 34.5,3.7 36.1,8.4 36.1,8.4 
					37.7,3.7 38.6,3.7 40.2,8.4 40.2,8.4 41.8,3.7 43.3,3.7 				"/>
				<path id="Shape_42_" d="M50.4,10.9V9.8h0c-0.5,0.9-1.5,1.3-2.5,1.3c-2.5,0-4-1.9-4-3.8c0-1.8,1.3-3.8,4-3.8c1,0,2,0.4,2.5,1.2h0
					v-1h1.4v7.2H50.4L50.4,10.9z M47.8,4.8c-1.7,0-2.6,1.4-2.6,2.6c0,1.3,1.1,2.5,2.6,2.5c1.5,0,2.6-1.2,2.6-2.5
					C50.4,5.8,49.3,4.8,47.8,4.8z"/>
				<polygon id="Path_43_" points="55.4,10.9 54,10.9 54,5 53,5 53,3.7 54,3.7 54,1.3 55.4,1.3 55.4,3.7 56.7,3.7 56.7,5 55.4,5 
									"/>
				<path id="Path_42_" d="M63.4,6.1c-0.2-0.5-0.8-1.4-2.1-1.4c-1.8,0-2.5,1.5-2.5,2.5c0,1.2,0.8,2.6,2.4,2.6c1.1,0,1.8-0.6,2.1-1.3
					h1.6c-0.6,1.6-2,2.6-3.7,2.6c-2.5,0-3.8-1.9-3.8-3.8c0-1.9,1.5-3.8,3.9-3.8c2.1,0,3.4,1.5,3.7,2.6H63.4L63.4,6.1z"/>
				<path id="Path_41_" d="M71.7,10.9V7c0-0.6,0-2.2-1.9-2.2c-1.2,0-2,0.8-2,2.2v3.9h-1.4V1.3h1.4v3.2h0c0.7-1,1.8-1,2.1-1
					c1.2,0,2.1,0.5,2.6,1.3c0.3,0.5,0.5,1,0.5,1.8v4.3H71.7L71.7,10.9z"/>
				<path id="Shape_41_" d="M80.4,10.9H79V1.3h2.9c2.4,0,3.5,1.2,3.5,2.9s-1.1,2.9-3.5,2.9h-1.4L80.4,10.9L80.4,10.9z M80.4,5.9h1.4
					c1.7,0,2.1-0.9,2.1-1.6s-0.4-1.6-2.1-1.6h-1.4V5.9z"/>
				<polygon id="Path_40_" points="88.2,10.9 86.8,10.9 86.8,1.3 88.2,1.3 				"/>
				<path id="Shape_40_" d="M96.3,10.9V9.8h0c-0.5,0.9-1.5,1.3-2.5,1.3c-2.5,0-4-1.9-4-3.8c0-1.8,1.3-3.8,4-3.8c1,0,2,0.4,2.5,1.2h0
					v-1h1.4v7.2H96.3L96.3,10.9z M93.8,4.8c-1.7,0-2.6,1.4-2.6,2.6c0,1.3,1.1,2.5,2.6,2.5c1.5,0,2.6-1.2,2.6-2.5
					C96.3,5.8,95.2,4.8,93.8,4.8z"/>
				<polygon id="Path_39_" points="102.3,13.4 100.8,13.4 101.9,10.8 99,3.7 100.5,3.7 102.7,9.3 104.9,3.7 106.4,3.7 				"/>
				<path id="Shape_39_" d="M108.5,7.9c0.4,1.4,1.5,2,2.5,2c1,0,1.8-0.6,2.1-1.2h1.4c-0.7,1.9-2.4,2.4-3.6,2.4
					c-2.1,0-3.8-1.8-3.8-3.8c0-2.2,1.7-3.8,3.8-3.8c2,0,3.8,1.6,3.8,3.7c0,0.2,0,0.6,0,0.7H108.5z M113.3,6.9
					c-0.1-1.1-1.1-2.1-2.4-2.1c-1.4,0-2.4,1.1-2.4,2.1H113.3z"/>
				<path id="Path_38_" d="M116.3,10.9V3.7h1.3v0.7h0c0.6-0.8,1.6-0.8,1.9-0.8v1.4c-0.2,0-0.7,0.1-1,0.3c-0.4,0.2-0.8,0.8-0.8,1.8
					v3.9H116.3L116.3,10.9z"/>
				<path id="Path_37_" d="M132.3,3.7c-0.4-0.4-1.3-1.3-2.7-1.3c-2.1,0-3.7,1.7-3.7,3.7c0,2.1,1.8,3.7,3.7,3.7c0.3,0,2.5,0,3.4-2.4
					h-4.7V6.2h6.3c-0.1,3.2-2.7,5-5.2,5c-2.9,0-5.1-2.3-5.1-5c0-2.8,2.2-5,5.1-5c1.7,0,3.5,0.9,4.5,2.6H132.3L132.3,3.7z"/>
				<path id="Shape_38_" d="M137.2,7.9c0.4,1.4,1.5,2,2.5,2c1,0,1.8-0.6,2.1-1.2h1.4c-0.7,1.9-2.4,2.4-3.6,2.4
					c-2.1,0-3.8-1.8-3.8-3.8c0-2.2,1.7-3.8,3.8-3.8c2,0,3.8,1.6,3.8,3.7c0,0.2,0,0.6,0,0.7H137.2z M142.1,6.9
					c-0.1-1.1-1.1-2.1-2.4-2.1c-1.4,0-2.4,1.1-2.4,2.1H142.1z"/>
				<path id="Path_36_" d="M150.3,10.9V7c0-0.6,0-2.2-1.9-2.2c-1.2,0-2,0.8-2,2.2v3.9h-1.4V3.7h1.3v0.8h0c0.8-1,1.9-1,2.2-1
					c1.2,0,2.1,0.5,2.6,1.3c0.3,0.5,0.5,1,0.5,1.8v4.3L150.3,10.9L150.3,10.9z"/>
				<path id="Shape_37_" d="M159.9,10.9v-1h0c-0.6,0.8-1.6,1.2-2.6,1.2c-2.5,0-3.9-1.9-3.9-3.8c0-1.8,1.2-3.8,3.9-3.8
					c1,0,2,0.4,2.5,1.1h0V1.3h1.4v9.6H159.9z M157.3,4.8c-1.7,0-2.6,1.4-2.6,2.6c0,1.3,1.1,2.5,2.6,2.5c1.5,0,2.6-1.2,2.6-2.5
					C159.9,5.8,158.7,4.8,157.3,4.8z"/>
				<path id="Shape_36_" d="M164.2,7.9c0.4,1.4,1.5,2,2.5,2c1,0,1.8-0.6,2.1-1.2h1.4c-0.7,1.9-2.4,2.4-3.6,2.4
					c-2.1,0-3.8-1.8-3.8-3.8c0-2.2,1.7-3.8,3.8-3.8c2,0,3.8,1.6,3.8,3.7c0,0.2,0,0.6,0,0.7H164.2z M169,6.9
					c-0.1-1.1-1.1-2.1-2.4-2.1c-1.4,0-2.4,1.1-2.4,2.1H169z"/>
				<path id="Path_35_" d="M172.1,10.9V3.7h1.3v0.7h0c0.6-0.8,1.6-0.8,1.9-0.8v1.4c-0.2,0-0.7,0.1-1,0.3c-0.4,0.2-0.8,0.8-0.8,1.8
					v3.9H172.1L172.1,10.9z"/>
				<path id="Shape_35_" d="M185.3,10.9L182,6.5h0v4.5h-1.5V1.3h3.1c1.4,0,2.1,0.3,2.7,0.8c0.6,0.6,0.9,1.5,0.9,2.3
					c0,2.5-2.2,3-2.9,3l2.8,3.6L185.3,10.9L185.3,10.9z M182,6.3h1c0.6,0,2.8,0,2.8-1.9c0-0.8-0.6-1.8-2.2-1.8H182V6.3z"/>
				<path id="Shape_34_" d="M194.9,10.9V9.8h0c-0.5,0.9-1.5,1.3-2.5,1.3c-2.5,0-4-1.9-4-3.8c0-1.8,1.3-3.8,4-3.8c1,0,2,0.4,2.5,1.2
					h0v-1h1.4v7.2H194.9L194.9,10.9z M192.3,4.8c-1.7,0-2.6,1.4-2.6,2.6c0,1.3,1.1,2.5,2.6,2.5c1.5,0,2.6-1.2,2.6-2.5
					C194.9,5.8,193.8,4.8,192.3,4.8z"/>
				<polygon id="Path_34_" points="199.9,10.9 198.5,10.9 198.5,5 197.5,5 197.5,3.7 198.5,3.7 198.5,1.3 199.9,1.3 199.9,3.7 
					201.2,3.7 201.2,5 199.9,5 				"/>
				<path id="Shape_33_" d="M203.7,2.9h-1.4V1.3h1.4V2.9z M203.7,10.9h-1.4V3.7h1.4V10.9z"/>
				<path id="Shape_32_" d="M209.4,11.1c-2.5,0-4-2-4-3.8c0-2,1.7-3.7,4-3.7c2.3,0,4,1.7,4,3.8C213.4,9.1,211.9,11.1,209.4,11.1z
					 M209.4,4.8c-1.6,0-2.6,1.3-2.6,2.5c0,1.3,1.1,2.6,2.6,2.6c1.5,0,2.6-1.2,2.6-2.6C212,6.1,211,4.8,209.4,4.8z"/>
			</g>
			<polygon id="Path_33_" points="284.3,34.6 283.8,34.3 301.7,6.6 354.8,6.6 354.8,7.3 302,7.3 			"/>
			<path id="Path_32_" d="M283.3,35.6c0.8,0,1.5-0.7,1.5-1.5s-0.7-1.5-1.5-1.5c-0.8,0-1.5,0.7-1.5,1.5S282.4,35.6,283.3,35.6"/>
			<g id="Group_2_" transform="translate(359.000000, 0.000000)">
				<polygon id="Path_31_" points="2.7,1.6 0.8,1.6 0.8,0.6 3.8,0.6 3.8,10.6 2.7,10.6 				"/>
				<polygon id="Path_30_" points="11.7,1.6 6.8,1.6 6.8,0.6 12.8,0.6 12.8,1.6 8.5,10.6 7.4,10.6 				"/>
				<path id="Shape_31_" d="M16,0.6c1.2,0,2.2,1,2.2,2.3c0,1.3-1,2.3-2.2,2.3s-2.2-1-2.2-2.3C13.8,1.7,14.8,0.6,16,0.6z M16,4.6
					c0.8,0,1.5-0.7,1.5-1.6S16.8,1.4,16,1.4c-0.8,0-1.5,0.7-1.5,1.6S15.2,4.6,16,4.6z M16,10.5h-0.8l5.2-9.7h0.8L16,10.5z M20.5,6
					c1.2,0,2.2,1,2.2,2.3c0,1.3-1,2.3-2.2,2.3s-2.2-1-2.2-2.3C18.3,7,19.3,6,20.5,6z M20.5,9.9c0.8,0,1.5-0.7,1.5-1.6
					s-0.7-1.6-1.5-1.6c-0.8,0-1.5,0.7-1.5,1.6S19.7,9.9,20.5,9.9z"/>
				<polygon id="Path_29_" points="27.8,0.6 32.8,0.6 32.8,1.6 28.8,1.6 28.8,5.2 32.6,5.2 32.6,6.1 28.8,6.1 28.8,10.6 27.8,10.6 
					27.8,0.6 				"/>
				<path id="Shape_30_" d="M34.7,7.5c0.1,1.3,1.3,2.4,2.6,2.4c1.2,0,2.1-0.7,2.4-1.6h0.9c-0.5,1.3-1.8,2.3-3.3,2.3
					c-1.9,0-3.5-1.5-3.5-3.5c0-1.9,1.5-3.5,3.5-3.5c1.5,0,2.5,0.9,3,1.7c0.5,0.7,0.6,1.5,0.5,2.1H34.7L34.7,7.5z M39.9,6.7
					c-0.3-1.6-1.6-2.3-2.6-2.3c-1.1,0-2.4,0.7-2.6,2.3H39.9z"/>
				<path id="Path_28_" d="M42.8,3.8h0.9v0.8l0,0v0h0c0.4-0.7,1.2-1,1.8-1c0.6,0,1.8,0.3,2.3,1.3c0.5-1,1.7-1.3,2.3-1.3
					c1,0,2.7,0.6,2.7,2.9v4.1h-0.9v-4c0-0.7-0.1-1.1-0.3-1.4c-0.3-0.5-0.8-0.8-1.5-0.8s-1.3,0.3-1.5,0.8c-0.2,0.3-0.3,0.7-0.3,1.4v4
					h-0.9v-4c0-0.7-0.1-1.1-0.3-1.4c-0.3-0.5-0.8-0.8-1.5-0.8S44.2,4.8,44,5.3c-0.2,0.3-0.3,0.7-0.3,1.4v4h-0.9L42.8,3.8L42.8,3.8z"
					/>
				<path id="Shape_29_" d="M61.8,10.5h-1V9.3h0c-0.8,1.1-2.2,1.3-2.9,1.3c-2.4,0-4.1-1.6-4.1-3.5c0-1.8,1.6-3.5,4.1-3.5
					c0.8,0,2.1,0.2,2.9,1.3h0V3.8h1V10.5z M57.8,9.9c1.6,0,3-1.2,3-2.7c0-1.5-1.3-2.7-3-2.7c-1.7,0-3.1,1.1-3.1,2.8
					C54.7,8.7,56,9.9,57.8,9.9z"/>
				<polygon id="Path_27_" points="62.8,0.6 63.8,0.6 63.8,10.6 62.8,10.6 				"/>
				<path id="Shape_28_" d="M66.7,7.5c0.1,1.3,1.3,2.4,2.6,2.4c1.2,0,2.1-0.7,2.4-1.6h0.9c-0.5,1.3-1.8,2.3-3.3,2.3
					c-1.9,0-3.5-1.5-3.5-3.5c0-1.9,1.5-3.5,3.5-3.5c1.5,0,2.5,0.9,3,1.7c0.5,0.7,0.6,1.5,0.5,2.1H66.7L66.7,7.5z M71.9,6.7
					c-0.3-1.6-1.6-2.3-2.6-2.3c-1.1,0-2.4,0.7-2.6,2.3H71.9z"/>
				<path id="Shape_27_" d="M77.8,3.8h1v1.3h0c0.9-1.2,2.1-1.5,2.9-1.5c2.5,0,4.1,1.9,4.1,3.8c0,2.1-1.7,3.8-4.1,3.8
					c-0.8,0-2.1-0.3-2.9-1.4h0v3.8h-1V3.8z M81.7,4.5c-1.7,0-3,1.4-3,3c0,1.7,1.4,3,3,3c1.9,0,3.1-1.3,3.1-2.9
					C84.8,5.6,83.4,4.5,81.7,4.5z"/>
				<polygon id="Path_26_" points="86.8,0.6 87.8,0.6 87.8,10.6 86.8,10.6 				"/>
				<path id="Shape_26_" d="M96.8,10.5h-1V9.3h0c-0.8,1.1-2.2,1.3-2.9,1.3c-2.4,0-4.1-1.6-4.1-3.5c0-1.8,1.6-3.5,4.1-3.5
					c0.8,0,2.1,0.2,2.9,1.3h0V3.8h1V10.5z M92.8,9.9c1.6,0,3-1.2,3-2.7c0-1.5-1.3-2.7-3-2.7c-1.7,0-3.1,1.1-3.1,2.8
					C89.7,8.7,91,9.9,92.8,9.9z"/>
				<polygon id="Path_25_" points="100.7,10.8 97.8,3.6 98.8,3.6 101.2,9.5 103.8,3.6 104.8,3.6 100.4,13.6 99.4,13.6 				"/>
				<path id="Shape_25_" d="M106.7,7.5c0.1,1.3,1.3,2.4,2.6,2.4c1.2,0,2.1-0.7,2.4-1.6h0.9c-0.5,1.3-1.8,2.3-3.3,2.3
					c-1.9,0-3.5-1.5-3.5-3.5c0-1.9,1.5-3.5,3.5-3.5c1.5,0,2.5,0.9,3,1.7c0.5,0.7,0.6,1.5,0.5,2.1H106.7L106.7,7.5z M111.9,6.7
					c-0.3-1.6-1.6-2.3-2.6-2.3c-1.1,0-2.4,0.7-2.6,2.3H111.9z"/>
				<path id="Path_24_" d="M113.8,3.8h0.9v1h0c0.4-1,1.3-1.1,2-1.2v0.9c-0.7,0-1.2,0.3-1.6,0.7c-0.3,0.4-0.5,0.9-0.5,1.4v4h-0.9
					L113.8,3.8L113.8,3.8z"/>
			</g>
		</g>
	</g>
</g>
<g id="Layer_3">
</g>
</svg>
