<?xml version="1.0" encoding="UTF-8"?>
<svg width="475px" height="397px" viewBox="0 0 475 397" version="1.1" xmlns="http://www.w3.org/2000/svg" xmlns:xlink="http://www.w3.org/1999/xlink">
    <!-- Generator: Sketch 53.2 (72643) - https://sketchapp.com -->
    <title>piechart2</title>
    <desc>Created with Sketch.</desc>
    <g id="Page-1" stroke="none" stroke-width="1" fill="none" fill-rule="evenodd">
        <g id="piechart2" fill-rule="nonzero">
            <path d="M175.757739,190.757739 L231.82989,24.2355566 C214.148706,18.2471315 195.203892,15 175.5,15 C78.573897,15 0,93.573897 0,190.5 C0,287.426103 78.573897,366 175.5,366 C272.426103,366 351,287.426103 351,190.5 C351,180.005955 350.075737,169.727871 348.310126,159.740949 L175.757739,190.757739 Z" id="Path" fill="#AAC4D6"></path>
            <path d="M256.217605,2 L200,169 L373,137.893566 C361.743462,74.2052408 316.251401,22.3379792 256.217605,2" id="Path" fill="#ED3B8A"></path>
            <g id="Group" transform="translate(67.000000, 384.000000)" fill="#000000">
                <path d="M5.4948852,10.4854286 C2.50838066,10.4854286 0.292794562,8.13242857 0.292794562,5.49466667 C0.292794562,2.88166667 2.44081269,0.503904762 5.4948852,0.503904762 C8.46723263,0.503904762 10.6963323,2.77828571 10.6963323,5.52066667 C10.6963323,8.14542857 8.46723263,10.4854286 5.4948852,10.4854286 Z M5.4948852,1.78966667 C2.91378852,1.78966667 1.75226284,3.96066667 1.75226284,5.49404762 C1.75226284,7.06704762 2.92730211,9.19842857 5.4948852,9.19842857 C8.07533837,9.19842857 9.23686405,7.04042857 9.23686405,5.53242857 C9.23686405,3.83066667 7.9807432,1.78966667 5.4948852,1.78966667 Z" id="Shape"></path>
                <polygon id="Path" points="15.5354864 10.3034286 14.5496375 10.3034286 11.57729 3.10266667 13.0766556 3.10266667 15.0361269 8.24942857 15.0625106 8.24942857 16.9814411 3.10266667 18.4808066 3.10266667"></polygon>
                <path d="M20.5355166,7.28742857 C20.8875136,8.67842857 22.0490393,9.25042857 22.9949909,9.25042857 C24.0348943,9.25042857 24.7916556,8.66542857 25.128852,8.04142857 L26.5342659,8.04142857 C25.8186888,9.89980952 24.1024622,10.4848095 22.9409366,10.4848095 C20.8193021,10.4848095 19.1301027,8.73042857 19.1301027,6.68942857 C19.1301027,4.53204762 20.8598429,2.90766667 22.9673202,2.90766667 C24.9943595,2.90766667 26.763997,4.49304762 26.7781541,6.59904762 C26.7781541,6.83242857 26.7504834,7.19642857 26.7376133,7.28742857 L20.5355166,7.28742857 Z M25.3733837,6.24804762 C25.3058157,5.19566667 24.3058097,4.14266667 22.9544502,4.14266667 C21.6030906,4.14266667 20.6037281,5.19566667 20.5355166,6.24804762 L25.3733837,6.24804762 Z" id="Shape"></path>
                <path d="M28.3869154,10.3034286 L28.3869154,3.10266667 L29.6977341,3.10266667 L29.6977341,3.75266667 L29.7247613,3.75266667 C30.3193595,2.94666667 31.2788248,2.92066667 31.6295347,2.90828571 L31.6295347,4.29866667 C31.4133172,4.29866667 30.9544985,4.38904762 30.6166586,4.55866667 C30.17071,4.79266667 29.7923293,5.33866667 29.7923293,6.36504762 L29.7923293,10.3034286 L28.3869154,10.3034286 L28.3869154,10.3034286 Z" id="Path"></path>
                <polygon id="Path" points="39.8039728 10.3034286 39.0208278 10.3034286 37.3991964 5.45566667 37.3715257 5.45566667 35.7498943 10.3034286 34.9802628 10.3034286 32.1829486 3.10266667 33.6829577 3.10266667 35.3451299 7.78204762 35.3715136 7.78204762 36.925577 3.10266667 37.8445015 3.10266667 39.398565 7.78204762 39.4249486 7.78204762 41.0736073 3.10266667 42.5729728 3.10266667"></polygon>
                <path d="M49.6161299,10.3034286 L49.6161299,9.18542857 L49.5891027,9.18542857 C49.0485589,10.0694286 48.0620665,10.4854286 47.0491903,10.4854286 C44.5227915,10.4854286 43.0768369,8.62704762 43.0768369,6.72904762 C43.0768369,4.97466667 44.3606284,2.90828571 47.0491903,2.90828571 C48.0897372,2.90828571 49.0485589,3.32428571 49.5891027,4.11666667 L49.6161299,4.11666667 L49.6161299,3.10266667 L51.0215438,3.10266667 L51.0215438,10.3034286 L49.6161299,10.3034286 L49.6161299,10.3034286 Z M47.0485468,4.14204762 C45.3188066,4.14204762 44.4816073,5.58442857 44.4816073,6.71542857 C44.4816073,8.01542857 45.5491813,9.25042857 47.0350332,9.25042857 C48.5080151,9.25042857 49.6431571,8.09342857 49.6431571,6.71542857 C49.6431571,5.18204762 48.493858,4.14204762 47.0485468,4.14204762 Z" id="Shape"></path>
                <polygon id="Path" points="54.6579879 10.3034286 53.252574 10.3034286 53.252574 4.33704762 52.2390544 4.33704762 52.2390544 3.10266667 53.252574 3.10266667 53.252574 0.685285714 54.6579879 0.685285714 54.6579879 3.10266667 55.8870816 3.10266667 55.8870816 4.33704762 54.6579879 4.33704762"></polygon>
                <path d="M62.6020514,5.49404762 C62.3723202,5.03966667 61.8317764,4.14204762 60.494574,4.14204762 C58.6843958,4.14204762 58.0357432,5.59804762 58.0357432,6.68942857 C58.0357432,7.93742857 58.859429,9.25042857 60.4675468,9.25042857 C61.5216073,9.25042857 62.2378278,8.66542857 62.5885378,7.92380952 L64.1561148,7.92380952 C63.5891873,9.52280952 62.1303625,10.4848095 60.4681903,10.4848095 C58.0093595,10.4848095 56.6309728,8.54780952 56.6309728,6.68942857 C56.6309728,4.74004762 58.1174683,2.90766667 60.4810604,2.90766667 C62.6026949,2.90766667 63.8729728,4.42804762 64.1561148,5.49404762 L62.6020514,5.49404762 L62.6020514,5.49404762 Z" id="Path"></path>
                <path d="M70.9270695,10.3034286 L70.9270695,6.39166667 C70.9270695,5.83266667 70.9270695,4.14266667 69.0628369,4.14266667 C67.8877976,4.14266667 67.0904955,4.93566667 67.0904955,6.37804762 L67.0904955,10.3034286 L65.6850816,10.3034286 L65.6850816,0.685285714 L67.0904955,0.685285714 L67.0904955,3.86966667 L67.1175227,3.86966667 C67.7932024,2.90828571 68.9148308,2.90828571 69.2114864,2.90828571 C70.3742991,2.90828571 71.3189637,3.38866667 71.8595076,4.19466667 C72.1574502,4.66266667 72.3196133,5.23466667 72.3324834,6.04004762 L72.3324834,10.3034286 L70.9270695,10.3034286 L70.9270695,10.3034286 Z" id="Path"></path>
                <path d="M79.6574955,10.3034286 L78.1980272,10.3034286 L78.1980272,0.685285714 L81.0886495,0.685285714 C83.4805559,0.685285714 84.6150544,1.88128571 84.6150544,3.59666667 C84.6150544,5.31204762 83.4799124,6.50804762 81.0886495,6.50804762 L79.656852,6.50804762 L79.656852,10.3034286 L79.6574955,10.3034286 Z M79.6574955,5.22104762 L81.0892931,5.22104762 C82.7514653,5.22104762 83.1568731,4.31166667 83.1568731,3.59666667 C83.1568731,2.88166667 82.7514653,1.97228571 81.0892931,1.97228571 L79.6574955,1.97228571 L79.6574955,5.22104762 Z" id="Shape"></path>
                <polygon id="Path" points="87.3872719 10.3034286 85.981858 10.3034286 85.981858 0.685285714 87.3872719 0.685285714"></polygon>
                <path d="M95.5475529,10.3034286 L95.5475529,9.18542857 L95.5205257,9.18542857 C94.9799819,10.0694286 93.9941329,10.4854286 92.9806133,10.4854286 C90.453571,10.4854286 89.0082598,8.62704762 89.0082598,6.72904762 C89.0082598,4.97466667 90.2914079,2.90828571 92.9806133,2.90828571 C94.0205166,2.90828571 94.9799819,3.32428571 95.5205257,4.11666667 L95.5475529,4.11666667 L95.5475529,3.10266667 L96.9529668,3.10266667 L96.9529668,10.3034286 L95.5475529,10.3034286 L95.5475529,10.3034286 Z M92.9806133,4.14204762 C91.2508731,4.14204762 90.4136737,5.58442857 90.4136737,6.71542857 C90.4136737,8.01542857 91.4806042,9.25042857 92.9677432,9.25042857 C94.4400816,9.25042857 95.5752236,8.09342857 95.5752236,6.71542857 C95.5745801,5.18204762 94.426568,4.14204762 92.9806133,4.14204762 Z" id="Shape"></path>
                <polygon id="Path" points="101.534719 12.7071905 100.075251 12.7071905 101.169208 10.1598095 98.1833474 3.10266667 99.6968701 3.10266667 101.899586 8.69142857 104.155713 3.10266667 105.669236 3.10266667"></polygon>
                <path d="M107.684048,7.28742857 C108.034758,8.67842857 109.197571,9.25042857 110.142236,9.25042857 C111.182782,9.25042857 111.939544,8.66542857 112.277384,8.04142857 L113.682798,8.04142857 C112.966577,9.89980952 111.250994,10.4848095 110.088181,10.4848095 C107.96719,10.4848095 106.278634,8.73042857 106.278634,6.68942857 C106.278634,4.53204762 108.008375,2.90766667 110.115852,2.90766667 C112.141604,2.90766667 113.911885,4.49304762 113.925399,6.59904762 C113.925399,6.83242857 113.899015,7.19642857 113.885502,7.28742857 L107.684048,7.28742857 Z M112.519985,6.24804762 C112.45306,5.19566667 111.453054,4.14266667 110.101695,4.14266667 C108.750335,4.14266667 107.750973,5.19566667 107.683405,6.24804762 L112.519985,6.24804762 Z" id="Shape"></path>
                <path d="M115.535447,10.3034286 L115.535447,3.10266667 L116.845622,3.10266667 L116.845622,3.75266667 L116.87265,3.75266667 C117.467248,2.94666667 118.426069,2.92066667 118.778066,2.90828571 L118.778066,4.29866667 C118.561849,4.29866667 118.101743,4.38904762 117.764547,4.55866667 C117.319242,4.79266667 116.940861,5.33866667 116.940861,6.36504762 L116.940861,10.3034286 L115.535447,10.3034286 L115.535447,10.3034286 Z" id="Path"></path>
                <path d="M131.493716,3.10266667 C131.075438,2.66066667 130.236952,1.78966667 128.764613,1.78966667 C126.684163,1.78966667 125.062532,3.50504762 125.062532,5.52004762 C125.062532,7.63904762 126.886224,9.19842857 128.777483,9.19842857 C129.061269,9.19842857 131.263341,9.17180952 132.222807,6.80704762 L127.561903,6.80704762 L127.561903,5.52004762 L133.884979,5.52004762 C133.830924,8.74342857 131.155233,10.4854286 128.723429,10.4854286 C125.805136,10.4854286 123.603063,8.21104762 123.603063,5.52004762 C123.603063,2.75166667 125.832807,0.503285714 128.710559,0.503285714 C130.413272,0.503285714 132.22345,1.37366667 133.196429,3.10266667 L131.493716,3.10266667 L131.493716,3.10266667 Z" id="Path"></path>
                <path d="M136.454492,7.28742857 C136.805202,8.67842857 137.968015,9.25042857 138.91268,9.25042857 C139.953227,9.25042857 140.709988,8.66542857 141.047828,8.04142857 L142.453242,8.04142857 C141.737021,9.89980952 140.021438,10.4848095 138.858625,10.4848095 C136.737634,10.4848095 135.049079,8.73042857 135.049079,6.68942857 C135.049079,4.53204762 136.778819,2.90766667 138.886296,2.90766667 C140.912048,2.90766667 142.682329,4.49304762 142.695843,6.59904762 C142.695843,6.83242857 142.669459,7.19642857 142.655946,7.28742857 L136.454492,7.28742857 Z M141.290429,6.24804762 C141.223505,5.19566667 140.223498,4.14266667 138.872139,4.14266667 C137.520779,4.14266667 136.521417,5.19566667 136.453849,6.24804762 L141.290429,6.24804762 Z" id="Shape"></path>
                <path d="M149.534366,10.3034286 L149.534366,6.39166667 C149.534366,5.83266667 149.534366,4.14266667 147.670133,4.14266667 C146.49445,4.14266667 145.697792,4.93566667 145.697792,6.37804762 L145.697792,10.3034286 L144.292378,10.3034286 L144.292378,3.10266667 L145.603196,3.10266667 L145.603196,3.86904762 L145.62958,3.86904762 C146.386341,2.90766667 147.52084,2.90766667 147.818782,2.90766667 C148.980308,2.90766667 149.92626,3.38804762 150.466804,4.19404762 C150.763459,4.66204762 150.925622,5.23404762 150.939136,6.03942857 L150.939136,10.3028095 L149.534366,10.3028095 L149.534366,10.3034286 Z" id="Path"></path>
                <path d="M159.101347,10.3034286 L159.101347,9.27642857 L159.07432,9.27642857 C158.479722,10.0694286 157.520257,10.4854286 156.426299,10.4854286 C153.940441,10.4854286 152.535027,8.62704762 152.535027,6.72904762 C152.535027,4.97466667 153.778278,2.90828571 156.426299,2.90828571 C157.466202,2.90828571 158.425668,3.32428571 158.966211,3.98666667 L158.993239,3.98666667 L158.993239,0.685285714 L160.398653,0.685285714 L160.398653,10.3034286 L159.101347,10.3034286 Z M156.507381,4.14204762 C154.77764,4.14204762 153.940441,5.58442857 153.940441,6.71542857 C153.940441,8.01542857 155.008015,9.25042857 156.493867,9.25042857 C157.966849,9.25042857 159.101991,8.09342857 159.101991,6.71542857 C159.101347,5.18204762 157.952692,4.14204762 156.507381,4.14204762 Z" id="Shape"></path>
                <path d="M163.439855,7.28742857 C163.791852,8.67842857 164.953378,9.25042857 165.899329,9.25042857 C166.939233,9.25042857 167.695994,8.66542857 168.03319,8.04142857 L169.438604,8.04142857 C168.723027,9.89980952 167.006801,10.4848095 165.845275,10.4848095 C163.72364,10.4848095 162.034441,8.73042857 162.034441,6.68942857 C162.034441,4.53204762 163.764181,2.90766667 165.871659,2.90766667 C167.898698,2.90766667 169.668335,4.49304762 169.682492,6.59904762 C169.682492,6.83242857 169.654822,7.19642857 169.641952,7.28742857 L163.439855,7.28742857 Z M168.277722,6.24804762 C168.210154,5.19566667 167.210148,4.14266667 165.858789,4.14266667 C164.507429,4.14266667 163.508066,5.19566667 163.439855,6.24804762 L168.277722,6.24804762 Z" id="Shape"></path>
                <path d="M171.291897,10.3034286 L171.291897,3.10266667 L172.602716,3.10266667 L172.602716,3.75266667 L172.629743,3.75266667 C173.224341,2.94666667 174.183807,2.92066667 174.534517,2.90828571 L174.534517,4.29866667 C174.318299,4.29866667 173.85948,4.38904762 173.52164,4.55866667 C173.075692,4.79266667 172.697311,5.33866667 172.697311,6.36504762 L172.697311,10.3034286 L171.291897,10.3034286 L171.291897,10.3034286 Z" id="Path"></path>
                <path d="M184.50755,10.3034286 L181.210876,5.84504762 L181.183205,5.84504762 L181.183205,10.3034286 L179.723737,10.3034286 L179.723737,0.685285714 L182.81835,0.685285714 C184.223764,0.685285714 184.952855,1.00966667 185.480529,1.49128571 C186.115024,2.07628571 186.399453,2.96028571 186.399453,3.76566667 C186.399453,6.31304762 184.183867,6.71666667 183.535215,6.71666667 L186.331885,10.3040476 L184.50755,10.3040476 L184.50755,10.3034286 Z M181.183205,5.65004762 L182.183855,5.65004762 C182.778453,5.65004762 184.939985,5.62404762 184.939985,3.76504762 C184.939985,2.95966667 184.37177,1.97228571 182.724399,1.97228571 L181.183205,1.97228571 L181.183205,5.65004762 Z" id="Shape"></path>
                <path d="M194.128586,10.3034286 L194.128586,9.18542857 L194.101559,9.18542857 C193.561015,10.0694286 192.575166,10.4854286 191.561647,10.4854286 C189.034604,10.4854286 187.589293,8.62704762 187.589293,6.72904762 C187.589293,4.97466667 188.872441,2.90828571 191.561647,2.90828571 C192.60155,2.90828571 193.561015,3.32428571 194.101559,4.11666667 L194.128586,4.11666667 L194.128586,3.10266667 L195.534,3.10266667 L195.534,10.3034286 L194.128586,10.3034286 L194.128586,10.3034286 Z M191.561647,4.14204762 C189.831906,4.14204762 188.994707,5.58442857 188.994707,6.71542857 C188.994707,8.01542857 190.061637,9.25042857 191.548776,9.25042857 C193.021115,9.25042857 194.156257,8.09342857 194.156257,6.71542857 C194.155613,5.18204762 193.007601,4.14204762 191.561647,4.14204762 Z" id="Shape"></path>
                <polygon id="Path" points="199.169801 10.3034286 197.764387 10.3034286 197.764387 4.33704762 196.751511 4.33704762 196.751511 3.10266667 197.764387 3.10266667 197.764387 0.685285714 199.169801 0.685285714 199.169801 3.10266667 200.399538 3.10266667 200.399538 4.33704762 199.169801 4.33704762"></polygon>
                <path d="M202.940094,2.27066667 L201.53468,2.27066667 L201.53468,0.684666667 L202.940094,0.684666667 L202.940094,2.27066667 Z M202.940094,10.3034286 L201.53468,10.3034286 L201.53468,3.10266667 L202.940094,3.10266667 L202.940094,10.3034286 Z" id="Shape"></path>
                <path d="M208.60229,10.4854286 C206.088761,10.4854286 204.562369,8.47104762 204.562369,6.65166667 C204.562369,4.68866667 206.278595,2.90828571 208.60229,2.90828571 C210.871931,2.90828571 212.641568,4.62366667 212.641568,6.67704762 C212.641568,8.43142857 211.142202,10.4854286 208.60229,10.4854286 Z M208.60229,4.14204762 C207.021199,4.14204762 205.967139,5.40304762 205.967139,6.68942857 C205.967139,7.98942857 207.034713,9.25042857 208.60229,9.25042857 C210.115813,9.25042857 211.236798,8.04142857 211.236798,6.67642857 C211.236798,5.40366667 210.182737,4.14204762 208.60229,4.14204762 Z" id="Shape"></path>
            </g>
            <polygon id="Path" fill="#000000" points="283.535024 34 283 33.6340733 300.9098 6 354 6 354 6.66051756 301.253836 6.66051756"></polygon>
            <path d="M282.5,35 C283.328,35 284,34.32875 284,33.5 C284,32.67125 283.328,32 282.5,32 C281.67125,32 281,32.67125 281,33.5 C281,34.32875 281.67125,35 282.5,35" id="Path" fill="#000000"></path>
            <g id="Group" transform="translate(359.000000, 0.000000)" fill="#000000">
                <polygon id="Path" points="1.89519906 0.905477383 0 0.905477383 0 0 3 0 3 10 1.89519906 10"></polygon>
                <polygon id="Path" points="10.9351114 0.905477383 6 0.905477383 6 0 12 0 12 0.905477383 7.7519934 10 6.65905966 10"></polygon>
                <path d="M15.2250448,0 C16.4424535,0 17.4508122,1.04728169 17.4508122,2.34252272 C17.4508122,3.63853381 16.4417301,4.68581549 15.2250448,4.68581549 C14.0083595,4.68581549 13.0000008,3.63853381 13.0000008,2.34252272 C12.9992774,1.04651163 14.0076361,0 15.2250448,0 Z M15.2250448,3.95271831 C16.0612447,3.95271831 16.7129887,3.23271215 16.7129887,2.34252272 C16.7129887,1.45233328 16.061968,0.732327122 15.2250448,0.732327122 C14.3881215,0.732327122 13.7371009,1.45233328 13.7371009,2.34252272 C13.7371009,3.23271215 14.3881215,3.95271831 15.2250448,3.95271831 Z M15.274233,9.82981673 L14.4380331,9.82981673 L19.6512621,0.143231172 L20.487462,0.143231172 L15.274233,9.82981673 Z M19.7742326,5.31418451 C20.9923647,5.31418451 22,6.36146619 22,7.65670722 C22,8.95271831 20.9916413,10 19.7742326,10 C18.556824,10 17.5491886,8.95271831 17.5491886,7.65670722 C17.5484653,6.36146619 18.556824,5.31418451 19.7742326,5.31418451 Z M19.7742326,9.26690282 C20.6104325,9.26690282 21.2628999,8.54689666 21.2628999,7.65670722 C21.2628999,6.76651779 20.6111559,6.04651163 19.7742326,6.04651163 C18.9387561,6.04651163 18.2862887,6.76651779 18.2862887,7.65670722 C18.2862887,8.54689666 18.9380327,9.26690282 19.7742326,9.26690282 Z" id="Shape"></path>
                <polygon id="Path" points="27.0007864 0 32 0 32 0.905405405 27.9900912 0.905405405 27.9900912 4.52702703 31.8529412 4.52702703 31.8529412 5.43243243 27.9900912 5.43243243 27.9900912 10 27 10 27 0"></polygon>
                <path d="M33.8834117,6.81635581 C33.9447597,8.12123386 35.1709986,9.23098996 36.4845682,9.23098996 C37.7108071,9.20659971 38.5819492,8.48708752 38.8886893,7.65853659 L39.7966402,7.65853659 C39.3303951,8.98780488 38.0420865,10 36.4968378,10 C34.619588,10 33,8.48780488 33,6.51219512 C33,4.62195122 34.5337008,3.03730273 36.4845682,3 C37.956921,3.01219512 38.9991158,3.87804878 39.4776304,4.70731707 C39.9316059,5.42682927 40.0297627,6.17073171 39.9929539,6.81635581 L33.8834117,6.81635581 L33.8834117,6.81635581 Z M39.1218118,6.04878049 C38.8518805,4.47560976 37.5642936,3.76829268 36.4961161,3.76829268 C35.4409299,3.76829268 34.1288038,4.47560976 33.8834117,6.04878049 L39.1218118,6.04878049 Z" id="Shape"></path>
                <path d="M42,3.17470638 L42.8678832,3.17470638 L42.8678832,3.96088507 L42.8430657,3.93592701 L42.8430657,3.96088507 L42.8678832,3.96088507 C43.2525547,3.28701762 44.0839416,3 44.7167883,3 C45.2868613,3 46.4912409,3.26205956 47,4.31029782 C47.5080292,3.26205956 48.7124088,3 49.2824818,3 C50.3248175,3 52,3.62395134 52,5.94505034 L52,10 L51.1321168,10 L51.1321168,6.04414849 C51.1321168,5.29540688 50.9948905,4.9335151 50.8218978,4.62153943 C50.5357664,4.13485738 50.0153285,3.78544463 49.2832117,3.78544463 C48.5510949,3.78544463 48.029927,4.13485738 47.7452555,4.62153943 C47.5715328,4.9335151 47.4350365,5.29540688 47.4350365,6.04414849 L47.4350365,10 L46.5664234,10 L46.5664234,6.04414849 C46.5664234,5.29540688 46.429927,4.9335151 46.2562044,4.62153943 C45.9708029,4.13485738 45.450365,3.78544463 44.7182482,3.78544463 C43.9861314,3.78544463 43.4649635,4.13485738 43.179562,4.62153943 C43.0065693,4.9335151 42.8693431,5.29540688 42.8693431,6.04414849 L42.8693431,10 L42.0014599,10 L42.0014599,3.17470638 L42,3.17470638 Z" id="Path"></path>
                <path d="M61,9.84146341 L60.0334316,9.84146341 L60.0334316,8.67073171 L60.0057921,8.67073171 C59.1766081,9.76829268 57.8507266,10 57.0630017,10 C54.6860075,10 53,8.40243902 53,6.48780488 C53,4.70731707 54.5892694,3 57.0630017,3 C57.8775531,3 59.2042475,3.23170732 60.0057921,4.34146341 L60.0334316,4.34146341 L60.0334316,3.17073171 L61,3.17073171 L61,9.84146341 Z M57.0621888,9.23170732 C58.6921045,9.23170732 60.0878976,8.07317073 60.0878976,6.51219512 C60.0878976,5.04878049 58.8034753,3.76829268 57.0621888,3.76829268 C55.4038207,3.76829268 53.9657555,4.82926829 53.9657555,6.52439024 C53.9665684,8.01219512 55.2103445,9.23170732 57.0621888,9.23170732 Z" id="Shape"></path>
                <polygon id="Path" points="62 0 63 0 63 10 62 10"></polygon>
                <path d="M65.8834117,6.81635581 C65.9447597,8.12123386 67.1709986,9.23098996 68.4845682,9.23098996 C69.7108071,9.20659971 70.5819492,8.48708752 70.8886893,7.65853659 L71.7966402,7.65853659 C71.3303951,8.98780488 70.0420865,10 68.4968378,10 C66.619588,10 65,8.48780488 65,6.51219512 C65,4.62195122 66.5337008,3.03730273 68.4845682,3 C69.956921,3.01219512 70.9991158,3.87804878 71.4776304,4.70731707 C71.9316059,5.42682927 72.0297627,6.17073171 71.9929539,6.81635581 L65.8834117,6.81635581 L65.8834117,6.81635581 Z M71.1218118,6.04878049 C70.8518805,4.47560976 69.5642936,3.76829268 68.4961161,3.76829268 C67.4409299,3.76829268 66.1288038,4.47560976 65.8834117,6.04878049 L71.1218118,6.04878049 Z" id="Shape"></path>
                <path d="M77,3.18592297 L77.9665684,3.18592297 L77.9665684,4.46082337 L77.9942079,4.46082337 C78.8648511,3.26560425 80.1224469,3 80.9378112,3 C83.4115435,3 85,4.85922975 85,6.79814077 C85,8.88235294 83.3148054,10.622842 80.9378112,10.622842 C80.1500864,10.622842 78.8372117,10.3572377 77.9942079,9.1752988 L77.9665684,9.1752988 L77.9665684,13 L77,13 L77,3.18592297 Z M80.9386241,3.83665339 C79.1973377,3.83665339 77.9121024,5.2310757 77.9121024,6.8247012 C77.9121024,8.52456839 79.3078955,9.78618858 80.9386241,9.78618858 C82.7896555,9.78618858 84.0342445,8.45816733 84.0342445,6.8387626 C84.0334316,4.99203187 82.5969922,3.83665339 80.9386241,3.83665339 Z" id="Shape"></path>
                <polygon id="Path" points="86 0 87 0 87 10 86 10"></polygon>
                <path d="M96,9.84146341 L95.0334316,9.84146341 L95.0334316,8.67073171 L95.0057921,8.67073171 C94.1766081,9.76829268 92.8507266,10 92.0630017,10 C89.6860075,10 88,8.40243902 88,6.48780488 C88,4.70731707 89.5892694,3 92.0630017,3 C92.8775531,3 94.2042475,3.23170732 95.0057921,4.34146341 L95.0334316,4.34146341 L95.0334316,3.17073171 L96,3.17073171 L96,9.84146341 Z M92.0621888,9.23170732 C93.6921045,9.23170732 95.0878976,8.07317073 95.0878976,6.51219512 C95.0878976,5.04878049 93.8034753,3.76829268 92.0621888,3.76829268 C90.4038207,3.76829268 88.9657555,4.82926829 88.9657555,6.52439024 C88.9657555,8.01219512 90.2103445,9.23170732 92.0621888,9.23170732 Z" id="Shape"></path>
                <polygon id="Path" points="99.9353793 10.1580958 97 3 98.0198031 3 100.417719 8.89953829 102.980197 3 104 3 99.6321946 13 98.6261726 13"></polygon>
                <path d="M105.883412,6.81635581 C105.94476,8.12123386 107.170999,9.23098996 108.484568,9.23098996 C109.710807,9.20659971 110.581949,8.48708752 110.888689,7.65853659 L111.797362,7.65853659 C111.331117,8.98780488 110.042086,10 108.496838,10 C106.619588,10 105,8.48780488 105,6.51219512 C105,4.62195122 106.533701,3.03730273 108.484568,3 C109.956921,3.01219512 110.999116,3.87804878 111.47763,4.70731707 C111.931606,5.42682927 112.029763,6.17073171 111.992954,6.81635581 L105.883412,6.81635581 L105.883412,6.81635581 Z M111.12109,6.04878049 C110.851159,4.47560976 109.563572,3.76829268 108.495394,3.76829268 C107.440208,3.76829268 106.128082,4.47560976 105.88269,6.04878049 L111.12109,6.04878049 Z" id="Shape"></path>
                <path d="M113.000781,3.17470638 L113.929984,3.17470638 L113.929984,4.1605495 L113.956533,4.1605495 C114.394586,3.19966443 115.216814,3.04991611 116,3 L116,3.92344799 C115.349558,3.97336409 114.792035,4.19798658 114.433628,4.59731544 C114.115825,4.97168624 113.929204,5.45836829 113.929204,6.00744547 L113.929204,10 L113,10 L113,3.17470638 L113.000781,3.17470638 Z" id="Path"></path>
            </g>
        </g>
    </g>
</svg>