<?xml version="1.0" encoding="utf-8"?>
<!-- Generator: Adobe Illustrator 24.0.0, SVG Export Plug-In . SVG Version: 6.00 Build 0)  -->
<svg version="1.1" id="Layer_1" xmlns="http://www.w3.org/2000/svg" xmlns:xlink="http://www.w3.org/1999/xlink" x="0px" y="0px"
	 viewBox="0 0 827 64.5" style="enable-background:new 0 0 827 64.5;" xml:space="preserve">
<style type="text/css">
	.st0{fill:none;stroke:#EE368A;stroke-width:2;stroke-linecap:square;}
	.st1{enable-background:new    ;}
	.st2{fill:#EE368A;}
	.st3{fill-rule:evenodd;clip-rule:evenodd;fill:#FFFFFF;stroke:#EE368A;stroke-width:3;}
</style>
<title>process flow_pink</title>
<desc>Created with Sketch.</desc>
<path id="Line" class="st0" d="M79,21l643,1"/>
<g class="st1">
	<path class="st2" d="M622.2,49.6c1.8,0,2.5,0.3,3.1,0.7c0.8,0.6,1.2,1.6,1.2,2.6s-0.4,2.1-1.1,2.6c-0.7,0.6-1.4,0.8-2.9,0.8h-1.3
		V60h-2.1V49.6H622.2z M621.2,54.6h1.2c0.5,0,0.9,0,1.4-0.3c0.4-0.2,0.7-0.7,0.7-1.3s-0.3-1.1-0.7-1.3c-0.4-0.2-0.9-0.3-1.4-0.3
		h-1.1V54.6z"/>
	<path class="st2" d="M626.9,56.1c0-2,1.4-4,4.1-4c2.7,0,4.1,2.1,4.1,4.1c0,2-1.4,4.1-4.1,4.1C628.3,60.2,626.9,58.1,626.9,56.1
		L626.9,56.1z M628.7,56.2c0,1.3,1,2.3,2.3,2.3s2.3-1,2.3-2.4c0-1.4-1-2.4-2.3-2.4S628.7,54.8,628.7,56.2L628.7,56.2z"/>
	<path class="st2" d="M639.8,54.4c0-0.4-0.2-0.8-0.9-0.8c-0.6,0-0.9,0.4-0.9,0.8c0,0.5,0.6,0.8,1.3,1c1.2,0.3,2.6,0.7,2.6,2.4
		c0,1.6-1.3,2.6-2.9,2.6c-1.2,0-2.8-0.6-2.9-2.5h1.8c0.1,0.8,0.8,1,1.1,1c0.6,0,1.1-0.4,1.1-0.9c0-0.7-0.6-0.8-2-1.3
		c-1-0.3-1.9-0.9-1.9-2c0-1.5,1.3-2.5,2.8-2.5c1,0,2.6,0.5,2.7,2.3H639.8z"/>
	<path class="st2" d="M643.7,53.7h-1.3v-1.4h1.3v-2.7h1.8v2.7h1.3v1.4h-1.3V60h-1.8V53.7z"/>
	<path class="st2" d="M660,59.1c0,1.3-0.2,2.1-0.7,2.7c-0.7,0.9-1.9,1.6-3.5,1.6c-2.4,0-3.5-1.4-3.8-2.6h2.1
		c0.2,0.4,0.5,0.6,0.8,0.8c0.4,0.2,0.8,0.3,1,0.3c1.1,0,2.3-0.8,2.3-2.3v-0.6c-0.4,0.7-1.2,1.4-2.5,1.4c-2.2,0-3.9-1.7-3.9-4
		c0-2.5,1.8-4.1,3.9-4.1c1.1,0,2.1,0.5,2.5,1.3v-1h1.8V59.1z M653.6,56.1c0,1.3,1,2.4,2.3,2.4c0.7,0,1.2-0.2,1.6-0.7
		c0.4-0.4,0.6-1,0.7-1.6c0-0.6-0.2-1.2-0.6-1.7c-0.4-0.5-0.9-0.8-1.7-0.8C654.7,53.8,653.6,54.8,653.6,56.1L653.6,56.1z"/>
	<path class="st2" d="M669.7,60h-1.8v-1.1c-0.5,0.9-1.5,1.3-2.6,1.3c-2.5,0-3.9-1.9-3.9-4.1c0-2.4,1.8-4.1,3.9-4.1
		c1.4,0,2.3,0.7,2.6,1.4v-1.1h1.8V60z M663.2,56.2c0,1,0.7,2.3,2.3,2.3c1,0,1.7-0.5,2-1.2c0.2-0.3,0.3-0.7,0.3-1.1
		c0-0.4-0.1-0.7-0.2-1.1c-0.3-0.7-1-1.4-2.1-1.4C664.1,53.8,663.2,55,663.2,56.2L663.2,56.2z"/>
	<path class="st2" d="M671.5,52.3h1.7v1c0.2-0.4,0.9-1.2,2.2-1.2c0.6,0,1.3,0.2,1.9,0.8c0.2,0.2,0.4,0.5,0.5,0.7
		c0.1-0.2,0.3-0.5,0.6-0.7c0.5-0.4,1.1-0.8,2-0.8c0.6,0,1.5,0.2,2,0.8c0.7,0.7,0.8,1.4,0.8,2.9V60h-1.8v-4.1c0-0.5,0-1-0.3-1.4
		c-0.2-0.4-0.6-0.6-1.2-0.6c-0.6,0-1.1,0.3-1.3,0.7s-0.3,0.8-0.3,1.3V60h-1.8v-4.2c0-0.4,0-0.9-0.2-1.3c-0.2-0.4-0.6-0.7-1.3-0.7
		c-0.7,0-1.1,0.3-1.3,0.7c-0.2,0.4-0.3,0.9-0.3,1.3V60h-1.8V52.3z"/>
	<path class="st2" d="M686.4,56.8c0.1,1.2,1.2,1.9,2.2,1.9c0.9,0,1.5-0.4,1.8-1h1.9c-0.4,0.9-0.9,1.5-1.6,1.9
		c-0.6,0.4-1.4,0.7-2.2,0.7c-2.4,0-4.1-1.9-4.1-4.1c0-2.2,1.7-4.1,4-4.1c1.1,0,2.2,0.4,2.9,1.2c0.9,1,1.3,2.2,1.1,3.5H686.4z
		 M690.8,55.4c-0.1-0.7-0.8-1.8-2.2-1.7c-1.4,0-2.1,1-2.2,1.7H690.8z"/>
	<path class="st2" d="M698.2,49.6h1.8v2.5v1.1c0.4-0.8,1.4-1.2,2.3-1.1c1.2,0,1.9,0.4,2.4,1.1c0.5,0.7,0.6,1.6,0.6,2.6V60h-1.8v-4.1
		c0-0.6-0.1-1.1-0.4-1.5c-0.3-0.4-0.7-0.6-1.3-0.6c-0.7,0-1.2,0.3-1.4,0.7c-0.3,0.4-0.3,0.8-0.3,1.2V60h-1.8V49.6z"/>
	<path class="st2" d="M715,60h-1.8v-1.1c-0.5,0.9-1.5,1.3-2.6,1.3c-2.5,0-3.9-1.9-3.9-4.1c0-2.4,1.8-4.1,3.9-4.1
		c1.4,0,2.3,0.7,2.6,1.4v-1.1h1.8V60z M708.5,56.2c0,1,0.7,2.3,2.3,2.3c1,0,1.7-0.5,2-1.2c0.2-0.3,0.3-0.7,0.3-1.1
		c0-0.4-0.1-0.7-0.2-1.1c-0.3-0.7-1-1.4-2.1-1.4C709.3,53.8,708.5,55,708.5,56.2L708.5,56.2z"/>
	<path class="st2" d="M716.8,52.3h1.7v1c0.3-0.7,1-1.2,2.1-1.2v1.8h-0.1c-1.3,0-1.9,0.6-1.9,1.9V60h-1.8V52.3z"/>
	<path class="st2" d="M729.3,60h-1.8v-1.1c-0.5,0.9-1.5,1.3-2.6,1.3c-2.5,0-3.9-1.9-3.9-4.1c0-2.4,1.8-4.1,3.9-4.1
		c1.4,0,2.3,0.7,2.6,1.4v-1.1h1.8V60z M722.8,56.2c0,1,0.7,2.3,2.3,2.3c1,0,1.7-0.5,2-1.2c0.2-0.3,0.3-0.7,0.3-1.1
		c0-0.4-0.1-0.7-0.2-1.1c-0.3-0.7-1-1.4-2.1-1.4C723.6,53.8,722.8,55,722.8,56.2L722.8,56.2z"/>
	<path class="st2" d="M734.4,54.4c0-0.4-0.2-0.8-0.9-0.8c-0.6,0-0.9,0.4-0.9,0.8c0,0.5,0.6,0.8,1.3,1c1.2,0.3,2.6,0.7,2.6,2.4
		c0,1.6-1.3,2.6-2.9,2.6c-1.2,0-2.8-0.6-2.9-2.5h1.8c0.1,0.8,0.8,1,1.1,1c0.6,0,1.1-0.4,1.1-0.9c0-0.7-0.6-0.8-2-1.3
		c-1-0.3-1.9-0.9-1.9-2c0-1.5,1.3-2.5,2.8-2.5c1,0,2.6,0.5,2.7,2.3H734.4z"/>
	<path class="st2" d="M741.2,54.4c0-0.4-0.2-0.8-0.9-0.8c-0.6,0-0.9,0.4-0.9,0.8c0,0.5,0.6,0.8,1.3,1c1.2,0.3,2.6,0.7,2.6,2.4
		c0,1.6-1.3,2.6-2.9,2.6c-1.2,0-2.8-0.6-2.9-2.5h1.8c0.1,0.8,0.8,1,1.1,1c0.6,0,1.1-0.4,1.1-0.9c0-0.7-0.6-0.8-2-1.3
		c-1-0.3-1.9-0.9-1.9-2c0-1.5,1.3-2.5,2.8-2.5c1,0,2.6,0.5,2.7,2.3H741.2z"/>
	<path class="st2" d="M744.6,52.3h1.7v1c0.2-0.4,0.9-1.2,2.2-1.2c0.6,0,1.3,0.2,1.9,0.8c0.2,0.2,0.4,0.5,0.5,0.7
		c0.1-0.2,0.3-0.5,0.6-0.7c0.5-0.4,1.1-0.8,2-0.8c0.6,0,1.5,0.2,2,0.8c0.7,0.7,0.8,1.4,0.8,2.9V60h-1.8v-4.1c0-0.5,0-1-0.3-1.4
		c-0.2-0.4-0.6-0.6-1.2-0.6c-0.6,0-1.1,0.3-1.3,0.7s-0.3,0.8-0.3,1.3V60h-1.8v-4.2c0-0.4,0-0.9-0.2-1.3c-0.2-0.4-0.6-0.7-1.3-0.7
		c-0.7,0-1.1,0.3-1.3,0.7c-0.2,0.4-0.3,0.9-0.3,1.3V60h-1.8V52.3z"/>
	<path class="st2" d="M759.4,56.8c0.1,1.2,1.2,1.9,2.2,1.9c0.9,0,1.5-0.4,1.8-1h1.9c-0.4,0.9-0.9,1.5-1.6,1.9
		c-0.6,0.4-1.4,0.7-2.2,0.7c-2.4,0-4.1-1.9-4.1-4.1c0-2.2,1.7-4.1,4-4.1c1.1,0,2.2,0.4,2.9,1.2c0.9,1,1.3,2.2,1.1,3.5H759.4z
		 M763.8,55.4c-0.1-0.7-0.8-1.8-2.2-1.7c-1.4,0-2.1,1-2.2,1.7H763.8z"/>
	<path class="st2" d="M767,52.3h1.7c0,0.3,0,0.7,0,1c0.3-0.6,1-1.3,2.4-1.3c2.5,0,3,1.9,3,3.3V60h-1.8v-4.2c0-1.1-0.4-2-1.7-2
		c-1.3,0-1.8,0.9-1.8,2V60H767V52.3z"/>
	<path class="st2" d="M776.4,53.7h-1.3v-1.4h1.3v-2.7h1.8v2.7h1.3v1.4h-1.3V60h-1.8V53.7z"/>
	<path class="st2" d="M784.8,52.3h1.7v1c0.3-0.7,1-1.2,2.1-1.2v1.8h-0.1c-1.3,0-1.9,0.6-1.9,1.9V60h-1.8V52.3z"/>
	<path class="st2" d="M790.7,56.8c0.1,1.2,1.2,1.9,2.2,1.9c0.9,0,1.5-0.4,1.8-1h1.9c-0.4,0.9-0.9,1.5-1.6,1.9
		c-0.6,0.4-1.4,0.7-2.2,0.7c-2.4,0-4.1-1.9-4.1-4.1c0-2.2,1.7-4.1,4-4.1c1.1,0,2.2,0.4,2.9,1.2c0.9,1,1.3,2.2,1.1,3.5H790.7z
		 M795.1,55.4c-0.1-0.7-0.8-1.8-2.2-1.7c-1.4,0-2.1,1-2.2,1.7H795.1z"/>
	<path class="st2" d="M798.3,52.3h1.7v1.1c0.5-0.8,1.4-1.4,2.7-1.4c2.7,0,3.8,2.3,3.8,4.1c0,2.2-1.6,4-3.8,4c-1.5,0-2.3-0.8-2.6-1.3
		v1v2.7h-1.8V52.3z M804.7,56.1c0-1.1-0.8-2.4-2.4-2.4c-0.7,0-1.2,0.3-1.7,0.7c-0.4,0.4-0.7,1-0.7,1.7c0,0.7,0.3,1.2,0.7,1.7
		c0.4,0.4,1,0.7,1.7,0.7C803.8,58.5,804.7,57.4,804.7,56.1L804.7,56.1z"/>
	<path class="st2" d="M807.6,56.1c0-2,1.4-4,4.1-4c2.7,0,4.1,2.1,4.1,4.1c0,2-1.4,4.1-4.1,4.1C809,60.2,807.6,58.1,807.6,56.1
		L807.6,56.1z M809.4,56.2c0,1.3,1,2.3,2.3,2.3s2.3-1,2.3-2.4c0-1.4-1-2.4-2.3-2.4S809.4,54.8,809.4,56.2L809.4,56.2z"/>
	<path class="st2" d="M817.2,52.3h1.7v1c0.3-0.7,1-1.2,2.1-1.2v1.8H821c-1.3,0-1.9,0.6-1.9,1.9V60h-1.8V52.3z"/>
	<path class="st2" d="M822.9,53.7h-1.3v-1.4h1.3v-2.7h1.8v2.7h1.3v1.4h-1.3V60h-1.8V53.7z"/>
</g>
<circle id="Oval" class="st3" cx="722" cy="22" r="18.5"/>
<g class="st1">
	<path class="st2" d="M716.8,18.1c0.1-3.5,3-4.7,5.1-4.7c2.9,0,4.8,1.9,4.8,4.3c0,2-1.3,2.9-2.2,3.4c3,1,3.1,3.4,3.1,4.1
		c0,2.9-2.6,5.1-5.8,5.1c-1.8,0-3.8-0.7-4.8-2.2c-0.7-1-0.9-2.2-0.9-2.9h3.3c0.1,1,0.9,2.2,2.5,2.2c1.6,0,2.4-1.1,2.4-2.5
		c0-1.6-1.5-2.3-2.8-2.3h-1.3v-2.4h0.7c1.1,0,2.4-0.6,2.4-2c0-1-0.6-1.9-1.6-1.9c-1.4,0-1.7,1.1-1.8,1.8H716.8z"/>
</g>
<g class="st1">
	<path class="st2" d="M311.1,49.6c1.8,0,2.5,0.3,3.1,0.7c0.8,0.6,1.2,1.6,1.2,2.6s-0.4,2.1-1.1,2.6c-0.7,0.6-1.4,0.8-2.9,0.8h-1.3
		V60H308V49.6H311.1z M310.1,54.6h1.2c0.5,0,0.9,0,1.4-0.3c0.4-0.2,0.7-0.7,0.7-1.3s-0.3-1.1-0.7-1.3c-0.4-0.2-0.9-0.3-1.4-0.3h-1.1
		V54.6z"/>
	<path class="st2" d="M316.4,49.6h1.8V60h-1.8V49.6z"/>
	<path class="st2" d="M328,60h-1.8v-1.1c-0.5,0.9-1.5,1.3-2.6,1.3c-2.5,0-3.9-1.9-3.9-4.1c0-2.4,1.8-4.1,3.9-4.1
		c1.4,0,2.3,0.7,2.6,1.4v-1.1h1.8V60z M321.5,56.2c0,1,0.7,2.3,2.3,2.3c1,0,1.7-0.5,2-1.2c0.2-0.3,0.3-0.7,0.3-1.1
		c0-0.4-0.1-0.7-0.2-1.1c-0.3-0.7-1-1.4-2.1-1.4C322.3,53.8,321.5,55,321.5,56.2L321.5,56.2z"/>
	<path class="st2" d="M331.6,59.7l-2.9-7.4h2l1.9,5.1l1.8-5.1h2l-4,10.4h-2L331.6,59.7z"/>
	<path class="st2" d="M349.4,59.1c0,1.3-0.2,2.1-0.7,2.7c-0.7,0.9-1.9,1.6-3.5,1.6c-2.4,0-3.5-1.4-3.8-2.6h2.1
		c0.2,0.4,0.5,0.6,0.8,0.8c0.4,0.2,0.8,0.3,1,0.3c1.1,0,2.3-0.8,2.3-2.3v-0.6c-0.4,0.7-1.2,1.4-2.5,1.4c-2.2,0-3.9-1.7-3.9-4
		c0-2.5,1.8-4.1,3.9-4.1c1.1,0,2.1,0.5,2.5,1.3v-1h1.8V59.1z M342.9,56.1c0,1.3,1,2.4,2.3,2.4c0.7,0,1.2-0.2,1.6-0.7
		c0.4-0.4,0.6-1,0.7-1.6c0-0.6-0.2-1.2-0.6-1.7c-0.4-0.5-0.9-0.8-1.7-0.8C344,53.8,342.9,54.8,342.9,56.1L342.9,56.1z"/>
	<path class="st2" d="M359.1,60h-1.8v-1.1c-0.5,0.9-1.5,1.3-2.6,1.3c-2.5,0-3.9-1.9-3.9-4.1c0-2.4,1.8-4.1,3.9-4.1
		c1.4,0,2.3,0.7,2.6,1.4v-1.1h1.8V60z M352.6,56.2c0,1,0.7,2.3,2.3,2.3c1,0,1.7-0.5,2-1.2c0.2-0.3,0.3-0.7,0.3-1.1
		c0-0.4-0.1-0.7-0.2-1.1c-0.3-0.7-1-1.4-2.1-1.4C353.4,53.8,352.6,55,352.6,56.2L352.6,56.2z"/>
	<path class="st2" d="M360.9,52.3h1.7v1c0.2-0.4,0.9-1.2,2.2-1.2c0.6,0,1.3,0.2,1.9,0.8c0.2,0.2,0.4,0.5,0.5,0.7
		c0.1-0.2,0.3-0.5,0.6-0.7c0.5-0.4,1.1-0.8,2-0.8c0.6,0,1.5,0.2,2,0.8c0.7,0.7,0.8,1.4,0.8,2.9V60h-1.8v-4.1c0-0.5,0-1-0.3-1.4
		c-0.2-0.4-0.6-0.6-1.2-0.6c-0.6,0-1.1,0.3-1.3,0.7c-0.2,0.4-0.3,0.8-0.3,1.3V60h-1.8v-4.2c0-0.4,0-0.9-0.2-1.3
		c-0.2-0.4-0.6-0.7-1.3-0.7c-0.7,0-1.1,0.3-1.3,0.7c-0.2,0.4-0.3,0.9-0.3,1.3V60h-1.8V52.3z"/>
	<path class="st2" d="M375.7,56.8c0.1,1.2,1.2,1.9,2.2,1.9c0.9,0,1.5-0.4,1.8-1h1.9c-0.4,0.9-0.9,1.5-1.6,1.9
		c-0.6,0.4-1.4,0.7-2.2,0.7c-2.4,0-4.1-1.9-4.1-4.1c0-2.2,1.7-4.1,4-4.1c1.1,0,2.2,0.4,2.9,1.2c0.9,1,1.3,2.2,1.1,3.5H375.7z
		 M380.1,55.4c-0.1-0.7-0.8-1.8-2.2-1.7c-1.4,0-2.1,1-2.2,1.7H380.1z"/>
	<path class="st2" d="M386.8,52.3h1.9l1.5,5.4l1.5-5.1h1.6l1.5,5.1l1.5-5.4h1.9l-2.5,7.7h-1.7l-1.5-5.2l-1.5,5.2h-1.7L386.8,52.3z"
		/>
	<path class="st2" d="M399.1,49.6h1.8v1.6h-1.8V49.6z M399.1,52.3h1.8V60h-1.8V52.3z"/>
	<path class="st2" d="M403.3,53.7H402v-1.4h1.3v-2.7h1.8v2.7h1.3v1.4h-1.3V60h-1.8V53.7z"/>
	<path class="st2" d="M407.5,49.6h1.8v2.5v1.1c0.4-0.8,1.4-1.2,2.3-1.1c1.2,0,1.9,0.4,2.4,1.1c0.5,0.7,0.6,1.6,0.6,2.6V60h-1.8v-4.1
		c0-0.6-0.1-1.1-0.4-1.5c-0.3-0.4-0.7-0.6-1.3-0.6c-0.7,0-1.2,0.3-1.4,0.7c-0.3,0.4-0.3,0.8-0.3,1.2V60h-1.8V49.6z"/>
	<path class="st2" d="M421.5,60h-2.3l4.2-10.4h1.8l4.1,10.4h-2.3l-0.8-2h-4.1L421.5,60z M424.3,52.1l-1.5,4.2h3L424.3,52.1z"/>
	<path class="st2" d="M430.4,49.6h3.1c1.6,0,2.5,0.3,3.1,0.7c0.9,0.6,1.3,1.7,1.3,2.8c0,0.8-0.2,1.4-0.6,1.9c-0.4,0.7-1,1-1.7,1.1
		L438,60h-2.2l-2.8-4.8h0.4c0.7,0,1.4,0,1.9-0.4c0.4-0.3,0.7-0.9,0.7-1.5c0-0.6-0.3-1.2-0.8-1.5c-0.4-0.2-0.9-0.3-1.5-0.3h-1.2V60
		h-2.1V49.6z"/>
	<path class="st2" d="M451.3,59.1c0,1.3-0.2,2.1-0.7,2.7c-0.7,0.9-1.9,1.6-3.5,1.6c-2.4,0-3.5-1.4-3.8-2.6h2.1
		c0.2,0.4,0.5,0.6,0.8,0.8c0.4,0.2,0.8,0.3,1,0.3c1.1,0,2.3-0.8,2.3-2.3v-0.6c-0.4,0.7-1.2,1.4-2.5,1.4c-2.2,0-3.9-1.7-3.9-4
		c0-2.5,1.8-4.1,3.9-4.1c1.1,0,2.1,0.5,2.5,1.3v-1h1.8V59.1z M444.8,56.1c0,1.3,1,2.4,2.3,2.4c0.7,0,1.2-0.2,1.6-0.7
		c0.4-0.4,0.6-1,0.7-1.6c0-0.6-0.2-1.2-0.6-1.7c-0.4-0.5-0.9-0.8-1.7-0.8C445.9,53.8,444.8,54.8,444.8,56.1L444.8,56.1z"/>
	<path class="st2" d="M452.6,56.1c0-2,1.4-4,4.1-4c2.7,0,4.1,2.1,4.1,4.1c0,2-1.4,4.1-4.1,4.1C454.1,60.2,452.6,58.1,452.6,56.1
		L452.6,56.1z M454.5,56.2c0,1.3,1,2.3,2.3,2.3s2.3-1,2.3-2.4c0-1.4-1-2.4-2.3-2.4S454.5,54.8,454.5,56.2L454.5,56.2z"/>
	<path class="st2" d="M470.1,59.1c0,1.3-0.2,2.1-0.7,2.7c-0.7,0.9-1.9,1.6-3.5,1.6c-2.4,0-3.5-1.4-3.8-2.6h2.1
		c0.2,0.4,0.5,0.6,0.8,0.8c0.4,0.2,0.8,0.3,1,0.3c1.1,0,2.3-0.8,2.3-2.3v-0.6c-0.4,0.7-1.2,1.4-2.5,1.4c-2.2,0-3.9-1.7-3.9-4
		c0-2.5,1.8-4.1,3.9-4.1c1.1,0,2.1,0.5,2.5,1.3v-1h1.8V59.1z M463.7,56.1c0,1.3,1,2.4,2.3,2.4c0.7,0,1.2-0.2,1.6-0.7
		c0.4-0.4,0.6-1,0.7-1.6c0-0.6-0.2-1.2-0.6-1.7c-0.4-0.5-0.9-0.8-1.7-0.8C464.8,53.8,463.7,54.8,463.7,56.1L463.7,56.1z"/>
	<path class="st2" d="M479.8,59.1c0,1.3-0.2,2.1-0.7,2.7c-0.7,0.9-1.9,1.6-3.5,1.6c-2.4,0-3.5-1.4-3.8-2.6h2.1
		c0.2,0.4,0.5,0.6,0.8,0.8c0.4,0.2,0.8,0.3,1,0.3c1.1,0,2.3-0.8,2.3-2.3v-0.6c-0.4,0.7-1.2,1.4-2.5,1.4c-2.2,0-3.9-1.7-3.9-4
		c0-2.5,1.8-4.1,3.9-4.1c1.1,0,2.1,0.5,2.5,1.3v-1h1.8V59.1z M473.3,56.1c0,1.3,1,2.4,2.3,2.4c0.7,0,1.2-0.2,1.6-0.7
		c0.4-0.4,0.6-1,0.7-1.6c0-0.6-0.2-1.2-0.6-1.7c-0.4-0.5-0.9-0.8-1.7-0.8C474.4,53.8,473.3,54.8,473.3,56.1L473.3,56.1z"/>
	<path class="st2" d="M481.5,49.6h1.8V60h-1.8V49.6z"/>
	<path class="st2" d="M486.5,56.8c0.1,1.2,1.2,1.9,2.2,1.9c0.9,0,1.5-0.4,1.8-1h1.9c-0.4,0.9-0.9,1.5-1.6,1.9
		c-0.6,0.4-1.4,0.7-2.2,0.7c-2.4,0-4.1-1.9-4.1-4.1c0-2.2,1.7-4.1,4-4.1c1.1,0,2.2,0.4,2.9,1.2c0.9,1,1.3,2.2,1.1,3.5H486.5z
		 M490.9,55.4c-0.1-0.7-0.8-1.8-2.2-1.7c-1.4,0-2.1,1-2.2,1.7H490.9z"/>
</g>
<circle id="Oval_1_" class="st3" cx="400.5" cy="21" r="18.5"/>
<g class="st1">
	<path class="st2" d="M395,25.4c1.6-1.4,3.2-2.8,4.8-4.3c1.6-1.4,2.9-2.6,2.9-4.4c0-1.6-1-2.4-2.4-2.4c-1.6,0-2.2,1.4-2.3,3.1H395
		c0-1.3,0.2-2.6,1.1-3.8c1.3-1.8,3.4-2.2,4.6-2.2c3.4,0,5.3,2.4,5.3,5c0,1.9-0.7,3.2-2.6,5.1c-1.3,1.2-2.6,2.5-3.9,3.7h6.6V28H395
		V25.4z"/>
</g>
<g class="st1">
	<path class="st2" d="M2.5,56.6c0.1,1.4,1,1.7,1.5,1.7c0.8,0,1.4-0.6,1.4-1.4c0-0.9-0.7-1.1-2.2-1.7c-0.8-0.3-2.6-0.9-2.6-2.9
		c0-2,1.8-3.1,3.4-3.1c1.4,0,3.2,0.7,3.3,3H5.3C5.2,51.8,5,51,4,51c-0.7,0-1.3,0.5-1.3,1.2c0,0.8,0.5,1,2.3,1.7
		c1.6,0.7,2.5,1.4,2.5,2.9c0,1.7-1,3.2-3.5,3.2c-2.4,0-3.6-1.4-3.6-3.4H2.5z"/>
	<path class="st2" d="M10.1,56.6c0.1,1.2,1.2,1.9,2.2,1.9c0.9,0,1.5-0.4,1.8-1h1.9c-0.4,0.9-0.9,1.5-1.6,1.9
		c-0.6,0.4-1.4,0.7-2.2,0.7C10,60,8.3,58.1,8.3,56c0-2.2,1.7-4.1,4-4.1c1.1,0,2.2,0.4,2.9,1.2c0.9,1,1.3,2.2,1.1,3.5H10.1z
		 M14.5,55.2c-0.1-0.7-0.8-1.8-2.2-1.7c-1.4,0-2.1,1-2.2,1.7H14.5z"/>
	<path class="st2" d="M25.6,59.8h-1.8v-1.1c-0.5,0.9-1.5,1.3-2.6,1.3c-2.5,0-3.9-1.9-3.9-4.1c0-2.4,1.8-4.1,3.9-4.1
		c1.4,0,2.3,0.7,2.6,1.4v-1.1h1.8V59.8z M19.1,56c0,1,0.7,2.3,2.3,2.3c1,0,1.7-0.5,2-1.2c0.2-0.3,0.3-0.7,0.3-1.1
		c0-0.4-0.1-0.7-0.2-1.1c-0.3-0.7-1-1.4-2.1-1.4C20,53.6,19.1,54.8,19.1,56L19.1,56z"/>
	<path class="st2" d="M27.4,52.1h1.7v1c0.3-0.7,1-1.2,2.1-1.2v1.8h-0.1c-1.3,0-1.9,0.6-1.9,1.9v4.1h-1.8V52.1z"/>
	<path class="st2" d="M39.6,57c-0.4,1.7-2,3-4,3c-2.4,0-4.1-1.9-4.1-4.1c0-2.3,1.8-4.1,4-4.1c1.9,0,3.6,1.2,4,3.1h-1.9
		c-0.3-0.8-1.1-1.4-2.1-1.4c-0.7,0-1.2,0.2-1.6,0.7c-0.4,0.4-0.6,1-0.6,1.7c0,1.4,1,2.4,2.3,2.4c1.1,0,1.8-0.7,2.1-1.3H39.6z"/>
	<path class="st2" d="M40.8,49.4h1.8v2.5V53c0.4-0.8,1.4-1.2,2.3-1.1c1.2,0,1.9,0.4,2.4,1.1c0.5,0.7,0.6,1.6,0.6,2.6v4.2h-1.8v-4.1
		c0-0.6-0.1-1.1-0.4-1.5c-0.3-0.4-0.7-0.6-1.3-0.6c-0.7,0-1.2,0.3-1.4,0.7c-0.3,0.4-0.3,0.8-0.3,1.2v4.3h-1.8V49.4z"/>
	<path class="st2" d="M61.9,59.8H60v-1.1c-0.5,0.9-1.5,1.3-2.6,1.3c-2.5,0-3.9-1.9-3.9-4.1c0-2.4,1.8-4.1,3.9-4.1
		c1.4,0,2.3,0.7,2.6,1.4v-1.1h1.8V59.8z M55.4,56c0,1,0.7,2.3,2.3,2.3c1,0,1.7-0.5,2-1.2c0.2-0.3,0.3-0.7,0.3-1.1
		c0-0.4-0.1-0.7-0.2-1.1c-0.3-0.7-1-1.4-2.1-1.4C56.2,53.6,55.4,54.8,55.4,56L55.4,56z"/>
	<path class="st2" d="M63.7,52.1h1.7c0,0.3,0,0.7,0,1c0.3-0.6,1-1.3,2.4-1.3c2.5,0,3,1.9,3,3.3v4.6h-1.8v-4.2c0-1.1-0.4-2-1.7-2
		c-1.3,0-1.8,0.9-1.8,2v4.2h-1.8V52.1z"/>
	<path class="st2" d="M80.4,59.8h-1.8v-1.1C78.3,59.3,77.6,60,76,60c-2.4,0-3.9-1.8-3.9-4.1c0-2.5,1.8-4.1,3.9-4.1
		c1.5,0,2.3,0.8,2.6,1.2V52v-2.5h1.8V59.8z M74,55.9c0,1.3,0.9,2.4,2.4,2.4c0.7,0,1.3-0.3,1.7-0.7c0.4-0.4,0.7-1,0.7-1.7
		c0-0.7-0.3-1.2-0.7-1.7c-0.4-0.4-1-0.7-1.7-0.7C74.8,53.6,74,54.7,74,55.9L74,55.9z"/>
	<path class="st2" d="M88.6,59.7c0,1.6-0.3,2.9-2.6,3h-0.5v-1.4h0.3c0.9-0.1,1-0.8,1-1.5v-7.6h1.8V59.7z M86.8,49.4h1.8v1.6h-1.8
		V49.4z"/>
	<path class="st2" d="M90.2,55.9c0-2,1.4-4,4.1-4s4.1,2.1,4.1,4.1c0,2-1.4,4.1-4.1,4.1S90.2,57.9,90.2,55.9L90.2,55.9z M92,56
		c0,1.3,1,2.3,2.3,2.3s2.3-1,2.3-2.4c0-1.4-1-2.4-2.3-2.4S92,54.6,92,56L92,56z"/>
	<path class="st2" d="M99.8,49.4h1.8v1.6h-1.8V49.4z M99.8,52.1h1.8v7.7h-1.8V52.1z"/>
	<path class="st2" d="M103.5,52.1h1.7c0,0.3,0,0.7,0,1c0.3-0.6,1-1.3,2.4-1.3c2.5,0,3,1.9,3,3.3v4.6h-1.8v-4.2c0-1.1-0.4-2-1.7-2
		c-1.3,0-1.8,0.9-1.8,2v4.2h-1.8V52.1z"/>
	<path class="st2" d="M124.4,58.9c0,1.3-0.2,2.1-0.7,2.7c-0.7,0.9-1.9,1.6-3.5,1.6c-2.4,0-3.5-1.4-3.8-2.6h2.1
		c0.2,0.4,0.5,0.6,0.8,0.8c0.4,0.2,0.8,0.3,1,0.3c1.1,0,2.3-0.8,2.3-2.3v-0.6c-0.4,0.7-1.2,1.4-2.5,1.4c-2.2,0-3.9-1.7-3.9-4
		c0-2.5,1.8-4.1,3.9-4.1c1.1,0,2.1,0.5,2.5,1.3v-1h1.8V58.9z M118,55.9c0,1.3,1,2.4,2.3,2.4c0.7,0,1.2-0.2,1.6-0.7
		c0.4-0.4,0.6-1,0.7-1.6c0-0.6-0.2-1.2-0.6-1.7c-0.4-0.5-0.9-0.8-1.7-0.8C119,53.6,118,54.6,118,55.9L118,55.9z"/>
	<path class="st2" d="M134.1,59.8h-1.8v-1.1c-0.5,0.9-1.5,1.3-2.6,1.3c-2.5,0-3.9-1.9-3.9-4.1c0-2.4,1.8-4.1,3.9-4.1
		c1.4,0,2.3,0.7,2.6,1.4v-1.1h1.8V59.8z M127.6,56c0,1,0.7,2.3,2.3,2.3c1,0,1.7-0.5,2-1.2c0.2-0.3,0.3-0.7,0.3-1.1
		c0-0.4-0.1-0.7-0.2-1.1c-0.3-0.7-1-1.4-2.1-1.4C128.5,53.6,127.6,54.8,127.6,56L127.6,56z"/>
	<path class="st2" d="M135.9,52.1h1.7v1c0.2-0.4,0.9-1.2,2.2-1.2c0.6,0,1.3,0.2,1.9,0.8c0.2,0.2,0.4,0.5,0.5,0.7
		c0.1-0.2,0.3-0.5,0.6-0.7c0.5-0.4,1.1-0.8,2-0.8c0.6,0,1.5,0.2,2,0.8c0.7,0.7,0.8,1.4,0.8,2.9v4.2h-1.8v-4.1c0-0.5,0-1-0.3-1.4
		c-0.2-0.4-0.6-0.6-1.2-0.6c-0.6,0-1.1,0.3-1.3,0.7c-0.2,0.4-0.3,0.8-0.3,1.3v4.2h-1.8v-4.2c0-0.4,0-0.9-0.2-1.3
		c-0.2-0.4-0.6-0.7-1.3-0.7c-0.7,0-1.1,0.3-1.3,0.7c-0.2,0.4-0.3,0.9-0.3,1.3v4.2h-1.8V52.1z"/>
	<path class="st2" d="M150.8,56.6c0.1,1.2,1.2,1.9,2.2,1.9c0.9,0,1.5-0.4,1.8-1h1.9c-0.4,0.9-0.9,1.5-1.6,1.9
		c-0.6,0.4-1.4,0.7-2.2,0.7c-2.4,0-4.1-1.9-4.1-4.1c0-2.2,1.7-4.1,4-4.1c1.1,0,2.2,0.4,2.9,1.2c0.9,1,1.3,2.2,1.1,3.5H150.8z
		 M155.2,55.2c-0.1-0.7-0.8-1.8-2.2-1.7c-1.4,0-2.1,1-2.2,1.7H155.2z"/>
</g>
<circle id="Oval_2_" class="st3" cx="79" cy="20" r="18.5"/>
<g class="st1">
	<path class="st2" d="M77.6,14.1h-2.9v-2.8h6.2v16.3h-3.3V14.1z"/>
</g>
</svg>
