<?xml version="1.0" encoding="utf-8"?>
<!-- Generator: Adobe Illustrator 24.0.0, SVG Export Plug-In . SVG Version: 6.00 Build 0)  -->
<svg version="1.1" id="Layer_1" xmlns="http://www.w3.org/2000/svg" xmlns:xlink="http://www.w3.org/1999/xlink" x="0px" y="0px"
	 viewBox="0 0 888 612" style="enable-background:new 0 0 888 612;" xml:space="preserve">
<style type="text/css">
	.st0{fill:none;stroke:#000000;stroke-miterlimit:10;}
	.st1{fill:#FFFFFF;}
	.st2{fill:none;}
	.st3{enable-background:new    ;}
</style>
<g>
	<g>
		<line class="st0" x1="123.9" y1="50.4" x2="171.1" y2="50.4"/>
		<g>
			<polygon points="169.7,55.4 178.3,50.4 169.7,45.4 			"/>
		</g>
	</g>
</g>
<g>
	<g>
		<line class="st0" x1="302.3" y1="50.4" x2="349.5" y2="50.4"/>
		<g>
			<polygon points="348.1,55.4 356.7,50.4 348.1,45.4 			"/>
		</g>
	</g>
</g>
<g>
	<g>
		<line class="st0" x1="480.5" y1="50.4" x2="527.7" y2="50.4"/>
		<g>
			<polygon points="526.2,55.4 534.8,50.4 526.2,45.4 			"/>
		</g>
	</g>
</g>
<g>
	<g>
		<line class="st0" x1="330.7" y1="431.3" x2="375.1" y2="431.3"/>
		<g>
			<polygon points="373.7,436.3 382.3,431.3 373.7,426.3 			"/>
		</g>
	</g>
</g>
<g>
	<g>
		<line class="st0" x1="153.8" y1="430.9" x2="183.7" y2="430.9"/>
		<g>
			<polygon points="182.2,435.9 190.8,430.9 182.2,425.9 			"/>
		</g>
	</g>
</g>
<g>
	<g>
		<line class="st0" x1="522.2" y1="431.3" x2="567.6" y2="431.3"/>
		<g>
			<polygon points="566.1,436.3 574.7,431.3 566.1,426.3 			"/>
		</g>
	</g>
</g>
<g>
	<g>
		<line class="st0" x1="693" y1="431.3" x2="722.8" y2="431.3"/>
		<g>
			<polygon points="721.4,436.3 730,431.3 721.4,426.3 			"/>
		</g>
	</g>
</g>
<g>
	<polyline class="st1" points="262,383 262,356.3 310,356.3 310,261 	"/>
	<g>
		<polyline class="st0" points="262,383 262,356.3 310,356.3 310,268.2 		"/>
		<g>
			<polygon points="315,269.6 310,261 305,269.6 			"/>
		</g>
	</g>
</g>
<g>
	<g>
		<polyline class="st0" points="454,482 454,496.5 615.5,496.5 615.5,538.9 		"/>
		<g>
			<polygon points="610.5,537.5 615.5,546.1 620.5,537.5 			"/>
		</g>
	</g>
</g>
<g>
	<g>
		<polyline class="st0" points="795.5,463.9 795.5,496.5 637.6,496.5 637.6,538.9 		"/>
		<g>
			<polygon points="632.6,537.5 637.6,546.1 642.5,537.5 			"/>
		</g>
	</g>
</g>
<g>
	<g>
		<polyline class="st0" points="810,50.4 887.5,50.4 887.5,228.6 529.2,229.7 		"/>
		<g>
			<polygon points="530.6,224.7 522,229.7 530.7,234.7 			"/>
		</g>
	</g>
</g>
<g>
	<g>
		<line class="st0" x1="394.4" y1="228.6" x2="366.4" y2="228.6"/>
		<g>
			<polygon points="367.9,223.6 359.2,228.6 367.9,233.6 			"/>
		</g>
	</g>
</g>
<g>
	<g>
		<line class="st0" x1="233.8" y1="228.6" x2="205.8" y2="228.6"/>
		<g>
			<polygon points="207.3,223.6 198.7,228.6 207.3,233.6 			"/>
		</g>
	</g>
</g>
<g>
	<g>
		<polyline class="st0" points="35.3,228.6 0.6,228.6 0.6,428.5 28.1,428.5 		"/>
		<g>
			<polygon points="26.7,433.4 35.3,428.5 26.7,423.5 			"/>
		</g>
	</g>
</g>
<g>
	<g>
		<line class="st0" x1="658.6" y1="50.8" x2="691.8" y2="50.8"/>
		<g>
			<polygon points="690.4,55.8 699,50.8 690.4,45.8 			"/>
		</g>
	</g>
</g>
<polyline class="st0" points="770,101 770,156.3 707,156.3 "/>
<polyline class="st0" points="576.3,156 556,156 556,228.6 "/>
<g>
	<g>
		<polyline class="st0" points="844.2,430.6 887.5,430.6 887.5,579.4 851.4,579.4 		"/>
		<g>
			<polygon points="852.9,574.4 844.2,579.4 852.9,584.4 			"/>
		</g>
	</g>
</g>
<g>
	<path class="st1" d="M33.6,82.8c-17.9,0-32.5-14.6-32.5-32.5s14.6-32.5,32.5-32.5h57.7c17.9,0,32.5,14.6,32.5,32.5
		s-14.6,32.5-32.5,32.5H33.6z"/>
	<path d="M91.2,18.4c17.6,0,32,14.3,32,32s-14.3,32-32,32H33.6c-17.6,0-32-14.3-32-32c0-17.6,14.3-32,32-32L91.2,18.4 M91.2,17.4
		H33.6c-18.2,0-33,14.8-33,33l0,0c0,18.2,14.8,33,33,33h57.7c18.2,0,33-14.8,33-33l0,0C124.2,32.2,109.4,17.4,91.2,17.4L91.2,17.4z"
		/>
</g>
<g>
	<path class="st1" d="M427.4,260.7c-17.9,0-32.5-14.6-32.5-32.5s14.6-32.5,32.5-32.5H489c17.9,0,32.5,14.6,32.5,32.5
		s-14.6,32.5-32.5,32.5H427.4z"/>
	<path d="M489,196.3c17.6,0,32,14.3,32,32c0,17.6-14.3,32-32,32h-61.6c-17.6,0-32-14.3-32-32s14.3-32,32-32L489,196.3 M489,195.3
		h-61.6c-18.2,0-33,14.8-33,33l0,0c0,18.2,14.8,33,33,33H489c18.2,0,33-14.8,33-33l0,0C522,210,507.2,195.3,489,195.3L489,195.3z"/>
</g>
<g>
	<path class="st1" d="M266.8,260.7c-17.9,0-32.5-14.6-32.5-32.5s14.6-32.5,32.5-32.5h61.6c17.9,0,32.5,14.6,32.5,32.5
		s-14.6,32.5-32.5,32.5H266.8z"/>
	<path d="M328.4,196.3c17.6,0,32,14.3,32,32c0,17.6-14.3,32-32,32h-61.6c-17.6,0-32-14.3-32-32s14.3-32,32-32L328.4,196.3
		 M328.4,195.3h-61.6c-18.2,0-33,14.8-33,33l0,0c0,18.2,14.8,33,33,33h61.6c18.2,0,33-14.8,33-33l0,0
		C361.4,210,346.6,195.3,328.4,195.3L328.4,195.3z"/>
</g>
<g>
	<path class="st1" d="M68,260.7c-17.9,0-32.5-14.6-32.5-32.5s14.6-32.5,32.5-32.5h96.6c17.9,0,32.5,14.6,32.5,32.5
		s-14.6,32.5-32.5,32.5H68z"/>
	<path d="M164.6,196.3c17.6,0,32,14.3,32,32c0,17.6-14.3,32-32,32H68c-17.6,0-32-14.3-32-32c0-17.6,14.3-32,32-32L164.6,196.3
		 M164.6,195.3H68c-18.2,0-33,14.8-33,33l0,0c0,18.2,14.8,33,33,33h96.6c18.2,0,33-14.8,33-33l0,0
		C197.5,210,182.8,195.3,164.6,195.3L164.6,195.3z"/>
</g>
<g>
	<path class="st1" d="M211.5,82.8c-17.9,0-32.5-14.6-32.5-32.5s14.6-32.5,32.5-32.5h57.7c17.9,0,32.5,14.6,32.5,32.5
		S287,82.8,269.1,82.8H211.5z"/>
	<path d="M269.1,18.4c17.6,0,32,14.3,32,32s-14.3,32-32,32h-57.7c-17.6,0-32-14.3-32-32c0-17.6,14.3-32,32-32L269.1,18.4
		 M269.1,17.4h-57.7c-18.2,0-33,14.8-33,33l0,0c0,18.2,14.8,33,33,33h57.7c18.2,0,33-14.8,33-33l0,0
		C302.1,32.2,287.3,17.4,269.1,17.4L269.1,17.4z"/>
</g>
<g>
	<path class="st1" d="M68.1,460.5c-17.9,0-32.5-14.6-32.5-32.5s14.6-32.5,32.5-32.5h52.5c17.9,0,32.5,14.6,32.5,32.5
		s-14.6,32.5-32.5,32.5H68.1z"/>
	<path d="M120.6,396.1c17.6,0,32,14.3,32,32c0,17.6-14.3,32-32,32H68.1c-17.6,0-32-14.3-32-32s14.3-32,32-32H120.6 M120.6,395.1
		H68.1c-18.2,0-33,14.8-33,33l0,0c0,18.2,14.8,33,33,33h52.5c18.2,0,33-14.8,33-33l0,0C153.5,409.9,138.8,395.1,120.6,395.1
		L120.6,395.1z"/>
</g>
<g>
	<path class="st1" d="M389.9,82.8c-17.9,0-32.5-14.6-32.5-32.5s14.6-32.5,32.5-32.5h57.7c17.9,0,32.5,14.6,32.5,32.5
		s-14.6,32.5-32.5,32.5H389.9z"/>
	<path d="M447.5,18.4c17.6,0,32,14.3,32,32s-14.3,32-32,32h-57.7c-17.6,0-32-14.3-32-32c0-17.6,14.3-32,32-32L447.5,18.4
		 M447.5,17.4h-57.7c-18.2,0-33,14.8-33,33l0,0c0,18.2,14.8,33,33,33h57.7c18.2,0,33-14.8,33-33l0,0
		C480.5,32.2,465.7,17.4,447.5,17.4L447.5,17.4z"/>
</g>
<g>
	<path class="st1" d="M609,188.4c-17.9,0-32.5-14.6-32.5-32.5s14.6-32.5,32.5-32.5h86c17.9,0,32.5,14.6,32.5,32.5
		s-14.6,32.5-32.5,32.5H609z"/>
	<path d="M695,124c17.6,0,32,14.3,32,32s-14.3,32-32,32h-86c-17.6,0-32-14.3-32-32c0-17.6,14.3-32,32-32H695 M695,123h-86
		c-18.2,0-33,14.8-33,33l0,0c0,18.2,14.8,33,33,33h86c18.2,0,33-14.8,33-33l0,0C728,137.8,713.2,123,695,123L695,123z"/>
</g>
<g>
	<path class="st1" d="M758.6,611.5c-17.9,0-32.5-14.6-32.5-32.5s14.6-32.5,32.5-32.5h52.5c17.9,0,32.5,14.6,32.5,32.5
		s-14.6,32.5-32.5,32.5H758.6z"/>
	<path d="M811.1,547.1c17.6,0,32,14.3,32,32s-14.3,32-32,32h-52.5c-17.6,0-32-14.3-32-32c0-17.6,14.3-32,32-32H811.1 M811.1,546.1
		h-52.5c-18.2,0-33,14.8-33,33l0,0c0,18.2,14.8,33,33,33h52.5c18.2,0,33-14.8,33-33l0,0C844,560.8,829.3,546.1,811.1,546.1
		L811.1,546.1z"/>
</g>
<g>
	<path class="st1" d="M598.6,611.5c-17.9,0-32.5-14.6-32.5-32.5s14.6-32.5,32.5-32.5h52.5c17.9,0,32.5,14.6,32.5,32.5
		s-14.6,32.5-32.5,32.5H598.6z"/>
	<path d="M651.1,547.1c17.6,0,32,14.3,32,32s-14.3,32-32,32h-52.5c-17.6,0-32-14.3-32-32c0-17.6,14.3-32,32-32H651.1 M651.1,546.1
		h-52.5c-18.2,0-33,14.8-33,33l0,0c0,18.2,14.8,33,33,33h52.5c18.2,0,33-14.8,33-33l0,0C684.1,560.8,669.3,546.1,651.1,546.1
		L651.1,546.1z"/>
</g>
<g>
	<path class="st1" d="M385.8,611.5c-17.9,0-32.5-14.6-32.5-32.5s14.6-32.5,32.5-32.5h105.8c17.9,0,32.5,14.6,32.5,32.5
		s-14.6,32.5-32.5,32.5H385.8z"/>
	<path d="M491.6,547.1c17.6,0,32,14.3,32,32c0,17.6-14.3,32-32,32H385.8c-17.6,0-32-14.3-32-32c0-17.6,14.3-32,32-32H491.6
		 M491.6,546.1H385.8c-18.2,0-33,14.8-33,33l0,0c0,18.2,14.8,33,33,33h105.8c18.2,0,33-14.8,33-33l0,0
		C524.5,560.8,509.8,546.1,491.6,546.1L491.6,546.1z"/>
</g>
<g>
	<path class="st1" d="M607.5,463.4c-17.9,0-32.5-14.6-32.5-32.5s14.6-32.5,32.5-32.5H660c17.9,0,32.5,14.6,32.5,32.5
		s-14.6,32.5-32.5,32.5H607.5z"/>
	<path d="M660,399c17.6,0,32,14.3,32,32c0,17.6-14.3,32-32,32h-52.5c-17.6,0-32-14.3-32-32s14.3-32,32-32H660 M660,398h-52.5
		c-18.2,0-33,14.8-33,33l0,0c0,18.2,14.8,33,33,33H660c18.2,0,33-14.8,33-33l0,0C693,412.7,678.2,398,660,398L660,398z"/>
</g>
<g>
	<path class="st1" d="M762.8,463.4c-17.9,0-32.5-14.6-32.5-32.5s14.6-32.5,32.5-32.5h52.5c17.9,0,32.5,14.6,32.5,32.5
		s-14.6,32.5-32.5,32.5H762.8z"/>
	<path d="M815.3,399c17.6,0,32,14.3,32,32c0,17.6-14.3,32-32,32h-52.5c-17.6,0-32-14.3-32-32s14.3-32,32-32H815.3 M815.3,398h-52.5
		c-18.2,0-33,14.8-33,33l0,0c0,18.2,14.8,33,33,33h52.5c18.2,0,33-14.8,33-33l0,0C848.2,412.7,833.5,398,815.3,398L815.3,398z"/>
</g>
<g>
	<path class="st1" d="M568,82.8c-17.9,0-32.5-14.6-32.5-32.5s14.6-32.5,32.5-32.5h57.7c17.9,0,32.5,14.6,32.5,32.5
		s-14.6,32.5-32.5,32.5H568z"/>
	<path d="M625.7,18.4c17.6,0,32,14.3,32,32s-14.3,32-32,32H568c-17.6,0-32-14.3-32-32c0-17.6,14.3-32,32-32L625.7,18.4 M625.7,17.4
		H568c-18.2,0-33,14.8-33,33l0,0c0,18.2,14.8,33,33,33h57.7c18.2,0,33-14.8,33-33l0,0C658.6,32.2,643.9,17.4,625.7,17.4L625.7,17.4z
		"/>
</g>
<g>
	<polygon class="st1" points="191.7,431.2 261.4,381.2 331.5,431.4 261.7,481.3 	"/>
	<path d="M261.4,381.8l69.2,49.5l-68.9,49.3l-69.2-49.5L261.4,381.8 M261.4,380.6l-70.6,50.6l70.9,50.8l70.6-50.6L261.4,380.6
		L261.4,380.6z"/>
</g>
<g>
	<polygon class="st1" points="382.8,431.2 452.6,381.2 522.6,431.4 452.8,481.3 	"/>
	<path d="M452.6,381.8l69.2,49.5l-68.9,49.3l-69.2-49.5L452.6,381.8 M452.6,380.6L382,431.2l70.9,50.8l70.6-50.6L452.6,380.6
		L452.6,380.6z"/>
</g>
<g>
	<polygon class="st1" points="700.4,50.6 770.1,0.7 840.1,50.8 770.4,100.8 	"/>
	<path d="M770.1,1.3l69.2,49.5l-68.9,49.3l-69.2-49.5L770.1,1.3 M770.1,0.1l-70.6,50.6l70.9,50.8L841,50.8L770.1,0.1L770.1,0.1z"/>
</g>
<g>
	<line class="st2" x1="726.1" y1="579.4" x2="684.3" y2="579.4"/>
	<g>
		<line class="st0" x1="726.1" y1="579.4" x2="691.5" y2="579.4"/>
		<g>
			<polygon points="692.9,574.4 684.3,579.4 692.9,584.4 			"/>
		</g>
	</g>
</g>
<g>
	<line class="st2" x1="566.3" y1="579.4" x2="524.5" y2="579.4"/>
	<g>
		<line class="st0" x1="566.3" y1="579.4" x2="531.7" y2="579.4"/>
		<g>
			<polygon points="533.2,574.4 524.5,579.4 533.2,584.4 			"/>
		</g>
	</g>
</g>
<g>
	<path class="st1" d="M225.7,611.5c-17.9,0-32.5-14.6-32.5-32.5s14.6-32.5,32.5-32.5h52.5c17.9,0,32.5,14.6,32.5,32.5
		s-14.6,32.5-32.5,32.5H225.7z"/>
	<path d="M278.2,547.1c17.6,0,32,14.3,32,32s-14.3,32-32,32h-52.5c-17.6,0-32-14.3-32-32c0-17.6,14.3-32,32-32H278.2 M278.2,546.1
		h-52.5c-18.2,0-33,14.8-33,33l0,0c0,18.2,14.8,33,33,33h52.5c18.2,0,33-14.8,33-33l0,0C311.2,560.8,296.4,546.1,278.2,546.1
		L278.2,546.1z"/>
</g>
<g>
	<line class="st2" x1="352.9" y1="579.4" x2="311.2" y2="579.4"/>
	<g>
		<line class="st0" x1="352.9" y1="579.4" x2="318.4" y2="579.4"/>
		<g>
			<polygon points="319.8,574.4 311.2,579.4 319.8,584.4 			"/>
		</g>
	</g>
</g>
<rect x="177.7" y="46.3" class="st2" width="124.1" height="28.8"/>
<g class="st3">
	<path d="M197.2,46.3h2.5c1.2,0,2.5,0.3,3.4,1.3c0.7,0.8,1,1.8,1,3c0,2.6-1.5,4.3-4.3,4.3h-2.6V46.3z M198.1,54h1.7
		c2.2,0,3.3-1.3,3.3-3.4c0-1-0.3-1.9-0.8-2.5c-0.5-0.6-1.3-1-2.5-1h-1.7V54z"/>
	<path d="M205,51.7c0-1.7,1.3-3.3,3.3-3.3c2,0,3.3,1.5,3.3,3.3c0,1.7-1.3,3.3-3.3,3.3C206.3,55,205,53.4,205,51.7L205,51.7z
		 M205.9,51.7c0,1.4,1.1,2.5,2.4,2.5c1.4,0,2.4-1.1,2.4-2.5c0-1.4-1.1-2.5-2.4-2.5C206.9,49.2,205.9,50.3,205.9,51.7L205.9,51.7z"/>
	<path d="M211.9,48.6h0.9l1.7,5.1l1.5-4.6h0.7l1.5,4.6l1.7-5.1h0.9l-2.1,6.2h-0.8l-1.5-4.5l-1.4,4.5h-0.8L211.9,48.6z"/>
	<path d="M221.7,48.6h0.8c0,0.3,0,0.7,0,1.1c0.4-0.8,1.2-1.3,2.3-1.3c1.9,0,2.6,1.3,2.6,2.8v3.5h-0.8v-3.4c0-1.3-0.6-2.2-2-2.2
		c-1.3,0-2,0.8-2,2.1v3.5h-0.9V48.6z"/>
	<path d="M229.1,46.3h0.9v8.5h-0.9V46.3z"/>
	<path d="M231.2,51.7c0-1.7,1.3-3.3,3.3-3.3c2,0,3.3,1.5,3.3,3.3c0,1.7-1.3,3.3-3.3,3.3C232.5,55,231.2,53.4,231.2,51.7L231.2,51.7z
		 M232.1,51.7c0,1.4,1.1,2.5,2.4,2.5c1.4,0,2.4-1.1,2.4-2.5c0-1.4-1.1-2.5-2.4-2.5C233.1,49.2,232.1,50.3,232.1,51.7L232.1,51.7z"/>
	<path d="M245.3,54.8h-0.9v-1.3c-0.5,0.9-1.4,1.5-2.5,1.5c-2,0-3.2-1.6-3.2-3.3c0-1.8,1.3-3.3,3.2-3.3c1.3,0,2.2,0.8,2.5,1.5v-1.3
		h0.9V54.8z M239.5,51.7c0,1.1,0.8,2.5,2.5,2.5c1.1,0,1.9-0.6,2.2-1.5c0.1-0.3,0.2-0.6,0.2-1c0-0.3-0.1-0.7-0.2-1
		c-0.3-0.9-1.2-1.5-2.3-1.5C240.6,49.2,239.5,50.3,239.5,51.7L239.5,51.7z"/>
	<path d="M253.2,54.8h-0.8v-1.3c-0.4,0.8-1.3,1.5-2.6,1.5c-2,0-3.2-1.5-3.2-3.3c0-1.8,1.3-3.3,3.2-3.3c1.4,0,2.3,0.8,2.5,1.4v-1.3
		v-2.3h0.9V54.8z M247.4,51.7c0,1.2,0.9,2.5,2.5,2.5c0.7,0,1.3-0.3,1.8-0.7c0.4-0.5,0.7-1.1,0.7-1.8c0-0.7-0.3-1.3-0.7-1.7
		c-0.4-0.4-1.1-0.7-1.8-0.7C248.5,49.2,247.4,50.3,247.4,51.7L247.4,51.7z"/>
	<path d="M264.4,54.8h-0.9v-1.3c-0.5,0.9-1.4,1.5-2.5,1.5c-2,0-3.2-1.6-3.2-3.3c0-1.8,1.3-3.3,3.2-3.3c1.3,0,2.2,0.8,2.5,1.5v-1.3
		h0.9V54.8z M258.6,51.7c0,1.1,0.8,2.5,2.5,2.5c1.1,0,1.9-0.6,2.2-1.5c0.1-0.3,0.2-0.6,0.2-1c0-0.3-0.1-0.7-0.2-1
		c-0.3-0.9-1.2-1.5-2.3-1.5C259.7,49.2,258.6,50.3,258.6,51.7L258.6,51.7z"/>
	<path d="M266.1,48.6h0.8v1.3c0.5-0.9,1.4-1.5,2.6-1.5c2.1,0,3.2,1.7,3.2,3.3c0,1.7-1.3,3.3-3.2,3.3c-1.4,0-2.3-0.8-2.5-1.4v1.3v2.4
		h-0.9V48.6z M271.8,51.7c0-1.2-0.8-2.5-2.5-2.5c-0.7,0-1.3,0.3-1.8,0.7c-0.4,0.5-0.7,1.1-0.7,1.8c0,0.7,0.3,1.3,0.7,1.8
		c0.4,0.4,1.1,0.7,1.8,0.7C270.7,54.2,271.8,53.1,271.8,51.7L271.8,51.7z"/>
	<path d="M273.9,48.6h0.8v1.3c0.5-0.9,1.4-1.5,2.6-1.5c2.1,0,3.2,1.7,3.2,3.3c0,1.7-1.3,3.3-3.2,3.3c-1.4,0-2.3-0.8-2.5-1.4v1.3v2.4
		h-0.9V48.6z M279.7,51.7c0-1.2-0.8-2.5-2.5-2.5c-0.7,0-1.3,0.3-1.8,0.7c-0.4,0.5-0.7,1.1-0.7,1.8c0,0.7,0.3,1.3,0.7,1.8
		c0.4,0.4,1.1,0.7,1.8,0.7C278.6,54.2,279.7,53.1,279.7,51.7L279.7,51.7z"/>
</g>
<rect x="356.9" y="46.3" class="st2" width="124.1" height="28.8"/>
<g class="st3">
	<path d="M389.2,50.6c0-2.6,2-4.4,4.5-4.4c2.5,0,4.5,1.9,4.5,4.4c0,2.5-1.9,4.4-4.5,4.4C391.1,55,389.2,53,389.2,50.6L389.2,50.6z
		 M390.1,50.5c0,2,1.5,3.6,3.5,3.6c2,0,3.5-1.6,3.5-3.6c0-1.9-1.5-3.6-3.5-3.6C391.6,47,390.1,48.6,390.1,50.5L390.1,50.5z"/>
	<path d="M399.3,48.6h0.8v1.3c0.5-0.9,1.4-1.5,2.6-1.5c2.1,0,3.2,1.7,3.2,3.3c0,1.7-1.3,3.3-3.2,3.3c-1.4,0-2.3-0.8-2.5-1.4v1.3v2.4
		h-0.9V48.6z M405.1,51.7c0-1.2-0.8-2.5-2.5-2.5c-0.7,0-1.3,0.3-1.8,0.7c-0.4,0.5-0.7,1.1-0.7,1.8c0,0.7,0.3,1.3,0.7,1.8
		c0.4,0.4,1.1,0.7,1.8,0.7C404,54.2,405.1,53.1,405.1,51.7L405.1,51.7z"/>
	<path d="M407.6,51.9c0,1.6,1.4,2.3,2.4,2.3c1,0,1.7-0.5,2.1-1.3h0.9c-0.3,0.7-0.7,1.2-1.3,1.5c-0.5,0.3-1.1,0.5-1.8,0.5
		c-2.2,0-3.3-1.7-3.3-3.3c0-1.8,1.4-3.3,3.3-3.3c0.9,0,1.7,0.3,2.3,0.9c0.7,0.7,1.1,1.7,1,2.6H407.6z M412.4,51.3
		c-0.1-1.1-1.1-2.1-2.4-2.1c-1.3,0-2.3,1-2.4,2.1H412.4z"/>
	<path d="M414.5,48.6h0.8c0,0.3,0,0.7,0,1.1c0.4-0.8,1.2-1.3,2.3-1.3c1.9,0,2.6,1.3,2.6,2.8v3.5h-0.8v-3.4c0-1.3-0.6-2.2-2-2.2
		c-1.3,0-2,0.8-2,2.1v3.5h-0.9V48.6z"/>
	<path d="M431.4,54.8h-0.9v-1.3c-0.5,0.9-1.4,1.5-2.5,1.5c-2,0-3.2-1.6-3.2-3.3c0-1.8,1.3-3.3,3.2-3.3c1.3,0,2.2,0.8,2.5,1.5v-1.3
		h0.9V54.8z M425.6,51.7c0,1.1,0.8,2.5,2.5,2.5c1.1,0,1.9-0.6,2.2-1.5c0.1-0.3,0.2-0.6,0.2-1c0-0.3-0.1-0.7-0.2-1
		c-0.3-0.9-1.2-1.5-2.3-1.5C426.6,49.2,425.6,50.3,425.6,51.7L425.6,51.7z"/>
	<path d="M433,48.6h0.8v1.3c0.5-0.9,1.4-1.5,2.6-1.5c2.1,0,3.2,1.7,3.2,3.3c0,1.7-1.3,3.3-3.2,3.3c-1.4,0-2.3-0.8-2.5-1.4v1.3v2.4
		H433V48.6z M438.8,51.7c0-1.2-0.8-2.5-2.5-2.5c-0.7,0-1.3,0.3-1.8,0.7c-0.4,0.5-0.7,1.1-0.7,1.8c0,0.7,0.3,1.3,0.7,1.8
		c0.4,0.4,1.1,0.7,1.8,0.7C437.7,54.2,438.8,53.1,438.8,51.7L438.8,51.7z"/>
	<path d="M440.9,48.6h0.8v1.3c0.5-0.9,1.4-1.5,2.6-1.5c2.1,0,3.2,1.7,3.2,3.3c0,1.7-1.3,3.3-3.2,3.3c-1.4,0-2.3-0.8-2.5-1.4v1.3v2.4
		h-0.9V48.6z M446.7,51.7c0-1.2-0.8-2.5-2.5-2.5c-0.7,0-1.3,0.3-1.8,0.7c-0.4,0.5-0.7,1.1-0.7,1.8c0,0.7,0.3,1.3,0.7,1.8
		c0.4,0.4,1.1,0.7,1.8,0.7C445.6,54.2,446.7,53.1,446.7,51.7L446.7,51.7z"/>
</g>
<rect x="35.7" y="421.2" class="st2" width="117.6" height="28.8"/>
<g class="st3">
	<path d="M66.8,421.2c1.2,0,1.8,0.1,2.3,0.5c0.6,0.4,0.9,1.2,0.9,2c0,0.8-0.4,1.6-0.9,2c-0.6,0.4-1.1,0.6-2.2,0.6h-1.4v3.4h-1v-8.5
		H66.8z M65.5,425.5h1.4c0.7,0,1.2-0.1,1.6-0.4c0.4-0.2,0.6-0.8,0.6-1.4c0-0.6-0.3-1.2-0.6-1.4c-0.4-0.3-0.9-0.4-1.6-0.4h-1.3V425.5
		z"/>
	<path d="M71,421.2h0.9v8.5H71V421.2z"/>
	<path d="M79.7,429.7h-0.9v-1.3c-0.5,0.9-1.4,1.5-2.5,1.5c-2,0-3.2-1.6-3.2-3.3c0-1.8,1.3-3.3,3.2-3.3c1.3,0,2.2,0.8,2.5,1.5v-1.3
		h0.9V429.7z M73.9,426.6c0,1.1,0.8,2.5,2.5,2.5c1.1,0,1.9-0.6,2.2-1.5c0.1-0.3,0.2-0.6,0.2-1c0-0.3-0.1-0.7-0.2-1
		c-0.3-0.9-1.2-1.5-2.3-1.5C75,424.1,73.9,425.2,73.9,426.6L73.9,426.6z"/>
	<path d="M82.9,429.6l-2.4-6.1h0.9l1.9,5l2-5h0.9l-3.5,8.6h-0.9L82.9,429.6z"/>
	<path d="M96.7,429c0,1.2-0.4,1.9-0.9,2.4c-0.6,0.6-1.5,1-2.4,1c-1.5,0-2.7-0.9-3.1-2h1c0.1,0.3,0.4,0.6,0.7,0.8
		c0.4,0.3,1,0.4,1.4,0.4c1.2,0,2.4-0.9,2.4-2.5v-0.8c-0.4,0.9-1.3,1.5-2.5,1.5c-1.9,0-3.2-1.5-3.2-3.3c0-1.9,1.3-3.3,3.2-3.3
		c1.2,0,2.2,0.7,2.5,1.5v-1.3h0.8V429z M91,426.6c0,1.3,0.9,2.5,2.5,2.5c0.7,0,1.3-0.3,1.7-0.7c0.4-0.5,0.7-1.1,0.7-1.8
		c0-0.5-0.2-1.1-0.6-1.6c-0.4-0.5-1-0.9-1.9-0.9C92.1,424.1,91,425.2,91,426.6L91,426.6z"/>
	<path d="M104.6,429.7h-0.9v-1.3c-0.5,0.9-1.4,1.5-2.5,1.5c-2,0-3.2-1.6-3.2-3.3c0-1.8,1.3-3.3,3.2-3.3c1.3,0,2.2,0.8,2.5,1.5v-1.3
		h0.9V429.7z M98.8,426.6c0,1.1,0.8,2.5,2.5,2.5c1.1,0,1.9-0.6,2.2-1.5c0.1-0.3,0.2-0.6,0.2-1c0-0.3-0.1-0.7-0.2-1
		c-0.3-0.9-1.2-1.5-2.3-1.5C99.8,424.1,98.8,425.2,98.8,426.6L98.8,426.6z"/>
	<path d="M106.2,423.5h0.8v1c0.4-0.8,1.3-1.2,2-1.2c0.6,0,1.3,0.2,1.7,0.7c0.2,0.2,0.4,0.6,0.4,0.6c0.1-0.2,0.2-0.4,0.4-0.7
		c0.4-0.4,1-0.7,1.7-0.7c0.6,0,1.2,0.2,1.7,0.6c0.5,0.5,0.7,1.2,0.7,2.3v3.4h-0.9v-3.4c0-0.7-0.1-1.2-0.5-1.7
		c-0.3-0.3-0.6-0.5-1.2-0.5c-0.5,0-1.1,0.2-1.4,0.6c-0.3,0.4-0.4,0.8-0.4,1.5v3.4h-0.9v-3.4c0-0.7-0.1-1.1-0.3-1.5
		c-0.3-0.4-0.7-0.6-1.4-0.7c-0.6,0-1.1,0.3-1.3,0.6c-0.3,0.4-0.4,0.8-0.4,1.5v3.5h-0.9V423.5z"/>
	<path d="M117.6,426.9c0,1.6,1.4,2.3,2.4,2.3c1,0,1.7-0.5,2.1-1.3h0.9c-0.3,0.7-0.7,1.2-1.3,1.5c-0.5,0.3-1.1,0.5-1.8,0.5
		c-2.2,0-3.3-1.7-3.3-3.3c0-1.8,1.4-3.3,3.3-3.3c0.9,0,1.7,0.3,2.3,0.9c0.7,0.7,1.1,1.7,1,2.6H117.6z M122.4,426.2
		c-0.1-1.1-1.1-2.1-2.4-2.1c-1.3,0-2.3,1-2.4,2.1H122.4z"/>
</g>
<rect x="726.1" y="571.8" class="st2" width="117.6" height="28.8"/>
<g class="st3">
	<path d="M766.6,578c0.1,1.4,1.2,1.7,1.7,1.7c0.9,0,1.7-0.7,1.7-1.6c0-1.2-1-1.5-2-1.8c-0.7-0.2-2.2-0.6-2.2-2.3
		c0-1.5,1.2-2.4,2.5-2.4c1.1,0,2.3,0.6,2.4,2.2h-0.9c-0.1-0.6-0.4-1.4-1.5-1.4c-0.9,0-1.6,0.6-1.6,1.5c0,1,0.8,1.3,2.1,1.7
		c0.8,0.3,2.1,0.8,2.1,2.3c0,1.4-1,2.5-2.6,2.5c-1.4,0-2.6-0.9-2.7-2.5H766.6z"/>
	<path d="M778,580.4h-0.8v-1.1c-0.3,0.8-1.2,1.3-2.3,1.3c-1.9,0-2.6-1.3-2.6-2.9v-3.5h0.8v3.4c0,1.3,0.6,2.2,2,2.2
		c1.3,0,2-0.8,2-2.1v-3.5h0.9V580.4z"/>
	<path d="M779.6,571.8h0.9v2.3v1.2c0.5-0.9,1.5-1.4,2.5-1.4c1.8,0,3.2,1.3,3.2,3.3c0,1.9-1.3,3.3-3.2,3.3c-1.2,0-2.1-0.6-2.5-1.5
		v1.3h-0.8V571.8z M785.3,577.2c0-1.4-1.1-2.5-2.5-2.5c-1.4,0-2.5,1.1-2.5,2.5c0,1.3,1,2.5,2.4,2.5
		C784.5,579.7,785.3,578.5,785.3,577.2L785.3,577.2z"/>
	<path d="M787.5,574.2h0.8v1c0.4-0.8,1.3-1.2,2-1.2c0.6,0,1.3,0.2,1.7,0.7c0.2,0.2,0.4,0.6,0.4,0.6c0.1-0.2,0.2-0.4,0.5-0.7
		c0.4-0.4,1-0.7,1.7-0.7c0.6,0,1.2,0.2,1.7,0.6c0.5,0.5,0.7,1.2,0.7,2.3v3.4H796v-3.4c0-0.7-0.1-1.2-0.5-1.7
		c-0.3-0.3-0.6-0.5-1.2-0.5c-0.5,0-1.1,0.2-1.4,0.6c-0.3,0.4-0.4,0.8-0.4,1.5v3.4h-0.9v-3.4c0-0.7-0.1-1.1-0.3-1.5
		c-0.3-0.4-0.7-0.6-1.4-0.7c-0.6,0-1.1,0.3-1.3,0.6c-0.3,0.4-0.4,0.8-0.4,1.5v3.5h-0.9V574.2z"/>
	<path d="M798.5,571.8h0.9v1.2h-0.9V571.8z M798.5,574.2h0.9v6.2h-0.9V574.2z"/>
	<path d="M801.5,574.8h-1.2v-0.7h1.2v-2.3h0.8v2.3h1.4v0.7h-1.4v5.5h-0.8V574.8z"/>
</g>
<rect x="565.9" y="571.8" class="st2" width="117.6" height="28.8"/>
<g class="st3">
	<path d="M600,574c-0.3-0.4-0.6-0.7-1-0.9c-0.6-0.4-1.2-0.6-2-0.6c-1.9,0-3.5,1.4-3.5,3.6c0,2.2,1.6,3.6,3.5,3.6
		c0.9,0,1.7-0.3,2.3-0.8c0.6-0.5,1-1.1,1.2-1.8h-4.2v-0.8h5.4c0,0.5-0.1,1.1-0.4,1.7c-0.7,1.6-2.4,2.5-4.2,2.5
		c-2.5,0-4.5-1.9-4.5-4.4c0-2.6,2-4.4,4.5-4.4c1.7,0,3.3,1,4,2.4H600z"/>
	<path d="M609,580.4h-0.9v-1.3c-0.5,0.9-1.4,1.5-2.5,1.5c-2,0-3.2-1.6-3.2-3.3c0-1.8,1.3-3.3,3.2-3.3c1.3,0,2.2,0.8,2.5,1.5v-1.3
		h0.9V580.4z M603.3,577.3c0,1.1,0.8,2.5,2.5,2.5c1.1,0,1.9-0.6,2.2-1.5c0.1-0.3,0.2-0.6,0.2-1c0-0.3-0.1-0.7-0.2-1
		c-0.3-0.9-1.2-1.5-2.3-1.5C604.3,574.8,603.3,575.9,603.3,577.3L603.3,577.3z"/>
	<path d="M610.7,574.2h0.8v1c0.4-0.8,1.3-1.2,2-1.2c0.6,0,1.3,0.2,1.7,0.7c0.2,0.2,0.4,0.6,0.4,0.6c0.1-0.2,0.2-0.4,0.5-0.7
		c0.4-0.4,1-0.7,1.7-0.7c0.6,0,1.2,0.2,1.7,0.6c0.5,0.5,0.7,1.2,0.7,2.3v3.4h-0.9v-3.4c0-0.7-0.1-1.2-0.5-1.7
		c-0.3-0.3-0.6-0.5-1.2-0.5c-0.5,0-1.1,0.2-1.4,0.6c-0.3,0.4-0.4,0.8-0.4,1.5v3.4H615v-3.4c0-0.7-0.1-1.1-0.3-1.5
		c-0.3-0.4-0.7-0.6-1.4-0.7c-0.6,0-1.1,0.3-1.3,0.6c-0.3,0.4-0.4,0.8-0.4,1.5v3.5h-0.9V574.2z"/>
	<path d="M622.1,577.5c0,1.6,1.4,2.3,2.4,2.3c1,0,1.7-0.5,2.1-1.3h0.9c-0.3,0.7-0.7,1.2-1.3,1.5c-0.5,0.3-1.1,0.5-1.8,0.5
		c-2.2,0-3.3-1.7-3.3-3.3c0-1.8,1.4-3.3,3.3-3.3c0.9,0,1.7,0.3,2.3,0.9c0.7,0.7,1.1,1.7,1,2.6H622.1z M626.9,576.8
		c-0.1-1.1-1.1-2.1-2.4-2.1c-1.3,0-2.3,1-2.4,2.1H626.9z"/>
	<path d="M631.9,577.2c0-1.7,1.3-3.3,3.3-3.3c2,0,3.3,1.5,3.3,3.3c0,1.7-1.3,3.3-3.3,3.3C633.2,580.5,631.9,579,631.9,577.2
		L631.9,577.2z M632.7,577.3c0,1.4,1.1,2.5,2.4,2.5c1.4,0,2.4-1.1,2.4-2.5c0-1.4-1.1-2.5-2.4-2.5
		C633.8,574.8,632.7,575.8,632.7,577.3L632.7,577.3z"/>
	<path d="M642.1,580.4h-0.9l-2.4-6.2h0.9l2,5.2l2-5.2h0.9L642.1,580.4z"/>
	<path d="M645.5,577.5c0,1.6,1.4,2.3,2.4,2.3c1,0,1.7-0.5,2.1-1.3h0.9c-0.3,0.7-0.7,1.2-1.3,1.5c-0.5,0.3-1.1,0.5-1.8,0.5
		c-2.2,0-3.3-1.7-3.3-3.3c0-1.8,1.4-3.3,3.3-3.3c0.9,0,1.7,0.3,2.3,0.9c0.7,0.7,1.1,1.7,1,2.6H645.5z M650.3,576.8
		c-0.1-1.1-1.1-2.1-2.4-2.1c-1.3,0-2.3,1-2.4,2.1H650.3z"/>
	<path d="M652.4,574.2h0.8v1c0.5-0.9,1.3-1.2,2-1.2v0.8h-0.1c-1.2,0-1.9,0.8-1.9,2.2v3.4h-0.8V574.2z"/>
</g>
<rect x="193.1" y="571.8" class="st2" width="117.6" height="28.8"/>
<g class="st3">
	<path d="M230.6,578.1c-0.6,1.3-2,2.4-3.9,2.4c-2.5,0-4.5-2-4.5-4.4c0-2.4,1.9-4.4,4.4-4.4c2.1,0,3.4,1.4,3.9,2.5h-1
		c-0.3-0.5-1.3-1.6-2.9-1.6c-2,0-3.5,1.6-3.5,3.6c0,2,1.5,3.6,3.5,3.6c1.8,0,2.7-1.3,2.9-1.6H230.6z"/>
	<path d="M231.9,571.8h0.9v8.5h-0.9V571.8z"/>
	<path d="M234,577.2c0-1.7,1.3-3.3,3.3-3.3c2,0,3.3,1.5,3.3,3.3c0,1.7-1.3,3.3-3.3,3.3C235.3,580.5,234,579,234,577.2L234,577.2z
		 M234.8,577.3c0,1.4,1.1,2.5,2.4,2.5c1.4,0,2.4-1.1,2.4-2.5c0-1.4-1.1-2.5-2.4-2.5C235.9,574.8,234.8,575.8,234.8,577.3
		L234.8,577.3z"/>
	<path d="M244.6,575.7c0-0.7-0.4-1-1.1-1c-0.7,0-1.1,0.5-1.1,1c0,0.6,0.5,0.8,1.2,1c0.9,0.2,1.9,0.5,1.9,1.8c0,1.1-0.9,2-2.1,2
		c-1,0-2.1-0.6-2.1-1.9h0.8c0,0.9,0.7,1.2,1.3,1.2c0.7,0,1.2-0.5,1.2-1.2c0-0.7-0.5-1-1.6-1.3c-0.9-0.3-1.6-0.6-1.6-1.6
		c0-1.1,0.9-1.8,1.9-1.8c0.9,0,1.8,0.5,1.9,1.7H244.6z"/>
	<path d="M247.4,577.5c0,1.6,1.4,2.3,2.4,2.3c1,0,1.7-0.5,2.1-1.3h0.9c-0.3,0.7-0.7,1.2-1.3,1.5c-0.5,0.3-1.1,0.5-1.8,0.5
		c-2.2,0-3.3-1.7-3.3-3.3c0-1.8,1.4-3.3,3.3-3.3c0.9,0,1.7,0.3,2.3,0.9c0.7,0.7,1.1,1.7,1,2.6H247.4z M252.2,576.8
		c-0.1-1.1-1.1-2.1-2.4-2.1c-1.3,0-2.3,1-2.4,2.1H252.2z"/>
	<path d="M257.3,580.4h-1l3.6-8.5h0.9l3.5,8.5h-1l-1-2.4h-4L257.3,580.4z M260.3,572.9l-1.7,4.3h3.4L260.3,572.9z"/>
	<path d="M265.2,574.2h0.8v1.3c0.5-0.9,1.4-1.5,2.6-1.5c2.1,0,3.2,1.7,3.2,3.3c0,1.7-1.3,3.3-3.2,3.3c-1.4,0-2.3-0.8-2.5-1.4v1.3
		v2.4h-0.9V574.2z M270.9,577.2c0-1.2-0.8-2.5-2.5-2.5c-0.7,0-1.3,0.3-1.8,0.7c-0.4,0.5-0.7,1.1-0.7,1.8c0,0.7,0.3,1.3,0.7,1.8
		c0.4,0.4,1.1,0.7,1.8,0.7C269.9,579.7,270.9,578.7,270.9,577.2L270.9,577.2z"/>
	<path d="M273.1,574.2h0.8v1.3c0.5-0.9,1.4-1.5,2.6-1.5c2.1,0,3.2,1.7,3.2,3.3c0,1.7-1.3,3.3-3.2,3.3c-1.4,0-2.3-0.8-2.5-1.4v1.3
		v2.4h-0.9V574.2z M278.8,577.2c0-1.2-0.8-2.5-2.5-2.5c-0.7,0-1.3,0.3-1.8,0.7c-0.4,0.5-0.7,1.1-0.7,1.8c0,0.7,0.3,1.3,0.7,1.8
		c0.4,0.4,1.1,0.7,1.8,0.7C277.8,579.7,278.8,578.7,278.8,577.2L278.8,577.2z"/>
</g>
<rect x="191" y="424.3" class="st2" width="140" height="36.8"/>
<g class="st3">
	<path d="M230.2,424.3c1.2,0,1.8,0.1,2.3,0.5c0.6,0.4,0.9,1.2,0.9,2c0,0.8-0.4,1.6-0.9,2c-0.6,0.4-1.1,0.6-2.2,0.6h-1.4v3.4h-1v-8.5
		H230.2z M228.9,428.6h1.4c0.7,0,1.2-0.1,1.6-0.4c0.4-0.2,0.6-0.8,0.6-1.4c0-0.6-0.3-1.2-0.6-1.4c-0.4-0.3-0.9-0.4-1.6-0.4h-1.3
		V428.6z"/>
	<path d="M234.4,424.3h0.9v8.5h-0.9V424.3z"/>
	<path d="M243.1,432.8h-0.9v-1.3c-0.5,0.9-1.4,1.5-2.5,1.5c-2,0-3.2-1.6-3.2-3.3c0-1.8,1.3-3.3,3.2-3.3c1.3,0,2.2,0.8,2.5,1.5v-1.3
		h0.9V432.8z M237.4,429.7c0,1.1,0.8,2.5,2.5,2.5c1.1,0,1.9-0.6,2.2-1.5c0.1-0.3,0.2-0.6,0.2-1c0-0.3-0.1-0.7-0.2-1
		c-0.3-0.9-1.2-1.5-2.3-1.5C238.4,427.2,237.4,428.3,237.4,429.7L237.4,429.7z"/>
	<path d="M246.4,432.7l-2.4-6.1h0.9l1.9,5l2-5h0.9l-3.5,8.6h-0.9L246.4,432.7z"/>
	<path d="M260.2,432.8h-0.9v-1.3c-0.5,0.9-1.4,1.5-2.5,1.5c-2,0-3.2-1.6-3.2-3.3c0-1.8,1.3-3.3,3.2-3.3c1.3,0,2.2,0.8,2.5,1.5v-1.3
		h0.9V432.8z M254.4,429.7c0,1.1,0.8,2.5,2.5,2.5c1.1,0,1.9-0.6,2.2-1.5c0.1-0.3,0.2-0.6,0.2-1c0-0.3-0.1-0.7-0.2-1
		c-0.3-0.9-1.2-1.5-2.3-1.5C255.4,427.2,254.4,428.3,254.4,429.7L254.4,429.7z"/>
	<path d="M268,432.1c0,1.2-0.4,1.9-0.9,2.4c-0.6,0.6-1.5,1-2.4,1c-1.5,0-2.7-0.9-3.1-2h1c0.1,0.3,0.4,0.6,0.7,0.8
		c0.4,0.3,1,0.4,1.4,0.4c1.2,0,2.4-0.9,2.4-2.5v-0.8c-0.4,0.9-1.3,1.5-2.5,1.5c-1.9,0-3.2-1.5-3.2-3.3c0-1.9,1.3-3.3,3.2-3.3
		c1.2,0,2.2,0.7,2.5,1.5v-1.3h0.8V432.1z M262.3,429.7c0,1.3,0.9,2.5,2.5,2.5c0.7,0,1.3-0.3,1.7-0.7c0.4-0.5,0.7-1.1,0.7-1.8
		c0-0.5-0.2-1.1-0.6-1.6c-0.4-0.5-1-0.9-1.9-0.9C263.4,427.2,262.3,428.2,262.3,429.7L262.3,429.7z"/>
	<path d="M275.9,432.8H275v-1.3c-0.5,0.9-1.4,1.5-2.5,1.5c-2,0-3.2-1.6-3.2-3.3c0-1.8,1.3-3.3,3.2-3.3c1.3,0,2.2,0.8,2.5,1.5v-1.3
		h0.9V432.8z M270.1,429.7c0,1.1,0.8,2.5,2.5,2.5c1.1,0,1.9-0.6,2.2-1.5c0.1-0.3,0.2-0.6,0.2-1c0-0.3-0.1-0.7-0.2-1
		c-0.3-0.9-1.2-1.5-2.3-1.5C271.2,427.2,270.1,428.3,270.1,429.7L270.1,429.7z"/>
	<path d="M277.6,424.3h0.9v1.2h-0.9V424.3z M277.6,426.6h0.9v6.2h-0.9V426.6z"/>
	<path d="M280.1,426.6h0.8c0,0.3,0,0.7,0,1.1c0.4-0.8,1.2-1.3,2.3-1.3c1.9,0,2.6,1.3,2.6,2.8v3.5h-0.8v-3.4c0-1.3-0.6-2.2-2-2.2
		c-1.3,0-2,0.8-2,2.1v3.5h-0.9V426.6z"/>
	<path d="M289.2,430.6c0-0.8,0.2-1.4,1.1-2.3c0.6-0.6,1-1,1-1.7c0-0.9-0.6-1.6-1.6-1.6c-0.8,0-1.5,0.5-1.7,1.4c0,0.1,0,0.2,0,0.3
		h-0.9c0-0.1,0-0.2,0-0.3c0.1-1.6,1.5-2.4,2.7-2.4c1.4,0,2.5,1.1,2.5,2.4c0,1-0.7,1.6-1.3,2.2c-0.8,0.8-0.9,1.4-0.9,1.8H289.2z
		 M290.1,432.8h-0.9v-1.3h0.9V432.8z"/>
</g>
<rect x="382" y="424" class="st2" width="144" height="33"/>
<g class="st3">
	<path d="M420.7,432.5V424h0.9v3.8h4.1V424h1v8.5h-1v-3.9h-4.1v3.9H420.7z"/>
	<path d="M434.6,432.5h-0.9v-1.3c-0.5,0.9-1.4,1.5-2.5,1.5c-2,0-3.2-1.6-3.2-3.3c0-1.8,1.3-3.3,3.2-3.3c1.3,0,2.2,0.8,2.5,1.5v-1.3
		h0.9V432.5z M428.8,429.4c0,1.1,0.8,2.5,2.5,2.5c1.1,0,1.9-0.6,2.2-1.5c0.1-0.3,0.2-0.6,0.2-1c0-0.3-0.1-0.7-0.2-1
		c-0.3-0.9-1.2-1.5-2.3-1.5C429.9,426.9,428.8,428,428.8,429.4L428.8,429.4z"/>
	<path d="M436.3,426.3h0.8v1c0.4-0.9,1.3-1.2,2-1.2v0.8H439c-1.2,0-1.9,0.8-1.9,2.2v3.4h-0.8V426.3z"/>
	<path d="M445.7,432.5h-0.9v-1.3c-0.5,0.9-1.4,1.5-2.5,1.5c-2,0-3.2-1.6-3.2-3.3c0-1.8,1.3-3.3,3.2-3.3c1.3,0,2.2,0.8,2.5,1.5v-1.3
		h0.9V432.5z M439.9,429.4c0,1.1,0.8,2.5,2.5,2.5c1.1,0,1.9-0.6,2.2-1.5c0.1-0.3,0.2-0.6,0.2-1c0-0.3-0.1-0.7-0.2-1
		c-0.3-0.9-1.2-1.5-2.3-1.5C441,426.9,439.9,428,439.9,429.4L439.9,429.4z"/>
	<path d="M450.2,427.9c0-0.7-0.4-1-1.1-1c-0.7,0-1.1,0.5-1.1,1c0,0.6,0.5,0.8,1.2,1.1c0.9,0.2,1.9,0.5,1.9,1.8c0,1.1-0.9,2-2.1,2
		c-1,0-2.1-0.6-2.1-1.9h0.8c0,0.9,0.7,1.2,1.3,1.2c0.7,0,1.2-0.5,1.2-1.2c0-0.7-0.5-1-1.6-1.3c-0.9-0.3-1.6-0.6-1.6-1.6
		c0-1.1,0.9-1.8,1.9-1.8c0.9,0,1.8,0.5,1.9,1.7H450.2z"/>
	<path d="M455.3,427.9c0-0.7-0.4-1-1.1-1c-0.7,0-1.1,0.5-1.1,1c0,0.6,0.5,0.8,1.2,1.1c0.9,0.2,1.9,0.5,1.9,1.8c0,1.1-0.9,2-2.1,2
		c-1,0-2.1-0.6-2.1-1.9h0.8c0,0.9,0.7,1.2,1.3,1.2c0.7,0,1.2-0.5,1.2-1.2c0-0.7-0.5-1-1.6-1.3c-0.9-0.3-1.6-0.6-1.6-1.6
		c0-1.1,0.9-1.8,1.9-1.8c0.9,0,1.8,0.5,1.9,1.7H455.3z"/>
	<path d="M457.7,426.3h0.8v1c0.4-0.8,1.3-1.2,2-1.2c0.6,0,1.3,0.2,1.7,0.7c0.2,0.2,0.4,0.6,0.4,0.6c0.1-0.2,0.2-0.4,0.5-0.7
		c0.4-0.4,1-0.7,1.7-0.7c0.6,0,1.2,0.2,1.7,0.6c0.5,0.5,0.7,1.2,0.7,2.3v3.4h-0.9v-3.4c0-0.7-0.1-1.2-0.5-1.7
		c-0.3-0.3-0.6-0.5-1.2-0.5c-0.5,0-1.1,0.2-1.4,0.6c-0.3,0.4-0.4,0.8-0.4,1.5v3.4H462v-3.4c0-0.7-0.1-1.1-0.3-1.5
		c-0.3-0.4-0.7-0.6-1.4-0.7c-0.6,0-1.1,0.3-1.3,0.6c-0.3,0.4-0.4,0.8-0.4,1.5v3.5h-0.9V426.3z"/>
	<path d="M469.1,429.7c0,1.6,1.4,2.3,2.4,2.3c1,0,1.7-0.5,2.1-1.3h0.9c-0.3,0.7-0.7,1.2-1.3,1.5c-0.5,0.3-1.1,0.5-1.8,0.5
		c-2.2,0-3.3-1.7-3.3-3.3c0-1.8,1.4-3.3,3.3-3.3c0.9,0,1.7,0.3,2.3,0.9c0.7,0.7,1.1,1.7,1,2.6H469.1z M474,429
		c-0.1-1.1-1.1-2.1-2.4-2.1c-1.3,0-2.3,1-2.4,2.1H474z"/>
	<path d="M476,426.3h0.8c0,0.3,0,0.7,0,1.1c0.4-0.8,1.2-1.3,2.3-1.3c1.9,0,2.6,1.3,2.6,2.8v3.5h-0.8v-3.4c0-1.3-0.6-2.2-2-2.2
		c-1.3,0-2,0.8-2,2.1v3.5H476V426.3z"/>
	<path d="M483.8,427h-1.2v-0.7h1.2V424h0.8v2.3h1.4v0.7h-1.4v5.5h-0.8V427z"/>
</g>
<g class="st3">
	<path d="M432.7,437.8h2.2c1.3,0,2,0.2,2.4,0.4c0.7,0.4,1.2,1.3,1.2,2.3c0,0.6-0.1,1.2-0.5,1.7c-0.5,0.7-1.1,0.9-1.9,0.9l2.1,3.2h-1
		l-2.4-3.7h0.3c0.6,0,1.4,0,1.9-0.4c0.4-0.4,0.6-1,0.6-1.6c0-0.6-0.3-1.3-0.8-1.6c-0.4-0.3-1-0.3-1.7-0.3h-1.3v7.7h-1V437.8z"/>
	<path d="M439.9,443.5c0,1.6,1.4,2.3,2.4,2.3c1,0,1.7-0.5,2.1-1.3h0.9c-0.3,0.7-0.7,1.2-1.3,1.5c-0.5,0.3-1.1,0.5-1.8,0.5
		c-2.2,0-3.3-1.7-3.3-3.3c0-1.8,1.4-3.3,3.3-3.3c0.9,0,1.7,0.3,2.3,0.9c0.7,0.7,1.1,1.7,1,2.6H439.9z M444.7,442.8
		c-0.1-1.1-1.1-2.1-2.4-2.1c-1.3,0-2.3,1-2.4,2.1H444.7z"/>
	<path d="M446.7,440.1h0.8v1.3c0.5-0.9,1.4-1.5,2.6-1.5c2.1,0,3.2,1.7,3.2,3.3c0,1.7-1.3,3.3-3.2,3.3c-1.4,0-2.3-0.8-2.5-1.4v1.3
		v2.4h-0.9V440.1z M452.5,443.2c0-1.2-0.8-2.5-2.5-2.5c-0.7,0-1.3,0.3-1.8,0.7c-0.4,0.5-0.7,1.1-0.7,1.8c0,0.7,0.3,1.3,0.7,1.8
		c0.4,0.4,1.1,0.7,1.8,0.7C451.4,445.7,452.5,444.6,452.5,443.2L452.5,443.2z"/>
	<path d="M454.3,443.2c0-1.7,1.3-3.3,3.3-3.3c2,0,3.3,1.5,3.3,3.3c0,1.7-1.3,3.3-3.3,3.3C455.5,446.5,454.3,445,454.3,443.2
		L454.3,443.2z M455.1,443.2c0,1.4,1.1,2.5,2.4,2.5c1.4,0,2.4-1.1,2.4-2.5c0-1.4-1.1-2.5-2.4-2.5
		C456.2,440.7,455.1,441.8,455.1,443.2L455.1,443.2z"/>
	<path d="M462.1,440.1h0.8v1c0.5-0.9,1.3-1.2,2-1.2v0.8h-0.1c-1.2,0-1.9,0.8-1.9,2.2v3.4h-0.8V440.1z"/>
	<path d="M466.6,440.8h-1.2v-0.7h1.2v-2.3h0.8v2.3h1.4v0.7h-1.4v5.5h-0.8V440.8z"/>
	<path d="M471.5,444.2c0-0.8,0.2-1.4,1.1-2.3c0.6-0.6,1-1,1-1.7c0-0.9-0.6-1.6-1.6-1.6c-0.8,0-1.5,0.5-1.7,1.4c0,0.1,0,0.2,0,0.3
		h-0.9c0-0.1,0-0.2,0-0.3c0.2-1.6,1.5-2.4,2.7-2.4c1.4,0,2.5,1.1,2.5,2.4c0,1-0.7,1.6-1.3,2.2c-0.8,0.8-0.9,1.4-0.9,1.8H471.5z
		 M472.4,446.3h-0.9v-1.3h0.9V446.3z"/>
</g>
<rect x="574.7" y="417.2" class="st2" width="118.8" height="28.8"/>
<g class="st3">
	<path d="M595.1,423.4c0.1,1.4,1.2,1.7,1.7,1.7c0.9,0,1.7-0.7,1.7-1.6c0-1.2-1-1.5-2-1.8c-0.7-0.2-2.2-0.6-2.2-2.3
		c0-1.5,1.2-2.4,2.5-2.4c1.1,0,2.3,0.6,2.4,2.2h-0.9c-0.1-0.6-0.4-1.4-1.5-1.4c-0.9,0-1.6,0.6-1.6,1.5c0,1,0.8,1.3,2.1,1.7
		c0.8,0.3,2.1,0.8,2.1,2.3c0,1.4-1,2.5-2.6,2.5c-1.4,0-2.6-0.9-2.7-2.5H595.1z"/>
	<path d="M601.1,422.9c0,1.6,1.4,2.3,2.4,2.3c1,0,1.7-0.5,2.1-1.3h0.9c-0.3,0.7-0.7,1.2-1.3,1.5c-0.5,0.3-1.1,0.5-1.8,0.5
		c-2.2,0-3.3-1.7-3.3-3.3c0-1.8,1.4-3.3,3.3-3.3c0.9,0,1.7,0.3,2.3,0.9c0.7,0.7,1.1,1.7,1,2.6H601.1z M605.9,422.2
		c-0.1-1.1-1.1-2.1-2.4-2.1c-1.3,0-2.3,1-2.4,2.1H605.9z"/>
	<path d="M607.9,417.2h0.9v8.5h-0.9V417.2z"/>
	<path d="M610.8,422.9c0,1.6,1.4,2.3,2.4,2.3c1,0,1.7-0.5,2.1-1.3h0.9c-0.3,0.7-0.7,1.2-1.3,1.5c-0.5,0.3-1.1,0.5-1.8,0.5
		c-2.2,0-3.3-1.7-3.3-3.3c0-1.8,1.4-3.3,3.3-3.3c0.9,0,1.7,0.3,2.3,0.9c0.7,0.7,1.1,1.7,1,2.6H610.8z M615.6,422.2
		c-0.1-1.1-1.1-2.1-2.4-2.1c-1.3,0-2.3,1-2.4,2.1H615.6z"/>
	<path d="M623.7,423.7c-0.4,1.3-1.6,2.3-3.1,2.3c-2.1,0-3.3-1.6-3.3-3.3c0-1.8,1.4-3.3,3.3-3.3c1.4,0,2.7,0.8,3.2,2.3h-0.9
		c-0.4-1-1.4-1.5-2.2-1.5c-0.7,0-1.2,0.2-1.8,0.7c-0.4,0.4-0.7,1.1-0.7,1.8c0,1.5,1.1,2.5,2.4,2.5c1.2,0,2-0.7,2.2-1.5H623.7z"/>
	<path d="M625.4,420.2h-1.2v-0.7h1.2v-2.3h0.8v2.3h1.4v0.7h-1.4v5.5h-0.8V420.2z"/>
	<path d="M638.1,425.8h-0.9v-1.3c-0.5,0.9-1.4,1.5-2.5,1.5c-2,0-3.2-1.6-3.2-3.3c0-1.8,1.3-3.3,3.2-3.3c1.3,0,2.2,0.8,2.5,1.5v-1.3
		h0.9V425.8z M632.3,422.7c0,1.1,0.8,2.5,2.5,2.5c1.1,0,1.9-0.6,2.2-1.5c0.1-0.3,0.2-0.6,0.2-1c0-0.3-0.1-0.7-0.2-1
		c-0.3-0.9-1.2-1.5-2.3-1.5C633.4,420.2,632.3,421.3,632.3,422.7L632.3,422.7z"/>
	<path d="M649.3,425.8h-0.8v-1.3c-0.4,0.8-1.3,1.5-2.6,1.5c-2,0-3.2-1.5-3.2-3.3c0-1.8,1.3-3.3,3.2-3.3c1.4,0,2.3,0.8,2.5,1.4v-1.3
		v-2.3h0.9V425.8z M643.5,422.7c0,1.2,0.9,2.5,2.5,2.5c0.7,0,1.3-0.3,1.8-0.7c0.5-0.5,0.7-1.1,0.7-1.8c0-0.7-0.3-1.3-0.7-1.7
		c-0.4-0.4-1.1-0.7-1.8-0.7C644.6,420.2,643.5,421.2,643.5,422.7L643.5,422.7z"/>
	<path d="M657.2,425.8h-0.9v-1.3c-0.5,0.9-1.4,1.5-2.5,1.5c-2,0-3.2-1.6-3.2-3.3c0-1.8,1.3-3.3,3.2-3.3c1.3,0,2.2,0.8,2.5,1.5v-1.3
		h0.9V425.8z M651.4,422.7c0,1.1,0.8,2.5,2.5,2.5c1.1,0,1.9-0.6,2.2-1.5c0.1-0.3,0.2-0.6,0.2-1c0-0.3-0.1-0.7-0.2-1
		c-0.3-0.9-1.2-1.5-2.3-1.5C652.5,420.2,651.4,421.3,651.4,422.7L651.4,422.7z"/>
	<path d="M659.3,420.2h-1.2v-0.7h1.2v-2.3h0.8v2.3h1.4v0.7h-1.4v5.5h-0.8V420.2z"/>
	<path d="M662.5,422.9c0,1.6,1.4,2.3,2.4,2.3c1,0,1.7-0.5,2.1-1.3h0.9c-0.3,0.7-0.7,1.2-1.3,1.5c-0.5,0.3-1.1,0.5-1.8,0.5
		c-2.2,0-3.3-1.7-3.3-3.3c0-1.8,1.4-3.3,3.3-3.3c0.9,0,1.7,0.3,2.3,0.9c0.7,0.7,1.1,1.7,1,2.6H662.5z M667.3,422.2
		c-0.1-1.1-1.1-2.1-2.4-2.1c-1.3,0-2.3,1-2.4,2.1H667.3z"/>
	<path d="M669.8,426.6H669l0.7-2.1h0.9L669.8,426.6z"/>
</g>
<g class="st3">
	<path d="M587.8,434h-1.2v-0.7h1.2V431h0.8v2.3h1.4v0.7h-1.4v5.5h-0.8V434z"/>
	<path d="M590.9,431h0.9v1.2h-0.9V431z M590.9,433.3h0.9v6.2h-0.9V433.3z"/>
	<path d="M593.4,433.3h0.8v1c0.4-0.8,1.3-1.2,2-1.2c0.6,0,1.3,0.2,1.7,0.7c0.2,0.2,0.4,0.6,0.4,0.6c0.1-0.2,0.2-0.4,0.4-0.7
		c0.4-0.4,1-0.7,1.7-0.7c0.6,0,1.2,0.2,1.7,0.6c0.5,0.5,0.7,1.2,0.7,2.3v3.4H602v-3.4c0-0.7-0.1-1.2-0.5-1.7
		c-0.3-0.3-0.6-0.5-1.2-0.5c-0.5,0-1.1,0.2-1.4,0.6c-0.3,0.4-0.4,0.8-0.4,1.5v3.4h-0.9v-3.4c0-0.7-0.1-1.1-0.3-1.5
		c-0.3-0.4-0.7-0.6-1.4-0.7c-0.6,0-1.1,0.3-1.3,0.6c-0.3,0.4-0.4,0.8-0.4,1.5v3.5h-0.9V433.3z"/>
	<path d="M604.8,436.7c0,1.6,1.4,2.3,2.4,2.3c1,0,1.7-0.5,2.1-1.3h0.9c-0.3,0.7-0.7,1.2-1.3,1.5c-0.5,0.3-1.1,0.5-1.8,0.5
		c-2.2,0-3.3-1.7-3.3-3.3c0-1.8,1.4-3.3,3.3-3.3c0.9,0,1.7,0.3,2.3,0.9c0.7,0.7,1.1,1.7,1,2.6H604.8z M609.7,436
		c-0.1-1.1-1.1-2.1-2.4-2.1c-1.3,0-2.3,1-2.4,2.1H609.7z"/>
	<path d="M612.1,440.4h-0.8l0.7-2.1h0.9L612.1,440.4z"/>
	<path d="M623.2,439.6h-0.9v-1.3c-0.5,0.9-1.4,1.5-2.5,1.5c-2,0-3.2-1.6-3.2-3.3c0-1.8,1.3-3.3,3.2-3.3c1.3,0,2.2,0.8,2.5,1.5v-1.3
		h0.9V439.6z M617.4,436.5c0,1.1,0.8,2.5,2.5,2.5c1.1,0,1.9-0.6,2.2-1.5c0.1-0.3,0.2-0.6,0.2-1c0-0.3-0.1-0.7-0.2-1
		c-0.3-0.9-1.2-1.5-2.3-1.5C618.5,434,617.4,435.1,617.4,436.5L617.4,436.5z"/>
	<path d="M624.8,433.3h0.8c0,0.3,0,0.7,0,1.1c0.4-0.8,1.2-1.3,2.3-1.3c1.9,0,2.6,1.3,2.6,2.8v3.5h-0.8v-3.4c0-1.3-0.6-2.2-2-2.2
		c-1.3,0-2,0.8-2,2.1v3.5h-0.9V433.3z"/>
	<path d="M638.4,439.6h-0.8v-1.3c-0.4,0.8-1.3,1.5-2.6,1.5c-2,0-3.2-1.5-3.2-3.3c0-1.8,1.3-3.3,3.2-3.3c1.4,0,2.3,0.8,2.5,1.4v-1.3
		V431h0.9V439.6z M632.7,436.5c0,1.2,0.9,2.5,2.5,2.5c0.7,0,1.3-0.3,1.8-0.7c0.4-0.5,0.7-1.1,0.7-1.8c0-0.7-0.3-1.3-0.7-1.7
		c-0.4-0.4-1.1-0.7-1.8-0.7C633.7,434,632.7,435,632.7,436.5L632.7,436.5z"/>
	<path d="M643.4,433.3h0.8v1.3c0.5-0.9,1.4-1.5,2.6-1.5c2.1,0,3.2,1.7,3.2,3.3c0,1.7-1.3,3.3-3.2,3.3c-1.4,0-2.3-0.8-2.5-1.4v1.3
		v2.4h-0.9V433.3z M649.1,436.4c0-1.2-0.8-2.5-2.5-2.5c-0.7,0-1.3,0.3-1.8,0.7c-0.4,0.5-0.7,1.1-0.7,1.8c0,0.7,0.3,1.3,0.7,1.8
		c0.4,0.4,1.1,0.7,1.8,0.7C648.1,438.9,649.1,437.9,649.1,436.4L649.1,436.4z"/>
	<path d="M651.3,431h0.9v8.5h-0.9V431z"/>
	<path d="M660,439.6h-0.9v-1.3c-0.5,0.9-1.4,1.5-2.5,1.5c-2,0-3.2-1.6-3.2-3.3c0-1.8,1.3-3.3,3.2-3.3c1.3,0,2.2,0.8,2.5,1.5v-1.3
		h0.9V439.6z M654.3,436.5c0,1.1,0.8,2.5,2.5,2.5c1.1,0,1.9-0.6,2.2-1.5c0.1-0.3,0.2-0.6,0.2-1c0-0.3-0.1-0.7-0.2-1
		c-0.3-0.9-1.2-1.5-2.3-1.5C655.3,434,654.3,435.1,654.3,436.5L654.3,436.5z"/>
	<path d="M663.3,439.4l-2.4-6.1h0.9l2,5l2-5h0.9l-3.5,8.6h-0.9L663.3,439.4z"/>
	<path d="M667.6,436.7c0,1.6,1.4,2.3,2.4,2.3c1,0,1.7-0.5,2.1-1.3h0.9c-0.3,0.7-0.7,1.2-1.3,1.5c-0.5,0.3-1.1,0.5-1.8,0.5
		c-2.2,0-3.3-1.7-3.3-3.3c0-1.8,1.4-3.3,3.3-3.3c0.9,0,1.7,0.3,2.3,0.9c0.7,0.7,1.1,1.7,1,2.6H667.6z M672.4,436
		c-0.1-1.1-1.1-2.1-2.4-2.1c-1.3,0-2.3,1-2.4,2.1H672.4z"/>
	<path d="M674.5,433.3h0.8v1c0.5-0.9,1.3-1.2,2-1.2v0.8h-0.1c-1.2,0-1.9,0.8-1.9,2.2v3.4h-0.8V433.3z"/>
</g>
<rect x="351.8" y="567.5" class="st2" width="172.7" height="28.8"/>
<g class="st3">
	<path d="M376.5,576.1v-8.5h0.9v3.8h4.1v-3.8h1v8.5h-1v-3.9h-4.1v3.9H376.5z"/>
	<path d="M383.9,573c0-1.7,1.3-3.3,3.3-3.3c2,0,3.3,1.5,3.3,3.3c0,1.7-1.3,3.3-3.3,3.3C385.2,576.2,383.9,574.7,383.9,573L383.9,573
		z M384.7,573c0,1.4,1.1,2.5,2.4,2.5c1.4,0,2.4-1.1,2.4-2.5c0-1.4-1.1-2.5-2.4-2.5C385.8,570.5,384.7,571.6,384.7,573L384.7,573z"/>
	<path d="M391.7,569.9h0.8v1c0.4-0.8,1.3-1.2,2-1.2c0.6,0,1.3,0.2,1.7,0.7c0.2,0.2,0.4,0.6,0.4,0.6c0.1-0.2,0.2-0.4,0.4-0.7
		c0.4-0.4,1-0.7,1.7-0.7c0.6,0,1.2,0.2,1.7,0.6c0.5,0.5,0.7,1.2,0.7,2.3v3.4h-0.9v-3.4c0-0.7-0.1-1.2-0.5-1.7
		c-0.3-0.3-0.6-0.5-1.2-0.5c-0.5,0-1.1,0.2-1.4,0.6c-0.3,0.4-0.4,0.8-0.4,1.5v3.4H396v-3.4c0-0.7-0.1-1.1-0.3-1.5
		c-0.3-0.4-0.7-0.6-1.4-0.7c-0.6,0-1.1,0.3-1.3,0.6c-0.3,0.4-0.4,0.8-0.4,1.5v3.5h-0.9V569.9z"/>
	<path d="M403.1,573.2c0,1.6,1.4,2.3,2.4,2.3c1,0,1.7-0.5,2.1-1.3h0.9c-0.3,0.7-0.7,1.2-1.3,1.5c-0.5,0.3-1.1,0.5-1.8,0.5
		c-2.2,0-3.3-1.7-3.3-3.3c0-1.8,1.4-3.3,3.3-3.3c0.9,0,1.7,0.3,2.3,0.9c0.7,0.7,1.1,1.7,1,2.6H403.1z M407.9,572.5
		c-0.1-1.1-1.1-2.1-2.4-2.1c-1.3,0-2.3,1-2.4,2.1H407.9z"/>
	<path d="M416.1,571.4c0-0.7-0.4-1-1.1-1c-0.7,0-1.1,0.5-1.1,1c0,0.6,0.5,0.8,1.2,1c0.9,0.2,1.9,0.5,1.9,1.8c0,1.1-0.9,2-2.1,2
		c-1,0-2.1-0.6-2.1-1.9h0.8c0,0.9,0.7,1.2,1.3,1.2c0.7,0,1.2-0.5,1.2-1.2c0-0.7-0.5-1-1.6-1.3c-0.9-0.3-1.6-0.6-1.6-1.6
		c0-1.1,0.9-1.8,1.9-1.8c0.9,0,1.8,0.5,1.9,1.7H416.1z"/>
	<path d="M424.6,574c-0.4,1.3-1.6,2.3-3.1,2.3c-2.1,0-3.3-1.6-3.3-3.3c0-1.8,1.4-3.3,3.3-3.3c1.4,0,2.7,0.8,3.2,2.3h-0.9
		c-0.4-1-1.4-1.5-2.2-1.5c-0.7,0-1.2,0.2-1.8,0.7c-0.4,0.4-0.7,1.1-0.7,1.8c0,1.5,1.1,2.5,2.4,2.5c1.2,0,2-0.7,2.2-1.5H424.6z"/>
	<path d="M425.8,569.9h0.8v1c0.4-0.9,1.3-1.2,2-1.2v0.8h-0.1c-1.2,0-1.9,0.8-1.9,2.2v3.4h-0.8V569.9z"/>
	<path d="M429.4,573.2c0,1.6,1.4,2.3,2.4,2.3c1,0,1.7-0.5,2.1-1.3h0.9c-0.3,0.7-0.7,1.2-1.3,1.5c-0.5,0.3-1.1,0.5-1.8,0.5
		c-2.2,0-3.3-1.7-3.3-3.3c0-1.8,1.4-3.3,3.3-3.3c0.9,0,1.7,0.3,2.3,0.9c0.7,0.7,1.1,1.7,1,2.6H429.4z M434.2,572.5
		c-0.1-1.1-1.1-2.1-2.4-2.1c-1.3,0-2.3,1-2.4,2.1H434.2z"/>
	<path d="M436.7,573.2c0,1.6,1.4,2.3,2.4,2.3c1,0,1.7-0.5,2.1-1.3h0.9c-0.3,0.7-0.7,1.2-1.3,1.5c-0.5,0.3-1.1,0.5-1.8,0.5
		c-2.2,0-3.3-1.7-3.3-3.3c0-1.8,1.4-3.3,3.3-3.3c0.9,0,1.7,0.3,2.3,0.9c0.7,0.7,1.1,1.7,1,2.6H436.7z M441.5,572.5
		c-0.1-1.1-1.1-2.1-2.4-2.1c-1.3,0-2.3,1-2.4,2.1H441.5z"/>
	<path d="M443.5,569.9h0.8c0,0.3,0,0.7,0,1.1c0.4-0.8,1.2-1.3,2.3-1.3c1.9,0,2.6,1.3,2.6,2.8v3.5h-0.8v-3.4c0-1.3-0.6-2.2-2-2.2
		c-1.3,0-2,0.8-2,2.1v3.5h-0.9V569.9z"/>
	<path d="M458,568.4c-1.4,0.8-2.7,2.7-2.7,4.9c0,2.2,1.3,4.1,2.7,4.9v1c-2.4-1.2-3.6-3.5-3.6-5.9c0-2.3,1.3-4.8,3.6-5.9V568.4z"/>
	<path d="M462.1,571.4c0-0.7-0.4-1-1.1-1c-0.7,0-1.1,0.5-1.1,1c0,0.6,0.5,0.8,1.2,1c0.9,0.2,1.9,0.5,1.9,1.8c0,1.1-0.9,2-2.1,2
		c-1,0-2.1-0.6-2.1-1.9h0.8c0,0.9,0.7,1.2,1.3,1.2c0.7,0,1.2-0.5,1.2-1.2c0-0.7-0.5-1-1.6-1.3c-0.9-0.3-1.6-0.6-1.6-1.6
		c0-1.1,0.9-1.8,1.9-1.8c0.9,0,1.8,0.5,1.9,1.7H462.1z"/>
	<path d="M464.9,573.2c0,1.6,1.4,2.3,2.4,2.3c1,0,1.7-0.5,2.1-1.3h0.9c-0.3,0.7-0.7,1.2-1.3,1.5c-0.5,0.3-1.1,0.5-1.8,0.5
		c-2.2,0-3.3-1.7-3.3-3.3c0-1.8,1.4-3.3,3.3-3.3c0.9,0,1.7,0.3,2.3,0.9c0.7,0.7,1.1,1.7,1,2.6H464.9z M469.7,572.5
		c-0.1-1.1-1.1-2.1-2.4-2.1c-1.3,0-2.3,1-2.4,2.1H469.7z"/>
	<path d="M477.9,576.1h-0.9v-1.3c-0.5,0.9-1.4,1.5-2.5,1.5c-2,0-3.2-1.6-3.2-3.3c0-1.8,1.3-3.3,3.2-3.3c1.3,0,2.2,0.8,2.5,1.5v-1.3
		h0.9V576.1z M472.2,573c0,1.1,0.8,2.5,2.5,2.5c1.1,0,1.9-0.6,2.2-1.5c0.1-0.3,0.2-0.6,0.2-1c0-0.3-0.1-0.7-0.2-1
		c-0.3-0.9-1.2-1.5-2.3-1.5C473.2,570.5,472.2,571.6,472.2,573L472.2,573z"/>
	<path d="M479.6,569.9h0.8v1c0.5-0.9,1.3-1.2,2-1.2v0.8h-0.1c-1.2,0-1.9,0.8-1.9,2.2v3.4h-0.8V569.9z"/>
	<path d="M488.9,574c-0.4,1.3-1.6,2.3-3.1,2.3c-2.1,0-3.3-1.6-3.3-3.3c0-1.8,1.4-3.3,3.3-3.3c1.4,0,2.7,0.8,3.2,2.3H488
		c-0.4-1-1.4-1.5-2.2-1.5c-0.7,0-1.2,0.2-1.8,0.7c-0.4,0.4-0.7,1.1-0.7,1.8c0,1.5,1.1,2.5,2.4,2.5c1.2,0,2-0.7,2.2-1.5H488.9z"/>
	<path d="M490,567.5h0.9v2.3v1.1c0.4-0.8,1.3-1.2,2.2-1.2c1,0,1.6,0.3,2.1,0.9c0.4,0.5,0.6,1.3,0.6,2.2v3.3h-0.8v-3.3
		c0-0.7-0.1-1.2-0.5-1.6c-0.3-0.4-0.8-0.6-1.6-0.6c-0.7,0-1.2,0.2-1.5,0.6c-0.3,0.4-0.5,0.9-0.5,1.4v3.5H490V567.5z"/>
</g>
<g class="st3">
	<path d="M391,584.4h-0.9v-0.7h0.9v-0.5c0-1.9,1.5-2,2.2-2v0.7c-0.4,0-1.3,0-1.3,1.4v0.4h1.3v0.7h-1.3v5.5H391V584.4z"/>
	<path d="M393.4,586.8c0-1.7,1.3-3.3,3.3-3.3c2,0,3.3,1.5,3.3,3.3s-1.3,3.3-3.3,3.3C394.7,590,393.4,588.5,393.4,586.8L393.4,586.8z
		 M394.2,586.8c0,1.4,1.1,2.5,2.4,2.5c1.4,0,2.4-1.1,2.4-2.5s-1.1-2.5-2.4-2.5C395.3,584.3,394.2,585.4,394.2,586.8L394.2,586.8z"/>
	<path d="M401.2,583.7h0.8v1c0.4-0.9,1.3-1.2,2-1.2v0.8h-0.1c-1.2,0-1.9,0.8-1.9,2.2v3.4h-0.8V583.7z"/>
	<path d="M408.3,583.7h0.8v1.3c0.5-0.9,1.4-1.5,2.6-1.5c2.1,0,3.2,1.7,3.2,3.3c0,1.7-1.3,3.3-3.2,3.3c-1.4,0-2.3-0.8-2.5-1.4v1.3
		v2.4h-0.9V583.7z M414,586.8c0-1.2-0.8-2.5-2.5-2.5c-0.7,0-1.3,0.3-1.8,0.7c-0.4,0.5-0.7,1.1-0.7,1.8c0,0.7,0.3,1.3,0.7,1.8
		c0.4,0.4,1.1,0.7,1.8,0.7C412.9,589.3,414,588.2,414,586.8L414,586.8z"/>
	<path d="M416.1,581.3h0.9v8.5h-0.9V581.3z"/>
	<path d="M424.9,589.9H424v-1.3c-0.5,0.9-1.4,1.5-2.5,1.5c-2,0-3.2-1.6-3.2-3.3c0-1.8,1.3-3.3,3.2-3.3c1.3,0,2.2,0.8,2.5,1.5v-1.3
		h0.9V589.9z M419.1,586.8c0,1.1,0.8,2.5,2.5,2.5c1.1,0,1.9-0.6,2.2-1.5c0.1-0.3,0.2-0.6,0.2-1c0-0.3-0.1-0.7-0.2-1
		c-0.3-0.9-1.2-1.5-2.3-1.5C420.1,584.3,419.1,585.4,419.1,586.8L419.1,586.8z"/>
	<path d="M428.1,589.8l-2.4-6.1h0.9l1.9,5l2-5h0.9l-3.5,8.6h-0.9L428.1,589.8z"/>
	<path d="M438.6,589.2c0,1.2-0.4,1.9-0.9,2.4c-0.6,0.6-1.5,1-2.4,1c-1.5,0-2.7-0.9-3.1-2h1c0.1,0.3,0.4,0.6,0.7,0.8
		c0.4,0.3,1,0.4,1.4,0.4c1.2,0,2.4-0.9,2.4-2.5v-0.8c-0.4,0.9-1.3,1.5-2.5,1.5c-1.9,0-3.2-1.5-3.2-3.3c0-1.9,1.3-3.3,3.2-3.3
		c1.2,0,2.2,0.7,2.5,1.5v-1.3h0.8V589.2z M432.8,586.8c0,1.3,0.9,2.5,2.5,2.5c0.7,0,1.3-0.3,1.7-0.7c0.4-0.5,0.7-1.1,0.7-1.8
		c0-0.5-0.2-1.1-0.6-1.6c-0.4-0.5-1-0.9-1.9-0.9C433.9,584.3,432.8,585.3,432.8,586.8L432.8,586.8z"/>
	<path d="M440.2,583.7h0.8v1c0.4-0.9,1.3-1.2,2-1.2v0.8h-0.1c-1.2,0-1.9,0.8-1.9,2.2v3.4h-0.8V583.7z"/>
	<path d="M443.1,586.8c0-1.7,1.3-3.3,3.3-3.3c2,0,3.3,1.5,3.3,3.3s-1.3,3.3-3.3,3.3C444.3,590,443.1,588.5,443.1,586.8L443.1,586.8z
		 M443.9,586.8c0,1.4,1.1,2.5,2.4,2.5c1.4,0,2.4-1.1,2.4-2.5s-1.1-2.5-2.4-2.5C445,584.3,443.9,585.4,443.9,586.8L443.9,586.8z"/>
	<path d="M456.6,589.9h-0.8v-1.1c-0.3,0.8-1.2,1.3-2.3,1.3c-1.9,0-2.6-1.3-2.6-2.9v-3.5h0.8v3.4c0,1.3,0.6,2.2,2,2.2
		c1.3,0,2-0.8,2-2.1v-3.5h0.9V589.9z"/>
	<path d="M458.3,583.7h0.8c0,0.3,0,0.7,0,1.1c0.4-0.8,1.2-1.3,2.3-1.3c1.9,0,2.6,1.3,2.6,2.8v3.5h-0.8v-3.4c0-1.3-0.6-2.2-2-2.2
		c-1.3,0-2,0.8-2,2.1v3.5h-0.9V583.7z"/>
	<path d="M471.8,589.9H471v-1.3c-0.4,0.8-1.3,1.5-2.6,1.5c-2,0-3.2-1.5-3.2-3.3c0-1.8,1.3-3.3,3.2-3.3c1.4,0,2.3,0.8,2.5,1.4v-1.3
		v-2.3h0.9V589.9z M466.1,586.8c0,1.2,0.9,2.5,2.5,2.5c0.7,0,1.3-0.3,1.8-0.7c0.5-0.5,0.7-1.1,0.7-1.8c0-0.7-0.3-1.3-0.7-1.7
		c-0.4-0.4-1.1-0.7-1.8-0.7C467.2,584.3,466.1,585.4,466.1,586.8L466.1,586.8z"/>
	<path d="M476.3,585.2c0-0.7-0.4-1-1.1-1c-0.7,0-1.1,0.5-1.1,1c0,0.6,0.5,0.8,1.2,1c0.9,0.2,1.9,0.5,1.9,1.8c0,1.1-0.9,2-2.1,2
		c-1,0-2.1-0.6-2.1-1.9h0.8c0,0.9,0.7,1.2,1.3,1.2c0.7,0,1.2-0.5,1.2-1.2c0-0.7-0.5-1-1.6-1.3c-0.9-0.3-1.6-0.6-1.6-1.6
		c0-1.1,0.9-1.8,1.9-1.8c0.9,0,1.8,0.5,1.9,1.7H476.3z"/>
	<path d="M478.3,592c1.4-0.8,2.7-2.7,2.7-4.9c0-2.2-1.3-4.1-2.7-4.9v-1c2.4,1.2,3.6,3.5,3.6,5.9c0,2.3-1.3,4.8-3.6,5.9V592z"/>
</g>
<rect x="729.2" y="417.2" class="st2" width="118.8" height="28.8"/>
<g class="st3">
	<path d="M754.3,417.2h1l1.9,7.2l1.9-7.2h0.7l1.9,7.2l1.9-7.2h1l-2.4,8.5h-0.9l-1.8-6.9l-1.8,6.9h-1L754.3,417.2z"/>
	<path d="M765.3,419.5h0.8v1c0.5-0.9,1.3-1.2,2-1.2v0.8H768c-1.2,0-1.9,0.8-1.9,2.2v3.4h-0.8V419.5z"/>
	<path d="M769,417.2h0.9v1.2H769V417.2z M769,419.5h0.9v6.2H769V419.5z"/>
	<path d="M772,420.2h-1.2v-0.7h1.2v-2.3h0.8v2.3h1.4v0.7h-1.4v5.5H772V420.2z"/>
	<path d="M775.2,422.9c0,1.6,1.4,2.3,2.4,2.3c1,0,1.7-0.5,2.1-1.3h0.9c-0.3,0.7-0.7,1.2-1.3,1.5c-0.5,0.3-1.1,0.5-1.8,0.5
		c-2.2,0-3.3-1.7-3.3-3.3c0-1.8,1.4-3.3,3.3-3.3c0.9,0,1.7,0.3,2.3,0.9c0.7,0.7,1.1,1.7,1,2.6H775.2z M780,422.2
		c-0.1-1.1-1.1-2.1-2.4-2.1c-1.3,0-2.3,1-2.4,2.1H780z"/>
	<path d="M791.6,425.8h-0.9v-1.3c-0.5,0.9-1.4,1.5-2.5,1.5c-2,0-3.2-1.6-3.2-3.3c0-1.8,1.3-3.3,3.2-3.3c1.3,0,2.2,0.8,2.5,1.5v-1.3
		h0.9V425.8z M785.8,422.7c0,1.1,0.8,2.5,2.5,2.5c1.1,0,1.9-0.6,2.2-1.5c0.1-0.3,0.2-0.6,0.2-1c0-0.3-0.1-0.7-0.2-1
		c-0.3-0.9-1.2-1.5-2.3-1.5C786.9,420.2,785.8,421.3,785.8,422.7L785.8,422.7z"/>
	<path d="M796.6,417.2h0.9v2.3v1.2c0.5-0.9,1.5-1.4,2.5-1.4c1.8,0,3.2,1.3,3.2,3.3c0,1.9-1.3,3.3-3.2,3.3c-1.2,0-2.1-0.6-2.5-1.5
		v1.3h-0.8V417.2z M802.3,422.6c0-1.4-1.1-2.5-2.5-2.5c-1.4,0-2.5,1.1-2.5,2.5c0,1.3,1,2.5,2.4,2.5
		C801.5,425.1,802.3,423.9,802.3,422.6L802.3,422.6z"/>
	<path d="M804.4,419.5h0.8v1c0.4-0.9,1.3-1.2,2-1.2v0.8h-0.1c-1.2,0-1.9,0.8-1.9,2.2v3.4h-0.8V419.5z"/>
	<path d="M808.1,417.2h0.9v1.2h-0.9V417.2z M808.1,419.5h0.9v6.2h-0.9V419.5z"/>
	<path d="M811,422.9c0,1.6,1.4,2.3,2.4,2.3c1,0,1.7-0.5,2.1-1.3h0.9c-0.3,0.7-0.7,1.2-1.3,1.5c-0.5,0.3-1.1,0.5-1.8,0.5
		c-2.2,0-3.3-1.7-3.3-3.3c0-1.8,1.4-3.3,3.3-3.3c0.9,0,1.7,0.3,2.3,0.9c0.7,0.7,1.1,1.7,1,2.6H811z M815.8,422.2
		c-0.1-1.1-1.1-2.1-2.4-2.1c-1.3,0-2.3,1-2.4,2.1H815.8z"/>
	<path d="M818,420.2h-0.9v-0.7h0.9V419c0-1.9,1.5-2,2.2-2v0.7c-0.4,0-1.3,0-1.3,1.4v0.4h1.3v0.7h-1.3v5.5H818V420.2z"/>
</g>
<g class="st3">
	<path d="M763.4,439.6h-0.8v-1.3c-0.4,0.8-1.3,1.5-2.6,1.5c-2,0-3.2-1.5-3.2-3.3c0-1.8,1.3-3.3,3.2-3.3c1.4,0,2.3,0.8,2.5,1.4v-1.3
		V431h0.9V439.6z M757.7,436.5c0,1.2,0.9,2.5,2.5,2.5c0.7,0,1.3-0.3,1.8-0.7c0.4-0.5,0.7-1.1,0.7-1.8c0-0.7-0.3-1.3-0.7-1.7
		c-0.4-0.4-1.1-0.7-1.8-0.7C758.7,434,757.7,435,757.7,436.5L757.7,436.5z"/>
	<path d="M765.5,436.7c0,1.6,1.4,2.3,2.4,2.3c1,0,1.7-0.5,2.1-1.3h0.9c-0.3,0.7-0.7,1.2-1.3,1.5c-0.5,0.3-1.1,0.5-1.8,0.5
		c-2.2,0-3.3-1.7-3.3-3.3c0-1.8,1.4-3.3,3.3-3.3c0.9,0,1.7,0.3,2.3,0.9c0.7,0.7,1.1,1.7,1,2.6H765.5z M770.3,436
		c-0.1-1.1-1.1-2.1-2.4-2.1c-1.3,0-2.3,1-2.4,2.1H770.3z"/>
	<path d="M775.1,434.9c0-0.7-0.4-1-1.1-1c-0.7,0-1.1,0.5-1.1,1c0,0.6,0.5,0.8,1.2,1c0.9,0.2,1.9,0.5,1.9,1.8c0,1.1-0.9,2-2.1,2
		c-1,0-2.1-0.6-2.1-1.9h0.8c0,0.9,0.7,1.2,1.3,1.2c0.7,0,1.2-0.5,1.2-1.2c0-0.7-0.5-1-1.6-1.3c-0.9-0.3-1.6-0.6-1.6-1.6
		c0-1.1,0.9-1.8,1.9-1.8c0.9,0,1.8,0.5,1.9,1.7H775.1z"/>
	<path d="M783.6,437.5c-0.4,1.3-1.6,2.3-3.1,2.3c-2.1,0-3.3-1.6-3.3-3.3c0-1.8,1.4-3.3,3.3-3.3c1.4,0,2.7,0.8,3.2,2.3h-0.9
		c-0.4-1-1.4-1.5-2.2-1.5c-0.7,0-1.2,0.2-1.8,0.7c-0.4,0.4-0.7,1.1-0.7,1.8c0,1.5,1.1,2.5,2.4,2.5c1.2,0,2-0.7,2.2-1.5H783.6z"/>
	<path d="M784.8,433.3h0.8v1c0.4-0.9,1.3-1.2,2-1.2v0.8h-0.1c-1.2,0-1.9,0.8-1.9,2.2v3.4h-0.8V433.3z"/>
	<path d="M788.5,431h0.9v1.2h-0.9V431z M788.5,433.3h0.9v6.2h-0.9V433.3z"/>
	<path d="M791,433.3h0.8v1.3c0.5-0.9,1.4-1.5,2.6-1.5c2.1,0,3.2,1.7,3.2,3.3c0,1.7-1.3,3.3-3.2,3.3c-1.4,0-2.3-0.8-2.5-1.4v1.3v2.4
		H791V433.3z M796.7,436.4c0-1.2-0.8-2.5-2.5-2.5c-0.7,0-1.3,0.3-1.8,0.7c-0.4,0.5-0.7,1.1-0.7,1.8c0,0.7,0.3,1.3,0.7,1.8
		c0.4,0.4,1.1,0.7,1.8,0.7C795.7,438.9,796.7,437.9,796.7,436.4L796.7,436.4z"/>
	<path d="M799.4,434h-1.2v-0.7h1.2V431h0.8v2.3h1.4v0.7h-1.4v5.5h-0.8V434z"/>
	<path d="M802.5,431h0.9v1.2h-0.9V431z M802.5,433.3h0.9v6.2h-0.9V433.3z"/>
	<path d="M804.6,436.4c0-1.7,1.3-3.3,3.3-3.3c2,0,3.3,1.5,3.3,3.3c0,1.7-1.3,3.3-3.3,3.3C805.9,439.7,804.6,438.2,804.6,436.4
		L804.6,436.4z M805.5,436.5c0,1.4,1.1,2.5,2.4,2.5c1.4,0,2.4-1.1,2.4-2.5c0-1.4-1.1-2.5-2.4-2.5C806.6,434,805.5,435,805.5,436.5
		L805.5,436.5z"/>
	<path d="M812.5,433.3h0.8c0,0.3,0,0.7,0,1.1c0.4-0.8,1.2-1.3,2.3-1.3c1.9,0,2.6,1.3,2.6,2.8v3.5h-0.8v-3.4c0-1.3-0.6-2.2-2-2.2
		c-1.3,0-2,0.8-2,2.1v3.5h-0.9V433.3z"/>
</g>
<rect x="0.9" y="39.4" class="st2" width="124.1" height="28.8"/>
<g class="st3">
	<path d="M26.5,45.5c0.1,1.4,1.2,1.7,1.7,1.7c0.9,0,1.7-0.7,1.7-1.6c0-1.2-1-1.5-2-1.8c-0.7-0.2-2.2-0.6-2.2-2.3
		c0-1.5,1.2-2.4,2.5-2.4c1.1,0,2.3,0.6,2.4,2.2h-0.9c-0.1-0.6-0.4-1.4-1.5-1.4c-0.9,0-1.6,0.6-1.6,1.5c0,1,0.8,1.3,2.1,1.7
		c0.8,0.3,2.1,0.8,2.1,2.3c0,1.4-1,2.5-2.6,2.5c-1.4,0-2.6-0.9-2.7-2.5H26.5z"/>
	<path d="M31.7,44.8c0-1.7,1.3-3.3,3.3-3.3c2,0,3.3,1.5,3.3,3.3c0,1.7-1.3,3.3-3.3,3.3C33,48.1,31.7,46.5,31.7,44.8L31.7,44.8z
		 M32.6,44.8c0,1.4,1.1,2.5,2.4,2.5c1.4,0,2.4-1.1,2.4-2.5c0-1.4-1.1-2.5-2.4-2.5C33.7,42.3,32.6,43.4,32.6,44.8L32.6,44.8z"/>
	<path d="M45.7,45.8c-0.4,1.3-1.6,2.3-3.1,2.3c-2.1,0-3.3-1.6-3.3-3.3c0-1.8,1.4-3.3,3.3-3.3c1.4,0,2.7,0.8,3.2,2.3h-0.9
		c-0.4-1-1.4-1.5-2.2-1.5c-0.7,0-1.2,0.2-1.8,0.7c-0.4,0.4-0.7,1.1-0.7,1.8c0,1.5,1.1,2.5,2.4,2.5c1.2,0,2-0.7,2.2-1.5H45.7z"/>
	<path d="M46.9,39.4h0.9v1.2h-0.9V39.4z M46.9,41.7h0.9v6.2h-0.9V41.7z"/>
	<path d="M55.6,47.9h-0.9v-1.3c-0.5,0.9-1.4,1.5-2.5,1.5c-2,0-3.2-1.6-3.2-3.3c0-1.8,1.3-3.3,3.2-3.3c1.3,0,2.2,0.8,2.5,1.5v-1.3
		h0.9V47.9z M49.8,44.8c0,1.1,0.8,2.5,2.5,2.5c1.1,0,1.9-0.6,2.2-1.5c0.1-0.3,0.2-0.6,0.2-1c0-0.3-0.1-0.7-0.2-1
		c-0.3-0.9-1.2-1.5-2.3-1.5C50.9,42.3,49.8,43.4,49.8,44.8L49.8,44.8z"/>
	<path d="M57.3,39.4h0.9v8.5h-0.9V39.4z"/>
	<path d="M63.1,41.7h0.8v1c0.4-0.8,1.3-1.2,2-1.2c0.6,0,1.3,0.2,1.7,0.7c0.2,0.2,0.4,0.6,0.4,0.6c0.1-0.2,0.2-0.4,0.4-0.7
		c0.4-0.4,1-0.7,1.7-0.7c0.6,0,1.2,0.2,1.7,0.6c0.5,0.5,0.7,1.2,0.7,2.3v3.4h-0.9v-3.4c0-0.7-0.1-1.2-0.5-1.7
		c-0.3-0.3-0.6-0.5-1.2-0.5c-0.5,0-1.1,0.2-1.4,0.6c-0.3,0.4-0.4,0.8-0.4,1.5v3.4h-0.9v-3.4c0-0.7-0.1-1.1-0.3-1.5
		c-0.3-0.4-0.7-0.6-1.4-0.7c-0.6,0-1.1,0.3-1.3,0.6c-0.3,0.4-0.4,0.8-0.4,1.5v3.5h-0.9V41.7z"/>
	<path d="M74.5,45c0,1.6,1.4,2.3,2.4,2.3c1,0,1.7-0.5,2.1-1.3h0.9c-0.3,0.7-0.7,1.2-1.3,1.5c-0.5,0.3-1.1,0.5-1.8,0.5
		c-2.2,0-3.3-1.7-3.3-3.3c0-1.8,1.4-3.3,3.3-3.3c0.9,0,1.7,0.3,2.3,0.9c0.7,0.7,1.1,1.7,1,2.6H74.5z M79.3,44.3
		c-0.1-1.1-1.1-2.1-2.4-2.1c-1.3,0-2.3,1-2.4,2.1H79.3z"/>
	<path d="M87.6,47.9h-0.8v-1.3c-0.4,0.8-1.3,1.5-2.6,1.5c-2,0-3.2-1.5-3.2-3.3c0-1.8,1.3-3.3,3.2-3.3c1.4,0,2.3,0.8,2.5,1.4v-1.3
		v-2.3h0.9V47.9z M81.8,44.8c0,1.2,0.9,2.5,2.5,2.5c0.7,0,1.3-0.3,1.8-0.7c0.4-0.5,0.7-1.1,0.7-1.8c0-0.7-0.3-1.3-0.7-1.7
		c-0.4-0.4-1.1-0.7-1.8-0.7C82.9,42.3,81.8,43.4,81.8,44.8L81.8,44.8z"/>
	<path d="M89.2,39.4h0.9v1.2h-0.9V39.4z M89.2,41.7h0.9v6.2h-0.9V41.7z"/>
	<path d="M98,47.9h-0.9v-1.3c-0.5,0.9-1.4,1.5-2.5,1.5c-2,0-3.2-1.6-3.2-3.3c0-1.8,1.3-3.3,3.2-3.3c1.3,0,2.2,0.8,2.5,1.5v-1.3H98
		V47.9z M92.2,44.8c0,1.1,0.8,2.5,2.5,2.5c1.1,0,1.9-0.6,2.2-1.5c0.1-0.3,0.2-0.6,0.2-1c0-0.3-0.1-0.7-0.2-1
		c-0.3-0.9-1.2-1.5-2.3-1.5C93.3,42.3,92.2,43.4,92.2,44.8L92.2,44.8z"/>
</g>
<g class="st3">
	<path d="M33.7,55.5h0.8v1.3c0.5-0.9,1.4-1.5,2.6-1.5c2.1,0,3.2,1.7,3.2,3.3c0,1.7-1.3,3.3-3.2,3.3c-1.4,0-2.3-0.8-2.5-1.4v1.3V64
		h-0.9V55.5z M39.5,58.6c0-1.2-0.8-2.5-2.5-2.5c-0.7,0-1.3,0.3-1.8,0.7c-0.4,0.5-0.7,1.1-0.7,1.8c0,0.7,0.3,1.3,0.7,1.8
		c0.4,0.4,1.1,0.7,1.8,0.7C38.4,61.1,39.5,60,39.5,58.6L39.5,58.6z"/>
	<path d="M41.6,55.5h0.8v1c0.4-0.9,1.3-1.2,2-1.2v0.8h-0.1c-1.2,0-1.9,0.8-1.9,2.2v3.4h-0.8V55.5z"/>
	<path d="M44.5,58.6c0-1.7,1.3-3.3,3.3-3.3c2,0,3.3,1.5,3.3,3.3c0,1.7-1.3,3.3-3.3,3.3C45.8,61.9,44.5,60.3,44.5,58.6L44.5,58.6z
		 M45.3,58.6c0,1.4,1.1,2.5,2.4,2.5c1.4,0,2.4-1.1,2.4-2.5c0-1.4-1.1-2.5-2.4-2.5C46.4,56.1,45.3,57.2,45.3,58.6L45.3,58.6z"/>
	<path d="M52.3,55.5h0.8v1c0.4-0.8,1.3-1.2,2-1.2c0.6,0,1.3,0.2,1.7,0.7c0.2,0.2,0.4,0.6,0.4,0.6c0.1-0.2,0.2-0.4,0.4-0.7
		c0.4-0.4,1-0.7,1.7-0.7c0.6,0,1.2,0.2,1.7,0.6c0.5,0.5,0.7,1.2,0.7,2.3v3.4h-0.9v-3.4c0-0.7-0.1-1.2-0.5-1.7
		c-0.3-0.3-0.6-0.5-1.2-0.5c-0.5,0-1.1,0.2-1.4,0.6c-0.3,0.4-0.4,0.8-0.4,1.5v3.4h-0.9v-3.4c0-0.7-0.1-1.1-0.3-1.5
		c-0.3-0.4-0.7-0.6-1.4-0.7c-0.6,0-1.1,0.3-1.3,0.6c-0.3,0.4-0.4,0.8-0.4,1.5v3.5h-0.9V55.5z"/>
	<path d="M63,58.6c0-1.7,1.3-3.3,3.3-3.3c2,0,3.3,1.5,3.3,3.3c0,1.7-1.3,3.3-3.3,3.3C64.3,61.9,63,60.3,63,58.6L63,58.6z M63.8,58.6
		c0,1.4,1.1,2.5,2.4,2.5c1.4,0,2.4-1.1,2.4-2.5c0-1.4-1.1-2.5-2.4-2.5C64.9,56.1,63.8,57.2,63.8,58.6L63.8,58.6z"/>
	<path d="M71.3,56.2h-1.2v-0.7h1.2v-2.3h0.8v2.3h1.4v0.7h-1.4v5.5h-0.8V56.2z"/>
	<path d="M74.5,53.2h0.9v1.2h-0.9V53.2z M74.5,55.5h0.9v6.2h-0.9V55.5z"/>
	<path d="M76.6,58.6c0-1.7,1.3-3.3,3.3-3.3c2,0,3.3,1.5,3.3,3.3c0,1.7-1.3,3.3-3.3,3.3C77.9,61.9,76.6,60.3,76.6,58.6L76.6,58.6z
		 M77.4,58.6c0,1.4,1.1,2.5,2.4,2.5c1.4,0,2.4-1.1,2.4-2.5c0-1.4-1.1-2.5-2.4-2.5C78.5,56.1,77.4,57.2,77.4,58.6L77.4,58.6z"/>
	<path d="M84.5,55.5h0.8c0,0.3,0,0.7,0,1.1c0.4-0.8,1.2-1.3,2.3-1.3c1.9,0,2.6,1.3,2.6,2.8v3.5h-0.8v-3.4c0-1.3-0.6-2.2-2-2.2
		c-1.3,0-2,0.8-2,2.1v3.5h-0.9V55.5z"/>
</g>
<rect x="576" y="140" class="st2" width="152" height="49"/>
<g class="st3">
	<path d="M632.4,146.2c0.1,1.4,1.2,1.7,1.7,1.7c0.9,0,1.7-0.7,1.7-1.6c0-1.2-1-1.5-2-1.8c-0.7-0.2-2.2-0.6-2.2-2.3
		c0-1.5,1.2-2.4,2.5-2.4c1.1,0,2.3,0.6,2.4,2.2h-0.9c-0.1-0.6-0.4-1.4-1.5-1.4c-0.9,0-1.6,0.6-1.6,1.5c0,1,0.8,1.3,2.1,1.7
		c0.8,0.3,2.1,0.8,2.1,2.3c0,1.4-1,2.5-2.6,2.5c-1.4,0-2.6-0.9-2.7-2.5H632.4z"/>
	<path d="M638,140h0.9v1.2H638V140z M638,142.3h0.9v6.2H638V142.3z"/>
	<path d="M646.7,147.8c0,1.2-0.4,1.9-0.9,2.4c-0.6,0.6-1.5,1-2.4,1c-1.5,0-2.7-0.9-3.1-2h1c0.1,0.3,0.4,0.6,0.7,0.8
		c0.5,0.3,1,0.4,1.4,0.4c1.2,0,2.4-0.9,2.4-2.5v-0.8c-0.4,0.9-1.3,1.5-2.5,1.5c-1.9,0-3.2-1.5-3.2-3.3c0-1.9,1.3-3.3,3.2-3.3
		c1.2,0,2.2,0.7,2.5,1.5v-1.3h0.8V147.8z M641,145.4c0,1.3,0.9,2.5,2.5,2.5c0.7,0,1.3-0.3,1.7-0.7c0.4-0.5,0.7-1.1,0.7-1.8
		c0-0.5-0.2-1.1-0.6-1.6c-0.4-0.5-1-0.9-1.9-0.9C642.1,142.9,641,144,641,145.4L641,145.4z"/>
	<path d="M648.4,142.3h0.8c0,0.3,0,0.7,0,1.1c0.4-0.8,1.2-1.3,2.3-1.3c1.9,0,2.6,1.3,2.6,2.8v3.5h-0.8v-3.4c0-1.3-0.6-2.2-2-2.2
		c-1.3,0-2,0.8-2,2.1v3.5h-0.9V142.3z"/>
	<path d="M660,140v5.4c0,0.6,0,1.1,0.4,1.7c0.3,0.4,0.9,0.7,1.5,0.7c0.6,0,1.2-0.3,1.5-0.7c0.4-0.6,0.4-1.1,0.4-1.7V140h0.9v5.4
		c0,1-0.1,2-1,2.6c-0.5,0.4-1.1,0.6-1.8,0.6c-0.6,0-1.3-0.2-1.9-0.6c-0.9-0.7-1-1.7-1-2.6V140H660z"/>
	<path d="M668.6,140c1.2,0,1.8,0.1,2.3,0.5c0.6,0.4,0.9,1.2,0.9,2c0,0.8-0.4,1.6-0.9,2c-0.6,0.4-1.1,0.6-2.2,0.6h-1.4v3.4h-1V140
		H668.6z M667.3,144.3h1.4c0.7,0,1.2-0.1,1.6-0.4c0.4-0.2,0.6-0.8,0.6-1.4c0-0.6-0.3-1.2-0.6-1.4c-0.4-0.3-0.9-0.4-1.6-0.4h-1.3
		V144.3z"/>
</g>
<g class="st3">
	<path d="M598.9,154.6c-1.4,0.8-2.7,2.7-2.7,4.9c0,2.2,1.3,4.1,2.7,4.9v1c-2.4-1.2-3.6-3.5-3.6-5.9c0-2.3,1.3-4.8,3.6-5.9V154.6z"/>
	<path d="M600.7,160c0.1,1.4,1.2,1.7,1.7,1.7c0.9,0,1.7-0.7,1.7-1.6c0-1.2-1-1.5-2-1.8c-0.7-0.2-2.2-0.6-2.2-2.3
		c0-1.5,1.2-2.4,2.5-2.4c1.1,0,2.3,0.6,2.4,2.2h-0.9c-0.1-0.6-0.4-1.4-1.5-1.4c-0.9,0-1.6,0.6-1.6,1.5c0,1,0.8,1.3,2.1,1.7
		c0.8,0.3,2.1,0.8,2.1,2.3c0,1.4-1,2.5-2.6,2.5c-1.4,0-2.6-0.9-2.7-2.5H600.7z"/>
	<path d="M605.9,159.2c0-1.7,1.3-3.3,3.3-3.3c2,0,3.3,1.5,3.3,3.3c0,1.7-1.3,3.3-3.3,3.3C607.2,162.5,605.9,161,605.9,159.2
		L605.9,159.2z M606.8,159.2c0,1.4,1.1,2.5,2.4,2.5c1.4,0,2.4-1.1,2.4-2.5c0-1.4-1.1-2.5-2.4-2.5
		C607.8,156.7,606.8,157.8,606.8,159.2L606.8,159.2z"/>
	<path d="M619.8,160.2c-0.4,1.3-1.6,2.3-3.1,2.3c-2.1,0-3.3-1.6-3.3-3.3c0-1.8,1.4-3.3,3.3-3.3c1.4,0,2.7,0.8,3.2,2.3H619
		c-0.4-1-1.4-1.5-2.2-1.5c-0.7,0-1.2,0.2-1.8,0.7c-0.4,0.4-0.7,1.1-0.7,1.8c0,1.5,1.1,2.5,2.4,2.5c1.2,0,2-0.7,2.2-1.5H619.8z"/>
	<path d="M621.1,153.8h0.9v1.2h-0.9V153.8z M621.1,156.1h0.9v6.2h-0.9V156.1z"/>
	<path d="M629.8,162.3h-0.9v-1.3c-0.5,0.9-1.4,1.5-2.5,1.5c-2,0-3.2-1.6-3.2-3.3c0-1.8,1.3-3.3,3.2-3.3c1.3,0,2.2,0.8,2.5,1.5v-1.3
		h0.9V162.3z M624,159.2c0,1.1,0.8,2.5,2.5,2.5c1.1,0,1.9-0.6,2.2-1.5c0.1-0.3,0.2-0.6,0.2-1c0-0.3-0.1-0.7-0.2-1
		c-0.3-0.9-1.2-1.5-2.3-1.5C625.1,156.7,624,157.8,624,159.2L624,159.2z"/>
	<path d="M631.5,153.8h0.9v8.5h-0.9V153.8z"/>
	<path d="M637.3,162.3v-8.5h1.3l3.2,7.2l3.1-7.2h1.3v8.5h-0.9l0-7.6l-3.3,7.6h-0.6l-3.3-7.6l0,7.6H637.3z"/>
	<path d="M648.3,159.5c0,1.6,1.4,2.3,2.4,2.3c1,0,1.7-0.5,2.1-1.3h0.9c-0.3,0.7-0.7,1.2-1.3,1.5c-0.5,0.3-1.1,0.5-1.8,0.5
		c-2.2,0-3.3-1.7-3.3-3.3c0-1.8,1.4-3.3,3.3-3.3c0.9,0,1.7,0.3,2.3,0.9c0.7,0.7,1.1,1.7,1,2.6H648.3z M653.2,158.8
		c-0.1-1.1-1.1-2.1-2.4-2.1c-1.3,0-2.3,1-2.4,2.1H653.2z"/>
	<path d="M661.4,162.3h-0.8v-1.3c-0.4,0.8-1.3,1.5-2.6,1.5c-2,0-3.2-1.5-3.2-3.3c0-1.8,1.3-3.3,3.2-3.3c1.4,0,2.3,0.8,2.5,1.4v-1.3
		v-2.3h0.9V162.3z M655.7,159.2c0,1.2,0.9,2.5,2.5,2.5c0.7,0,1.3-0.3,1.8-0.7c0.5-0.5,0.7-1.1,0.7-1.8c0-0.7-0.3-1.3-0.7-1.7
		c-0.4-0.4-1.1-0.7-1.8-0.7C656.7,156.7,655.7,157.8,655.7,159.2L655.7,159.2z"/>
	<path d="M663.1,153.8h0.9v1.2h-0.9V153.8z M663.1,156.1h0.9v6.2h-0.9V156.1z"/>
	<path d="M671.8,162.3H671v-1.3c-0.5,0.9-1.4,1.5-2.5,1.5c-2,0-3.2-1.6-3.2-3.3c0-1.8,1.3-3.3,3.2-3.3c1.3,0,2.2,0.8,2.5,1.5v-1.3
		h0.9V162.3z M666.1,159.2c0,1.1,0.8,2.5,2.5,2.5c1.1,0,1.9-0.6,2.2-1.5c0.1-0.3,0.2-0.6,0.2-1c0-0.3-0.1-0.7-0.2-1
		c-0.3-0.9-1.2-1.5-2.3-1.5C667.1,156.7,666.1,157.8,666.1,159.2L666.1,159.2z"/>
	<path d="M676.4,158.1c0-2.6,2-4.4,4.5-4.4c2.5,0,4.5,1.9,4.5,4.4c0,2.5-1.9,4.4-4.5,4.4C678.4,162.5,676.4,160.5,676.4,158.1
		L676.4,158.1z M677.4,158.1c0,2,1.5,3.6,3.5,3.6c2,0,3.5-1.6,3.5-3.6c0-1.9-1.5-3.6-3.5-3.6C678.9,154.5,677.4,156.1,677.4,158.1
		L677.4,158.1z"/>
	<path d="M686.6,156.1h0.8c0,0.3,0,0.7,0,1.1c0.4-0.8,1.2-1.3,2.3-1.3c1.9,0,2.6,1.3,2.6,2.8v3.5h-0.8V159c0-1.3-0.6-2.2-2-2.2
		c-1.3,0-2,0.8-2,2.1v3.5h-0.9V156.1z"/>
	<path d="M694,153.8h0.9v8.5H694V153.8z"/>
	<path d="M698.1,162.2l-2.4-6.1h0.9l2,5l2-5h0.9l-3.5,8.6h-0.9L698.1,162.2z"/>
	<path d="M702,164.5c1.4-0.8,2.7-2.7,2.7-4.9c0-2.2-1.3-4.1-2.7-4.9v-1c2.4,1.2,3.6,3.5,3.6,5.9c0,2.3-1.3,4.8-3.6,5.9V164.5z"/>
</g>
<rect x="395.1" y="217" class="st2" width="126.1" height="43.6"/>
<g class="st3">
	<path d="M430.1,223.2c0.1,1.4,1.2,1.7,1.7,1.7c0.9,0,1.7-0.7,1.7-1.6c0-1.2-1-1.5-2-1.8c-0.7-0.2-2.2-0.6-2.2-2.3
		c0-1.5,1.2-2.4,2.5-2.4c1.1,0,2.3,0.6,2.4,2.2h-0.9c-0.1-0.6-0.4-1.4-1.5-1.4c-0.9,0-1.6,0.6-1.6,1.5c0,1,0.8,1.3,2.1,1.7
		c0.8,0.3,2.1,0.8,2.1,2.3c0,1.4-1,2.5-2.6,2.5c-1.4,0-2.6-0.9-2.7-2.5H430.1z"/>
	<path d="M436.1,222.7c0,1.6,1.4,2.3,2.4,2.3c1,0,1.7-0.5,2.1-1.3h0.9c-0.3,0.7-0.7,1.2-1.3,1.5c-0.5,0.3-1.1,0.5-1.8,0.5
		c-2.2,0-3.3-1.7-3.3-3.3c0-1.8,1.4-3.3,3.3-3.3c0.9,0,1.7,0.3,2.3,0.9c0.7,0.7,1.1,1.7,1,2.6H436.1z M440.9,222
		c-0.1-1.1-1.1-2.1-2.4-2.1c-1.3,0-2.3,1-2.4,2.1H440.9z"/>
	<path d="M449.2,225.5h-0.9v-1.3c-0.5,0.9-1.4,1.5-2.5,1.5c-2,0-3.2-1.6-3.2-3.3c0-1.8,1.3-3.3,3.2-3.3c1.3,0,2.2,0.8,2.5,1.5v-1.3
		h0.9V225.5z M443.4,222.4c0,1.1,0.8,2.5,2.5,2.5c1.1,0,1.9-0.6,2.2-1.5c0.1-0.3,0.2-0.6,0.2-1c0-0.3-0.1-0.7-0.2-1
		c-0.3-0.9-1.2-1.5-2.3-1.5C444.5,219.9,443.4,221,443.4,222.4L443.4,222.4z"/>
	<path d="M450.9,219.3h0.8v1c0.5-0.9,1.3-1.2,2-1.2v0.8h-0.1c-1.2,0-1.9,0.8-1.9,2.2v3.4h-0.8V219.3z"/>
	<path d="M460.1,223.4c-0.4,1.3-1.6,2.3-3.1,2.3c-2.1,0-3.3-1.6-3.3-3.3c0-1.8,1.4-3.3,3.3-3.3c1.4,0,2.7,0.8,3.2,2.3h-0.9
		c-0.4-1-1.4-1.5-2.2-1.5c-0.7,0-1.2,0.2-1.8,0.7c-0.4,0.4-0.7,1.1-0.7,1.8c0,1.5,1.1,2.5,2.4,2.5c1.2,0,2-0.7,2.2-1.5H460.1z"/>
	<path d="M461.3,217h0.9v2.3v1.1c0.4-0.8,1.3-1.2,2.2-1.2c1,0,1.6,0.3,2.1,0.9c0.4,0.5,0.6,1.3,0.6,2.2v3.3h-0.8v-3.3
		c0-0.7-0.1-1.2-0.5-1.6c-0.3-0.4-0.8-0.6-1.6-0.6c-0.7,0-1.2,0.2-1.5,0.6c-0.3,0.4-0.5,0.9-0.5,1.4v3.5h-0.9V217z"/>
	<path d="M472.1,220h-0.9v-0.7h0.9v-0.5c0-1.9,1.5-2,2.2-2v0.7c-0.4,0-1.3,0-1.3,1.4v0.4h1.3v0.7H473v5.5h-0.8V220z"/>
	<path d="M474.5,222.4c0-1.7,1.3-3.3,3.3-3.3c2,0,3.3,1.5,3.3,3.3c0,1.7-1.3,3.3-3.3,3.3C475.8,225.7,474.5,224.2,474.5,222.4
		L474.5,222.4z M475.3,222.4c0,1.4,1.1,2.5,2.4,2.5c1.4,0,2.4-1.1,2.4-2.5c0-1.4-1.1-2.5-2.4-2.5C476.4,219.9,475.3,221,475.3,222.4
		L475.3,222.4z"/>
	<path d="M482.4,219.3h0.8v1c0.5-0.9,1.3-1.2,2-1.2v0.8h-0.1c-1.2,0-1.9,0.8-1.9,2.2v3.4h-0.8V219.3z"/>
</g>
<g class="st3">
	<path d="M425.4,233.1h0.8v1.3c0.5-0.9,1.4-1.5,2.6-1.5c2.1,0,3.2,1.7,3.2,3.3c0,1.7-1.3,3.3-3.2,3.3c-1.4,0-2.3-0.8-2.5-1.4v1.3
		v2.4h-0.9V233.1z M431.1,236.2c0-1.2-0.8-2.5-2.5-2.5c-0.7,0-1.3,0.3-1.8,0.7c-0.4,0.5-0.7,1.1-0.7,1.8c0,0.7,0.3,1.3,0.7,1.8
		c0.4,0.4,1.1,0.7,1.8,0.7C430,238.7,431.1,237.6,431.1,236.2L431.1,236.2z"/>
	<path d="M433.2,230.8h0.9v8.5h-0.9V230.8z"/>
	<path d="M442,239.3h-0.9v-1.3c-0.5,0.9-1.4,1.5-2.5,1.5c-2,0-3.2-1.6-3.2-3.3c0-1.8,1.3-3.3,3.2-3.3c1.3,0,2.2,0.8,2.5,1.5v-1.3
		h0.9V239.3z M436.2,236.2c0,1.1,0.8,2.5,2.5,2.5c1.1,0,1.9-0.6,2.2-1.5c0.1-0.3,0.2-0.6,0.2-1c0-0.3-0.1-0.7-0.2-1
		c-0.3-0.9-1.2-1.5-2.3-1.5C437.2,233.7,436.2,234.8,436.2,236.2L436.2,236.2z"/>
	<path d="M445.2,239.2l-2.4-6.1h0.9l1.9,5l2-5h0.9l-3.5,8.6h-0.9L445.2,239.2z"/>
	<path d="M455.7,238.6c0,1.2-0.4,1.9-0.9,2.4c-0.6,0.6-1.5,1-2.4,1c-1.5,0-2.7-0.9-3.1-2h1c0.1,0.3,0.4,0.6,0.7,0.8
		c0.4,0.3,1,0.4,1.4,0.4c1.2,0,2.4-0.9,2.4-2.5V238c-0.4,0.9-1.3,1.5-2.5,1.5c-1.9,0-3.2-1.5-3.2-3.3c0-1.9,1.3-3.3,3.2-3.3
		c1.2,0,2.2,0.7,2.5,1.5v-1.3h0.8V238.6z M449.9,236.2c0,1.3,0.9,2.5,2.5,2.5c0.7,0,1.3-0.3,1.7-0.7c0.4-0.5,0.7-1.1,0.7-1.8
		c0-0.5-0.2-1.1-0.6-1.6c-0.4-0.5-1-0.9-1.9-0.9C451,233.7,449.9,234.8,449.9,236.2L449.9,236.2z"/>
	<path d="M457.3,233.1h0.8v1c0.4-0.9,1.3-1.2,2-1.2v0.8H460c-1.2,0-1.9,0.8-1.9,2.2v3.4h-0.8V233.1z"/>
	<path d="M460.2,236.2c0-1.7,1.3-3.3,3.3-3.3c2,0,3.3,1.5,3.3,3.3c0,1.7-1.3,3.3-3.3,3.3C461.4,239.5,460.2,238,460.2,236.2
		L460.2,236.2z M461,236.2c0,1.4,1.1,2.5,2.4,2.5c1.4,0,2.4-1.1,2.4-2.5c0-1.4-1.1-2.5-2.4-2.5C462.1,233.7,461,234.8,461,236.2
		L461,236.2z"/>
	<path d="M473.7,239.3h-0.8v-1.1c-0.3,0.8-1.2,1.3-2.3,1.3c-1.9,0-2.6-1.3-2.6-2.9v-3.5h0.8v3.4c0,1.3,0.6,2.2,2,2.2
		c1.3,0,2-0.8,2-2.1v-3.5h0.9V239.3z"/>
	<path d="M475.4,233.1h0.8c0,0.3,0,0.7,0,1.1c0.4-0.8,1.2-1.3,2.3-1.3c1.9,0,2.6,1.3,2.6,2.8v3.5h-0.8V236c0-1.3-0.6-2.2-2-2.2
		c-1.3,0-2,0.8-2,2.1v3.5h-0.9V233.1z"/>
	<path d="M488.9,239.3h-0.8v-1.3c-0.4,0.8-1.3,1.5-2.6,1.5c-2,0-3.2-1.5-3.2-3.3c0-1.8,1.3-3.3,3.2-3.3c1.4,0,2.3,0.8,2.5,1.4v-1.3
		v-2.3h0.9V239.3z M483.2,236.2c0,1.2,0.9,2.5,2.5,2.5c0.7,0,1.3-0.3,1.8-0.7c0.4-0.5,0.7-1.1,0.7-1.8c0-0.7-0.3-1.3-0.7-1.7
		c-0.4-0.4-1.1-0.7-1.8-0.7C484.3,233.7,483.2,234.8,483.2,236.2L483.2,236.2z"/>
</g>
<rect x="234.4" y="215.8" class="st2" width="127" height="28.8"/>
<g class="st3">
	<path d="M267.6,215.8h4.3v0.8h-3.4v3h3.4v0.9h-3.4v3.8h-0.9V215.8z"/>
	<path d="M272.6,221.2c0-1.7,1.3-3.3,3.3-3.3c2,0,3.3,1.5,3.3,3.3c0,1.7-1.3,3.3-3.3,3.3C273.8,224.5,272.6,223,272.6,221.2
		L272.6,221.2z M273.4,221.3c0,1.4,1.1,2.5,2.4,2.5c1.4,0,2.4-1.1,2.4-2.5c0-1.4-1.1-2.5-2.4-2.5
		C274.5,218.8,273.4,219.8,273.4,221.3L273.4,221.3z"/>
	<path d="M280.4,218.1h0.8v1c0.4-0.9,1.3-1.2,2-1.2v0.8h-0.1c-1.2,0-1.9,0.8-1.9,2.2v3.4h-0.8V218.1z"/>
	<path d="M284.1,218.1h0.8v1c0.4-0.8,1.3-1.2,2-1.2c0.6,0,1.3,0.2,1.7,0.7c0.2,0.2,0.4,0.6,0.4,0.6c0.1-0.2,0.2-0.4,0.4-0.7
		c0.4-0.4,1-0.7,1.7-0.7c0.6,0,1.2,0.2,1.7,0.6c0.5,0.5,0.7,1.2,0.7,2.3v3.4h-0.9v-3.4c0-0.7-0.1-1.2-0.5-1.7
		c-0.3-0.3-0.6-0.5-1.2-0.5c-0.5,0-1.1,0.2-1.4,0.6c-0.3,0.4-0.4,0.8-0.4,1.5v3.4h-0.9v-3.4c0-0.7-0.1-1.1-0.3-1.5
		c-0.3-0.4-0.7-0.6-1.4-0.7c-0.6,0-1.1,0.3-1.3,0.6c-0.3,0.4-0.4,0.8-0.4,1.5v3.5h-0.9V218.1z"/>
	<path d="M299,218.8h-1.2v-0.7h1.2v-2.3h0.8v2.3h1.4v0.7h-1.4v5.5H299V218.8z"/>
	<path d="M302.1,221.5c0,1.6,1.4,2.3,2.4,2.3c1,0,1.7-0.5,2.1-1.3h0.9c-0.3,0.7-0.7,1.2-1.3,1.5c-0.5,0.3-1.1,0.5-1.8,0.5
		c-2.2,0-3.3-1.7-3.3-3.3c0-1.8,1.4-3.3,3.3-3.3c0.9,0,1.7,0.3,2.3,0.9c0.7,0.7,1.1,1.7,1,2.6H302.1z M306.9,220.8
		c-0.1-1.1-1.1-2.1-2.4-2.1c-1.3,0-2.3,1-2.4,2.1H306.9z"/>
	<path d="M315.2,224.4h-0.9v-1.3c-0.5,0.9-1.4,1.5-2.5,1.5c-2,0-3.2-1.6-3.2-3.3c0-1.8,1.3-3.3,3.2-3.3c1.3,0,2.2,0.8,2.5,1.5v-1.3
		h0.9V224.4z M309.4,221.3c0,1.1,0.8,2.5,2.5,2.5c1.1,0,1.9-0.6,2.2-1.5c0.1-0.3,0.2-0.6,0.2-1c0-0.3-0.1-0.7-0.2-1
		c-0.3-0.9-1.2-1.5-2.3-1.5C310.5,218.8,309.4,219.9,309.4,221.3L309.4,221.3z"/>
	<path d="M316.9,218.1h0.8v1c0.4-0.8,1.3-1.2,2-1.2c0.6,0,1.3,0.2,1.7,0.7c0.2,0.2,0.4,0.6,0.4,0.6c0.1-0.2,0.2-0.4,0.4-0.7
		c0.4-0.4,1-0.7,1.7-0.7c0.6,0,1.2,0.2,1.7,0.6c0.5,0.5,0.7,1.2,0.7,2.3v3.4h-0.9v-3.4c0-0.7-0.1-1.2-0.5-1.7
		c-0.3-0.3-0.6-0.5-1.2-0.5c-0.5,0-1.1,0.2-1.4,0.6c-0.3,0.4-0.4,0.8-0.4,1.5v3.4h-0.9v-3.4c0-0.7-0.1-1.1-0.3-1.5
		c-0.3-0.4-0.7-0.6-1.4-0.7c-0.6,0-1.1,0.3-1.3,0.6c-0.3,0.4-0.4,0.8-0.4,1.5v3.5h-0.9V218.1z"/>
</g>
<g class="st3">
	<path d="M263.5,235c0-1.7,1.3-3.3,3.3-3.3c2,0,3.3,1.5,3.3,3.3c0,1.7-1.3,3.3-3.3,3.3C264.8,238.3,263.5,236.8,263.5,235L263.5,235
		z M264.3,235.1c0,1.4,1.1,2.5,2.4,2.5c1.4,0,2.4-1.1,2.4-2.5c0-1.4-1.1-2.5-2.4-2.5C265.4,232.6,264.3,233.6,264.3,235.1
		L264.3,235.1z"/>
	<path d="M271.3,231.9h0.8v1c0.4-0.9,1.3-1.2,2-1.2v0.8H274c-1.2,0-1.9,0.8-1.9,2.2v3.4h-0.8V231.9z"/>
	<path d="M279.4,238.1c0,1.1-0.1,2.3-1.7,2.5c-0.1,0-0.2,0-0.3,0v-0.7c0.1,0,0.1,0,0.2,0c0.9-0.1,1-0.8,1-1.8v-6.1h0.9V238.1z
		 M278.6,229.6h0.9v1.2h-0.9V229.6z"/>
	<path d="M280.9,235c0-1.7,1.3-3.3,3.3-3.3c2,0,3.3,1.5,3.3,3.3c0,1.7-1.3,3.3-3.3,3.3C282.2,238.3,280.9,236.8,280.9,235L280.9,235
		z M281.7,235.1c0,1.4,1.1,2.5,2.4,2.5c1.4,0,2.4-1.1,2.4-2.5c0-1.4-1.1-2.5-2.4-2.5C282.8,232.6,281.7,233.6,281.7,235.1
		L281.7,235.1z"/>
	<path d="M288.8,229.6h0.9v1.2h-0.9V229.6z M288.8,231.9h0.9v6.2h-0.9V231.9z"/>
	<path d="M291.3,231.9h0.8c0,0.3,0,0.7,0,1.1c0.4-0.8,1.2-1.3,2.3-1.3c1.9,0,2.6,1.3,2.6,2.8v3.5h-0.8v-3.4c0-1.3-0.6-2.2-2-2.2
		c-1.3,0-2,0.8-2,2.1v3.5h-0.9V231.9z"/>
	<path d="M302.4,232.6h-1.2v-0.7h1.2v-2.3h0.8v2.3h1.4v0.7h-1.4v5.5h-0.8V232.6z"/>
	<path d="M305.6,235.3c0,1.6,1.4,2.3,2.4,2.3c1,0,1.7-0.5,2.1-1.3h0.9c-0.3,0.7-0.7,1.2-1.3,1.5c-0.5,0.3-1.1,0.5-1.8,0.5
		c-2.2,0-3.3-1.7-3.3-3.3c0-1.8,1.4-3.3,3.3-3.3c0.9,0,1.7,0.3,2.3,0.9c0.7,0.7,1.1,1.7,1,2.6H305.6z M310.4,234.6
		c-0.1-1.1-1.1-2.1-2.4-2.1c-1.3,0-2.3,1-2.4,2.1H310.4z"/>
	<path d="M318.7,238.2h-0.9v-1.3c-0.5,0.9-1.4,1.5-2.5,1.5c-2,0-3.2-1.6-3.2-3.3c0-1.8,1.3-3.3,3.2-3.3c1.3,0,2.2,0.8,2.5,1.5v-1.3
		h0.9V238.2z M312.9,235.1c0,1.1,0.8,2.5,2.5,2.5c1.1,0,1.9-0.6,2.2-1.5c0.1-0.3,0.2-0.6,0.2-1c0-0.3-0.1-0.7-0.2-1
		c-0.3-0.9-1.2-1.5-2.3-1.5C314,232.6,312.9,233.7,312.9,235.1L312.9,235.1z"/>
	<path d="M320.4,231.9h0.8v1c0.4-0.8,1.3-1.2,2-1.2c0.6,0,1.3,0.2,1.7,0.7c0.2,0.2,0.4,0.6,0.4,0.6c0.1-0.2,0.2-0.4,0.4-0.7
		c0.4-0.4,1-0.7,1.7-0.7c0.6,0,1.2,0.2,1.7,0.6c0.5,0.5,0.7,1.2,0.7,2.3v3.4h-0.9v-3.4c0-0.7-0.1-1.2-0.5-1.7
		c-0.3-0.3-0.6-0.5-1.2-0.5c-0.5,0-1.1,0.2-1.4,0.6c-0.3,0.4-0.4,0.8-0.4,1.5v3.4h-0.9v-3.4c0-0.7-0.1-1.1-0.3-1.5
		c-0.3-0.4-0.7-0.6-1.4-0.7c-0.6,0-1.1,0.3-1.3,0.6c-0.3,0.4-0.4,0.8-0.4,1.5v3.5h-0.9V231.9z"/>
</g>
<rect x="34.5" y="216.3" class="st2" width="163" height="28.8"/>
<g class="st3">
	<path d="M64.6,216.3c1.2,0,1.8,0.1,2.3,0.5c0.6,0.4,0.9,1.2,0.9,2c0,0.8-0.4,1.6-0.9,2c-0.6,0.4-1.1,0.6-2.2,0.6h-1.4v3.4h-1v-8.5
		H64.6z M63.3,220.6h1.4c0.7,0,1.2-0.1,1.6-0.4c0.4-0.2,0.6-0.8,0.6-1.4c0-0.6-0.3-1.2-0.6-1.4c-0.4-0.3-0.9-0.4-1.6-0.4h-1.3V220.6
		z"/>
	<path d="M74.5,224.8h-0.8v-1.1c-0.3,0.8-1.2,1.3-2.3,1.3c-1.9,0-2.6-1.3-2.6-2.9v-3.5h0.8v3.4c0,1.3,0.6,2.2,2,2.2
		c1.3,0,2-0.8,2-2.1v-3.5h0.9V224.8z"/>
	<path d="M76.6,219.3h-1.2v-0.7h1.2v-2.3h0.8v2.3h1.4v0.7h-1.4v5.5h-0.8V219.3z"/>
	<path d="M82.7,221.7c0-1.7,1.3-3.3,3.3-3.3c2,0,3.3,1.5,3.3,3.3c0,1.7-1.3,3.3-3.3,3.3C84,225,82.7,223.5,82.7,221.7L82.7,221.7z
		 M83.6,221.7c0,1.4,1.1,2.5,2.4,2.5c1.4,0,2.4-1.1,2.4-2.5c0-1.4-1.1-2.5-2.4-2.5C84.6,219.3,83.6,220.3,83.6,221.7L83.6,221.7z"/>
	<path d="M90.6,218.6h0.8c0,0.3,0,0.7,0,1.1c0.4-0.8,1.2-1.3,2.3-1.3c1.9,0,2.6,1.3,2.6,2.8v3.5h-0.8v-3.4c0-1.3-0.6-2.2-2-2.2
		c-1.3,0-2,0.8-2,2.1v3.5h-0.9V218.6z"/>
	<path d="M107.5,224.1c0,1.2-0.4,1.9-0.9,2.4c-0.6,0.6-1.5,1-2.4,1c-1.5,0-2.7-0.9-3.1-2h1c0.1,0.3,0.4,0.6,0.7,0.8
		c0.4,0.3,1,0.4,1.4,0.4c1.2,0,2.4-0.9,2.4-2.5v-0.8c-0.4,0.9-1.3,1.5-2.5,1.5c-1.9,0-3.2-1.5-3.2-3.3c0-1.9,1.3-3.3,3.2-3.3
		c1.2,0,2.2,0.7,2.5,1.5v-1.3h0.8V224.1z M101.7,221.7c0,1.3,0.9,2.5,2.5,2.5c0.7,0,1.3-0.3,1.7-0.7c0.4-0.5,0.7-1.1,0.7-1.8
		c0-0.5-0.2-1.1-0.6-1.6c-0.4-0.5-1-0.9-1.9-0.9C102.8,219.3,101.7,220.3,101.7,221.7L101.7,221.7z"/>
	<path d="M108.7,221.7c0-1.7,1.3-3.3,3.3-3.3c2,0,3.3,1.5,3.3,3.3c0,1.7-1.3,3.3-3.3,3.3C110,225,108.7,223.5,108.7,221.7
		L108.7,221.7z M109.6,221.7c0,1.4,1.1,2.5,2.4,2.5c1.4,0,2.4-1.1,2.4-2.5c0-1.4-1.1-2.5-2.4-2.5
		C110.6,219.3,109.6,220.3,109.6,221.7L109.6,221.7z"/>
	<path d="M122.8,224.1c0,1.2-0.4,1.9-0.9,2.4c-0.6,0.6-1.5,1-2.4,1c-1.5,0-2.7-0.9-3.1-2h1c0.1,0.3,0.4,0.6,0.7,0.8
		c0.4,0.3,1,0.4,1.4,0.4c1.2,0,2.4-0.9,2.4-2.5v-0.8c-0.4,0.9-1.3,1.5-2.5,1.5c-1.9,0-3.2-1.5-3.2-3.3c0-1.9,1.3-3.3,3.2-3.3
		c1.2,0,2.2,0.7,2.5,1.5v-1.3h0.8V224.1z M117.1,221.7c0,1.3,0.9,2.5,2.5,2.5c0.7,0,1.3-0.3,1.7-0.7c0.4-0.5,0.7-1.1,0.7-1.8
		c0-0.5-0.2-1.1-0.6-1.6c-0.4-0.5-1-0.9-1.9-0.9C118.2,219.3,117.1,220.3,117.1,221.7L117.1,221.7z"/>
	<path d="M130.6,224.1c0,1.2-0.4,1.9-0.9,2.4c-0.6,0.6-1.5,1-2.4,1c-1.5,0-2.7-0.9-3.1-2h1c0.1,0.3,0.4,0.6,0.7,0.8
		c0.4,0.3,1,0.4,1.4,0.4c1.2,0,2.4-0.9,2.4-2.5v-0.8c-0.4,0.9-1.3,1.5-2.5,1.5c-1.9,0-3.2-1.5-3.2-3.3c0-1.9,1.3-3.3,3.2-3.3
		c1.2,0,2.2,0.7,2.5,1.5v-1.3h0.8V224.1z M124.9,221.7c0,1.3,0.9,2.5,2.5,2.5c0.7,0,1.3-0.3,1.7-0.7c0.4-0.5,0.7-1.1,0.7-1.8
		c0-0.5-0.2-1.1-0.6-1.6c-0.4-0.5-1-0.9-1.9-0.9C126,219.3,124.9,220.3,124.9,221.7L124.9,221.7z"/>
	<path d="M132.3,216.3h0.9v8.5h-0.9V216.3z"/>
	<path d="M135.2,222c0,1.6,1.4,2.3,2.4,2.3c1,0,1.7-0.5,2.1-1.3h0.9c-0.3,0.7-0.7,1.2-1.3,1.5c-0.5,0.3-1.1,0.5-1.8,0.5
		c-2.2,0-3.3-1.7-3.3-3.3c0-1.8,1.4-3.3,3.3-3.3c0.9,0,1.7,0.3,2.3,0.9c0.7,0.7,1.1,1.7,1,2.6H135.2z M140,221.3
		c-0.1-1.1-1.1-2.1-2.4-2.1c-1.3,0-2.3,1-2.4,2.1H140z"/>
	<path d="M151.6,224.8h-0.9v-1.3c-0.5,0.9-1.4,1.5-2.5,1.5c-2,0-3.2-1.6-3.2-3.3c0-1.8,1.3-3.3,3.2-3.3c1.3,0,2.2,0.8,2.5,1.5v-1.3
		h0.9V224.8z M145.8,221.7c0,1.1,0.8,2.5,2.5,2.5c1.1,0,1.9-0.6,2.2-1.5c0.1-0.3,0.2-0.6,0.2-1c0-0.3-0.1-0.7-0.2-1
		c-0.3-0.9-1.2-1.5-2.3-1.5C146.9,219.2,145.8,220.4,145.8,221.7L145.8,221.7z"/>
	<path d="M153.2,218.6h0.8c0,0.3,0,0.7,0,1.1c0.4-0.8,1.2-1.3,2.3-1.3c1.9,0,2.6,1.3,2.6,2.8v3.5h-0.8v-3.4c0-1.3-0.6-2.2-2-2.2
		c-1.3,0-2,0.8-2,2.1v3.5h-0.9V218.6z"/>
	<path d="M166.8,224.8H166v-1.3c-0.4,0.8-1.3,1.5-2.6,1.5c-2,0-3.2-1.5-3.2-3.3c0-1.8,1.3-3.3,3.2-3.3c1.4,0,2.3,0.8,2.5,1.4v-1.3
		v-2.3h0.9V224.8z M161.1,221.7c0,1.2,0.9,2.5,2.5,2.5c0.7,0,1.3-0.3,1.8-0.7c0.4-0.5,0.7-1.1,0.7-1.8c0-0.7-0.3-1.3-0.7-1.7
		c-0.4-0.4-1.1-0.7-1.8-0.7C162.1,219.2,161.1,220.3,161.1,221.7L161.1,221.7z"/>
</g>
<g class="st3">
	<path d="M66.7,230.1h0.9v2.3v1.2c0.5-0.9,1.5-1.4,2.5-1.4c1.8,0,3.2,1.3,3.2,3.3c0,1.9-1.3,3.3-3.2,3.3c-1.2,0-2.1-0.6-2.5-1.5v1.3
		h-0.8V230.1z M72.4,235.5c0-1.4-1.1-2.5-2.5-2.5c-1.4,0-2.5,1.1-2.5,2.5c0,1.3,1,2.5,2.4,2.5C71.6,238,72.4,236.7,72.4,235.5
		L72.4,235.5z"/>
	<path d="M74.6,230.1h0.9v8.5h-0.9V230.1z"/>
	<path d="M82.8,238.6H82v-1.1c-0.3,0.8-1.2,1.3-2.3,1.3c-1.9,0-2.6-1.3-2.6-2.9v-3.5h0.8v3.4c0,1.3,0.6,2.2,2,2.2c1.3,0,2-0.8,2-2.1
		v-3.5h0.9V238.6z"/>
	<path d="M84.8,235.8c0,1.6,1.4,2.3,2.4,2.3c1,0,1.7-0.5,2.1-1.3h0.9c-0.3,0.7-0.7,1.2-1.3,1.5c-0.5,0.3-1.1,0.5-1.8,0.5
		c-2.2,0-3.3-1.7-3.3-3.3c0-1.8,1.4-3.3,3.3-3.3c0.9,0,1.7,0.3,2.3,0.9c0.7,0.7,1.1,1.7,1,2.6H84.8z M89.6,235.1
		c-0.1-1.1-1.1-2.1-2.4-2.1c-1.3,0-2.3,1-2.4,2.1H89.6z"/>
	<path d="M92.2,233.1h-1.2v-0.7h1.2v-2.3H93v2.3h1.4v0.7H93v5.5h-0.8V233.1z"/>
	<path d="M94.6,235.5c0-1.7,1.3-3.3,3.3-3.3c2,0,3.3,1.5,3.3,3.3c0,1.7-1.3,3.3-3.3,3.3C95.9,238.8,94.6,237.3,94.6,235.5
		L94.6,235.5z M95.4,235.5c0,1.4,1.1,2.5,2.4,2.5c1.4,0,2.4-1.1,2.4-2.5c0-1.4-1.1-2.5-2.4-2.5C96.5,233.1,95.4,234.1,95.4,235.5
		L95.4,235.5z"/>
	<path d="M102.1,235.5c0-1.7,1.3-3.3,3.3-3.3c2,0,3.3,1.5,3.3,3.3c0,1.7-1.3,3.3-3.3,3.3C103.3,238.8,102.1,237.3,102.1,235.5
		L102.1,235.5z M102.9,235.5c0,1.4,1.1,2.5,2.4,2.5c1.4,0,2.4-1.1,2.4-2.5c0-1.4-1.1-2.5-2.4-2.5C104,233.1,102.9,234.1,102.9,235.5
		L102.9,235.5z"/>
	<path d="M110.4,233.1h-1.2v-0.7h1.2v-2.3h0.8v2.3h1.4v0.7h-1.4v5.5h-0.8V233.1z"/>
	<path d="M113.5,230.1h0.9v2.3v1.1c0.4-0.8,1.3-1.2,2.2-1.2c1,0,1.6,0.3,2.1,0.9c0.4,0.5,0.6,1.3,0.6,2.2v3.3h-0.8v-3.3
		c0-0.7-0.1-1.2-0.5-1.6c-0.3-0.4-0.8-0.6-1.6-0.6c-0.7,0-1.2,0.2-1.5,0.6c-0.3,0.4-0.5,0.9-0.5,1.4v3.5h-0.9V230.1z"/>
	<path d="M124.2,232.4h0.8v1.3c0.5-0.9,1.4-1.5,2.6-1.5c2.1,0,3.2,1.7,3.2,3.3c0,1.7-1.3,3.3-3.2,3.3c-1.4,0-2.3-0.8-2.5-1.4v1.3
		v2.4h-0.9V232.4z M129.9,235.5c0-1.2-0.8-2.5-2.5-2.5c-0.7,0-1.3,0.3-1.8,0.7c-0.4,0.5-0.7,1.1-0.7,1.8c0,0.7,0.3,1.3,0.7,1.8
		c0.4,0.4,1.1,0.7,1.8,0.7C128.9,238,129.9,237,129.9,235.5L129.9,235.5z"/>
	<path d="M138.3,238.6h-0.9v-1.3c-0.5,0.9-1.4,1.5-2.5,1.5c-2,0-3.2-1.6-3.2-3.3c0-1.8,1.3-3.3,3.2-3.3c1.3,0,2.2,0.8,2.5,1.5v-1.3
		h0.9V238.6z M132.5,235.5c0,1.1,0.8,2.5,2.5,2.5c1.1,0,1.9-0.6,2.2-1.5c0.1-0.3,0.2-0.6,0.2-1c0-0.3-0.1-0.7-0.2-1
		c-0.3-0.9-1.2-1.5-2.3-1.5C133.6,233,132.5,234.2,132.5,235.5L132.5,235.5z"/>
	<path d="M140,230.1h0.9v1.2H140V230.1z M140,232.4h0.9v6.2H140V232.4z"/>
	<path d="M142.5,232.4h0.8v1c0.4-0.9,1.3-1.2,2-1.2v0.8h-0.1c-1.2,0-1.9,0.8-1.9,2.2v3.4h-0.8V232.4z"/>
	<path d="M146.2,230.1h0.9v1.2h-0.9V230.1z M146.2,232.4h0.9v6.2h-0.9V232.4z"/>
	<path d="M148.7,232.4h0.8c0,0.3,0,0.7,0,1.1c0.4-0.8,1.2-1.3,2.3-1.3c1.9,0,2.6,1.3,2.6,2.8v3.5h-0.8v-3.4c0-1.3-0.6-2.2-2-2.2
		c-1.3,0-2,0.8-2,2.1v3.5h-0.9V232.4z"/>
	<path d="M162.3,237.9c0,1.2-0.4,1.9-0.9,2.4c-0.6,0.6-1.5,1-2.4,1c-1.5,0-2.7-0.9-3.1-2h1c0.1,0.3,0.4,0.6,0.7,0.8
		c0.4,0.3,1,0.4,1.4,0.4c1.2,0,2.4-0.9,2.4-2.5v-0.8c-0.4,0.9-1.3,1.5-2.5,1.5c-1.9,0-3.2-1.5-3.2-3.3c0-1.9,1.3-3.3,3.2-3.3
		c1.2,0,2.2,0.7,2.5,1.5v-1.3h0.8V237.9z M156.5,235.5c0,1.3,0.9,2.5,2.5,2.5c0.7,0,1.3-0.3,1.7-0.7c0.4-0.5,0.7-1.1,0.7-1.8
		c0-0.5-0.2-1.1-0.6-1.6c-0.4-0.5-1-0.9-1.9-0.9C157.6,233.1,156.5,234.1,156.5,235.5L156.5,235.5z"/>
</g>
<rect x="536.1" y="46.3" class="st2" width="122.9" height="21.9"/>
<g class="st3">
	<path d="M549.2,46.3h1l1.9,7.2l1.9-7.2h0.7l1.9,7.2l1.9-7.2h1l-2.4,8.5h-0.9l-1.8-6.9l-1.8,6.9h-1L549.2,46.3z"/>
	<path d="M560.2,51.9c0,1.6,1.4,2.3,2.4,2.3c1,0,1.7-0.5,2.1-1.3h0.9c-0.3,0.7-0.7,1.2-1.3,1.5c-0.5,0.3-1.1,0.5-1.8,0.5
		c-2.2,0-3.3-1.7-3.3-3.3c0-1.8,1.4-3.3,3.3-3.3c0.9,0,1.7,0.3,2.3,0.9c0.7,0.7,1.1,1.7,1,2.6H560.2z M565,51.3
		c-0.1-1.1-1.1-2.1-2.4-2.1c-1.3,0-2.3,1-2.4,2.1H565z"/>
	<path d="M567.1,46.3h0.9v8.5h-0.9V46.3z"/>
	<path d="M575.6,52.7c-0.4,1.3-1.6,2.3-3.1,2.3c-2.1,0-3.3-1.6-3.3-3.3c0-1.8,1.4-3.3,3.3-3.3c1.4,0,2.7,0.8,3.2,2.3h-0.9
		c-0.4-1-1.4-1.5-2.2-1.5c-0.7,0-1.2,0.2-1.8,0.7c-0.4,0.4-0.7,1.1-0.7,1.8c0,1.5,1.1,2.5,2.4,2.5c1.2,0,2-0.7,2.2-1.5H575.6z"/>
	<path d="M576.5,51.7c0-1.7,1.3-3.3,3.3-3.3c2,0,3.3,1.5,3.3,3.3c0,1.7-1.3,3.3-3.3,3.3C577.8,55,576.5,53.4,576.5,51.7L576.5,51.7z
		 M577.3,51.7c0,1.4,1.1,2.5,2.4,2.5c1.4,0,2.4-1.1,2.4-2.5c0-1.4-1.1-2.5-2.4-2.5C578.4,49.2,577.3,50.3,577.3,51.7L577.3,51.7z"/>
	<path d="M584.3,48.6h0.8v1c0.4-0.8,1.3-1.2,2-1.2c0.6,0,1.3,0.2,1.7,0.7c0.2,0.2,0.4,0.6,0.4,0.6c0.1-0.2,0.2-0.4,0.5-0.7
		c0.4-0.4,1-0.7,1.7-0.7c0.6,0,1.2,0.2,1.7,0.6c0.5,0.5,0.7,1.2,0.7,2.3v3.4h-0.9v-3.4c0-0.7-0.1-1.2-0.5-1.7
		c-0.3-0.3-0.6-0.5-1.2-0.5c-0.5,0-1.1,0.2-1.4,0.6c-0.3,0.4-0.4,0.8-0.4,1.5v3.4h-0.9v-3.4c0-0.7-0.1-1.1-0.3-1.5
		c-0.3-0.4-0.7-0.6-1.4-0.7c-0.6,0-1.1,0.3-1.3,0.6c-0.3,0.4-0.4,0.8-0.4,1.5v3.5h-0.9V48.6z"/>
	<path d="M595.7,51.9c0,1.6,1.4,2.3,2.4,2.3c1,0,1.7-0.5,2.1-1.3h0.9c-0.3,0.7-0.7,1.2-1.3,1.5c-0.5,0.3-1.1,0.5-1.8,0.5
		c-2.2,0-3.3-1.7-3.3-3.3c0-1.8,1.4-3.3,3.3-3.3c0.9,0,1.7,0.3,2.3,0.9c0.7,0.7,1.1,1.7,1,2.6H595.7z M600.5,51.3
		c-0.1-1.1-1.1-2.1-2.4-2.1c-1.3,0-2.3,1-2.4,2.1H600.5z"/>
	<path d="M608.7,50.2c0-0.7-0.4-1-1.1-1c-0.7,0-1.1,0.5-1.1,1c0,0.6,0.5,0.8,1.2,1c0.9,0.2,1.9,0.5,1.9,1.8c0,1.1-0.9,2-2.1,2
		c-1,0-2.1-0.6-2.1-1.9h0.8c0,0.9,0.7,1.2,1.3,1.2c0.7,0,1.2-0.5,1.2-1.2c0-0.7-0.5-1-1.6-1.3c-0.9-0.3-1.6-0.6-1.6-1.6
		c0-1.1,0.9-1.8,1.9-1.8c0.9,0,1.8,0.5,1.9,1.7H608.7z"/>
	<path d="M617.1,52.7c-0.4,1.3-1.6,2.3-3.1,2.3c-2.1,0-3.3-1.6-3.3-3.3c0-1.8,1.4-3.3,3.3-3.3c1.4,0,2.7,0.8,3.2,2.3h-0.9
		c-0.4-1-1.4-1.5-2.2-1.5c-0.7,0-1.2,0.2-1.8,0.7c-0.4,0.4-0.7,1.1-0.7,1.8c0,1.5,1.1,2.5,2.4,2.5c1.2,0,2-0.7,2.2-1.5H617.1z"/>
	<path d="M618.4,48.6h0.8v1c0.5-0.9,1.3-1.2,2-1.2v0.8h-0.1c-1.2,0-1.9,0.8-1.9,2.2v3.4h-0.8V48.6z"/>
	<path d="M622,51.9c0,1.6,1.4,2.3,2.4,2.3c1,0,1.7-0.5,2.1-1.3h0.9c-0.3,0.7-0.7,1.2-1.3,1.5c-0.5,0.3-1.1,0.5-1.8,0.5
		c-2.2,0-3.3-1.7-3.3-3.3c0-1.8,1.4-3.3,3.3-3.3c0.9,0,1.7,0.3,2.3,0.9c0.7,0.7,1.1,1.7,1,2.6H622z M626.8,51.3
		c-0.1-1.1-1.1-2.1-2.4-2.1c-1.3,0-2.3,1-2.4,2.1H626.8z"/>
	<path d="M629.3,51.9c0,1.6,1.4,2.3,2.4,2.3c1,0,1.7-0.5,2.1-1.3h0.9c-0.3,0.7-0.7,1.2-1.3,1.5c-0.5,0.3-1.1,0.5-1.8,0.5
		c-2.2,0-3.3-1.7-3.3-3.3c0-1.8,1.4-3.3,3.3-3.3c0.9,0,1.7,0.3,2.3,0.9c0.7,0.7,1.1,1.7,1,2.6H629.3z M634.1,51.3
		c-0.1-1.1-1.1-2.1-2.4-2.1c-1.3,0-2.3,1-2.4,2.1H634.1z"/>
	<path d="M636.1,48.6h0.8c0,0.3,0,0.7,0,1.1c0.4-0.8,1.2-1.3,2.3-1.3c1.9,0,2.6,1.3,2.6,2.8v3.5H641v-3.4c0-1.3-0.6-2.2-2-2.2
		c-1.3,0-2,0.8-2,2.1v3.5h-0.9V48.6z"/>
</g>
<rect x="736.9" y="140.1" class="st2" width="29" height="15.9"/>
<g class="st3">
	<path d="M750.1,147.3l0-7.1h0.9v8.5h-0.9l-5.1-7.2l0,7.2h-0.9v-8.5h1L750.1,147.3z"/>
	<path d="M752.3,145.6c0-1.7,1.3-3.3,3.3-3.3c2,0,3.3,1.5,3.3,3.3c0,1.7-1.3,3.3-3.3,3.3C753.6,148.8,752.3,147.3,752.3,145.6
		L752.3,145.6z M753.2,145.6c0,1.4,1.1,2.5,2.4,2.5c1.4,0,2.4-1.1,2.4-2.5c0-1.4-1.1-2.5-2.4-2.5
		C754.2,143.1,753.2,144.2,753.2,145.6L753.2,145.6z"/>
</g>
<rect x="528.9" y="480.1" class="st2" width="29" height="15.9"/>
<g class="st3">
	<path d="M542.1,487.3l0-7.1h0.9v8.5h-0.9l-5.1-7.2l0,7.2h-0.9v-8.5h1L542.1,487.3z"/>
	<path d="M544.3,485.6c0-1.7,1.3-3.3,3.3-3.3c2,0,3.3,1.5,3.3,3.3s-1.3,3.3-3.3,3.3C545.6,488.8,544.3,487.3,544.3,485.6
		L544.3,485.6z M545.2,485.6c0,1.4,1.1,2.5,2.4,2.5c1.4,0,2.4-1.1,2.4-2.5s-1.1-2.5-2.4-2.5C546.2,483.1,545.2,484.2,545.2,485.6
		L545.2,485.6z"/>
</g>
<g class="st3">
	<path d="M708.7,486.4c-0.6,1.3-2,2.4-3.9,2.4c-2.5,0-4.5-2-4.5-4.4c0-2.4,1.9-4.4,4.4-4.4c2.1,0,3.4,1.4,3.9,2.5h-1
		c-0.3-0.5-1.3-1.6-2.9-1.6c-2,0-3.5,1.6-3.5,3.6c0,2,1.5,3.6,3.5,3.6c1.8,0,2.7-1.3,2.9-1.6H708.7z"/>
	<path d="M716.1,488.7h-0.9v-1.3c-0.5,0.9-1.4,1.5-2.5,1.5c-2,0-3.2-1.6-3.2-3.3c0-1.8,1.3-3.3,3.2-3.3c1.3,0,2.2,0.8,2.5,1.5v-1.3
		h0.9V488.7z M710.4,485.6c0,1.1,0.8,2.5,2.5,2.5c1.1,0,1.9-0.6,2.2-1.5c0.1-0.3,0.2-0.6,0.2-1c0-0.3-0.1-0.7-0.2-1
		c-0.3-0.9-1.2-1.5-2.3-1.5C711.4,483.1,710.4,484.2,710.4,485.6L710.4,485.6z"/>
	<path d="M717.8,482.5h0.8c0,0.3,0,0.7,0,1.1c0.4-0.8,1.2-1.3,2.3-1.3c1.9,0,2.6,1.3,2.6,2.8v3.5h-0.8v-3.4c0-1.3-0.6-2.2-2-2.2
		c-1.3,0-2,0.8-2,2.1v3.5h-0.9V482.5z"/>
	<path d="M731.2,486.6c-0.4,1.3-1.6,2.3-3.1,2.3c-2.1,0-3.3-1.6-3.3-3.3c0-1.8,1.4-3.3,3.3-3.3c1.4,0,2.7,0.8,3.2,2.3h-0.9
		c-0.4-1.1-1.4-1.5-2.2-1.5c-0.7,0-1.2,0.2-1.8,0.7c-0.4,0.4-0.7,1.1-0.7,1.8c0,1.5,1.1,2.5,2.4,2.5c1.2,0,2-0.7,2.2-1.5H731.2z"/>
	<path d="M732.8,485.8c0,1.6,1.4,2.3,2.4,2.3c1,0,1.7-0.5,2.1-1.3h0.9c-0.3,0.7-0.7,1.2-1.3,1.5c-0.5,0.3-1.1,0.5-1.8,0.5
		c-2.2,0-3.3-1.7-3.3-3.3c0-1.8,1.4-3.3,3.3-3.3c0.9,0,1.7,0.3,2.3,0.9c0.7,0.7,1.1,1.7,1,2.6H732.8z M737.6,485.1
		c-0.1-1.1-1.1-2.1-2.4-2.1c-1.3,0-2.3,1-2.4,2.1H737.6z"/>
	<path d="M739.6,480.1h0.9v8.5h-0.9V480.1z"/>
</g>
<rect x="847.9" y="34.1" class="st2" width="29" height="15.9"/>
<g class="st3">
	<path d="M855.5,39.7l-2.7-5.5h1l2.2,4.6l2.2-4.6h1l-2.7,5.5v3h-1V39.7z"/>
	<path d="M859.4,39.8c0,1.6,1.4,2.3,2.4,2.3c1,0,1.7-0.5,2.1-1.3h0.9c-0.3,0.7-0.7,1.2-1.3,1.5c-0.5,0.3-1.1,0.5-1.8,0.5
		c-2.2,0-3.3-1.7-3.3-3.3c0-1.8,1.4-3.3,3.3-3.3c0.9,0,1.7,0.3,2.3,0.9c0.7,0.7,1.1,1.7,1,2.6H859.4z M864.2,39.1
		c-0.1-1.1-1.1-2.1-2.4-2.1c-1.3,0-2.3,1-2.4,2.1H864.2z"/>
	<path d="M869.1,38c0-0.7-0.4-1-1.1-1c-0.7,0-1.1,0.5-1.1,1c0,0.6,0.5,0.8,1.2,1c0.9,0.2,1.9,0.5,1.9,1.8c0,1.1-0.9,2-2.1,2
		c-1,0-2.1-0.6-2.1-1.9h0.8c0,0.9,0.7,1.2,1.3,1.2c0.7,0,1.2-0.5,1.2-1.2c0-0.7-0.5-1-1.6-1.3c-0.9-0.3-1.6-0.6-1.6-1.6
		c0-1.1,0.9-1.8,1.9-1.8c0.9,0,1.8,0.5,1.9,1.7H869.1z"/>
</g>
<rect x="274.9" y="340.1" class="st2" width="29" height="15.9"/>
<g class="st3">
	<path d="M282.5,345.7l-2.7-5.5h1l2.2,4.6l2.2-4.6h1l-2.7,5.5v3h-1V345.7z"/>
	<path d="M286.4,345.8c0,1.6,1.4,2.3,2.4,2.3c1,0,1.7-0.5,2.1-1.3h0.9c-0.3,0.7-0.7,1.2-1.3,1.5c-0.5,0.3-1.1,0.5-1.8,0.5
		c-2.2,0-3.3-1.7-3.3-3.3c0-1.8,1.4-3.3,3.3-3.3c0.9,0,1.7,0.3,2.3,0.9c0.7,0.7,1.1,1.7,1,2.6H286.4z M291.2,345.1
		c-0.1-1.1-1.1-2.1-2.4-2.1c-1.3,0-2.3,1-2.4,2.1H291.2z"/>
	<path d="M296.1,344c0-0.7-0.4-1-1.1-1c-0.7,0-1.1,0.5-1.1,1c0,0.6,0.5,0.8,1.2,1c0.9,0.2,1.9,0.5,1.9,1.8c0,1.1-0.9,2-2.1,2
		c-1,0-2.1-0.6-2.1-1.9h0.8c0,0.9,0.7,1.2,1.3,1.2c0.7,0,1.2-0.5,1.2-1.2c0-0.7-0.5-1-1.6-1.3c-0.9-0.3-1.6-0.6-1.6-1.6
		c0-1.1,0.9-1.8,1.9-1.8c0.9,0,1.8,0.5,1.9,1.7H296.1z"/>
</g>
<rect x="528.9" y="416.1" class="st2" width="29" height="15.9"/>
<g class="st3">
	<path d="M536.5,421.7l-2.7-5.5h1l2.2,4.6l2.2-4.6h1l-2.7,5.5v3h-1V421.7z"/>
	<path d="M540.4,421.8c0,1.6,1.4,2.3,2.4,2.3c1,0,1.7-0.5,2.1-1.3h0.9c-0.3,0.7-0.7,1.2-1.3,1.5c-0.5,0.3-1.1,0.5-1.8,0.5
		c-2.2,0-3.3-1.7-3.3-3.3c0-1.8,1.4-3.3,3.3-3.3c0.9,0,1.7,0.3,2.3,0.9c0.7,0.7,1.1,1.7,1,2.6H540.4z M545.2,421.1
		c-0.1-1.1-1.1-2.1-2.4-2.1c-1.3,0-2.3,1-2.4,2.1H545.2z"/>
	<path d="M550.1,420c0-0.7-0.4-1-1.1-1c-0.7,0-1.1,0.5-1.1,1c0,0.6,0.5,0.8,1.2,1c0.9,0.2,1.9,0.5,1.9,1.8c0,1.1-0.9,2-2.1,2
		c-1,0-2.1-0.6-2.1-1.9h0.8c0,0.9,0.7,1.2,1.3,1.2c0.7,0,1.2-0.5,1.2-1.2c0-0.7-0.5-1-1.6-1.3c-0.9-0.3-1.6-0.6-1.6-1.6
		c0-1.1,0.9-1.8,1.9-1.8c0.9,0,1.8,0.5,1.9,1.7H550.1z"/>
</g>
<g class="st3">
	<path d="M348.6,423.3l0-7.1h0.9v8.5h-0.9l-5.1-7.2l0,7.2h-0.9v-8.5h1L348.6,423.3z"/>
	<path d="M350.8,421.6c0-1.7,1.3-3.3,3.3-3.3c2,0,3.3,1.5,3.3,3.3c0,1.7-1.3,3.3-3.3,3.3C352.1,424.8,350.8,423.3,350.8,421.6
		L350.8,421.6z M351.7,421.6c0,1.4,1.1,2.5,2.4,2.5c1.4,0,2.4-1.1,2.4-2.5c0-1.4-1.1-2.5-2.4-2.5
		C352.7,419.1,351.7,420.2,351.7,421.6L351.7,421.6z"/>
</g>
<rect x="699.6" y="46" class="st2" width="140.4" height="36"/>
<g class="st3">
	<path d="M732.5,46h4.7v0.8h-3.8v3h3.8v0.8h-3.8v3h3.8v0.8h-4.7V46z"/>
	<path d="M740.2,51.3l-2.1-3h1l1.6,2.4l1.6-2.4h1l-2.1,3l2.2,3.2h-1l-1.7-2.5l-1.6,2.5h-1L740.2,51.3z"/>
	<path d="M744.3,46h0.9v1.2h-0.9V46z M744.3,48.3h0.9v6.2h-0.9V48.3z"/>
	<path d="M749.6,49.9c0-0.7-0.4-1-1.1-1c-0.7,0-1.1,0.5-1.1,1c0,0.6,0.5,0.8,1.2,1c0.9,0.2,1.9,0.5,1.9,1.8c0,1.1-0.9,2-2.1,2
		c-1,0-2.1-0.6-2.1-1.9h0.8c0,0.9,0.7,1.2,1.3,1.2c0.7,0,1.2-0.5,1.2-1.2c0-0.7-0.5-1-1.6-1.3c-0.9-0.3-1.6-0.6-1.6-1.6
		c0-1.1,0.9-1.8,1.9-1.8c0.9,0,1.8,0.5,1.9,1.7H749.6z"/>
	<path d="M752.5,49h-1.2v-0.7h1.2V46h0.8v2.3h1.4V49h-1.4v5.5h-0.8V49z"/>
	<path d="M755.6,46h0.9v1.2h-0.9V46z M755.6,48.3h0.9v6.2h-0.9V48.3z"/>
	<path d="M758.1,48.3h0.8c0,0.3,0,0.7,0,1.1c0.4-0.8,1.2-1.3,2.3-1.3c1.9,0,2.6,1.3,2.6,2.8v3.5H763v-3.4c0-1.3-0.6-2.2-2-2.2
		c-1.3,0-2,0.8-2,2.1v3.5h-0.9V48.3z"/>
	<path d="M771.7,53.8c0,1.2-0.4,1.9-0.9,2.4c-0.6,0.6-1.5,1-2.4,1c-1.5,0-2.7-0.9-3.1-2h1c0.2,0.3,0.4,0.6,0.7,0.8
		c0.5,0.3,1,0.4,1.4,0.4c1.2,0,2.4-0.9,2.4-2.5v-0.8c-0.4,0.9-1.3,1.5-2.5,1.5c-1.9,0-3.2-1.5-3.2-3.3c0-1.9,1.3-3.3,3.2-3.3
		c1.2,0,2.2,0.7,2.5,1.5v-1.3h0.8V53.8z M765.9,51.4c0,1.3,0.9,2.5,2.5,2.5c0.7,0,1.3-0.3,1.7-0.7c0.4-0.5,0.7-1.1,0.7-1.8
		c0-0.5-0.2-1.1-0.6-1.6c-0.4-0.5-1-0.9-1.9-0.9C767,48.9,765.9,50,765.9,51.4L765.9,51.4z"/>
	<path d="M777.6,46v5.4c0,0.6,0,1.1,0.4,1.7c0.3,0.4,0.9,0.7,1.5,0.7c0.6,0,1.2-0.3,1.5-0.7c0.4-0.6,0.4-1.1,0.4-1.7V46h0.9v5.4
		c0,1-0.1,2-1,2.6c-0.5,0.4-1.1,0.6-1.8,0.6c-0.6,0-1.3-0.2-1.9-0.6c-0.9-0.7-1-1.7-1-2.6V46H777.6z"/>
	<path d="M786.8,49.9c0-0.7-0.4-1-1.1-1c-0.7,0-1.1,0.5-1.1,1c0,0.6,0.5,0.8,1.2,1c0.9,0.2,1.9,0.5,1.9,1.8c0,1.1-0.9,2-2.1,2
		c-1,0-2.1-0.6-2.1-1.9h0.8c0,0.9,0.7,1.2,1.3,1.2c0.7,0,1.2-0.5,1.2-1.2c0-0.7-0.5-1-1.6-1.3c-0.9-0.3-1.6-0.6-1.6-1.6
		c0-1.1,0.9-1.8,1.9-1.8c0.9,0,1.8,0.5,1.9,1.7H786.8z"/>
	<path d="M789.5,51.7c0,1.6,1.4,2.3,2.4,2.3c1,0,1.7-0.5,2.1-1.3h0.9c-0.3,0.7-0.7,1.2-1.3,1.5c-0.5,0.3-1.1,0.5-1.8,0.5
		c-2.2,0-3.3-1.7-3.3-3.3c0-1.8,1.4-3.3,3.3-3.3c0.9,0,1.7,0.3,2.3,0.9c0.7,0.7,1.1,1.7,1,2.6H789.5z M794.4,51
		c-0.1-1.1-1.1-2.1-2.4-2.1c-1.3,0-2.3,1-2.4,2.1H794.4z"/>
	<path d="M796.4,48.3h0.8v1c0.4-0.9,1.3-1.2,2-1.2V49h-0.1c-1.2,0-1.9,0.8-1.9,2.2v3.4h-0.8V48.3z"/>
	<path d="M801.9,52.4c0-0.8,0.2-1.4,1.1-2.3c0.6-0.6,1-1,1-1.7c0-0.9-0.6-1.6-1.6-1.6c-0.8,0-1.5,0.5-1.7,1.4c0,0.1,0,0.2,0,0.3
		h-0.9c0-0.1,0-0.2,0-0.3c0.1-1.6,1.5-2.4,2.7-2.4c1.4,0,2.5,1.1,2.5,2.4c0,1-0.7,1.6-1.3,2.2c-0.8,0.8-0.9,1.4-0.9,1.8H801.9z
		 M802.8,54.5h-0.9v-1.3h0.9V54.5z"/>
</g>
</svg>
