<?xml version="1.0" encoding="utf-8"?>
<!-- Generator: Adobe Illustrator 23.1.1, SVG Export Plug-In . SVG Version: 6.00 Build 0)  -->
<svg version="1.1" id="Layer_1" xmlns="http://www.w3.org/2000/svg" xmlns:xlink="http://www.w3.org/1999/xlink" x="0px" y="0px"
	 viewBox="0 0 191.2 172" style="enable-background:new 0 0 191.2 172;" xml:space="preserve">
<style type="text/css">
	.st0{fill:#EE368A;}
	.st1{fill:#3E4347;}
</style>
<path class="st0" d="M50.9,0H23.8C5.5,0-5.9,19.8,3.2,35.7L75,160.1c9.1,15.8,31.9,15.9,41.1,0.2l13.7-23.4c4.3-7.4,4.4-16.6,0.1-24
	l-58.5-101C67.2,4.5,59.4,0,50.9,0z"/>
<path class="st1" d="M119.9,39.5l10.8,19.1c10.1,17.9,35.9,18,46.1,0.1l10.9-19.1C197.7,22,185,0,164.6,0L143,0
	C122.7,0,110,21.9,119.9,39.5z"/>
</svg>
