<?xml version="1.0" encoding="UTF-8"?>
<svg width="42px" height="33px" viewBox="0 0 42 33" version="1.1" xmlns="http://www.w3.org/2000/svg" xmlns:xlink="http://www.w3.org/1999/xlink">
    <!-- Generator: Sketch 53.2 (72643) - https://sketchapp.com -->
    <title>Fill 1</title>
    <desc>Created with Sketch.</desc>
    <g id="others" stroke="none" stroke-width="1" fill="none" fill-rule="evenodd">
        <g id="about-me" transform="translate(-382.000000, -855.000000)" fill="#35B0E5">
            <g id="quote" transform="translate(382.000000, 846.000000)">
                <path d="M24.6414681,42 L42,42 L42,25.0513776 L34.1194948,25.0513776 L34.1194948,21.6614531 C34.1194948,20.6651814 34.7180648,17.9734473 38.4085796,17.9734473 L42,17.9734473 L42,9 L34.8171592,9 C31.3258341,9 24.6414681,11.2936255 24.6414681,21.06329 L24.6414681,42 Z M0,42 L17.3585319,42 L17.3585319,25.0513776 L9.47702574,25.0513776 L9.47702574,21.6614531 C9.47702574,20.7642084 9.97650143,17.9734473 13.7671115,17.9734473 L17.3585319,17.9734473 L17.3585319,9 L10.1756911,9 C6.68336511,9 0,11.2936255 0,21.06329 L0,42 Z" id="Fill-1"></path>
            </g>
        </g>
    </g>
</svg>