<?xml version="1.0" encoding="utf-8"?>
<!-- Generator: Adobe Illustrator 24.0.0, SVG Export Plug-In . SVG Version: 6.00 Build 0)  -->
<svg version="1.1" xmlns="http://www.w3.org/2000/svg" xmlns:xlink="http://www.w3.org/1999/xlink" x="0px" y="0px"
	 viewBox="0 0 792 710" style="enable-background:new 0 0 792 710;" xml:space="preserve">
<style type="text/css">
	.st0{fill:none;stroke:#000000;stroke-miterlimit:10;}
	.st1{fill:#515151;}
	.st2{fill:none;}
	.st3{fill:#FFFFFF;}
	.st4{font-family:'ITCAvantGardeStd-Md';}
	.st5{font-size:13.2081px;}
	.st6{fill:#020202;}
	.st7{font-family:'ITCAvantGardeStd-Bk';}
	.st8{font-size:11.557px;}
	.st9{font-family:'ITCAvantGardeStd-Demi';}
	.st10{font-size:18px;}
</style>
<g id="line">
	<g>
		<g>
			<line class="st0" x1="213.5" y1="116.5" x2="253.7" y2="116.5"/>
			<g>
				<polygon points="252.3,121.5 260.9,116.5 252.3,111.5 				"/>
			</g>
		</g>
	</g>
	<g>
		<g>
			<line class="st0" x1="391.9" y1="116.5" x2="432" y2="116.5"/>
			<g>
				<polygon points="430.6,121.5 439.2,116.5 430.6,111.5 				"/>
			</g>
		</g>
	</g>
	<g>
		<g>
			<line class="st0" x1="569.9" y1="116.5" x2="610" y2="116.5"/>
			<g>
				<polygon points="608.6,121.5 617.2,116.5 608.6,111.5 				"/>
			</g>
		</g>
	</g>
	<g>
		<g>
			<line class="st0" x1="213.5" y1="382.5" x2="253.7" y2="382.5"/>
			<g>
				<polygon points="252.3,387.5 260.9,382.5 252.3,377.5 				"/>
			</g>
		</g>
	</g>
	<g>
		<g>
			<line class="st0" x1="391.9" y1="382.5" x2="432" y2="382.5"/>
			<g>
				<polygon points="430.6,387.5 439.2,382.5 430.6,377.5 				"/>
			</g>
		</g>
	</g>
	<g>
		<g>
			<line class="st0" x1="569.9" y1="382.5" x2="610" y2="382.5"/>
			<g>
				<polygon points="608.6,387.5 617.2,382.5 608.6,377.5 				"/>
			</g>
		</g>
	</g>
	<g>
		<g>
			<line class="st0" x1="213.5" y1="648.5" x2="253.7" y2="648.5"/>
			<g>
				<polygon points="252.3,653.5 260.9,648.5 252.3,643.5 				"/>
			</g>
		</g>
	</g>
	<g>
		<g>
			<line class="st0" x1="391.9" y1="648.5" x2="432" y2="648.5"/>
			<g>
				<polygon points="430.6,653.5 439.2,648.5 430.6,643.5 				"/>
			</g>
		</g>
	</g>
	<g>
		<g>
			<line class="st0" x1="569.9" y1="648.5" x2="610" y2="648.5"/>
			<g>
				<polygon points="608.6,653.5 617.2,648.5 608.6,643.5 				"/>
			</g>
		</g>
	</g>
</g>
<g id="boxes">
	<g>
		<path d="M212.5,56v121H84V56H212.5 M213.5,55H83v123h130.5V55L213.5,55z"/>
	</g>
	<rect x="83" y="55" class="st1" width="130.5" height="43.5"/>
	<g>
		<path d="M390.8,56v121H262.3V56H390.8 M391.8,55H261.3v123h130.5V55L391.8,55z"/>
	</g>
	<rect x="261.3" y="55" class="st1" width="130.5" height="43.5"/>
	<g>
		<path d="M568.8,56v121H440.3V56H568.8 M569.8,55H439.3v123h130.5V55L569.8,55z"/>
	</g>
	<rect x="439.3" y="55" class="st1" width="130.5" height="43.5"/>
	<g>
		<path d="M746.8,56v121H618.3V56H746.8 M747.8,55H617.3v123h130.5V55L747.8,55z"/>
	</g>
	<rect x="617.3" y="55" class="st1" width="130.5" height="43.5"/>
	<g>
		<path d="M212.5,322v121H84V322H212.5 M213.5,321H83v123h130.5V321L213.5,321z"/>
	</g>
	<rect x="83" y="321" class="st1" width="130.5" height="43.5"/>
	<g>
		<path d="M390.8,322v121H262.3V322H390.8 M391.8,321H261.3v123h130.5V321L391.8,321z"/>
	</g>
	<rect x="261.3" y="321" class="st1" width="130.5" height="43.5"/>
	<g>
		<path d="M568.8,322v121H440.3V322H568.8 M569.8,321H439.3v123h130.5V321L569.8,321z"/>
	</g>
	<rect x="439.3" y="321" class="st1" width="130.5" height="43.5"/>
	<g>
		<path d="M746.8,322v121H618.3V322H746.8 M747.8,321H617.3v123h130.5V321L747.8,321z"/>
	</g>
	<rect x="617.3" y="321" class="st1" width="130.5" height="43.5"/>
	<g>
		<path d="M212.5,588v121H84V588H212.5 M213.5,587H83v123h130.5V587L213.5,587z"/>
	</g>
	<rect x="83" y="587" class="st1" width="130.5" height="43.5"/>
	<g>
		<path d="M390.8,588v121H262.3V588H390.8 M391.8,587H261.3v123h130.5V587L391.8,587z"/>
	</g>
	<rect x="261.3" y="587" class="st1" width="130.5" height="43.5"/>
	<g>
		<path d="M568.8,588v121H440.3V588H568.8 M569.8,587H439.3v123h130.5V587L569.8,587z"/>
	</g>
	<rect x="439.3" y="587" class="st1" width="130.5" height="43.5"/>
	<g>
		<path d="M746.8,588v121H618.3V588H746.8 M747.8,587H617.3v123h130.5V587L747.8,587z"/>
	</g>
	<rect x="617.3" y="587" class="st1" width="130.5" height="43.5"/>
</g>
<g id="text">
	<rect x="83" y="72.4" class="st2" width="130.4" height="18.3"/>
	<text transform="matrix(1 0 0 1 127.373 82.1562)" class="st3 st4 st5">Step 1</text>
	<rect x="89" y="116.9" class="st2" width="117" height="61.1"/>
	<text transform="matrix(1 0 0 1 96.1411 125.4648)"><tspan x="0" y="0" class="st6 st7 st8">Search for games </tspan><tspan x="28.7" y="16.5" class="st6 st7 st8">with the </tspan><tspan x="5.8" y="33" class="st6 st7 st8">celpohone app</tspan></text>
	<rect x="261.3" y="72.4" class="st2" width="130.4" height="18.3"/>
	<text transform="matrix(1 0 0 1 305.6816 82.1562)" class="st3 st4 st5">Step 2</text>
	<rect x="261.3" y="116.9" class="st2" width="130.4" height="61.1"/>
	<text transform="matrix(1 0 0 1 295.5742 125.4648)" class="st6 st7 st8">Join game</text>
	<rect x="439.3" y="72.4" class="st2" width="130.4" height="18.3"/>
	<text transform="matrix(1 0 0 1 483.6816 82.1562)" class="st3 st4 st5">Step 3</text>
	<rect x="439.3" y="116.9" class="st2" width="130.4" height="61.1"/>
	<text transform="matrix(1 0 0 1 450.1196 125.4648)"><tspan x="0" y="0" class="st6 st7 st8">Wait for the host to </tspan><tspan x="11.7" y="16.5" class="st6 st7 st8">start the game</tspan></text>
	<rect x="617.3" y="72.4" class="st2" width="130.4" height="18.3"/>
	<text transform="matrix(1 0 0 1 661.6816 82.1562)" class="st3 st4 st5">Step 4</text>
	<rect x="626" y="116.9" class="st2" width="114" height="61.1"/>
	<text transform="matrix(1 0 0 1 632.6353 125.4648)"><tspan x="0" y="0" class="st6 st7 st8">Put on AR goggle </tspan><tspan x="1" y="16.5" class="st6 st7 st8">and start playing </tspan><tspan x="21.9" y="33" class="st6 st7 st8">the game</tspan></text>
	<rect x="83" y="338.4" class="st2" width="130.4" height="18.3"/>
	<text transform="matrix(1 0 0 1 127.373 348.1562)" class="st3 st4 st5">Step 1</text>
	<rect x="89" y="382.9" class="st2" width="117" height="61.1"/>
	<text transform="matrix(1 0 0 1 97.3779 391.4653)"><tspan x="0" y="0" class="st6 st7 st8">Hit the form team </tspan><tspan x="-3.3" y="16.5" class="st6 st7 st8">icon in the bottom </tspan><tspan x="7.3" y="33" class="st6 st7 st8">navigation bar</tspan></text>
	<rect x="261.3" y="338.4" class="st2" width="130.4" height="18.3"/>
	<text transform="matrix(1 0 0 1 305.6816 348.1562)" class="st3 st4 st5">Step 2</text>
	<rect x="269" y="382.9" class="st2" width="114" height="61.1"/>
	<text transform="matrix(1 0 0 1 285.4355 391.4653)"><tspan x="0" y="0" class="st6 st7 st8">Set difficulties, </tspan><tspan x="-11.1" y="16.5" class="st6 st7 st8">number of player,  </tspan><tspan x="2.4" y="33" class="st6 st7 st8">and duration</tspan></text>
	<rect x="439.3" y="338.4" class="st2" width="130.4" height="18.3"/>
	<text transform="matrix(1 0 0 1 483.6816 348.1562)" class="st3 st4 st5">Step 3</text>
	<rect x="448" y="382.9" class="st2" width="116" height="61.1"/>
	<text transform="matrix(1 0 0 1 450.4634 391.4653)"><tspan x="0" y="0" class="st6 st7 st8">Wait for the players </tspan><tspan x="4.1" y="16.5" class="st6 st7 st8">to join your game</tspan></text>
	<rect x="617.3" y="338.4" class="st2" width="130.4" height="18.3"/>
	<text transform="matrix(1 0 0 1 661.6816 348.1562)" class="st3 st4 st5">Step 4</text>
	<rect x="626" y="382.9" class="st2" width="114" height="61.1"/>
	<text transform="matrix(1 0 0 1 650.9756 391.4648)" class="st6 st7 st8">Start game</text>
	<rect x="83" y="604.4" class="st2" width="130.4" height="18.3"/>
	<text transform="matrix(1 0 0 1 127.373 614.1562)" class="st3 st4 st5">Step 1</text>
	<rect x="89" y="648.9" class="st2" width="117" height="61.1"/>
	<text transform="matrix(1 0 0 1 95.6733 657.4653)"><tspan x="0" y="0" class="st6 st7 st8">Hit the report icon </tspan><tspan x="12.8" y="16.5" class="st6 st7 st8">in the bottom </tspan><tspan x="9" y="33" class="st6 st7 st8">navigation bar</tspan></text>
	<rect x="261.3" y="604.4" class="st2" width="130.4" height="18.3"/>
	<text transform="matrix(1 0 0 1 305.6816 614.1562)" class="st3 st4 st5">Step 2</text>
	<rect x="269" y="648.9" class="st2" width="114" height="61.1"/>
	<text transform="matrix(1 0 0 1 272.1621 657.4653)"><tspan x="0" y="0" class="st6 st7 st8">Select date, game </tspan><tspan x="22.2" y="16.5" class="st6 st7 st8">and player</tspan></text>
	<rect x="439.3" y="604.4" class="st2" width="130.4" height="18.3"/>
	<text transform="matrix(1 0 0 1 483.6816 614.1562)" class="st3 st4 st5">Step 3</text>
	<rect x="448" y="648.9" class="st2" width="116" height="61.1"/>
	<text transform="matrix(1 0 0 1 466.7588 657.4653)"><tspan x="0" y="0" class="st6 st7 st8">Select type of </tspan><tspan x="5.2" y="16.5" class="st6 st7 st8">harassment </tspan></text>
	<rect x="617.3" y="604.4" class="st2" width="130.4" height="18.3"/>
	<text transform="matrix(1 0 0 1 661.6816 614.1562)" class="st3 st4 st5">Step 4</text>
	<rect x="626" y="648.9" class="st2" width="114" height="61.1"/>
	<text transform="matrix(1 0 0 1 648.5088 657.4648)"><tspan x="0" y="0" class="st6 st7 st8">Write a brief </tspan><tspan x="-11.4" y="16.5" class="st6 st7 st8">description and </tspan><tspan x="6.5" y="33" class="st6 st7 st8">hit submit</tspan></text>
	<rect x="0.4" y="0.5" class="st2" width="201.6" height="26.5"/>
	<text transform="matrix(1 0 0 1 0.4185 13.8081)" class="st9 st10">TASK 1: JOIN GAME</text>
	<rect x="0.4" y="266.5" class="st2" width="201.6" height="26.5"/>
	<text transform="matrix(1 0 0 1 0.4185 279.8081)" class="st9 st10">TASK 2: JOIN GAME</text>
	<rect x="0.4" y="532.5" class="st2" width="487.6" height="26.5"/>
	<text transform="matrix(1 0 0 1 0.4185 545.8081)" class="st9 st10">TASK 3: REPORT IN-GAME HARASSMENT</text>
</g>
</svg>
