<?xml version="1.0" encoding="UTF-8"?>
<svg width="555px" height="165px" viewBox="0 0 555 165" version="1.1" xmlns="http://www.w3.org/2000/svg" xmlns:xlink="http://www.w3.org/1999/xlink">
    <!-- Generator: Sketch 53.2 (72643) - https://sketchapp.com -->
    <title>Group</title>
    <desc>Created with Sketch.</desc>
    <g id="Page-1" stroke="none" stroke-width="1" fill="none" fill-rule="evenodd">
        <g id="Group">
            <g id="Group-11">
                <g id="Group-10" transform="translate(19.000000, 19.000000)" fill="#35B0E5" fill-rule="nonzero">
                    <path d="M28.168,98.4076033 L28.168,96.6476033 L29.832,96.6476033 L29.832,98.4076033 L28.168,98.4076033 Z M28.168,108.487603 L28.168,99.7836033 L29.832,99.7836033 L29.832,108.487603 L28.168,108.487603 Z M32.932,108.487603 L32.932,101.079603 L31.364,101.079603 L31.364,99.7836033 L32.932,99.7836033 L32.932,96.6476033 L34.596,96.6476033 L34.596,99.7836033 L36.276,99.7836033 L36.276,101.079603 L34.596,101.079603 L34.596,108.487603 L32.932,108.487603 Z M45.904,104.663603 L38.464,104.663603 C38.544,106.423603 40.08,107.319603 41.392,107.319603 C42.56,107.319603 43.424,106.759603 43.904,105.847603 L45.632,105.847603 C45.216,106.807603 44.608,107.527603 43.872,108.007603 C43.136,108.503603 42.272,108.743603 41.392,108.743603 C38.544,108.743603 36.784,106.455603 36.784,104.151603 C36.784,101.655603 38.736,99.5276033 41.376,99.5276033 C42.624,99.5276033 43.76,99.9916033 44.592,100.807603 C45.616,101.847603 46.048,103.207603 45.904,104.663603 Z M38.496,103.367603 L44.256,103.367603 C44.176,102.215603 43.024,100.919603 41.376,100.951603 C39.68,100.951603 38.576,102.183603 38.496,103.367603 Z M47.836,108.487603 L47.836,99.7836033 L49.404,99.7836033 L49.404,101.063603 C49.9,100.039603 50.812,99.5436033 51.996,99.5276033 L51.996,101.191603 L51.884,101.191603 C50.316,101.191603 49.5,102.055603 49.5,103.783603 L49.5,108.487603 L47.836,108.487603 Z M61.848,99.7836033 L61.848,108.487603 L60.184,108.487603 L60.184,106.967603 C59.576,108.135603 58.328,108.743603 56.952,108.743603 C54.152,108.743603 52.488,106.567603 52.488,104.135603 C52.488,101.479603 54.424,99.5276033 56.952,99.5276033 C58.68,99.5276033 59.784,100.487603 60.184,101.319603 L60.184,99.7836033 L61.848,99.7836033 Z M54.152,104.151603 L54.152,104.167603 C54.168,105.463603 55.08,107.191603 57.192,107.191603 C58.52,107.191603 59.464,106.455603 59.896,105.463603 C60.088,105.063603 60.184,104.615603 60.2,104.167603 C60.216,103.719603 60.136,103.271603 59.944,102.871603 C59.528,101.863603 58.552,101.079603 57.16,101.079603 C55.336,101.079603 54.152,102.519603 54.152,104.151603 Z M64.964,108.487603 L64.964,101.079603 L63.396,101.079603 L63.396,99.7836033 L64.964,99.7836033 L64.964,96.6476033 L66.628,96.6476033 L66.628,99.7836033 L68.308,99.7836033 L68.308,101.079603 L66.628,101.079603 L66.628,108.487603 L64.964,108.487603 Z M69.856,98.4076033 L69.856,96.6476033 L71.52,96.6476033 L71.52,98.4076033 L69.856,98.4076033 Z M69.856,108.487603 L69.856,99.7836033 L71.52,99.7836033 L71.52,108.487603 L69.856,108.487603 Z M73.5,104.135603 L73.5,104.119603 C73.5,101.799603 75.212,99.5276033 78.14,99.5276033 C81.068,99.5276033 82.78,101.799603 82.78,104.135603 C82.78,106.471603 81.068,108.727603 78.14,108.727603 C75.212,108.727603 73.5,106.471603 73.5,104.135603 Z M75.164,104.135603 L75.164,104.151603 C75.164,105.879603 76.476,107.175603 78.14,107.175603 C79.804,107.175603 81.116,105.879603 81.116,104.135603 C81.116,102.391603 79.804,101.095603 78.14,101.095603 C76.476,101.095603 75.164,102.391603 75.164,104.135603 Z M84.776,108.487603 L84.776,99.7836033 L86.344,99.7836033 L86.344,101.127603 C86.76,100.231603 87.736,99.5116033 89.288,99.5276033 C92.072,99.5596033 92.808,101.575603 92.808,103.383603 L92.808,108.487603 L91.128,108.487603 L91.128,103.767603 C91.128,102.199603 90.52,101.079603 88.824,101.095603 C87.192,101.111603 86.44,102.135603 86.44,103.639603 L86.44,108.487603 L84.776,108.487603 Z M100.74,102.055603 L99.092,102.055603 C99.092,101.383603 98.676,100.871603 97.828,100.887603 C97.012,100.887603 96.564,101.431603 96.58,102.007603 C96.612,102.695603 97.236,103.015603 98.164,103.271603 C99.492,103.639603 100.948,104.023603 100.996,105.895603 C101.028,107.591603 99.62,108.743603 97.892,108.743603 C96.516,108.743603 94.804,107.959603 94.724,105.975603 L96.372,105.975603 C96.436,107.031603 97.284,107.383603 97.908,107.383603 C98.708,107.383603 99.332,106.823603 99.332,106.087603 C99.316,105.223603 98.66,104.935603 97.108,104.423603 C95.892,104.055603 94.932,103.479603 94.916,102.167603 C94.916,100.519603 96.26,99.5276033 97.844,99.5276033 C99.044,99.5276033 100.612,100.119603 100.74,102.055603 Z" id="iterations"></path>
                    <path d="M52.970625,28.9 L77.345625,28.9 L77.345625,35.4 L58.885625,35.4 L56.740625,47.165 C58.300625,46.125 60.510625,44.63 64.930625,44.63 C75.395625,44.63 80.920625,53.405 80.920625,60.88 C80.920625,69.135 74.485625,77.91 63.565625,77.91 C55.050625,77.91 47.575625,72.45 46.275625,63.545 L53.945625,63.545 C54.985625,68.225 59.210625,71.15 63.370625,71.15 C68.700625,71.15 73.315625,66.6 73.315625,61.075 C73.315625,55.615 69.025625,51 63.370625,51 C61.095625,51 57.650625,51.715 54.920625,55.81 L48.680625,54.25 L52.970625,28.9 Z" id="5"></path>
                </g>
                <circle id="Oval" stroke="#35B0E5" stroke-width="1.5" cx="82.5" cy="82.5" r="81.75"></circle>
            </g>
            <g id="Group-11-Copy" transform="translate(195.000000, 0.000000)">
                <g id="Group-10" transform="translate(19.000000, 19.000000)" fill="#35B0E5" fill-rule="nonzero">
                    <path d="M28.24,108.487603 L28.24,101.079603 L26.672,101.079603 L26.672,99.7836033 L28.24,99.7836033 L28.24,96.6476033 L29.904,96.6476033 L29.904,99.7836033 L31.584,99.7836033 L31.584,101.079603 L29.904,101.079603 L29.904,108.487603 L28.24,108.487603 Z M41.212,104.663603 L33.772,104.663603 C33.852,106.423603 35.388,107.319603 36.7,107.319603 C37.868,107.319603 38.732,106.759603 39.212,105.847603 L40.94,105.847603 C40.524,106.807603 39.916,107.527603 39.18,108.007603 C38.444,108.503603 37.58,108.743603 36.7,108.743603 C33.852,108.743603 32.092,106.455603 32.092,104.151603 C32.092,101.655603 34.044,99.5276033 36.684,99.5276033 C37.932,99.5276033 39.068,99.9916033 39.9,100.807603 C40.924,101.847603 41.356,103.207603 41.212,104.663603 Z M33.804,103.367603 L39.564,103.367603 C39.484,102.215603 38.332,100.919603 36.684,100.951603 C34.988,100.951603 33.884,102.183603 33.804,103.367603 Z M48.632,102.055603 L46.984,102.055603 C46.984,101.383603 46.568,100.871603 45.72,100.887603 C44.904,100.887603 44.456,101.431603 44.472,102.007603 C44.504,102.695603 45.128,103.015603 46.056,103.271603 C47.384,103.639603 48.84,104.023603 48.888,105.895603 C48.92,107.591603 47.512,108.743603 45.784,108.743603 C44.408,108.743603 42.696,107.959603 42.616,105.975603 L44.264,105.975603 C44.328,107.031603 45.176,107.383603 45.8,107.383603 C46.6,107.383603 47.224,106.823603 47.224,106.087603 C47.208,105.223603 46.552,104.935603 45,104.423603 C43.784,104.055603 42.824,103.479603 42.808,102.167603 C42.808,100.519603 44.152,99.5276033 45.736,99.5276033 C46.936,99.5276033 48.504,100.119603 48.632,102.055603 Z M51.524,108.487603 L51.524,101.079603 L49.956,101.079603 L49.956,99.7836033 L51.524,99.7836033 L51.524,96.6476033 L53.188,96.6476033 L53.188,99.7836033 L54.868,99.7836033 L54.868,101.079603 L53.188,101.079603 L53.188,108.487603 L51.524,108.487603 Z M69.452,99.7836033 L69.452,108.487603 L67.884,108.487603 L67.884,107.143603 C67.468,108.039603 66.492,108.759603 64.94,108.743603 C62.14,108.727603 61.42,106.695603 61.42,104.887603 L61.42,99.7836033 L63.084,99.7836033 L63.084,104.503603 C63.084,106.071603 63.692,107.191603 65.404,107.191603 C67.036,107.175603 67.788,106.135603 67.788,104.647603 L67.788,99.7836033 L69.452,99.7836033 Z M77.416,102.055603 L75.768,102.055603 C75.768,101.383603 75.352,100.871603 74.504,100.887603 C73.688,100.887603 73.24,101.431603 73.256,102.007603 C73.288,102.695603 73.912,103.015603 74.84,103.271603 C76.168,103.639603 77.624,104.023603 77.672,105.895603 C77.704,107.591603 76.296,108.743603 74.568,108.743603 C73.192,108.743603 71.48,107.959603 71.4,105.975603 L73.048,105.975603 C73.112,107.031603 73.96,107.383603 74.584,107.383603 C75.384,107.383603 76.008,106.823603 76.008,106.087603 C75.992,105.223603 75.336,104.935603 73.784,104.423603 C72.568,104.055603 71.608,103.479603 71.592,102.167603 C71.592,100.519603 72.936,99.5276033 74.52,99.5276033 C75.72,99.5276033 77.288,100.119603 77.416,102.055603 Z M88.196,104.663603 L80.756,104.663603 C80.836,106.423603 82.372,107.319603 83.684,107.319603 C84.852,107.319603 85.716,106.759603 86.196,105.847603 L87.924,105.847603 C87.508,106.807603 86.9,107.527603 86.164,108.007603 C85.428,108.503603 84.564,108.743603 83.684,108.743603 C80.836,108.743603 79.076,106.455603 79.076,104.151603 C79.076,101.655603 81.028,99.5276033 83.668,99.5276033 C84.916,99.5276033 86.052,99.9916033 86.884,100.807603 C87.908,101.847603 88.34,103.207603 88.196,104.663603 Z M80.788,103.367603 L86.548,103.367603 C86.468,102.215603 85.316,100.919603 83.668,100.951603 C81.972,100.951603 80.868,102.183603 80.788,103.367603 Z M90.128,108.487603 L90.128,99.7836033 L91.696,99.7836033 L91.696,101.063603 C92.192,100.039603 93.104,99.5436033 94.288,99.5276033 L94.288,101.191603 L94.176,101.191603 C92.608,101.191603 91.792,102.055603 91.792,103.783603 L91.792,108.487603 L90.128,108.487603 Z M101.292,102.055603 L99.644,102.055603 C99.644,101.383603 99.228,100.871603 98.38,100.887603 C97.564,100.887603 97.116,101.431603 97.132,102.007603 C97.164,102.695603 97.788,103.015603 98.716,103.271603 C100.044,103.639603 101.5,104.023603 101.548,105.895603 C101.58,107.591603 100.172,108.743603 98.444,108.743603 C97.068,108.743603 95.356,107.959603 95.276,105.975603 L96.924,105.975603 C96.988,107.031603 97.836,107.383603 98.46,107.383603 C99.26,107.383603 99.884,106.823603 99.884,106.087603 C99.868,105.223603 99.212,104.935603 97.66,104.423603 C96.444,104.055603 95.484,103.479603 95.468,102.167603 C95.468,100.519603 96.812,99.5276033 98.396,99.5276033 C99.596,99.5276033 101.164,100.119603 101.292,102.055603 Z" id="testusers"></path>
                    <path d="M48.52625,77 L48.52625,68.16 L25.58125,68.16 L25.58125,62.44 L48.39625,28.9 L55.93625,28.9 L55.93625,62.05 L61.07125,62.05 L61.07125,68.16 L55.93625,68.16 L55.93625,77 L48.52625,77 Z M33.44625,62.05 L48.98125,62.05 L48.98125,38.195 L33.44625,62.05 Z M72.755,28.9 L97.13,28.9 L97.13,35.4 L78.67,35.4 L76.525,47.165 C78.085,46.125 80.295,44.63 84.715,44.63 C95.18,44.63 100.705,53.405 100.705,60.88 C100.705,69.135 94.27,77.91 83.35,77.91 C74.835,77.91 67.36,72.45 66.06,63.545 L73.73,63.545 C74.77,68.225 78.995,71.15 83.155,71.15 C88.485,71.15 93.1,66.6 93.1,61.075 C93.1,55.615 88.81,51 83.155,51 C80.88,51 77.435,51.715 74.705,55.81 L68.465,54.25 L72.755,28.9 Z" id="45"></path>
                </g>
                <circle id="Oval" stroke="#35B0E5" stroke-width="1.5" cx="82.5" cy="82.5" r="81.75"></circle>
            </g>
            <g id="Group-11-Copy-2" transform="translate(390.000000, 0.000000)">
                <g id="Group-10" transform="translate(19.000000, 16.000000)" fill="#35B0E5" fill-rule="nonzero">
                    <path d="M44.122,107.663603 L36.682,107.663603 C36.762,109.423603 38.298,110.319603 39.61,110.319603 C40.778,110.319603 41.642,109.759603 42.122,108.847603 L43.85,108.847603 C43.434,109.807603 42.826,110.527603 42.09,111.007603 C41.354,111.503603 40.49,111.743603 39.61,111.743603 C36.762,111.743603 35.002,109.455603 35.002,107.151603 C35.002,104.655603 36.954,102.527603 39.594,102.527603 C40.842,102.527603 41.978,102.991603 42.81,103.807603 C43.834,104.847603 44.266,106.207603 44.122,107.663603 Z M36.714,106.367603 L42.474,106.367603 C42.394,105.215603 41.242,103.919603 39.594,103.951603 C37.898,103.951603 36.794,105.183603 36.714,106.367603 Z M44.694,111.487603 L47.83,106.959603 L44.902,102.783603 L46.918,102.783603 L48.854,105.775603 L50.774,102.783603 L52.758,102.783603 L49.846,106.959603 L52.998,111.487603 L50.966,111.487603 L48.854,108.255603 L46.726,111.487603 L44.694,111.487603 Z M54.482,114.655603 L54.482,102.783603 L56.066,102.783603 L56.066,104.303603 C56.722,103.263603 57.842,102.527603 59.394,102.527603 C62.386,102.527603 63.794,105.023603 63.794,107.183603 C63.794,109.647603 62.018,111.743603 59.41,111.743603 C57.602,111.743603 56.53,110.751603 56.146,110.047603 L56.146,114.655603 L54.482,114.655603 Z M62.114,107.135603 L62.114,107.119603 C62.114,105.695603 61.106,104.079603 59.074,104.079603 C58.21,104.079603 57.458,104.415603 56.914,104.975603 C56.386,105.519603 56.066,106.287603 56.066,107.151603 C56.066,108.015603 56.386,108.767603 56.93,109.311603 C57.474,109.855603 58.242,110.191603 59.09,110.191603 C60.85,110.191603 62.114,108.831603 62.114,107.135603 Z M74.302,107.663603 L66.862,107.663603 C66.942,109.423603 68.478,110.319603 69.79,110.319603 C70.958,110.319603 71.822,109.759603 72.302,108.847603 L74.03,108.847603 C73.614,109.807603 73.006,110.527603 72.27,111.007603 C71.534,111.503603 70.67,111.743603 69.79,111.743603 C66.942,111.743603 65.182,109.455603 65.182,107.151603 C65.182,104.655603 67.134,102.527603 69.774,102.527603 C71.022,102.527603 72.158,102.991603 72.99,103.807603 C74.014,104.847603 74.446,106.207603 74.302,107.663603 Z M66.894,106.367603 L72.654,106.367603 C72.574,105.215603 71.422,103.919603 69.774,103.951603 C68.078,103.951603 66.974,105.183603 66.894,106.367603 Z M76.234,111.487603 L76.234,102.783603 L77.802,102.783603 L77.802,104.063603 C78.298,103.039603 79.21,102.543603 80.394,102.527603 L80.394,104.191603 L80.282,104.191603 C78.714,104.191603 77.898,105.055603 77.898,106.783603 L77.898,111.487603 L76.234,111.487603 Z M82.918,111.487603 L82.918,104.079603 L81.35,104.079603 L81.35,102.783603 L82.918,102.783603 L82.918,99.6476033 L84.582,99.6476033 L84.582,102.783603 L86.262,102.783603 L86.262,104.079603 L84.582,104.079603 L84.582,111.487603 L82.918,111.487603 Z M93.298,105.055603 L91.65,105.055603 C91.65,104.383603 91.234,103.871603 90.386,103.887603 C89.57,103.887603 89.122,104.431603 89.138,105.007603 C89.17,105.695603 89.794,106.015603 90.722,106.271603 C92.05,106.639603 93.506,107.023603 93.554,108.895603 C93.586,110.591603 92.178,111.743603 90.45,111.743603 C89.074,111.743603 87.362,110.959603 87.282,108.975603 L88.93,108.975603 C88.994,110.031603 89.842,110.383603 90.466,110.383603 C91.266,110.383603 91.89,109.823603 91.89,109.087603 C91.874,108.223603 91.218,107.935603 89.666,107.423603 C88.45,107.055603 87.49,106.479603 87.474,105.167603 C87.474,103.519603 88.818,102.527603 90.402,102.527603 C91.602,102.527603 93.17,103.119603 93.298,105.055603 Z" id="experts"></path>
                    <path d="M63.825625,28.9 L72.600625,28.9 L63.305625,42.225 C62.590625,43.2 61.875625,44.24 61.095625,45.345 C61.940625,44.825 64.020625,44.11 66.035625,44.11 C73.640625,44.11 81.440625,50.09 81.440625,60.425 C81.440625,70.37 73.770625,77.91 64.020625,77.91 C58.170625,77.91 53.360625,75.635 50.370625,71.93 C47.510625,68.615 46.405625,64.13 46.405625,60.555 C46.405625,55.355 48.485625,51.39 50.695625,48.075 L63.825625,28.9 Z M53.945625,61.14 L53.945625,61.205 C53.945625,66.925 58.235625,71.15 63.760625,71.15 C69.480625,71.15 73.770625,66.665 73.770625,61.075 C73.770625,54.9 69.090625,50.87 63.890625,50.87 C59.275625,50.87 53.945625,54.315 53.945625,61.14 Z" id="6"></path>
                </g>
                <circle id="Oval" stroke="#35B0E5" stroke-width="1.5" cx="82.5" cy="82.5" r="81.75"></circle>
            </g>
        </g>
    </g>
</svg>