<?xml version="1.0" encoding="UTF-8"?>
<svg width="986px" height="88px" viewBox="0 0 986 88" version="1.1" xmlns="http://www.w3.org/2000/svg" xmlns:xlink="http://www.w3.org/1999/xlink">
    <!-- Generator: Sketch 53.2 (72643) - https://sketchapp.com -->
    <title>Group</title>
    <desc>Created with Sketch.</desc>
    <g id="Page-1" stroke="none" stroke-width="1" fill="none" fill-rule="evenodd">
        <g id="Group" transform="translate(0.001403, -1.000000)">
            <path d="M79.9986,27.4500006 L860.798618,27.4500006" id="Line" stroke="#EE368A" stroke-width="2.44000006" stroke-linecap="square"></path>
            <path d="M736.453337,84.7400005 L736.453337,69.1408005 L739.594257,69.1408005 L739.594257,81.9785205 L744.716697,81.9785205 L744.716697,84.7400005 L736.453337,84.7400005 Z M745.602057,78.9430005 L745.602057,78.9219205 C745.602057,75.9707205 747.773297,72.8298005 751.799577,72.8298005 C755.825857,72.8298005 757.997097,75.9707205 757.997097,78.9430005 C757.997097,81.9363605 755.825857,85.0772805 751.799577,85.0772805 C747.773297,85.0772805 745.602057,81.9363605 745.602057,78.9430005 Z M748.363537,78.9430005 L748.363537,78.9640805 C748.363537,80.9877605 749.902377,82.4844405 751.799577,82.4844405 C753.696777,82.4844405 755.214537,80.9877605 755.214537,78.9430005 C755.214537,76.8982405 753.696777,75.4015605 751.799577,75.4015605 C749.902377,75.4015605 748.363537,76.8982405 748.363537,78.9430005 Z M768.811137,80.5240005 L771.635857,80.5240005 C770.982377,83.0957605 768.684657,85.0983605 765.691297,85.0983605 C762.023377,85.0983605 759.493777,82.2525605 759.493777,78.9430005 C759.493777,75.5280405 762.128777,72.8087205 765.585897,72.8087205 C768.494937,72.8087205 770.961297,74.6426805 771.635857,77.4674005 L768.811137,77.4674005 C768.326297,76.2447605 767.209057,75.3804805 765.691297,75.3804805 C764.679457,75.3594005 763.899497,75.7177605 763.224937,76.3712405 C762.634697,77.0036405 762.276337,77.9311605 762.276337,78.9430005 C762.276337,81.0299205 763.730857,82.5055205 765.691297,82.5055205 C767.419857,82.5055205 768.389537,81.4726005 768.811137,80.5240005 Z M785.632977,73.1670805 L785.632977,84.7400005 L782.871497,84.7400005 L782.871497,83.0746805 C782.133697,84.4238005 780.594857,85.0983605 778.971697,85.0983605 C775.261617,85.0983605 773.090377,82.2104005 773.090377,78.9430005 C773.090377,75.2961605 775.725377,72.8087205 778.971697,72.8087205 C781.079697,72.8087205 782.365577,73.9259605 782.871497,74.8534805 L782.871497,73.1670805 L785.632977,73.1670805 Z M775.851857,78.9851605 L775.851857,79.0062405 C775.851857,80.4396805 776.884777,82.5266005 779.372217,82.5266005 C780.911057,82.5266005 781.922897,81.7255605 782.449897,80.6715605 C782.723937,80.1656405 782.850417,79.6175605 782.892577,79.0484005 C782.913657,78.5003205 782.808257,77.9311605 782.576377,77.4252405 C782.091537,76.3290805 781.016457,75.3804805 779.351137,75.3804805 C777.116657,75.3804805 775.851857,77.1933605 775.851857,78.9851605 Z M789.132257,84.7400005 L789.132257,75.2961605 L787.213977,75.2961605 L787.213977,73.1670805 L789.132257,73.1670805 L789.132257,69.1408005 L791.893737,69.1408005 L791.893737,73.1670805 L793.875257,73.1670805 L793.875257,75.2961605 L791.893737,75.2961605 L791.893737,84.7400005 L789.132257,84.7400005 Z M806.839457,79.8705205 L797.522097,79.8705205 C797.648577,81.7255605 799.292817,82.7584805 800.873817,82.7374005 C802.222937,82.7374005 803.129377,82.1260805 803.656377,81.1774805 L806.502177,81.1774805 C805.954097,82.4633605 805.131977,83.4330405 804.162297,84.0865205 C803.192617,84.7610805 802.054297,85.0983605 800.852737,85.0983605 C797.290217,85.0983605 794.739537,82.2104005 794.739537,78.9851605 C794.739537,75.6966805 797.311297,72.8087205 800.810577,72.8087205 C802.539137,72.8087205 804.056897,73.4622005 805.131977,74.5794405 C806.544337,76.0339605 807.071337,77.8468405 806.839457,79.8705205 Z M797.564257,77.7625205 L804.120137,77.7625205 C804.014737,76.6663605 802.855337,75.1275205 800.831657,75.1486005 C798.786897,75.1486005 797.669657,76.6242005 797.564257,77.7625205 Z M823.028897,76.2869205 L820.309577,76.2869205 C820.288497,75.6756005 819.972297,75.0432005 818.897217,75.0432005 C817.969697,75.0432005 817.527017,75.6334405 817.527017,76.2026005 C817.548097,76.9404005 818.391297,77.3409205 819.487457,77.6571205 C821.342497,78.1630405 823.345097,78.7111205 823.366177,81.1985605 C823.408337,83.5806005 821.405737,85.0983605 818.981537,85.0983605 C817.189737,85.0983605 814.765537,84.1708405 814.554737,81.3672005 L817.316217,81.3672005 C817.421617,82.6109205 818.496697,82.8638805 819.023697,82.8638805 C819.887977,82.8638805 820.625777,82.2947205 820.604697,81.5147605 C820.604697,80.5240005 819.740417,80.2499605 817.611337,79.5121605 C816.051417,79.0273205 814.786617,78.1630405 814.765537,76.4977205 C814.765537,74.2210805 816.683817,72.8087205 818.918297,72.8087205 C820.478217,72.8087205 822.797017,73.5043605 823.028897,76.2869205 Z M826.190897,84.7400005 L826.190897,75.2961605 L824.272617,75.2961605 L824.272617,73.1670805 L826.190897,73.1670805 L826.190897,69.1408005 L828.952377,69.1408005 L828.952377,73.1670805 L830.933897,73.1670805 L830.933897,75.2961605 L828.952377,75.2961605 L828.952377,84.7400005 L826.190897,84.7400005 Z M831.924657,78.9430005 L831.924657,78.9219205 C831.924657,75.9707205 834.095897,72.8298005 838.122177,72.8298005 C842.148457,72.8298005 844.319697,75.9707205 844.319697,78.9430005 C844.319697,81.9363605 842.148457,85.0772805 838.122177,85.0772805 C834.095897,85.0772805 831.924657,81.9363605 831.924657,78.9430005 Z M834.686137,78.9430005 L834.686137,78.9640805 C834.686137,80.9877605 836.224977,82.4844405 838.122177,82.4844405 C840.019377,82.4844405 841.537137,80.9877605 841.537137,78.9430005 C841.537137,76.8982405 840.019377,75.4015605 838.122177,75.4015605 C836.224977,75.4015605 834.686137,76.8982405 834.686137,78.9430005 Z M846.427697,84.7400005 L846.427697,73.1670805 L849.041617,73.1670805 L849.041617,74.6848405 C849.547537,73.6519205 850.496137,72.8298005 852.245777,72.8087205 L852.245777,75.5912805 L852.119297,75.5912805 C850.179937,75.5912805 849.189177,76.4977205 849.189177,78.5003205 L849.189177,84.7400005 L846.427697,84.7400005 Z M865.146737,79.8705205 L855.829377,79.8705205 C855.955857,81.7255605 857.600097,82.7584805 859.181097,82.7374005 C860.530217,82.7374005 861.436657,82.1260805 861.963657,81.1774805 L864.809457,81.1774805 C864.261377,82.4633605 863.439257,83.4330405 862.469577,84.0865205 C861.499897,84.7610805 860.361577,85.0983605 859.160017,85.0983605 C855.597497,85.0983605 853.046817,82.2104005 853.046817,78.9851605 C853.046817,75.6966805 855.618577,72.8087205 859.117857,72.8087205 C860.846417,72.8087205 862.364177,73.4622005 863.439257,74.5794405 C864.851617,76.0339605 865.378617,77.8468405 865.146737,79.8705205 Z M855.871537,77.7625205 L862.427417,77.7625205 C862.322017,76.6663605 861.162617,75.1275205 859.138937,75.1486005 C857.094177,75.1486005 855.976937,76.6242005 855.871537,77.7625205 Z M874.991097,76.2869205 L872.271777,76.2869205 C872.250697,75.6756005 871.934497,75.0432005 870.859417,75.0432005 C869.931897,75.0432005 869.489217,75.6334405 869.489217,76.2026005 C869.510297,76.9404005 870.353497,77.3409205 871.449657,77.6571205 C873.304697,78.1630405 875.307297,78.7111205 875.328377,81.1985605 C875.370537,83.5806005 873.367937,85.0983605 870.943737,85.0983605 C869.151937,85.0983605 866.727737,84.1708405 866.516937,81.3672005 L869.278417,81.3672005 C869.383817,82.6109205 870.458897,82.8638805 870.985897,82.8638805 C871.850177,82.8638805 872.587977,82.2947205 872.566897,81.5147605 C872.566897,80.5240005 871.702617,80.2499605 869.573537,79.5121605 C868.013617,79.0273205 866.748817,78.1630405 866.727737,76.4977205 C866.727737,74.2210805 868.646017,72.8087205 870.880497,72.8087205 C872.440417,72.8087205 874.759217,73.5043605 874.991097,76.2869205 Z M886.247817,84.7400005 L882.537737,73.1670805 L885.404617,73.1670805 L887.702337,81.2196405 L889.915737,73.5465205 L892.255617,73.5465205 L894.511177,81.2196405 L896.766737,73.1670805 L899.633617,73.1670805 L895.923537,84.7400005 L893.330697,84.7400005 L891.054057,76.9193205 L888.840657,84.7400005 L886.247817,84.7400005 Z M901.172457,71.6071605 L901.172457,69.1408005 L903.933937,69.1408005 L903.933937,71.6071605 L901.172457,71.6071605 Z M901.172457,84.7400005 L901.172457,73.1670805 L903.933937,73.1670805 L903.933937,84.7400005 L901.172457,84.7400005 Z M907.412137,84.7400005 L907.412137,75.2961605 L905.493857,75.2961605 L905.493857,73.1670805 L907.412137,73.1670805 L907.412137,69.1408005 L910.173617,69.1408005 L910.173617,73.1670805 L912.155137,73.1670805 L912.155137,75.2961605 L910.173617,75.2961605 L910.173617,84.7400005 L907.412137,84.7400005 Z M913.757217,84.7400005 L913.757217,69.1408005 L916.518697,69.1408005 L916.518697,74.5372805 C917.172177,73.3146405 918.563457,72.7876405 919.933657,72.8087205 C921.725457,72.8087205 922.842697,73.4200405 923.517257,74.4318805 C924.212897,75.4437205 924.423697,76.8139205 924.423697,78.3738405 L924.423697,84.7400005 L921.662217,84.7400005 L921.662217,78.5003205 C921.662217,77.6149605 921.514657,76.8560805 921.135217,76.3080005 C920.734697,75.7599205 920.102297,75.4015605 919.132617,75.4015605 C918.036457,75.4015605 917.382977,75.8442405 917.003537,76.4134005 C916.624097,76.9825605 916.518697,77.6782005 916.518697,78.2684405 L916.518697,84.7400005 L913.757217,84.7400005 Z M945.398297,73.1670805 L945.398297,84.7400005 L942.636817,84.7400005 L942.636817,83.0746805 C941.899017,84.4238005 940.360177,85.0983605 938.737017,85.0983605 C935.026937,85.0983605 932.855697,82.2104005 932.855697,78.9430005 C932.855697,75.2961605 935.490697,72.8087205 938.737017,72.8087205 C940.845017,72.8087205 942.130897,73.9259605 942.636817,74.8534805 L942.636817,73.1670805 L945.398297,73.1670805 Z M935.617177,78.9851605 L935.617177,79.0062405 C935.617177,80.4396805 936.650097,82.5266005 939.137537,82.5266005 C940.676377,82.5266005 941.688217,81.7255605 942.215217,80.6715605 C942.489257,80.1656405 942.615737,79.6175605 942.657897,79.0484005 C942.678977,78.5003205 942.573577,77.9311605 942.341697,77.4252405 C941.856857,76.3290805 940.781777,75.3804805 939.116457,75.3804805 C936.881977,75.3804805 935.617177,77.1933605 935.617177,78.9851605 Z M948.138697,88.7873605 L948.138697,73.1670805 L950.731537,73.1670805 L950.731537,74.8534805 C951.553657,73.6940805 952.902777,72.8087205 954.821057,72.8087205 C958.868417,72.8087205 960.575897,76.2447605 960.575897,79.0484005 C960.575897,82.3368805 958.236017,85.0983605 954.842137,85.0983605 C952.586577,85.0983605 951.363937,83.9389605 950.900177,83.2011605 L950.900177,88.7873605 L948.138697,88.7873605 Z M957.814417,78.9640805 L957.814417,78.9430005 C957.814417,77.2776805 956.612857,75.3804805 954.272977,75.3804805 C953.261137,75.3804805 952.396857,75.7810005 951.764457,76.4344805 C951.153137,77.0668805 950.773697,77.9733205 950.773697,78.9851605 C950.773697,79.9759205 951.153137,80.8612805 951.785537,81.4936805 C952.417937,82.1260805 953.303297,82.5266005 954.294057,82.5266005 C956.402057,82.5266005 957.814417,80.8612805 957.814417,78.9640805 Z M962.726057,88.7873605 L962.726057,73.1670805 L965.318897,73.1670805 L965.318897,74.8534805 C966.141017,73.6940805 967.490137,72.8087205 969.408417,72.8087205 C973.455777,72.8087205 975.163257,76.2447605 975.163257,79.0484005 C975.163257,82.3368805 972.823377,85.0983605 969.429497,85.0983605 C967.173937,85.0983605 965.951297,83.9389605 965.487537,83.2011605 L965.487537,88.7873605 L962.726057,88.7873605 Z M972.401777,78.9640805 L972.401777,78.9430005 C972.401777,77.2776805 971.200217,75.3804805 968.860337,75.3804805 C967.848497,75.3804805 966.984217,75.7810005 966.351817,76.4344805 C965.740497,77.0668805 965.361057,77.9733205 965.361057,78.9851605 C965.361057,79.9759205 965.740497,80.8612805 966.372897,81.4936805 C967.005297,82.1260805 967.890657,82.5266005 968.881417,82.5266005 C970.989417,82.5266005 972.401777,80.8612805 972.401777,78.9640805 Z M985.049777,76.2869205 L982.330457,76.2869205 C982.309377,75.6756005 981.993177,75.0432005 980.918097,75.0432005 C979.990577,75.0432005 979.547897,75.6334405 979.547897,76.2026005 C979.568977,76.9404005 980.412177,77.3409205 981.508337,77.6571205 C983.363377,78.1630405 985.365977,78.7111205 985.387057,81.1985605 C985.429217,83.5806005 983.426617,85.0983605 981.002417,85.0983605 C979.210617,85.0983605 976.786417,84.1708405 976.575617,81.3672005 L979.337097,81.3672005 C979.442497,82.6109205 980.517577,82.8638805 981.044577,82.8638805 C981.908857,82.8638805 982.646657,82.2947205 982.625577,81.5147605 C982.625577,80.5240005 981.761297,80.2499605 979.632217,79.5121605 C978.072297,79.0273205 976.807497,78.1630405 976.786417,76.4977205 C976.786417,74.2210805 978.704697,72.8087205 980.939177,72.8087205 C982.499097,72.8087205 984.817897,73.5043605 985.049777,76.2869205 Z" id="Locatestoreswithapps" fill="#EE368A" fill-rule="nonzero"></path>
            <g id="Step-3" transform="translate(836.398618, 3.660000)">
                <circle id="Oval" stroke="#EE368A" stroke-width="3.66000009" fill="#FFFFFF" cx="24.4000006" cy="24.4000006" r="22.5700005"></circle>
                <path d="M21.9844005,19.6932405 L18.0389204,19.6932405 C18.1462804,15.3720004 21.7160005,13.9226403 24.2926406,13.9226403 C27.7818407,13.9226403 30.1169207,16.2845604 30.1169207,19.1564404 C30.1169207,21.5988805 28.4796807,22.7530005 27.4597606,23.3166405 C31.0831607,24.5512806 31.2710407,27.4231606 31.2710407,28.3088807 C31.2710407,31.8517607 28.1307607,34.5357608 24.2389606,34.5357608 C22.0649205,34.5357608 19.6493205,33.6768808 18.4146804,31.8786007 C17.5289604,30.6708007 17.3142404,29.1946007 17.2605604,28.2820407 L21.2865605,28.2820407 C21.3939205,29.5435207 22.3601605,30.9928807 24.3194806,31.0197207 C26.2519606,31.0197207 27.2718806,29.6777207 27.2718806,28.0136407 C27.2718806,26.0543206 25.4199206,25.1686006 23.8632006,25.1686006 L22.2528005,25.1686006 L22.2528005,22.1893605 L23.1385205,22.1893605 C24.5073606,22.1893605 26.1177606,21.4110005 26.1177606,19.7200805 C26.1177606,18.5122804 25.4199206,17.4386804 24.1316006,17.4386804 C22.4406805,17.4386804 22.0380805,18.8075204 21.9844005,19.6932405 Z" id="3" fill="#EE368A" fill-rule="nonzero"></path>
            </g>
            <path d="M349.699657,84.7400005 L349.699657,69.1408005 L352.840577,69.1408005 L352.840577,81.9785205 L357.963017,81.9785205 L357.963017,84.7400005 L349.699657,84.7400005 Z M358.848377,78.9430005 L358.848377,78.9219205 C358.848377,75.9707205 361.019617,72.8298005 365.045897,72.8298005 C369.072177,72.8298005 371.243417,75.9707205 371.243417,78.9430005 C371.243417,81.9363605 369.072177,85.0772805 365.045897,85.0772805 C361.019617,85.0772805 358.848377,81.9363605 358.848377,78.9430005 Z M361.609857,78.9430005 L361.609857,78.9640805 C361.609857,80.9877605 363.148697,82.4844405 365.045897,82.4844405 C366.943097,82.4844405 368.460857,80.9877605 368.460857,78.9430005 C368.460857,76.8982405 366.943097,75.4015605 365.045897,75.4015605 C363.148697,75.4015605 361.609857,76.8982405 361.609857,78.9430005 Z M372.761177,78.9430005 L372.761177,78.9219205 C372.761177,75.9707205 374.932417,72.8298005 378.958697,72.8298005 C382.984977,72.8298005 385.156217,75.9707205 385.156217,78.9430005 C385.156217,81.9363605 382.984977,85.0772805 378.958697,85.0772805 C374.932417,85.0772805 372.761177,81.9363605 372.761177,78.9430005 Z M375.522657,78.9430005 L375.522657,78.9640805 C375.522657,80.9877605 377.061497,82.4844405 378.958697,82.4844405 C380.855897,82.4844405 382.373657,80.9877605 382.373657,78.9430005 C382.373657,76.8982405 380.855897,75.4015605 378.958697,75.4015605 C377.061497,75.4015605 375.522657,76.8982405 375.522657,78.9430005 Z M387.369617,84.7400005 L387.369617,69.1408005 L390.131097,69.1408005 L390.131097,77.5728005 L394.115217,73.1670805 L397.424777,73.1670805 L392.618537,78.2684405 L397.445857,84.7400005 L394.283857,84.7400005 L390.131097,78.9640805 L390.131097,84.7400005 L387.369617,84.7400005 Z M417.366457,73.1670805 L417.366457,84.7400005 L414.604977,84.7400005 L414.604977,83.0746805 C413.867177,84.4238005 412.328337,85.0983605 410.705177,85.0983605 C406.995097,85.0983605 404.823857,82.2104005 404.823857,78.9430005 C404.823857,75.2961605 407.458857,72.8087205 410.705177,72.8087205 C412.813177,72.8087205 414.099057,73.9259605 414.604977,74.8534805 L414.604977,73.1670805 L417.366457,73.1670805 Z M407.585337,78.9851605 L407.585337,79.0062405 C407.585337,80.4396805 408.618257,82.5266005 411.105697,82.5266005 C412.644537,82.5266005 413.656377,81.7255605 414.183377,80.6715605 C414.457417,80.1656405 414.583897,79.6175605 414.626057,79.0484005 C414.647137,78.5003205 414.541737,77.9311605 414.309857,77.4252405 C413.825017,76.3290805 412.749937,75.3804805 411.084617,75.3804805 C408.850137,75.3804805 407.585337,77.1933605 407.585337,78.9851605 Z M420.865737,84.7400005 L420.865737,75.2961605 L418.947457,75.2961605 L418.947457,73.1670805 L420.865737,73.1670805 L420.865737,69.1408005 L423.627217,69.1408005 L423.627217,73.1670805 L425.608737,73.1670805 L425.608737,75.2961605 L423.627217,75.2961605 L423.627217,84.7400005 L420.865737,84.7400005 Z M445.487177,73.1670805 L445.487177,84.7400005 L442.725697,84.7400005 L442.725697,83.0746805 C441.987897,84.4238005 440.449057,85.0983605 438.825897,85.0983605 C435.115817,85.0983605 432.944577,82.2104005 432.944577,78.9430005 C432.944577,75.2961605 435.579577,72.8087205 438.825897,72.8087205 C440.933897,72.8087205 442.219777,73.9259605 442.725697,74.8534805 L442.725697,73.1670805 L445.487177,73.1670805 Z M435.706057,78.9851605 L435.706057,79.0062405 C435.706057,80.4396805 436.738977,82.5266005 439.226417,82.5266005 C440.765257,82.5266005 441.777097,81.7255605 442.304097,80.6715605 C442.578137,80.1656405 442.704617,79.6175605 442.746777,79.0484005 C442.767857,78.5003205 442.662457,77.9311605 442.430577,77.4252405 C441.945737,76.3290805 440.870657,75.3804805 439.205337,75.3804805 C436.970857,75.3804805 435.706057,77.1933605 435.706057,78.9851605 Z M458.451377,73.1670805 L454.151057,84.7400005 L451.452817,84.7400005 L447.152497,73.1670805 L450.019377,73.1670805 L452.801937,81.2618005 L455.584497,73.1670805 L458.451377,73.1670805 Z M472.047977,73.1670805 L472.047977,84.7400005 L469.286497,84.7400005 L469.286497,83.0746805 C468.548697,84.4238005 467.009857,85.0983605 465.386697,85.0983605 C461.676617,85.0983605 459.505377,82.2104005 459.505377,78.9430005 C459.505377,75.2961605 462.140377,72.8087205 465.386697,72.8087205 C467.494697,72.8087205 468.780577,73.9259605 469.286497,74.8534805 L469.286497,73.1670805 L472.047977,73.1670805 Z M462.266857,78.9851605 L462.266857,79.0062405 C462.266857,80.4396805 463.299777,82.5266005 465.787217,82.5266005 C467.326057,82.5266005 468.337897,81.7255605 468.864897,80.6715605 C469.138937,80.1656405 469.265417,79.6175605 469.307577,79.0484005 C469.328657,78.5003205 469.223257,77.9311605 468.991377,77.4252405 C468.506537,76.3290805 467.431457,75.3804805 465.766137,75.3804805 C463.531657,75.3804805 462.266857,77.1933605 462.266857,78.9851605 Z M474.788377,71.6071605 L474.788377,69.1408005 L477.549857,69.1408005 L477.549857,71.6071605 L474.788377,71.6071605 Z M474.788377,84.7400005 L474.788377,73.1670805 L477.549857,73.1670805 L477.549857,84.7400005 L474.788377,84.7400005 Z M480.269177,84.7400005 L480.269177,69.1408005 L483.030657,69.1408005 L483.030657,84.7400005 L480.269177,84.7400005 Z M497.681257,73.1670805 L497.681257,84.7400005 L494.919777,84.7400005 L494.919777,83.0746805 C494.181977,84.4238005 492.643137,85.0983605 491.019977,85.0983605 C487.309897,85.0983605 485.138657,82.2104005 485.138657,78.9430005 C485.138657,75.2961605 487.773657,72.8087205 491.019977,72.8087205 C493.127977,72.8087205 494.413857,73.9259605 494.919777,74.8534805 L494.919777,73.1670805 L497.681257,73.1670805 Z M487.900137,78.9851605 L487.900137,79.0062405 C487.900137,80.4396805 488.933057,82.5266005 491.420497,82.5266005 C492.959337,82.5266005 493.971177,81.7255605 494.498177,80.6715605 C494.772217,80.1656405 494.898697,79.6175605 494.940857,79.0484005 C494.961937,78.5003205 494.856537,77.9311605 494.624657,77.4252405 C494.139817,76.3290805 493.064737,75.3804805 491.399417,75.3804805 C489.164937,75.3804805 487.900137,77.1933605 487.900137,78.9851605 Z M500.421657,84.7400005 L500.421657,69.1408005 L503.183137,69.1408005 L503.183137,74.6005205 C504.321457,73.1881605 505.986777,72.8087205 507.040777,72.8087205 C509.781177,72.8087205 512.816697,74.8113205 512.816697,78.9008405 C512.816697,82.8217205 510.076297,85.0983605 506.914297,85.0983605 C505.101417,85.0983605 503.689057,84.2130005 503.077737,83.0746805 L503.077737,84.7400005 L500.421657,84.7400005 Z M510.055217,78.9430005 L510.055217,78.9219205 C510.055217,77.0247205 508.600697,75.3804805 506.577017,75.3804805 C504.426857,75.3804805 503.077737,77.0668805 503.077737,78.9430005 C503.077737,80.8823605 504.426857,82.5266005 506.513777,82.5266005 C508.769337,82.5266005 510.055217,80.7348005 510.055217,78.9430005 Z M514.924697,84.7400005 L514.924697,69.1408005 L517.686177,69.1408005 L517.686177,84.7400005 L514.924697,84.7400005 Z M531.767617,79.8705205 L522.450257,79.8705205 C522.576737,81.7255605 524.220977,82.7584805 525.801977,82.7374005 C527.151097,82.7374005 528.057537,82.1260805 528.584537,81.1774805 L531.430337,81.1774805 C530.882257,82.4633605 530.060137,83.4330405 529.090457,84.0865205 C528.120777,84.7610805 526.982457,85.0983605 525.780897,85.0983605 C522.218377,85.0983605 519.667697,82.2104005 519.667697,78.9851605 C519.667697,75.6966805 522.239457,72.8087205 525.738737,72.8087205 C527.467297,72.8087205 528.985057,73.4622005 530.060137,74.5794405 C531.472497,76.0339605 531.999497,77.8468405 531.767617,79.8705205 Z M522.492417,77.7625205 L529.048297,77.7625205 C528.942897,76.6663605 527.783497,75.1275205 525.759817,75.1486005 C523.715057,75.1486005 522.597817,76.6242005 522.492417,77.7625205 Z M552.151977,73.1670805 L552.151977,84.7400005 L549.390497,84.7400005 L549.390497,83.0746805 C548.652697,84.4238005 547.113857,85.0983605 545.490697,85.0983605 C541.780617,85.0983605 539.609377,82.2104005 539.609377,78.9430005 C539.609377,75.2961605 542.244377,72.8087205 545.490697,72.8087205 C547.598697,72.8087205 548.884577,73.9259605 549.390497,74.8534805 L549.390497,73.1670805 L552.151977,73.1670805 Z M542.370857,78.9851605 L542.370857,79.0062405 C542.370857,80.4396805 543.403777,82.5266005 545.891217,82.5266005 C547.430057,82.5266005 548.441897,81.7255605 548.968897,80.6715605 C549.242937,80.1656405 549.369417,79.6175605 549.411577,79.0484005 C549.432657,78.5003205 549.327257,77.9311605 549.095377,77.4252405 C548.610537,76.3290805 547.535457,75.3804805 545.870137,75.3804805 C543.635657,75.3804805 542.370857,77.1933605 542.370857,78.9851605 Z M554.892377,88.7873605 L554.892377,73.1670805 L557.485217,73.1670805 L557.485217,74.8534805 C558.307337,73.6940805 559.656457,72.8087205 561.574737,72.8087205 C565.622097,72.8087205 567.329577,76.2447605 567.329577,79.0484005 C567.329577,82.3368805 564.989697,85.0983605 561.595817,85.0983605 C559.340257,85.0983605 558.117617,83.9389605 557.653857,83.2011605 L557.653857,88.7873605 L554.892377,88.7873605 Z M564.568097,78.9640805 L564.568097,78.9430005 C564.568097,77.2776805 563.366537,75.3804805 561.026657,75.3804805 C560.014817,75.3804805 559.150537,75.7810005 558.518137,76.4344805 C557.906817,77.0668805 557.527377,77.9733205 557.527377,78.9851605 C557.527377,79.9759205 557.906817,80.8612805 558.539217,81.4936805 C559.171617,82.1260805 560.056977,82.5266005 561.047737,82.5266005 C563.155737,82.5266005 564.568097,80.8612805 564.568097,78.9640805 Z M569.479737,88.7873605 L569.479737,73.1670805 L572.072577,73.1670805 L572.072577,74.8534805 C572.894697,73.6940805 574.243817,72.8087205 576.162097,72.8087205 C580.209457,72.8087205 581.916937,76.2447605 581.916937,79.0484005 C581.916937,82.3368805 579.577057,85.0983605 576.183177,85.0983605 C573.927617,85.0983605 572.704977,83.9389605 572.241217,83.2011605 L572.241217,88.7873605 L569.479737,88.7873605 Z M579.155457,78.9640805 L579.155457,78.9430005 C579.155457,77.2776805 577.953897,75.3804805 575.614017,75.3804805 C574.602177,75.3804805 573.737897,75.7810005 573.105497,76.4344805 C572.494177,77.0668805 572.114737,77.9733205 572.114737,78.9851605 C572.114737,79.9759205 572.494177,80.8612805 573.126577,81.4936805 C573.758977,82.1260805 574.644337,82.5266005 575.635097,82.5266005 C577.743097,82.5266005 579.155457,80.8612805 579.155457,78.9640805 Z M591.803457,76.2869205 L589.084137,76.2869205 C589.063057,75.6756005 588.746857,75.0432005 587.671777,75.0432005 C586.744257,75.0432005 586.301577,75.6334405 586.301577,76.2026005 C586.322657,76.9404005 587.165857,77.3409205 588.262017,77.6571205 C590.117057,78.1630405 592.119657,78.7111205 592.140737,81.1985605 C592.182897,83.5806005 590.180297,85.0983605 587.756097,85.0983605 C585.964297,85.0983605 583.540097,84.1708405 583.329297,81.3672005 L586.090777,81.3672005 C586.196177,82.6109205 587.271257,82.8638805 587.798257,82.8638805 C588.662537,82.8638805 589.400337,82.2947205 589.379257,81.5147605 C589.379257,80.5240005 588.514977,80.2499605 586.385897,79.5121605 C584.825977,79.0273205 583.561177,78.1630405 583.540097,76.4977205 C583.540097,74.2210805 585.458377,72.8087205 587.692857,72.8087205 C589.252777,72.8087205 591.571577,73.5043605 591.803457,76.2869205 Z" id="Lookatavailableapps" fill="#EE368A" fill-rule="nonzero"></path>
            <g id="Step-2" transform="translate(445.998609, 1.220000)">
                <circle id="Oval" stroke="#EE368A" stroke-width="3.66000009" fill="#FFFFFF" cx="24.4000006" cy="25.6200006" r="22.5700005"></circle>
                <path d="M17.7436804,34.1600008 L17.7436804,31.0197207 C19.6761605,29.2751207 21.6086405,27.5573606 23.5411206,25.8127606 C25.5272806,24.0681606 27.1108406,22.6993205 27.1376806,20.4179205 C27.1376806,18.4586004 25.9030406,17.4386804 24.2658006,17.4386804 C22.3333205,17.4386804 21.5281205,19.1832804 21.5012805,21.2231205 L17.6631604,21.2231205 C17.7168404,19.6932405 17.9584004,18.0560004 19.0588404,16.5798004 C20.6155605,14.3520803 23.1922005,13.9226403 24.6147206,13.9226403 C28.7749207,13.9226403 31.1368407,16.7945204 31.1368407,20.0690005 C31.1100007,22.3772405 30.2779607,24.0144806 27.9428807,26.2422006 C26.3861606,27.7452407 24.8026006,29.2482807 23.2190405,30.7781607 L31.2442007,30.7781607 L31.2442007,34.1600008 L17.7436804,34.1600008 Z" id="2" fill="#EE368A" fill-rule="nonzero"></path>
            </g>
            <path d="M1.42108547e-14,84.7400005 L1.42108547e-14,69.1408005 L8.28444,69.1408005 L8.28444,71.9022805 L3.14092,71.9022805 L3.14092,75.6334405 L8.15796,75.6334405 L8.15796,78.3949205 L3.14092,78.3949205 L3.14092,84.7400005 L1.42108547e-14,84.7400005 Z M10.41352,71.6071605 L10.41352,69.1408005 L13.175,69.1408005 L13.175,71.6071605 L10.41352,71.6071605 Z M10.41352,84.7400005 L10.41352,73.1670805 L13.175,73.1670805 L13.175,84.7400005 L10.41352,84.7400005 Z M15.89432,84.7400005 L15.89432,69.1408005 L18.6558,69.1408005 L18.6558,84.7400005 L15.89432,84.7400005 Z M21.37512,84.7400005 L21.37512,69.1408005 L24.1366,69.1408005 L24.1366,84.7400005 L21.37512,84.7400005 Z M32.58968,78.9430005 L32.58968,78.9219205 C32.58968,75.9707205 34.76092,72.8298005 38.7872,72.8298005 C42.81348,72.8298005 44.98472,75.9707205 44.98472,78.9430005 C44.98472,81.9363605 42.81348,85.0772805 38.7872,85.0772805 C34.76092,85.0772805 32.58968,81.9363605 32.58968,78.9430005 Z M35.35116,78.9430005 L35.35116,78.9640805 C35.35116,80.9877605 36.89,82.4844405 38.7872,82.4844405 C40.6844,82.4844405 42.20216,80.9877605 42.20216,78.9430005 C42.20216,76.8982405 40.6844,75.4015605 38.7872,75.4015605 C36.89,75.4015605 35.35116,76.8982405 35.35116,78.9430005 Z M57.78028,73.1670805 L57.78028,84.7400005 L55.18744,84.7400005 L55.18744,83.2011605 C54.7026,84.1076005 53.66968,85.1194405 51.58276,85.0983605 C47.78836,85.0772805 47.07164,82.1893205 47.07164,80.1656405 L47.07164,73.1670805 L49.83312,73.1670805 L49.83312,79.4700005 C49.83312,81.1774805 50.40228,82.5266005 52.36272,82.5055205 C54.34424,82.5055205 55.0188,81.1985605 55.0188,79.5543205 L55.0188,73.1670805 L57.78028,73.1670805 Z M61.27956,84.7400005 L61.27956,75.2961605 L59.36128,75.2961605 L59.36128,73.1670805 L61.27956,73.1670805 L61.27956,69.1408005 L64.04104,69.1408005 L64.04104,73.1670805 L66.02256,73.1670805 L66.02256,75.2961605 L64.04104,75.2961605 L64.04104,84.7400005 L61.27956,84.7400005 Z M85.901,73.1670805 L85.901,84.7400005 L83.13952,84.7400005 L83.13952,83.0746805 C82.40172,84.4238005 80.86288,85.0983605 79.23972,85.0983605 C75.52964,85.0983605 73.3584,82.2104005 73.3584,78.9430005 C73.3584,75.2961605 75.9934,72.8087205 79.23972,72.8087205 C81.34772,72.8087205 82.6336,73.9259605 83.13952,74.8534805 L83.13952,73.1670805 L85.901,73.1670805 Z M76.11988,78.9851605 L76.11988,79.0062405 C76.11988,80.4396805 77.1528,82.5266005 79.64024,82.5266005 C81.17908,82.5266005 82.19092,81.7255605 82.71792,80.6715605 C82.99196,80.1656405 83.11844,79.6175605 83.1606,79.0484005 C83.18168,78.5003205 83.07628,77.9311605 82.8444,77.4252405 C82.35956,76.3290805 81.28448,75.3804805 79.61916,75.3804805 C77.38468,75.3804805 76.11988,77.1933605 76.11988,78.9851605 Z M102.72284,76.2869205 L100.00352,76.2869205 C99.98244,75.6756005 99.66624,75.0432005 98.59116,75.0432005 C97.66364,75.0432005 97.22096,75.6334405 97.22096,76.2026005 C97.24204,76.9404005 98.08524,77.3409205 99.1814,77.6571205 C101.03644,78.1630405 103.03904,78.7111205 103.06012,81.1985605 C103.10228,83.5806005 101.09968,85.0983605 98.67548,85.0983605 C96.88368,85.0983605 94.45948,84.1708405 94.24868,81.3672005 L97.01016,81.3672005 C97.11556,82.6109205 98.19064,82.8638805 98.71764,82.8638805 C99.58192,82.8638805 100.31972,82.2947205 100.29864,81.5147605 C100.29864,80.5240005 99.43436,80.2499605 97.30528,79.5121605 C95.74536,79.0273205 94.48056,78.1630405 94.45948,76.4977205 C94.45948,74.2210805 96.37776,72.8087205 98.61224,72.8087205 C100.17216,72.8087205 102.49096,73.5043605 102.72284,76.2869205 Z M115.79244,73.1670805 L115.79244,84.7400005 L113.1996,84.7400005 L113.1996,83.2011605 C112.71476,84.1076005 111.68184,85.1194405 109.59492,85.0983605 C105.80052,85.0772805 105.0838,82.1893205 105.0838,80.1656405 L105.0838,73.1670805 L107.84528,73.1670805 L107.84528,79.4700005 C107.84528,81.1774805 108.41444,82.5266005 110.37488,82.5055205 C112.3564,82.5055205 113.03096,81.1985605 113.03096,79.5543205 L113.03096,73.1670805 L115.79244,73.1670805 Z M118.51176,84.7400005 L118.51176,73.1670805 L121.12568,73.1670805 L121.12568,74.6848405 C121.6316,73.6519205 122.5802,72.8298005 124.32984,72.8087205 L124.32984,75.5912805 L124.20336,75.5912805 C122.264,75.5912805 121.27324,76.4977205 121.27324,78.5003205 L121.27324,84.7400005 L118.51176,84.7400005 Z M136.09248,73.1670805 L131.79216,84.7400005 L129.09392,84.7400005 L124.7936,73.1670805 L127.66048,73.1670805 L130.44304,81.2618005 L133.2256,73.1670805 L136.09248,73.1670805 Z M149.11992,79.8705205 L139.80256,79.8705205 C139.92904,81.7255605 141.57328,82.7584805 143.15428,82.7374005 C144.5034,82.7374005 145.40984,82.1260805 145.93684,81.1774805 L148.78264,81.1774805 C148.23456,82.4633605 147.41244,83.4330405 146.44276,84.0865205 C145.47308,84.7610805 144.33476,85.0983605 143.1332,85.0983605 C139.57068,85.0983605 137.02,82.2104005 137.02,78.9851605 C137.02,75.6966805 139.59176,72.8087205 143.09104,72.8087205 C144.8196,72.8087205 146.33736,73.4622005 147.41244,74.5794405 C148.8248,76.0339605 149.3518,77.8468405 149.11992,79.8705205 Z M139.84472,77.7625205 L146.4006,77.7625205 C146.2952,76.6663605 145.1358,75.1275205 143.11212,75.1486005 C141.06736,75.1486005 139.95012,76.6242005 139.84472,77.7625205 Z M152.4084,88.7873605 L154.3056,84.2973205 L149.94204,73.1670805 L152.89324,73.1670805 L155.71796,80.8612805 L158.50052,73.1670805 L161.45172,73.1670805 L155.3596,88.7873605 L152.4084,88.7873605 Z" id="Filloutasurvey" fill="#EE368A" fill-rule="nonzero"></path>
            <g id="Step-1" transform="translate(55.598599, 0.000000)">
                <circle id="Oval" stroke="#EE368A" stroke-width="3.66000009" fill="#FFFFFF" cx="24.4000006" cy="25.6200006" r="22.5700005"></circle>
                <polygon id="1" fill="#EE368A" fill-rule="nonzero" points="22.7090805 34.8920013 22.7090805 18.4122409 19.1662004 18.4122409 19.1662004 15.0304008 26.7082406 15.0304008 26.7082406 34.8920013"></polygon>
            </g>
        </g>
    </g>
</svg>