<?xml version="1.0" encoding="UTF-8"?>
<svg width="524px" height="495px" viewBox="0 0 524 495" version="1.1" xmlns="http://www.w3.org/2000/svg" xmlns:xlink="http://www.w3.org/1999/xlink">
    <!-- Generator: Sketch 53.2 (72643) - https://sketchapp.com -->
    <title>Group 8</title>
    <desc>Created with Sketch.</desc>
    <defs>
        <rect id="path-1" x="0.283981132" y="0.0638998435" width="347.19566" height="346.765514"></rect>
        <rect id="path-3" x="0.313100156" y="0.0638998435" width="346.763875" height="346.765514"></rect>
        <rect id="path-5" x="0.641830189" y="0.170585681" width="347.19566" height="346.765514"></rect>
    </defs>
    <g id="smaps" stroke="none" stroke-width="1" fill="none" fill-rule="evenodd">
        <g id="smaps_desktop" transform="translate(-897.000000, -10320.000000)">
            <g id="design-criteria" transform="translate(278.000000, 10258.000000)">
                <g id="diagrams" transform="translate(0.000000, 61.000000)">
                    <g id="Group-8" transform="translate(618.000000, 0.000000)">
                        <g id="Group" opacity="0.55" transform="translate(0.000000, 150.000000)">
                            <g id="Clipped">
                                <g>
                                    <mask id="mask-2" fill="white">
                                        <use xlink:href="#path-1"></use>
                                    </mask>
                                    <g id="SVGID_1_"></g>
                                    <path d="M173.881811,345.189939 C268.849698,345.189939 345.838132,268.298526 345.838132,173.446657 C345.838132,78.5964274 268.849698,1.70337559 173.881811,1.70337559 C78.9139245,1.70337559 1.92549057,78.5964274 1.92549057,173.446657 C1.92549057,268.298526 78.9139245,345.189939 173.881811,345.189939" id="Path" fill="#35B0E5" fill-rule="nonzero" mask="url(#mask-2)"></path>
                                </g>
                            </g>
                        </g>
                        <g id="Group" opacity="0.55" transform="translate(179.000000, 150.000000)">
                            <g id="Clipped">
                                <g>
                                    <mask id="mask-4" fill="white">
                                        <use xlink:href="#path-3"></use>
                                    </mask>
                                    <g id="SVGID_3_"></g>
                                    <path d="M173.695857,345.189939 C268.546087,345.189939 345.439139,268.298526 345.439139,173.446657 C345.439139,78.5964274 268.546087,1.70337559 173.695857,1.70337559 C78.8456277,1.70337559 1.9525759,78.5964274 1.9525759,173.446657 C1.9525759,268.298526 78.8456277,345.189939 173.695857,345.189939" id="Path" fill="#35B0E5" fill-rule="nonzero" mask="url(#mask-4)"></path>
                                </g>
                            </g>
                        </g>
                        <g id="Group" opacity="0.55" transform="translate(86.000000, 0.000000)">
                            <g id="Clipped">
                                <g>
                                    <mask id="mask-6" fill="white">
                                        <use xlink:href="#path-5"></use>
                                    </mask>
                                    <g id="SVGID_5_"></g>
                                    <path d="M174.23966,345.296624 C269.207547,345.296624 346.195981,268.405212 346.195981,173.553343 C346.195981,78.7031133 269.207547,1.81006142 174.23966,1.81006142 C79.2717736,1.81006142 2.28333962,78.7031133 2.28333962,173.553343 C2.28333962,268.405212 79.2717736,345.296624 174.23966,345.296624" id="Path" fill="#35B0E5" fill-rule="nonzero" mask="url(#mask-6)"></path>
                                </g>
                            </g>
                        </g>
                        <g id="Group" transform="translate(195.000000, 90.000000)" fill="#000000" fill-rule="nonzero">
                            <polygon id="Path" points="4.87124703 2.7488 0.383187224 2.7488 0.383187224 0.9968 11.4347672 0.9968 11.4347672 2.7488 6.92039416 2.7488 6.92039416 18.7552 4.87289161 18.7552 4.87289161 2.7488"></polygon>
                            <path d="M12.0005029,5.8432 L13.7273123,5.8432 L13.7273123,7.9552 C14.6893918,6.0352 16.4162012,5.5312 17.9703296,5.4832 L17.9703296,7.2352 L17.7976487,7.2352 C15.2321033,7.2352 13.8013184,8.7952 13.8013184,11.7232 L13.8013184,18.7552 L12.0005029,18.7552 L12.0005029,5.8432 Z" id="Path"></path>
                            <path d="M32.1548352,18.7552 L30.4280258,18.7552 L30.4280258,16.4512 C29.6879647,18.1312 27.8871492,19.1392 25.5189534,19.1152 C21.3746109,19.0432 19.9208019,16.3072 19.9208019,13.1632 L19.9208019,5.8432 L21.7216174,5.8432 L21.7216174,12.8272 C21.7216174,15.6112 23.0027455,17.4832 25.9893034,17.4592 C28.7521984,17.4352 30.3309956,15.8272 30.3309956,13.1392 L30.3309956,5.8432 L32.1564798,5.8432 L32.1564798,18.7552 L32.1548352,18.7552 Z" id="Path"></path>
                            <path d="M41.6769555,9.0832 C41.6769555,7.7152 40.7395447,6.9472 39.4074346,6.9472 C37.951981,6.9472 37.0639076,7.9072 37.1116004,9.0352 C37.1609378,10.2592 38.1230173,10.7632 39.7264832,11.2192 C41.6259735,11.7232 43.7474822,12.2512 43.846157,15.0112 C43.9464764,17.3872 41.9713354,19.1152 39.456772,19.1152 C37.3089501,19.1152 34.9423989,17.7952 34.9160856,15.0832 L36.7185457,15.0832 C36.7925518,16.8592 38.147686,17.6512 39.4814407,17.6512 C41.0109004,17.6512 42.0716548,16.5472 42.0469861,15.2272 C41.9992932,13.7632 41.0109004,13.1632 38.7183554,12.5152 C36.8188651,11.9632 35.3370982,11.2192 35.2894054,9.1792 C35.2894054,6.8512 37.1872511,5.4832 39.4337479,5.4832 C41.2839008,5.4832 43.356072,6.4672 43.4794156,9.0832 L41.6769555,9.0832 Z" id="Path"></path>
                            <polygon id="Path" points="47.8441318 7.2608 45.2292491 7.2608 45.2292491 5.8448 47.8441318 5.8448 47.8441318 0.9968 49.6449473 0.9968 49.6449473 5.8448 52.5574992 5.8448 52.5574992 7.2608 49.6449473 7.2608 49.6449473 18.7568 47.8441318 18.7568"></polygon>
                            <polygon id="Path" points="52.9998913 5.8432 54.9240503 5.8432 58.5750187 16.4752 61.7589263 6.9952 63.2637173 6.9952 66.4690044 16.4752 70.0953041 5.8432 71.9947944 5.8432 67.4064152 18.7552 65.6055997 18.7552 62.4726741 9.3472 59.389086 18.7552 57.6129392 18.7552"></polygon>
                            <path d="M72.6838736,12.2752 C72.6838736,8.6752 75.4467686,5.4832 79.7128101,5.4832 C84.0051648,5.4832 86.7680598,8.6752 86.7680598,12.2992 C86.7680598,15.9232 84.0051648,19.0912 79.7128101,19.0912 C75.445124,19.0912 72.6838736,15.9232 72.6838736,12.2992 L72.6838736,12.2752 Z M74.4846891,12.3232 C74.4846891,15.2512 76.7805233,17.4592 79.7144546,17.4592 C82.6763439,17.4592 84.9458648,15.2512 84.9458648,12.2992 C84.9458648,9.3472 82.6763439,7.1392 79.7144546,7.1392 C76.7805233,7.1392 74.4846891,9.3472 74.4846891,12.2992 L74.4846891,12.3232 Z" id="Shape"></path>
                            <path d="M89.5079307,5.8432 L91.2347401,5.8432 L91.2347401,7.9552 C92.1968196,6.0352 93.923629,5.5312 95.4777574,5.4832 L95.4777574,7.2352 L95.3050765,7.2352 C92.7395311,7.2352 91.3087462,8.7952 91.3087462,11.7232 L91.3087462,18.7552 L89.5079307,18.7552 L89.5079307,5.8432 Z" id="Path"></path>
                            <polygon id="Path" points="99.1287258 7.2608 96.513843 7.2608 96.513843 5.8448 99.1287258 5.8448 99.1287258 0.9968 100.929541 0.9968 100.929541 5.8448 103.842093 5.8448 103.842093 7.2608 100.929541 7.2608 100.929541 18.7568 99.1287258 18.7568"></polygon>
                            <path d="M105.838614,0.9968 L107.662453,0.9968 L107.662453,5.7248 L107.662453,7.9568 C108.476521,6.2528 110.524023,5.4368 112.398845,5.4848 C114.495685,5.4848 115.877132,6.1328 116.789874,7.2608 C117.704261,8.3888 118.049623,9.9488 118.049623,11.7968 L118.049623,18.7568 L116.248807,18.7568 L116.248807,11.8688 C116.248807,10.4768 115.951138,9.3008 115.286728,8.4608 C114.569691,7.6208 113.53525,7.1408 111.956453,7.1408 C110.500999,7.1408 109.415576,7.6448 108.724852,8.4128 C108.007815,9.1808 107.662453,10.2368 107.662453,11.4128 L107.662453,18.7568 L105.838614,18.7568 L105.838614,0.9968 L105.838614,0.9968 Z" id="Path"></path>
                            <polygon id="Path" points="124.539137 18.5152 119.408046 5.8432 121.356874 5.8432 125.525885 16.2832 129.81824 5.8432 131.816405 5.8432 124.243112 23.6512 122.271261 23.6512"></polygon>
                        </g>
                        <g id="Group" transform="translate(59.000000, 348.000000)" fill="#000006" fill-rule="nonzero">
                            <path d="M18.4341373,13.6895 C17.2623725,16.5011346 14.1148824,18.9197981 10.1341373,18.9197981 C4.78796078,18.9197981 0.711196078,14.7516731 0.711196078,9.47369231 C0.711196078,4.26970192 4.69031373,0.0275865385 10.1097255,0.0275865385 C14.575451,0.0275865385 17.3844314,3.03652885 18.4325098,5.35489423 L16.2598627,5.35489423 C15.6495686,4.26970192 13.5989804,1.82801923 10.1097255,1.82801923 C5.8864902,1.82801923 2.71296078,5.20691346 2.71296078,9.44902885 C2.71296078,13.7651346 5.91090196,17.1177212 10.1097255,17.1177212 C13.8919216,17.1177212 15.8220784,14.3817212 16.2598627,13.6895 L18.4341373,13.6895 Z" id="Path"></path>
                            <path d="M34.228549,18.5975288 L32.4220784,18.5975288 L32.4220784,15.8598846 C31.3967843,17.857625 29.3966471,18.9674808 27.0514902,18.9674808 C22.7794314,18.9674808 20.2406078,15.6148942 20.2406078,11.9630577 C20.2406078,8.067875 23.0479608,4.95863462 27.0514902,4.95863462 C29.8604706,4.95863462 31.7873725,6.61108654 32.4220784,8.11555769 L32.4220784,5.33023077 L34.228549,5.33023077 L34.228549,18.5975288 Z M22.0226667,11.9893654 C22.0487059,14.3817212 23.6842941,17.2673462 27.2956078,17.2673462 C29.6147255,17.2673462 31.323549,15.9108558 32.0314902,14.0364327 C32.3244314,13.3935385 32.470902,12.6536346 32.470902,11.9400385 C32.4953137,11.2001346 32.3488431,10.4602308 32.055902,9.81898077 C31.323549,7.99388462 29.565902,6.63739423 27.2467843,6.63739423 C24.2213529,6.63739423 22.0226667,9.00344231 22.0226667,11.9630577 L22.0226667,11.9893654 L22.0226667,11.9893654 Z" id="Shape"></path>
                            <path d="M43.6514902,8.65815385 C43.6514902,7.25398077 42.7238431,6.46310577 41.4056078,6.46310577 C39.9653137,6.46310577 39.0864902,7.45128846 39.1336863,8.60882692 C39.1825098,9.86830769 40.1345686,10.3845962 41.7213333,10.8532019 C43.6010392,11.3711346 45.700451,11.915375 45.798098,14.7500288 C45.8973725,17.1917115 43.9428039,18.9658365 41.4544314,18.9658365 C39.3289804,18.9658365 36.9870784,17.6109904 36.9610392,14.822375 L38.7447255,14.822375 C38.8179608,16.6474712 40.1589804,17.4597212 41.4788431,17.4597212 C42.9923725,17.4597212 44.0420784,16.3268462 44.0176667,14.9687115 C43.9704706,13.4642404 42.9923725,12.8476538 40.7237059,12.1833846 C38.844,11.6144808 37.3776667,10.8499135 37.3304706,8.75516346 C37.3304706,6.36280769 39.208549,4.95534615 41.4316471,4.95534615 C43.2625294,4.95534615 45.3131176,5.96654808 45.4351765,8.65486538 L43.6514902,8.65486538 L43.6514902,8.65815385 Z" id="Path"></path>
                            <path d="M60.8129608,18.5975288 L59.1041373,18.5975288 L59.1041373,16.2314808 C58.3717843,17.9579231 56.5897255,18.9937885 54.2461961,18.9674808 C50.1450196,18.8934904 48.7063529,16.0818558 48.7063529,12.8509423 L48.7063529,5.33023077 L50.4884118,5.33023077 L50.4884118,12.5056538 C50.4884118,15.3666154 51.7561961,17.2903654 54.7116471,17.2673462 C57.4457647,17.2410385 59.0081176,15.5885865 59.0081176,12.8279231 L59.0081176,5.33023077 L60.8145882,5.33023077 L60.8145882,18.5975288 L60.8129608,18.5975288 Z" id="Path"></path>
                            <path d="M77.5106078,18.5975288 L75.7041373,18.5975288 L75.7041373,15.8598846 C74.6788431,17.857625 72.6787059,18.9674808 70.333549,18.9674808 C66.0614902,18.9674808 63.5226667,15.6148942 63.5226667,11.9630577 C63.5226667,8.067875 66.3300196,4.95863462 70.333549,4.95863462 C73.1425294,4.95863462 75.0694314,6.61108654 75.7041373,8.11555769 L75.7041373,5.33023077 L77.5106078,5.33023077 L77.5106078,18.5975288 Z M65.3047255,11.9893654 C65.3307647,14.3817212 66.9663529,17.2673462 70.5776667,17.2673462 C72.8967843,17.2673462 74.6056078,15.9108558 75.313549,14.0364327 C75.6064902,13.3935385 75.7529608,12.6536346 75.7529608,11.9400385 C75.7773725,11.2001346 75.630902,10.4602308 75.3379608,9.81898077 C74.6056078,7.99388462 72.8479608,6.63739423 70.5288431,6.63739423 C67.5034118,6.63739423 65.3047255,9.00344231 65.3047255,11.9630577 L65.3047255,11.9893654 L65.3047255,11.9893654 Z" id="Shape"></path>
                            <polygon id="Path" points="81.025902 0.348211538 82.8307451 0.348211538 82.8307451 18.5991731 81.025902 18.5991731"></polygon>
                        </g>
                        <g id="Group" transform="translate(375.000000, 346.000000)" fill="#000000" fill-rule="nonzero">
                            <path d="M4.99088889,1.0816 C7.55786667,1.0816 8.76488889,1.3696 9.89955556,2.2096 C11.1065778,3.1216 11.8482222,4.776 11.8482222,6.4336 C11.8482222,8.1136 11.0835556,9.8176 9.97355556,10.6576 C8.76488889,11.5696 7.53155556,11.8576 5.16355556,11.8576 L2.22822222,11.8576 L2.22822222,18.8416 L0.180888889,18.8416 L0.180888889,1.0816 L4.99088889,1.0816 L4.99088889,1.0816 Z M2.22822222,10.104 L5.13888889,10.104 C6.66986667,10.104 7.60555556,9.9376 8.51986667,9.36 C9.30755556,8.856 9.87488889,7.728 9.87488889,6.48 C9.87488889,5.208 9.30755556,4.08 8.49355556,3.576 C7.58088889,3.0016 6.64355556,2.832 5.0912,2.832 L2.22986667,2.832 L2.22986667,10.104 L2.22822222,10.104 Z" id="Shape"></path>
                            <polygon id="Path" points="13.9218667 1.0816 15.7455556 1.0816 15.7455556 18.8416 13.9218667 18.8416"></polygon>
                            <path d="M32.5928889,18.84 L30.7675556,18.84 L30.7675556,16.176 C29.7315556,18.12 27.7105333,19.2 25.3408889,19.2 C21.0242222,19.2 18.4588889,15.9376 18.4588889,12.384 C18.4588889,8.5936 21.2955556,5.568 25.3408889,5.568 C28.1792,5.568 30.1262222,7.176 30.7675556,8.64 L30.7675556,5.9296 L32.5928889,5.9296 L32.5928889,18.84 Z M20.2595556,12.4096 C20.2858667,14.7376 21.9385333,17.5456 25.5875556,17.5456 C27.9308889,17.5456 29.6575556,16.2256 30.3728889,14.4016 C30.6688889,13.776 30.8168889,13.056 30.8168889,12.3616 C30.8415556,11.6416 30.6935556,10.9216 30.3975556,10.2976 C29.6575556,8.5216 27.8815556,7.2016 25.5382222,7.2016 C22.4812,7.2016 20.2595556,9.504 20.2595556,12.384 L20.2595556,12.4096 L20.2595556,12.4096 Z" id="Shape"></path>
                            <polygon id="Path" points="39.5488889 18.6 34.4182222 5.9296 36.3668889 5.9296 40.5355556 16.368 44.8275556 5.9296 46.8255556 5.9296 39.2528889 23.736 37.2812 23.736"></polygon>
                            <path d="M48.9485333,7.3456 L46.9982222,7.3456 L46.9982222,5.9296 L48.9485333,5.9296 L48.9485333,4.8736 C48.9485333,0.8896 52.1798667,0.7696 53.6088889,0.7696 L53.6088889,2.1872 C52.6962222,2.2336 50.7492,2.2336 50.7492,5.0416 L50.7492,5.9312 L53.6088889,5.9312 L53.6088889,7.3472 L50.7492,7.3472 L50.7492,18.8432 L48.9485333,18.8432 L48.9485333,7.3456 L48.9485333,7.3456 Z" id="Path"></path>
                            <path d="M67.7412444,18.84 L66.0145778,18.84 L66.0145778,16.5376 C65.2745778,18.2176 63.4739111,19.2256 61.1059111,19.2 C56.9619111,19.128 55.5082222,16.392 55.5082222,13.248 L55.5082222,5.9296 L57.3088889,5.9296 L57.3088889,12.912 C57.3088889,15.696 58.5899111,17.568 61.5762222,17.5456 C64.3388889,17.52 65.9175556,15.912 65.9175556,13.2256 L65.9175556,5.9296 L67.7428889,5.9296 L67.7428889,18.84 L67.7412444,18.84 Z" id="Path"></path>
                            <polygon id="Path" points="71.2932444 1.0816 73.1169333 1.0816 73.1169333 18.8416 71.2932444 18.8416"></polygon>
                        </g>
                        <g id="Group" transform="translate(208.000000, 269.000000)" fill="#FFFFFF" fill-rule="nonzero">
                            <path d="M9.673125,5.2416 C9.64195312,4.3424 9.16453125,3.4112 7.54195312,3.4112 C6.14085937,3.4112 5.473125,4.28 5.473125,5.1168 C5.5059375,6.2032 6.77742187,6.792 8.4328125,7.2576 C11.2333594,8.0032 14.2553906,8.8096 14.2865625,12.472 C14.3505469,15.9776 11.326875,18.2128 7.66828125,18.2128 C4.96453125,18.2128 1.30429687,16.8464 0.98765625,12.72 L5.15484375,12.72 C5.315625,14.5504 6.9365625,14.9232 7.73226562,14.9232 C9.0365625,14.9232 10.1505469,14.0848 10.1177344,12.9376 C10.1177344,11.4784 8.8134375,11.0752 5.59945312,9.9888 C3.24515625,9.2752 1.33546875,8.0032 1.30429687,5.552 C1.30429687,2.2 4.20164062,0.1216 7.573125,0.1216 C9.92742187,0.1216 13.426875,1.1456 13.7763281,5.24 L9.673125,5.24 L9.673125,5.2416 Z" id="Path"></path>
                            <path d="M17.4004687,0.6496 L21.315,0.6496 L21.315,2.7904 C21.695625,2.016 23.3821875,0.1232 26.4058594,0.1232 C27.838125,0.1232 29.4295312,0.5264 30.7010156,1.8608 C31.0816406,2.264 31.5278906,2.9776 31.7510156,3.4128 C32.0692969,2.8848 32.4515625,2.3264 33.0241406,1.7984 C34.1053125,0.8064 35.6327344,0.1232 37.4784375,0.1232 C38.9435156,0.1232 40.7892187,0.4944 42.1246875,1.8288 C43.7160937,3.4432 44.0327344,4.8384 44.0327344,8.344 L44.0327344,17.6848 L39.8655469,17.6848 L39.8655469,8.5008 C39.8655469,7.4144 39.76875,6.2352 39.165,5.3344 C38.7203906,4.4976 37.891875,3.9376 36.4284375,3.9376 C34.9633594,3.9376 33.9461719,4.5584 33.4047656,5.4896 C32.865,6.4208 32.8010156,7.3216 32.8010156,8.344 L32.8010156,17.6848 L28.6321875,17.6848 L28.6321875,8.344 C28.6321875,7.352 28.5370312,6.3888 28.0924219,5.52 C27.5821875,4.6208 26.7241406,3.968 25.2278906,3.9376 C23.7004687,3.9376 22.745625,4.6512 22.2370312,5.52 C21.7284375,6.4192 21.5692969,7.4752 21.5692969,8.4688 L21.5692969,17.6848 L17.4021094,17.6848 L17.4021094,0.6496 L17.4004687,0.6496 Z" id="Path"></path>
                            <path d="M66.0728906,17.6864 L61.9057031,17.6864 L61.9057031,15.2352 C60.7917188,17.2208 58.4685937,18.2144 56.0191406,18.2144 C50.4180469,18.2144 47.1417188,13.9632 47.1417188,9.1536 C47.1417188,3.7856 51.1185938,0.1232 56.0191406,0.1232 C59.2003125,0.1232 61.1411719,1.7664 61.9057031,3.1328 L61.9057031,0.6496 L66.0728906,0.6496 L66.0728906,17.6864 Z M51.3105469,9.2448 C51.3105469,11.3552 52.8691406,14.4272 56.6228906,14.4272 C58.9460156,14.4272 60.4734375,13.248 61.2691406,11.696 C61.6825781,10.952 61.8728906,10.144 61.936875,9.3072 C61.9680469,8.5008 61.8089063,7.6624 61.4594531,6.9184 C60.7277344,5.304 59.1035156,3.9072 56.5900781,3.9072 C53.2169531,3.9072 51.3089062,6.576 51.3089062,9.2128 L51.3089062,9.2448 L51.3105469,9.2448 Z" id="Shape"></path>
                            <path d="M70.2039844,0.6496 L74.1185156,0.6496 L74.1185156,3.1328 C75.3588281,1.4272 77.3948437,0.1232 80.2905469,0.1232 C86.4002344,0.1232 88.9776562,5.1808 88.9776562,9.3072 C88.9776562,14.1472 85.4453906,18.2128 80.3233594,18.2128 C76.9190625,18.2128 75.0733594,16.5056 74.3728125,15.4192 L74.3728125,17.6848 L74.3728125,23.6432 L70.205625,23.6432 L70.205625,0.6496 L70.2039844,0.6496 Z M84.8071875,9.1536 C84.8071875,6.7024 82.9942969,3.9088 79.4620312,3.9088 C77.9346094,3.9088 76.6286719,4.4992 75.6754687,5.4608 C74.7534375,6.392 74.1792187,7.7264 74.1792187,9.216 C74.1792187,10.6752 74.7534375,11.9792 75.7082812,12.9104 C76.6614844,13.84 77.9985937,14.4304 79.4948437,14.4304 C82.6760156,14.4304 84.8071875,11.9792 84.8071875,9.1872 L84.8071875,9.1536 Z" id="Shape"></path>
                            <path d="M99.7877344,5.2416 C99.7565625,4.3424 99.2791406,3.4112 97.6565625,3.4112 C96.2554687,3.4112 95.5877344,4.28 95.5877344,5.1168 C95.6205469,6.2032 96.8920312,6.792 98.5474219,7.2576 C101.346328,8.0032 104.37,8.8096 104.401172,12.472 C104.465156,15.9776 101.441484,18.2128 97.7828906,18.2128 C95.0791406,18.2128 91.4189062,16.8464 91.1022656,12.72 L95.2694531,12.72 C95.4302344,14.5504 97.0511719,14.9232 97.846875,14.9232 C99.1511719,14.9232 100.265156,14.0848 100.232344,12.9376 C100.232344,11.4784 98.9280469,11.0752 95.7140625,9.9888 C93.3597656,9.2752 91.4500781,8.0032 91.4189062,5.552 C91.4189062,2.2 94.31625,0.1216 97.6877344,0.1216 C100.042031,0.1216 103.541484,1.1456 103.890937,5.24 L99.7877344,5.24 L99.7877344,5.2416 Z" id="Path"></path>
                        </g>
                    </g>
                </g>
            </g>
        </g>
    </g>
</svg>