<?xml version="1.0" encoding="utf-8"?>
<!-- Generator: Adobe Illustrator 24.0.0, SVG Export Plug-In . SVG Version: 6.00 Build 0)  -->
<svg version="1.1" xmlns="http://www.w3.org/2000/svg" xmlns:xlink="http://www.w3.org/1999/xlink" x="0px" y="0px"
	 viewBox="0 0 70 70" style="enable-background:new 0 0 70 70;" xml:space="preserve">
<style type="text/css">
	.st0{opacity:0.7;fill:#35B0E5;}
	.st1{fill:#FFFFFF;}
</style>
<g id="Layer_2">
	<circle class="st0" cx="35" cy="35" r="35"/>
</g>
<g id="Layer_1">
	<path class="st1" d="M51.5,34.7c-0.5,0.5-1.1,0.7-1.7,0.7c-0.6,0-1.2-0.2-1.7-0.7L37.4,23.9v27.8c0,1.3-1.1,2.4-2.4,2.4
		s-2.4-1.1-2.4-2.4V23.9L21.9,34.7c-0.9,0.9-2.4,0.9-3.4,0c-0.9-0.9-0.9-2.4,0-3.4l14.8-14.7c0.9-0.9,2.4-0.9,3.3,0l14.8,14.7
		C52.4,32.3,52.4,33.8,51.5,34.7z"/>
</g>
</svg>
