<?xml version="1.0" encoding="UTF-8"?>
<svg width="43px" height="43px" viewBox="0 0 43 43" version="1.1" xmlns="http://www.w3.org/2000/svg" xmlns:xlink="http://www.w3.org/1999/xlink">
    <!-- Generator: Sketch 53.2 (72643) - https://sketchapp.com -->
    <title>facebook</title>
    <desc>Created with Sketch.</desc>
    <g id="others" stroke="none" stroke-width="1" fill="none" fill-rule="evenodd">
        <g id="about-me" transform="translate(-874.000000, -1328.000000)" fill="#000000">
            <g id="social-media" transform="translate(691.000000, 1328.000000)">
                <g id="facebook" transform="translate(183.000000, 0.000000)">
                    <g id="Path">
                        <path d="M36.7011719,0 L6.29882812,0 C2.82594304,0 0,2.82594304 0,6.29882812 L0,36.7011719 C0,40.174057 2.82594304,43 6.29882812,43 L18.9804688,43 L18.9804688,27.7988281 L13.9414062,27.7988281 L13.9414062,20.2402344 L18.9804688,20.2402344 L18.9804688,15.1171875 C18.9804688,10.9491348 22.3710098,7.55859375 26.5390625,7.55859375 L34.1816406,7.55859375 L34.1816406,15.1171875 L26.5390625,15.1171875 L26.5390625,20.2402344 L34.1816406,20.2402344 L32.921875,27.7988281 L26.5390625,27.7988281 L26.5390625,43 L36.7011719,43 C40.174057,43 43,40.174057 43,36.7011719 L43,6.29882812 C43,2.82594304 40.174057,0 36.7011719,0 Z" fill-rule="nonzero"></path>
                    </g>
                </g>
            </g>
        </g>
    </g>
</svg>