<?xml version="1.0" encoding="UTF-8"?>
<svg width="43px" height="43px" viewBox="0 0 43 43" version="1.1" xmlns="http://www.w3.org/2000/svg" xmlns:xlink="http://www.w3.org/1999/xlink">
    <!-- Generator: Sketch 53.2 (72643) - https://sketchapp.com -->
    <title>instagram</title>
    <desc>Created with Sketch.</desc>
    <g id="others" stroke="none" stroke-width="1" fill="none" fill-rule="evenodd">
        <g id="about-me" transform="translate(-783.000000, -1328.000000)" fill="#000000">
            <g id="social-media" transform="translate(691.000000, 1328.000000)">
                <g id="instagram" transform="translate(92.000000, 0.000000)">
                    <g>
                        <path d="M25.2841802,18.7899395 C24.4394971,17.6116524 23.0542169,16.8373494 21.5,16.8373494 C19.9457831,16.8373494 18.5605029,17.6116524 17.7158198,18.7899395 C17.1752226,19.5642425 16.8373494,20.5068723 16.8373494,21.5168327 C16.8373494,24.0753991 18.9321634,26.1626506 21.5,26.1626506 C24.0678366,26.1626506 26.1626506,24.0753991 26.1626506,21.5168327 C26.1626506,20.5068723 25.8247774,19.5642425 25.2841802,18.7899395 Z" id="Path" fill-rule="nonzero"></path>
                        <path d="M28.2657003,18.6506024 C28.6056852,19.3370482 28.8096762,20.4353614 28.8096762,21.3963855 C28.8096762,25.4464157 25.5458208,28.7756777 21.5,28.7756777 C17.4541792,28.7756777 14.1903238,25.480738 14.1903238,21.3963855 C14.1903238,20.4010392 14.3943148,19.3370482 14.7342997,18.6506024 L10.6204819,18.6506024 L10.6204819,29.6680572 C10.6204819,31.1095934 11.8784262,32.3795181 13.306363,32.3795181 L29.693637,32.3795181 C31.1215738,32.3795181 32.3795181,31.1095934 32.3795181,29.6680572 L32.3795181,18.6506024 L28.2657003,18.6506024 Z" id="Path" fill-rule="nonzero"></path>
                        <polygon id="Path" fill-rule="nonzero" points="31.0686382 11.1733501 27.1987952 11.1733501 27.1987952 15.8012048 31.6024096 15.8012048 31.6024096 11.7648804 31.6024096 11.1385542"></polygon>
                        <path d="M32.1903251,0 L10.7755749,0 C4.84218874,0 0,4.84603175 0,10.784127 L0,32.25 C0,38.1539683 4.84218874,43 10.7755749,43 L32.2244251,43 C38.1578113,43 43,38.1539683 43,32.215873 L43,10.784127 C42.9659001,4.84603175 38.1237113,0 32.1903251,0 Z M34.7819191,18.7357143 L34.7819191,18.7357143 L34.7819191,29.7246032 C34.7819191,32.5912698 32.5654243,34.8095238 29.7010309,34.8095238 L13.2648692,34.8095238 C10.4004758,34.8095238 8.18398097,32.5912698 8.18398097,29.7246032 L8.18398097,18.7357143 L8.18398097,13.2753968 C8.18398097,10.4087302 10.4004758,8.19047619 13.2648692,8.19047619 L29.7010309,8.19047619 C32.5654243,8.19047619 34.7819191,10.4087302 34.7819191,13.2753968 L34.7819191,18.7357143 Z" id="Shape" fill-rule="nonzero"></path>
                    </g>
                </g>
            </g>
        </g>
    </g>
</svg>