<?xml version="1.0" encoding="UTF-8"?>
<svg width="43px" height="43px" viewBox="0 0 43 43" version="1.1" xmlns="http://www.w3.org/2000/svg" xmlns:xlink="http://www.w3.org/1999/xlink">
    <!-- Generator: Sketch 53.2 (72643) - https://sketchapp.com -->
    <title>linkedin</title>
    <desc>Created with Sketch.</desc>
    <g id="others" stroke="none" stroke-width="1" fill="none" fill-rule="evenodd">
        <g id="about-me" transform="translate(-691.000000, -1328.000000)" fill="#000000">
            <g id="social-media" transform="translate(691.000000, 1328.000000)">
                <g id="linkedin">
                    <g id="Shape">
                        <path d="M36.7011719,0 L6.29882813,0 C2.82594304,0 0,2.82594304 0,6.29882813 L0,36.7011719 C0,40.174057 2.82594304,43 6.29882813,43 L36.7011719,43 C40.174057,43 43,40.174057 43,36.7011719 L43,6.29882813 C43,2.82594304 40.174057,0 36.7011719,0 Z M15.2011719,34.0976563 L10.1621094,34.0976563 L10.1621094,16.4609375 L15.2011719,16.4609375 L15.2011719,34.0976563 Z M15.2011719,13.9414062 L10.1621094,13.9414062 L10.1621094,8.90234375 L15.2011719,8.90234375 L15.2011719,13.9414062 Z M32.8378906,34.0976563 L27.7988281,34.0976563 L27.7988281,24.0195313 C27.7988281,22.6305085 26.6683197,21.5 25.2792969,21.5 C23.8902741,21.5 22.7597656,22.6305085 22.7597656,24.0195313 L22.7597656,34.0976563 L17.7207031,34.0976563 L17.7207031,16.4609375 L22.7597656,16.4609375 L22.7597656,17.4106827 C24.079895,17.0002747 24.9374543,16.4609375 26.5390625,16.4609375 C29.9565048,16.4645462 32.8378906,19.530304 32.8378906,23.1534424 L32.8378906,34.0976563 Z" fill-rule="nonzero"></path>
                    </g>
                </g>
            </g>
        </g>
    </g>
</svg>